<svg xmlns="http://www.w3.org/2000/svg" xmlns:xlink="http://www.w3.org/1999/xlink" viewBox="0 0 83.88 161.53"><defs><style>.cls-1,.cls-6{fill:none;}.cls-2{fill:#047477;}.cls-3{fill:#03dde2;}.cls-4{fill:#02a1ac;}.cls-5{fill:#fff;}.cls-6{stroke:#02a1ac;stroke-miterlimit:10;stroke-width:0.5px;}.cls-7{fill:#008b95;}.cls-8{fill:#258f83;}.cls-9{fill:#00939f;}.cls-10{fill:#0097a4;}.cls-11{fill:#00a0ae;}.cls-12{fill:#02a8b8;}.cls-13{fill:#fff1b3;}.cls-14{fill:#e0d39b;}.cls-15{clip-path:url(#clip-path);}.cls-16{fill:#d1ad74;}.cls-17{fill:#c2a16b;}.cls-18{fill:#e6be80;}.cls-19{fill:#ceced1;}.cls-20{fill:#4d4a4b;}.cls-21{fill:#2e2c2d;}</style><clipPath id="clip-path" transform="translate(0 0.09)"><circle class="cls-1" cx="42.01" cy="38.02" r="24.81" transform="translate(-14.25 31.29) rotate(-35.32)"/></clipPath></defs><g id="Слой_2" data-name="Слой 2"><g id="Слой_2-2" data-name="Слой 2"><path class="cls-2" d="M79.79,63.35C94.38,28.65,67.15-.65,42,0,24.65.47,8.55,7.85,1.17,34.79c-3.14,11.45.43,24.53,6,35h0L42,161.45l34.9-91.62h0C78.19,67.15,78.69,66,79.79,63.35Z" transform="translate(0 0.09)"/><path class="cls-3" d="M42.14,0V161.22L76.91,69.83h0c1.3-2.68,1.8-3.88,2.9-6.48C94.35,28.71,67.24-.54,42.14,0Z" transform="translate(0 0.09)"/><path class="cls-4" d="M83.37,41.37a41.36,41.36,0,0,0-82.72,0c0,8.18,2.92,15.27,6.48,22.22h0L42,155.21l34.9-91.62h0C80.77,55.82,83.37,49.55,83.37,41.37Z" transform="translate(0 0.09)"/><circle class="cls-5" cx="42.01" cy="41.46" r="29.12"/><circle class="cls-2" cx="42.01" cy="39.77" r="30.33"/><circle class="cls-5" cx="42.01" cy="41.31" r="29.12"/><circle class="cls-6" cx="42.01" cy="41.31" r="28.01"/><path class="cls-7" d="M26.08,59.11A4.64,4.64,0,0,1,24,58.67a1.59,1.59,0,0,0,1.59,1.48H58.43A1.59,1.59,0,0,0,60,58.56v-.47a3.63,3.63,0,0,1-2.09,1Z" transform="translate(0 0.09)"/><path class="cls-8" d="M45.1,29a1.5,1.5,0,0,1,1.27.7l.35-1.74a3,3,0,0,0-1.62-.47H39.21l0,1.51Z" transform="translate(0 0.09)"/><path class="cls-9" d="M46.72,27.94l-.35,1.74a1.5,1.5,0,0,1,.24.8v2.6a1.52,1.52,0,0,1-1.51,1.51H38.92a1.52,1.52,0,0,1-1.51-1.51v-2.6A1.51,1.51,0,0,1,38.92,29h.31l0-1.51h-.29a3,3,0,0,0-3,3v2.6a3,3,0,0,0,3,3H45.1a3,3,0,0,0,3-3v-2.6A3,3,0,0,0,46.72,27.94Z" transform="translate(0 0.09)"/><path class="cls-7" d="M60,47.24V44a1.59,1.59,0,0,0-1.59-1.59H25.59A1.59,1.59,0,0,0,24,44v3.2l18,1.15Z" transform="translate(0 0.09)"/><path class="cls-10" d="M42,48.39,24,47.24V58.67a4.64,4.64,0,0,0,2.08.44H57.93a3.63,3.63,0,0,0,2.09-1V47.24Z" transform="translate(0 0.09)"/><path class="cls-11" d="M57.68,33H25.84a4.23,4.23,0,0,0-2.74,1.72V45.4a.56.56,0,0,0,0,.16L42,46.77l18.88-1.2c0-.1,0-.17,0-.17V34.79a3,3,0,0,0-.06-.62A4.63,4.63,0,0,0,57.68,33Z" transform="translate(0 0.09)"/><path class="cls-12" d="M57.91,31.78H26.11s-2.93.33-3,2.91A4.23,4.23,0,0,1,25.84,33H57.68a4.63,4.63,0,0,1,3.18,1.2C60.43,32.07,57.91,31.78,57.91,31.78Z" transform="translate(0 0.09)"/><path class="cls-12" d="M42,46.77,23.13,45.56c.08.35.44,1.15,2,1.15,1.93,0,14.61.85,14.61.85s1.33.18,2.16.22h.3c.83,0,2.16-.22,2.16-.22s12.68-.85,14.61-.85c1.5,0,1.87-.79,2-1.14Z" transform="translate(0 0.09)"/><path class="cls-13" d="M43.45,50.47s.42,0,.42-.62V45.8a.93.93,0,0,0-.64-.26H40.79a.91.91,0,0,0-.91.91V50a.86.86,0,0,0,.08.36,3.86,3.86,0,0,0,.8.16Z" transform="translate(0 0.09)"/><path class="cls-14" d="M43.87,45.8v4.05c0,.58-.42.62-.42.62H40.76a3.86,3.86,0,0,1-.8-.16.9.9,0,0,0,.83.54h2.44a.9.9,0,0,0,.91-.9v-3.5A.92.92,0,0,0,43.87,45.8Z" transform="translate(0 0.09)"/><g class="cls-15"><path class="cls-16" d="M46,24.63l-1.11-1.15-3,6.77v0a1,1,0,1,0,2,0V30a1,1,0,0,0,2,0V27.77l1-1.16A2.56,2.56,0,0,0,46,24.63Z" transform="translate(0 0.09)"/><path class="cls-17" d="M44.57,22.87a5,5,0,0,1-.14-1.17l-5.54.2v1C39.57,23.14,42.37,24.21,44.57,22.87Z" transform="translate(0 0.09)"/><path class="cls-18" d="M44.88,23.48l-.17-.17a3.06,3.06,0,0,1-.14-.44c-2.2,1.34-5,.27-5.68,0v.3a2.37,2.37,0,0,0-1,1.72v4.76a1,1,0,1,0,2,0V30a1,1,0,0,0,2,0v.23Z" transform="translate(0 0.09)"/><path class="cls-5" d="M41.18,18.86h-3v3.42a8.47,8.47,0,0,0,4.5.72V18.87Z" transform="translate(0 0.09)"/><path class="cls-19" d="M45.2,18.87H42.64V23a7.45,7.45,0,0,0,2.56-.72Z" transform="translate(0 0.09)"/><path class="cls-20" d="M43.69-.08H39.5A2.51,2.51,0,0,0,37,2.43l0,16.75a2.51,2.51,0,0,0,2.52,2.51h4.38V-.07Z" transform="translate(0 0.09)"/><path class="cls-21" d="M43.87-.07V21.69a2.52,2.52,0,0,0,2.32-2.5V2.43A2.5,2.5,0,0,0,43.87-.07Z" transform="translate(0 0.09)"/></g></g></g></svg>