<svg xmlns="http://www.w3.org/2000/svg" viewBox="0 0 83.88 161.45"><defs><style>.cls-1{fill:#058896;}.cls-2{fill:#32e6f9;}.cls-3{fill:#00b9d6;}.cls-4{fill:#fff;}.cls-5{fill:none;stroke:#058896;stroke-miterlimit:10;stroke-width:0.36px;}</style></defs><g id="Слой_2" data-name="Слой 2"><g id="Layer_1" data-name="Layer 1"><path class="cls-1" d="M79.79,63.35C94.38,28.65,67.15-.65,42,0,24.65.47,8.55,7.85,1.17,34.79c-3.14,11.45.43,24.53,6,35h0L42,161.45l34.9-91.62h0C78.19,67.15,78.69,66,79.79,63.35Z"/><path class="cls-2" d="M42.14,0V161.22L76.91,69.83h0c1.3-2.68,1.8-3.88,2.9-6.48C94.35,28.71,67.24-.54,42.14,0Z"/><path class="cls-3" d="M83.37,41.37a41.36,41.36,0,0,0-82.72,0c0,8.18,2.92,15.27,6.48,22.22h0L42,155.21l34.9-91.62h0C80.77,55.82,83.37,49.55,83.37,41.37Z"/><circle class="cls-4" cx="42.01" cy="41.37" r="29.12"/><circle class="cls-1" cx="42.01" cy="39.69" r="30.33"/><circle class="cls-4" cx="42.01" cy="41.22" r="29.12"/><circle class="cls-5" cx="42.01" cy="41.22" r="28.01"/><polygon class="cls-3" points="22.22 43.59 20.13 43.59 18.44 41.12 18.41 41.12 18.41 43.59 16.71 43.59 16.71 35.78 18.41 35.78 18.41 40.53 18.44 40.53 20.09 38.44 22.14 38.44 20.16 40.77 22.22 43.59"/><path class="cls-3" d="M26.3,40.43a.93.93,0,0,0-1-1,1.12,1.12,0,0,0-1.17,1Zm1.55,1H24.12a1.18,1.18,0,0,0,1.23,1,1.35,1.35,0,0,0,1.14-.54l1.17.75a2.69,2.69,0,0,1-2.33,1.09,2.74,2.74,0,1,1,0-5.47,2.52,2.52,0,0,1,2.58,2.8c0,.13,0,.27,0,.4"/><path class="cls-3" d="M31.89,39.68a1.33,1.33,0,0,0,0,2.65A1.24,1.24,0,0,0,33.1,41a1.22,1.22,0,0,0-1.21-1.31m.4,4A2,2,0,0,1,30.73,43h0v3.19H29V38.44h1.61v.63h0a2,2,0,0,1,1.64-.77,2.73,2.73,0,0,1,0,5.43"/><path class="cls-3" d="M38.94,41.34h-.22c-.74,0-1.58.1-1.58.71,0,.39.4.52.74.52a1,1,0,0,0,1.06-1Zm-3.11-2.19a3.37,3.37,0,0,1,2.29-.87c1.73,0,2.37.84,2.37,2.71v2.6H38.94V43h0a1.72,1.72,0,0,1-1.46.67,1.67,1.67,0,0,1-1.87-1.61c0-1.49,1.81-1.74,3.31-1.74v-.08c0-.5-.4-.74-.93-.74a2,2,0,0,0-1.27.52Z"/><polygon class="cls-3" points="41.85 38.44 44.09 38.44 45.34 41.51 45.36 41.51 46.54 38.44 48.8 38.44 48.8 43.59 47.17 43.59 47.17 40.21 47.14 40.21 45.82 43.59 44.78 43.59 43.47 40.2 43.44 40.2 43.44 43.59 41.85 43.59 41.85 38.44"/><path class="cls-3" d="M50.25,38.44h1.69v5.15H50.25Zm.84-.71a1,1,0,0,1-1-.93,1,1,0,0,1,1-.93,1,1,0,0,1,1,.93.94.94,0,0,1-1,.93"/><polygon class="cls-3" points="58.91 43.59 56.81 43.59 55.13 41.12 55.1 41.12 55.1 43.59 53.4 43.59 53.4 35.78 55.1 35.78 55.1 40.53 55.13 40.53 56.77 38.44 58.83 38.44 56.84 40.77 58.91 43.59"/><path class="cls-3" d="M62.61,41.34h-.22c-.74,0-1.58.1-1.58.71,0,.39.39.52.73.52a1,1,0,0,0,1.07-1ZM59.5,39.15a3.35,3.35,0,0,1,2.29-.87c1.73,0,2.37.84,2.37,2.71v2.6H62.61V43h0a1.72,1.72,0,0,1-1.46.67,1.67,1.67,0,0,1-1.87-1.61c0-1.49,1.81-1.74,3.3-1.74v-.08c0-.5-.4-.74-.92-.74a2,2,0,0,0-1.27.52Z"/><polygon class="cls-3" points="18.36 46.21 16.71 46.21 16.71 44.34 16.93 44.34 16.93 46.02 18.05 46.02 18.05 44.34 18.27 44.34 18.27 46.02 18.57 46.02 18.57 46.83 18.36 46.83 18.36 46.21"/><polygon class="cls-3" points="21.61 44.34 21.84 44.34 21.84 45.15 22.98 45.15 22.98 44.34 23.2 44.34 23.2 46.21 22.98 46.21 22.98 45.34 21.84 45.34 21.84 46.21 21.61 46.21 21.61 44.34"/><polygon class="cls-3" points="24.45 44.53 23.76 44.53 23.76 44.34 25.36 44.34 25.36 44.53 24.67 44.53 24.67 46.21 24.45 46.21 24.45 44.53"/><path class="cls-3" d="M26.88,44.48a.8.8,0,0,0,0,1.6.8.8,0,0,0,0-1.6m-.74,2.7h-.22V44.34h.22v.38h0a.83.83,0,0,1,.75-.42,1,1,0,0,1,0,2,.83.83,0,0,1-.75-.41h0Z"/><path class="cls-3" d="M20.69,45.15a.65.65,0,0,0-.67-.67.7.7,0,0,0-.69.67Zm-1.59.12a.92.92,0,0,1,.92-1,.85.85,0,0,1,.89.91v.11H19.32a.74.74,0,0,0,.73.76.78.78,0,0,0,.64-.32l.15.12a1,1,0,0,1-.8.38.93.93,0,0,1-.94-1"/><path class="cls-3" d="M64.16,34.1v4.18h4.17V34.1Zm3.13,3.13H65.2V35.15h2.09Z"/></g></g></svg>