<svg xmlns="http://www.w3.org/2000/svg" viewBox="0 0 83.88 131.45"><defs><style>.cls-1{fill:#bc4d20;}.cls-2{fill:#f77f4f;}.cls-3{fill:#f26729;}.cls-4{fill:#fff;}.cls-5{fill:none;stroke:#cb243f;stroke-miterlimit:10;stroke-width:0.36px;}</style></defs><g id="Слой_2" data-name="Слой 2"><g id="Layer_1" data-name="Layer 1"><path class="cls-1" d="M79.79,63.35C94.38,28.65,67.15-.65,42,0,24.65.47,8.55,7.85,1.17,34.79c-3.14,11.45.43,24.53,6,35h0L42,131.45l34.9-61.62h0C78.19,67.15,78.69,66,79.79,63.35Z"/><path class="cls-2" d="M42.14,0V131.22L76.91,69.83h0c1.3-2.68,1.8-3.88,2.9-6.48C94.35,28.71,67.24-.54,42.14,0Z"/><path class="cls-3" d="M83.37,41.37a41.36,41.36,0,0,0-82.72,0c0,8.18,2.92,15.27,6.48,22.22h0L42,125.21l34.9-61.62h0C80.77,55.82,83.37,49.55,83.37,41.37Z"/><circle class="cls-4" cx="42.01" cy="41.37" r="29.12"/><circle class="cls-1" cx="42.01" cy="39.69" r="30.33"/><circle class="cls-4" cx="42.01" cy="41.22" r="29.12"/><circle class="cls-5" cx="42.01" cy="41.22" r="28.01"/><polygon class="cls-3" points="32.18 35.07 30.06 35.07 30.06 44.29 26.67 44.29 26.67 35.07 24.56 35.07 24.56 46.41 31.05 46.41 31.05 48.22 33.17 48.22 33.17 44.26 32.18 44.26 32.18 35.07"/><polygon class="cls-3" points="41.55 37.19 41.55 35.07 34.82 35.07 34.82 46.41 41.55 46.41 41.55 44.29 36.93 44.29 36.93 41.58 40.24 41.58 40.24 39.47 36.93 39.47 36.93 37.19 41.55 37.19"/><polygon points="43.24 37.19 46.18 37.19 46.18 46.41 48.3 46.41 48.3 37.19 51.23 37.19 51.23 35.07 43.24 35.07 43.24 37.19"/><polygon points="52.72 46.41 59.45 46.41 59.45 44.29 54.84 44.29 54.84 41.58 58.14 41.58 58.14 39.47 54.84 39.47 54.84 37.19 59.45 37.19 59.45 35.07 52.72 35.07 52.72 46.41"/><path d="M64,29.07H57.81v1.69h5.93v5.93h1.69V30.54A1.47,1.47,0,0,0,64,29.07Z"/><path d="M20.24,50.74V44.81H18.55V51A1.47,1.47,0,0,0,20,52.43h6.15V50.74Z"/></g></g></svg>