<svg xmlns="http://www.w3.org/2000/svg" viewBox="0 0 83.88 161.45"><defs><style>.cls-1{fill:#341d44;}.cls-2{fill:#8034b7;}.cls-3{fill:#542c6d;}.cls-4{fill:#fff;}.cls-5{fill:none;stroke:#542c6d;stroke-miterlimit:10;stroke-width:0.36px;}</style></defs><g id="Слой_2" data-name="Слой 2"><g id="Layer_1" data-name="Layer 1"><path class="cls-1" d="M79.79,63.35C94.38,28.65,67.15-.65,42,0,24.65.47,8.55,7.85,1.17,34.79c-3.14,11.45.43,24.53,6,35h0L42,161.45l34.9-91.62h0C78.19,67.15,78.69,66,79.79,63.35Z"/><path class="cls-2" d="M42.14,0V161.22L76.91,69.83h0c1.3-2.68,1.8-3.88,2.9-6.48C94.35,28.71,67.24-.54,42.14,0Z"/><path class="cls-3" d="M83.37,41.37a41.36,41.36,0,0,0-82.72,0c0,8.18,2.92,15.27,6.48,22.22h0L42,155.21l34.9-91.62h0C80.77,55.82,83.37,49.55,83.37,41.37Z"/><circle class="cls-4" cx="42.01" cy="41.37" r="29.12"/><circle class="cls-3" cx="42.01" cy="39.69" r="30.33"/><circle class="cls-4" cx="42.01" cy="41.22" r="29.12"/><circle class="cls-5" cx="42.01" cy="41.22" r="28.01"/><path class="cls-3" d="M37.64,45c-.06,1-1,1.54-1.55,2.22h-.46c0,.13-1,.78-1.24.57a27.26,27.26,0,0,1-4.49.9.31.31,0,0,0,.13-.23,18.4,18.4,0,0,0,3.82-3.33V45A65.36,65.36,0,0,0,22,46.22c.82,1.33,2.22,2.38,2.24,3.56-2.62,1.41-3.49-4.84-2.84-5.78,1.76-1.54,5.9-.94,8.7-1.44-.38-5.48,4.24-9.22,2.86-15.19-1.78,0-2.43,1.78-2.74,3.07a73.32,73.32,0,0,0-2.6,8.48c-.24,1.24.27,2.93-1.39,3a1.24,1.24,0,0,1-1.45-.67,1.46,1.46,0,0,1-.44-.59c0-4.33,2.87-8,4.13-11.89-.83,0-2,.51-2.94,0-.33.13-1-.9-.67-1.21,2.78.61,4.57-2.44,7.69-1.55,5.92,1.69-.64,13.41.15,16.4,1.3,0,2.22.09,3.53.24,0,.13,0,.13.13.13a2.39,2.39,0,0,1,.72.82c0,.1.13.23.13.36.21.18.21.6.47.83Z"/><path class="cls-3" d="M37.46,39.2c.29-2.41,1.9-8.46,7-4.9.47,2.87-2,5.16-4.46,6a3.37,3.37,0,0,0,.28,2c1.24,2.35,3.52,0,4.15-.6.55-.21,1-2.82,1.86-2.78,0,2.1-2.62,6.19-6,5.65C37.32,44.34,37.13,40,37.46,39.2ZM41,38.41a4.48,4.48,0,0,0,1.78-3.69c-1.83.35-2.48,2.83-2.78,4.36A2.19,2.19,0,0,0,41,38.41Z"/><path class="cls-3" d="M58.17,33.6h.46c0-.16.15-.16.31-.16,2.51,1.24,2.3,3.43,2.11,4.85.44-.08,1.13-1.19,1.14-1.24,1.06.47-.65,1.84-1.27,2-.23.64-.18,1.66-.67,2.06A13,13,0,0,1,59.48,43c-.69,1-1.39,2.17-3.09,2.17a4,4,0,0,1-1.09-.62c-.61-.25-.93-1.13-1.24-1.4-1.3-4.23-.37-8.65,3-10.18.45.13.56.1.52.46a16.68,16.68,0,0,0-1.63,9.88c2.23.31,2.08-2.86,2.63-4.18C56.67,38.81,56.71,34.74,58.17,33.6ZM58.63,35a.38.38,0,0,1-.13-.18c-.82.46-1,3,.1,3.58A9.23,9.23,0,0,0,58.63,35Z"/><path class="cls-3" d="M55.41,47.3Z"/><path class="cls-3" d="M55.41,47.3c-2,2-5.92-6.15-6-6.51.24-.11,6.81-4,2.52-5.33.62,1.86-1.64,3.31-3.53,3.91.15-3,6.8-7.62,1.49-7.76-1.8.38-7.46,13.3-2.07,14.4,0,0,.13-2.13.29-4.08C49.18,46.17,53.73,52.26,55.41,47.3Z"/><path class="cls-3" d="M15.55,54.85c-1,.28,61.8-9.74,49.17-3.52C52.15,52.22,26.11,53.62,15.55,54.85Z"/><path class="cls-3" d="M58.06,25.6a12.12,12.12,0,0,1-.65,1.28c-.35-1,.39-2.2-.21-3.17-1-.22-.42,1.11-.85,1.49s-.63,1.46-1.17,1.54c0,0,0,0-.06,0s0-.2,0-.26h0c-.2-.49-.26-.94.15-1.1s.72-2-.44-1.45c-.92.33-.32,1.95-1.2,2.34a1.53,1.53,0,0,0,0-.46h0c-.1-.79-.66-1.4-1.4-1.05-.46-1.22-1.3.34-1,.8-.42.11-.57.91-.87,1.2s-.22.57-.56.52c0,0,0,0-.05,0s0-.21-.06-.27h0c-.21-.49-.26-.93.15-1.1.83-.57.34-2.33-.76-1.17-.36.63-.53,1.51-.94,2.14-.43.94-.61.64-.48-.38.07-.37,0-.86.09-1.21.37-.71-.22-2-1-1-.44.95-.79,2.33-1.24,3.27h-.12c-.36-1.49-.91.08-1.35.16-.59-.7,1.42-2.81-.21-2.89,0,0-.1,0-.15.07-1.73-.53-2,1.32-2.55,2.14-.22.2-.3.77-.81.6-.15-1,.92-1.31.52-2.35-.42-1.4-2.37.6-1.13.16.11-.08.2-.23.32-.3.12.78-.64,1.54-.35,2.43h0a.86.86,0,0,0,.45.47c.91.25,1.24-.46,1.42-1,.51,1.07,1.51.21,1.66-.19a2.34,2.34,0,0,0,.14.83c.72.93,1.39.16,1.57-.26a.58.58,0,0,0,.33.55c.85.05,1-1.85,1.33-2.32h0a.67.67,0,0,0,.06-.15c.11.7-.32,1.78.71,2.42l0,0a.62.62,0,0,0,.33,0c.73-.17.75-1,1-1.59.56,2.94,2.29.57,2.51-.5.1,1.4-.91,2.31-.63,3.72a.78.78,0,0,0,.5.7h0a.25.25,0,0,0,.24,0c1-.21.76-1.83.91-2.73.87.5,1.21-.37,1.33-.85a1.74,1.74,0,0,0,.7-.49c-.06,1,1.34,1.32,1.65.68a12.76,12.76,0,0,0,.79-1.51c.09.56-.13,1.26.35,1.82,0,0,0,0,.1,0C57.82,27.55,58.45,25.15,58.06,25.6ZM43.52,25v0c-.32.3-.16.94-.45,1.25-.56,1-.78.35-.5-.44.33-.27.2-1,1-.83Zm5.79.62a.77.77,0,0,1,0-.19c.06-.2.1-.29.18-.54v0c0-.06,0-.07.11-.09l0,0,0,0C49.72,25.13,49.57,25.72,49.31,25.58Zm2,2c-.11.61.06,1.47-.35,1.92a4.51,4.51,0,0,1,.26-2l0-.05a.1.1,0,0,1,0,.07h0v.06Zm1.8-.82a1,1,0,0,1-.25.41s-.14.06-.15,0c-.09-.17.2-.6.42-.53Zm.12-.45a1.24,1.24,0,0,0-1,.44h0c0-.42.2-1.53.55-1.65A1.88,1.88,0,0,1,53.19,26.35Zm1.62-1.25a.67.67,0,0,1,0-.18c.06-.2.1-.3.18-.54v0c0-.07,0-.07.11-.1l0,0,0,0C55.22,24.66,55.07,25.24,54.81,25.1Z"/><path class="cls-3" d="M57.57,23.09s.08,0,.11,0a.37.37,0,0,0,.32-.61s0,0-.08-.07a.15.15,0,0,0-.27,0C57.33,22.46,57.33,22.77,57.57,23.09Z"/><path class="cls-3" d="M56.37,23a.36.36,0,0,1,.12.15s0,0,.12,0,0,0,0,0h.08a.62.62,0,0,0,.22-.38s0,0,0,0a1.14,1.14,0,0,1,.15-.23c-.08-.07,0-.17-.15-.15a.39.39,0,0,0-.42,0c-.13.1-.16.22-.26.34S56.27,22.9,56.37,23Z"/></g></g></svg>