<svg xmlns="http://www.w3.org/2000/svg" xmlns:xlink="http://www.w3.org/1999/xlink" viewBox="0 0 83.88 161.45"><defs><style>.cls-1{fill:#999;}.cls-2{fill:none;}.cls-3{fill:#ebebec;}.cls-4{fill:#b2b2b2;}.cls-5{fill:#f4a1a9;}.cls-6{fill:#f9f958;}.cls-7{fill:#dae034;}.cls-8{fill:#fff;}.cls-9{fill:#2a4595;}.cls-10{fill:#49c6e7;stroke:#49c6e7;stroke-miterlimit:10;stroke-width:0.14px;}.cls-11{isolation:isolate;}.cls-12{clip-path:url(#clip-path);}.cls-13{clip-path:url(#clip-path-2);}.cls-14{fill:#dedede;}.cls-15{fill:#e3e3e3;}.cls-16{clip-path:url(#clip-path-3);}.cls-17{fill:#bfbfbf;}.cls-18{fill:#c4c4c4;}.cls-19{fill:#c9c9c9;}.cls-20{fill:#cfcfcf;}.cls-21{fill:#d4d4d4;}.cls-22{fill:#d9d9d9;}.cls-23{clip-path:url(#clip-path-4);}.cls-24{fill:#a3a3a3;}.cls-25{fill:#9e9e9e;}.cls-26{fill:#949494;}.cls-27{fill:#8f8f8f;}.cls-28{fill:#8a8a8a;}.cls-29{fill:#858585;}.cls-30{clip-path:url(#clip-path-5);}.cls-31{fill:#adadad;}.cls-32{clip-path:url(#clip-path-6);}.cls-33{clip-path:url(#clip-path-7);}.cls-34{clip-path:url(#clip-path-8);}.cls-35{fill:#adafb0;}</style><clipPath id="clip-path"><path class="cls-1" d="M51.47,53.27l-2.55-1.78a2,2,0,0,0,.19.12,3.81,3.81,0,0,0,1.28.4,7.19,7.19,0,0,0,1.31,0,11.31,11.31,0,0,0,1.24-.16l1.29-.3,2.55,1.77c-.48.13-.91.23-1.3.3a8.9,8.9,0,0,1-1.23.17,6.38,6.38,0,0,1-1.31,0,3.72,3.72,0,0,1-1.28-.39Z"/></clipPath><clipPath id="clip-path-2"><path class="cls-2" d="M53,42.81l-2.68-1.87a19.79,19.79,0,0,1,2.32,0,18.13,18.13,0,0,1,2.16.2L57.45,43a18.31,18.31,0,0,0-2.17-.2A19.62,19.62,0,0,0,53,42.81Z"/></clipPath><clipPath id="clip-path-3"><path class="cls-2" d="M48.21,56.24l-2.54-1.77a4.54,4.54,0,0,1-.74-.64,5.86,5.86,0,0,1-1.36-2.4,10.23,10.23,0,0,1-.38-2.83,11.26,11.26,0,0,1,.12-1.5,12.28,12.28,0,0,1,.54-1.94,5.82,5.82,0,0,1,1.66-2.35,6,6,0,0,1,2.62-1.41,15.58,15.58,0,0,1,2.5-.41l2.55,1.78a14.79,14.79,0,0,0-2.51.41,6,6,0,0,0-2.61,1.41,5.66,5.66,0,0,0-1.66,2.35,13.82,13.82,0,0,0-.55,1.94,9.73,9.73,0,0,0-.11,1.49,9.93,9.93,0,0,0,.38,2.84,5.75,5.75,0,0,0,1.36,2.4A4.34,4.34,0,0,0,48.21,56.24Z"/></clipPath><clipPath id="clip-path-4"><path class="cls-2" d="M51,31.87l-2.55-1.78A5.33,5.33,0,0,0,50,29.82a1.43,1.43,0,0,0,.71-.66l2.55,1.77a1.38,1.38,0,0,1-.71.66A4.94,4.94,0,0,1,51,31.87Z"/></clipPath><clipPath id="clip-path-5"><path class="cls-2" d="M50.24,26.79l2.54,1.78a1.46,1.46,0,0,1,.38.4,1.74,1.74,0,0,1,.3,1.06,1.9,1.9,0,0,1-.24.9l-2.55-1.77a2.11,2.11,0,0,0,.25-.9,1.82,1.82,0,0,0-.31-1.07A1.6,1.6,0,0,0,50.24,26.79Z"/></clipPath><clipPath id="clip-path-6"><path class="cls-3" d="M53.77,24.24,56.32,26a4,4,0,0,0-1.16-.54,9.16,9.16,0,0,0-3.2-.32l-2.55-1.78a8.93,8.93,0,0,1,3.2.33A4,4,0,0,1,53.77,24.24Z"/></clipPath><clipPath id="clip-path-7"><path class="cls-4" d="M40.75,34.86l2.55,1.78a1.56,1.56,0,0,0-1-.27l-2.55-1.78A1.6,1.6,0,0,1,40.75,34.86Z"/></clipPath><clipPath id="clip-path-8"><path class="cls-4" d="M41.27,39.56l-2.55-1.78a1.57,1.57,0,0,1-.67-1.34,1.88,1.88,0,0,1,1.7-1.85l2.55,1.78a1.86,1.86,0,0,0-1.7,1.85A1.59,1.59,0,0,0,41.27,39.56Z"/></clipPath></defs><g id="Слой_2" data-name="Слой 2"><g id="Layer_1" data-name="Layer 1"><path class="cls-5" d="M79.79,63.35C94.38,28.65,67.15-.65,42,0,24.65.47,8.55,7.85,1.17,34.79c-3.14,11.45.43,24.53,6,35h0L42,161.45l34.9-91.62h0C78.19,67.15,78.69,66,79.79,63.35Z"/><path class="cls-6" d="M42.14,0V161.22L76.91,69.83h0c1.3-2.68,1.8-3.88,2.9-6.48C94.35,28.71,67.24-.54,42.14,0Z"/><path class="cls-7" d="M83.37,41.37a41.36,41.36,0,0,0-82.72,0c0,8.18,2.92,15.27,6.48,22.22h0L42,155.21l34.9-91.62h0C80.77,55.82,83.37,49.55,83.37,41.37Z"/><circle class="cls-8" cx="42.01" cy="41.37" r="29.12"/><circle class="cls-5" cx="42.01" cy="39.69" r="30.33"/><circle class="cls-8" cx="42.01" cy="41.22" r="29.12"/><circle class="cls-9" cx="42.01" cy="41.22" r="28.01"/><path class="cls-10" d="M15.07,41.22A26.94,26.94,0,1,0,42,14.29,26.94,26.94,0,0,0,15.07,41.22Z"/><path class="cls-9" d="M35.62,43V55.69h-12V43h12m1-1h-14v14.8h14V41.93Z"/><path class="cls-7" d="M24.22,43.25V55H36V43.25ZM25,54.19V44.05H35.15V54.19Z"/><path class="cls-9" d="M58.46,25.18V37.91H45.74V25.18H58.46m1-1H44.7V39H59.5V24.14Z"/><path class="cls-7" d="M46.32,25.47V37.2H58.05V25.47Zm.79,10.93V26.26H57.26V36.4Z"/><rect class="cls-5" x="41.36" y="48.16" width="17.42" height="4.62"/><g class="cls-11"><path class="cls-1" d="M51.47,53.27l-2.55-1.78a2,2,0,0,0,.19.12,3.81,3.81,0,0,0,1.28.4,7.19,7.19,0,0,0,1.31,0,11.31,11.31,0,0,0,1.24-.16l1.29-.3,2.55,1.77c-.48.13-.91.23-1.3.3a8.9,8.9,0,0,1-1.23.17,6.38,6.38,0,0,1-1.31,0,3.72,3.72,0,0,1-1.28-.39Z"/><g class="cls-12"><g class="cls-11"><path class="cls-1" d="M51.47,53.27l-2.55-1.78a2,2,0,0,0,.19.12l.31.14L52,53.53l-.3-.14-.19-.12"/><path class="cls-1" d="M52,53.53l-2.54-1.78a3.77,3.77,0,0,0,1,.26,6.48,6.48,0,0,0,1,0l2.55,1.78a6.44,6.44,0,0,1-1,0,3.45,3.45,0,0,1-1-.25"/><path class="cls-1" d="M53.92,53.83l-2.55-1.78h.33a11.31,11.31,0,0,0,1.24-.16l1.29-.3,2.55,1.77c-.48.13-.91.23-1.3.3a8.9,8.9,0,0,1-1.23.17h-.33"/></g></g><g class="cls-11"><g class="cls-13"><g class="cls-11"><path class="cls-14" d="M53,42.81l-2.68-1.87.87,0,2.68,1.87c-.3,0-.59,0-.87,0"/><path class="cls-15" d="M53.84,42.77,51.16,40.9c.47,0,1,0,1.45,0a18.13,18.13,0,0,1,2.16.2L57.45,43a18.31,18.31,0,0,0-2.17-.2c-.49,0-1,0-1.44,0"/></g></g></g><g class="cls-11"><g class="cls-16"><g class="cls-11"><path class="cls-17" d="M48.21,56.24l-2.54-1.77a4.54,4.54,0,0,1-.74-.64,5.86,5.86,0,0,1-1.36-2.4,10.23,10.23,0,0,1-.38-2.83,11.26,11.26,0,0,1,.12-1.5,12.28,12.28,0,0,1,.54-1.94A5.14,5.14,0,0,1,44.42,44L47,45.82a5.14,5.14,0,0,0-.57,1.12,13.82,13.82,0,0,0-.55,1.94,9.73,9.73,0,0,0-.11,1.49,9.93,9.93,0,0,0,.38,2.84,5.75,5.75,0,0,0,1.36,2.4,4.34,4.34,0,0,0,.73.63"/><path class="cls-18" d="M47,45.82,44.42,44a5.19,5.19,0,0,1,.6-.75l2.55,1.78a5.19,5.19,0,0,0-.6.75"/><path class="cls-19" d="M47.57,45.07,45,43.29c.15-.16.32-.32.49-.48l.26-.21,2.54,1.77-.25.22c-.18.16-.34.32-.49.48"/><path class="cls-20" d="M48.31,44.37,45.77,42.6a6.55,6.55,0,0,1,.7-.51L49,43.87c-.24.15-.47.32-.71.5"/><path class="cls-21" d="M49,43.87l-2.55-1.78a6.85,6.85,0,0,1,.71-.37l2.55,1.78a5.34,5.34,0,0,0-.71.37"/><path class="cls-22" d="M49.73,43.5l-2.55-1.78a5.57,5.57,0,0,1,.81-.29l2.55,1.78a4.59,4.59,0,0,0-.81.29"/><path class="cls-14" d="M50.54,43.21,48,41.43l.14,0a15.58,15.58,0,0,1,2.5-.41l2.55,1.78a14.79,14.79,0,0,0-2.51.41l-.13,0"/></g></g></g><path class="cls-8" d="M53.18,42.77a18,18,0,0,1,2.21,0,16.68,16.68,0,0,1,2.06.19l-.64,3.52a6.1,6.1,0,0,0-1.35-.32,7.37,7.37,0,0,0-1.69-.08,5.86,5.86,0,0,0-1.39.25,3.11,3.11,0,0,0-1.13.68,2.8,2.8,0,0,0-.76,1.37,7.05,7.05,0,0,0-.23,1.74c0,.2,0,.47,0,.81a4.75,4.75,0,0,0,.39,1.33,2.17,2.17,0,0,0,1,1.15,3.72,3.72,0,0,0,1.28.39,6.38,6.38,0,0,0,1.31,0,8.9,8.9,0,0,0,1.23-.17c.39-.07.82-.17,1.3-.3l.53,3.2c-.59.18-1.22.33-1.9.47a15.84,15.84,0,0,1-2,.27A10.61,10.61,0,0,1,50,57a5,5,0,0,1-2.5-1.42,5.75,5.75,0,0,1-1.36-2.4,9.93,9.93,0,0,1-.38-2.84,9.73,9.73,0,0,1,.11-1.49,13.82,13.82,0,0,1,.55-1.94,5.66,5.66,0,0,1,1.66-2.35,6,6,0,0,1,2.61-1.41A14.79,14.79,0,0,1,53.18,42.77Z"/></g><rect class="cls-5" x="22.53" y="25.72" width="17.72" height="5.27"/><g class="cls-11"><g class="cls-11"><g class="cls-23"><g class="cls-11"><path class="cls-24" d="M51,31.87l-2.55-1.78a6.48,6.48,0,0,0,1.22-.17l2.55,1.77a7.28,7.28,0,0,1-1.22.18"/><path class="cls-25" d="M52.21,31.69l-2.55-1.77.3-.1h0l2.55,1.77h0l-.3.1"/><path class="cls-1" d="M52.53,31.58,50,29.81a.77.77,0,0,0,.18-.1l2.55,1.78-.18.09"/><path class="cls-26" d="M52.71,31.49l-2.55-1.78.15-.1,2.55,1.77-.15.11"/><path class="cls-27" d="M52.86,31.38l-2.55-1.77a.8.8,0,0,0,.13-.13L53,31.26l-.13.12"/><path class="cls-28" d="M53,31.26l-2.55-1.78a1.15,1.15,0,0,0,.14-.17l2.55,1.77a.86.86,0,0,1-.14.18"/><path class="cls-29" d="M53.13,31.08l-2.55-1.77.09-.15,2.55,1.77-.09.15"/></g></g></g><g class="cls-11"><g class="cls-30"><g class="cls-11"><path class="cls-29" d="M53.22,30.93l-2.55-1.77a2.11,2.11,0,0,0,.25-.9,1.82,1.82,0,0,0-.31-1.07,1.6,1.6,0,0,0-.37-.4l2.54,1.78a1.46,1.46,0,0,1,.38.4,1.74,1.74,0,0,1,.3,1.06,1.9,1.9,0,0,1-.24.9"/></g></g></g><polygon class="cls-31" points="50.29 31.92 47.74 30.14 48.44 30.09 50.99 31.87 50.29 31.92"/><g class="cls-11"><path class="cls-3" d="M53.77,24.24,56.32,26a4,4,0,0,0-1.16-.54,9.16,9.16,0,0,0-3.2-.32l-2.55-1.78a8.93,8.93,0,0,1,3.2.33A4,4,0,0,1,53.77,24.24Z"/><g class="cls-32"><g class="cls-11"><path class="cls-3" d="M52,25.15l-2.55-1.78.48,0,2.54,1.78-.47,0"/><path class="cls-3" d="M52.43,25.13l-2.54-1.78a8.8,8.8,0,0,1,2.72.35l.47.16,2.55,1.78-.47-.17a9.13,9.13,0,0,0-2.73-.34"/><path class="cls-3" d="M55.63,25.64l-2.55-1.78a3.82,3.82,0,0,1,.69.38L56.32,26a3.78,3.78,0,0,0-.69-.37"/></g></g></g><polygon class="cls-3" points="45.9 25.57 43.36 23.8 49.41 23.37 51.96 25.15 45.9 25.57"/><polygon class="cls-4" points="45.8 40.1 43.25 38.32 43.36 23.8 45.9 25.57 45.8 40.1"/><path class="cls-8" d="M57.31,27.14a5.42,5.42,0,0,1-.17,5.37,4.27,4.27,0,0,1-2.32,1.83,12.94,12.94,0,0,1-3.34.65l-.74,0-.47,0,0,4.72-4.43.31.1-14.53L52,25.15a9.16,9.16,0,0,1,3.2.32A3.36,3.36,0,0,1,57.31,27.14Zm-4.09,3.79a1.9,1.9,0,0,0,.24-.9,1.74,1.74,0,0,0-.3-1.06,1.24,1.24,0,0,0-.72-.56,3.77,3.77,0,0,0-1.12-.06l-.31,0-.7.05,0,3.5.7-.05a4.94,4.94,0,0,0,1.52-.28,1.38,1.38,0,0,0,.71-.66"/></g><g class="cls-11"><polygon class="cls-3" points="37.8 55.3 35.25 53.52 38.38 53.3 40.93 55.08 37.8 55.3"/><polygon class="cls-4" points="30.75 57.84 28.21 56.06 28.22 54.01 30.77 55.79 30.75 57.84"/><polygon class="cls-3" points="30.77 55.79 28.22 54.01 30.82 53.83 33.37 55.61 30.77 55.79"/><polygon class="cls-3" points="37.89 42.74 35.34 40.96 38.47 40.74 41.02 42.52 37.89 42.74"/><polygon class="cls-4" points="33.37 55.61 30.82 53.83 30.89 43.32 33.44 45.1 33.37 55.61"/><polygon class="cls-3" points="33.45 43.05 30.91 41.27 35.34 40.96 37.89 42.74 33.45 43.05"/><polygon class="cls-3" points="30.86 43.23 28.31 41.45 30.91 41.27 33.45 43.05 30.86 43.23"/><polygon class="cls-4" points="30.84 45.28 28.3 43.5 28.31 41.45 30.86 43.23 30.84 45.28"/><polygon class="cls-8" points="41.02 42.52 41 44.57 37.87 44.79 37.8 55.3 40.93 55.08 40.91 57.13 30.75 57.84 30.77 55.79 33.37 55.61 33.44 45.1 30.84 45.28 30.86 43.23 33.45 43.05 37.89 42.74 41.02 42.52"/></g><g class="cls-11"><path class="cls-4" d="M40.75,34.86l2.55,1.78a1.56,1.56,0,0,0-1-.27l-2.55-1.78A1.6,1.6,0,0,1,40.75,34.86Z"/><g class="cls-33"><g class="cls-11"><path class="cls-4" d="M42.3,36.37l-2.55-1.78h.08l2.55,1.78H42.3"/><path class="cls-4" d="M42.38,36.37l-2.55-1.78a1.45,1.45,0,0,1,.63.12L43,36.48a1.47,1.47,0,0,0-.63-.11"/><path class="cls-4" d="M43,36.48l-2.55-1.77a1.32,1.32,0,0,1,.29.15l2.55,1.78a1.64,1.64,0,0,0-.29-.16"/></g></g><path class="cls-4" d="M41.27,39.56l-2.55-1.78a1.57,1.57,0,0,1-.67-1.34,1.88,1.88,0,0,1,1.7-1.85l2.55,1.78a1.86,1.86,0,0,0-1.7,1.85A1.59,1.59,0,0,0,41.27,39.56Z"/><g class="cls-34"><g class="cls-11"><path class="cls-4" d="M41.27,39.56l-2.55-1.78a1.57,1.57,0,0,1-.67-1.34,1.87,1.87,0,0,1,.32-1l2.55,1.78a1.85,1.85,0,0,0-.32,1,1.59,1.59,0,0,0,.67,1.34"/><path class="cls-4" d="M40.92,37.19l-2.55-1.78.19-.24L41.11,37a1.55,1.55,0,0,0-.19.24"/><path class="cls-4" d="M41.11,37l-2.55-1.78.19-.18,2.55,1.78a1.62,1.62,0,0,0-.19.18"/><path class="cls-4" d="M41.3,36.77,38.75,35l.2-.14,2.55,1.78-.2.14"/><path class="cls-4" d="M41.5,36.63,39,34.85l.22-.11,2.55,1.77-.22.12"/><path class="cls-4" d="M41.72,36.51l-2.55-1.77a1.14,1.14,0,0,1,.26-.09L42,36.42l-.26.09"/><path class="cls-4" d="M42,36.42l-2.55-1.77a1.65,1.65,0,0,1,.32-.06l2.55,1.78-.32.05"/></g></g><ellipse class="cls-8" cx="42.28" cy="38.1" rx="1.78" ry="1.64" transform="translate(-13.16 50.98) rotate(-55.1)"/></g><g class="cls-11"><polygon class="cls-4" points="32.95 36.38 30.4 34.6 36.13 34.2 38.68 35.98 32.95 36.38"/><polygon class="cls-4" points="32.99 30.73 30.44 28.96 35.59 28.6 38.14 30.37 32.99 30.73"/><polygon class="cls-4" points="28.49 40.03 25.95 38.26 26.05 23.73 28.59 25.51 28.49 40.03"/><polygon class="cls-35" points="28.59 25.51 26.05 23.73 36.06 23.03 38.61 24.81 28.59 25.51"/><polygon class="cls-8" points="38.61 24.81 38.59 28.3 33 28.69 32.99 30.73 38.14 30.37 38.12 33.72 32.97 34.08 32.95 36.38 38.68 35.98 38.65 39.32 28.49 40.03 28.59 25.51 38.61 24.81"/></g></g></g></svg>