<svg xmlns="http://www.w3.org/2000/svg" viewBox="0 0 83.88 131.45"><defs><style>.cls-1{fill:#4d4d4f;}.cls-2{fill:#a4a4a5;}.cls-3{fill:#77787b;}.cls-4{fill:#fff;}.cls-5{fill:none;stroke:#77787b;stroke-miterlimit:10;stroke-width:0.36px;}.cls-6{fill:#231f20;}</style></defs><g id="Слой_2" data-name="Слой 2"><g id="Layer_1" data-name="Layer 1"><path class="cls-1" d="M79.79,63.35C94.38,28.65,67.15-.65,42,0,24.65.47,8.55,7.85,1.17,34.79c-3.14,11.45.43,24.53,6,35h0L42,131.45l34.9-61.62h0C78.19,67.15,78.69,66,79.79,63.35Z"/><path class="cls-2" d="M42.14,0V131.22L76.91,69.83h0c1.3-2.68,1.8-3.88,2.9-6.48C94.35,28.71,67.24-.54,42.14,0Z"/><path class="cls-3" d="M83.37,41.37a41.36,41.36,0,0,0-82.72,0c0,8.18,2.92,15.27,6.48,22.22h0L42,125.21l34.9-61.62h0C80.77,55.82,83.37,49.55,83.37,41.37Z"/><circle class="cls-4" cx="42.01" cy="41.37" r="29.12"/><circle class="cls-1" cx="42.01" cy="39.69" r="30.33"/><circle class="cls-4" cx="42.01" cy="41.22" r="29.12"/><circle class="cls-5" cx="42.01" cy="41.22" r="28.01"/><path class="cls-6" d="M18.53,33.78H24.6v2.14H20.74v2.77h3.68v2.14H20.74v4.9H18.53Z"/><path class="cls-6" d="M38.67,39.82a6.3,6.3,0,1,1-6.3-6.25A6.19,6.19,0,0,1,38.67,39.82Zm-2.22,0a4.09,4.09,0,1,0-4.1,4.1A4,4,0,0,0,36.45,39.77Z"/><path class="cls-6" d="M52.64,39.82a6.3,6.3,0,1,1-6.3-6.25A6.19,6.19,0,0,1,52.64,39.82Zm-2.22,0a4.09,4.09,0,1,0-4.1,4.1A4,4,0,0,0,50.42,39.77Z"/><path class="cls-6" d="M54.62,33.78h3.31c5.5,0,6.42,3.71,6.42,6,0,1.27-.33,5.91-6.37,5.91H54.62Zm3.3,9.8c1.21,0,4.21-.14,4.21-3.76,0-3.78-3.11-3.9-4.32-3.9h-1v7.66Z"/><rect class="cls-6" x="18.53" y="31.83" width="47.14" height="0.8"/><rect class="cls-6" x="18.53" y="46.96" width="47.14" height="0.8"/></g></g></svg>