<svg xmlns="http://www.w3.org/2000/svg" viewBox="0 0 83.88 161.45"><defs><style>.cls-1{fill:#7c1854;}.cls-2{fill:#ef0690;}.cls-3{fill:#b32271;}.cls-4{fill:#fff;}.cls-5{fill:none;stroke:#b32271;stroke-miterlimit:10;stroke-width:0.36px;}</style></defs><g id="Слой_2" data-name="Слой 2"><g id="Layer_1" data-name="Layer 1"><path class="cls-1" d="M79.79,63.35C94.38,28.65,67.15-.65,42,0,24.65.47,8.55,7.85,1.17,34.79c-3.14,11.45.43,24.53,6,35h0L42,161.45l34.9-91.62h0C78.19,67.15,78.69,66,79.79,63.35Z"/><path class="cls-2" d="M42.14,0V161.22L76.91,69.83h0c1.3-2.68,1.8-3.88,2.9-6.48C94.35,28.71,67.24-.54,42.14,0Z"/><path class="cls-3" d="M83.37,41.37a41.36,41.36,0,0,0-82.72,0c0,8.18,2.92,15.27,6.48,22.22h0L42,155.21l34.9-91.62h0C80.77,55.82,83.37,49.55,83.37,41.37Z"/><circle class="cls-4" cx="42.01" cy="41.37" r="29.12"/><circle class="cls-1" cx="42.01" cy="39.69" r="30.33"/><circle class="cls-4" cx="42.01" cy="41.22" r="29.12"/><circle class="cls-5" cx="42.01" cy="41.22" r="28.01"/><path class="cls-3" d="M65.94,40.85a.84.84,0,1,1,.84.84.85.85,0,0,1-.84-.84m1.49,0a.65.65,0,1,0-.65.66.67.67,0,0,0,.65-.66m-.84.08v.33c0,.05,0,.07-.08.07s-.08,0-.08-.07v-.83s0,0,.06,0h.3c.24,0,.35.06.35.27a.24.24,0,0,1-.23.27l.2.32,0,0s0,0-.09,0-.07,0-.09,0l-.22-.35Zm.17-.14c.12,0,.23,0,.23-.15s-.11-.12-.21-.12h-.19v.27Zm-6.09,6.32V40.59a.58.58,0,0,0-.58-.58.59.59,0,0,0-.59.58v6.52a.59.59,0,0,0,.59.58.58.58,0,0,0,.58-.58m-11.62-.58h-1a.59.59,0,0,1-.59-.59V44a.43.43,0,0,1,.4-.42h1.06a.58.58,0,0,0,0-1.16h-1a.42.42,0,0,1-.41-.41v-.29a.58.58,0,0,1,.59-.58h1a.59.59,0,0,0,0-1.17h-1a1.75,1.75,0,0,0-1.75,1.75v4.19a1.75,1.75,0,0,0,1.75,1.75h1a.58.58,0,0,0,0-1.16M33.57,40h-3.3a.58.58,0,0,0,0,1.16h.66a.43.43,0,0,1,.41.42v5.55a.58.58,0,1,0,1.16,0V41.58a.41.41,0,0,1,.4-.41h.67a.58.58,0,1,0,0-1.16M20.49,46.53V40.59a.58.58,0,0,0-1.16,0v5.56a.43.43,0,0,1-.38.38h-.21a.59.59,0,0,1-.58-.59V40.59a.58.58,0,0,0-1.16,0v5.35a1.75,1.75,0,0,0,1.74,1.75h1.11V48A.58.58,0,1,0,21,48v-.92a.59.59,0,0,0-.52-.58m8-6.52a.58.58,0,0,0-.58.58v1.46a.42.42,0,0,1-.41.4H27a.43.43,0,0,1-.41-.4V40.59a.58.58,0,0,0-1.16,0v6.55a.58.58,0,1,0,1.16,0V44a.43.43,0,0,1,.4-.41h.45a.43.43,0,0,1,.39.4v3.13a.58.58,0,1,0,1.16,0V40.59a.58.58,0,0,0-.58-.58m-4.33,6.52h-1a.59.59,0,0,1-.58-.59V44a.42.42,0,0,1,.41-.39h1a.58.58,0,1,0,0-1.16H23a.42.42,0,0,1-.4-.38v-.32a.58.58,0,0,1,.58-.58h1a.59.59,0,0,0,0-1.17h-1a1.76,1.76,0,0,0-1.75,1.75v4.19a1.76,1.76,0,0,0,1.75,1.75h1a.58.58,0,1,0,0-1.16M36.28,40a1.76,1.76,0,0,0-1.75,1.75v5.36a.58.58,0,0,0,1.16,0V45.83a.66.66,0,0,1,.38-.46c1-.21,2-.77,2-2V41.75A1.75,1.75,0,0,0,36.28,40m.59,3.39c0,.39-.34.61-.72.75a.36.36,0,0,1-.46-.33V41.75a.59.59,0,0,1,.59-.58.58.58,0,0,1,.59.58Zm8.47-2.79h0a.31.31,0,0,0,0-.1v0l0-.09v0l0-.05v0l0,0,0-.07h0l-.07-.06h0l-.07,0,0,0-.07,0h-.33l-.07,0s0,0,0,0l0,0h0L43,41,43,41l-.11,0-1.42-.85,0,0-.06,0-.06,0H41l-.06,0,0,0-.06,0,0,0,0,0,0,0,0,0,0,.05h0v0l0,.06s0,0,0,0,0,0,0,.06a.13.13,0,0,1,0,.06v6.56a.58.58,0,0,0,1.16,0V42a.26.26,0,0,1,.1-.2.21.21,0,0,1,.23,0l.61.36a.58.58,0,0,0,.3.09.53.53,0,0,0,.3-.09l.6-.35c.11-.06.2-.06.25,0a.2.2,0,0,1,.09.15v5.15a.58.58,0,1,0,1.16,0V40.6M57.82,40H56.25a.59.59,0,0,0-.57.47L54.4,47a.59.59,0,0,0,.46.68H55a.57.57,0,0,0,.57-.47l1.15-5.82h0a.28.28,0,0,1,.27-.24h0a.29.29,0,0,1,.28.24h0v5.7a.58.58,0,0,0,1.16,0V40.59a.58.58,0,0,0-.58-.58m7.44,1.84v-.1A1.76,1.76,0,0,0,63.51,40a1.83,1.83,0,0,0-1.75,2.06v3.88a1.75,1.75,0,0,0,3.5,0V44.83a1.73,1.73,0,0,0-.8-1.49,1.73,1.73,0,0,0,.8-1.49M64.1,45.94a.6.6,0,0,1-.59.59.59.59,0,0,1-.59-.59V44.25h0a.22.22,0,0,1,.22-.22h.06c.45.12.9.35.9.8Zm0-4.09c0,.45-.46.68-.91.8h0a.22.22,0,0,1-.22-.22h0v-.37c0-.43.15-.89.59-.89a.59.59,0,0,1,.59.58Zm-12.27.45h0a.3.3,0,0,1-.26-.31h0v-.41a.41.41,0,0,1,.38-.41H53.4a.59.59,0,0,0,0-1.17H51a.58.58,0,0,0-.58.59v5.35a1.75,1.75,0,0,0,3.5,0V44.3c0-1.25-1.09-1.8-2.08-2m.91,3.64a.59.59,0,1,1-1.17,0V43.66h0a.18.18,0,0,1,.18-.17h.07c.45.11.92.35.92.8Zm-.15-15.45-2.77-1.24a1.48,1.48,0,0,0-1.22.06l-7,3.65-6.55-3.37-.49-.24a1.31,1.31,0,0,0-1.16-.1c-.45.19-1.83.81-2.72,1.21a.72.72,0,0,1,.29.1c.4.27,9.5,5.1,9.5,5.1a2.4,2.4,0,0,0,1.13.29,2.44,2.44,0,0,0,1.14-.29s9.31-5,9.41-5.06a.61.61,0,0,1,.43-.11m-22,1.09a.51.51,0,0,0-.19.37v5.26h3.11V33l-2.39-1.31a.6.6,0,0,0-.53-.09m22.05,0a.6.6,0,0,0-.53.09c-.5.29-1.26.68-2.39,1.31v4.23h3.11V32a.51.51,0,0,0-.19-.37"/></g></g></svg>