<svg xmlns="http://www.w3.org/2000/svg" xmlns:xlink="http://www.w3.org/1999/xlink" viewBox="0 0 83.88 161.45"><defs><style>.cls-1{mask:url(#mask);filter:url(#luminosity-noclip-6);}.cls-10,.cls-2,.cls-4,.cls-6,.cls-8{mix-blend-mode:multiply;}.cls-2{fill:url(#radial-gradient);}.cls-3{mask:url(#mask-2);filter:url(#luminosity-noclip-7);}.cls-4{fill:url(#radial-gradient-2);}.cls-5{mask:url(#mask-3);filter:url(#luminosity-noclip-8);}.cls-6{fill:url(#radial-gradient-3);}.cls-7{mask:url(#mask-4);filter:url(#luminosity-noclip-9);}.cls-8{fill:url(#radial-gradient-4);}.cls-9{mask:url(#mask-5);filter:url(#luminosity-noclip-10);}.cls-10{fill:url(#radial-gradient-5);}.cls-11{isolation:isolate;}.cls-12{fill:#db8c19;}.cls-13{fill:url(#Безымянный_градиент_160);}.cls-14{fill:url(#Безымянный_градиент_169);}.cls-15{fill:#fff;}.cls-16{fill:none;stroke-width:0.36px;stroke:url(#Безымянный_градиент_160-2);}.cls-16,.cls-17{stroke-miterlimit:10;}.cls-17{fill:#ee2e24;stroke:#ee3126;stroke-width:0.9px;}.cls-18{fill:url(#radial-gradient-6);}.cls-19{mask:url(#mask-6);}.cls-20,.cls-22,.cls-24,.cls-26{mix-blend-mode:screen;}.cls-20{fill:url(#radial-gradient-7);}.cls-21{mask:url(#mask-7);}.cls-22{fill:url(#radial-gradient-8);}.cls-23{mask:url(#mask-8);}.cls-24{fill:url(#radial-gradient-9);}.cls-25{mask:url(#mask-9);}.cls-26{fill:url(#radial-gradient-10);}.cls-27{mask:url(#mask-10);}.cls-28{fill:url(#radial-gradient-11);}.cls-29{filter:url(#luminosity-noclip-5);}.cls-30{filter:url(#luminosity-noclip-4);}.cls-31{filter:url(#luminosity-noclip-3);}.cls-32{filter:url(#luminosity-noclip-2);}.cls-33{filter:url(#luminosity-noclip);}</style><filter id="luminosity-noclip" x="927.74" y="-9074.85" width="4.75" height="32766" filterUnits="userSpaceOnUse" color-interpolation-filters="sRGB"><feFlood flood-color="#fff" result="bg"/><feBlend in="SourceGraphic" in2="bg"/></filter><mask id="mask" x="927.74" y="-9074.85" width="4.75" height="32766" maskUnits="userSpaceOnUse"><g class="cls-33"/></mask><radialGradient id="radial-gradient" cx="933.48" cy="1856.82" r="3.47" gradientTransform="translate(10.51 4.5) rotate(0.48)" gradientUnits="userSpaceOnUse"><stop offset="0.43" stop-color="#fff"/><stop offset="0.99"/></radialGradient><filter id="luminosity-noclip-2" x="932.55" y="-9074.85" width="7.51" height="32766" filterUnits="userSpaceOnUse" color-interpolation-filters="sRGB"><feFlood flood-color="#fff" result="bg"/><feBlend in="SourceGraphic" in2="bg"/></filter><mask id="mask-2" x="932.55" y="-9074.85" width="7.51" height="32766" maskUnits="userSpaceOnUse"><g class="cls-32"/></mask><radialGradient id="radial-gradient-2" cx="938.74" cy="1853.73" r="4.76" gradientTransform="translate(10.51 4.5) rotate(0.48)" gradientUnits="userSpaceOnUse"><stop offset="0.15" stop-color="#fff"/><stop offset="0.99"/></radialGradient><filter id="luminosity-noclip-3" x="932.32" y="-9074.85" width="10.23" height="32766" filterUnits="userSpaceOnUse" color-interpolation-filters="sRGB"><feFlood flood-color="#fff" result="bg"/><feBlend in="SourceGraphic" in2="bg"/></filter><mask id="mask-3" x="932.32" y="-9074.85" width="10.23" height="32766" maskUnits="userSpaceOnUse"><g class="cls-31"/></mask><radialGradient id="radial-gradient-3" cx="940.92" cy="1864.71" r="6.74" gradientTransform="translate(10.51 4.5) rotate(0.48)" gradientUnits="userSpaceOnUse"><stop offset="0" stop-color="#fff"/><stop offset="0.99"/></radialGradient><filter id="luminosity-noclip-4" x="936.89" y="-9074.85" width="5.13" height="32766" filterUnits="userSpaceOnUse" color-interpolation-filters="sRGB"><feFlood flood-color="#fff" result="bg"/><feBlend in="SourceGraphic" in2="bg"/></filter><mask id="mask-4" x="936.89" y="-9074.85" width="5.13" height="32766" maskUnits="userSpaceOnUse"><g class="cls-30"/></mask><radialGradient id="radial-gradient-4" cx="893.99" cy="1962.95" r="3.58" gradientTransform="translate(-83.81 -29.05) rotate(-3.86)" gradientUnits="userSpaceOnUse"><stop offset="0.29" stop-color="#fff"/><stop offset="0.99"/></radialGradient><filter id="luminosity-noclip-5" x="941.75" y="-9074.85" width="1.53" height="32766" filterUnits="userSpaceOnUse" color-interpolation-filters="sRGB"><feFlood flood-color="#fff" result="bg"/><feBlend in="SourceGraphic" in2="bg"/></filter><mask id="mask-5" x="941.75" y="-9074.85" width="1.53" height="32766" maskUnits="userSpaceOnUse"><g class="cls-29"/></mask><radialGradient id="radial-gradient-5" cx="948.22" cy="1860.44" r="1.59" xlink:href="#radial-gradient-3"/><linearGradient id="Безымянный_градиент_160" x1="42.14" y1="80.61" x2="83.88" y2="80.61" gradientUnits="userSpaceOnUse"><stop offset="0" stop-color="#fff300"/><stop offset="1" stop-color="#ff9700"/></linearGradient><linearGradient id="Безымянный_градиент_169" x1="0.65" y1="77.61" x2="83.37" y2="77.61" gradientUnits="userSpaceOnUse"><stop offset="0" stop-color="#fc0"/><stop offset="1" stop-color="#ff9700"/></linearGradient><linearGradient id="Безымянный_градиент_160-2" x1="13.82" y1="41.22" x2="70.2" y2="41.22" xlink:href="#Безымянный_градиент_160"/><radialGradient id="radial-gradient-6" cx="27.91" cy="14.83" r="15.08" gradientTransform="translate(10.51 4.5) rotate(0.48)" gradientUnits="userSpaceOnUse"><stop offset="0.12" stop-color="#fbf952"/><stop offset="0.58" stop-color="#ef6b00"/><stop offset="0.96" stop-color="#ef4400"/></radialGradient><filter id="luminosity-noclip-6" x="35.76" y="21.67" width="896.73" height="1851.33" filterUnits="userSpaceOnUse" color-interpolation-filters="sRGB"><feFlood flood-color="#fff" result="bg"/><feBlend in="SourceGraphic" in2="bg"/></filter><mask id="mask-6" x="35.76" y="21.67" width="896.73" height="1851.33" maskUnits="userSpaceOnUse"><g class="cls-1"><path class="cls-2" d="M932.06,1870.32c-1.37-.31-3-1-3.61-.86s-.66,2.19-.71,3.16.44-.18.93-.87a3,3,0,0,1,2.55-1C932.25,1870.81,933,1870.53,932.06,1870.32Z"/></g></mask><radialGradient id="radial-gradient-7" cx="26.23" cy="16.6" r="3.47" gradientTransform="translate(10.51 4.5) rotate(0.48)" gradientUnits="userSpaceOnUse"><stop offset="0.43" stop-color="#fff"/><stop offset="0.99" stop-color="#fff962"/></radialGradient><filter id="luminosity-noclip-7" x="40.57" y="18.66" width="899.49" height="1851.78" filterUnits="userSpaceOnUse" color-interpolation-filters="sRGB"><feFlood flood-color="#fff" result="bg"/><feBlend in="SourceGraphic" in2="bg"/></filter><mask id="mask-7" x="40.57" y="18.66" width="899.49" height="1851.78" maskUnits="userSpaceOnUse"><g class="cls-3"><path class="cls-4" d="M932.55,1869.68c0-.78.12-2.49.66-3.07s2.31.18,4.22,1.51,3.61,2.91,2,2.11-4.43-2.53-5.26-2.48S932.55,1869.68,932.55,1869.68Z"/></g></mask><radialGradient id="radial-gradient-8" cx="31.49" cy="13.5" r="4.76" gradientTransform="translate(10.51 4.5) rotate(0.48)" gradientUnits="userSpaceOnUse"><stop offset="0.15" stop-color="#fff"/><stop offset="0.99" stop-color="#fff962"/></radialGradient><filter id="luminosity-noclip-8" x="40.34" y="27.59" width="902.21" height="1854.48" filterUnits="userSpaceOnUse" color-interpolation-filters="sRGB"><feFlood flood-color="#fff" result="bg"/><feBlend in="SourceGraphic" in2="bg"/></filter><mask id="mask-8" x="40.34" y="27.59" width="902.21" height="1854.48" maskUnits="userSpaceOnUse"><g class="cls-5"><path class="cls-6" d="M932.41,1879.65s.25,1.83,1.1,1.57,9-5.88,9-5.88a82.56,82.56,0,0,1-7.34,5.9,5.75,5.75,0,0,1-2,.83C932.73,1882.05,932.08,1881.62,932.41,1879.65Z"/></g></mask><radialGradient id="radial-gradient-9" cx="33.67" cy="24.48" r="6.74" gradientTransform="translate(10.51 4.5) rotate(0.48)" gradientUnits="userSpaceOnUse"><stop offset="0" stop-color="#fff"/><stop offset="0.99" stop-color="#fff962"/></radialGradient><filter id="luminosity-noclip-9" x="44.91" y="21.27" width="897.11" height="1851.32" filterUnits="userSpaceOnUse" color-interpolation-filters="sRGB"><feFlood flood-color="#fff" result="bg"/><feBlend in="SourceGraphic" in2="bg"/></filter><mask id="mask-9" x="44.91" y="21.27" width="897.11" height="1851.32" maskUnits="userSpaceOnUse"><g class="cls-7"><path class="cls-8" d="M939,1869.55c-1.75-1.17-3-.19-1.35,1.12s3,2.14,4.1,1.88S940.15,1870.3,939,1869.55Z"/></g></mask><radialGradient id="radial-gradient-10" cx="128.37" cy="59.29" r="3.58" gradientTransform="translate(-83.81 -29.05) rotate(-3.86)" gradientUnits="userSpaceOnUse"><stop offset="0.29" stop-color="#fff"/><stop offset="0.99" stop-color="#fff962"/></radialGradient><filter id="luminosity-noclip-10" x="49.77" y="24.93" width="893.5" height="1849.54" filterUnits="userSpaceOnUse" color-interpolation-filters="sRGB"><feFlood flood-color="#fff" result="bg"/><feBlend in="SourceGraphic" in2="bg"/></filter><mask id="mask-10" x="49.77" y="24.93" width="893.5" height="1849.54" maskUnits="userSpaceOnUse"><g class="cls-9"><path class="cls-10" d="M942.93,1872.85c-.46-.37-1.34-.13-1.15.65s1,1.28,1.33.74A1.1,1.1,0,0,0,942.93,1872.85Z"/></g></mask><radialGradient id="radial-gradient-11" cx="40.96" cy="20.22" r="1.59" xlink:href="#radial-gradient-9"/></defs><g class="cls-11"><g id="Слой_2" data-name="Слой 2"><g id="Layer_1" data-name="Layer 1"><path class="cls-12" d="M79.79,63.35C94.38,28.65,67.15-.65,42,0,24.65.47,8.55,7.85,1.17,34.79c-3.14,11.45.43,24.53,6,35h0L42,161.45l34.9-91.62h0C78.19,67.15,78.69,66,79.79,63.35Z"/><path class="cls-13" d="M42.14,0V161.22L76.91,69.83h0c1.3-2.68,1.8-3.88,2.9-6.48C94.35,28.71,67.24-.54,42.14,0Z"/><path class="cls-14" d="M83.37,41.37a41.36,41.36,0,0,0-82.72,0c0,8.18,2.92,15.27,6.48,22.22h0L42,155.21l34.9-91.62h0C80.77,55.82,83.37,49.55,83.37,41.37Z"/><circle class="cls-15" cx="42.01" cy="41.37" r="29.12"/><circle class="cls-12" cx="42.01" cy="39.69" r="30.33"/><circle class="cls-15" cx="42.01" cy="41.22" r="29.12"/><circle class="cls-16" cx="42.01" cy="41.22" r="28.01"/><path class="cls-17" d="M22.73,53.31c-3.28,0-5.05-2.4-5.05-6.73s2.21-8.24,5.44-8.24a3.48,3.48,0,0,1,3.65,2.52c.14.67.2,1,.2,1,0,1.88-.42,2.82-1.28,2.82a1,1,0,0,1-1-.91c0-.25.44-1,.44-1.26,0-1.82-.47-2.27-1.8-2.27a2.69,2.69,0,0,0-2.14,1.42,8.88,8.88,0,0,0-1.31,5.07,9.63,9.63,0,0,0,.31,2.9,3,3,0,0,0,2.85,2,3.51,3.51,0,0,0,3-3.11L26,48.44a6.78,6.78,0,0,0-2.34.35,3.13,3.13,0,0,1-1,.43c-.72,0-1.14-.7-1.14-1.45a.94.94,0,0,1,.49-.77,31.18,31.18,0,0,1,4.16-.59c1.18,0,1.74.73,1.74,2.16C27.84,51.05,25.18,53.31,22.73,53.31Z"/><path class="cls-17" d="M38.58,50.14a7,7,0,0,0,.47,1.33,1.16,1.16,0,0,1-1.24,1.06,2.12,2.12,0,0,1-.89-.24A2.79,2.79,0,0,1,36.65,51c0-.26,0-.86,0-1.09,0,.1-.24.15-.7.15a29.62,29.62,0,0,0-5.39.46,6.52,6.52,0,0,0-.25,2.29.88.88,0,0,1-.72.41c-.6,0-1.38-.6-1.38-1.18a7.32,7.32,0,0,1,.39-1.2c2.22-8,4.64-12.36,6.14-12.36,1.91,0,3,2.78,3.69,9.82.88.22,1,.34,1,.82C39.5,49.78,39.21,50.12,38.58,50.14Zm-3.76-9.3c-.39,0-1.11,1.18-2.08,3.5C32,46,31.46,47.48,31.05,48.71A15.53,15.53,0,0,1,35,48.25l1.52,0C35.9,43.32,35.32,40.84,34.82,40.84Z"/><path class="cls-17" d="M52.94,39.57,52.6,40a2.74,2.74,0,0,0-.26,1.11,64.09,64.09,0,0,0-.54,8.58c0,1.6.29,2.51.85,2.69v.58a.82.82,0,0,1-.78.53c-1.21,0-2-2.27-2-4.71,0-2.16.07-4,.17-5.37l-1.3,5q-1.17,3.89-2.3,3.89c-1.62,0-2.58-2.39-4.42-9.23-.08.95-.12,2-.12,2.95A40.72,40.72,0,0,0,42,50.53c0,.28.46,1.37.46,1.71s-.37.7-1.17.7-1.39-1.25-1.39-3.74c0-1.63.35-7.37.35-9,0-.22-.35-.48-.35-.72,0-.78.7-1.19,2.14-1.19a1.89,1.89,0,0,1,1.17.61,39.37,39.37,0,0,0,1.22,7c.68,2.66,1.29,4,1.8,4,.33,0,1-2,1.5-4.26l.77-3.72a23.22,23.22,0,0,1,.62-2.51A1.8,1.8,0,0,1,51,38.13c.74,0,2.12.43,2.12.94A.69.69,0,0,1,52.94,39.57Z"/><path class="cls-17" d="M62.87,52.27c-.1,0-.37-.06-.48-.06-1,0-4.26,1.1-5.32,1.1-2.27,0-3.43-1.72-3.43-5.2,0-2.73.07-4.88.22-6.48,0-.21,0-.31,0-.34,0-.19-.08-.68-.08-.85a1.09,1.09,0,0,1,1.05-1.15c2.48-.42,5.36-1,6.52-1,1,0,1.72.43,1.72,1s-.34.78-1,.78c-.17,0-.63-.05-.8-.05a20.29,20.29,0,0,0-4.71.77c-.24,0-.44,0-.53.38a22.28,22.28,0,0,0-.24,4c0,.31.14.45.41.45.6,0,2.6-.55,3.19-.55a3.36,3.36,0,0,1,1.44.38,4.14,4.14,0,0,1,.22.83c0,.36-.12.57-.32.58L60,47a.86.86,0,0,0-.47-.1,24.5,24.5,0,0,0-3.55.54c-.43.07-.41.6-.41.92,0,2.66.24,3.19,1.23,3.19s3.8-1,4.84-1a2,2,0,0,1,1.88.74C63.54,51.81,63.26,52.27,62.87,52.27Z"/><path class="cls-12" d="M50.92,23.83a6.75,6.75,0,0,1,1.59,2.45c.24.79-.85,2.54-3.8,4.86s-5.47,4.79-7.23,4.77-1.79-1.48-1.78-2.55a14.29,14.29,0,0,1-2.36,1c-1,.29-2.48-.46-2.56-2.66s5.28-7.53,5.28-7.53Z"/><path class="cls-18" d="M40.23,22.35a22,22,0,0,1,.35-2.8c.2-.64.41-1.95,3-.69A41.94,41.94,0,0,1,51,24.33c.64.66,1.35,1.77-.42,3.39s-6.76,5.93-8.4,6.7-2.34-.28-2.19-2c0,0-1.44.38-2.55.7s-2,.31-2.27-1.71a39.34,39.34,0,0,1,.47-8.73c.4-2,1.76-1.09,2.41-.89S40.23,22.35,40.23,22.35Z"/><path class="cls-12" d="M51.92,25.51c-.1-1-1-1.69-1.7-2.3S48.83,22,48.09,21.43c-.94-.71-1.89-1.4-2.9-2a9.42,9.42,0,0,0-2.52-1.2c-.91-.24-1.83-.12-2.16.88a11.16,11.16,0,0,0-.32,3.21c-.68-.24-1.39-.44-2.06-.69a3.09,3.09,0,0,0-1.61-.43,1.53,1.53,0,0,0-1,1,23.93,23.93,0,0,0-.75,5.72,21.63,21.63,0,0,0,0,2.67c.06,1,.1,2.25,1,2.81s2.86-.25,3.89-.54c0,1.08.51,2.17,1.75,2.12a2.77,2.77,0,0,0,1-.34,23.35,23.35,0,0,0,4.13-3.23l2.72-2.36c1-.9,2.84-2,2.65-3.56C51.88,25.09,52,25.92,51.92,25.51Zm-.56,1a5.52,5.52,0,0,1-1.43,1.65c-.67.61-1.34,1.2-2,1.78C46.64,31,45.34,32,44,33a7.45,7.45,0,0,1-2.26,1.32c-1.53.39-1.4-1.35-1.31-2.38l-3,.78a2.39,2.39,0,0,1-1.06.13c-.6-.12-.72-1-.77-1.51a20.15,20.15,0,0,1-.1-2.06,39.65,39.65,0,0,1,.41-6.53,1.8,1.8,0,0,1,.29-.83c.42-.62,1.29-.12,1.83,0,.73.2,1.47.35,2.21.51a14.14,14.14,0,0,1,.63-3.17c.35-.87,1.24-.66,2-.38a14.81,14.81,0,0,1,2.61,1.52c.93.61,1.81,1.3,2.69,2,.66.51,1.33,1,2,1.55.8.66,1.78,1.45,1.24,2.6Z"/><g class="cls-19"><path class="cls-20" d="M40.08,22.56c-1.37-.3-3-1-3.61-.86s-.65,2.2-.71,3.17.44-.19.94-.87a3,3,0,0,1,2.54-1C40.27,23.05,41,22.77,40.08,22.56Z"/></g><g class="cls-21"><path class="cls-22" d="M40.57,21.93c0-.78.12-2.49.66-3.07s2.31.18,4.22,1.51,3.62,2.9,2,2.11S43,20,42.15,20,40.57,21.93,40.57,21.93Z"/></g><g class="cls-23"><path class="cls-24" d="M40.43,31.89s.26,1.84,1.11,1.58,9-5.88,9-5.88a84.45,84.45,0,0,1-7.34,5.9,5.8,5.8,0,0,1-2,.83C40.75,34.3,40.1,33.87,40.43,31.89Z"/></g><g class="cls-25"><path class="cls-26" d="M47.05,21.79c-1.75-1.16-3-.18-1.34,1.12s3,2.15,4.09,1.88S48.18,22.55,47.05,21.79Z"/></g><g class="cls-27"><path class="cls-28" d="M51,25.1c-.46-.37-1.34-.14-1.15.65s1,1.28,1.34.74A1.1,1.1,0,0,0,51,25.1Z"/></g></g></g></g></svg>