<svg xmlns="http://www.w3.org/2000/svg" viewBox="0 0 83.88 161.45"><defs><style>.cls-1{fill:#034ea2;}.cls-2{fill:#54b4ef;}.cls-3{fill:#0b73d1;}.cls-4{fill:#fff;}.cls-5{fill:none;stroke:#034ea2;stroke-miterlimit:10;stroke-width:0.36px;}.cls-6{fill:#ed1c24;}</style></defs><g id="Слой_2" data-name="Слой 2"><g id="Layer_1" data-name="Layer 1"><path class="cls-1" d="M79.79,63.35C94.38,28.65,67.15-.65,42,0,24.65.47,8.55,7.85,1.17,34.79c-3.14,11.45.43,24.53,6,35h0L42,161.45l34.9-91.62h0C78.19,67.15,78.69,66,79.79,63.35Z"/><path class="cls-2" d="M42.14,0V161.22L76.91,69.83h0c1.3-2.68,1.8-3.88,2.9-6.48C94.35,28.71,67.24-.54,42.14,0Z"/><path class="cls-3" d="M83.37,41.37a41.36,41.36,0,0,0-82.72,0c0,8.18,2.92,15.27,6.48,22.22h0L42,155.21l34.9-91.62h0C80.77,55.82,83.37,49.55,83.37,41.37Z"/><circle class="cls-4" cx="42.01" cy="41.37" r="29.12"/><circle class="cls-1" cx="42.01" cy="39.69" r="30.33"/><circle class="cls-4" cx="42.01" cy="41.22" r="29.12"/><circle class="cls-5" cx="42.01" cy="41.22" r="28.01"/><path class="cls-6" d="M21.17,32.17a7.42,7.42,0,1,1,7.41,7.42,7.41,7.41,0,0,1-7.41-7.42"/><path class="cls-1" d="M28.59,58.51a1.93,1.93,0,0,1-1.84-2V44.36a1.91,1.91,0,0,1,1.84-2c11.66,0,12.59-15.79,29.35-15.79a1.92,1.92,0,0,1,1.83,2v12a1.92,1.92,0,0,1-1.83,2c-11.43,0-12.14,15.91-29.35,15.91"/></g></g></svg>