<svg xmlns="http://www.w3.org/2000/svg" viewBox="0 0 83.88 161.45"><defs><style>.cls-1{fill:#005a52;}.cls-2{fill:#06ceb1;}.cls-3{fill:#048471;}.cls-4{fill:#fff;}.cls-5{fill:#013a33;}.cls-6{fill:none;stroke:#005a52;stroke-miterlimit:10;stroke-width:0.36px;}</style></defs><g id="Слой_2" data-name="Слой 2"><g id="Layer_1" data-name="Layer 1"><path class="cls-1" d="M79.79,63.35C94.38,28.65,67.15-.65,42,0,24.65.47,8.55,7.85,1.17,34.79c-3.14,11.45.43,24.53,6,35h0L42,161.45l34.9-91.62h0C78.19,67.15,78.69,66,79.79,63.35Z"/><path class="cls-2" d="M42.14,0V161.22L76.91,69.83h0c1.3-2.68,1.8-3.88,2.9-6.48C94.35,28.71,67.24-.54,42.14,0Z"/><path class="cls-3" d="M83.37,41.37a41.36,41.36,0,0,0-82.72,0c0,8.18,2.92,15.27,6.48,22.22h0L42,155.21l34.9-91.62h0C80.77,55.82,83.37,49.55,83.37,41.37Z"/><circle class="cls-4" cx="42.01" cy="41.37" r="29.12"/><circle class="cls-5" cx="42.01" cy="39.69" r="30.33"/><circle class="cls-4" cx="42.01" cy="41.22" r="29.12"/><circle class="cls-6" cx="42.01" cy="41.22" r="28.01"/><path class="cls-1" d="M22.39,39.47c0-.61-.13-.88-1-.88s-1,.31-1,1.1V41.4c0,.79.13,1.11,1,1.11s1-.19,1-1H23c0,1-.11,1.56-1.57,1.56s-1.59-.6-1.59-1.69V39.7c0-1.1.26-1.69,1.59-1.69S23,38.5,23,39.47Z"/><path class="cls-1" d="M25.15,38.66v4.4h-.62v-4.4h-1v-.57h2.68v.57Z"/><path class="cls-1" d="M28,40.76c.1-.41.21-.83.34-1.23l.48-1.48h.68l-1.21,3.53-.22.72c-.24.76-.67,1-1.39.66l.11-.52c.27.1.55.16.7-.32l.17-.55-1.18-3.52h.7l.47,1.51Z"/><path class="cls-1" d="M30,42.47a2.21,2.21,0,0,0,.58-1.75l.1-2.67h2.43v4.42h.44v1.31H33v-.72H30.3v.72h-.59V42.47Zm2.46,0V38.63H31.25l0,2.09a2.78,2.78,0,0,1-.49,1.75Z"/><path class="cls-1" d="M34.32,43.06v-5H35v5Z"/><path class="cls-1" d="M36,39.42c0-1,.55-1.37,1.43-1.37h1.35v5h-.63V41.19h-.56l-1,1.86h-.73L37,41.16c-.77-.16-1-.72-1-1.42Zm1.43-.78c-.55,0-.81.09-.81.78v.32c0,.69.26.86.81.86h.72v-2Z"/><path class="cls-1" d="M47.69,39.47c0-.61-.13-.88-1-.88s-1,.31-1,1.1V41.4c0,.79.13,1.11,1,1.11s1-.19,1-1h.59c0,1-.1,1.56-1.56,1.56s-1.6-.6-1.6-1.69V39.7c0-1.1.26-1.69,1.6-1.69s1.55.49,1.56,1.46Z"/><path class="cls-1" d="M49.13,38.05h1.25a1.18,1.18,0,0,1,1.34,1.31.93.93,0,0,1-.59,1A1.1,1.1,0,0,1,52,41.52c0,1.06-.59,1.54-1.62,1.54H49.13Zm.61.58v1.48h.56a.71.71,0,0,0,.8-.75c0-.53-.21-.73-.72-.73Zm.69,3.84c.76,0,1-.37,1-.94s-.37-.82-1-.82h-.7v1.76Z"/><path class="cls-1" d="M52.89,43.06v-5h.63v5Z"/><path class="cls-1" d="M55.84,38.66v4.4h-.62v-4.4h-1v-.57h2.69v.57Z"/><path class="cls-1" d="M57.12,42.48c.94.06.9-.82.9-1.83l0-2.6h2.59v5H60V38.64H58.65l0,2c0,1.46,0,2.49-1.51,2.42Z"/><path class="cls-1" d="M64,43.06l-.26-.93H62.2l-.26.93H61.3l1.33-5h.63l1.32,5Zm-1-4.18L62.6,40.5l-.25,1h1.18l-.26-1.07Z"/><polygon class="cls-1" points="67.64 47.15 16.62 47.15 16.62 34 38.12 34 38.12 34.57 17.2 34.57 17.2 46.58 67.06 46.58 67.06 34.57 45.91 34.57 45.91 34 67.64 34 67.64 47.15"/><polygon class="cls-1" points="41.47 32.8 39.42 36.67 44.53 36.67 42.5 32.8 41.47 32.8"/><rect class="cls-1" x="41.75" y="35.59" width="0.57" height="9.53"/><path class="cls-1" d="M40.27,45.11a3.63,3.63,0,0,1,.93-.27,4.85,4.85,0,0,1,.93-.06,5.84,5.84,0,0,1,.93.08,4,4,0,0,1,.93.25v.29H40.27Z"/></g></g></svg>