<svg xmlns="http://www.w3.org/2000/svg" viewBox="0 0 83.88 161.45"><defs><style>.cls-1{fill:#178c54;}.cls-2{fill:#5af9b1;}.cls-3{fill:#14ef8c;}.cls-4{fill:#fff;}.cls-5{fill:none;stroke:#14ef8c;stroke-miterlimit:10;stroke-width:0.36px;}.cls-6{fill:#b0bec5;}.cls-7{fill:#eceff1;}.cls-8{fill:#cfd8dc;}.cls-9{fill:#f06292;}.cls-10{fill:#24ffa1;}.cls-11{fill:#ffc107;}</style></defs><g id="Слой_2" data-name="Слой 2"><g id="Layer_1" data-name="Layer 1"><path class="cls-1" d="M79.79,63.35C94.38,28.65,67.15-.65,42,0,24.65.47,8.55,7.85,1.17,34.79c-3.14,11.45.43,24.53,6,35h0L42,161.45l34.9-91.62h0C78.19,67.15,78.69,66,79.79,63.35Z"/><path class="cls-2" d="M42.14,0V161.22L76.91,69.83h0c1.3-2.68,1.8-3.88,2.9-6.48C94.35,28.71,67.24-.54,42.14,0Z"/><path class="cls-3" d="M83.37,41.37a41.36,41.36,0,0,0-82.72,0c0,8.18,2.92,15.27,6.48,22.22h0L42,155.21l34.9-91.62h0C80.77,55.82,83.37,49.55,83.37,41.37Z"/><circle class="cls-4" cx="42.01" cy="41.37" r="29.12"/><circle class="cls-1" cx="42.01" cy="39.69" r="30.33"/><circle class="cls-4" cx="42.01" cy="41.22" r="29.12"/><circle class="cls-5" cx="42.01" cy="41.22" r="28.01"/><path class="cls-6" d="M60.33,52.7a4.07,4.07,0,0,1-2.89,1.2h-31a4,4,0,0,1-2.88-1.2L39.93,41a3.39,3.39,0,0,0,4,0Z"/><path class="cls-7" d="M60.74,29.34,46.2,39.27,44,40.9a3.39,3.39,0,0,1-4,0l-3.07-1.63L23.12,29.36a4.08,4.08,0,0,1,3.31-1.7h31A4.09,4.09,0,0,1,60.74,29.34Z"/><path class="cls-8" d="M23,29.42,38.68,41,23.42,52.65a4.12,4.12,0,0,1-1.19-2.89V31.81A4,4,0,0,1,23,29.42Z"/><path class="cls-8" d="M61.64,31.81v18a4.08,4.08,0,0,1-1.19,2.89l-16-11.87L60.86,29.41A4,4,0,0,1,61.64,31.81Z"/><path class="cls-9" d="M54.27,33.61H47.74a.82.82,0,0,0-.82.82V53.05a.82.82,0,0,0,.82.82h6.53a.82.82,0,0,0,.81-.82V34.43A.82.82,0,0,0,54.27,33.61Z"/><path class="cls-10" d="M57.57,30.93l.78-2.38a2,2,0,0,0-.7-1.94,2.73,2.73,0,0,0-2.76-.4l-3.38,1.9a.8.8,0,0,0-.42.71V33a.81.81,0,0,0,.42.71L55,35.62a2.92,2.92,0,0,0,.92.16,2.66,2.66,0,0,0,1.71-.62,2.05,2.05,0,0,0,.67-2Z"/><path class="cls-10" d="M50.5,28.1l-3.51-2a2.68,2.68,0,0,0-2.63.47,2,2,0,0,0-.67,2l.75,2.2-.78,2.37a2,2,0,0,0,.7,1.94,2.54,2.54,0,0,0,1.68.6,3.14,3.14,0,0,0,1.07-.19l3.38-1.9a.8.8,0,0,0,.42-.71V28.81A.82.82,0,0,0,50.5,28.1Z"/><path class="cls-11" d="M53.45,30.89c0-1.8-1.1-3.26-2.45-3.26s-2.45,1.46-2.45,3.26,1.1,3.26,2.45,3.26S53.45,32.69,53.45,30.89Z"/><path class="cls-1" d="M59.25,54H24.63a2.48,2.48,0,0,1-2.47-2.47V30.07a2.48,2.48,0,0,1,2.47-2.48h19.8a.83.83,0,1,1,0,1.65H24.63a.83.83,0,0,0-.83.83V51.5a.83.83,0,0,0,.83.82H59.25a.82.82,0,0,0,.82-.82V30.07a.83.83,0,0,0-.82-.83H57.56a.83.83,0,1,1,0-1.65h1.69a2.48,2.48,0,0,1,2.47,2.48V51.5A2.48,2.48,0,0,1,59.25,54Z"/><path class="cls-1" d="M41.94,42.43a4.12,4.12,0,0,1-2.43-.79l-16.6-12a.83.83,0,0,1,1-1.34l16.6,12a2.48,2.48,0,0,0,2.91,0l3.84-2.71a.82.82,0,1,1,1,1.34l-3.83,2.71A4.1,4.1,0,0,1,41.94,42.43Z"/><path class="cls-1" d="M57,32.54a.83.83,0,0,1-.67-.35.82.82,0,0,1,.2-1.15l3.61-2.55a.82.82,0,1,1,1,1.34l-3.61,2.55A.79.79,0,0,1,57,32.54Z"/><path class="cls-1" d="M23.42,53.44a.8.8,0,0,1-.67-.34A.83.83,0,0,1,22.94,52L39.25,40.11a.84.84,0,0,1,1.15.18.83.83,0,0,1-.18,1.15L23.9,53.28A.77.77,0,0,1,23.42,53.44Z"/><path class="cls-1" d="M47.7,44.19a.81.81,0,0,1-.48-.16l-3.56-2.58a.83.83,0,0,1,1-1.34l3.56,2.59a.82.82,0,0,1-.49,1.49Z"/><path class="cls-1" d="M60.45,53.44a.83.83,0,0,1-.48-.15l-6.15-4.47a.83.83,0,0,1-.19-1.15.82.82,0,0,1,1.15-.18L60.94,52a.83.83,0,0,1,.18,1.15A.81.81,0,0,1,60.45,53.44Z"/><path class="cls-1" d="M51,34.19c-1.39,0-2.47-1.45-2.47-3.3S49.61,27.6,51,27.6s2.47,1.44,2.47,3.29S52.38,34.19,51,34.19Zm0-4.95c-.33,0-.83.66-.83,1.65s.49,1.65.83,1.65.82-.64.82-1.65S51.33,29.24,51,29.24Z"/><path class="cls-1" d="M56,35.83a2.72,2.72,0,0,1-.93-.16l-3.54-2a.82.82,0,0,1,.8-1.44l3.42,1.91a1.07,1.07,0,0,0,.9-.21.39.39,0,0,0,.16-.39L56,31.38a2,2,0,0,1,0-.87l.79-2.4a.51.51,0,0,0-.19-.29,1.05,1.05,0,0,0-1-.16l-3.29,1.86a.83.83,0,0,1-1.12-.31.84.84,0,0,1,.31-1.13l3.42-1.91a2.72,2.72,0,0,1,2.78.4,2,2,0,0,1,.71,2l-.79,2.4.76,2.22a2,2,0,0,1-.68,2.06A2.67,2.67,0,0,1,56,35.83Z"/><path class="cls-1" d="M46,35.81a2.57,2.57,0,0,1-1.69-.6,2,2,0,0,1-.7-2l.78-2.39-.76-2.22a2.07,2.07,0,0,1,.68-2.06A2.7,2.7,0,0,1,47,26.11l3.54,2a.82.82,0,1,1-.8,1.44L46.31,27.6a1,1,0,0,0-.9.22.42.42,0,0,0-.17.39L46,30.4a2.15,2.15,0,0,1,0,.87l-.78,2.39a.5.5,0,0,0,.19.3,1.08,1.08,0,0,0,1,.16l3.29-1.86a.83.83,0,0,1,.81,1.44l-3.41,1.91A3.13,3.13,0,0,1,46,35.81Z"/><path class="cls-1" d="M47.71,54a.83.83,0,0,1-.83-.83V34.34a.83.83,0,1,1,1.65,0v18.8A.83.83,0,0,1,47.71,54Z"/><path class="cls-1" d="M54.3,54a.83.83,0,0,1-.82-.83V34.34a.82.82,0,1,1,1.64,0v18.8A.82.82,0,0,1,54.3,54Z"/></g></g></svg>