<svg xmlns="http://www.w3.org/2000/svg" viewBox="0 0 83.88 161.45"><defs><style>.cls-1{fill:#911d33;}.cls-2{fill:#ed664c;}.cls-3{fill:#cb243f;}.cls-4{fill:#fff;}.cls-5{fill:none;stroke:#cb243f;stroke-miterlimit:10;stroke-width:0.36px;}.cls-6{fill:#fdc75b;}</style></defs><g id="Слой_2" data-name="Слой 2"><g id="Layer_1" data-name="Layer 1"><path class="cls-1" d="M79.79,63.35C94.38,28.65,67.15-.65,42,0,24.65.47,8.55,7.85,1.17,34.79c-3.14,11.45.43,24.53,6,35h0L42,161.45l34.9-91.62h0C78.19,67.15,78.69,66,79.79,63.35Z"/><path class="cls-2" d="M42.14,0V161.22L76.91,69.83h0c1.3-2.68,1.8-3.88,2.9-6.48C94.35,28.71,67.24-.54,42.14,0Z"/><path class="cls-3" d="M83.37,41.37a41.36,41.36,0,0,0-82.72,0c0,8.18,2.92,15.27,6.48,22.22h0L42,155.21l34.9-91.62h0C80.77,55.82,83.37,49.55,83.37,41.37Z"/><circle class="cls-4" cx="42.01" cy="41.37" r="29.12"/><circle class="cls-1" cx="42.01" cy="39.69" r="30.33"/><circle class="cls-4" cx="42.01" cy="41.22" r="29.12"/><circle class="cls-5" cx="42.01" cy="41.22" r="28.01"/><path class="cls-2" d="M52.55,39.82a4.27,4.27,0,0,1-3.29,0h0c-2.67-1.1-4.63-4.74-4.63-8.49l.25-7a1.05,1.05,0,0,1,2.1,0l.43,7h2l.44-7a1,1,0,0,1,1-1h0a1,1,0,0,1,1.05,1l.44,7h2l.43-7a1,1,0,0,1,1.78-.69,1.14,1.14,0,0,1,.32.71l.25,7c0,3.75-2,7.39-4.63,8.49Z"/><path class="cls-6" d="M53.46,59.6a2.57,2.57,0,1,1-5.13.12s0-.09,0-.12l.6-12.8h3.93Z"/><path class="cls-6" d="M52.55,39.82l.32,7H48.94l.32-7a4.4,4.4,0,0,0,1.64.33A4.46,4.46,0,0,0,52.55,39.82Z"/><path class="cls-2" d="M31.92,22.31c3.42,0,6.19,3.89,6.19,8.69,0,4-1.93,7.39-4.55,8.39a4.53,4.53,0,0,1-1.63.3,4.47,4.47,0,0,1-1.62-.3c-2.62-1-4.56-4.38-4.56-8.39C25.74,26.2,28.52,22.31,31.92,22.31Z"/><path class="cls-6" d="M34.49,59.6a2.57,2.57,0,1,1-5.13.12s0-.09,0-.12L30,46.8H33.9Z"/><path class="cls-6" d="M33.55,39.4l.34,7.39H30l.34-7.39h0a4.47,4.47,0,0,0,1.62.3,4.28,4.28,0,0,0,1.63-.29Z"/><path class="cls-1" d="M31.92,21.36a6.38,6.38,0,0,0-5.15,2.95,11.66,11.66,0,0,0-2,6.69c0,4,1.83,7.57,4.53,9L29,46.74l-.6,12.8v.17a3.52,3.52,0,0,0,6.07,2.42,3.45,3.45,0,0,0,1-2.59l-.6-12.8L34.53,40c2.7-1.42,4.53-5,4.53-9a11.63,11.63,0,0,0-2-6.7A6.33,6.33,0,0,0,31.92,21.36Zm.73,19.25.25,5.23H31l.25-5.23a6.41,6.41,0,0,0,1.43,0Zm.45,20.22a1.62,1.62,0,0,1-1.18.49,1.61,1.61,0,0,1-1.61-1.6v-.1l.57-11.87H33l.56,11.89A1.61,1.61,0,0,1,33.1,60.83Zm.1-22.33a3.56,3.56,0,0,1-2.55,0h0c-2.33-.89-3.95-4-3.95-7.5a9.78,9.78,0,0,1,1.63-5.6,4.56,4.56,0,0,1,3.6-2.13,4.5,4.5,0,0,1,3.6,2.14A9.69,9.69,0,0,1,37.15,31C37.16,34.53,35.53,37.61,33.2,38.5Z"/><path class="cls-1" d="M57.89,24.32a2.08,2.08,0,0,0-.61-1.38,2,2,0,0,0-3.4,1.33l-.38,6.12h-.21l-.38-6.12a2,2,0,0,0-2-1.89h0a2,2,0,0,0-2,1.89l-.38,6.12h-.2l-.38-6.12a2,2,0,0,0-4,.05l-.24,7v0c0,3.9,1.9,7.59,4.6,9.08L48,46.75l-.6,12.8v.17a3.52,3.52,0,1,0,7-.16l-.61-12.8-.29-6.34c2.71-1.49,4.61-5.18,4.61-9.08v0ZM51.64,41.05l.22,4.79H49.93l.22-4.79a6.16,6.16,0,0,0,.75.05A6,6,0,0,0,51.64,41.05Zm.43,19.78a1.63,1.63,0,0,1-2.79-1.11v-.1l.56-11.88H52l.56,11.89A1.62,1.62,0,0,1,52.07,60.83Zm.16-21.91,0,0a3.28,3.28,0,0,1-2.56,0l0,0c-2.28-1-4-4.21-4-7.57l.25-7a.11.11,0,0,1,.1-.09.1.1,0,0,1,.09.08l.44,7a1,1,0,0,0,.95.91h2a1,1,0,0,0,1-.91l.44-7a.11.11,0,0,1,.1-.09h0a.1.1,0,0,1,.1.08l.44,7a1,1,0,0,0,.95.91h2a1,1,0,0,0,1-.91l.44-7a.11.11,0,0,1,.09-.09.1.1,0,0,1,.07,0s0,0,0,.06l.25,7C56.22,34.7,54.51,38,52.23,38.92Z"/></g></g></svg>