<svg xmlns="http://www.w3.org/2000/svg" viewBox="0 0 83.88 131.45"><defs><style>.cls-1{isolation:isolate;}.cls-2{fill:#545454;mix-blend-mode:multiply;}.cls-3{fill:#77787b;}.cls-4{fill:#5a5b5b;}.cls-5{fill:#fff;}.cls-6{fill:#211e1f;}</style></defs><g class="cls-1"><g id="Слой_2" data-name="Слой 2"><g id="Layer_1" data-name="Layer 1"><path class="cls-2" d="M79.79,63.35C94.38,28.65,67.15-.65,42,0,24.65.47,8.55,7.85,1.17,34.79c-3.14,11.45.43,24.53,6,35h0L42,131.45l34.9-61.62h0C78.19,67.15,78.69,66,79.79,63.35Z"/><path class="cls-3" d="M42.14,0V131.22L76.91,69.83h0c1.3-2.68,1.8-3.88,2.9-6.48C94.35,28.71,67.24-.54,42.14,0Z"/><path class="cls-4" d="M83.37,41.37a41.36,41.36,0,0,0-82.72,0c0,8.18,2.92,15.27,6.48,22.22h0L42,125.21l34.9-61.62h0C80.77,55.82,83.37,49.55,83.37,41.37Z"/><circle class="cls-5" cx="42.01" cy="41.37" r="29.12"/><circle class="cls-2" cx="42.01" cy="39.69" r="30.33"/><circle class="cls-5" cx="42.01" cy="41.22" r="29.12"/><path d="M41.94,68.73A27.56,27.56,0,1,1,69.49,41.17,27.59,27.59,0,0,1,41.94,68.73Zm0-54A26.49,26.49,0,1,0,68.42,41.17,26.52,26.52,0,0,0,41.94,14.68Z"/><path class="cls-6" d="M29.57,32.27c-.08-.24-.15-.49-.22-.75l-.24-.76q0,.48,0,1c0,.31,0,.59,0,.85,0,.66,0,1.27.05,1.82s.05,1.08.05,1.61a.91.91,0,0,1-.09.41.93.93,0,0,1-.26.33,1,1,0,0,1-.36.22,1,1,0,0,1-.42.09,2.55,2.55,0,0,1-.84-.14,2.73,2.73,0,0,0-.8-.13,5.75,5.75,0,0,0,.38-1.26c.1-.51.17-1,.23-1.52s.09-1,.12-1.34,0-.65,0-.75c0-.85,0-1.67-.05-2.46a8,8,0,0,0-.31-2.05,1.42,1.42,0,0,0,.42-.06l.37-.11c.12-.05.24-.08.36-.12a1.12,1.12,0,0,1,.38-.06,1.29,1.29,0,0,1,.83.32,3.77,3.77,0,0,1,.72.84,7.48,7.48,0,0,1,.63,1.2c.19.44.37.89.53,1.35s.31.91.45,1.35.26.84.38,1.18A4.52,4.52,0,0,1,32.28,32l.7-1.46c.24-.5.46-1,.65-1.51a3.74,3.74,0,0,0,.3-1.38,1.86,1.86,0,0,0,0-.26.42.42,0,0,0-.08-.22l.25-.05.34-.05.4,0,.38,0a1.74,1.74,0,0,1,.76.16,1.49,1.49,0,0,1,.82,1,1.91,1.91,0,0,1,.1.62c0,.29,0,.63,0,1s0,.78,0,1.19,0,.83,0,1.25,0,.83,0,1.21,0,.53,0,.84a9.26,9.26,0,0,0,.13.92c0,.31.11.6.17.87a3.1,3.1,0,0,0,.21.65,1.47,1.47,0,0,0-.34,0l-.41.1-.44.11a2.49,2.49,0,0,1-.46,0,1.13,1.13,0,0,1-.47-.09.83.83,0,0,1-.31-.24.87.87,0,0,1-.17-.33,1.5,1.5,0,0,1-.05-.37c0-.88,0-1.7.06-2.44s0-1.49,0-2.23v-.21c0-.1,0-.2,0-.31s0-.2,0-.3,0-.16,0-.21a12.68,12.68,0,0,0-.57,1.4c-.19.52-.35,1-.5,1.56s-.27,1-.37,1.48A6.57,6.57,0,0,0,33.18,36a2.39,2.39,0,0,0-.5.16,1.78,1.78,0,0,1-.69.12,1.19,1.19,0,0,1-.83-.37,4,4,0,0,1-.66-1A9.33,9.33,0,0,1,30,33.64c-.15-.47-.29-.92-.41-1.37"/><path class="cls-6" d="M42.84,28.31a2.09,2.09,0,0,0-1.2.33,2.4,2.4,0,0,0-.79.88,3.85,3.85,0,0,0-.42,1.21,6.66,6.66,0,0,0-.13,1.33,6.88,6.88,0,0,0,.12,1.26,4.47,4.47,0,0,0,.39,1.17,2.5,2.5,0,0,0,.71.86,1.77,1.77,0,0,0,1.09.33,1.92,1.92,0,0,0,1.18-.35,2.68,2.68,0,0,0,.75-.91A4.37,4.37,0,0,0,45,33.17a7.81,7.81,0,0,0,.11-1.34A8.9,8.9,0,0,0,45,30.57a4,4,0,0,0-.35-1.14,2.34,2.34,0,0,0-.68-.81,1.83,1.83,0,0,0-1.1-.31m4.47,3.28a8.14,8.14,0,0,1-.23,1.85,5.23,5.23,0,0,1-.76,1.76,4.22,4.22,0,0,1-1.42,1.33,4.34,4.34,0,0,1-2.2.52,5,5,0,0,1-2-.39,4,4,0,0,1-1.44-1.07A4.52,4.52,0,0,1,38.36,34a6.3,6.3,0,0,1-.28-1.91,6.14,6.14,0,0,1,.32-2,4.92,4.92,0,0,1,.92-1.65,4.25,4.25,0,0,1,1.49-1.12,4.63,4.63,0,0,1,2-.41,4.89,4.89,0,0,1,2,.37,3.93,3.93,0,0,1,1.4,1A4.08,4.08,0,0,1,47,29.77a6.07,6.07,0,0,1,.27,1.82"/><path class="cls-6" d="M54.86,28.25a1.21,1.21,0,0,1,.35-.94A1.12,1.12,0,0,1,56,27a3.64,3.64,0,0,1,.6.05,4.49,4.49,0,0,1,.47.13l.37.12a.83.83,0,0,0,.29.06,3.6,3.6,0,0,0-.46.92A5.17,5.17,0,0,0,57,29.47c0,.46-.08,1-.1,1.63s0,1.39,0,2.26c0,.22,0,.49,0,.8s.05.63.09,1a8.73,8.73,0,0,0,.17.94,2.49,2.49,0,0,0,.29.71,3,3,0,0,0-.57.15,3.26,3.26,0,0,1-1,.14,1.14,1.14,0,0,1-.83-.41,6.23,6.23,0,0,1-.85-1.16c-.31-.5-.66-1.12-1.05-1.84s-.86-1.54-1.4-2.44c-.1-.16-.19-.31-.3-.47s-.2-.32-.3-.5c0,.29,0,.58,0,.87v.81c0,.41,0,.78,0,1.12s0,.67,0,1,0,.64,0,1,0,.67,0,1a1,1,0,0,1-.31.74,1.21,1.21,0,0,1-.89.3,3.84,3.84,0,0,1-1.11-.13,2.43,2.43,0,0,0-.59-.13,2.34,2.34,0,0,0,.46-.83A5.89,5.89,0,0,0,49,34.7a16.78,16.78,0,0,0,.13-1.78c0-.68,0-1.46,0-2.34,0-.23,0-.48,0-.77s0-.58-.09-.88a6.89,6.89,0,0,0-.17-.86,2.45,2.45,0,0,0-.29-.67.49.49,0,0,0,.18,0,1.29,1.29,0,0,1,.28-.12,3.19,3.19,0,0,1,.49-.12,4.16,4.16,0,0,1,.79-.06,1.44,1.44,0,0,1,1,.37,4.24,4.24,0,0,1,.78.85,8.12,8.12,0,0,1,.6,1,8.92,8.92,0,0,0,.45.82l.72,1.2c.23.38.44.71.61,1s.32.53.44.71a2.32,2.32,0,0,1,.17.31c0-.84-.1-1.69-.15-2.54s-.1-1.7-.1-2.54"/><path class="cls-6" d="M46.14,38s1.19,1.63,0,2.25-2.59.45-1.46-.2a2.66,2.66,0,0,0,1.46-2"/><path class="cls-6" d="M28.23,45.24a5.61,5.61,0,0,0,.06.7,3,3,0,0,0,.23.87,2.08,2.08,0,0,0,.52.73,1.29,1.29,0,0,0,.9.3.68.68,0,0,0,.2,0,1.08,1.08,0,0,0,.28-.11.9.9,0,0,0,.26-.17.53.53,0,0,0,.13-.26s.08,0,.2,0a1.33,1.33,0,0,1,.39,0,1,1,0,0,1,.37.16.4.4,0,0,1,.17.38.93.93,0,0,1-.23.65,1.69,1.69,0,0,1-.55.4,2.27,2.27,0,0,1-.65.22,2.65,2.65,0,0,1-.56.07,4.08,4.08,0,0,1-1.5-.27,3.39,3.39,0,0,1-1.21-.79,3.83,3.83,0,0,1-.81-1.22,4.16,4.16,0,0,1-.3-1.61,4.61,4.61,0,0,1,.22-1.41,3.45,3.45,0,0,1,.71-1.25,3.68,3.68,0,0,1,1.23-.89,4.53,4.53,0,0,1,1.81-.34,3,3,0,0,1,.68.07,2.19,2.19,0,0,1,.58.2,1.13,1.13,0,0,1,.41.33.78.78,0,0,1,.15.47.63.63,0,0,1-.17.47,1.52,1.52,0,0,1-.38.24L31,43.3c-.12,0-.17.06-.17.11a1.92,1.92,0,0,0-.32-.43.64.64,0,0,0-.45-.2,1.61,1.61,0,0,0-.8.2,1.7,1.7,0,0,0-.57.53,2.48,2.48,0,0,0-.34.79,3.61,3.61,0,0,0-.12.94"/><path class="cls-6" d="M38.83,49.11a1,1,0,0,1-.84-.35,2.29,2.29,0,0,1-.46-.84,4.7,4.7,0,0,1-.17-1c0-.32,0-.58,0-.76a7.45,7.45,0,0,1,.08-1,7.24,7.24,0,0,0,.07-1c0-.19,0-.37,0-.53a1.29,1.29,0,0,0-.12-.42.67.67,0,0,0-.65-.38.93.93,0,0,0-.52.16,1.81,1.81,0,0,0-.42.41,2,2,0,0,0-.2.36,2.43,2.43,0,0,0-.17.61,9.92,9.92,0,0,0-.1,1c0,.42,0,1,0,1.63,0,.39,0,.72,0,1a1.87,1.87,0,0,0,.23.75.16.16,0,0,0-.11.07l-.18.13a1.55,1.55,0,0,1-.28.12.94.94,0,0,1-.39.07,1.73,1.73,0,0,1-.59-.1,1.14,1.14,0,0,1-.4-.25,1,1,0,0,1-.23-.34,1,1,0,0,1-.08-.38c0-.55,0-1.05,0-1.51s.05-.91.06-1.37,0-.86,0-1.26V42.84q0-1.29,0-2.19a8.65,8.65,0,0,0-.11-1.27l.48-.27a1.32,1.32,0,0,1,.62-.17,1.12,1.12,0,0,1,.5.1,1,1,0,0,1,.35.24,1.13,1.13,0,0,1,.21.35,1.21,1.21,0,0,1,.06.38,2.93,2.93,0,0,1,0,.37q0,.24-.06.54c0,.19,0,.39-.07.6s0,.4,0,.58a2.51,2.51,0,0,1,1.92-.74,3.32,3.32,0,0,1,1,.13,1.71,1.71,0,0,1,.73.44,2,2,0,0,1,.45.83A4.15,4.15,0,0,1,39.52,44a9.11,9.11,0,0,1-.09,1.26,7.46,7.46,0,0,0-.1,1.2v.33c0,.13,0,.27,0,.4a1.39,1.39,0,0,0,.06.33c0,.1.05.14.1.14a1.24,1.24,0,0,0,.37-.08,2.11,2.11,0,0,1,.38-.11l.12,0c.07,0,.1.15.1.34a.59.59,0,0,1-.2.38,2.67,2.67,0,0,1-.47.4,2.48,2.48,0,0,1-.54.32,1.13,1.13,0,0,1-.44.13"/><path class="cls-6" d="M45.15,47.84a1.53,1.53,0,0,0,.36,0,1.12,1.12,0,0,0,.35-.12.83.83,0,0,0,.28-.21.71.71,0,0,0,.17-.32.3.3,0,0,0,.1.09l.19.18a1.64,1.64,0,0,1,.19.25.62.62,0,0,1,.09.32.84.84,0,0,1-.21.59,1.19,1.19,0,0,1-.51.36,2.78,2.78,0,0,1-.64.19,4.82,4.82,0,0,1-.61,0,4,4,0,0,1-1.46-.27,3.52,3.52,0,0,1-2-2,4,4,0,0,1-.3-1.57,4.38,4.38,0,0,1,.26-1.47,4,4,0,0,1,.71-1.27,3.38,3.38,0,0,1,1.12-.9,3,3,0,0,1,1.44-.35,2.93,2.93,0,0,1,1.07.18,2.21,2.21,0,0,1,.78.49,1.93,1.93,0,0,1,.46.72,2.37,2.37,0,0,1,.16.88,2.08,2.08,0,0,1-.19.89,2.24,2.24,0,0,1-.52.67,3.21,3.21,0,0,1-.73.49,7.36,7.36,0,0,1-.86.35.85.85,0,0,0-.43.28.58.58,0,0,0-.13.3,2.44,2.44,0,0,1-.45-.53,1,1,0,0,1-.12-.43.5.5,0,0,1,.08-.27,1.37,1.37,0,0,1,.19-.22,1.6,1.6,0,0,1,.23-.16l.2-.1a1.28,1.28,0,0,0,.62-.55,1.62,1.62,0,0,0,.22-.84,1,1,0,0,0-.07-.41.77.77,0,0,0-.19-.27.65.65,0,0,0-.23-.15.8.8,0,0,0-.86.2,1.9,1.9,0,0,0-.4.61,3.4,3.4,0,0,0-.21.82,4.92,4.92,0,0,0-.07.84,3.75,3.75,0,0,0,.11.93,2.81,2.81,0,0,0,.34.86,2.13,2.13,0,0,0,.59.64,1.48,1.48,0,0,0,.86.25"/><path class="cls-6" d="M51.93,43a.8.8,0,0,0-.59.29,2.24,2.24,0,0,0-.44.76,4.43,4.43,0,0,0-.28,1,7,7,0,0,0-.1,1.1c0,.34,0,.67,0,1s0,.61,0,.92a.92.92,0,0,1-1,1.07,1.82,1.82,0,0,1-.52,0l-.3-.12-.22-.11a.54.54,0,0,0-.27-.06,5.62,5.62,0,0,0,.27-.85,3.35,3.35,0,0,0,.12-.89c0-1,0-1.84,0-2.47s0-1.16-.07-1.55a6.32,6.32,0,0,0-.13-.91,4.2,4.2,0,0,0-.21-.6l.16-.06.32-.11a3.43,3.43,0,0,1,.44-.12,2.14,2.14,0,0,1,.52,0,.91.91,0,0,1,.65.21.75.75,0,0,1,.22.58,3.52,3.52,0,0,1,0,.49,3.61,3.61,0,0,0-.05.52,2.79,2.79,0,0,0,.22-.43A3.82,3.82,0,0,1,51,42a2.11,2.11,0,0,1,.39-.49.73.73,0,0,1,.54-.22,1.49,1.49,0,0,1,.36.05,1.87,1.87,0,0,0,.32,0A1,1,0,0,0,53,41.3a.5.5,0,0,0,.26-.23.91.91,0,0,0,.12.17,2.3,2.3,0,0,1,.22.31,2,2,0,0,1,.22.44,1.32,1.32,0,0,1,.1.53.65.65,0,0,1-.22.53,1,1,0,0,1-.62.18l-.26,0-.32-.09L52.17,43l-.24,0"/><path class="cls-6" d="M57.2,39.8a1,1,0,0,1-.09.41,1.15,1.15,0,0,1-.25.37,1.36,1.36,0,0,1-.39.27A1,1,0,0,1,56,41a1.43,1.43,0,0,1-.39-.06,1.33,1.33,0,0,1-.42-.19,1.15,1.15,0,0,1-.33-.33.89.89,0,0,1-.13-.47,1.13,1.13,0,0,1,.08-.39,1.31,1.31,0,0,1,.24-.37,1.62,1.62,0,0,1,.39-.28,1.3,1.3,0,0,1,.54-.1,2,2,0,0,1,.39,0,1.5,1.5,0,0,1,.41.18,1,1,0,0,1,.32.32.82.82,0,0,1,.13.48m-.31,5.9c0,.39,0,.74,0,1s0,.59.06.85a4.53,4.53,0,0,0,.11.69,3.07,3.07,0,0,0,.19.56.57.57,0,0,0-.24.06l-.28.11a1.89,1.89,0,0,1-.38.11,1.77,1.77,0,0,1-.48,0,.91.91,0,0,1-.47-.11.93.93,0,0,1-.3-.29,1.2,1.2,0,0,1-.15-.37,1.59,1.59,0,0,1,0-.36q0-.82,0-1.53c0-.47,0-1,0-1.42s0-1.06,0-1.44-.05-.69-.08-.94a4,4,0,0,0-.15-.64c-.07-.17-.14-.34-.22-.5a.52.52,0,0,0,.22-.06L55,41.4a2.13,2.13,0,0,1,.44-.12,2.8,2.8,0,0,1,.63-.06.77.77,0,0,1,.47.13.92.92,0,0,1,.29.3A1.12,1.12,0,0,1,57,42a1.59,1.59,0,0,1,0,.36c0,.21,0,.44,0,.71s0,.54-.06.83,0,.59-.05.89,0,.6,0,.87"/><path class="cls-6" d="M30.05,53v-.24a.46.46,0,0,0-.21-.39.82.82,0,0,0-.52-.14.84.84,0,0,0-.52.14.47.47,0,0,0-.2.39v1.65a.45.45,0,0,0,.2.39.84.84,0,0,0,.52.15.82.82,0,0,0,.52-.15.44.44,0,0,0,.21-.39V54.2h.61v.19a.93.93,0,0,1-.37.77,1.75,1.75,0,0,1-1.93,0,.94.94,0,0,1-.38-.77V52.82a.92.92,0,0,1,.38-.76,1.7,1.7,0,0,1,1.93,0,.91.91,0,0,1,.37.76V53Z"/><path class="cls-6" d="M33.41,54.43V52.78a.47.47,0,0,0-.2-.39.94.94,0,0,0-.52-.14,1,1,0,0,0-.53.14.47.47,0,0,0-.2.39v1.65a.46.46,0,0,0,.2.39.88.88,0,0,0,.53.15.86.86,0,0,0,.52-.15.46.46,0,0,0,.2-.39m.62,0a.93.93,0,0,1-.38.77,1.7,1.7,0,0,1-1.93,0,.92.92,0,0,1-.37-.77V52.82a.94.94,0,0,1,.37-.77,1.75,1.75,0,0,1,1.93,0,1,1,0,0,1,.38.77Z"/><path class="cls-6" d="M36,51.76a1.4,1.4,0,0,1,.91.29.93.93,0,0,1,.35.75v.13h-.62v-.16a.48.48,0,0,0-.18-.38.78.78,0,0,0-.48-.14.73.73,0,0,0-.45.13.38.38,0,0,0-.17.34.46.46,0,0,0,.33.44l1,.39a1.1,1.1,0,0,1,.47.37.88.88,0,0,1,.17.55.86.86,0,0,1-.36.71,1.69,1.69,0,0,1-1.88,0,.89.89,0,0,1-.37-.75v-.14h.62v.17a.46.46,0,0,0,.2.38A.89.89,0,0,0,36,55a.85.85,0,0,0,.49-.13.39.39,0,0,0,.19-.34.47.47,0,0,0-.35-.44l-1-.4a1,1,0,0,1-.46-.36.93.93,0,0,1-.16-.54A.85.85,0,0,1,35.1,52a1.32,1.32,0,0,1,.89-.28"/><path class="cls-6" d="M40,55.4V52.71a.41.41,0,0,0-.18-.34.85.85,0,0,0-.48-.12.82.82,0,0,0-.48.13.39.39,0,0,0-.2.34V55.4H38V51.81h.62v.3a1.31,1.31,0,0,1,.91-.35,1,1,0,0,1,.94.47,1.32,1.32,0,0,1,1-.47,1.18,1.18,0,0,1,.76.25.9.9,0,0,1,.29.7V55.4H42V52.71a.39.39,0,0,0-.19-.34.84.84,0,0,0-.47-.12.8.8,0,0,0-.48.13.39.39,0,0,0-.2.34V55.4Z"/><path class="cls-6" d="M44.72,52.25a1,1,0,0,0-.53.14.47.47,0,0,0-.2.39v.56h1.45v-.56a.47.47,0,0,0-.2-.39.94.94,0,0,0-.52-.14m-1.34,2.14V52.82a.94.94,0,0,1,.37-.77,1.75,1.75,0,0,1,1.93,0,1,1,0,0,1,.38.77v1H44v.6a.46.46,0,0,0,.2.39.88.88,0,0,0,.53.15.86.86,0,0,0,.52-.15.46.46,0,0,0,.2-.39v-.15h.62v.11a.93.93,0,0,1-.38.77,1.7,1.7,0,0,1-1.93,0,.92.92,0,0,1-.37-.77"/><path class="cls-6" d="M48.54,54.91v.49h-.31a1.3,1.3,0,0,1-.81-.24.81.81,0,0,1-.31-.64V52.3h-.73v-.49h.73v-.76h.62v.76h.81v.49h-.81v2.22a.36.36,0,0,0,.14.29.59.59,0,0,0,.36.1Z"/><path class="cls-6" d="M49.24,51.82h.62V55.4h-.62Zm0-1.18h.62v.65h-.62Z"/><path class="cls-6" d="M52.72,53v-.24a.47.47,0,0,0-.2-.39.86.86,0,0,0-.52-.14.87.87,0,0,0-.53.14.47.47,0,0,0-.2.39v1.65a.45.45,0,0,0,.2.39A.88.88,0,0,0,52,55a.86.86,0,0,0,.52-.15.45.45,0,0,0,.2-.39V54.2h.62v.19a.94.94,0,0,1-.38.77,1.48,1.48,0,0,1-1,.29,1.51,1.51,0,0,1-1-.29.93.93,0,0,1-.37-.77V52.82a.91.91,0,0,1,.37-.76,1.52,1.52,0,0,1,1-.3,1.49,1.49,0,0,1,1,.3.92.92,0,0,1,.38.76V53Z"/><path class="cls-6" d="M55.24,51.76a1.4,1.4,0,0,1,.91.29.92.92,0,0,1,.34.75v.13h-.61v-.16a.48.48,0,0,0-.18-.38.78.78,0,0,0-.48-.14.73.73,0,0,0-.45.13.38.38,0,0,0-.17.34.45.45,0,0,0,.33.44l1,.39a1.16,1.16,0,0,1,.47.37.88.88,0,0,1,.17.55.86.86,0,0,1-.36.71,1.69,1.69,0,0,1-1.88,0,.89.89,0,0,1-.37-.75v-.14h.62v.17a.46.46,0,0,0,.2.38.89.89,0,0,0,.52.14.85.85,0,0,0,.49-.13A.42.42,0,0,0,56,54.5a.47.47,0,0,0-.35-.44l-1-.4a1,1,0,0,1-.46-.36.93.93,0,0,1-.16-.54.86.86,0,0,1,.34-.72,1.36,1.36,0,0,1,.9-.28"/></g></g></g></svg>