<svg xmlns="http://www.w3.org/2000/svg" viewBox="0 0 83.88 131.45"><defs><style>.cls-1{fill:#d13f45;}.cls-2{fill:#f38585;}.cls-3{fill:#e64e54;}.cls-4{fill:#fff;}.cls-5{fill:none;stroke:#bf5243;stroke-miterlimit:10;stroke-width:0.36px;}.cls-6{fill:#e9f2f4;}.cls-7{fill:#cfdfe2;}.cls-8{fill:#bf5243;}.cls-9{fill:#ad3a2d;}.cls-10{fill:#fc8059;}.cls-11{fill:#ff997d;}.cls-12{fill:#fed766;}.cls-13{fill:#ffde8a;}.cls-14{fill:#ff242f;}</style></defs><g id="Слой_2" data-name="Слой 2"><g id="Layer_1" data-name="Layer 1"><path class="cls-1" d="M79.79,63.35C94.38,28.65,67.15-.65,42,0,24.65.47,8.55,7.85,1.17,34.79c-3.14,11.45.43,24.53,6,35h0L42,131.45l34.9-61.62h0C78.19,67.15,78.69,66,79.79,63.35Z"/><path class="cls-2" d="M42.14,0V131.22L76.91,69.83h0c1.3-2.68,1.8-3.88,2.9-6.48C94.35,28.71,67.24-.54,42.14,0Z"/><path class="cls-3" d="M83.37,41.37a41.36,41.36,0,0,0-82.72,0c0,8.18,2.92,15.27,6.48,22.22h0L42,125.21l34.9-61.62h0C80.77,55.82,83.37,49.55,83.37,41.37Z"/><circle class="cls-4" cx="42.01" cy="41.37" r="29.12"/><circle class="cls-1" cx="42.01" cy="39.69" r="30.33"/><circle class="cls-4" cx="42.01" cy="41.22" r="29.12"/><circle class="cls-5" cx="42.01" cy="41.22" r="28.01"/><path class="cls-6" d="M58.7,30.26a9.19,9.19,0,1,1-9.19-9.19A9.18,9.18,0,0,1,58.7,30.26Z"/><path class="cls-7" d="M54.76,30.26A5.25,5.25,0,1,1,49.51,25,5.25,5.25,0,0,1,54.76,30.26Z"/><path class="cls-8" d="M39.66,45.36H36.13a1.3,1.3,0,0,1-1.28-1L32.44,32.89H41V44.05A1.31,1.31,0,0,1,39.66,45.36Z"/><path class="cls-9" d="M39.66,45.36h-.25a1.31,1.31,0,0,1-1.28-1L35.72,32.89H41V44.05A1.31,1.31,0,0,1,39.66,45.36Z"/><path class="cls-10" d="M37,34.2h-4.6a3.93,3.93,0,0,1-3.94-3.94h0a3.94,3.94,0,0,1,3.94-3.94H37Z"/><path class="cls-11" d="M37,30.92H32.77a2.3,2.3,0,0,1-2.3-2.3h0a2.3,2.3,0,0,1,2.3-2.3H37Z"/><path class="cls-12" d="M48.2,21.37V39.13H46.88v0l-9.35-3a2.63,2.63,0,0,1-1.81-2.5V26.92a2.62,2.62,0,0,1,1.81-2.5l9.35-3.05Z"/><path class="cls-13" d="M48.2,21.37v12.5H46.88v0L40.3,31.75A1.83,1.83,0,0,1,39,30V25.28a1.85,1.85,0,0,1,1.28-1.76l6.58-2.15Z"/><path class="cls-10" d="M46.88,40.11V20.41a2,2,0,0,1,2-2h0a2,2,0,0,1,2,2v19.7a2,2,0,0,1-2,2h0A2,2,0,0,1,46.88,40.11Z"/><path class="cls-8" d="M48.85,42.08a2,2,0,0,1-2-2V20.41a2,2,0,0,1,2-2Z"/><path class="cls-14" d="M33.22,60.23c0,.78-.5,1.19-1.4,1.21-.53,0-.72-.5-.77-.83l-.59-4.83-2.12,0-.14.91a33.08,33.08,0,0,1-.71,4.11,4.5,4.5,0,0,1-1.41.57c-.4,0-.71-.21-.71-.9a1.93,1.93,0,0,1,.07-.57L26,56.63c.54-3.28,1.07-6.68,1.76-10l.07-.31c.19-1,.47-2.29,2-2.29,1.26,0,1.47,1.5,1.59,2.55.41,3,.81,5.9,1.21,9l.58,4.31A2.3,2.3,0,0,1,33.22,60.23Zm-4.07-9.64-.48,3.19,1.58,0-.65-6.28C29.48,48.09,29.27,49.81,29.15,50.59Z"/><path class="cls-14" d="M36.12,47.24a13.38,13.38,0,0,1,0,2c0,.85-.07,2.18-.09,2.9.43-1.5.9-2.86,1.21-3.86.15-.45.5-1.26.79-1.38a1.9,1.9,0,0,1,.57-.09c.66,0,.83.31.83.93a3.81,3.81,0,0,1-.21,1.07c-.19.43-.53,1.23-.91,2.14L37.1,53.87c.73,1.67,1.33,2.84,2,4.19l.69,1.48a3.56,3.56,0,0,1,.38,1.33c0,.66-.55.78-1.09.78s-.88-.69-1.17-1.31c-.59-1.47-1-2.3-1.26-3L36,55.54c0,1.36-.09,3.83-.09,4.64,0,1.26-.36,1.33-1,1.33-.81,0-1-.4-1-1.19.09-3.28.21-9.35.21-11.46v-.22c0-.43,0-1.24.15-1.45a1,1,0,0,1,.83-.43C35.64,46.76,35.91,46.81,36.12,47.24Z"/><path class="cls-14" d="M43.8,61.8a13.27,13.27,0,0,1-2.54-.17c-.5-.24-.6-.52-.6-1.38,0-2.81.05-6.09.05-8.45,0-1.3,0-2.33,0-2.8V47.71a1,1,0,0,1,1-.88c.9,0,1,.45,1,1.05v.38c0,.14,0,.29,0,.43,0,1.5-.07,10.47-.07,11.2l1.83,0c0-2.74,0-6,0-8.16,0-1.29,0-2.29,0-2.76V47.71a1.18,1.18,0,0,1,1.14-.88c.9,0,.9.41.9,1v.4c0,.14,0,.29,0,.43l0,11.18c1.24.07,1.45.28,1.45,1.59,0,.53,0,1.14,0,1.14,0,.53-.62.62-.86.62-.43,0-.86-.19-.86-.64v-.76l-1.8,0Z"/><path class="cls-14" d="M49.3,46.88a25.46,25.46,0,0,1,3.47.14,1.14,1.14,0,0,1,.45.79c0,.16-.33.9-.61.9-.08,0-.22,0-.46,0l-.28,0V51c0,1.93,0,3.88,0,5.45l0,2.62v.54h.62c.38.15.64.31.71.67v.09c0,1-.31,1.12-1.12,1.12-.64,0-1.66,0-2.33,0-.21,0-.54,0-.57,0-.31,0-.66-.81-.66-1a1.18,1.18,0,0,1,.47-.74,2.38,2.38,0,0,1,.86-.1V48.78a4.3,4.3,0,0,1-.69,0c-.45-.08-.55-.53-.55-1l0-.09A1,1,0,0,1,49.3,46.88Z"/><path class="cls-14" d="M54.51,46.88A25.46,25.46,0,0,1,58,47a1.14,1.14,0,0,1,.45.79c0,.16-.33.9-.62.9-.07,0-.21,0-.45,0l-.28,0V51c0,1.93,0,3.88,0,5.45L57,59v.54h.62c.38.15.64.31.71.67v.09c0,1-.31,1.12-1.12,1.12-.64,0-1.66,0-2.33,0-.21,0-.54,0-.57,0-.31,0-.67-.81-.67-1s.29-.57.48-.74a2.38,2.38,0,0,1,.86-.1V48.78a4.3,4.3,0,0,1-.69,0c-.45-.08-.55-.53-.55-1l0-.09A1.07,1.07,0,0,1,54.51,46.88Zm.81-3.9c.78,0,.9.55.9,1.24a1,1,0,0,1-1.12,1.14c-.64,0-1.07-.69-1.07-1.33S54.67,43,55.32,43Zm2.52,0c.78,0,.9.55.9,1.24a1,1,0,0,1-1.12,1.14c-.64,0-1.07-.69-1.07-1.33S57.2,43,57.84,43Z"/></g></g></svg>