<svg xmlns="http://www.w3.org/2000/svg" viewBox="0 0 83.88 131.45"><defs><style>.cls-1{fill:#14387f;}.cls-2{fill:#58a1f9;}.cls-3{fill:#276ee0;}.cls-4{fill:#fff;}.cls-5{fill:#fc0;}.cls-6{fill:none;stroke:#276ee0;stroke-miterlimit:10;stroke-width:0.36px;}</style></defs><g id="Слой_2" data-name="Слой 2"><g id="Layer_1" data-name="Layer 1"><path class="cls-1" d="M79.79,63.35C94.38,28.65,67.15-.65,42,0,24.65.47,8.55,7.85,1.17,34.79c-3.14,11.45.43,24.53,6,35h0L42,131.45l34.9-61.62h0C78.19,67.15,78.69,66,79.79,63.35Z"/><path class="cls-2" d="M42.14,0V131.22L76.91,69.83h0c1.3-2.68,1.8-3.88,2.9-6.48C94.35,28.71,67.24-.54,42.14,0Z"/><path class="cls-3" d="M83.37,41.37a41.36,41.36,0,0,0-82.72,0c0,8.18,2.92,15.27,6.48,22.22h0L42,125.21l34.9-61.62h0C80.77,55.82,83.37,49.55,83.37,41.37Z"/><circle class="cls-4" cx="42.01" cy="41.37" r="29.12"/><circle class="cls-1" cx="42.01" cy="39.69" r="30.33"/><circle class="cls-4" cx="42.01" cy="41.22" r="29.12"/><polygon class="cls-1" points="40.25 41.32 38.74 41.32 38.74 39.5 40.03 39.5 40.03 37.92 38.74 37.92 38.74 36.35 40.11 36.35 40.11 34.69 36.7 34.69 36.7 42.99 40.25 42.99 40.25 41.32"/><polygon class="cls-1" points="24.76 36.34 25.39 36.34 25.39 42.99 27.43 42.99 27.43 34.68 22.72 34.68 22.72 42.99 24.76 42.99 24.76 36.34"/><polygon class="cls-1" points="22.04 41.33 20.52 41.33 20.52 39.5 21.82 39.5 21.82 37.92 20.52 37.92 20.52 36.34 21.91 36.34 21.91 34.68 18.46 34.68 18.46 42.99 22.04 42.99 22.04 41.33"/><polygon class="cls-1" points="42.97 39.51 43.6 39.51 43.6 43 45.64 43 45.64 34.69 43.6 34.69 43.6 37.67 42.97 37.67 42.97 34.69 40.93 34.69 40.93 43 42.97 43 42.97 39.51"/><polygon class="cls-1" points="47.52 42.99 49.57 42.99 49.57 36.35 50.79 36.35 50.79 34.69 46.32 34.69 46.32 36.35 47.52 36.35 47.52 42.99"/><rect class="cls-1" x="28.11" y="34.68" width="2.04" height="8.3"/><polygon class="cls-1" points="36.02 41.32 35.59 41.32 35.59 34.69 33.53 34.69 33.53 41.32 32.89 41.32 32.89 34.69 30.83 34.69 30.83 42.97 34.6 42.97 34.6 43.79 36.02 43.79 36.02 41.32"/><path class="cls-1" d="M55.8,35.86a1.42,1.42,0,0,0-.31-.64,1.5,1.5,0,0,0-.67-.4,4.82,4.82,0,0,0-1.29-.13H51.47V43h2V39.64h.55a2.6,2.6,0,0,0,1.09-.19,1.08,1.08,0,0,0,.57-.56,3.22,3.22,0,0,0,.16-1.16V37a6.2,6.2,0,0,0-.08-1.15m-2.09,2.21A1.08,1.08,0,1,1,54.79,37a1.08,1.08,0,0,1-1.08,1.08"/><path class="cls-1" d="M53.71,36.17a.82.82,0,1,0,.82.82.82.82,0,0,0-.82-.82m.15,1.35-.23-.44v.44h-.35V36.45h.35v.46l.22-.46h.39L54,37l.33.54Z"/><path class="cls-5" d="M57.16,42.36a.65.65,0,0,1-.2.47.69.69,0,0,1-.48.19.75.75,0,0,1-.26-.05.77.77,0,0,1-.21-.14.62.62,0,0,1-.15-.21.59.59,0,0,1,0-.52.62.62,0,0,1,.15-.21.6.6,0,0,1,.21-.14.75.75,0,0,1,.26,0,.62.62,0,0,1,.48.19.63.63,0,0,1,.2.47"/><path class="cls-1" d="M32.94,47.94a.29.29,0,0,1-.21-.11l-1-.88v.8a.17.17,0,0,1-.18.19.17.17,0,0,1-.19-.19V45.87a.18.18,0,0,1,.19-.2.18.18,0,0,1,.18.2v.68l.88-.77a.39.39,0,0,1,.21-.11.15.15,0,0,1,.15.17s0,.09-.09.15l-.86.75,1,.87a.27.27,0,0,1,.08.19.15.15,0,0,1-.15.14"/><path class="cls-1" d="M33.36,46a.44.44,0,0,1,0-.2.16.16,0,0,1,.16-.16.2.2,0,0,1,.19.14l.51,1.52h0l.5-1.52a.17.17,0,0,1,.17-.14.17.17,0,0,1,.17.16A.66.66,0,0,1,35,46L34,48.68a.19.19,0,0,1-.18.14.16.16,0,0,1-.16-.16.44.44,0,0,1,0-.2l.23-.62Z"/><path class="cls-1" d="M37,47.94a.17.17,0,0,1-.18-.19V46h-1v1.74a.18.18,0,1,1-.36,0V45.89a.17.17,0,0,1,.18-.19H37a.17.17,0,0,1,.19.19v1.86a.17.17,0,0,1-.19.19"/><path class="cls-1" d="M37.66,46a.66.66,0,0,1,0-.2.17.17,0,0,1,.17-.16.2.2,0,0,1,.19.14l.5,1.52h0l.5-1.52a.19.19,0,0,1,.18-.14.17.17,0,0,1,.17.16.66.66,0,0,1,0,.2l-.93,2.65a.19.19,0,0,1-.18.14.17.17,0,0,1-.17-.16.53.53,0,0,1,.06-.2l.23-.62Z"/><path class="cls-1" d="M41.32,47.94a.17.17,0,0,1-.18-.19V46.36h0l-1,1.46c0,.07-.07.12-.18.12a.17.17,0,0,1-.19-.19V45.87a.19.19,0,0,1,.19-.2.18.18,0,0,1,.18.2v1.38h0l1-1.46c0-.06.07-.12.18-.12a.19.19,0,0,1,.19.2v1.88a.18.18,0,0,1-.19.19m-1.12-3c.13,0,.2.24.44.24s.3-.24.43-.24a.14.14,0,0,1,.13.15c0,.25-.33.41-.56.41s-.57-.16-.57-.41a.14.14,0,0,1,.13-.15"/><path class="cls-1" d="M45.31,46.81a1.08,1.08,0,1,1-2.15,0,1.08,1.08,0,1,1,2.15,0m-1.55,0c0,.29.15.61.48.61s.47-.32.47-.61-.14-.61-.47-.61-.48.32-.48.61"/><path class="cls-1" d="M45.67,46a.31.31,0,0,1,.3-.34.25.25,0,0,1,.28.22.64.64,0,0,1,.58-.24.77.77,0,0,1,.82.81v1.15a.3.3,0,0,1-.3.33.3.3,0,0,1-.3-.33v-1a.37.37,0,0,0-.39-.41.38.38,0,0,0-.39.41v1a.3.3,0,0,1-.3.33.3.3,0,0,1-.3-.33V46Z"/><path class="cls-1" d="M48.09,45a.31.31,0,0,1,.3-.34.31.31,0,0,1,.3.34v2.57a.3.3,0,0,1-.3.33.3.3,0,0,1-.3-.33Z"/><path class="cls-1" d="M49.76,45.1a.35.35,0,0,1-.34.35.36.36,0,0,1-.34-.35.35.35,0,0,1,.34-.33.34.34,0,0,1,.34.33m-.64.91a.3.3,0,1,1,.6,0v1.6a.3.3,0,1,1-.6,0Z"/><path class="cls-1" d="M50.16,46a.31.31,0,0,1,.3-.34.26.26,0,0,1,.28.22.64.64,0,0,1,.58-.24.77.77,0,0,1,.82.81v1.15a.3.3,0,0,1-.3.33.3.3,0,0,1-.3-.33v-1a.39.39,0,1,0-.78,0v1a.3.3,0,0,1-.3.33.3.3,0,0,1-.3-.33V46Z"/><path class="cls-1" d="M53.07,47a.52.52,0,0,0,.57.43c.31,0,.52-.24.68-.24a.26.26,0,0,1,.24.26c0,.26-.53.51-1,.51a1.1,1.1,0,0,1-1.12-1.16,1.08,1.08,0,1,1,2.15-.07c0,.18-.08.27-.26.27Zm.94-.4a.48.48,0,0,0-.95,0Z"/><path class="cls-1" d="M55.13,47.64a.32.32,0,0,1,.33-.32.32.32,0,0,1,.32.32.32.32,0,0,1-.32.33.33.33,0,0,1-.33-.33m0-2.46a.27.27,0,0,1,.3-.28.28.28,0,0,1,.3.28v1.61a.28.28,0,0,1-.3.28.28.28,0,0,1-.3-.28Z"/><path class="cls-5" d="M64.22,41.39c0,.31.35.41.69.41a.77.77,0,0,0,.87-.86v-.18C65.09,40.76,64.22,40.68,64.22,41.39Z"/><path class="cls-5" d="M62.91,34.32a5.31,5.31,0,1,0,5.31,5.31A5.31,5.31,0,0,0,62.91,34.32Zm-.3,7.75a.58.58,0,0,1-.58.64.48.48,0,0,1-.52-.42,1.26,1.26,0,0,1-1.11.47,1.47,1.47,0,0,1-1.57-1.55V39A.58.58,0,1,1,60,39v2a.74.74,0,1,0,1.48,0V39a.58.58,0,1,1,1.15,0v3.06Zm3.71.64a.49.49,0,0,1-.54-.42,1.35,1.35,0,0,1-1.08.47c-.92,0-1.58-.47-1.58-1.37,0-1.33,1.55-1.5,2.61-1.5v-.31c0-.22-.18-.3-.5-.3-.67,0-.79.39-1.09.39a.46.46,0,0,1-.5-.49c0-.46.91-.86,1.59-.86,1.06,0,1.65.46,1.65,1.29V42.1A.57.57,0,0,1,66.32,42.71Z"/><path class="cls-1" d="M62.61,42.07a.58.58,0,0,1-.58.64.48.48,0,0,1-.52-.42,1.26,1.26,0,0,1-1.11.47,1.47,1.47,0,0,1-1.57-1.55V39A.58.58,0,1,1,60,39v2a.74.74,0,1,0,1.48,0V39a.58.58,0,1,1,1.15,0v3.06Z"/><path class="cls-1" d="M65.23,38.32c-.68,0-1.59.4-1.59.86a.46.46,0,0,0,.5.49c.3,0,.42-.39,1.09-.39.32,0,.5.08.5.3v.31c-1.06,0-2.61.17-2.61,1.5,0,.9.66,1.37,1.58,1.37a1.35,1.35,0,0,0,1.08-.47.49.49,0,0,0,.54.42.57.57,0,0,0,.56-.61V39.61C66.88,38.78,66.29,38.32,65.23,38.32Zm.55,2.62a.77.77,0,0,1-.87.86c-.34,0-.69-.1-.69-.41,0-.71.87-.63,1.56-.63Z"/><circle class="cls-6" cx="42.01" cy="41.22" r="28.01"/></g></g></svg>