<svg xmlns="http://www.w3.org/2000/svg" viewBox="0 0 83.88 131.45"><defs><style>.cls-1{isolation:isolate;}.cls-2{fill:#3a6793;}.cls-3{fill:#5aa0e5;}.cls-4{fill:#4b80c1;}.cls-5{fill:#fff;}.cls-6,.cls-7{fill:none;}.cls-6{stroke:#1e377c;stroke-miterlimit:10;stroke-width:0.24px;}.cls-7{stroke:#4b80c1;stroke-linecap:round;stroke-linejoin:round;stroke-width:1.51px;}.cls-8{fill:#ee236b;mix-blend-mode:multiply;}</style></defs><g class="cls-1"><g id="Слой_2" data-name="Слой 2"><g id="Layer_1" data-name="Layer 1"><path class="cls-2" d="M79.79,63.35C94.38,28.65,67.15-.65,42,0,24.65.47,8.55,7.85,1.17,34.79c-3.14,11.45.43,24.53,6,35h0L42,131.45l34.9-61.62h0C78.19,67.15,78.69,66,79.79,63.35Z"/><path class="cls-3" d="M42.14,0V131.22L76.91,69.83h0c1.3-2.68,1.8-3.88,2.9-6.48C94.35,28.71,67.24-.54,42.14,0Z"/><path class="cls-4" d="M83.37,41.37a41.36,41.36,0,0,0-82.72,0c0,8.18,2.92,15.27,6.48,22.22h0L42,125.21l34.9-61.62h0C80.77,55.82,83.37,49.55,83.37,41.37Z"/><circle class="cls-5" cx="42.01" cy="41.37" r="29.12"/><circle class="cls-2" cx="42.01" cy="39.69" r="30.33"/><circle class="cls-5" cx="42.01" cy="41.22" r="29.12"/><circle class="cls-6" cx="42.01" cy="41.22" r="28.01"/><path d="M30.71,28.6a4.3,4.3,0,0,1-2.58.78,3.66,3.66,0,0,1-2.55-.8,2.93,2.93,0,0,1-.87-2.26V24.15a2.9,2.9,0,0,1,.89-2.25,3.64,3.64,0,0,1,2.53-.81,4.56,4.56,0,0,1,1.31.18,4.14,4.14,0,0,1,1.08.5.18.18,0,0,1,.06.3l-.86,1.33a.21.21,0,0,1-.31.07,2.22,2.22,0,0,0-.57-.24,2.65,2.65,0,0,0-.63-.07,1.3,1.3,0,0,0-.94.31,1.07,1.07,0,0,0-.32.8v1.91a1.08,1.08,0,0,0,.32.85,1.3,1.3,0,0,0,.89.28,2.48,2.48,0,0,0,.73-.1,2.44,2.44,0,0,0,.64-.28.19.19,0,0,1,.3.06l.87,1.34C30.79,28.45,30.8,28.54,30.71,28.6Z"/><path d="M34.85,29.24a.26.26,0,0,1-.26-.16l-.87-1.71-.28.37V29c0,.15-.07.23-.22.23H31.63c-.15,0-.22-.08-.22-.23V23.63c0-.15.07-.23.22-.23h1.59c.15,0,.22.08.22.23v1.84l1-1.91a.27.27,0,0,1,.26-.16h1.78a.19.19,0,0,1,.18.08.16.16,0,0,1,0,.19L35.06,26l1.8,3c0,.08.06.15,0,.19a.18.18,0,0,1-.17.08Z"/><path d="M37.32,23.84a3.53,3.53,0,0,1,1-.42,4.85,4.85,0,0,1,1.37-.17c1.7,0,2.55.89,2.55,2.69v2.91a.22.22,0,0,1-.19.24,7,7,0,0,1-1.18.23q-.65.06-1.17.06a3.42,3.42,0,0,1-2.08-.51A1.69,1.69,0,0,1,37,27.42a1.45,1.45,0,0,1,.62-1.27,3.12,3.12,0,0,1,1.81-.43h.44l.35,0v0a1.36,1.36,0,0,0,0-.29.55.55,0,0,0-.12-.24.66.66,0,0,0-.23-.15,1.12,1.12,0,0,0-.4-.06,4.13,4.13,0,0,0-.68.07,2.19,2.19,0,0,0-.58.19c-.15.07-.25.05-.31-.08l-.51-1.08Q37.2,23.9,37.32,23.84Zm1.74,3.5c0,.3.22.46.64.46l.26,0a.69.69,0,0,0,.22,0V27a2.12,2.12,0,0,0-.49-.06C39.27,26.93,39.06,27.07,39.06,27.34Z"/><path d="M43.5,29.24c-.15,0-.22-.08-.22-.23V23.63c0-.15.07-.23.22-.23h1.62a.21.21,0,0,1,.23.23v1.76h1V23.63c0-.15.07-.23.22-.23h1.62c.15,0,.22.08.22.23V29c0,.15-.07.23-.22.23H46.6c-.15,0-.22-.08-.22-.23v-1.8h-1V29a.21.21,0,0,1-.23.23Z"/><path d="M54.64,26.71c0,.15-.08.22-.23.22h-3V27c0,.48.25.72.76.72a3,3,0,0,0,.66-.08,2.34,2.34,0,0,0,.62-.24.21.21,0,0,1,.3.06l.67.92a.21.21,0,0,1,0,.31,3.12,3.12,0,0,1-1,.51,4,4,0,0,1-1.33.19A3.92,3.92,0,0,1,51,29.23a2.38,2.38,0,0,1-.86-.47,2,2,0,0,1-.57-.76,2.55,2.55,0,0,1-.21-1.07V25.68a2.75,2.75,0,0,1,.2-1.09,2.06,2.06,0,0,1,.56-.76,2.54,2.54,0,0,1,.85-.44,3.74,3.74,0,0,1,1.09-.14,3.44,3.44,0,0,1,1,.14,2.11,2.11,0,0,1,.81.43,2,2,0,0,1,.52.76,2.78,2.78,0,0,1,.19,1.1Zm-2.59-1.82c-.4,0-.6.22-.6.67v.18h1.21v-.18C52.66,25.11,52.46,24.89,52.05,24.89Z"/><path d="M55.68,23.67a7.56,7.56,0,0,1,2.47-.42,3,3,0,0,1,1.11.19,2.52,2.52,0,0,1,.86.54,2.46,2.46,0,0,1,.55.82,2.76,2.76,0,0,1,.19,1.05v1a3.23,3.23,0,0,1-.16,1.06,2.25,2.25,0,0,1-.49.79,2.06,2.06,0,0,1-.75.5,2.55,2.55,0,0,1-1,.18,2.74,2.74,0,0,1-.48,0,1.93,1.93,0,0,1-.41-.09v1.88c0,.15-.08.22-.23.22H55.74a.19.19,0,0,1-.22-.22V23.92A.25.25,0,0,1,55.68,23.67Zm2.44,3.95c.43,0,.64-.24.64-.72V25.79c0-.48-.21-.72-.65-.72a1.5,1.5,0,0,0-.52.09v2.37A1.51,1.51,0,0,0,58.12,27.62Z"/><rect class="cls-5" x="30.82" y="36.68" width="22.2" height="22.04" rx="1.23"/><rect class="cls-5" x="31.88" y="37.14" width="20.09" height="21.1" rx="1.15"/><rect class="cls-5" x="32.62" y="38.39" width="18.57" height="18.57"/><rect x="39.15" y="39.39" width="0.5" height="0.5"/><rect x="40.65" y="39.39" width="0.5" height="0.5"/><rect x="42.66" y="39.39" width="0.5" height="0.5"/><rect x="44.16" y="39.39" width="0.5" height="0.5"/><rect x="44.67" y="39.39" width="0.5" height="0.5"/><rect x="45.67" y="39.39" width="0.5" height="0.5"/><rect x="37.64" y="39.9" width="0.5" height="0.5"/><rect x="38.64" y="39.9" width="0.5" height="0.5"/><rect x="41.15" y="39.9" width="0.5" height="0.5"/><rect x="41.65" y="39.9" width="0.5" height="0.5"/><rect x="42.16" y="39.9" width="0.5" height="0.5"/><rect x="42.66" y="39.9" width="0.5" height="0.5"/><rect x="43.16" y="39.9" width="0.5" height="0.5"/><rect x="44.67" y="39.9" width="0.5" height="0.5"/><rect x="37.64" y="40.4" width="0.5" height="0.5"/><rect x="38.14" y="40.4" width="0.5" height="0.5"/><rect x="39.15" y="40.4" width="0.5" height="0.5"/><rect x="39.65" y="40.4" width="0.5" height="0.5"/><rect x="40.15" y="40.4" width="0.5" height="0.5"/><rect x="40.65" y="40.4" width="0.5" height="0.5"/><rect x="42.16" y="40.4" width="0.5" height="0.5"/><rect x="42.66" y="40.4" width="0.5" height="0.5"/><rect x="43.16" y="40.4" width="0.5" height="0.5"/><rect x="43.66" y="40.4" width="0.5" height="0.5"/><rect x="44.16" y="40.4" width="0.5" height="0.5"/><rect x="44.67" y="40.4" width="0.5" height="0.5"/><rect x="45.67" y="40.4" width="0.5" height="0.5"/><rect x="37.64" y="40.9" width="0.5" height="0.5"/><rect x="38.64" y="40.9" width="0.5" height="0.5"/><rect x="39.65" y="40.9" width="0.5" height="0.5"/><rect x="40.15" y="40.9" width="0.5" height="0.5"/><rect x="42.16" y="40.9" width="0.5" height="0.5"/><rect x="43.16" y="40.9" width="0.5" height="0.5"/><rect x="44.16" y="40.9" width="0.5" height="0.5"/><rect x="44.67" y="40.9" width="0.5" height="0.5"/><rect x="45.17" y="40.9" width="0.5" height="0.5"/><rect x="37.64" y="41.4" width="0.5" height="0.5"/><rect x="38.64" y="41.4" width="0.5" height="0.5"/><rect x="39.65" y="41.4" width="0.5" height="0.5"/><rect x="41.15" y="41.4" width="0.5" height="0.5"/><rect x="42.16" y="41.4" width="0.5" height="0.5"/><rect x="42.66" y="41.4" width="0.5" height="0.5"/><rect x="43.66" y="41.4" width="0.5" height="0.5"/><rect x="45.17" y="41.4" width="0.5" height="0.5"/><rect x="45.67" y="41.4" width="0.5" height="0.5"/><rect x="37.64" y="41.9" width="0.5" height="0.5"/><rect x="40.65" y="41.9" width="0.5" height="0.5"/><rect x="41.15" y="41.9" width="0.5" height="0.5"/><rect x="43.16" y="41.9" width="0.5" height="0.5"/><rect x="43.66" y="41.9" width="0.5" height="0.5"/><rect x="44.67" y="41.9" width="0.5" height="0.5"/><rect x="37.64" y="42.4" width="0.5" height="0.5"/><rect x="38.64" y="42.4" width="0.5" height="0.5"/><rect x="39.65" y="42.4" width="0.5" height="0.5"/><rect x="40.65" y="42.4" width="0.5" height="0.5"/><rect x="41.65" y="42.4" width="0.5" height="0.5"/><rect x="42.66" y="42.4" width="0.5" height="0.5"/><rect x="43.66" y="42.4" width="0.5" height="0.5"/><rect x="44.67" y="42.4" width="0.5" height="0.5"/><rect x="45.67" y="42.4" width="0.5" height="0.5"/><rect x="38.14" y="42.91" width="0.5" height="0.5"/><rect x="39.15" y="42.91" width="0.5" height="0.5"/><rect x="39.65" y="42.91" width="0.5" height="0.5"/><rect x="40.65" y="42.91" width="0.5" height="0.5"/><rect x="41.65" y="42.91" width="0.5" height="0.5"/><rect x="42.16" y="42.91" width="0.5" height="0.5"/><rect x="43.16" y="42.91" width="0.5" height="0.5"/><rect x="45.17" y="42.91" width="0.5" height="0.5"/><rect x="34.63" y="43.41" width="0.5" height="0.5"/><rect x="36.13" y="43.41" width="0.5" height="0.5"/><rect x="36.64" y="43.41" width="0.5" height="0.5"/><rect x="37.14" y="43.41" width="0.5" height="0.5"/><rect x="37.64" y="43.41" width="0.5" height="0.5"/><rect x="38.14" y="43.41" width="0.5" height="0.5"/><rect x="38.64" y="43.41" width="0.5" height="0.5"/><rect x="39.15" y="43.41" width="0.5" height="0.5"/><rect x="40.15" y="43.41" width="0.5" height="0.5"/><rect x="41.15" y="43.41" width="0.5" height="0.5"/><rect x="41.65" y="43.41" width="0.5" height="0.5"/><rect x="43.16" y="43.41" width="0.5" height="0.5"/><rect x="43.66" y="43.41" width="0.5" height="0.5"/><rect x="45.17" y="43.41" width="0.5" height="0.5"/><rect x="45.67" y="43.41" width="0.5" height="0.5"/><rect x="46.17" y="43.41" width="0.5" height="0.5"/><rect x="47.17" y="43.41" width="0.5" height="0.5"/><rect x="47.68" y="43.41" width="0.5" height="0.5"/><rect x="48.18" y="43.41" width="0.5" height="0.5"/><rect x="48.68" y="43.41" width="0.5" height="0.5"/><rect x="49.18" y="43.41" width="0.5" height="0.5"/><rect x="35.13" y="43.91" width="0.5" height="0.5"/><rect x="37.14" y="43.91" width="0.5" height="0.5"/><rect x="37.64" y="43.91" width="0.5" height="0.5"/><rect x="38.14" y="43.91" width="0.5" height="0.5"/><rect x="39.15" y="43.91" width="0.5" height="0.5"/><rect x="39.65" y="43.91" width="0.5" height="0.5"/><rect x="40.65" y="43.91" width="0.5" height="0.5"/><rect x="41.15" y="43.91" width="0.5" height="0.5"/><rect x="44.16" y="43.91" width="0.5" height="0.5"/><rect x="45.17" y="43.91" width="0.5" height="0.5"/><rect x="45.67" y="43.91" width="0.5" height="0.5"/><rect x="46.17" y="43.91" width="0.5" height="0.5"/><rect x="46.67" y="43.91" width="0.5" height="0.5"/><rect x="47.17" y="43.91" width="0.5" height="0.5"/><rect x="48.18" y="43.91" width="0.5" height="0.5"/><rect x="48.68" y="43.91" width="0.5" height="0.5"/><rect x="49.18" y="43.91" width="0.5" height="0.5"/><rect x="49.68" y="43.91" width="0.5" height="0.5"/><rect x="34.13" y="44.41" width="0.5" height="0.5"/><rect x="34.63" y="44.41" width="0.5" height="0.5"/><rect x="35.13" y="44.41" width="0.5" height="0.5"/><rect x="36.64" y="44.41" width="0.5" height="0.5"/><rect x="38.14" y="44.41" width="0.5" height="0.5"/><rect x="38.64" y="44.41" width="0.5" height="0.5"/><rect x="39.65" y="44.41" width="0.5" height="0.5"/><rect x="41.15" y="44.41" width="0.5" height="0.5"/><rect x="42.16" y="44.41" width="0.5" height="0.5"/><rect x="45.17" y="44.41" width="0.5" height="0.5"/><rect x="45.67" y="44.41" width="0.5" height="0.5"/><rect x="46.17" y="44.41" width="0.5" height="0.5"/><rect x="46.67" y="44.41" width="0.5" height="0.5"/><rect x="47.17" y="44.41" width="0.5" height="0.5"/><rect x="47.68" y="44.41" width="0.5" height="0.5"/><rect x="48.18" y="44.41" width="0.5" height="0.5"/><rect x="49.68" y="44.41" width="0.5" height="0.5"/><rect x="34.63" y="44.91" width="0.5" height="0.5"/><rect x="35.63" y="44.91" width="0.5" height="0.5"/><rect x="36.13" y="44.91" width="0.5" height="0.5"/><rect x="38.14" y="44.91" width="0.5" height="0.5"/><rect x="38.64" y="44.91" width="0.5" height="0.5"/><rect x="40.15" y="44.91" width="0.5" height="0.5"/><rect x="40.65" y="44.91" width="0.5" height="0.5"/><rect x="41.15" y="44.91" width="0.5" height="0.5"/><rect x="41.65" y="44.91" width="0.5" height="0.5"/><rect x="42.66" y="44.91" width="0.5" height="0.5"/><rect x="43.16" y="44.91" width="0.5" height="0.5"/><rect x="44.16" y="44.91" width="0.5" height="0.5"/><rect x="45.17" y="44.91" width="0.5" height="0.5"/><rect x="45.67" y="44.91" width="0.5" height="0.5"/><rect x="46.17" y="44.91" width="0.5" height="0.5"/><rect x="46.67" y="44.91" width="0.5" height="0.5"/><rect x="47.17" y="44.91" width="0.5" height="0.5"/><rect x="48.18" y="44.91" width="0.5" height="0.5"/><rect x="49.18" y="44.91" width="0.5" height="0.5"/><rect x="33.63" y="45.42" width="0.5" height="0.5"/><rect x="34.63" y="45.42" width="0.5" height="0.5"/><rect x="35.13" y="45.42" width="0.5" height="0.5"/><rect x="36.13" y="45.42" width="0.5" height="0.5"/><rect x="36.64" y="45.42" width="0.5" height="0.5"/><rect x="37.14" y="45.42" width="0.5" height="0.5"/><rect x="37.64" y="45.42" width="0.5" height="0.5"/><rect x="39.65" y="45.42" width="0.5" height="0.5"/><rect x="40.15" y="45.42" width="0.5" height="0.5"/><rect x="44.16" y="45.42" width="0.5" height="0.5"/><rect x="46.67" y="45.42" width="0.5" height="0.5"/><rect x="47.17" y="45.42" width="0.5" height="0.5"/><rect x="49.68" y="45.42" width="0.5" height="0.5"/><rect x="34.13" y="45.92" width="0.5" height="0.5"/><rect x="34.63" y="45.92" width="0.5" height="0.5"/><rect x="35.13" y="45.92" width="0.5" height="0.5"/><rect x="35.63" y="45.92" width="0.5" height="0.5"/><rect x="36.13" y="45.92" width="0.5" height="0.5"/><rect x="37.64" y="45.92" width="0.5" height="0.5"/><rect x="38.14" y="45.92" width="0.5" height="0.5"/><rect x="38.64" y="45.92" width="0.5" height="0.5"/><rect x="39.15" y="45.92" width="0.5" height="0.5"/><rect x="39.65" y="45.92" width="0.5" height="0.5"/><rect x="42.16" y="45.92" width="0.5" height="0.5"/><rect x="42.66" y="45.92" width="0.5" height="0.5"/><rect x="44.16" y="45.92" width="0.5" height="0.5"/><rect x="45.17" y="45.92" width="0.5" height="0.5"/><rect x="45.67" y="45.92" width="0.5" height="0.5"/><rect x="46.67" y="45.92" width="0.5" height="0.5"/><rect x="47.17" y="45.92" width="0.5" height="0.5"/><rect x="48.68" y="45.92" width="0.5" height="0.5"/><rect x="49.68" y="45.92" width="0.5" height="0.5"/><rect x="34.13" y="46.42" width="0.5" height="0.5"/><rect x="34.63" y="46.42" width="0.5" height="0.5"/><rect x="36.64" y="46.42" width="0.5" height="0.5"/><rect x="38.64" y="46.42" width="0.5" height="0.5"/><rect x="39.15" y="46.42" width="0.5" height="0.5"/><rect x="39.65" y="46.42" width="0.5" height="0.5"/><rect x="40.15" y="46.42" width="0.5" height="0.5"/><rect x="41.15" y="46.42" width="0.5" height="0.5"/><rect x="42.16" y="46.42" width="0.5" height="0.5"/><rect x="43.16" y="46.42" width="0.5" height="0.5"/><rect x="43.66" y="46.42" width="0.5" height="0.5"/><rect x="45.17" y="46.42" width="0.5" height="0.5"/><rect x="45.67" y="46.42" width="0.5" height="0.5"/><rect x="46.67" y="46.42" width="0.5" height="0.5"/><rect x="47.17" y="46.42" width="0.5" height="0.5"/><rect x="47.68" y="46.42" width="0.5" height="0.5"/><rect x="49.68" y="46.42" width="0.5" height="0.5"/><rect x="35.13" y="46.92" width="0.5" height="0.5"/><rect x="37.64" y="46.92" width="0.5" height="0.5"/><rect x="38.14" y="46.92" width="0.5" height="0.5"/><rect x="38.64" y="46.92" width="0.5" height="0.5"/><rect x="39.15" y="46.92" width="0.5" height="0.5"/><rect x="40.15" y="46.92" width="0.5" height="0.5"/><rect x="40.65" y="46.92" width="0.5" height="0.5"/><rect x="43.16" y="46.92" width="0.5" height="0.5"/><rect x="43.66" y="46.92" width="0.5" height="0.5"/><rect x="44.67" y="46.92" width="0.5" height="0.5"/><rect x="45.17" y="46.92" width="0.5" height="0.5"/><rect x="45.67" y="46.92" width="0.5" height="0.5"/><rect x="46.17" y="46.92" width="0.5" height="0.5"/><rect x="46.67" y="46.92" width="0.5" height="0.5"/><rect x="47.17" y="46.92" width="0.5" height="0.5"/><rect x="33.63" y="47.42" width="0.5" height="0.5"/><rect x="36.64" y="47.42" width="0.5" height="0.5"/><rect x="38.64" y="47.42" width="0.5" height="0.5"/><rect x="40.15" y="47.42" width="0.5" height="0.5"/><rect x="41.15" y="47.42" width="0.5" height="0.5"/><rect x="41.65" y="47.42" width="0.5" height="0.5"/><rect x="42.16" y="47.42" width="0.5" height="0.5"/><rect x="44.67" y="47.42" width="0.5" height="0.5"/><rect x="46.67" y="47.42" width="0.5" height="0.5"/><rect x="47.17" y="47.42" width="0.5" height="0.5"/><rect x="48.18" y="47.42" width="0.5" height="0.5"/><rect x="49.18" y="47.42" width="0.5" height="0.5"/><rect x="49.68" y="47.42" width="0.5" height="0.5"/><rect x="34.13" y="47.92" width="0.5" height="0.5"/><rect x="36.13" y="47.92" width="0.5" height="0.5"/><rect x="37.14" y="47.92" width="0.5" height="0.5"/><rect x="38.14" y="47.92" width="0.5" height="0.5"/><rect x="38.64" y="47.92" width="0.5" height="0.5"/><rect x="39.15" y="47.92" width="0.5" height="0.5"/><rect x="39.65" y="47.92" width="0.5" height="0.5"/><rect x="42.66" y="47.92" width="0.5" height="0.5"/><rect x="45.17" y="47.92" width="0.5" height="0.5"/><rect x="46.67" y="47.92" width="0.5" height="0.5"/><rect x="47.17" y="47.92" width="0.5" height="0.5"/><rect x="48.68" y="47.92" width="0.5" height="0.5"/><rect x="49.68" y="47.92" width="0.5" height="0.5"/><rect x="33.63" y="48.43" width="0.5" height="0.5"/><rect x="34.63" y="48.43" width="0.5" height="0.5"/><rect x="36.13" y="48.43" width="0.5" height="0.5"/><rect x="36.64" y="48.43" width="0.5" height="0.5"/><rect x="37.14" y="48.43" width="0.5" height="0.5"/><rect x="37.64" y="48.43" width="0.5" height="0.5"/><rect x="38.14" y="48.43" width="0.5" height="0.5"/><rect x="39.15" y="48.43" width="0.5" height="0.5"/><rect x="39.65" y="48.43" width="0.5" height="0.5"/><rect x="40.65" y="48.43" width="0.5" height="0.5"/><rect x="43.16" y="48.43" width="0.5" height="0.5"/><rect x="43.66" y="48.43" width="0.5" height="0.5"/><rect x="44.67" y="48.43" width="0.5" height="0.5"/><rect x="45.17" y="48.43" width="0.5" height="0.5"/><rect x="47.68" y="48.43" width="0.5" height="0.5"/><rect x="48.18" y="48.43" width="0.5" height="0.5"/><rect x="48.68" y="48.43" width="0.5" height="0.5"/><rect x="49.68" y="48.43" width="0.5" height="0.5"/><rect x="34.13" y="48.93" width="0.5" height="0.5"/><rect x="37.64" y="48.93" width="0.5" height="0.5"/><rect x="40.15" y="48.93" width="0.5" height="0.5"/><rect x="40.65" y="48.93" width="0.5" height="0.5"/><rect x="41.15" y="48.93" width="0.5" height="0.5"/><rect x="43.16" y="48.93" width="0.5" height="0.5"/><rect x="45.17" y="48.93" width="0.5" height="0.5"/><rect x="46.17" y="48.93" width="0.5" height="0.5"/><rect x="46.67" y="48.93" width="0.5" height="0.5"/><rect x="48.18" y="48.93" width="0.5" height="0.5"/><rect x="49.68" y="48.93" width="0.5" height="0.5"/><rect x="34.13" y="49.43" width="0.5" height="0.5"/><rect x="34.63" y="49.43" width="0.5" height="0.5"/><rect x="35.13" y="49.43" width="0.5" height="0.5"/><rect x="36.13" y="49.43" width="0.5" height="0.5"/><rect x="36.64" y="49.43" width="0.5" height="0.5"/><rect x="37.14" y="49.43" width="0.5" height="0.5"/><rect x="38.64" y="49.43" width="0.5" height="0.5"/><rect x="39.15" y="49.43" width="0.5" height="0.5"/><rect x="39.65" y="49.43" width="0.5" height="0.5"/><rect x="40.15" y="49.43" width="0.5" height="0.5"/><rect x="40.65" y="49.43" width="0.5" height="0.5"/><rect x="41.65" y="49.43" width="0.5" height="0.5"/><rect x="42.66" y="49.43" width="0.5" height="0.5"/><rect x="43.16" y="49.43" width="0.5" height="0.5"/><rect x="43.66" y="49.43" width="0.5" height="0.5"/><rect x="45.17" y="49.43" width="0.5" height="0.5"/><rect x="46.67" y="49.43" width="0.5" height="0.5"/><rect x="47.17" y="49.43" width="0.5" height="0.5"/><rect x="34.13" y="49.93" width="0.5" height="0.5"/><rect x="34.63" y="49.93" width="0.5" height="0.5"/><rect x="35.13" y="49.93" width="0.5" height="0.5"/><rect x="35.63" y="49.93" width="0.5" height="0.5"/><rect x="36.13" y="49.93" width="0.5" height="0.5"/><rect x="37.64" y="49.93" width="0.5" height="0.5"/><rect x="39.15" y="49.93" width="0.5" height="0.5"/><rect x="40.15" y="49.93" width="0.5" height="0.5"/><rect x="43.16" y="49.93" width="0.5" height="0.5"/><rect x="44.16" y="49.93" width="0.5" height="0.5"/><rect x="45.67" y="49.93" width="0.5" height="0.5"/><rect x="46.67" y="49.93" width="0.5" height="0.5"/><rect x="47.17" y="49.93" width="0.5" height="0.5"/><rect x="49.68" y="49.93" width="0.5" height="0.5"/><rect x="33.63" y="50.43" width="0.5" height="0.5"/><rect x="34.13" y="50.43" width="0.5" height="0.5"/><rect x="35.13" y="50.43" width="0.5" height="0.5"/><rect x="36.64" y="50.43" width="0.5" height="0.5"/><rect x="37.14" y="50.43" width="0.5" height="0.5"/><rect x="40.65" y="50.43" width="0.5" height="0.5"/><rect x="41.15" y="50.43" width="0.5" height="0.5"/><rect x="43.66" y="50.43" width="0.5" height="0.5"/><rect x="44.16" y="50.43" width="0.5" height="0.5"/><rect x="44.67" y="50.43" width="0.5" height="0.5"/><rect x="45.17" y="50.43" width="0.5" height="0.5"/><rect x="45.67" y="50.43" width="0.5" height="0.5"/><rect x="46.17" y="50.43" width="0.5" height="0.5"/><rect x="46.67" y="50.43" width="0.5" height="0.5"/><rect x="47.68" y="50.43" width="0.5" height="0.5"/><rect x="48.18" y="50.43" width="0.5" height="0.5"/><rect x="48.68" y="50.43" width="0.5" height="0.5"/><rect x="49.18" y="50.43" width="0.5" height="0.5"/><rect x="49.68" y="50.43" width="0.5" height="0.5"/><rect x="34.63" y="50.94" width="0.5" height="0.5"/><rect x="36.13" y="50.94" width="0.5" height="0.5"/><rect x="38.14" y="50.94" width="0.5" height="0.5"/><rect x="38.64" y="50.94" width="0.5" height="0.5"/><rect x="39.65" y="50.94" width="0.5" height="0.5"/><rect x="40.15" y="50.94" width="0.5" height="0.5"/><rect x="40.65" y="50.94" width="0.5" height="0.5"/><rect x="42.16" y="50.94" width="0.5" height="0.5"/><rect x="43.16" y="50.94" width="0.5" height="0.5"/><rect x="43.66" y="50.94" width="0.5" height="0.5"/><rect x="44.67" y="50.94" width="0.5" height="0.5"/><rect x="45.17" y="50.94" width="0.5" height="0.5"/><rect x="47.68" y="50.94" width="0.5" height="0.5"/><rect x="48.18" y="50.94" width="0.5" height="0.5"/><rect x="49.18" y="50.94" width="0.5" height="0.5"/><rect x="49.68" y="50.94" width="0.5" height="0.5"/><rect x="33.63" y="51.44" width="0.5" height="0.5"/><rect x="34.13" y="51.44" width="0.5" height="0.5"/><rect x="35.13" y="51.44" width="0.5" height="0.5"/><rect x="35.63" y="51.44" width="0.5" height="0.5"/><rect x="36.64" y="51.44" width="0.5" height="0.5"/><rect x="37.14" y="51.44" width="0.5" height="0.5"/><rect x="37.64" y="51.44" width="0.5" height="0.5"/><rect x="38.64" y="51.44" width="0.5" height="0.5"/><rect x="39.15" y="51.44" width="0.5" height="0.5"/><rect x="40.15" y="51.44" width="0.5" height="0.5"/><rect x="40.65" y="51.44" width="0.5" height="0.5"/><rect x="42.16" y="51.44" width="0.5" height="0.5"/><rect x="43.16" y="51.44" width="0.5" height="0.5"/><rect x="45.17" y="51.44" width="0.5" height="0.5"/><rect x="45.67" y="51.44" width="0.5" height="0.5"/><rect x="46.17" y="51.44" width="0.5" height="0.5"/><rect x="46.67" y="51.44" width="0.5" height="0.5"/><rect x="47.17" y="51.44" width="0.5" height="0.5"/><rect x="47.68" y="51.44" width="0.5" height="0.5"/><rect x="48.18" y="51.44" width="0.5" height="0.5"/><rect x="49.18" y="51.44" width="0.5" height="0.5"/><rect x="37.64" y="51.94" width="0.5" height="0.5"/><rect x="40.15" y="51.94" width="0.5" height="0.5"/><rect x="41.65" y="51.94" width="0.5" height="0.5"/><rect x="43.16" y="51.94" width="0.5" height="0.5"/><rect x="45.67" y="51.94" width="0.5" height="0.5"/><rect x="47.68" y="51.94" width="0.5" height="0.5"/><rect x="49.68" y="51.94" width="0.5" height="0.5"/><rect x="37.64" y="52.44" width="0.5" height="0.5"/><rect x="38.14" y="52.44" width="0.5" height="0.5"/><rect x="38.64" y="52.44" width="0.5" height="0.5"/><rect x="39.15" y="52.44" width="0.5" height="0.5"/><rect x="40.15" y="52.44" width="0.5" height="0.5"/><rect x="41.65" y="52.44" width="0.5" height="0.5"/><rect x="42.16" y="52.44" width="0.5" height="0.5"/><rect x="43.16" y="52.44" width="0.5" height="0.5"/><rect x="43.66" y="52.44" width="0.5" height="0.5"/><rect x="44.16" y="52.44" width="0.5" height="0.5"/><rect x="44.67" y="52.44" width="0.5" height="0.5"/><rect x="45.67" y="52.44" width="0.5" height="0.5"/><rect x="46.67" y="52.44" width="0.5" height="0.5"/><rect x="47.68" y="52.44" width="0.5" height="0.5"/><rect x="48.18" y="52.44" width="0.5" height="0.5"/><rect x="48.68" y="52.44" width="0.5" height="0.5"/><rect x="49.68" y="52.44" width="0.5" height="0.5"/><rect x="37.64" y="52.94" width="0.5" height="0.5"/><rect x="38.14" y="52.94" width="0.5" height="0.5"/><rect x="38.64" y="52.94" width="0.5" height="0.5"/><rect x="39.65" y="52.94" width="0.5" height="0.5"/><rect x="40.15" y="52.94" width="0.5" height="0.5"/><rect x="40.65" y="52.94" width="0.5" height="0.5"/><rect x="41.15" y="52.94" width="0.5" height="0.5"/><rect x="42.66" y="52.94" width="0.5" height="0.5"/><rect x="44.67" y="52.94" width="0.5" height="0.5"/><rect x="45.67" y="52.94" width="0.5" height="0.5"/><rect x="47.68" y="52.94" width="0.5" height="0.5"/><rect x="48.18" y="52.94" width="0.5" height="0.5"/><rect x="49.18" y="52.94" width="0.5" height="0.5"/><rect x="49.68" y="52.94" width="0.5" height="0.5"/><rect x="39.15" y="53.44" width="0.5" height="0.5"/><rect x="39.65" y="53.44" width="0.5" height="0.5"/><rect x="40.15" y="53.44" width="0.5" height="0.5"/><rect x="41.15" y="53.44" width="0.5" height="0.5"/><rect x="42.66" y="53.44" width="0.5" height="0.5"/><rect x="43.16" y="53.44" width="0.5" height="0.5"/><rect x="43.66" y="53.44" width="0.5" height="0.5"/><rect x="44.16" y="53.44" width="0.5" height="0.5"/><rect x="44.67" y="53.44" width="0.5" height="0.5"/><rect x="45.17" y="53.44" width="0.5" height="0.5"/><rect x="45.67" y="53.44" width="0.5" height="0.5"/><rect x="46.17" y="53.44" width="0.5" height="0.5"/><rect x="46.67" y="53.44" width="0.5" height="0.5"/><rect x="47.17" y="53.44" width="0.5" height="0.5"/><rect x="47.68" y="53.44" width="0.5" height="0.5"/><rect x="48.18" y="53.44" width="0.5" height="0.5"/><rect x="38.14" y="53.95" width="0.5" height="0.5"/><rect x="39.15" y="53.95" width="0.5" height="0.5"/><rect x="40.65" y="53.95" width="0.5" height="0.5"/><rect x="42.16" y="53.95" width="0.5" height="0.5"/><rect x="42.66" y="53.95" width="0.5" height="0.5"/><rect x="43.16" y="53.95" width="0.5" height="0.5"/><rect x="44.67" y="53.95" width="0.5" height="0.5"/><rect x="45.17" y="53.95" width="0.5" height="0.5"/><rect x="46.17" y="53.95" width="0.5" height="0.5"/><rect x="47.17" y="53.95" width="0.5" height="0.5"/><rect x="47.68" y="53.95" width="0.5" height="0.5"/><rect x="48.18" y="53.95" width="0.5" height="0.5"/><rect x="48.68" y="53.95" width="0.5" height="0.5"/><rect x="49.68" y="53.95" width="0.5" height="0.5"/><rect x="37.64" y="54.45" width="0.5" height="0.5"/><rect x="38.14" y="54.45" width="0.5" height="0.5"/><rect x="39.15" y="54.45" width="0.5" height="0.5"/><rect x="39.65" y="54.45" width="0.5" height="0.5"/><rect x="41.65" y="54.45" width="0.5" height="0.5"/><rect x="42.16" y="54.45" width="0.5" height="0.5"/><rect x="43.16" y="54.45" width="0.5" height="0.5"/><rect x="43.66" y="54.45" width="0.5" height="0.5"/><rect x="44.16" y="54.45" width="0.5" height="0.5"/><rect x="45.67" y="54.45" width="0.5" height="0.5"/><rect x="47.68" y="54.45" width="0.5" height="0.5"/><rect x="49.18" y="54.45" width="0.5" height="0.5"/><rect x="49.68" y="54.45" width="0.5" height="0.5"/><rect x="38.14" y="54.95" width="0.5" height="0.5"/><rect x="39.15" y="54.95" width="0.5" height="0.5"/><rect x="41.15" y="54.95" width="0.5" height="0.5"/><rect x="41.65" y="54.95" width="0.5" height="0.5"/><rect x="42.16" y="54.95" width="0.5" height="0.5"/><rect x="42.66" y="54.95" width="0.5" height="0.5"/><rect x="44.67" y="54.95" width="0.5" height="0.5"/><rect x="45.67" y="54.95" width="0.5" height="0.5"/><rect x="46.17" y="54.95" width="0.5" height="0.5"/><rect x="48.18" y="54.95" width="0.5" height="0.5"/><rect x="38.14" y="55.45" width="0.5" height="0.5"/><rect x="39.15" y="55.45" width="0.5" height="0.5"/><rect x="40.65" y="55.45" width="0.5" height="0.5"/><rect x="41.15" y="55.45" width="0.5" height="0.5"/><rect x="43.16" y="55.45" width="0.5" height="0.5"/><rect x="43.66" y="55.45" width="0.5" height="0.5"/><rect x="44.16" y="55.45" width="0.5" height="0.5"/><rect x="44.67" y="55.45" width="0.5" height="0.5"/><rect x="45.67" y="55.45" width="0.5" height="0.5"/><rect x="46.67" y="55.45" width="0.5" height="0.5"/><rect x="47.68" y="55.45" width="0.5" height="0.5"/><rect x="49.68" y="55.45" width="0.5" height="0.5"/><path d="M36.61,42.38H34.15V39.92h2.46Zm0-3h-3v3.52h3.51V39.39Z"/><path d="M49.66,42.38H47.2V39.92h2.46Zm0-3h-3v3.52h3.52V39.39Z"/><path d="M36.61,55.43H34.15V53h2.46Zm0-3h-3V56h3.51V52.44Z"/><rect x="34.63" y="40.4" width="1.51" height="1.51"/><rect x="47.68" y="40.4" width="1.51" height="1.51"/><rect x="34.63" y="53.44" width="1.51" height="1.51"/><rect class="cls-5" x="39.56" y="44.92" width="4.72" height="5.51"/><path d="M41.93,49.8a1.73,1.73,0,0,1-.31-3.44v.38a.33.33,0,0,0,.13.26v.31H41a.25.25,0,0,0-.2.12.24.24,0,0,0,0,.23l.9,1.72a.24.24,0,0,0,.21.12.24.24,0,0,0,.2-.12l.9-1.72a.24.24,0,0,0,0-.23.24.24,0,0,0-.2-.12h-.72V47a.33.33,0,0,0,.13-.26v-.37a1.73,1.73,0,0,1-.32,3.43ZM42.25,46v-.35a.32.32,0,0,0-.63,0V46a2.11,2.11,0,1,0,.63,0Z"/><path class="cls-7" d="M28.52,40.75V36.33a1.89,1.89,0,0,1,1.89-1.88H35.5"/><rect class="cls-8" x="26.55" y="45.97" width="30.17" height="2.87"/><path class="cls-7" d="M55.33,40.75V36.33a1.89,1.89,0,0,0-1.89-1.88H48.35"/><path class="cls-7" d="M28.52,54.71v4.41A1.89,1.89,0,0,0,30.41,61H35.5"/><path class="cls-7" d="M55.33,54.71v4.41A1.89,1.89,0,0,1,53.44,61H48.35"/></g></g></g></svg>