<svg xmlns="http://www.w3.org/2000/svg" xmlns:xlink="http://www.w3.org/1999/xlink" viewBox="0 0 83.88 131.45"><defs><style>.cls-1{fill:#3763af;}.cls-2{fill:#4e9cf9;}.cls-3{fill:#4685e0;}.cls-4{fill:#fff;}.cls-5{fill:none;stroke:#1e377c;stroke-miterlimit:10;stroke-width:0.24px;}.cls-6{opacity:0.29;isolation:isolate;fill:url(#linear-gradient);}.cls-7{fill:url(#linear-gradient-2);}.cls-8{fill:url(#linear-gradient-3);}</style><linearGradient id="linear-gradient" x1="-783.19" y1="1255.31" x2="-782.74" y2="1255.56" gradientTransform="matrix(31.47, 0, 0, -31.32, 24693.56, 39357.09)" gradientUnits="userSpaceOnUse"><stop offset="0" stop-color="#fcea0d"/><stop offset="0" stop-color="#f29100"/><stop offset="1" stop-color="#fcea0d"/></linearGradient><linearGradient id="linear-gradient-2" x1="-772.87" y1="1270.57" x2="-772.43" y2="1270.82" gradientTransform="matrix(21.39, 0, 0, -21.29, 16580.7, 27084.84)" xlink:href="#linear-gradient"/><linearGradient id="linear-gradient-3" x1="-743.3" y1="1302.36" x2="-742.74" y2="1301.89" gradientTransform="matrix(11.13, 0, 0, -12.83, 8325.17, 16741.45)" gradientUnits="userSpaceOnUse"><stop offset="0" stop-color="#ca6421"/><stop offset="1" stop-color="#f59f00"/></linearGradient></defs><g id="Слой_2" data-name="Слой 2"><g id="Layer_1" data-name="Layer 1"><path class="cls-1" d="M79.79,63.35C94.38,28.65,67.15-.65,42,0,24.65.47,8.55,7.85,1.17,34.79c-3.14,11.45.43,24.53,6,35h0L42,131.45l34.9-61.62h0C78.19,67.15,78.69,66,79.79,63.35Z"/><path class="cls-2" d="M42.14,0V131.22L76.91,69.83h0c1.3-2.68,1.8-3.88,2.9-6.48C94.35,28.71,67.24-.54,42.14,0Z"/><path class="cls-3" d="M83.37,41.37a41.36,41.36,0,0,0-82.72,0c0,8.18,2.92,15.27,6.48,22.22h0L42,125.21l34.9-61.62h0C80.77,55.82,83.37,49.55,83.37,41.37Z"/><circle class="cls-4" cx="42.01" cy="41.37" r="29.12"/><circle class="cls-1" cx="42.01" cy="39.69" r="30.33"/><circle class="cls-4" cx="42.01" cy="41.22" r="29.12"/><circle class="cls-5" cx="42.01" cy="41.22" r="28.01"/><ellipse class="cls-6" cx="56.83" cy="36.8" rx="8.09" ry="8.05"/><ellipse class="cls-7" cx="56.8" cy="36.79" rx="5.5" ry="5.47"/><path class="cls-8" d="M54,34.77a1.39,1.39,0,1,1,.32,1,1.37,1.37,0,0,1-.32-1Zm1.87.16a.49.49,0,0,0-.18-.46.5.5,0,0,0-.5,0,.48.48,0,0,0-.27.42.48.48,0,0,0,.44.52A.47.47,0,0,0,55.88,34.93Zm2.32-1a.42.42,0,0,1,.44-.24.53.53,0,0,1,.5.53.46.46,0,0,1-.1.25l-3.52,5.11c-.15.17-.22.26-.44.25a.55.55,0,0,1-.48-.52,1,1,0,0,1,.12-.32Zm-1.29,4.61a1.41,1.41,0,1,1,1.29,1.5,1.42,1.42,0,0,1-1-.48A1.4,1.4,0,0,1,56.91,38.57Zm1.88.16a.48.48,0,0,0-.68-.47.51.51,0,0,0-.28.39.48.48,0,0,0,.21.43.45.45,0,0,0,.47,0,.48.48,0,0,0,.28-.39Z"/><path class="cls-3" d="M20.38,46.9h.19l2-2.28c.32-.36.51-.52.81-.52a.91.91,0,0,1,.56.21.82.82,0,0,1,.28.62c0,.23-.11.43-.41.77L22,47.65,24,49.84c.31.35.42.54.42.78a.81.81,0,0,1-.28.61.86.86,0,0,1-.57.21c-.3,0-.48-.15-.8-.52l-2.16-2.43h-.18v1.72a1.56,1.56,0,0,1-.12.8.93.93,0,0,1-1.57,0,1.56,1.56,0,0,1-.12-.8V45.33a1.58,1.58,0,0,1,.12-.8.93.93,0,0,1,1.57,0,1.58,1.58,0,0,1,.12.8Z"/><path class="cls-3" d="M27.23,48.33a1.48,1.48,0,0,0,1.59,1.61,2.08,2.08,0,0,0,1.25-.38,1.06,1.06,0,0,1,.68-.27.79.79,0,0,1,.73.75c0,.34-.3.65-.71.93a3.47,3.47,0,0,1-2,.5c-1.72,0-3.35-.78-3.35-3.7,0-2.36,1.27-3.7,3.14-3.7a3.07,3.07,0,0,1,3.15,3.23,1.09,1.09,0,0,1-.24.81,1,1,0,0,1-.79.22Zm2.58-2a1.25,1.25,0,0,0-1.22-.74,1.24,1.24,0,0,0-1.2.74,1.75,1.75,0,0,0-.16.79H30A1.89,1.89,0,0,0,29.81,46.31Z"/><path class="cls-3" d="M42.52,51.14a1.11,1.11,0,0,1-.85.25H34.48a.93.93,0,0,1-1.1-1.1v-5a1.58,1.58,0,0,1,.12-.8.93.93,0,0,1,1.57,0,1.58,1.58,0,0,1,.12.8v4.42h2V45.33a1.58,1.58,0,0,1,.12-.8.93.93,0,0,1,1.57,0,1.58,1.58,0,0,1,.12.8v4.42h2V45.33a1.58,1.58,0,0,1,.12-.8.93.93,0,0,1,1.57,0,1.58,1.58,0,0,1,.12.8v5A1.11,1.11,0,0,1,42.52,51.14Z"/><path class="cls-1" d="M45.94,42.18a5.77,5.77,0,0,1,3.17-.79,1.45,1.45,0,0,1,.72.11.78.78,0,0,1,.39.71.8.8,0,0,1-.39.71,1.45,1.45,0,0,1-.72.11,3.65,3.65,0,0,0-2.43.6,2.1,2.1,0,0,0-.57,1.59,2.33,2.33,0,0,1,1.94-.86,2.39,2.39,0,0,1,1.72.58,3.8,3.8,0,0,1,.95,2.87,3.75,3.75,0,0,1-.88,2.82,2.88,2.88,0,0,1-2.14.84,2.74,2.74,0,0,1-2.5-1.23,4.83,4.83,0,0,1-.6-2.8C44.6,44.33,44.65,43.13,45.94,42.18Zm.86,7.31a1.1,1.1,0,0,0,.87.34,1.06,1.06,0,0,0,.87-.36,2.47,2.47,0,0,0,.37-1.63,2.57,2.57,0,0,0-.35-1.57,1.22,1.22,0,0,0-1.79,0,2.51,2.51,0,0,0-.37,1.57A2.41,2.41,0,0,0,46.8,49.49Z"/><path class="cls-1" d="M53.82,48.33a1.48,1.48,0,0,0,1.59,1.61,2.1,2.1,0,0,0,1.25-.38,1.06,1.06,0,0,1,.68-.27.78.78,0,0,1,.72.75c0,.34-.29.65-.7.93a3.5,3.5,0,0,1-2,.5c-1.71,0-3.34-.78-3.34-3.7,0-2.36,1.27-3.7,3.14-3.7a3.07,3.07,0,0,1,3.15,3.23,1.09,1.09,0,0,1-.24.81,1,1,0,0,1-.79.22Zm2.58-2a1.25,1.25,0,0,0-1.22-.74,1.24,1.24,0,0,0-1.2.74,1.75,1.75,0,0,0-.16.79h2.74A1.89,1.89,0,0,0,56.4,46.31Z"/><path class="cls-1" d="M61.78,46.9H62l2-2.28c.32-.36.51-.52.8-.52a.91.91,0,0,1,.57.21.82.82,0,0,1,.28.62c0,.23-.11.43-.41.77l-1.75,1.95,1.91,2.19c.31.35.42.54.42.78a.79.79,0,0,1-.29.61.82.82,0,0,1-.56.21c-.3,0-.48-.15-.8-.52L62,48.49h-.18v1.72a1.56,1.56,0,0,1-.12.8.93.93,0,0,1-1.57,0,1.56,1.56,0,0,1-.12-.8V45.33a1.58,1.58,0,0,1,.12-.8.93.93,0,0,1,1.57,0,1.58,1.58,0,0,1,.12.8Z"/><path class="cls-1" d="M22.74,37.94a1.63,1.63,0,0,1,.41-.6.89.89,0,0,1,.49-.14.75.75,0,0,1,.58.23.8.8,0,0,1,.23.64,2.24,2.24,0,0,1-.74,1.48,2.86,2.86,0,0,1-2.2.78,3.1,3.1,0,0,1-2.3-.91c-.85-.85-.88-1.83-.88-3.47s0-2.62.88-3.47a3.13,3.13,0,0,1,2.3-.9,2.85,2.85,0,0,1,2.2.77,2.24,2.24,0,0,1,.74,1.49.82.82,0,0,1-.23.64.79.79,0,0,1-.58.23.82.82,0,0,1-.49-.15,1.63,1.63,0,0,1-.41-.6,1.31,1.31,0,0,0-1.27-.89,1.35,1.35,0,0,0-1,.46c-.36.41-.42.89-.42,2.42s.06,2,.42,2.42a1.35,1.35,0,0,0,2.29-.43Z"/><path class="cls-1" d="M26.83,40.59l.23-.67-1.63-4.79a1.28,1.28,0,0,1-.09-.73.76.76,0,0,1,.73-.49c.49,0,.63.37.76.75l1,3.12,1-3.12c.12-.38.26-.75.75-.75a.75.75,0,0,1,.73.49,1.2,1.2,0,0,1-.09.73l-2.12,6.16a2,2,0,0,1-.48.8,1.7,1.7,0,0,1-1.28.5,1.54,1.54,0,0,1-.61-.1.74.74,0,0,1,0-1.25.77.77,0,0,1,.39-.07C26.44,41.17,26.68,41.05,26.83,40.59Z"/><path class="cls-1" d="M33.06,35.38v3.85a1.49,1.49,0,0,1-.1.7.74.74,0,0,1-.69.37.72.72,0,0,1-.68-.37,1.49,1.49,0,0,1-.1-.7V34.91a.8.8,0,0,1,.95-.95h3.27a1,1,0,0,1,.74.21,1,1,0,0,1,.22.74v4.32a1.34,1.34,0,0,1-.11.7.81.81,0,0,1-1.36,0,1.37,1.37,0,0,1-.1-.7V35.38Z"/><path class="cls-1" d="M39.66,37.59A1.3,1.3,0,0,0,41.05,39a1.81,1.81,0,0,0,1.09-.34,1,1,0,0,1,.59-.24.68.68,0,0,1,.63.66c0,.3-.25.57-.62.81a3,3,0,0,1-1.71.44c-1.49,0-2.91-.68-2.91-3.22,0-2.06,1.1-3.23,2.73-3.23a2.67,2.67,0,0,1,2.74,2.81.75.75,0,0,1-.9.9Zm2.25-1.75a1.1,1.1,0,0,0-1.06-.65,1.08,1.08,0,0,0-1.05.65,1.69,1.69,0,0,0-.14.68h2.39A1.69,1.69,0,0,0,41.91,35.84Z"/><path class="cls-1" d="M45,35a1.34,1.34,0,0,1,.11-.71.77.77,0,0,1,.68-.36.68.68,0,0,1,.5.18.8.8,0,0,1,.23.45,1.91,1.91,0,0,1,1.57-.66,2.15,2.15,0,0,1,1.53.57,3.74,3.74,0,0,1,.65,2.66,3.73,3.73,0,0,1-.65,2.65,2.12,2.12,0,0,1-1.53.57,1.84,1.84,0,0,1-1.52-.63v1.83a1.53,1.53,0,0,1-.1.71.74.74,0,0,1-.68.37.76.76,0,0,1-.69-.37,1.53,1.53,0,0,1-.1-.71Zm2.65.33c-1,0-1.08.79-1.08,1.8s.12,1.79,1.06,1.79,1.07-.78,1.07-1.79S48.6,35.31,47.67,35.31Z"/></g></g></svg>