<svg xmlns="http://www.w3.org/2000/svg" viewBox="0 0 83.88 131.45"><defs><style>.cls-1{fill:#1e377c;}.cls-2{fill:#307cb5;}.cls-3{fill:#3f9cef;}.cls-4{fill:#fff;}.cls-5{fill:none;stroke:#1e377c;stroke-miterlimit:10;stroke-width:0.24px;}</style></defs><g id="Слой_2" data-name="Слой 2"><g id="Layer_1" data-name="Layer 1"><path class="cls-1" d="M79.79,63.35C94.38,28.65,67.15-.65,42,0,24.65.47,8.55,7.85,1.17,34.79c-3.14,11.45.43,24.53,6,35h0L42,131.45l34.9-61.62h0C78.19,67.15,78.69,66,79.79,63.35Z"/><path class="cls-2" d="M42.14,0V131.22L76.91,69.83h0c1.3-2.68,1.8-3.88,2.9-6.48C94.35,28.71,67.24-.54,42.14,0Z"/><path class="cls-3" d="M83.37,41.37a41.36,41.36,0,0,0-82.72,0c0,8.18,2.92,15.27,6.48,22.22h0L42,125.21l34.9-61.62h0C80.77,55.82,83.37,49.55,83.37,41.37Z"/><circle class="cls-4" cx="42.01" cy="41.37" r="29.12"/><circle class="cls-1" cx="42.01" cy="39.69" r="30.33"/><circle class="cls-4" cx="42.01" cy="41.22" r="29.12"/><circle class="cls-5" cx="42.01" cy="41.22" r="28.01"/><path class="cls-1" d="M35.19,33.72,29.19,48H25.27l-3-11.43a1.55,1.55,0,0,0-.88-1.26,15.6,15.6,0,0,0-3.65-1.22l.09-.41h6.3a1.72,1.72,0,0,1,1.71,1.46l1.56,8.29,3.86-9.75Zm15.35,9.65c0-3.78-5.23-4-5.19-5.68,0-.52.5-1.06,1.57-1.2a6.94,6.94,0,0,1,3.66.64l.65-3a10.06,10.06,0,0,0-3.47-.63c-3.66,0-6.24,1.94-6.26,4.73,0,2.07,1.84,3.22,3.24,3.9s1.93,1.15,1.92,1.78c0,1-1.15,1.39-2.21,1.4a7.76,7.76,0,0,1-3.81-.9L40,47.51a11.4,11.4,0,0,0,4.12.76c3.89,0,6.44-1.93,6.45-4.9M60.22,48h3.42l-3-14.32H57.49a1.69,1.69,0,0,0-1.58,1.05L50.35,48h3.89L55,45.91h4.76ZM56.08,43l2-5.38L59.15,43ZM40.49,33.72,37.42,48h-3.7l3.06-14.32Z"/></g></g></svg>