<svg xmlns="http://www.w3.org/2000/svg" viewBox="0 0 38.74 38.74"><style>#Layer_2{fill: #3763af}</style><g id="Layer_2" data-name="Layer 2"><g id="Layer_1-2" data-name="Layer 1"><path d="M22.46,25.31,21.05,26.7l-.36-.31c.69-1.29,1.35-2.59,2.08-3.86a2,2,0,0,1,.89-.56q2.23-1,4.5-2c.79-.34,1.33-.9,1-1.76-.57-1.57-1.28-3.08-2-4.73L12.77,19.69c.72,1.64,1.34,3.19,2.08,4.68.35.7.91.9,1.41,0s1.12-1.93,1.7-2.89a1.94,1.94,0,0,1,2.71-.94,1.87,1.87,0,0,1,.46,2.72q-2.07,3.59-4.2,7.13a9,9,0,0,1-1.34,1.68c-1.84,1.82-3.14,2-5.22.48C9,31.57,7.76,30.38,6.17,29c2.24-.63,2.3-2.23,2.5-3.74A30.78,30.78,0,0,0,9,21.71c0-1.51.56-2.52,2.3-2.75l-.5-1.43a2.36,2.36,0,0,1,1.33-3.35q5.67-2.46,11.35-4.86A2.38,2.38,0,0,1,27,10.7q1.48,3.35,2.88,6.72a2.38,2.38,0,0,1-1.41,3.5,19.4,19.4,0,0,0-2,.86,3.56,3.56,0,0,0-.84,1c-.21.27-.36.6-.59.85a6.76,6.76,0,0,1-1.18,1A13.1,13.1,0,0,1,22.46,25.31ZM26.09,11.2c-.31-1.11-1-1.48-1.85-1.12q-6,2.47-11.87,5.08c-.89.4-1.15,1.15-.46,2.11Z"/><path d="M19.37,0A19.37,19.37,0,1,0,38.74,19.37,19.37,19.37,0,0,0,19.37,0Zm0,37.12A17.75,17.75,0,1,1,37.12,19.37,17.75,17.75,0,0,1,19.37,37.12Z"/></g></g></svg>
