<svg xmlns="http://www.w3.org/2000/svg" xmlns:xlink="http://www.w3.org/1999/xlink" viewBox="0 0 37.03 45.44"><defs><style>.cls-1{fill:#1f1f1f;}.cls-2{fill:#2a2a2a;}.cls-3{fill:#1d1d1d;}.cls-4{fill:#3b3b3b;}.cls-5{fill:#ff4f4f;}.cls-6{fill:#d12700;}.cls-7{fill:#e9eae7;}.cls-8{fill:#ff8372;}.cls-9{fill:#b01300;}.cls-10{fill:#990f0f;}.cls-11{fill:#c4c4c4;}.cls-12{fill:#828282;}.cls-13{fill:#ca0d00;}.cls-14{fill:#ff644f;}.cls-15{fill:#ffc123;}.cls-16{fill:#d92800;}.cls-17{fill:#e0e0e0;}.cls-18{fill:#b8b8b8;}.cls-19{fill:#aeaeae;}.cls-20{fill:#9e9e9e;}.cls-21{fill:#b1b1b1;}.cls-22{fill:#e7b51a;}.cls-23{fill:#bf7000;}.cls-24{fill:#ffe366;}.cls-25{fill:#d9594a;}.cls-26{fill:#bf2c2c;}.cls-27{fill:#fa8c8c;}.cls-28{fill:#0042a6;}.cls-29{fill:#02286e;}.cls-30{fill:#5c9aed;}.cls-31{fill:url(#Безымянный_градиент_45);}.cls-32{fill:url(#Безымянный_градиент_44);}</style><linearGradient id="Безымянный_градиент_45" x1="2546.08" y1="4.18" x2="2546.89" y2="5.58" gradientTransform="matrix(-1, 0, 0, 1, 2576.84, 0)" gradientUnits="userSpaceOnUse"><stop offset="0.13" stop-color="#ff4747"/><stop offset="0.13" stop-color="#f25555"/><stop offset="0.44" stop-color="#f25555"/><stop offset="0.44" stop-color="#c23226"/><stop offset="0.84" stop-color="#c23226"/><stop offset="0.84" stop-color="#961e1e"/></linearGradient><linearGradient id="Безымянный_градиент_44" x1="2548.92" y1="6.49" x2="2549.22" y2="7.01" gradientTransform="matrix(-1, 0, 0, 1, 2576.84, 0)" gradientUnits="userSpaceOnUse"><stop offset="0.13" stop-color="#e7e8e9"/><stop offset="0.13" stop-color="#dbdbdb"/><stop offset="0.44" stop-color="#dbdbdb"/><stop offset="0.44" stop-color="#a9aaab"/><stop offset="0.84" stop-color="#a9aaab"/><stop offset="0.84" stop-color="#7e7f80"/></linearGradient></defs><g id="Слой_2" data-name="Слой 2"><g id="Layer_1" data-name="Layer 1"><path d="M13.72,45.33,16,41.58l-.53-.31h0a1.1,1.1,0,0,0-1.1.11,3.42,3.42,0,0,0-1.6,2.66,1.09,1.09,0,0,0,.42,1h0Z"/><path class="cls-1" d="M15.61,41.81l-.94-.55a1.38,1.38,0,0,0-.28.13,3.42,3.42,0,0,0-1.6,2.66,1.75,1.75,0,0,0,.06.48l.58.34a1.9,1.9,0,0,0,.42-.18,2.86,2.86,0,0,0,.47-.33l1.2-2A3,3,0,0,0,15.61,41.81Z"/><path class="cls-2" d="M16.44,42.57a3.46,3.46,0,0,1-1.6,2.66c-.87.49-1.57.09-1.56-.9a3.43,3.43,0,0,1,1.6-2.66C15.75,41.18,16.45,41.58,16.44,42.57Z"/><path class="cls-3" d="M16.38,42.6a3.31,3.31,0,0,1-1.54,2.56c-.84.47-1.51.08-1.5-.86a3.28,3.28,0,0,1,1.54-2.56C15.72,41.27,16.39,41.66,16.38,42.6Z"/><path class="cls-4" d="M16,42.79a2.59,2.59,0,0,1-1.2,2c-.65.36-1.17.06-1.16-.67a2.56,2.56,0,0,1,1.2-2C15.53,41.76,16.05,42.06,16,42.79Z"/><path class="cls-5" d="M16,42.84a2.39,2.39,0,0,1-1.12,1.85c-.6.34-1.09.06-1.08-.63a2.41,2.41,0,0,1,1.11-1.85C15.48,41.87,16,42.15,16,42.84Z"/><path class="cls-6" d="M14.86,42.22a2.39,2.39,0,0,0-1.1,1.84,1.12,1.12,0,0,0,0,.27l.79.47a1.83,1.83,0,0,0,.26-.11A2.38,2.38,0,0,0,16,42.87Z"/><path class="cls-7" d="M14.26,42.77a2.54,2.54,0,0,0-.46.95l1.32.78a2.58,2.58,0,0,0,.63-.85Z"/><path class="cls-8" d="M14.26,42.77a2.54,2.54,0,0,0-.46.95l1.32.78a2.58,2.58,0,0,0,.63-.85Z"/><path class="cls-9" d="M15.75,42.87a2,2,0,0,1-1,1.6c-.52.29-.94.05-.93-.54a2.09,2.09,0,0,1,1-1.6C15.34,42,15.76,42.28,15.75,42.87Z"/><path class="cls-10" d="M15.75,43.12A1.62,1.62,0,0,1,15,44.39c-.41.23-.74,0-.74-.43A1.63,1.63,0,0,1,15,42.7C15.43,42.47,15.76,42.66,15.75,43.12Z"/><polygon class="cls-11" points="14.44 40.89 14.72 44.02 14.12 43.59 12.79 41.77 14.44 40.89"/><polygon class="cls-12" points="15.04 41.31 15.34 43.5 14.72 44.02 13.39 42.2 15.04 41.31"/><path d="M5.34,40.48l2.3-3.75-.53-.31h0a1.11,1.11,0,0,0-1.1.1,3.43,3.43,0,0,0-1.6,2.67,1.07,1.07,0,0,0,.41,1h0Z"/><path class="cls-1" d="M7.23,37l-.94-.55a1.69,1.69,0,0,0-.28.12,3.43,3.43,0,0,0-1.6,2.67,1.75,1.75,0,0,0,.06.48l.58.33a1.76,1.76,0,0,0,.42-.17,2.86,2.86,0,0,0,.47-.33l1.2-2A3,3,0,0,0,7.23,37Z"/><path class="cls-2" d="M8.05,37.72a3.41,3.41,0,0,1-1.6,2.66c-.87.49-1.56.08-1.55-.9a3.43,3.43,0,0,1,1.6-2.66C7.37,36.33,8.07,36.73,8.05,37.72Z"/><path class="cls-3" d="M8,37.75a3.3,3.3,0,0,1-1.54,2.56c-.83.47-1.5.08-1.49-.86A3.28,3.28,0,0,1,6.5,36.89C7.33,36.42,8,36.8,8,37.75Z"/><path class="cls-4" d="M7.65,37.94a2.58,2.58,0,0,1-1.19,2c-.65.36-1.17.06-1.16-.67a2.55,2.55,0,0,1,1.19-2C7.14,36.91,7.66,37.21,7.65,37.94Z"/><path class="cls-13" d="M7.57,38a2.38,2.38,0,0,1-1.11,1.86c-.61.34-1.09.06-1.08-.63a2.38,2.38,0,0,1,1.11-1.85C7.1,37,7.58,37.3,7.57,38Z"/><path class="cls-14" d="M6.48,37.37a2.38,2.38,0,0,0-1.1,1.84,2.13,2.13,0,0,0,0,.27l.79.47a1.53,1.53,0,0,0,.27-.11A2.38,2.38,0,0,0,7.57,38Z"/><path class="cls-7" d="M5.87,37.92a2.52,2.52,0,0,0-.45.95l1.31.78a2.48,2.48,0,0,0,.64-.85Z"/><path class="cls-8" d="M5.87,37.92a2.52,2.52,0,0,0-.45.95l1.31.78a2.48,2.48,0,0,0,.64-.85Z"/><path class="cls-9" d="M7.37,38a2.09,2.09,0,0,1-1,1.6c-.52.29-.94.05-.93-.54a2,2,0,0,1,1-1.6C7,37.19,7.38,37.43,7.37,38Z"/><path class="cls-10" d="M7.37,38.27a1.63,1.63,0,0,1-.76,1.26c-.41.24-.74,0-.74-.42a1.63,1.63,0,0,1,.76-1.26C7,37.61,7.37,37.8,7.37,38.27Z"/><path d="M19.2,31l2.3-3.75L21,26.91h0a1.15,1.15,0,0,0-1.1.11,3.43,3.43,0,0,0-1.6,2.66,1.07,1.07,0,0,0,.41,1h0l0,0h0Z"/><path class="cls-1" d="M21.09,27.45l-.94-.55a1.69,1.69,0,0,0-.28.12,3.43,3.43,0,0,0-1.6,2.66,1.65,1.65,0,0,0,.06.48l.58.34a2.31,2.31,0,0,0,.42-.17A2.94,2.94,0,0,0,19.8,30L21,28A3,3,0,0,0,21.09,27.45Z"/><path class="cls-2" d="M21.91,28.2a3.41,3.41,0,0,1-1.6,2.67c-.87.48-1.56.08-1.55-.9a3.42,3.42,0,0,1,1.6-2.66C21.23,26.82,21.93,27.22,21.91,28.2Z"/><path class="cls-3" d="M21.85,28.24a3.31,3.31,0,0,1-1.53,2.56c-.84.47-1.51.08-1.5-.87a3.27,3.27,0,0,1,1.54-2.55C21.19,26.91,21.86,27.29,21.85,28.24Z"/><path class="cls-4" d="M21.51,28.43a2.55,2.55,0,0,1-1.19,2c-.65.37-1.17.07-1.16-.66a2.55,2.55,0,0,1,1.19-2C21,27.39,21.52,27.69,21.51,28.43Z"/><path class="cls-5" d="M21.43,28.47a2.34,2.34,0,0,1-1.11,1.85c-.61.34-1.09.06-1.08-.62a2.38,2.38,0,0,1,1.11-1.85C21,27.51,21.44,27.79,21.43,28.47Z"/><path class="cls-6" d="M20.34,27.86a2.38,2.38,0,0,0-1.1,1.84,2.13,2.13,0,0,0,0,.27l.79.47a1.07,1.07,0,0,0,.27-.12,2.36,2.36,0,0,0,1.11-1.81Z"/><path class="cls-7" d="M19.73,28.4a2.67,2.67,0,0,0-.45,1l1.31.78a2.54,2.54,0,0,0,.64-.84Z"/><path class="cls-15" d="M19.73,28.4a2.67,2.67,0,0,0-.45,1l1.31.78a2.54,2.54,0,0,0,.64-.84Z"/><path class="cls-9" d="M21.23,28.51a2.05,2.05,0,0,1-1,1.59c-.52.3-.94.06-.93-.53a2,2,0,0,1,1-1.6C20.82,27.68,21.24,27.92,21.23,28.51Z"/><path class="cls-16" d="M21.23,28.76A1.63,1.63,0,0,1,20.47,30c-.41.23-.74,0-.74-.42a1.65,1.65,0,0,1,.76-1.27C20.9,28.1,21.23,28.29,21.23,28.76Z"/><path d="M30.25,37.26l2.29-3.75L32,33.2h0a1.13,1.13,0,0,0-1.11.1A3.42,3.42,0,0,0,29.32,36a1.07,1.07,0,0,0,.41,1h0Z"/><path class="cls-1" d="M32.13,33.74l-.94-.55-.28.12A3.42,3.42,0,0,0,29.32,36a1.44,1.44,0,0,0,.06.48l.58.34a2.41,2.41,0,0,0,.42-.18,2.79,2.79,0,0,0,.46-.33l1.21-2A2.38,2.38,0,0,0,32.13,33.74Z"/><path class="cls-2" d="M33,34.5a3.43,3.43,0,0,1-1.6,2.66c-.87.49-1.57.09-1.55-.9A3.42,3.42,0,0,1,31.4,33.6C32.28,33.11,33,33.51,33,34.5Z"/><path class="cls-3" d="M32.9,34.53a3.28,3.28,0,0,1-1.54,2.56c-.84.47-1.51.08-1.49-.86a3.3,3.3,0,0,1,1.53-2.56C32.24,33.2,32.91,33.59,32.9,34.53Z"/><path class="cls-4" d="M32.56,34.72a2.58,2.58,0,0,1-1.19,2c-.65.36-1.17.06-1.16-.67a2.54,2.54,0,0,1,1.19-2C32.05,33.69,32.57,34,32.56,34.72Z"/><path class="cls-13" d="M32.48,34.76a2.41,2.41,0,0,1-1.11,1.86c-.61.34-1.09.06-1.09-.63a2.39,2.39,0,0,1,1.12-1.85C32,33.8,32.49,34.08,32.48,34.76Z"/><path class="cls-14" d="M31.38,34.15A2.39,2.39,0,0,0,30.28,36a1.12,1.12,0,0,0,0,.27l.79.47a1.53,1.53,0,0,0,.27-.11,2.44,2.44,0,0,0,1.11-1.82Z"/><path class="cls-7" d="M30.78,34.7a2.38,2.38,0,0,0-.45.95l1.31.78a2.45,2.45,0,0,0,.63-.85Z"/><path class="cls-8" d="M30.78,34.7a2.38,2.38,0,0,0-.45.95l1.31.78a2.45,2.45,0,0,0,.63-.85Z"/><path class="cls-9" d="M32.28,34.8a2.07,2.07,0,0,1-1,1.6c-.53.29-.94.05-.94-.54a2.09,2.09,0,0,1,1-1.6C31.87,34,32.28,34.21,32.28,34.8Z"/><path class="cls-10" d="M32.28,35.05a1.67,1.67,0,0,1-.76,1.27c-.42.23-.75,0-.74-.43a1.58,1.58,0,0,1,.76-1.26C32,34.4,32.28,34.59,32.28,35.05Z"/><polygon class="cls-11" points="31.02 32.83 31.3 35.96 30.7 35.54 29.37 33.72 31.02 32.83"/><polygon class="cls-12" points="31.62 33.25 31.92 35.44 31.3 35.96 29.97 34.14 31.62 33.25"/><polygon class="cls-11" points="6.06 35.52 6.62 35.73 5.78 38.53 4.45 36.71 6.06 35.52"/><polygon class="cls-12" points="6.66 35.94 7 38.43 6.38 38.95 5.05 37.13 6.66 35.94"/><path class="cls-11" d="M11.65,42,4.9,38.09a.94.94,0,0,1-.47-.79.91.91,0,0,1,.41-.81l14.31-9.77a2.47,2.47,0,0,1,2.63-.09l9.66,5.58a.94.94,0,0,1,.48.86,1,1,0,0,1-.55.82l-17.43,8.2a2.55,2.55,0,0,1-1,.23A2.48,2.48,0,0,1,11.65,42Zm7.94-14.62L5.28,37.13a.15.15,0,0,0-.07.14.15.15,0,0,0,.08.14L12,41.31a1.71,1.71,0,0,0,1.57.07L31,33.18a.17.17,0,0,0,.1-.15.18.18,0,0,0-.09-.15L21.39,27.3a1.71,1.71,0,0,0-.85-.22A1.64,1.64,0,0,0,19.59,27.37Z"/><path class="cls-17" d="M11.59,41.76,4.84,37.87a.79.79,0,0,1-.39-.64.77.77,0,0,1,.34-.67l14.3-9.76a2.33,2.33,0,0,1,2.45-.1l9.67,5.58a.79.79,0,0,1,.38.71.75.75,0,0,1-.44.66l-17.43,8.2a2.2,2.2,0,0,1-1,.22A2.33,2.33,0,0,1,11.59,41.76Zm7.75-14.61L5,36.91a.36.36,0,0,0-.15.3.33.33,0,0,0,.17.28l6.75,3.9a1.84,1.84,0,0,0,.94.25,1.87,1.87,0,0,0,.8-.18L31,33.26a.32.32,0,0,0,.19-.29.33.33,0,0,0-.17-.31l-9.66-5.58a1.89,1.89,0,0,0-2,.07Z"/><polygon class="cls-12" points="20.56 26.81 20.86 29 20.24 29.52 18.91 27.7 20.56 26.81"/><path class="cls-11" d="M11.55,42,4.8,38.05c-.19-.11-.39-.35-.42-1.3,0-.19-.06-1.91.46-2.27l14.31-9.76c.71-.49,1.36.38,1.89,1.08a3.52,3.52,0,0,0,.74.83l8.49,4.91.43-.15c.24-.11,1.67,1.25,1.06,2.16-.14.22-.48-.53-.71-.66l-.82-.47L13.94,40.08a3.5,3.5,0,0,0-.68.8c-.4.55-.85,1.17-1.36,1.17A.69.69,0,0,1,11.55,42Zm9.84-14.64a3.65,3.65,0,0,1-1-1c-.24-.31-.67-.88-.83-.9L5.32,35.1a5.29,5.29,0,0,0-.07,2.31l6.66,3.84a4.19,4.19,0,0,0,.72-.83,3.2,3.2,0,0,1,1-1l15.8-7.44Z"/><path class="cls-17" d="M11.52,41.74l-6.76-3.9c-.08-.05-.29-.17-.33-1.15s.09-1.92.39-2.12l14.3-9.76a.56.56,0,0,1,.33-.12c.46,0,.94.64,1.33,1.16a3.94,3.94,0,0,0,.79.88l8.57,4.94.37-.19s1.22,1.57,1,1.83a.52.52,0,0,1-.32.16c-.06,0-.37-.78-.43-.81l-.29-.36a.38.38,0,0,0-.44-.09L13.75,39.86a3,3,0,0,0-.75.85c-.38.52-.81,1.1-1.22,1.1A.48.48,0,0,1,11.52,41.74Zm7.9-16.62L5.06,34.92l0,0A5.37,5.37,0,0,0,5,37.42l0,0,6.8,3.92.08,0a3.22,3.22,0,0,0,.79-.89,3.19,3.19,0,0,1,.92-1l16.1-7.57-8.32-4.8a3.94,3.94,0,0,1-.91-1c-.54-.71-.77-1-1-1Z"/><path class="cls-12" d="M28.63,32.34s.13.18.45.06.33-.26.33-.26l-1-4.2,1.26-.55.9,4.19.4.5.5-.09-1.22-5.73-2.78,1.21Z"/><path class="cls-18" d="M28.78,32.4a.2.2,0,0,0,.1,0,.27.27,0,0,0,.2-.31l-1-4.18,1.57-.67.93,4.34.31.4.25-.05L30,26.54l-2.48,1.07,1.12,4.74h0A.17.17,0,0,0,28.78,32.4Z"/><path class="cls-12" d="M18.22,27.44a.33.33,0,0,0,.44.15.44.44,0,0,0,.3-.5L18,23l1.27-.54.9,4.18.4.51.5-.09-1.22-5.73-2.78,1.2Z"/><path class="cls-18" d="M20.09,10.25a3.13,3.13,0,0,1,.83-.33l.19-3.14,0-.37-1.07-.06-.06,1-.18,3.05Z"/><path class="cls-18" d="M19.61,13.83l.43-.25a2.71,2.71,0,0,1,.68-.28l.17-2.79a1.85,1.85,0,0,0-.52.22l-.59.34Z"/><path class="cls-18" d="M19.41,17.34l.53-.31.2-.1.38-.14.17-2.89a1.73,1.73,0,0,0-.37.16l-.74.43Z"/><path class="cls-18" d="M19.23,20.38l1.07.06.18-3.08a1.74,1.74,0,0,0-.27.14l-.1.06-.74.43Z"/><path class="cls-12" d="M2.89,29.68l0,0h0l.08.05,1.64.94a0,0,0,0,1,0,0h0l1.6.93.07,0,0,0,1.51.87.14.08.14.06A2.88,2.88,0,0,0,9.35,33a2.66,2.66,0,0,0,.83-.13l.18-.05,18.51-6.93a1.31,1.31,0,0,0,.85-1,1.51,1.51,0,0,0,0-.37l-.05-.56c0-.12,0-.24,0-.36l-.75-.44c0,.3.05.58.08.87l0,.45v.11a.61.61,0,0,1-.39.63L10.1,32.11a2,2,0,0,1-1,.13,2.09,2.09,0,0,1-.7-.2l-.08,0-.08,0-.14-.08L6.68,31h0l-.31-.18L4.94,30l-.37-.21-1.32-.76h0Z"/><path class="cls-12" d="M2.75,29.61h0l.07.05.06,0,0,0H3l0,0,1.52.88h0l1.57.91a.76.76,0,0,0,.18.09l.07,0,0,0,.06,0,.07,0a2.81,2.81,0,0,0,1,.19,2.76,2.76,0,0,0,.57-.06.9.9,0,0,0,.27-.07l.16,0,18.52-6.93a1.3,1.3,0,0,0,.84-1,1.09,1.09,0,0,0,0-.36l-.05-.54c0-.13,0-.26,0-.38l-.76-.44c0,.3.05.6.08.89l0,.42v.12a.6.6,0,0,1-.4.63L8.3,31.09a2,2,0,0,1-.94.13,2.32,2.32,0,0,1-.63-.15l-.05,0h0L6.52,31l0,0-.14-.08L4.83,30h0l-.27-.16-1.3-.75L3.09,29H3v.32Z"/><path class="cls-12" d="M2.72,29.55l0,0,.19.11h0l.08.05,1.34.78.21.1h0l.11.05a0,0,0,0,1,0,0h0l0,0h0a3,3,0,0,0,1,.17,2.76,2.76,0,0,0,.57-.06h0l.21-.05h0l.15-.05,18.52-6.92a1.31,1.31,0,0,0,.85-1,1.37,1.37,0,0,0,0-.35l-.06-.64,0-.3h0l-.76-.44c0,.28.05.54.07.81l.05.5,0,.14a.61.61,0,0,1-.39.63L6.51,30.07a2,2,0,0,1-.93.12A1.68,1.68,0,0,1,5,30.06l-.06,0-.05,0h0l0,0h0l-.15-.08-.13-.08h0l-1.3-.74L3.08,29h0l0,0-.15,0v.33l-.35.17Z"/><path class="cls-12" d="M2.72,29.55l0,0,.16.11h.08l0,0H3v0h.1A3,3,0,0,0,4,29.9a2.25,2.25,0,0,0,.58-.07h0l.26-.07.14,0,18.52-6.93a1.3,1.3,0,0,0,.85-1h0a1.82,1.82,0,0,0,0-.33l-.05-.54c0-.14,0-.28-.05-.42L23.5,20c0,.31.05.61.08.92l0,.39,0,.14a.62.62,0,0,1-.4.64L4.71,29a2.1,2.1,0,0,1-.89.13,1.93,1.93,0,0,1-.49-.09l0,0L3.09,29h0l0,0,0,0H2.89v.33l-.35.17Z"/><path class="cls-12" d="M1.55,28.8a2.7,2.7,0,0,0,.63.07,2.93,2.93,0,0,0,.87-.14l.12,0,18.52-6.92a1.31,1.31,0,0,0,.85-1.06,1.13,1.13,0,0,0,0-.32l0-.34-.06-.56a3.08,3.08,0,0,0-.73-.16c0,.27.05.54.08.8l0,.3v0a.61.61,0,0,1-.39.63L2.92,28a2.21,2.21,0,0,1-.84.13,1.5,1.5,0,0,1-.37,0H1.63v.37Z"/><path class="cls-17" d="M9.24,32.7a2.5,2.5,0,0,0,.78-.12l.17,0L28.71,25.6a1.2,1.2,0,0,0,.76-1.21s-.07-.73-.08-.82L29,23.32c0,.09.11,1.11.11,1.11a.76.76,0,0,1-.49.8L10.05,32.16a2.22,2.22,0,0,1-.8.15l-.25,0a2.32,2.32,0,0,1-.75-.21l-.08,0L8.08,32,3.2,29.18,3,29.52l1.59.91h0l0,0,1.62.94.08,0,0,0,1.51.87.13.08.13.06A2.73,2.73,0,0,0,9.24,32.7Z"/><path class="cls-17" d="M7.45,31.67A2.47,2.47,0,0,0,8,31.62l.24-.06.16,0,18.53-6.93a1.14,1.14,0,0,0,.74-.89,1.22,1.22,0,0,0,0-.33l-.05-.53,0-.3-.42-.24c0,.19,0,.39.06.58l.05.54a.77.77,0,0,1-.5.8L8.25,31.14a2.35,2.35,0,0,1-.79.14H7.24a2.4,2.4,0,0,1-.68-.16L6.34,31h0l-.18-.11L4.64,30l-1.56-.91v.16l-.18.19h0l.06.05,1.52.87,0,0,0,0,1.53.88.13.07.08,0,.06,0,.12.05A2.91,2.91,0,0,0,7.45,31.67Z"/><path class="cls-17" d="M5.65,30.65a2.15,2.15,0,0,0,.51,0h.09l.17,0,0,0h.06l.09,0,18.52-6.92a1.17,1.17,0,0,0,.75-.91,1.5,1.5,0,0,0,0-.3s-.08-.79-.08-.86l-.42-.24c0,.17.1,1,.1,1v.13a.77.77,0,0,1-.49.81L6.46,30.11a2.12,2.12,0,0,1-.78.15H5.46a2.3,2.3,0,0,1-.63-.14l-.08,0h0l0,0-.06,0h0L4.49,30l-.11-.07-1.44-.83v.22l-.17.08.07,0,0,0,1.49.86a1,1,0,0,0,.18.09l0,0,0,0h0l.08,0h0A2.76,2.76,0,0,0,5.65,30.65Z"/><path class="cls-17" d="M3.85,29.63a2.35,2.35,0,0,0,.54-.06,2.49,2.49,0,0,0,.29-.07l.12,0,18.53-6.93a1.14,1.14,0,0,0,.74-.91,1,1,0,0,0,0-.3L24,20.45l-.41-.24.09,1,0,.15a.76.76,0,0,1-.5.8L4.66,29.09a2.45,2.45,0,0,1-.8.14H3.7a3.1,3.1,0,0,1-.53-.1h0l0,0L3,29h0v.23l-.17.08.07,0,0,.05h.06l0,0h0l0,0H3A3.27,3.27,0,0,0,3.85,29.63Z"/><path class="cls-17" d="M2.07,28.6a2.6,2.6,0,0,0,.82-.13l.12,0,18.52-6.92a1.15,1.15,0,0,0,.74-.93.92.92,0,0,0,0-.29s-.07-.64-.09-.79a2.59,2.59,0,0,0-.4-.09c0,.14,0,.27,0,.4l.05.5a.77.77,0,0,1-.49.83L2.87,28.06a2.11,2.11,0,0,1-.78.14H2a1.12,1.12,0,0,1-.27,0v.19l-.05.21A3.11,3.11,0,0,0,2.07,28.6Z"/><rect class="cls-19" x="23.67" y="17.74" width="0.72" height="12.24" transform="translate(-8.83 32.05) rotate(-58.79)"/><rect class="cls-19" x="21.92" y="18.39" width="0.72" height="12.24" transform="translate(-10.23 30.85) rotate(-58.77)"/><rect class="cls-19" x="19.77" y="19.04" width="0.72" height="12.24" transform="translate(-11.82 29.33) rotate(-58.78)"/><rect class="cls-19" x="18.13" y="19.85" width="0.72" height="12.24" transform="translate(-13.31 28.32) rotate(-58.79)"/><rect class="cls-19" x="16.12" y="20.43" width="0.72" height="12.24" transform="translate(-14.77 26.87) rotate(-58.77)"/><rect class="cls-19" x="14.33" y="21.17" width="0.72" height="12.24" transform="translate(-16.26 25.71) rotate(-58.78)"/><rect class="cls-19" x="12.55" y="22.12" width="0.72" height="12.24" transform="translate(-17.93 24.63) rotate(-58.77)"/><rect class="cls-19" x="10.55" y="22.72" width="0.72" height="12.24" transform="translate(-19.41 23.22) rotate(-58.77)"/><rect class="cls-19" x="8.56" y="23.32" width="0.72" height="12.24" transform="translate(-20.88 21.8) rotate(-58.78)"/><rect class="cls-17" x="23.89" y="17.76" width="0.39" height="11.92" transform="translate(-8.68 32.03) rotate(-58.8)"/><rect class="cls-17" x="22.14" y="18.41" width="0.39" height="11.92" transform="translate(-10.08 30.85) rotate(-58.79)"/><rect class="cls-17" x="19.98" y="19.06" width="0.39" height="11.92" transform="matrix(0.52, -0.86, 0.86, 0.52, -11.68, 29.32)"/><rect class="cls-17" x="18.35" y="19.88" width="0.39" height="11.92" transform="translate(-13.16 28.31) rotate(-58.79)"/><rect class="cls-17" x="16.33" y="20.45" width="0.39" height="11.92" transform="translate(-14.62 26.86) rotate(-58.79)"/><rect class="cls-17" x="14.55" y="21.2" width="0.39" height="11.92" transform="translate(-16.12 25.7) rotate(-58.79)"/><rect class="cls-17" x="12.77" y="22.14" width="0.39" height="11.92" transform="translate(-17.79 24.63) rotate(-58.79)"/><rect class="cls-17" x="10.77" y="22.74" width="0.39" height="11.92" transform="translate(-19.26 23.21) rotate(-58.79)"/><rect class="cls-17" x="8.78" y="23.34" width="0.39" height="11.92" transform="translate(-20.74 21.79) rotate(-58.79)"/><rect class="cls-12" x="16.34" y="9.1" width="0.54" height="12.25" transform="translate(-1.05 1.24) rotate(-4.13)"/><rect class="cls-12" x="14.44" y="10.32" width="0.54" height="11.75" transform="translate(-1.16 1.14) rotate(-4.26)"/><rect class="cls-12" x="12.55" y="11.54" width="0.54" height="11.24" transform="translate(-1.3 1.05) rotate(-4.47)"/><rect class="cls-12" x="10.65" y="12.76" width="0.54" height="10.73" transform="translate(-1.45 0.95) rotate(-4.7)"/><rect class="cls-12" x="8.76" y="13.98" width="0.54" height="10.22" transform="translate(-1.61 0.85) rotate(-4.93)"/><rect class="cls-12" x="6.86" y="15.2" width="0.54" height="9.72" transform="translate(-1.77 0.72) rotate(-5.16)"/><rect class="cls-12" x="4.97" y="16.42" width="0.54" height="9.21" transform="translate(-1.99 0.6) rotate(-5.5)"/><rect class="cls-12" x="3.07" y="17.64" width="0.54" height="8.7" transform="translate(-2.18 0.44) rotate(-5.72)"/><rect class="cls-12" x="1.18" y="18.86" width="0.54" height="8.19" transform="translate(-2.46 0.29) rotate(-6.17)"/><polygon class="cls-12" points="18.53 20.7 19.06 20.68 18.45 7.9 17.91 7.93 18.53 20.7"/><rect class="cls-18" x="16.37" y="9.29" width="0.21" height="11.93" transform="translate(-1.05 1.21) rotate(-4.09)"/><rect class="cls-18" x="14.47" y="10.51" width="0.21" height="11.42" transform="translate(-1.17 1.13) rotate(-4.27)"/><rect class="cls-18" x="12.58" y="11.73" width="0.21" height="10.92" transform="translate(-1.3 1.04) rotate(-4.46)"/><polygon class="cls-18" points="11.32 23.33 10.47 12.96 10.26 12.97 11.11 23.35 11.32 23.33"/><polygon class="cls-18" points="9.42 24.04 8.58 14.18 8.36 14.2 9.21 24.06 9.42 24.04"/><polygon class="cls-18" points="7.53 24.75 6.68 15.4 6.47 15.42 7.31 24.77 7.53 24.75"/><rect class="cls-18" x="5" y="16.61" width="0.21" height="8.89" transform="translate(-1.97 0.58) rotate(-5.44)"/><rect class="cls-18" x="3.1" y="17.83" width="0.21" height="8.38" transform="translate(-2.19 0.43) rotate(-5.76)"/><rect class="cls-18" x="1.2" y="19.04" width="0.21" height="7.87" transform="translate(-2.44 0.27) rotate(-6.12)"/><polygon class="cls-18" points="18.76 20.55 18.16 8.1 17.95 8.11 18.55 20.56 18.76 20.55"/><polygon class="cls-11" points="7.93 24.18 9.13 24.87 16.18 22.23 20.3 19.55 7.93 24.18"/><path class="cls-11" d="M2,26.4l0,.21.06.67,0,.28a.4.4,0,0,1,.16-.12l5.59-2.08-1.21-.7Z"/><path class="cls-12" d="M20.84,17.15a2.24,2.24,0,0,1,2,.13l7.66,4.42.42.24a.69.69,0,0,1,.33.45,1.24,1.24,0,0,1,0-.38c0-.3.31-.2.31-.2a1.21,1.21,0,0,0-.38-.33l-.64-.37-7.44-4.3a2.74,2.74,0,0,0-2.2-.24Z"/><path class="cls-11" d="M30.9,21.75a.41.41,0,0,1,.12-.18.38.38,0,0,0-.13-.09l-8.07-4.67a2.68,2.68,0,0,0-1.3-.34,2.52,2.52,0,0,0-.67.09l0,.22a2.24,2.24,0,0,1,.68-.1,2.4,2.4,0,0,1,1.2.32l8.07,4.67A.5.5,0,0,1,30.9,21.75Z"/><path class="cls-12" d="M21,13.7a2.24,2.24,0,0,1,2,.13l7.66,4.42.41.25a.66.66,0,0,1,.34.44,1.53,1.53,0,0,1,0-.38.21.21,0,0,1,.31-.19,1.12,1.12,0,0,0-.38-.34l-.63-.37-7.44-4.3a2.8,2.8,0,0,0-2.21-.23Z"/><path class="cls-11" d="M31.08,18.3a.29.29,0,0,1,.12-.18L31.07,18,23,13.37A2.55,2.55,0,0,0,21.7,13a2.59,2.59,0,0,0-.68.09v.22a2.6,2.6,0,0,1,.68-.1,2.42,2.42,0,0,1,1.2.32L31,18.22Z"/><path class="cls-12" d="M21.11,10.41a2.24,2.24,0,0,1,2,.13L30.73,15l.42.25a.65.65,0,0,1,.33.44,2.69,2.69,0,0,1,0-.38.21.21,0,0,1,.31-.19,1.12,1.12,0,0,0-.38-.34l-.63-.37-7.44-4.3a2.81,2.81,0,0,0-2.21-.23Z"/><path class="cls-11" d="M31.16,15a.35.35,0,0,1,.13-.18l-.14-.09-8.07-4.66a2.55,2.55,0,0,0-1.29-.35,2.59,2.59,0,0,0-.68.09V10a2.53,2.53,0,0,1,.67-.1,2.4,2.4,0,0,1,1.2.32l8.08,4.67Z"/><path class="cls-11" d="M6.36,30.85l.3.18h0l.05,0a2.32,2.32,0,0,0,.63.15l-.75-.43h0Zm0,0,.3.18h0l.05,0a2.32,2.32,0,0,0,.63.15l-.75-.43h0Zm0,0,.3.18h0l.05,0a2.32,2.32,0,0,0,.63.15l-.75-.43h0Zm0,0,.3.18h0l.05,0a2.32,2.32,0,0,0,.63.15l-.75-.43h0Zm0,0,.3.18h0l.05,0a2.32,2.32,0,0,0,.63.15l-.75-.43h0Zm0,0,.3.18h0l.05,0a2.32,2.32,0,0,0,.63.15l-.75-.43h0Zm.26-6.19,1.21.7,1.3-.49-1.2-.69Zm-.26,6.19.3.18h0l.05,0a2.32,2.32,0,0,0,.63.15l-.75-.43h0Zm0,0,.3.18h0l.05,0a2.32,2.32,0,0,0,.63.15l-.75-.43h0Zm0,0,.3.18h0l.05,0a2.32,2.32,0,0,0,.63.15l-.75-.43h0Zm0,0,.3.18h0l.05,0a2.32,2.32,0,0,0,.63.15l-.75-.43h0Z"/><path class="cls-11" d="M1.64,29.16l8,4.6a2.94,2.94,0,0,0,1.52.41A3.06,3.06,0,0,0,12.21,34l18.53-6.93a1.5,1.5,0,0,0,1-1.29A1.48,1.48,0,0,0,31,24.34l-1.32-.77-.75-.44-1-.59-.76-.44-1-.6h0l-.76-.44-1-.6L23.5,20l-.51-.3a2.87,2.87,0,0,0-.54-.24l-.05,0-1.6,1a1.91,1.91,0,0,1,1-.08,1.93,1.93,0,0,1,.62.23l.09.05,1.08.63.72.41h0l1.07.62.72.42,1.09.62.7.41,1.09.63.71.41.71.41a.41.41,0,0,1,.21.41.42.42,0,0,1-.28.37L11.83,33a2,2,0,0,1-1.65-.13s0,0,0,0l-1-.59-.73-.43-1-.59a2.32,2.32,0,0,1-.63-.15l-.05,0h0l-.3-.18.21-.05h0l-1-.6-.75-.43-1-.59-.77-.44-.87-.5-.05,0a.12.12,0,0,1,0-.05.44.44,0,0,1,0-.59l0-.28L2,26.61l0-.21-.1,0a1.47,1.47,0,0,0-.89.9,1.24,1.24,0,0,0-.09.38A1.51,1.51,0,0,0,1.64,29.16Z"/><path class="cls-12" d="M6.75,25.27l13-7.5.74-.43.1-.06.27-.13,0-.58a2.5,2.5,0,0,0-.38.15l-.2.1-.53.3L6.44,24.83C6.37,24.86,6.72,25.29,6.75,25.27Z"/><path class="cls-11" d="M20.49,17l.36-.22,0-.23-.37.21-.12.05-13.74,8a1.09,1.09,0,0,0,.13.17Z"/><path class="cls-12" d="M20.45,10a2.8,2.8,0,0,1,.83-.32l.19-3.14,0-.37-1.07-.07-.06,1-.18,3.05Z"/><path class="cls-20" d="M20.18,10.19l.27-.16a2.62,2.62,0,0,1,.48-.22l.18-3,0-.37-.73,0,0,.77Z"/><path class="cls-12" d="M20,13.61l.43-.24a2.71,2.71,0,0,1,.68-.28l.17-2.8a2.2,2.2,0,0,0-.52.22l-.59.35Z"/><path class="cls-20" d="M20,13.61l.43-.24.33-.17.16-2.69a1.92,1.92,0,0,0-.51.22l-.24.14Z"/><path class="cls-12" d="M19.77,17.12l.53-.3.2-.1a2.5,2.5,0,0,1,.38-.15l.17-2.89a1.76,1.76,0,0,0-.37.17l-.74.43Z"/><path class="cls-20" d="M19.77,17.12l.53-.3.2-.1h0l.16-2.81a1.73,1.73,0,0,0-.37.16l-.38.23Z"/><path class="cls-12" d="M19.59,20.16l1.07.06.18-3.07-.27.13-.1.06-.74.43Z"/><path class="cls-20" d="M19.59,20.16l.73,0,.17-2.84a1.74,1.74,0,0,0-.27.14l-.11.06-.38.22Z"/><path class="cls-20" d="M28.89,23.13l.75.44a15.25,15.25,0,0,1-.07-2.94l1-10.24-.72-.07-1,10.24A13.75,13.75,0,0,0,28.89,23.13Z"/><path class="cls-20" d="M27.09,22.1l.76.44a15.16,15.16,0,0,1-.1-3l.92-10.27L28,9.21,27,19.47A14.43,14.43,0,0,0,27.09,22.1Z"/><path class="cls-20" d="M25.29,21.06l.76.44a16.74,16.74,0,0,1-.1-3l.92-10.27-.71-.06-.92,10.26A15.25,15.25,0,0,0,25.29,21.06Z"/><path class="cls-20" d="M23.5,20l.75.43a14.54,14.54,0,0,1-.06-2.87l1-10.29-.71-.08-1.05,10.3A14,14,0,0,0,23.5,20Z"/><path class="cls-20" d="M21.72,19.33a3.08,3.08,0,0,1,.73.16,7.73,7.73,0,0,1,0-.83L23.59,6.35l-.71-.07L21.72,18.6A5.92,5.92,0,0,0,21.72,19.33Z"/><path class="cls-21" d="M29.29,23.3a13.9,13.9,0,0,1,0-2.66l1-10.08-.39,0-1,10.08a13.29,13.29,0,0,0,0,2.46Z"/><path class="cls-21" d="M27.5,22.27a14.44,14.44,0,0,1-.07-2.72l.9-10.11-.39,0L27,19.51a13.92,13.92,0,0,0,0,2.52Z"/><path class="cls-21" d="M25.7,21.23a15.49,15.49,0,0,1-.07-2.71l.91-10.11-.4,0-.9,10.1a14.35,14.35,0,0,0,0,2.51Z"/><path class="cls-21" d="M23.9,20.19a14,14,0,0,1,0-2.59l1-10.13-.39,0-1,10.13a13.44,13.44,0,0,0,0,2.39Z"/><path class="cls-21" d="M22.11,19.29c0-.23,0-.43,0-.62L23.26,6.52l-.4,0L21.72,18.64a5.42,5.42,0,0,0,0,.57Z"/><rect class="cls-20" x="7.02" y="24.35" width="0.54" height="7.77" transform="translate(-2.51 0.77) rotate(-5.16)"/><rect class="cls-20" x="4.53" y="22.86" width="0.54" height="7.77" transform="translate(-2.39 0.54) rotate(-5.16)"/><rect class="cls-20" x="2.46" y="21.78" width="0.54" height="7.77" transform="translate(-2.3 0.35) rotate(-5.16)"/><path class="cls-20" d="M9.09,25.8l.17,1.94.06.68L9.56,31l0,.65.11,1.18a.71.71,0,0,0,.58.65.42.42,0,0,0,.53-.31l-.12-1.27-.05-.56-.23-2.57,0-.57-.22-2.48Z"/><path class="cls-20" d="M.4,20.92l.35,3.91L.91,26.6l.07.74L1,28s0,.58.51.58a.64.64,0,0,0,.59-.33l0-.64,0-.28L2,26.61l0-.21-.15-1.66-.05-.6-.3-3.32Z"/><path class="cls-12" d="M1.77,24.14l.05.6L19.94,14.28l.74-.43a1.76,1.76,0,0,1,.37-.17l0-.59a2.71,2.71,0,0,0-.68.28l-.43.24Z"/><path class="cls-11" d="M20.6,13.6a4.68,4.68,0,0,1,.55-.27v-.26a6.08,6.08,0,0,0-.68.33l-.43.24L1.94,24.12l0,.25Z"/><path class="cls-12" d="M2,20.72l.56.33L20.14,10.86l.59-.35a2.2,2.2,0,0,1,.52-.22l0-.58a2.8,2.8,0,0,0-.83.32l-.27.16Z"/><polygon class="cls-22" points="12.4 24.19 12.4 18.05 20.81 22.93 20.81 29.07 12.4 24.19"/><polygon class="cls-23" points="20.81 22.93 27.32 19.18 27.32 25.32 20.81 29.07 20.81 22.93"/><polygon class="cls-24" points="12.4 18.05 20.81 22.93 27.32 19.18 18.9 14.29 12.4 18.05"/><polygon class="cls-25" points="15.42 18.67 15.42 15.43 20.24 18.23 20.24 21.47 15.42 18.67"/><polygon class="cls-26" points="20.24 18.23 25.46 15.22 25.46 18.46 20.24 21.47 20.24 18.23"/><polygon class="cls-27" points="15.41 15.43 20.24 18.23 25.46 15.22 20.64 12.42 15.41 15.43"/><polygon class="cls-28" points="19.29 15 19.29 13.58 22.09 15.21 22.09 16.63 19.29 15"/><polygon class="cls-29" points="22.09 15.21 23.8 14.22 23.8 15.64 22.09 16.63 22.09 15.21"/><polygon class="cls-30" points="19.29 13.58 22.09 15.21 23.8 14.22 20.99 12.59 19.29 13.58"/><polygon class="cls-28" points="6.16 27.15 6.16 24.07 14.58 28.95 14.58 32.04 6.16 27.15"/><polygon class="cls-29" points="14.58 28.95 19.65 26.03 19.65 29.12 14.58 32.04 14.58 28.95"/><polygon class="cls-30" points="6.16 24.07 14.58 28.95 19.65 26.03 11.23 21.15 6.16 24.07"/><polygon class="cls-22" points="7.18 23.88 7.18 20 10.76 22.08 10.76 25.97 7.18 23.88"/><polygon class="cls-23" points="10.76 22.08 14.64 19.84 14.64 23.73 10.76 25.97 10.76 22.08"/><polygon class="cls-24" points="7.18 20 10.76 22.08 14.64 19.84 11.06 17.76 7.18 20"/><polygon class="cls-25" points="11.79 26.41 11.79 23.36 14.59 24.99 14.59 28.04 11.79 26.41"/><polygon class="cls-26" points="14.59 24.99 17.64 23.24 17.64 26.29 14.59 28.04 14.59 24.99"/><polygon class="cls-27" points="11.79 23.36 14.59 24.99 17.64 23.24 14.83 21.61 11.79 23.36"/><path class="cls-11" d="M20.06,10.61l.59-.35a4.67,4.67,0,0,1,.62-.24l0-.25a3.85,3.85,0,0,0-.76.29l-.27.16-18,10.39.23.14Z"/><path class="cls-20" d="M.46,21.57l0,.16h0a1.19,1.19,0,0,1,.34.69v0c0,.34.73-.78.73-.78v-.06L1.48,21v-.1Z"/><path class="cls-12" d="M27.5,27.49c.26.05.31-.28.31-.28L27,15.71l-.54,0,.82,11.49S27.25,27.43,27.5,27.49Z"/><path class="cls-12" d="M25.62,28.12a.35.35,0,0,0,.29-.26l-.82-10.93-.53,0,.82,10.94A.19.19,0,0,0,25.62,28.12Z"/><path class="cls-12" d="M23.7,28.84c.2,0,.31-.27.31-.27L23.2,18.14l-.54.05.82,10.45S23.48,28.79,23.7,28.84Z"/><path class="cls-12" d="M21.8,29.61c.26.09.32-.22.32-.22l-.82-10-.53.05.81,9.92S21.54,29.51,21.8,29.61Z"/><path class="cls-12" d="M19.88,30.35c.37.09.35-.22.35-.22l-.82-9.55-.54.05.81,9.45A.32.32,0,0,0,19.88,30.35Z"/><path class="cls-12" d="M18,31c.2,0,.31-.22.31-.22l-.82-9-.53.05.81,9S17.8,31,18,31Z"/><path class="cls-12" d="M16.16,31.68c.3,0,.26-.26.26-.26l-.8-8.4-.54.05.8,8.39A.27.27,0,0,0,16.16,31.68Z"/><path class="cls-12" d="M14.18,32.43a.27.27,0,0,0,.34-.3l-.8-7.89-.53.05L14,32.17S14,32.41,14.18,32.43Z"/><path class="cls-12" d="M12.3,33.19a.27.27,0,0,0,.33-.24l-.8-7.49-.54.06.8,7.4S12.1,33.17,12.3,33.19Z"/><path class="cls-12" d="M29.4,26.75c.14,0,.18-.24.18-.24l-.58-12-.53,0L29,26.6A.43.43,0,0,0,29.4,26.75Z"/><path class="cls-18" d="M27.47,27.34c.06,0,.1-.13.1-.15l-.81-11.31-.22,0,.81,11.32c0,.07,0,.1.1.11Z"/><path class="cls-18" d="M25.52,28a.19.19,0,0,0,.15-.14L24.86,17.1l-.21,0,.8,10.79V28h.06Z"/><path class="cls-18" d="M23.66,28.69s.07-.06.11-.13L23,18.32l-.22,0,.81,10.29s0,0,.1.06Z"/><path class="cls-18" d="M21.81,29.47s.07-.08.07-.11l-.81-9.82-.21,0,.8,9.76c0,.07,0,.11.11.14Z"/><path class="cls-18" d="M19.92,30.21h0l-.79-9.44-.21,0,.79,9.29s0,.11.07.13Z"/><path class="cls-18" d="M18,30.88c.05,0,.09-.05.12-.1l-.8-8.8-.21,0,.8,8.84s0,0,.09,0Z"/><path class="cls-18" d="M16.08,31.52a.14.14,0,0,0,.09,0s0-.05,0-.05l-.79-8.25-.21,0L16,31.45C16,31.5,16,31.52,16.08,31.52Z"/><path class="cls-18" d="M14.17,32.28a.13.13,0,0,0,.08,0,.18.18,0,0,0,0-.11l-.78-7.73-.22,0,.78,7.72s0,.11.06.12Z"/><path class="cls-18" d="M12.26,33c.11,0,.13-.07.13-.09l-.79-7.31-.21,0,.78,7.25s0,.13.06.13Z"/><path class="cls-18" d="M29.32,26.59s0-.06,0-.1l-.57-11.81h-.22l.57,11.85a.33.33,0,0,0,.19.05Z"/><path class="cls-11" d="M0,20a1.55,1.55,0,0,0,.77,1.29l.11.07.55.32,5.19,3,1.21.7,1.27.73a3.12,3.12,0,0,0,1.56.42,3.18,3.18,0,0,0,1.71-.5l8.43-5.5,1.6-1L30,14.52l.52-.34,1.38-.9a1.54,1.54,0,0,0-.07-2.62L23.5,5.85a3.09,3.09,0,0,0-3.26.09L.7,18.66A1.54,1.54,0,0,0,0,20Zm1.07,0a.47.47,0,0,1,.22-.4L20.36,7.14l.46-.3a2,2,0,0,1,.65-.27A2,2,0,0,1,23,6.78l8.34,4.81a.46.46,0,0,1,0,.79l-1.84,1.2-.53.34L20.3,19.55l-4.12,2.68-4.4,2.87a2,2,0,0,1-2.14.06l-.51-.29-1.2-.69L2.51,21.05,2,20.72l-.65-.37A.5.5,0,0,1,1.07,20Z"/><path class="cls-11" d="M.46,25.63a1.23,1.23,0,0,0,.45,1,1.18,1.18,0,0,0,.18.13l1,.55,7.31,4.23.25.13a3,3,0,0,0,1.1.25l-.05-.56a2.36,2.36,0,0,1-1-.3l-.07,0L2,26.61l-.63-.36A.72.72,0,0,1,1,25.63a.63.63,0,0,1,0-.19H1a.86.86,0,0,0-.28-.61A1.21,1.21,0,0,0,.46,25.63Z"/><path class="cls-17" d="M10.51,31.31a2.39,2.39,0,0,1-1-.3L1.28,26.23a.88.88,0,0,1-.44-.76.59.59,0,0,1,0-.23.69.69,0,0,0-.12-.32A1.13,1.13,0,0,0,1,26.32l.16.11,1,.55L9.44,31.2a1.71,1.71,0,0,0,.23.13,2.93,2.93,0,0,0,.87.22Z"/><path class="cls-11" d="M.26,22.44A1.26,1.26,0,0,0,.9,23.55l8.37,4.84.05,0a3,3,0,0,0,1.11.34l0-.57a2.27,2.27,0,0,1-.83-.28l-.29-.17L1.18,23.07a.72.72,0,0,1-.36-.62v0a1.19,1.19,0,0,0-.34-.69h0A1.27,1.27,0,0,0,.26,22.44Z"/><path class="cls-17" d="M10.23,28.17a2.34,2.34,0,0,1-.76-.29L1.1,23.05a.87.87,0,0,1-.44-.77.8.8,0,0,0-.16-.42,1.16,1.16,0,0,0-.08.42,1.1,1.1,0,0,0,.56,1l8.37,4.84h0l0,0a2.54,2.54,0,0,0,.85.3Z"/><path class="cls-12" d="M30.3,23.49l.17-1.79.05-.59,0-.21.07-.67.18-1.87.05-.6,0-.19.07-.67.16-1.75.06-.61.07-.82.68-.44a1.58,1.58,0,0,0,.5-.53l-.25,2.55L32,16.84l-.15,1.59-.17,1.79-.15,1.59-.16,1.64-.26,2.38s-.15.68-.62.68a.52.52,0,0,1-.46-.34l.19-2Z"/><path class="cls-18" d="M30.41,26.4c.32,0,.45-.54.46-.55l.26-2.37,1-10.17a.9.9,0,0,1-.19.15l-.62.4-.07.75-.05.61-.25,2.6-.06.6-.26,2.76-.05.59-.24,2.45-.18,2A.33.33,0,0,0,30.41,26.4Z"/><path class="cls-12" d="M17.56,30.85a1.13,1.13,0,0,1,.61-.06.39.39,0,0,1,.21.21l11.85-6.85.93-.53a.92.92,0,0,0,.22-.17,1.25,1.25,0,0,0,.39-.91,1.26,1.26,0,0,0-.23-.73s-.29-.1-.31.2a1.24,1.24,0,0,0,0,.38h0a.07.07,0,0,1,0,.05.28.28,0,0,1,0,.09.71.71,0,0,1-.35.62l-.59.33Z"/><path class="cls-11" d="M31,23.37l.2-.14a1.1,1.1,0,0,0,.17-1.38h0s0,0-.05.06a1.3,1.3,0,0,0,0,.35.71.71,0,0,1,0,.17.87.87,0,0,1-.43.76l-.59.33-12.14,7a.72.72,0,0,1,.19.14Z"/><path class="cls-12" d="M10.66,31.33l.05.56h.07a2.85,2.85,0,0,0,1.42-.38L30.54,20.9l1-.56.17-.12a1.26,1.26,0,0,0,.46-1,1.24,1.24,0,0,0-.29-.81s-.29-.1-.31.2a1.2,1.2,0,0,0,0,.32.73.73,0,0,1-.3.92l-.63.36L11.93,31A2.2,2.2,0,0,1,10.66,31.33Z"/><path class="cls-11" d="M10.54,31.55a3.8,3.8,0,0,0,1.54-.29L31.39,20.09a.58.58,0,0,0,.15-.11,1.06,1.06,0,0,0,.41-.85,1.11,1.11,0,0,0-.22-.66h0s0,0,0,.06a1,1,0,0,0,0,.29.85.85,0,0,1,.06.31.89.89,0,0,1-.44.77L12,31.06a3.44,3.44,0,0,1-1.46.25Z"/><path class="cls-12" d="M10.38,28.19l0,.57.28,0a2.83,2.83,0,0,0,1.44-.39L30.86,17.57l.84-.49a1.5,1.5,0,0,0,.31-.24,1.29,1.29,0,0,0,.33-.87,1.21,1.21,0,0,0-.19-.67s-.33-.11-.36.18a2.41,2.41,0,0,0,0,.47v0a.73.73,0,0,1-.36.64l-.49.29-19.06,11A2.28,2.28,0,0,1,10.38,28.19Z"/><path class="cls-11" d="M10.67,28.51A2.7,2.7,0,0,0,12,28.14l19.55-11.3a1.52,1.52,0,0,0,.27-.22,1.13,1.13,0,0,0,.29-.76,1.22,1.22,0,0,0-.13-.53h0c-.06,0-.06,0-.07.06a2,2,0,0,0,0,.43.92.92,0,0,1-.44.82L11.91,27.94a2.52,2.52,0,0,1-1.23.33h0c-.06,0-.39-.1-.45-.1l0,.24C10.3,28.41,10.63,28.51,10.67,28.51Z"/><path class="cls-17" d="M9.23,25.61.9,20.8a1.29,1.29,0,0,1-.63-1.07,1.25,1.25,0,0,1,.57-1.09L20.38,5.92a2.83,2.83,0,0,1,1.56-.47,2.89,2.89,0,0,1,1.43.38l8.33,4.81a1.27,1.27,0,0,1,.06,2.16L20.65,20l-8.43,5.49a2.85,2.85,0,0,1-1.56.46A2.92,2.92,0,0,1,9.23,25.61ZM21.41,6.06a2.09,2.09,0,0,0-.73.3L1.14,19.08a.75.75,0,0,0-.33.65.72.72,0,0,0,.36.6l6.62,3.83,1.21.7.5.29a2.4,2.4,0,0,0,1.16.31,2.31,2.31,0,0,0,1.27-.38l4.4-2.87,4.12-2.68,8.64-5.64.53-.34,1.84-1.19a.68.68,0,0,0,.33-.63.69.69,0,0,0-.36-.62L23.1,6.3A2.2,2.2,0,0,0,22,6,2,2,0,0,0,21.41,6.06Z"/><polygon class="cls-25" points="8.13 19.84 8.13 18.2 10.56 19.62 10.56 21.25 8.13 19.84"/><polygon class="cls-26" points="10.56 19.62 13.19 18.1 13.19 19.74 10.56 21.25 10.56 19.62"/><polygon class="cls-27" points="8.13 18.2 10.56 19.62 13.2 18.1 10.76 16.69 8.13 18.2"/><path class="cls-12" d="M20.61,6.4a1,1,0,0,0,.88-.74l.89-1.78,3.2-1.58L25.79.39,21.68,3l-.15.13-1.44,3S20,6.48,20.61,6.4Z"/><path class="cls-31" d="M35.66,8.88l.81-1.39-11-6.34a.53.53,0,0,0-.73.2l-.07.12a.93.93,0,0,0,.34,1.27Z"/><path class="cls-32" d="M33.31,10.28l.29-.51L22.4,3.32a.18.18,0,0,0-.26.07l0,0a.34.34,0,0,0,.13.47Z"/><polygon class="cls-17" points="25.79 0.4 25.22 0 21.54 3.16 21.95 3.4 25.79 0.4"/><path class="cls-18" d="M20.61,6.4,22,3.4l-.42-.24-1.44,3S20,6.48,20.61,6.4Z"/><path class="cls-12" d="M31.62,12.06v0c0,.07,0,.34.4.29h.09c.31,0,.29.53.29.53l1.22-2.5,3.2-1.58L37,6.93,32.92,9.57l-.14.12-.05.09Z"/><polygon class="cls-17" points="37.03 6.94 36.46 6.54 32.78 9.7 33.19 9.94 37.03 6.94"/><path class="cls-18" d="M31.62,12.08c0,.07,0,.34.4.29h.09L33.19,10l-.41-.25Z"/></g></g></svg>