<svg xmlns="http://www.w3.org/2000/svg" viewBox="0 0 38.74 38.74"><style>#Layer_2{fill: #3763af}</style><g id="Layer_2" data-name="Layer 2"><g id="Layer_1-2" data-name="Layer 1"><path d="M19.37,0A19.37,19.37,0,1,0,38.74,19.37,19.37,19.37,0,0,0,19.37,0Zm0,37.12A17.75,17.75,0,1,1,37.12,19.37,17.75,17.75,0,0,1,19.37,37.12Z"/><path d="M6.85,13.8a5,5,0,0,1,.54-2.34A4,4,0,0,1,8.91,9.8a4.16,4.16,0,0,1,2.24-.61,4.62,4.62,0,0,1,.82.07,5.84,5.84,0,0,1,.87.22,1.72,1.72,0,0,1,.73.44.93.93,0,0,1,.28.68.87.87,0,0,1-.21.59.75.75,0,0,1-.56.25,1.32,1.32,0,0,1-.47-.11A6.22,6.22,0,0,0,12,11.1a3,3,0,0,0-.83-.1,2.25,2.25,0,0,0-1,.22,2.06,2.06,0,0,0-.74.63,2.9,2.9,0,0,0-.44.9,3.83,3.83,0,0,0-.15,1.09A3.69,3.69,0,0,0,9,14.91a2.74,2.74,0,0,0,.44.87,2.13,2.13,0,0,0,.75.61,2.23,2.23,0,0,0,1,.22,2.57,2.57,0,0,0,.85-.13,6.77,6.77,0,0,0,.67-.26,1.08,1.08,0,0,1,.48-.13.7.7,0,0,1,.6.29.92.92,0,0,1,.23.56,1,1,0,0,1-.21.61,1.45,1.45,0,0,1-.52.43,3.79,3.79,0,0,1-.7.26,4.74,4.74,0,0,1-.74.14,5.07,5.07,0,0,1-.66,0,4.13,4.13,0,0,1-3.76-2.28A5,5,0,0,1,6.85,13.8Z"/><path d="M18.51,17.68a1.44,1.44,0,0,1-.71.54,2.64,2.64,0,0,1-1,.2A2.74,2.74,0,0,1,15,17.85a1.92,1.92,0,0,1-.68-1.59c0-1.56,1.37-2.35,4.11-2.35v-.49c0-.31-.27-.47-.79-.47a1.83,1.83,0,0,0-.64.1,1.29,1.29,0,0,0-.44.21,1.77,1.77,0,0,1-.32.21.7.7,0,0,1-.32.1.75.75,0,0,1-.59-.23.84.84,0,0,1-.2-.54.88.88,0,0,1,.41-.67,3.12,3.12,0,0,1,1-.5,3.79,3.79,0,0,1,1.12-.18,3.07,3.07,0,0,1,1.92.52,1.76,1.76,0,0,1,.67,1.5v3.91a1,1,0,0,1-.25.68.78.78,0,0,1-.63.28,1,1,0,0,1-.54-.14A.84.84,0,0,1,18.51,17.68Zm-2.45-1.42a.49.49,0,0,0,.16.38.78.78,0,0,0,.4.21,2.09,2.09,0,0,0,.53.06,1.2,1.2,0,0,0,1.36-1.35v-.29c-.66,0-1.07,0-1.21,0-.64.05-1,.25-1.18.6A1.06,1.06,0,0,0,16.06,16.26Z"/><path d="M25.26,12.18a.85.85,0,0,1,.23.57.83.83,0,0,1-.21.56.68.68,0,0,1-.53.24,1.1,1.1,0,0,1-.42-.13l-.61-.26a1.62,1.62,0,0,0-.59-.13.72.72,0,0,0-.44.13.44.44,0,0,0-.17.37.39.39,0,0,0,.17.3,1.72,1.72,0,0,0,.45.26l.61.23a6.46,6.46,0,0,1,.67.29A3.7,3.7,0,0,1,25,15a1.52,1.52,0,0,1,.45.55,1.72,1.72,0,0,1,.17.75,1.91,1.91,0,0,1-.71,1.53,2.77,2.77,0,0,1-1.86.6,3.66,3.66,0,0,1-1.1-.18,2.94,2.94,0,0,1-1-.5.93.93,0,0,1-.42-.72.83.83,0,0,1,.22-.52.66.66,0,0,1,.56-.28,1.17,1.17,0,0,1,.47.1,1.74,1.74,0,0,1,.41.21,1.64,1.64,0,0,0,.44.21,1.45,1.45,0,0,0,.55.1.83.83,0,0,0,.55-.13.44.44,0,0,0,.16-.38.4.4,0,0,0-.17-.31,1.85,1.85,0,0,0-.45-.25l-.61-.23a6.46,6.46,0,0,1-.67-.29,3.7,3.7,0,0,1-.61-.38,1.55,1.55,0,0,1-.45-.56,1.58,1.58,0,0,1-.17-.76A1.93,1.93,0,0,1,21.47,12a2.64,2.64,0,0,1,1.77-.58,3.69,3.69,0,0,1,.72.08,3.47,3.47,0,0,1,.73.24A1.42,1.42,0,0,1,25.26,12.18Z"/><path d="M26,17.33V9.62a1,1,0,0,1,.25-.73.85.85,0,0,1,.65-.28.87.87,0,0,1,.65.28,1,1,0,0,1,.25.73v2.45h0a1.51,1.51,0,0,1,.71-.47,2.92,2.92,0,0,1,.93-.15,2.52,2.52,0,0,1,1.78.65A2.34,2.34,0,0,1,32,13.88v3.45a1.09,1.09,0,0,1-.25.73.84.84,0,0,1-.66.28.8.8,0,0,1-.64-.28,1,1,0,0,1-.25-.73V14.19a1.22,1.22,0,0,0-.34-.92A1.18,1.18,0,0,0,29,13a1.06,1.06,0,0,0-.84.35,1.27,1.27,0,0,0-.31.89v3.14a1,1,0,0,1-.25.73.83.83,0,0,1-.65.28.82.82,0,0,1-.65-.28A1,1,0,0,1,26,17.33Z"/><path d="M7.11,27.34V19.62a1,1,0,0,1,.25-.72.91.91,0,0,1,1.31,0,1,1,0,0,1,.25.72v2.46a2.51,2.51,0,0,1,1.71-.63,2.57,2.57,0,0,1,1.27.31,2.61,2.61,0,0,1,.92.82,4.5,4.5,0,0,1,.54,1.15,4.64,4.64,0,0,1,.19,1.3,3.87,3.87,0,0,1-.22,1.25,3.77,3.77,0,0,1-.59,1.08,2.72,2.72,0,0,1-.94.77,2.59,2.59,0,0,1-1.23.29,2.16,2.16,0,0,1-1-.22,1.55,1.55,0,0,1-.7-.61.86.86,0,0,1-.91.75.83.83,0,0,1-.65-.28A1,1,0,0,1,7.11,27.34Zm1.81-2.46a2.8,2.8,0,0,0,.14.88,1.61,1.61,0,0,0,.47.71,1.24,1.24,0,0,0,1.58,0,1.66,1.66,0,0,0,.48-.69,2.4,2.4,0,0,0,.15-.84,2.47,2.47,0,0,0-.15-.86,1.69,1.69,0,0,0-.48-.7,1.16,1.16,0,0,0-.78-.29,1.27,1.27,0,0,0-.62.16,1.19,1.19,0,0,0-.45.41,2.1,2.1,0,0,0-.25.57A2.25,2.25,0,0,0,8.92,24.88Z"/><path d="M18,27.68a1.41,1.41,0,0,1-.71.55,2.59,2.59,0,0,1-1,.19,2.8,2.8,0,0,1-1.81-.56,2,2,0,0,1-.68-1.6q0-2.34,4.11-2.34v-.49c0-.32-.26-.47-.79-.47a2.11,2.11,0,0,0-.64.09,2,2,0,0,0-.44.21,1.77,1.77,0,0,1-.32.21.6.6,0,0,1-.32.1.75.75,0,0,1-.59-.23.8.8,0,0,1-.2-.54.87.87,0,0,1,.41-.66,3.12,3.12,0,0,1,1-.5,3.51,3.51,0,0,1,1.12-.19,3.13,3.13,0,0,1,1.92.52,1.78,1.78,0,0,1,.67,1.5v3.91a1,1,0,0,1-.24.68.81.81,0,0,1-.64.28,1,1,0,0,1-.54-.13A.87.87,0,0,1,18,27.68Zm-2.45-1.42a.5.5,0,0,0,.16.39,1,1,0,0,0,.4.21,2.15,2.15,0,0,0,.53.06A1.2,1.2,0,0,0,18,25.56v-.28h-1.2c-.65.06-1,.26-1.18.6A.87.87,0,0,0,15.56,26.26Z"/><path d="M25.63,22.59a1,1,0,0,1-.19.59.58.58,0,0,1-.5.28,2.15,2.15,0,0,1-.67-.18,2.11,2.11,0,0,0-.76-.18,1.31,1.31,0,0,0-.84.28,1.43,1.43,0,0,0-.51.68A2.31,2.31,0,0,0,22,25a2.1,2.1,0,0,0,.17.86,1.66,1.66,0,0,0,.52.68,1.32,1.32,0,0,0,.82.27,2.42,2.42,0,0,0,.76-.18,3.18,3.18,0,0,1,.58-.19.75.75,0,0,1,.55.23.8.8,0,0,1,0,1.14,1.6,1.6,0,0,1-.61.39,4.35,4.35,0,0,1-.72.2,3,3,0,0,1-.63.07,3.06,3.06,0,0,1-1.69-.48,3.15,3.15,0,0,1-1.14-1.26,3.76,3.76,0,0,1-.4-1.73,3.76,3.76,0,0,1,.9-2.44,3.2,3.2,0,0,1,1-.77,3,3,0,0,1,1.3-.29,4,4,0,0,1,.66.06,4.93,4.93,0,0,1,.71.18,1.51,1.51,0,0,1,.6.36A.75.75,0,0,1,25.63,22.59Z"/><path d="M26,27.34V19.62a1,1,0,0,1,.25-.72.81.81,0,0,1,.65-.28.83.83,0,0,1,.65.28,1,1,0,0,1,.25.72v4.21l2-1.91a1.19,1.19,0,0,1,.82-.39.72.72,0,0,1,.55.24.87.87,0,0,1,.21.57,1,1,0,0,1-.35.72l-1.61,1.43L31.53,27a.88.88,0,0,1,.23.6.79.79,0,0,1-.25.6.82.82,0,0,1-.6.25,1.2,1.2,0,0,1-.87-.55l-2.2-2.72h0v2.19a1,1,0,0,1-.25.72.83.83,0,0,1-.65.28.81.81,0,0,1-.65-.28A1,1,0,0,1,26,27.34Z"/></g></g></svg>
