<svg xmlns="http://www.w3.org/2000/svg" xmlns:xlink="http://www.w3.org/1999/xlink" viewBox="0 0 30.99 31.09"><defs><style>.cls-1{fill:url(#radial-gradient);}.cls-2{fill:url(#linear-gradient);}.cls-3{fill:url(#linear-gradient-2);}.cls-4,.cls-5,.cls-6{stroke:#0f0f0f;stroke-width:0.01px;}.cls-4{fill:url(#linear-gradient-3);}.cls-5{fill:url(#linear-gradient-4);}.cls-6{fill:url(#linear-gradient-5);}.cls-7{fill:url(#radial-gradient-2);}.cls-8{fill:url(#linear-gradient-6);}.cls-9{fill:url(#linear-gradient-7);}.cls-10{fill:url(#radial-gradient-3);}.cls-11{fill:url(#linear-gradient-8);}.cls-12{fill:url(#radial-gradient-4);}.cls-13{fill:url(#linear-gradient-9);}.cls-14{fill:url(#linear-gradient-10);}.cls-15{fill:url(#linear-gradient-11);}.cls-16{fill:url(#linear-gradient-12);}.cls-17{fill:url(#linear-gradient-13);}.cls-18{fill:gray;}.cls-19{fill:url(#linear-gradient-14);}.cls-20{fill:url(#linear-gradient-15);}.cls-21{fill:url(#linear-gradient-16);}.cls-22{fill:#fff;}.cls-23{fill:#e6e6e6;}.cls-24{fill:#8c8c8c;}.cls-25{fill:#b3b3b3;}</style><radialGradient id="radial-gradient" cx="13.06" cy="13.7" r="13.39" gradientUnits="userSpaceOnUse"><stop offset="0" stop-color="#756c62"/><stop offset="1" stop-color="#23201d"/></radialGradient><linearGradient id="linear-gradient" x1="18.32" y1="-2.64" x2="11.84" y2="15.07" gradientUnits="userSpaceOnUse"><stop offset="0" stop-color="#a6a6a6"/><stop offset="0.58" stop-color="#a3a3a3"/><stop offset="0.94" stop-color="#a3a3a3"/><stop offset="1" stop-color="#888"/></linearGradient><linearGradient id="linear-gradient-2" x1="19.55" y1="-3.2" x2="8.05" y2="7.01" gradientUnits="userSpaceOnUse"><stop offset="0" stop-color="#fff"/><stop offset="1" stop-color="#a5a5a5"/></linearGradient><linearGradient id="linear-gradient-3" x1="13.71" y1="5.26" x2="13.4" y2="17.43" gradientUnits="userSpaceOnUse"><stop offset="0.01" stop-color="#fff"/><stop offset="1" stop-color="#5c5c5c"/></linearGradient><linearGradient id="linear-gradient-4" x1="15.72" y1="6.49" x2="10.91" y2="21.98" xlink:href="#linear-gradient-3"/><linearGradient id="linear-gradient-5" x1="17.67" y1="0.26" x2="4.82" y2="42.36" xlink:href="#linear-gradient-3"/><radialGradient id="radial-gradient-2" cx="29.44" cy="2.5" r="32.95" xlink:href="#radial-gradient"/><linearGradient id="linear-gradient-6" x1="26.55" y1="0.49" x2="3.36" y2="25.04" gradientUnits="userSpaceOnUse"><stop offset="0" stop-color="#a3a3a3"/><stop offset="0.72" stop-color="#999"/><stop offset="1" stop-color="#676666"/></linearGradient><linearGradient id="linear-gradient-7" x1="11.65" y1="4.21" x2="16.8" y2="23.51" xlink:href="#linear-gradient"/><radialGradient id="radial-gradient-3" cx="1.03" cy="16.47" r="7.85" xlink:href="#radial-gradient"/><linearGradient id="linear-gradient-8" x1="15.61" y1="-0.33" x2="10.92" y2="38.26" gradientUnits="userSpaceOnUse"><stop offset="0" stop-color="#fff"/><stop offset="0.58" stop-color="#a3a3a3"/><stop offset="1" stop-color="#a3a3a3"/></linearGradient><radialGradient id="radial-gradient-4" cx="14.4" cy="15.01" r="12.55" xlink:href="#linear-gradient-2"/><linearGradient id="linear-gradient-9" x1="-125.18" y1="362.41" x2="-122.63" y2="362.41" gradientTransform="matrix(0.71, 0.71, 0.71, -0.71, -148.38, 359.94)" gradientUnits="userSpaceOnUse"><stop offset="0" stop-color="#595959"/><stop offset="1" stop-color="#1a1a1a"/></linearGradient><linearGradient id="linear-gradient-10" x1="-126.55" y1="368.29" x2="-122.6" y2="368.29" xlink:href="#linear-gradient-9"/><linearGradient id="linear-gradient-11" x1="-118.77" y1="366.94" x2="-116.44" y2="366.94" gradientTransform="matrix(0.71, 0.71, 0.71, -0.71, -148.38, 359.94)" gradientUnits="userSpaceOnUse"><stop offset="0"/><stop offset="1" stop-color="#363636"/></linearGradient><linearGradient id="linear-gradient-12" x1="-126.55" y1="360.54" x2="-111.19" y2="360.54" gradientTransform="matrix(0.71, 0.71, 0.71, -0.71, -148.38, 359.94)" gradientUnits="userSpaceOnUse"><stop offset="0" stop-color="#525252"/><stop offset="1" stop-color="#292929"/></linearGradient><linearGradient id="linear-gradient-13" x1="-116.47" y1="362" x2="-111.19" y2="362" gradientTransform="matrix(0.71, 0.71, 0.71, -0.71, -148.38, 359.94)" gradientUnits="userSpaceOnUse"><stop offset="0"/><stop offset="1" stop-color="#1c1c1c"/></linearGradient><linearGradient id="linear-gradient-14" x1="-125.2" y1="360.69" x2="-112.72" y2="360.69" gradientTransform="matrix(0.71, 0.71, 0.71, -0.71, -148.38, 359.94)" gradientUnits="userSpaceOnUse"><stop offset="0" stop-color="#f2f2f2"/><stop offset="1" stop-color="#b3b3b3"/></linearGradient><linearGradient id="linear-gradient-15" x1="-123.51" y1="358.78" x2="-113.09" y2="358.78" gradientTransform="matrix(0.71, 0.71, 0.71, -0.71, -148.38, 359.94)" gradientUnits="userSpaceOnUse"><stop offset="0" stop-color="#fff"/><stop offset="1" stop-color="#e6e6e6"/></linearGradient><linearGradient id="linear-gradient-16" x1="-126.55" y1="365.83" x2="-122.64" y2="365.83" gradientTransform="matrix(0.71, 0.71, 0.71, -0.71, -148.38, 359.94)" gradientUnits="userSpaceOnUse"><stop offset="0" stop-color="#d1d1d1"/><stop offset="1" stop-color="#3b3b3b"/></linearGradient></defs><g id="Слой_2" data-name="Слой 2"><g id="Слой_2-2" data-name="Слой 2"><path class="cls-1" d="M26.13,1.16l-.49,18.5s-23.71,7.61-24,7.72c-.51.2-.56-1.12-.56-1.12L0,5.42S.7,2.47.82,2.08s.14-.59.61-.68S10.68.06,10.91,0a.56.56,0,0,1,.68.38c.14.37.84,2.13.94,2.36s.16.36.56.31S25.31,1.05,25.61,1,26.13,1,26.13,1.16Z"/><path class="cls-2" d="M26.25,1.26l-.49,18.5s-23.7,7.61-24,7.72c-.5.2-.56-1.12-.56-1.12L.12,5.52S.83,2.57.94,2.18s.14-.59.61-.68S10.8.16,11,.12a.55.55,0,0,1,.68.37c.14.38.85,2.13.94,2.37s.16.35.56.3,12.22-2,12.53-2.06S26.25,1.12,26.25,1.26Z"/><path class="cls-3" d="M25.91,1.23a.35.35,0,0,1,.2,0s.06.38.11,1.07l0-1.08c0-.14-.21-.21-.51-.16s-12.13,2-12.53,2.06-.47-.07-.56-.3-.8-2-.94-2.37A.55.55,0,0,0,11,.12C10.8.16,2,1.4,1.55,1.5s-.49.28-.61.68S.12,5.52.12,5.52L.27,8.37C.21,6.45.21,5.49.21,5.49c.06-.26.76-2.9.87-3.27l0-.08c.1-.33.13-.43.48-.5S5,1.13,7.57.76L11.06.25h.12a.39.39,0,0,1,.4.3c.15.4.93,2.35.94,2.37a.51.51,0,0,0,.54.4h.17c.28,0,6-1,9.75-1.6l2.78-.46Z"/><path class="cls-4" d="M1.58,27S.19,9.08.89,6.27C3.14,5.7,26.74,1.65,26.74,1.65c-1,1.21-.62,18.33-.62,18.33Z"/><path class="cls-5" d="M1.7,27.12S.3,9.19,1,6.38c2.24-.56,25.84-4.62,25.84-4.62-1,1.22-.61,18.33-.61,18.33Z"/><path class="cls-6" d="M1.84,27.32S.45,9.4,1.15,6.59C3.39,6,27,2,27,2c-1,1.21-.72,18-.72,18Z"/><path class="cls-7" d="M27.13,2.88c.08,0,.31,0,.31.17-.06,1.49-1,15.68-1,16.17s0,.72-.79,1S1.73,27.39,1.73,27.39s.37-.26.19-.5c0-.23-.71-18.58-.71-18.89s.1-.42.35-.44S27,2.9,27.13,2.88Z"/><path class="cls-8" d="M27.33,3c.07,0,.11,0,.11.11-.08,1.49-.84,15.75-.88,16.23s0,.73-.8,1-24,7.18-24,7.18A1,1,0,0,0,2.07,27c0-.23-.7-18.59-.7-18.89s.09-.42.35-.45S26.06,3.2,27.33,3Z"/><path class="cls-9" d="M27.33,3c.07,0,.11,0,.11.11-.08,1.49-.84,15.75-.88,16.23s0,.73-.8,1-24,7.18-24,7.18A1,1,0,0,0,2.07,27c0-.23-.7-18.59-.7-18.89s.09-.42.35-.45S26.06,3.2,27.33,3Z"/><path class="cls-10" d="M2.07,27c0-.18-.42-11.43-.62-16.48l-.15-.15.53,14.05s.09,2,.09,2.41c0,.74-.65.78-.72-.55C1.2,26.15.12,5.52.12,5.52L0,5.42,1.07,26.09c.05,1.18.39,1.56.69,1.39A1,1,0,0,0,2.07,27Zm-.31.49.12,0Z"/><path class="cls-11" d="M26.6,16.57c.18-3.31.4-8.8.55-11.67,0-.63.07-1.15.08-1.49,0-.16,0-.24-.16-.2l-1,.18C9.86,6.37,1.89,7.83,1.73,7.84s-.18,0-.18.26.29,6.8.4,9.81C5.6,11.54,20.85,8.82,26.6,16.57Z"/><path class="cls-12" d="M2.07,27a.43.43,0,0,1,0,.05c0-3.81-.55-18.83-.55-18.94s.06-.29.22-.31S10.19,6.26,26.4,3.28l.7-.12c.16,0,.2,0,.18.24s-.07,1.26-.07,1.26c-.18,3.39-.43,9.63-.62,14.07.16-2.77.78-14.32.85-15.65,0-.1,0-.12-.11-.11C26.06,3.2,2,7.63,1.72,7.65s-.35.15-.35.45S2.09,26.76,2.07,27Z"/><polygon class="cls-13" points="20.31 14.33 17.18 17.36 20.17 17.9 23.37 14.77 20.31 14.33"/><polygon class="cls-14" points="23.26 9.46 19.88 12.72 24.55 13.57 28.04 10.15 23.26 9.46"/><polygon class="cls-15" points="27.64 19.26 30.99 15.87 28.14 15.46 24.85 18.75 27.64 19.26"/><polygon class="cls-16" points="24.55 13.57 19.88 12.72 20.17 17.9 17.18 17.36 23.23 31.09 27.64 19.26 24.85 18.75 24.55 13.57"/><polygon points="24.85 18.75 28.14 15.46 28.04 10.15 24.55 13.57 24.85 18.75"/><polygon class="cls-17" points="23.23 31.09 25.99 28.21 30.99 15.87 27.64 19.26 23.23 31.09"/><path class="cls-18" d="M22.48,29.41l-5.3-12,3,.54-.1-1.82C24.07,20.25,25.05,25.94,22.48,29.41Z"/><polygon class="cls-19" points="23.75 14.28 20.77 13.73 21.07 18.87 18.51 18.39 23.11 29.04 26.51 19.9 24.05 19.44 23.75 14.28 23.75 14.28"/><path class="cls-20" d="M23,28.68,18.51,18.39l2.56.48L21,17.1C24,20.85,24.74,25.48,23,28.68Z"/><polygon class="cls-21" points="24.55 13.57 19.88 12.72 19.97 12.86 24.55 13.57"/><polygon class="cls-22" points="23.75 14.28 20.77 13.73 20.86 13.87 23.75 14.28"/><polygon class="cls-23" points="26.51 19.9 24.05 19.44 24.14 19.57 26.51 19.9"/><polygon class="cls-24" points="27.64 19.26 24.85 18.75 24.94 18.89 27.64 19.26"/><polygon class="cls-25" points="20.17 17.9 17.18 17.36 17.34 17.5 20.17 17.9"/></g></g></svg>