<svg xmlns="http://www.w3.org/2000/svg" xmlns:xlink="http://www.w3.org/1999/xlink" viewBox="0 0 142.98 77.97"><defs><style>.cls-1{fill:none;}.cls-2{clip-path:url(#clip-path);}.cls-3{fill:#fff;}.cls-4{fill:#cfd1d2;}.cls-5{fill:#575757;}.cls-6{fill:#414141;}.cls-7{fill:#dec49f;}.cls-8{fill:#716360;}.cls-9{fill:#5f5452;}.cls-10{fill:#c3a186;}.cls-11{fill:#221f1f;}.cls-12{fill:#d6bc98;}</style><clipPath id="clip-path"><rect class="cls-1" x="21.56" y="3.28" width="100.09" height="65.94"/></clipPath></defs><g id="Слой_2" data-name="Слой 2"><g id="Layer_1" data-name="Layer 1"><rect class="cls-1" width="142.98" height="77.15"/><g class="cls-2"><path class="cls-3" d="M59.78,40.84c-.85.47-5,8.72-5,8.72l.13,10.85S61.69,68,62.21,68s13,2.18,13,2.18l10.9-1.09,7.27-15.84-5-14Z"/><path class="cls-4" d="M60.93,46.33l-.37.83s3.6,10.67,4.75,11.55a65.89,65.89,0,0,1,4.88,5.39l1,1L65.08,64,60.47,51.26l-.36-3.42-.34-2.18-.58-1.31,2.81,1Z"/><path class="cls-5" d="M104.82,55.7c-1.31-3.18-5.79-8-5.79-8l-4.47-4.36S91.21,40.44,88.38,42c-.17.55-.62,1.7-1.67,4.1-.81,1.85-4.14,6-4.77,6.73L80.4,51.62l-1.68-.94-.7.94s-6.93,5.71-7.35,6a25,25,0,0,1-3.77.51l3.64,6.65L65.08,64S62,53.82,61.17,51.93a31.77,31.77,0,0,1-1.4-6.27l-1.35-3c-4.32.47-7.93,1.1-9,1.85l-7.27,5S38.78,58.88,38,61.06s-1.5,5.36-1.5,5.36a4.6,4.6,0,0,0,1.31,3.85c1.68,1.5,7.83,7.19,7.83,7.19s2.43,1,7.09.17,11.94-2.17,13.81-2l1.86.17,1.12-3.85,1.68-6.86,1.3.16a79.68,79.68,0,0,0,7.18,5.89c3.35,2.35,8.87,5.33,8.87,5.33s3.35.34,5.22.34,2.61-.84,4.66-3.86,6.16-11.21,6.16-11.21A7.7,7.7,0,0,0,104.82,55.7Z"/><path class="cls-6" d="M52.59,46s-5.83,3.83-.38,4.44c1.06.12,3.08.08,3.08.08S51.19,55.2,51.37,56s1.31-.08,2.15.59,5.13,6.7,5.13,6.7L53.7,53.78A28.67,28.67,0,0,1,56,50.51c1.28-.82-1.5-1-2.43-1.09-3.35-.42-3-.77-2.09-2.11s4-.82,2.46-1.74-3.9-1.54-5.2-.65-5.31,3.14-6.64,4.59c-1.59,1.73-2.89,5.19-4,8.2a50.55,50.55,0,0,0-2,7.1A10.42,10.42,0,0,0,37,70c.57,1.36,7.29,6.26,7.29,6.26s1.7,1.36-1.91-3c-2.71-3.29-4.48-7-3.92-10.72a44.59,44.59,0,0,1,3.92-11.21c.84-1.34,4.38-4,5.41-4.86s1.43-1,1.77-.84A7.42,7.42,0,0,0,52.59,46Z"/><path class="cls-6" d="M46.48,51.2s-1.54,1.74-.42,2,2.32,2.44,2.58,3.46a12,12,0,0,1,.13,1.7s2.95.62-.33.49-5.8.27-5.8,1.33,1.25,1.62,2.93.68a12.37,12.37,0,0,1,4.34-1.62c.77,0,3.77,2.45,3.77,2.45a22.44,22.44,0,0,0,4.48,1.87A33.31,33.31,0,0,0,63,63.49a21.48,21.48,0,0,0-4.12-.88A14.41,14.41,0,0,1,52.07,60c-1.33-1.07-3.29-4.65-3.91-6S47.81,50.13,46.48,51.2Z"/><path class="cls-6" d="M71.16,65.4s-.91,3.89-1.38,5.62-1.34,4.77-1.34,4.77.18-.4-2.31-.18-4.52.15-6.53.82-3.82.11-1.79-.39,6.92.57,9.3-2.63a21.91,21.91,0,0,0,3.29-7.22Z"/><path class="cls-6" d="M66.9,58.09a12.15,12.15,0,0,0,5.88-2.26C75.09,53.88,78,51.62,78,51.62s.56-1.51.7-.94-3,3.45-4.54,4.64S71,57.71,70.82,58.53s-.42,2.45,4.9,4.14-.77,1.07-1.47.88-.28.69.63,1.19,8.81,7.47,11.68,7.79,3.78,1,6.43-.32,6.65-4.27,7.84-6.21a32,32,0,0,0,3.5-7.16c.71-2.5-.08-4.44.28-3.6s2.33,2.58-1.26,9.32c-2.66,5-5.9,11-7.18,11.72a12,12,0,0,1-5.2.89c-1.26-.06-4.9-1.71-7.53-3.2s-9-6.5-11-8a16.85,16.85,0,0,1-4.19-4.1C67,60,64.92,58.46,66.9,58.09Z"/><path class="cls-6" d="M96.42,53.44c-1.34,0-1.4.38-2.94,1.26a31.59,31.59,0,0,1-2.86,1.69,2.66,2.66,0,0,1-2.1-.5c-.21-.25-2.31-.5-.28-.94s2.38-.94,2.38-1.63.76-4.52.83-4.9,1-3.64,1-3.64-.77-.13-.77.25-1.74,6-2.23,7.22a4.67,4.67,0,0,1-2.17,2.51,2,2,0,0,1-2.31.06,36.4,36.4,0,0,1-4.55-3.2s-.62.57.21.69,3.22,2.64,4,3,2.59,1.07,3.78,1.51a9.81,9.81,0,0,1,4.4,3.45c1.12,1.76.63,3.58,1.61,3.9s1.19-1,.42-2.45-.28-1,.56-.69S96,60.41,94,59.53s-3.21-.75-2.45-2.07,2.94-3,4.06-2.83S98,53.44,96.42,53.44Z"/><path class="cls-3" d="M68.55,75.42l4.09.2s.56-4.85.56-5.86,0-3.21,0-3.21l-2-1.47S69.59,74.29,68.55,75.42Z"/><path class="cls-3" d="M67.62,58,66.11,56.2s1.86-.67,4.66-2a24.94,24.94,0,0,0,5.79-4.43L78,51.62s-1.48,1.12-3.09,2.44a19.69,19.69,0,0,1-4.52,3.15C69.19,57.63,67.62,58,67.62,58Z"/><path class="cls-7" d="M78.21,46.69h0Z"/><path class="cls-8" d="M54.37,18.75A12.51,12.51,0,0,1,53,19.3a5.31,5.31,0,0,0-2.79,2.54c-1.11,1.77-3,5.2-3.41,6s-1.19,3,.46,4,3.23,1.91,3.63,2.61.81,2.6,1.61,2.6,1.58-4.43,1.21-5.36c-.19-.49-1.78-4.37-1.56-7.62A10.33,10.33,0,0,1,54.37,18.75Z"/><path class="cls-7" d="M52.61,29.72c-.22-1-.4-2.08-.52-3.14-.2-1.75-.44-3.82.58-5.28a22.86,22.86,0,0,0,1.82-3.12,4.18,4.18,0,0,1,.38-1.38c.46-.67,1.48-1.22,1.63-1.45,1.39-2.13,3.17-4.56,5.17-5.15.65-.19,1.83.73,2.22.3a3.92,3.92,0,0,1,2.56-1.6c.69-.09,1.37.41,2,.64.49.17,1.9-.68,2.4-.78a4.82,4.82,0,0,1,3.91.63,1.77,1.77,0,0,1,.49.26c1.42,1.23,1.81-.26,3.61-.19a4.86,4.86,0,0,1,2.9.84c2.81,2.3,2.59.84,3.75,2.35.74,1,.07,2.81.6,3.61.71,1.08,2.69,1.21,3.21,2.2A15.49,15.49,0,0,1,91,24.52c.18,2,.46,4.13.54,6.11A25.45,25.45,0,0,0,92.41,36c.26,1.17.91,3.47.91,3.73,0,1.26-2.32,1.86-3.47,2.37C87.91,43,86,43.8,84,44.6s-3.65,1.46-5.51,2.08a30.27,30.27,0,0,1-6.06,1.54,16.76,16.76,0,0,1-6.09-.68,38.79,38.79,0,0,1-5.65-1.93,31.42,31.42,0,0,1-4.83-2.56C54,41.83,52.3,40.21,52.5,37.76c0-.41.7-3.07.92-4.72A4.53,4.53,0,0,0,52.61,29.72Z"/><path class="cls-8" d="M104.27,25.92S102,23.2,98.05,19.34a31,31,0,0,0-9.34-6.21c-1.62-.71-3.22-.89-3-.25s0,1.45.24,2.42.57,1.33,1.68,2.13a5.38,5.38,0,0,1,2.52,2.83,42.75,42.75,0,0,1,1.17,7.62c.2,2.75,1.27,8.78,1.27,8.78s1.19-1.29,3.52-4.06,4.11-4.4,5.82-4.85S104.93,27.55,104.27,25.92Z"/><path class="cls-9" d="M90.84,15.61s-1.65-1.94-2.74-1.76-2.14.88-1.68,1.6,4.14,2,5.17,2.94A7.27,7.27,0,0,1,93.8,22.3c.59,2.11-.27,5.19.81,5.59a3.25,3.25,0,0,0,2.72-.61c1.14-.9,2.45-1,1.21,0s-3.62,2.8-4.05,3.26c-1.14,1.26-1.28-.62-1.29-1.74s-.34-4.51-.47-5.35-1.17-2.21-1,.24.19,4.71.55,7.45.51,4,1.12,3.51.76.19,0,1-.81,1.26-1.2-.15a41.6,41.6,0,0,1-.91-5.86c-.11-1.51-.58-6.54-1-8.59A3.59,3.59,0,0,0,89,18.46a17.26,17.26,0,0,1-2.47-1.81,3.19,3.19,0,0,1-.57-1.95,4.88,4.88,0,0,0-.38-2,5.7,5.7,0,0,1,3.17.48,67,67,0,0,1,7.64,4.53A44,44,0,0,1,100,21c1.32,1-3.57-2.66-4.31-3.36s-4.57-3.18-4.06-2.43S93.13,17.35,90.84,15.61Z"/><path class="cls-9" d="M54,19.22s-1,1.83-1.52,2.46a3.67,3.67,0,0,0-.6,3c.21,1.51.27,3.52.46,4a5,5,0,0,1-.06,2c-.1.79-.5,3-.5,2s.19-4.77-.26-3.64,0,3.59-1.74,2.51-2.91-2.42-2.08-3,2-2.52,1.64-2.81-1,.44-1.23.61a9.73,9.73,0,0,1,1.32-3.14c.85-1.41,2.08-3.25,3.16-3.71S54.3,18.62,54,19.22Z"/><path class="cls-8" d="M81.76,35.36c1.88.88,1.37,1.87,1.12,2.27A25.11,25.11,0,0,1,78,44.94c-4.51,4.41-9.25,2.59-12.58,1.47s-6.67-1.27-8.73-2.82-.4-4.92-.3-5.61.38-3.16,1.1-6.94a10.15,10.15,0,0,1,3.25-5.87,23,23,0,0,0,1.59-2.39c.4-.61,2-.38,2.82-.38s2,0,2.78.06,3.58.83,7.26,4.51a52.8,52.8,0,0,1,6.53,8.23"/><path class="cls-10" d="M52.9,27.23a3.6,3.6,0,0,0,1.45,1.92,3.35,3.35,0,0,1,.87,2.25c.06,2.42.35,1.77.35,1.77a56.44,56.44,0,0,1,.66-5.65c.46-2.56,2-4.46,5.27-6.45s6.91-2.29,12.33,1.59,6.55,5.39,7.68,7.9c1.7,3.8.46.47.48-1.58,0-1.77,1.39-1.91,1.91-2.61.9-1.19,1.15-1.86,2.23-1.87.2,0,1.68,2.9,1.54,1.71-.19-1.7-.92-1.65-1.6-3.22A19.58,19.58,0,0,1,85,19.55c-.41-2.1-1.21-.89-2-1.66s-1.77-2.1-3.49-2.17-3.84.66-4,2c-.22,1.52-1.45-1-1.79-1.19-1.19-.68,0,2.28-.39,3.36-.44,1.26-2.48-.44-2.62-2.18a2.37,2.37,0,0,1,0-1.37,4,4,0,0,1,2.91-2.65,4.86,4.86,0,0,1,4,.44,39.5,39.5,0,0,0,6.53,2.62c.65-.16-1.58-.63-3-1.33S77.19,13,75.36,13a6,6,0,0,0-4.3,1.62,4.8,4.8,0,0,0-1.13,3.1,2,2,0,0,1-.39,1c-.28.29-.36.21-.62.2a6.8,6.8,0,0,1-1.5-.2,3.77,3.77,0,0,1-1.14-2.62c-.28-2,.29-3.22,1.65-4a6.08,6.08,0,0,0,2.22-1.65c.48-.68.49-1,1.75-1s2.54.09,2.54.09.3-.09.1-.28a4.22,4.22,0,0,0-2.87-.66,3,3,0,0,0-1.9.68c-.46.21-1.63.08-1.23.61s-.27,1.34-1,1.69a9.76,9.76,0,0,0-1.2.81c-.4.3-.75.63-1.1.39s-.92-.59-1-1.09-.43-.71,0-1.19a1.94,1.94,0,0,0,.47-1c-.39.24-.9,1-1.19,1-.89,0-.66-.6-2.24-.23-.09,0-.87.38-1,.41-.36.19,1.49-.52,2.35,0,.37.22,0,.57.58,1.53.26.45.58.76.85,1.23a6.12,6.12,0,0,1,.62,3.23,2.42,2.42,0,0,1-.59,2.2,18.77,18.77,0,0,0-2.88,1.12c-.95.42-1.73,1.28-2.28,1.34-1.21.12-1-1.29-1.33-1.75-.17-.2-1.09-.18-.66-1,.21-.41-.18.16-.87.71s-1.74,1.15-1.3,1A9.63,9.63,0,0,1,56,20c.39-.1,1.49,1.33,0,1.7a6.7,6.7,0,0,0-3,1.23C51.43,23.85,52.66,26.5,52.9,27.23Zm9.33-9.11c-.58.16-.71-1.15-1.07-2s-1.17-.65-2-.56-1.14.89-2,1.45a17.16,17.16,0,0,0-2.59,2.15s-.5.12,0-.83c.21-.4.08-.93.17-1.26s1-.84,1.53-1.52c.64-.83.57,1.2,1.77.07.58-.56,1.91-1.25,2.85-.81C62.46,15.58,63.08,17.88,62.23,18.12Z"/><path class="cls-9" d="M82.88,37.63s-.88,3.25-3,3.15c-10.54-.53.82-6.75-8.18-14.23-1.49-1.24-3.46,1.9-6.22,1.05-1.25-.39-.23,3.71-1.06,3.78s.06-4.14-.37-4c-4.57,1.86-2.52-3.77-2.71-2.87,0,.08,0,.14-.05.21A12,12,0,0,1,60.17,27c-.54,1-1,3-1.94,5.38a28.88,28.88,0,0,0-1.12,4.64c-.29.78-.82,1.14-.52-1.13s.54-5.24,1.73-7.39,3.14-6.15,4.86-6.08,3.43-.29,4.76,0C74,23.78,79,31.18,80.43,33.27a13.86,13.86,0,0,0,2.14,2.81C82.81,36.26,83.26,37.56,82.88,37.63Z"/><path class="cls-11" d="M65.6,27.41c2.05-.31,1.73-3.95.16-3-1,.57-.75-.84.42-1.06.73-.14,2-.19,2.3.85.29.87,0,2.78.59,1.17A2,2,0,0,0,68,22.8a6.57,6.57,0,0,0-3.51.05c-.52,0-1.88-.14-2.59.51-.42.39-1.2,2-.79,2.24.2.11.87-1.76,1.31-1.94,1.67-.68,1.67,1.15.36,1-.65-.06-1.43,1.16-.74,2.52a.81.81,0,0,0,1.29.2c.44-.39.32-.83.5-1.16C64.58,24.86,64.38,27.6,65.6,27.41Z"/><circle class="cls-11" cx="79.88" cy="21.11" r="4.41"/><path class="cls-3" d="M81.2,18a3.46,3.46,0,0,0-4.18.6c-2.2,1.92-.8,5.16.49,5.84s-.65-.92-.76-2.49a3.24,3.24,0,0,1,2-3.39C79.83,18,81.74,18.36,81.2,18Z"/><circle class="cls-3" cx="82.43" cy="22.67" r="0.79"/><circle class="cls-3" cx="81.77" cy="24.2" r="0.41"/><path class="cls-11" d="M58.47,23.32a3.41,3.41,0,0,0-2.58-1.17,3.46,3.46,0,0,0,0,6.91c.14,0,.3-1.29.32-1.42C56.69,24.59,59,23.93,58.47,23.32Z"/><path class="cls-3" d="M56.92,23.19a2.69,2.69,0,0,0-3.27.47c-1.72,1.5-.62,4,.38,4.56s-.51-.71-.59-1.94A2.52,2.52,0,0,1,55,23.63C55.85,23.18,57.34,23.45,56.92,23.19Z"/><circle class="cls-3" cx="55.64" cy="26.95" r="0.55"/><path class="cls-11" d="M69.73,34.86c-1.91.91-4,1.87-6.13,1.5a.48.48,0,0,0-.17.94c3.56,1,4.78-1.25,6.86-2.24C70.84,34.8,70.29,34.6,69.73,34.86Z"/><path class="cls-11" d="M66.83,38.65a1.87,1.87,0,0,1-1.58.17c-.31-.11-1,.22-.73.33a3.17,3.17,0,0,0,2.81-.26C68,38.48,67.5,38.24,66.83,38.65Z"/><path class="cls-12" d="M76.08,50.23s-.78-1.54.09-2.27c1.86-1.57,1.16-2.3,2.4-3.57s-2.87-2.47-4.4-.45c-.71.94-.74,2.25-3.16,2.16-1,0-4.83-.84-6.77-3.2-3-3.69-4.52-3.14-5-2.68-.82.81-1.35,1.34.8,3.26a9.32,9.32,0,0,1,2,1.9c.56.83-.8,1.73-.74,4.25a5.24,5.24,0,0,0,2.79,4.56c1.29.73,3,1.66,3,1.66a11,11,0,0,0,4.3-1.94A56.56,56.56,0,0,0,76.08,50.23Z"/><path class="cls-10" d="M78.32,43.65c-.22.11-.1.5-.56.79a7.44,7.44,0,0,1-1.12.55s.42.25.14.88a4.41,4.41,0,0,1-2.38,1.92,7.15,7.15,0,0,1-2.75.1c-.69-.12-.32.19-.09.36s1.79,1.08,2,1.59a2.1,2.1,0,0,1-.61,2.59,17.62,17.62,0,0,1-3.5,2,4.74,4.74,0,0,1-2.89.38c-1.07-.3-1.19.09-.57.43l1.08.6a11.08,11.08,0,0,0,5.09-2.41c2.69-2.15,4-3.21,4-3.21a1.94,1.94,0,0,1-.29-1.62c.24-1,.74-.86,1.1-1.35a9.45,9.45,0,0,0,.86-1.59,4.21,4.21,0,0,1,.66-1.11C78.74,44.17,79.44,43.06,78.32,43.65Z"/><path class="cls-10" d="M65,43.63c.12.27,2.94,1.69,3.48,2.42s-.19,1.07,1.67.69,2.82-.9,3.15-1.37-.63.87-2.63.54-1.91-.21-3.08-.8S65,43.63,65,43.63Z"/><path class="cls-10" d="M59.05,40.43s-.26.58-.12.88.24,1.1,2.84,3.18a9.83,9.83,0,0,1,1.82,1.63c0,.25-1.1-.87-1.55,0a9.26,9.26,0,0,0-.58,3c0,1.13,1.1,3.63,5,5.09a5,5,0,0,0,2.3.44c.41-.14-.67.46-.67.46l-2.11.1a25,25,0,0,1-3.27-2.12c-.45-.54-1.19-.82-1.47-2a5.17,5.17,0,0,1,0-3.17c.37-1,.74-2.22.74-2.22s.4-.18-1-1.42S57.63,42.06,59.05,40.43Z"/><path class="cls-12" d="M72.73,74.85l2,.26a7.05,7.05,0,0,1,2.33-.59,20.07,20.07,0,0,1,4.19.75,9.09,9.09,0,0,0,3.55.67c.83-.08,2.79-.38,1-1A25.48,25.48,0,0,1,80.45,72c-1.22-.88-4.09-3-4.76-3.54a7.05,7.05,0,0,0-2.49-.72s-.06,2.09-.15,2.93S72.73,74.85,72.73,74.85Z"/><path class="cls-10" d="M74.2,67.91a19.28,19.28,0,0,0-.4,3.6c.18.33.65,1.59,1.77,1.5s1.12-.75,2.51-.33a35.26,35.26,0,0,1,3.55,1.25,14.4,14.4,0,0,0,2.7.84l1.49.17s1.09.39.64.6a6,6,0,0,1-3.24.28,29.93,29.93,0,0,0-3.45-.94c-1.65-.24-1.87.39-3.46.31s-3.58-.34-3.58-.34l.47-7.11Z"/><path class="cls-4" d="M76.89,47.26l3.34,3.08L87,45.48s-2.08,2-3.11,2.94-3.54,2.84-3.54,2.84-1.21-1-2.14-1.84A5,5,0,0,1,76.89,47.26Z"/><path class="cls-4" d="M66.11,56.2,67.62,58A6.52,6.52,0,0,0,71,56.94a47,47,0,0,0,3.91-2.88l2.14-1.7s-2.34,1.5-4,2.42-1.86,1.67-3.36,1.59S68,55.49,67,55.85Z"/><path class="cls-4" d="M70.44,73.85c-.48-1,.28-2.93.65-4.1a16.72,16.72,0,0,0,.15-4.67c-.08.32-1.27,4.75-1.27,4.75L69,74l-.41,1.42,4.09.2S71.32,75.76,70.44,73.85Z"/></g></g></g></svg>