<svg xmlns="http://www.w3.org/2000/svg" xmlns:xlink="http://www.w3.org/1999/xlink" viewBox="0 0 142.98 112.87"><defs><style>.cls-1{fill:none;}.cls-2{clip-path:url(#clip-path);}.cls-3{fill:#babbbe;}.cls-4{fill:#dfc5a0;}.cls-5{fill:#c2a185;}.cls-18,.cls-6{fill:#fff;}.cls-7{fill:#4a7fbb;}.cls-8{fill:#cfd1d2;}.cls-9{fill:#444445;}.cls-10{fill:#404041;}.cls-11{fill:#bed7ef;}.cls-12{fill:#0671b8;}.cls-13{fill:#726360;}.cls-14{fill:#5f5451;}.cls-15{fill:#221e20;}.cls-16{fill:#111;}.cls-17{fill:url(#Безымянный_градиент_56);}.cls-18{fill-rule:evenodd;}.cls-19{fill:#fae924;}</style><clipPath id="clip-path"><polygon class="cls-1" points="150.1 69.15 27.41 69.15 14.64 77.31 3.29 69.15 3.29 2.88 150.1 2.88 150.1 69.15"/></clipPath><linearGradient id="Безымянный_градиент_56" x1="-25.91" y1="-193.67" x2="-20.42" y2="-193.67" gradientTransform="translate(131.96 216.14) rotate(-16.48)" gradientUnits="userSpaceOnUse"><stop offset="0" stop-color="#c7652a"/><stop offset="0.6" stop-color="#e58c27"/><stop offset="0.93" stop-color="#f19b26"/><stop offset="1" stop-color="#f19b26"/></linearGradient></defs><g id="Слой_2" data-name="Слой 2"><g id="Layer_1" data-name="Layer 1"><rect class="cls-1" width="142.98" height="77.15"/><g class="cls-2"><path class="cls-3" d="M99.78,110.33c.57.19,4.33,1.74,16.55,2.21s17-1.23,10.13-4.6c-1.51-.74-24.31-6.09-30.13-5.66C92,102.6,76.19,102.35,99.78,110.33Z"/><path class="cls-4" d="M102,39.45l0,0h0S102,39.45,102,39.45Z"/><path class="cls-4" d="M81,33.21c1.37.27,6.35-1.42,7.75-1.25,1.24.15,2.84-1.16,4.1-1.2,1-1.05,1.44-2.17,1.75-2.14a6.94,6.94,0,0,1,2.49.68,6.12,6.12,0,0,1,2,1.6,3.22,3.22,0,0,1,1.35.2c3.8,1.36,7.62,2.66,11.38,4.1,2.81,1.08,8.76,4.17,9.09,4.33C125.4,41.8,130,44.48,133,48.71a16.85,16.85,0,0,1,3,7,18.37,18.37,0,0,1-.81,8.45A43.85,43.85,0,0,1,131.69,72a2.93,2.93,0,0,1-3.79,1.48c-1.31-.65-2.41-2.48-1.47-3.79,2.53-3.56,3.87-9.74,3.9-10a2.92,2.92,0,0,1-1.43.36c-1.46,0-2.84-2.59-2.85-2.64a14.07,14.07,0,0,0-1.79-1.83c0,.36.3,3,.41,3.59a7.7,7.7,0,0,1,1.42,4c0,1.4-1.4,6-1.49,6.52-.18,1,1.07,7.09-.72,12.7-.27.84,2.3,3.86,1.51,5,0,.53-4.68,8.89-8,7.73a46.06,46.06,0,0,1-5.73-2.59s-.87-5.81-1.11-7.27c-.21-1.27-6-5.17-5.75-4.3s2.75,7.7,2.75,7.7,4,4.16,5.56,4.87c2.31,1.14,4.77,2.67,5.39,4.2,1.1,2.7-1.76,8.78-3.28,10.73a9.35,9.35,0,0,1-2.54,1.83,19,19,0,0,1-3.92-.39,2.9,2.9,0,0,1-2.43-3.26,3.12,3.12,0,0,1,1.58-2.15.52.52,0,0,1-.1-.11c-.12-.12,1-3.15-5.23-7.41A80.22,80.22,0,0,1,95,90.74c-1.31-1.64-2-4.77-2.49-6.81-.39-1.69-3.62-7.19-2.73-12.53.1-.56,1.28-5.64,1.17-6a41.14,41.14,0,0,1-.13-5.79c0-.2-.57-3.75-.6-3.66.05-.16-1.15-6.73-1.53-7.72-.46-1.16-3.94-6.07-3.3-5.51-.81-.71-1.57-1.45-2.44-2.1C79.55,38.05,78.12,32.64,81,33.21ZM99.19,83l0,0,0,0C99.23,82.82,99.18,82.8,99.19,83ZM102,39.45a.8.8,0,0,0,.2.08v0l-.07,0a.66.66,0,0,0-.15,0h-.26A1.07,1.07,0,0,0,102,39.45Zm-.34,0-.16,0-.08,0h0C101.72,39.47,101.75,39.43,101.65,39.44ZM91.59,66.13a.88.88,0,0,0-.26.33A2.91,2.91,0,0,1,91.59,66.13Z"/><path class="cls-5" d="M104.74,80.47s-3.27-2.08-4.17-2.67-4.76-5.41-2.47-3.4,6.41,4,9.73,5.15a31.07,31.07,0,0,0,7.5,1.71c1.87.2,3.14.91,1.07,1s-4.87-.94-2.59.61,3.88,3.08,1.82,3.61-3.16.83-2.66,2.12-.06,3.49,1.54,4.48,5.89,1,7.38-.82,3.88-6.88,3-7.16-6.69.39-4.58-.52,2.51-1.07,3-3.43-1.66-3.41-3.16-4.1c-2.41-1.11-8.35-2.1-11.47-3.07-1.68-.52-6.5-3.13-3.71-4.54s16.6,1.8,18.17-1.16,2-5.4,1.4-6.4-3-.9-4.23.36-4.83,2.34-1.26-.79,6-3.29,4.85-5.06-3.83-3.91-2-2.88,2.74,1.46,2.65,4.19,1.92,3.41,1.57,5.81-2,4.79-1.41,8.43,4,5.2,3.78,6.59-1.72,10.33-4.09,12.88-3.06,7.92-7.8,3.59c-.67-.61-.58,0-2.13-.65s-4.35-2.81-4.09-7.5a4.38,4.38,0,0,0-1.75-4A29.33,29.33,0,0,0,104.74,80.47Z"/><path class="cls-5" d="M108.67,82.26a37.1,37.1,0,0,0-6.73-2.43c-2.1-.38-5.74-2.29-2.64-.62,0,0,5.74,2.79,6.22,4.74s1.54,2.94,1.36,5.19-.63,8,.31,5.67,2.69-1.74,3.07-2.29.43-.31-1.13-2.14-1.75-5.3-2.2-6.23C105.6,81.41,108.67,82.26,108.67,82.26Z"/><path class="cls-5" d="M109,102.14a.38.38,0,0,1,0,.11C109.05,102.05,109.07,102,109,102.14Z"/><path class="cls-5" d="M91,61.27a25.77,25.77,0,0,0-.17-4.5s1.41,1.27,3,2.94a30.31,30.31,0,0,0,5.76,4.72c2,1.2,5.41,3.53,1.85,1.94s-8.42-6.32-8-4.2S95,67.47,96,68.32c1.89,1.54,6.16,4.1,1.59,2.13S92,68.26,91.4,69.32s-1.41,2.37.14,4.73,3,4.61,1.32,3.46-1.27.88-.6,3S93,85.43,95,87.25a24.38,24.38,0,0,0,6.89,3.82c2,.82,2.38.88,2.49,2.72s1.29,3.08,2.67,5.1c1.75,2.58,4.94-.54,3.75.85-3.42,4-.92,3.71-2.41,5.05-.91.82-1.9,3.65.76,3.11,1-.2.86-1.94,1.54-.42.2.45-.43,1.68,2.07,1.21s3.24.67.44,1.11-3.33.41-4.41,0-2.48-.4-2.34-2,.82-3.33,1.39-3.52a9.58,9.58,0,0,0-.69-3.47c-.77-1.49-2.45-2.39-4.54-3.94s-5.44-4.21-6.72-5.31a6.19,6.19,0,0,1-2.26-3.22c-.54-1.53-.39-2.94-1.1-4.41s-2.74-7.25-3-9.87,1.7-7.36,1.56-8A21.09,21.09,0,0,1,91,61.27Z"/><path class="cls-5" d="M125.38,42.53l-.67.12a58,58,0,0,1-10.55,1c-4-.23-11.14-2.31-13.7-4.74s-7.5-6.91-8-8,.48-.8-.52-1.1-2.72.21-2,1.13,4.72,4.73,7.26,7.61,6.41,6.07,10.56,9.65,4.7,1.37,5.42.33,3.28-2.14,6.32-1.92A6.51,6.51,0,0,0,124.8,45c1.28-1,7,1.66,4.38-.28"/><path class="cls-4" d="M68.56,21.19A3.09,3.09,0,0,0,67,18.77,40.85,40.85,0,0,1,65.68,14c-.16-1.27-2.42-3.33-3.34-1.75s-.57,3.9-.58,5.16-1.3-.44-1.64.69.89,4.4.93,6.45S59,29.91,63,30.49s4.9,0,5.74.16"/><path class="cls-5" d="M118.79,110.44s3.29.51,3.49.26,1.73-1.69,1-2.81a17,17,0,0,1-1.54-4.67,18.36,18.36,0,0,1,1.48-7.31c1-2.25,2.2-5.32,2.2-5.32s-.68-.39-1-.15-3.78,4.35-4.53,4.47a33.56,33.56,0,0,1-4.84-.83s-.86,0,.39.8,2.92,1.79,3.09,3.19c.39,3.29-1.22,1.71-2.24,8.79-.28,2-4.69,3-1.77,3.28S118.79,110.44,118.79,110.44Z"/><path class="cls-4" d="M131.48,74.77a1.41,1.41,0,0,0-.32,1.17c.12.7,1.11-.79,1.66.23.4.74.54,1,.8.38s.6,2.16,0,2.68a4.19,4.19,0,0,1-3.41,1.21c-1.35-.12-2.26-1.93-2.26-1.93l-.81-5.62,2-.9L132,73.25Z"/><path class="cls-6" d="M127.67,41.33l-.3-1.07s-.29,1.55-5.62,3.34-14.6,2-14.6,2-8.31-6.66-10.39-8.85A82.6,82.6,0,0,1,91.44,30l-1.08.46-1.09,1,3.84,15,13.46,13.15S128,44.23,128.12,44.07A24.49,24.49,0,0,0,127.67,41.33Z"/><path class="cls-7" d="M108.85,50.86a2.08,2.08,0,0,1-1,.66c-.73.27.51,1.93.51,1.93s-.09,1.17-.26,1.26-3.29,2.52-3.29,2.52l-2.55-3.61s2.5-1.33,2.59-1.88-1.26-.77-1.25-1.45c0-2.2,3.27-3.78,3.27-3.78l2.26,4Z"/><path class="cls-8" d="M106.41,46.93c-.1.11-2.5,2.31-2.5,2.31a65.87,65.87,0,0,1-4.8-4.8c-1.77-2.09-4.27-5.87-5.27-7.39s-3.3-6.61-.57-1.53c.58,1.08,7.67,10.56,9.13,11.54C105.19,48.92,108.37,44.88,106.41,46.93Z"/><path class="cls-9" d="M70.6,32.94c1.36.26,11-.56,15.62-1,.77-.07,4.74-3.72,7.47-2.84,1.39.44-1,2.5-.44,3.81s4.15,12.66,7.59,17.15c1.52,2,3.16,3.89,4.84,5.75,3.86-3.62,14.44-10.17,20.53-13.63,2.74-1.56,3.4-.28,4.12,1,3.21,2,5.22,5.19,6.75,8.61a36.16,36.16,0,0,1,2.17,6,12.59,12.59,0,0,1-.28,6.83,20.39,20.39,0,0,1-3.14,5.73A22.27,22.27,0,0,1,134,72.8a3.5,3.5,0,0,1-4.3.81c-1.05-.53-2.07-1.14-3.09-1.72a7.39,7.39,0,0,1-1-.64,1,1,0,0,1,0,.18,9.72,9.72,0,0,0,2.63,3.89c.69.52.72,4.12-1.11,2.76-1.34-1-11.79-4.19-16.83-4.29-2.25-.05-5.88-4.41-5.88-4.41h-.15a25.6,25.6,0,0,1-2.51,1.06,7.91,7.91,0,0,1-4.59-.25,41.32,41.32,0,0,1-4-1.6c-1.32-.55-2.5-1.33-2.53-2.8a13.86,13.86,0,0,0-.42-3.73,24.88,24.88,0,0,1-1-2.69,5.42,5.42,0,0,1-.1-2.65c-.18-2.71-.73-9.24-3.5-12.28C81,39.36,72.21,40,70.6,38.73c-.31-.25-.64-3.16-.82-3.58C69.41,34.3,70.06,32.84,70.6,32.94Z"/><path class="cls-10" d="M105.12,57.12s-4.64-3.63-9-7.59-8.79-11.06-8.79-11.06l2.53-1.15-2.31-1.85.64-3.95s-1.63-1-1.51.92A10.05,10.05,0,0,1,86.22,36l2.66,1.25-2.46,1.23s-.29.42,1,2.21,9.35,10.37,12.17,13,5,3.87,5,4.95-.16,3-.59,2.48a3.39,3.39,0,0,0-1.36-1.23c-1.18-.51-2.37.38-1.71,1.81.34.73,2.09-.55,1.43.49s-1.45,2-2.14,2.14-2.75,1.25-.74.8a6.33,6.33,0,0,0,3.35-2.64l.59.25a.89.89,0,0,1,.54,1c-.08.5-1.68,1.52-1.94,1.59s-.8,1.14.36.57.69.78.34,1.24a3.34,3.34,0,0,1-2,1.37c-1,.19-3.35-.9-4.21-1.59s-2.77-1.38-1.18-.18,1.34,2.16,0,1.38-2.72.18-3.77-1.23-.77-3.3.39-2.28.43,1.08.58.47-1.37-2-1.79-3.79-1.91-4.43-.51-3.82,2,2.49,2.41,3,2.09,1.28,1,0-2.73-5.53-4-7,.22-1.47,1.2-.8,4.2,1.65.9-.66-5.1-3.89-3.61-1.56a9.35,9.35,0,0,1,1,6.31,5.23,5.23,0,0,0,.38,3.43,3.92,3.92,0,0,1,.34,2.4c-.23.66.7,1.3.36,2.8,0,0-.19,1.61.4,2.06s6.84,2.89,7.35,3,3.76.84,3.76.84l2.69-1.92Z"/><path class="cls-10" d="M106.42,57.54s7.58-2.92,10.67-3.84A58,58,0,0,0,123,51.6l.19-2.86,2.23.33,5-5.83A25.17,25.17,0,0,1,138.07,52c3,5.68,2.7,7.69,2.7,7.69a28.1,28.1,0,0,1-2.87,7.55c-1.86,2.94-5.75,7.66-5.75,7.66L128.62,73s-3.29-2.19-1.05-1.52,5.46-.28,5.8-.69,5.06-6.51,3.39-4.84-4.68,4.31-1.95.89a17.13,17.13,0,0,0,3.39-10.33c0-2.51-3.81-8.59-4.59-9.11a4.14,4.14,0,0,0-5.5.22c-2.44,2.21-2.28,2.69-3.24,2.26l-1-.42-.26,3s-12.1,4-14,4.62-3.41.7-3.86,1.43a5.8,5.8,0,0,0-.36,2.46S104.28,58.53,106.42,57.54Z"/><path class="cls-10" d="M130.05,53.82A15.66,15.66,0,0,1,121.94,59c-2.46.67-5.57,2.76-2,1.6s5.39-2.09,4.53-.85-3.71,4.32-2,3.13,2.57-2,3.12-.68a3.06,3.06,0,0,1-.41,2.82c-.2.28-3,6-1.39,3.74s2.25-2.92,2.29-1.63-1.13,2.5-1.08,4,.55.16.91,1.28,1.19,3.13.32,3.69-1,.59-3.59-.47-4.37-1.62-5.88-3c-3-2.72-6.23-6.19-4.74-3.92s5,6,2.3,5-5.82-2.83-6.92-4.13-1.9-6.74-2.07-4.56-1.8,3.14.09,4.8,2.22,3.55,3.75,3.78c17.06,2.46,19.51,6.18,19.51,6.18a11.34,11.34,0,0,0-.16-4.48c-.62-1.62-1.53-3.27-.93-5,.47-1.38,3-3.1,1.4-4.93-.94-1.1,1.33-4.79-.08-5.37S130.05,53.82,130.05,53.82Z"/><path class="cls-8" d="M107,46.9l2.24,3.86a58.7,58.7,0,0,0,5.46-2.47c2.59-1.36,6.45-3.26,6.45-3.26l5.49-2.81,1.07-.89.13-1.71a4,4,0,0,1-2.17,2.78c-1.57.93-10.19,4.72-12.89,5.76s-3.47.6-4.21,0S106.24,45.65,107,46.9Z"/><path class="cls-11" d="M105.66,48.36s-1.36.94-1.52,1.4c-.26.77.7,1.48,1.92,1.57s1.23,0,.25-.21-2.07-.59-1.31-1.77C105.5,48.59,106.68,47.26,105.66,48.36Z"/><path class="cls-11" d="M105.62,52s-.8.64-1.13.92-.72.58-.72.58l.75.94s-.24-.32.62-1.12S106.93,51.76,105.62,52Z"/><path class="cls-10" d="M122.18,69s-3.81-1.18-5.64-2-3.44-2.55-3.84-1.76a5.49,5.49,0,0,0-.45,1.88s-.11-.82.87-.9c.53,0,9,3,9.19,3.6,1.66,5.36.72,2.15.41,0C122.68,69.62,122.87,69.61,122.18,69Z"/><path class="cls-10" d="M124.79,62.34l-3.3,6.46-.26-.08s1.15-7,1.32-7.15-6.18-5.77-6.18-5.77a2.06,2.06,0,0,1,1.95.17c5.24,2.88,7.42,1.19,7.73,1.42,1,.73-.49,3.63-.49,3.63Z"/><path class="cls-12" d="M121.23,68.72l3-7.81s-8.55-5.44-8.58-4.93-1.41,9.6-1.41,9.6a14.71,14.71,0,0,0,4.4,2.27C119.84,68.27,121.23,68.72,121.23,68.72Z"/><path class="cls-4" d="M96.72,22.73a18.64,18.64,0,0,1-2.08,4.52c-2.24,3.65-1.08,4.92-1,5.11.61,1.07,2.22,1.25,2.53,1.5,0,.34,7.91,4.79,11.27,6.61a15.76,15.76,0,0,0,8,1.34,23.94,23.94,0,0,1,3.51.72,17.53,17.53,0,0,0,3.78-.85A7.05,7.05,0,0,0,127.15,37c.08-.37.18-2.83.4-4.32A4.44,4.44,0,0,1,129,29.94c.43-.86.84-1.73,1.19-2.63.6-1.49,1.3-3.25.82-4.73a18.83,18.83,0,0,1-.74-3.1,3.7,3.7,0,0,0,0-1.28,10.6,10.6,0,0,0-1-1.6c-.63-2.14-1.51-4.64-3-5.56-.49-.31-1.69.26-1.9-.2a3.25,3.25,0,0,0-1.73-1.92c-.55-.22-1.23.07-1.83.14s-1.4-1-1.79-1.18a4,4,0,0,0-3.38-.25,2.31,2.31,0,0,0-.47.12c-1.47.79-1.43-.59-2.93-.91a4.06,4.06,0,0,0-2.6.15c-2.89,1.42-2.35.2-3.67,1.27-.85.69-.75,2.44-1.39,3-.84.79-2.51.5-3.18,1.25a15,15,0,0,0-2.8,5C98,19.19,97.27,21,96.72,22.73Z"/><path class="cls-13" d="M130.26,20a9,9,0,0,0,1,.75,4.42,4.42,0,0,1,1.68,2.79c.48,1.77,1.21,5.16,1.34,6s.25,2.84-1.35,3.37-3.14,1-3.64,1.52-1.3,2.11-2,1.95-.22-4.19.31-4.93a19.51,19.51,0,0,0,3.16-6.33A9.42,9.42,0,0,0,130.26,20Z"/><path class="cls-4" d="M118.55,50.55v0C118.54,50.63,118.56,50.62,118.55,50.55Z"/><path class="cls-13" d="M87.32,16s2.54-1.91,6.74-4.46A27.53,27.53,0,0,1,103.29,8c1.51-.29,2.88-.11,2.56.4s-.36,1.27-.78,2.07-.8,1-1.91,1.51a5,5,0,0,0-2.78,2,43.26,43.26,0,0,0-2.83,6.42c-.83,2.35-3.19,7.4-3.19,7.4s-.67-1.37-1.91-4.27-2.32-4.69-3.62-5.43S86.37,17.28,87.32,16Z"/><path class="cls-14" d="M100.93,9.76s1.84-1.36,2.69-1,1.56,1.21,1,1.75-3.9.88-5,1.5a6.92,6.92,0,0,0-2.78,3c-1,1.72-1,4.59-2,4.71a2.6,2.6,0,0,1-2.1-1.09c-.71-1-1.77-1.38-1-.25S94,21.55,94.26,22c.64,1.33,1.21-.28,1.49-1.25s1.39-3.87,1.7-4.57,1.51-1.69.75.4-1.31,4.07-2.27,6.4-1.4,3.36-1.79,2.83-.68,0-.29.85.36,1.26,1,.12a40.53,40.53,0,0,0,2.19-4.93c.46-1.3,2.08-5.59,2.91-7.29a3.43,3.43,0,0,1,1.8-2,14.82,14.82,0,0,0,2.48-1.07,3,3,0,0,0,.95-1.59A4.67,4.67,0,0,1,106,8.26,4.62,4.62,0,0,0,103.29,8a60.15,60.15,0,0,0-7.41,2.38c-1.55.65-3.29,2.39-3.74,2.59-1.33.58,3.55-2,4.33-2.5s4.55-1.83,4-1.28S98.61,10.81,100.93,9.76Z"/><path class="cls-14" d="M130.49,20.5s.4,1.81.65,2.46a3.54,3.54,0,0,1-.24,2.75c-.55,1.28-1.09,3-1.35,3.37a4.53,4.53,0,0,0-.45,1.77c-.11.7-.33,2.75-.08,1.87s1-4.2,1.1-3.12-.89,3.13.83,2.55,3-1.52,2.44-2.17-1.07-2.62-.66-2.79.75.6.86.78a8.92,8.92,0,0,0-.32-3c-.36-1.41-.92-3.27-1.7-3.9S130.35,19.9,130.49,20.5Z"/><path class="cls-13" d="M103.59,28.87c-1.76.38-1.58,1.35-1.48,1.75a32.36,32.36,0,0,0,3.51,6.85c2.11,3.09,6.29,3.17,9.32,2.87s4.64.33,6.72-.6a3.71,3.71,0,0,0,2.22-3.37c.09-.63.46-2.84.79-6.28a8.86,8.86,0,0,0-1.25-5.79,21,21,0,0,1-.72-2.42c-.19-.61-1.52-.73-2.24-.91s-1.61-.4-2.31-.52-3.16,0-7.1,2.44a50.39,50.39,0,0,0-7.4,5.84"/><path class="cls-5" d="M129.51,27.9c-.51.79-.83,1.54-1.38,1.77-.92.38-1.26,3-1.51,2.72s-.15-2.22-.31-1.58c-1.42,5.73-.57,1.53-.57,1.53s.6-2.72.84-5.06S126,23,123.81,20.56s-5.14-3.42-10.57-1.15-6.72,3.36-8.27,5.32c-2.34,3-1.41-.28,0-1.48,6.41-5.43-2.07,0-1.34-2.29.3-1,.7-1.74-.69-2.21-.16-.06-3,.23-2.09-.31,1.5-.88,3.5-.57,2.22-1.26-3.43-1.83,1.57.18,1.68-.43.4-2-.69-.64-1.87-.92-3.4-.8.88-.82,2.16-2.47.62-.8,3.47-1.46,4.63-.57,2.13,1.65,4.71-1.43,4.65,1.33-.06,2.31.87,1.37.06,3-.53,1.08,2.15.12,2.7-1.37a2.24,2.24,0,0,0,.3-1.2,3.31,3.31,0,0,0-1.75-2.91,5.41,5.41,0,0,0-4.08-.31,16.31,16.31,0,0,1-5.18-.13c-.5-.27,1.72.21,3-.12s2.84-1.13,4.94-.42a5.16,5.16,0,0,1,3.15,2.3,4.45,4.45,0,0,1,.18,2.94,1.77,1.77,0,0,0,.07,1c.15.31.24.26.46.3a5.38,5.38,0,0,0,1.29.13c.24-.07,1-.58,1.58-2,.72-1.69.55-2.87-.39-3.83a5.17,5.17,0,0,1-1.43-1.89c-.23-.69-.15-1-1.19-1.24s-2.13-.45-2.13-.45-.21-.14,0-.27a3.49,3.49,0,0,1,2.53,0,2.45,2.45,0,0,1,1.41,1c.32.28,1.32.41.86.79s-.1,1.22.37,1.67a8.43,8.43,0,0,1,.8.95c.25.35.46.71.81.57s.9-.33,1.06-.75.52-.53.27-1.05a1.66,1.66,0,0,1-.16-.93c.26.29.49,1.08.73,1.14.74.17.69-.39,1.9.26.08,0,.63.51.7.56.24.24-1.1-.76-1.94-.48-.37.12-.16.49-.86,1.22-.32.34-.66.54-1,.89a5.93,5.93,0,0,0-1.3,2.7,2.25,2.25,0,0,0,0,2,7.17,7.17,0,0,1,2.1,1.57c1.28,1.56.91-.33,2.92.09,1.51.32,3.06,1.56,2.23,1.22s-3.87-.79-.93.38a4.35,4.35,0,0,1,2.18,2.72C131.12,25.67,129.88,27.31,129.51,27.9Zm-5.58-10.07c.43.26.86-.85,1.37-1.5s1.12-.33,1.76-.09.72,1,1.32,1.68A13.91,13.91,0,0,1,130,20.34s.38.21.21-.73c-.07-.39.16-.82.17-1.13s-1.65-.71-2.37-1.95c-.35-.6-1.27-1.48-2.16-1.28C124.35,15.57,123.28,17.45,123.93,17.83Z"/><path class="cls-14" d="M102.11,30.62s1.13,3.15,1.67,3.36c8.38,3.18,1-6.07,10.24-10.74,1.52-.78,2.39,2.16,4.87,2.19s-1.12,5.29-.13,4.51c2-1.55,1.62-4.21,1.94-4,2.37,1.66,2.42-3.17,2.36-2.34a1.28,1.28,0,0,0,0,.19,11.12,11.12,0,0,0,.39,2.24c.2,1,.11,2.83.29,5.09a28,28,0,0,1-.21,4.29c0,.73.4,1.16.71-.88s.83-4.69.37-6.81-1.08-6-2.52-6.31-2.76-1-3.93-1c-5.29-.09-11.29,5.33-13,6.87a13.06,13.06,0,0,1-2.46,2C102.5,29.43,101.82,30.48,102.11,30.62Z"/><path class="cls-15" d="M118.87,25.26c-1.73-.34-.46-3.81.61-2.67.64.68.82-.59-.09-1-.57-.27-1.57-.57-2.11.27s-.66,2.43-.77.9a1.93,1.93,0,0,1,1.51-2,5.21,5.21,0,0,1,2.88.77c.43.11,1.59.27,2,1,.26.42.5,2,.11,2.12-.19,0-.28-1.72-.61-2-1.21-.93-1.66.67-.54.84.55.08.89,1.31,0,2.35a.68.68,0,0,1-1.12-.09,1.25,1.25,0,0,1-.12-1.11C121,23.28,121.61,25.79,118.87,25.26Z"/><path class="cls-15" d="M105.92,15.5c1.11-1.65,3.59-1.38,4.66-1a2.65,2.65,0,0,1,1.88,1.35c.53,1.36-.8,3-1.14,3.45a3.26,3.26,0,0,1-1.5,1.24,2.93,2.93,0,0,1-2.63-.55C105.69,18.91,104.84,17.12,105.92,15.5Z"/><path class="cls-6" d="M108.35,14.81a2.24,2.24,0,0,1,2.71.89c1.18,1.6-.22,3.72-1.18,4.05s.57-.57.87-1.66a2.25,2.25,0,0,0-.85-2.61C109.27,15,107.94,15,108.35,14.81Z"/><path class="cls-6" d="M106.61,15.66a.57.57,0,0,1,.8.24.65.65,0,0,1-.27.85.56.56,0,0,1-.8-.24A.65.65,0,0,1,106.61,15.66Z"/><path class="cls-6" d="M105.92,17a.3.3,0,0,1,.42.12.35.35,0,0,1-.14.44.29.29,0,0,1-.42-.12A.34.34,0,0,1,105.92,17Z"/><path class="cls-15" d="M126.09,22.73c.13-.54.44-.45.87-.56a2.19,2.19,0,0,1,1.86.63c.12.1,1.94,1.65,1.36,3.59s-3.17,2.83-3.69,2.3c-.12-.11.11-.15.24-1.2a7.14,7.14,0,0,0,0-2.18C126.42,23.79,125.92,23.45,126.09,22.73Z"/><path class="cls-6" d="M127.07,23.36a2.17,2.17,0,0,1,2.58,1.08c1,1.66-.47,3.65-1.43,3.9s.6-.52,1-1.57a2.24,2.24,0,0,0-.65-2.64C128,23.57,126.65,23.5,127.07,23.36Z"/><path class="cls-6" d="M127,26.85a.51.51,0,0,1,.59-.37.48.48,0,0,1,.32.6.51.51,0,0,1-.59.37A.47.47,0,0,1,127,26.85Z"/><path class="cls-5" d="M113.42,19.15a9.93,9.93,0,0,0-3.42.24,5.69,5.69,0,0,1-4.71-1.79c-.35-.32-.06,2.32-.06,2.32s2.49.27,2.84.79S106.64,22,106.81,22C107.15,22,113.42,19.15,113.42,19.15Z"/><path class="cls-5" d="M94.64,27.25a23.33,23.33,0,0,0,2-4.25c.43-1.11,1.54-1.61.72.37s-2.51,4.84-2.07,5.45,2.15-2.57,2-.95-.44,2.94,0,3.67a27.59,27.59,0,0,0,3.47,3.55c1.07.91,1.53,1.79-.45.39s-2.85-2-3.81-2.16-1.78,0-2.22-.32a2.41,2.41,0,0,1-1-2.27A7.69,7.69,0,0,1,94.64,27.25Z"/><path class="cls-3" d="M59.76,111.83c-.47.13-3.61,1.28-13.59,1s-13.84-2-8.06-4.59c1.25-.55,20.08-3.95,24.8-3.24C66.43,105.52,79.33,106.19,59.76,111.83Z"/><path class="cls-3" d="M83.62,103.32c-.37.12-2.82,1.15-10.75.52S61.82,101.32,66.32,99c1-.51,15.81-3.22,19.58-2.35C88.71,97.29,99,98.42,83.62,103.32Z"/><path class="cls-4" d="M71.11,38.87c.2-.17,1.15-.3,1.35-.47,1.39-1.26,1.37-1.26,0,0a28.12,28.12,0,0,0-4,1.49c.07,0-4.39,3.4-8.92,3.69s-14.8.75-15.46.46c1.37,2.17-12,9.6-12.39,10.3-1.72,1.5,0,2.88,1.06,5.2s.71,5,3.14,5.66c1.25.33.89,2,2,1.43.5-.25,6.25-2.85,7.65-3.87,2,2.87,6.59,13.42,6.73,13.55s-2.64,5.33-2.45,7a101.46,101.46,0,0,1,.54,13.46c0,.82-1.73,2.19-1.88,2.4-5,2-3.48,9.61-3.26,10.61.11.52.91,1.61,1.74,1.55s8.74-.71,11.58-1.89a4.23,4.23,0,0,0,2.9-3.26,8.7,8.7,0,0,0,0-1.84c.28-.34,2.15-7.43,2.53-8.48A73.42,73.42,0,0,1,66.94,89c.52-1.09,3-5.16,3.22-5.48,0,.1.14,1.7.17,2.41.07,1.19-.17,9.75-.25,10.57a7.94,7.94,0,0,0,0,2.23,3.82,3.82,0,0,0,1.71,2.73,4.62,4.62,0,0,0,2.08.56,19.35,19.35,0,0,0,9.08-1.42,2.4,2.4,0,0,0,1.42-2.43A2.36,2.36,0,0,0,82.51,96L81,95.88c-1.17-.56,3.16-15.78,3.16-15.78a36.27,36.27,0,0,0,1.33-4c.69-3.27.35-4.39.74-7.71a72.61,72.61,0,0,0,.37-12.16C86.47,54.28,71.4,38.89,71.11,38.87Z"/><path class="cls-4" d="M44,44c-.35,0-1.06.28-1.84.34C42.88,44.3,43.59,44.05,44,44Z"/><path class="cls-4" d="M13.37,72c-.15-1.15-1.37-1-1.83-1.45a2,2,0,0,1-.44-1.6c.21-2.13,3.55-3.22,3.52-3.17.12-.18-2-1.89.26-3.21,6.57-3.85,5.23-4.8,5.51-5.08-.88-.83-1.23-.81-1.18-2.44s1.07-2.6,2.22-3.55A2.33,2.33,0,0,1,24.9,53a2.68,2.68,0,0,1-.13,2,23.11,23.11,0,0,1,2.82,2.6c.37.52.95,1.51,1.52,1.52.82.07.9,1,1.15,2s2.53,1.95,2.65,2.76c.15,1-2.35,2.74-6.13,3.87a6.92,6.92,0,0,1-4.93,2.53c-1.9.83-3.41,1.52-5.32,2.32C15.21,73.1,13.52,73.07,13.37,72Z"/><path class="cls-5" d="M17.87,68.94c-.16.13-2,1-2,1a.83.83,0,0,1-.74-.6c-.52-1.28-.17-.68.16-.26a1.23,1.23,0,0,0,1.26.25C17.6,68.86,18.79,68.22,17.87,68.94Z"/><path class="cls-5" d="M30,64.52a1.77,1.77,0,0,1-2.08-1.35c-2.87-8.82-5.31-4.84-4.67-8.56.32-1.86-.43-4.27-3.07-2-.21.18,2-2.57,3.76-1a3,3,0,0,1,1,2.85.92.92,0,0,0,.14.8s1.28,1,2.12,1.87.09.73,0,.72S30.21,64,30,64.52Z"/><path class="cls-5" d="M13.55,72.4A1.52,1.52,0,0,1,13,71.26a.86.86,0,0,0-.3-.22c-.38-.21-1.56-.6-1.58-1.25s0-.47.4-.07.52.5,1.3-.08,1.36-1.21,1.61-1.29h0a9,9,0,0,1,1.92-1.14c.77-.11-.93.24-2.53,2.56a3.93,3.93,0,0,0-.49.92l0,.14a1,1,0,0,0,.22,1,1.89,1.89,0,0,0,2.54.45c2.62-1.21,6.37-3.45,7.53-5.92.93-1.95,1.37-1.86,1-7.91.28-.16.32,4.07.59,3.92.21,5.07,5.88,2.59,6,3,.33,1.22-4.4,2.37-4.4,2.37-.36,1.37-4.65,2.79-5.65,3.14s-2.7.93-3.47,1.21a22.14,22.14,0,0,1-2.51,1.14A2,2,0,0,1,13.55,72.4Z"/><path class="cls-5" d="M20.48,59.79a4.6,4.6,0,0,0,0,1.92,2.42,2.42,0,0,0,2.47,1.68s.35-1.34-.44-1.55S20.4,60.88,20.48,59.79Z"/><path class="cls-4" d="M77.05,46.75v0C77.09,46.84,77.1,46.82,77.05,46.75Z"/><path class="cls-5" d="M63.73,75.34a19.76,19.76,0,0,0-5.68,2.9c-2.71,2.05-5.06,3.55-5.58,4s-.59,1.6-.08,2.85,2.54,4.25,1.59,4.42-3.33,0-2.79,2.48,1.11,4.56,2.05,5.16,3.17,1.32-1,1.9c-3.67.51-5.82,2.72-6,4a7,7,0,0,0,1.08,5.48c.68,1.18,3,.73,2.92-.13s.62-1.88.76-1.12.31,2.36,2,2,1.06-.72,1.17-1.33,1.13-1.74,1.33-.38.25,1.71,2.8,1c3-.79,2.59-3.61,2.87-4.15s.65.29.34,1.74.26,3.29-2.82,3.9-10.73,1.18-10.73,1.18-2.58,1.32-3-3.28c-.59-7,2.37-8.19,3.55-8.81s2-1.46,1.88-2.4,0-5.34-.13-8.51S49.71,82,49.71,82l9.56-11.86L63.21,73S68.86,72.65,63.73,75.34Z"/><path class="cls-5" d="M78.91,78.86h0c-.6,0-5.06,2-9.09,2s-14.89-1.61-9.72-.32c0,0,6.49,1.45,9.58,1.18a36,36,0,0,0,4.23-.45A16.36,16.36,0,0,1,70,82.69a27.88,27.88,0,0,1-8.15.38c-4.34-.52-7.33-.45-6.15-.1s7.09,1.31,8.71,1.88-.06.91-2,5.15,5.41-6.61,1.9,2.5a71.42,71.42,0,0,0-2,8.48c-.35,2.29,1.25-3.61,2.75-7.85a41.89,41.89,0,0,1,4.2-8.32c.78-1.35,1-.53,1,1.11a51,51,0,0,1-.1,6.84,16.57,16.57,0,0,0,.19,7.2c.77,2.75,4.18,2.32,6.08,2.09s-1.42-.68-3-1.75.33-3.55,1.28-4.67-.5-2-1-3.61a12.09,12.09,0,0,1-.3-5.31c.22-2.08,2.49-.82,3.7-.84s1.52-5.55,2.33-6.4C80.1,78.85,79.74,78.68,78.91,78.86Z"/><path class="cls-5" d="M69,71.44a15.39,15.39,0,0,0,1.15,2c.45.56,4.29.05,7.63-.58s4.82-.15,5.75.31,1.18,2.57-1.82,5.37c-.61.56,2,.09,1.37,2.34-2.41,8.81-6,14.59-4.73,14.82a12,12,0,0,0,2.62.13,5,5,0,0,1-.25-2c.12-.87,1.3-6.7,2-9.29s1.53-4.49,1.94-5.81a28.49,28.49,0,0,0,1.1-4.49c.07-1,0-2.8,0-2.8S73.41,68.9,73.26,69A49.22,49.22,0,0,1,69,66.58,11.12,11.12,0,0,0,69,71.44Z"/><path class="cls-5" d="M83.35,101.47l-8,.66-1.77-.45s2.08-.14,4.34-.42,3.45-.91,3.55-1.18.3-.71.45-.34.45,1.18,1,.85a2.13,2.13,0,0,0,1-2.09c-.1-1.07-1.67-2.33-1-2.19a3.09,3.09,0,0,1,2,2.07C84.85,99.27,84.94,101.29,83.35,101.47Z"/><path class="cls-8" d="M31,68.05l-1.61-1.11a18.79,18.79,0,0,1,1.86-.51,12.59,12.59,0,0,1,1.71.2Z"/><path class="cls-6" d="M43.2,44.17A1.85,1.85,0,0,1,45.08,43c1.4.14,8.68.71,11.11,1a49.3,49.3,0,0,0,7.22-.09S68.3,40.66,70,39.5a5.71,5.71,0,0,1,2.69-1.17s.56,2.61.67,2.86,1.19,17.37,1.19,17.37L72.84,64.3l-5.09.88Z"/><path class="cls-8" d="M64.07,45.38l3,2.58,3.79-5.5s.93-4.47.38-2.55S67.28,47.7,64.07,45.38Z"/><path class="cls-6" d="M27.29,54.63l-1.8.93A10.89,10.89,0,0,1,28.58,59a17.6,17.6,0,0,1,2.27,5A12.39,12.39,0,0,1,31,68.05l3.58-2L30.27,54.7Z"/><path class="cls-8" d="M61.19,44s-14.54-.52-10.69.44,10.4,4.77,10.4,4.77l2.24-3.73a5.23,5.23,0,0,0-.2,5.1c1.38,2.89,3.62,7.43,3.62,7.43S49.76,45.13,46.2,44.48s-4.27-2-.47-1.65S62.42,43.42,61.19,44Z"/><path class="cls-7" d="M63.36,45.68a5.23,5.23,0,0,0-1.16,2.43,2.08,2.08,0,0,0,1.9,2.41l1,5.06,3.64,6.76,1.18,1,.2-2.53a5.3,5.3,0,0,0-.07-7c-3-3.39-3.35-4.35-3.35-4.35s1.08-1.08.49-2.15C66.14,45.43,65.75,46.5,63.36,45.68Z"/><path class="cls-8" d="M31.82,67.33l-.86.72a22.57,22.57,0,0,0,3.24-.81c.49-.29.59.2.59.2l-3.06-9.87-2.94-3s-.43,0,.21,1a51.1,51.1,0,0,1,2.33,6C31.89,63.21,32.53,66.29,31.82,67.33Z"/><path class="cls-9" d="M74.55,39.62c-.93.29-2.71-.94-3-.56-1.53,1.72-1.78,4.13-1.92,6.4-.17,2.58.31,14.19.23,16.65a62.78,62.78,0,0,0-9.45-11.69C56.83,47,50.65,44,45.93,43.85c-1.63-.06-3.19-.8-4.28.79-.82,1.19-3.93-1.38-5.12-.62-2.36,1.52-5.68,7.31-8.37,7.95-1.46.35-1.12,2.18-.51,2.65,3.73,1.68,5.13,12.1,7.3,13.16,1.14.56,2.91-.52,3.43-1.62,1.49-.83,3.15-1.46,4.65-2.25.08.24,1.23,0,4.15,1.91,1.56,1,2.33,4.44,2.66,4.31,1.72-.69.35,6.73.2,8.66-.08,1-1.17,3.53,0,3.23,6-1.54,10-9.89,17.12-8.7,2.13.35,1.08-3.1,2-5.2,0-.1.08-.19.12-.29.24.54.91,2.63,1.07,3.27.91,3.54,10.7-1.63,15.23,2.16.74.62,1-2.69,1.26-3.6.27-1.14-.06-9.21-.19-11.73a21.59,21.59,0,0,1,1.54-8.69,15.15,15.15,0,0,0-4.46-7.14C81.9,40.54,75,39.48,74.55,39.62Z"/><path class="cls-9" d="M87.7,50.64h0s0-.06.1-.2h0Z"/><path class="cls-10" d="M42.92,46.43l3.3-2.74s.05,3.78,1.94,4.89a7.92,7.92,0,0,0,4.4.79l.95,4.4s11.77,4.31,13.77,8.78,1.39,5.63,1.4,6.93.23,3.75-1.17,3.61a16.33,16.33,0,0,0-4.75.71c-.88.27-1.77-.33,0-1.52S67,68.17,66.4,65.19s-3.05-6.06-7.84-8.49-7.12-1.63-7-3.2.27-3.44.27-3.44a4.19,4.19,0,0,1-3.12-.25c-1.79-1.11-2.18,3.33-5.13,2.53-1.36-.37-2.07-2.05-2.17-3.54-.05-.83-3,8.66-6.25,4.1C33.79,51,30.85,49.08,32.92,48,35.23,46.71,42.67,46.33,42.92,46.43Z"/><path class="cls-10" d="M56.24,76a2.46,2.46,0,0,1-2.88-.26c-1.52-1.2-2.19-1.31-1.5-4.47s.42-5.2,1.28-6.74,3.54-6.59.66-2.81-4.29,6-6,4-3.06-1.76-2.22-3c4.38-6.36,3.74-5.8,1.85-3.6-1.34,1.55-2.51,4.31-3.61.44-1.16-4.07-2.54-8.72-2.06-4.81.52,4.17,1.43,8.38.61,7.31-1.74-2.26-1.73-1-1.37.38s-2,2.59-3.24,2.44-2.19.43-3.72-3.28a47.91,47.91,0,0,0-3.79-7.56c.22.67,3,6.54,4,9.28s.16,3.34-.25,2.86-.14,1.33.92,1.56a2.87,2.87,0,0,0,2.25-.17c1.39-1,3.75-1.71,5.14-2.43s3.09.6,3.45,1.91,1.65-.07,1.91.75-.27,3.79.46,3.7,1,1.6,1.16,3.47.54,2.34.55,3c0,.91-1.14,3.81.08,3.73,2.08-.14,2.62-.84,4.51-2.56S61.8,73,56.24,76Z"/><path class="cls-10" d="M69.41,66.75s1.13-3.71,1.82-5.41a106.17,106.17,0,0,0,3.55-11.22,30.68,30.68,0,0,0,.89-6.29L74,43.28l1.57-2.2s.14-3.28.1-2.25a11.16,11.16,0,0,0,.88,3.2l-1.24.62,2,1.38s-3.23,10.87-4,13.51.9,6.55,1.34,7.12.42.13-1,.08-2.48,1-1.55,1.56,1,.72.3,1.65-2.31,2,1.24,2.21c2.45.15,6.23-1.33,6.67-3.35.33-1.53,1.33-.14,2.2,2.06.73,1.83,2.42,2.58,1.56.38A37.28,37.28,0,0,1,81.81,58c-.17-2.83.24-6.39.41-4.43s.83,8.62,2.16,11.87-.22-2.05.24-4.41c1.14-5.9-1.47-3.9-.42-8.41.34-1.5-1.46-2.4-.93-5.07,1.16-5.75-5.4-.82-1.45-4.32,1.33-1.18-1.24-1.54-2.37-2.83a20.43,20.43,0,0,1,6.77,4.78,7.1,7.1,0,0,1,1.47,4.46,31.25,31.25,0,0,0-.26,6.2c.26,3.82-1.9,2.2-.59,6.52,2,6.53-.32,9.32-.55,10.11s.13.71-1.24.18a13.14,13.14,0,0,0-6.58-.91c-2.61.43-4.16.57-5.29.66a6.5,6.5,0,0,1-2.71-.67l-1.19-3.91Z"/><path class="cls-11" d="M66.18,46.81a1.62,1.62,0,0,1-.51,2.45c-1.61.83-.61.31-.06-.68S66.46,47.26,66.18,46.81Z"/><path class="cls-11" d="M66.38,50.41s.56.75,1.18,1.61,1.31,1.85,1.57,2.3a6.11,6.11,0,0,1,.6,2.12s.36,5.08.06,2.9S66.38,50.41,66.38,50.41Z"/><path class="cls-10" d="M73.42,39.53s5.28.64,7,1.75,5.92,3.64,6.79,5.53a12.2,12.2,0,0,1,1,3.6s3.24.43,3.79.6,1.3.68-1.65-3c-1.66-2.1-4.78-4.27-4.11-5.86.74-1.79-6.77-.78-2.14-2.21,2.31-.71-5.93-.49-5.93-1.26,0-1.56-1.75-2.17.84-3.71a15,15,0,0,1,6-1.6l1.48-.61.2-1.19-9,1.19S68.51,39.05,73.42,39.53Z"/><path class="cls-4" d="M45.86,42.16s.67.73.18,2.94a6.15,6.15,0,0,0,0,3.54,1.89,1.89,0,0,1-1.59,2.28c-1.55.2-1.85-.51-2.24-1.32a8.2,8.2,0,0,1-.49-2.35,11.34,11.34,0,0,0-1.37,1.26,7.83,7.83,0,0,0-1.14,2.36c-.25,1-.61,2.23-1.61,2.26s-2.39-.35-2.65-1.55a3.78,3.78,0,0,1-.08-1.73,3.18,3.18,0,0,1-2.34-2.48,2.45,2.45,0,0,1-1.22-2.16A5.14,5.14,0,0,1,33,41.38a16.79,16.79,0,0,1,6.52-2.93,5.33,5.33,0,0,1,5.29,1.62A3.9,3.9,0,0,1,45.86,42.16Z"/><path class="cls-5" d="M39.41,39a5,5,0,0,0,.34,1.85c1,1.39,2.78,1.44,3.91,1.65A2.34,2.34,0,0,1,45.48,44a6.28,6.28,0,0,1,0,2.42c-.13.87.27,2.26.32,1a23.82,23.82,0,0,1,.3-2.63A3.19,3.19,0,0,0,46,42.47c-.49-1.35-1.3-4.17-2.84-4.14a22.48,22.48,0,0,0-3.65.12C37.25,39.11,39,38.65,39.41,39Z"/><path class="cls-4" d="M75.79,27c.27,2.12,2.68,5.2,1.2,6.05-2.73,1.55-5.17,5.49-5.55,5.7-.08.34-6.39,3.45-10.24,4.7s-8.69-.1-8.63-.13a25.63,25.63,0,0,0-3.79.08A18.61,18.61,0,0,1,45,41.77a7.47,7.47,0,0,1-3.66-5.72c0-.4.35-3,.4-4.58a4.64,4.64,0,0,0-1-3.13c-.28-1-.54-2-.74-3-.33-1.67-.74-3.64.05-5.09a20.49,20.49,0,0,0,1.36-3.09,4.24,4.24,0,0,1,.22-1.35c.35-.67,1.23-1.25,1.34-1.48,1.06-2.12,2.45-4.55,4.19-5.23.58-.22,1.72.6,2,.16a3.42,3.42,0,0,1,2.16-1.67c.62-.13,1.28.31,1.89.49s1.65-.76,2.09-.89a4.33,4.33,0,0,1,3.58.38,3.25,3.25,0,0,1,.46.22c1.39,1.1,1.61-.35,3.23-.39a4.29,4.29,0,0,1,2.69.65c2.74,2,2.41.66,3.58,2,.75.88.32,2.68.87,3.43.73,1,2.52,1,3.08,1.91a16.11,16.11,0,0,1,2,5.71C75.1,23,75.55,25.1,75.79,27Z"/><path class="cls-13" d="M41.26,17.76a11.18,11.18,0,0,1-1.15.6A4.66,4.66,0,0,0,37.82,21c-.84,1.76-2.24,5.15-2.53,6s-.81,2.92.76,3.77,3.08,1.64,3.5,2.29,1,2.44,1.69,2.4,1-4.33.61-5.2A20.58,20.58,0,0,1,39.76,23,10,10,0,0,1,41.26,17.76Z"/><path class="cls-13" d="M86.82,21.76s-2.28-2.48-6.18-5.94a28.93,28.93,0,0,0-9-5.41c-1.52-.59-3-.67-2.75-.07s.14,1.39.43,2.3.63,1.24,1.7,1.94a5.4,5.4,0,0,1,2.53,2.57,45.31,45.31,0,0,1,1.72,7.23c.42,2.62,1.93,8.33,1.93,8.33s1-1.3,2.8-4.08,3.31-4.46,4.81-5S87.56,23.29,86.82,21.76Z"/><path class="cls-14" d="M73.81,12.66s-1.65-1.77-2.62-1.53-1.85,1-1.36,1.63,3.9,1.66,4.9,2.52a7.21,7.21,0,0,1,2.34,3.62c.72,2,.22,5,1.23,5.3a2.76,2.76,0,0,0,2.4-.74c.94-.93,2.11-1.11,1.09-.07s-3,2.89-3.36,3.36c-.92,1.26-1.21-.53-1.32-1.6s-.7-4.3-.89-5.09-1.26-2-.87.28.59,4.5,1.16,7.1.81,3.78,1.31,3.3.71.13.14.94-.61,1.25-1.09-.07a42.13,42.13,0,0,1-1.34-5.56c-.24-1.44-1.11-6.22-1.64-8.16a3.62,3.62,0,0,0-1.51-2.39A17.65,17.65,0,0,1,70,13.91a3.36,3.36,0,0,1-.69-1.84,4.88,4.88,0,0,0-.52-1.94,4.88,4.88,0,0,1,2.9.28A61.79,61.79,0,0,1,79,14.3c1.5,1,3,3.12,3.41,3.41,1.27.86-3.32-2.79-4.05-3.43s-4.39-2.77-3.87-2.08S76,14.2,73.81,12.66Z"/><path class="cls-14" d="M40.93,18.23s-.76,1.81-1.14,2.44a3.65,3.65,0,0,0-.28,2.92c.33,1.43.56,3.35.77,3.77a4.94,4.94,0,0,1,.12,1.93c0,.76-.17,2.93-.26,2s-.26-4.58-.56-3.47.34,3.43-1.35,2.51-2.83-2.16-2.13-2.74,1.61-2.53,1.22-2.78-.9.48-1,.65a9.71,9.71,0,0,1,.91-3.08c.64-1.4,1.59-3.24,2.52-3.74S41.19,17.63,40.93,18.23Z"/><path class="cls-13" d="M50.91,20a14.59,14.59,0,0,1,5.46.51c2.53.78,10,5.93,13.09,9.27,4,4.39,0,8.11-4.06,10.36-2.83,1.58-5,3-7.63,3.42-3.94.65-9.89-.39-12.14-3.28-1.7-2.18-1.42-6.86-1.22-10.2C44.67,25.73,45,22,50.91,20Z"/><path class="cls-14" d="M46.21,29.22s.48-2.21,1.11-2.1.79,1.48,3.78.63a12.15,12.15,0,0,0,4.67-3c.62-.58,6.64,1.58,8,3.11,2.13,2.36-.23,6.47,1.21,8s4.75,1.73,5.87-.28a6.16,6.16,0,0,0-1.12-6.55C68,27.42,59.94,22.2,57.19,21.29c-2.46-.81-5.62-1.3-7.39-.66-1.53.55-3.95,2.56-4.35,4.18A58.88,58.88,0,0,0,44.22,36c.19,2.8,1.61,3.72,2.35,3.5C48.09,39.05,44.64,34.27,46.21,29.22Z"/><path class="cls-5" d="M40.54,26.14c.38.92.57,1.76,1.11,2.11.88.57.73,3.4,1.05,3.12s.58-2.29.62-1.59c.39,6.25.3,1.71.3,1.71s.58-3.53.92-6c.26-2,.85-2.63,3.63-4.72a8.86,8.86,0,0,1,4.45-1.44,10.84,10.84,0,0,1,6.51,1.05c5.6,2.74,9.92,5.05,9.75,3.45-.13-1.09-.41-1.95,1.13-2.18.18,0,3.1.82,2.24.08-1.4-1.2-3.54-1.26-2.08-1.73,3.93-1.27-1.66-.11-1.67-.77,0-2.2.85-.54,2.14-.6,3.69-.19-.77-1-1.79-3-.49-1-3.34-2.18-4.72-1.47-2.54,1.31-4.64-2.39-5.1.5-.38,2.42-1.17,1.26-.64,3.12.34,1.24-2.27-.27-2.55-1.93a2.36,2.36,0,0,1-.09-1.31,3.5,3.5,0,0,1,2.38-2.71,5.76,5.76,0,0,1,4.32.45,17.24,17.24,0,0,0,5.43.86c.57-.18-1.84-.11-3.15-.7S62,10.71,59.65,11.06a5.44,5.44,0,0,0-3.73,1.79,4.77,4.77,0,0,0-.74,3,1.87,1.87,0,0,1-.26,1c-.22.3-.31.23-.54.23A5.44,5.44,0,0,1,53,17a3.82,3.82,0,0,1-1.25-2.44c-.43-1.9,0-3.1,1.13-3.92A5.54,5.54,0,0,0,54.74,9c.37-.68.35-1,1.48-1.07s2.3-.06,2.3-.06.26-.11.06-.28a3.75,3.75,0,0,0-2.64-.46,2.54,2.54,0,0,0-1.65.75c-.39.23-1.46.18-1,.66s-.13,1.3-.7,1.67a9.54,9.54,0,0,0-1,.84c-.33.32-.62.65-1,.44s-.88-.51-1-1-.45-.66-.09-1.15a1.83,1.83,0,0,0,.35-.94c-.33.25-.72,1-1,1-.81,0-.65-.54-2-.09-.08,0-.75.42-.83.45-.3.2,1.29-.58,2.12-.13.35.19.07.55.66,1.44.27.41.59.69.87,1.12a6.19,6.19,0,0,1,.84,3.06,2.36,2.36,0,0,1-.33,2.13,7.55,7.55,0,0,0-2.49,1.24c-1.64,1.39-.89-.52-3.07-.45-1.64,0-3.49,1-2.56.84s4.19-.09.9.57A4.66,4.66,0,0,0,40.16,22C39.28,23.5,40.26,25.45,40.54,26.14Zm7.74-9.44c-.5.19-.74-1.06-1.14-1.83s-1.11-.56-1.82-.43-1,.92-1.7,1.5a15.2,15.2,0,0,0-2.14,2.22s-.44.14-.08-.8c.15-.39,0-.89,0-1.21s1.86-.43,2.84-1.59a2.53,2.53,0,0,1,2.5-.93C48.27,14.26,49,16.42,48.28,16.7Z"/><path class="cls-15" d="M52,26.12c1.85.35.45-4.86-.77-3.74-.73.68-.64-.21.35-.59a2,2,0,0,1,2.37.85c.42.77.51,2.61.74,1a2,2,0,0,0-1.43-2.24,5.57,5.57,0,0,0-3-.08A5,5,0,0,0,47.47,23c-.29.42-.25,2,.14,2.11.21.06-.12-1.91.71-2.43,1.37-.86,1.81.3.63.46s-1.07,2.18-.2,3.35a.71.71,0,0,0,1.19,0C50.25,26.05,50.78,25.91,52,26.12Z"/><path class="cls-15" d="M67.51,17.7c-.84-1.94-2.14-3.08-4.56-2.64a4.53,4.53,0,0,0-2.59,1.56A3.62,3.62,0,0,0,60.28,20a8,8,0,0,0,2.21,2.2,3.12,3.12,0,0,0,2.86-.08C67.1,21.3,68.33,19.59,67.51,17.7Z"/><path class="cls-6" d="M65.11,16.52a2.36,2.36,0,0,0-3,.41c-1.55,1.44-.49,3.92.45,4.45s-.48-.71-.59-1.9a2.38,2.38,0,0,1,1.38-2.56C64.12,16.49,65.5,16.78,65.11,16.52Z"/><path class="cls-6" d="M66.77,17.74a.6.6,0,0,0-.89.09.71.71,0,0,0,.12.94.61.61,0,0,0,.89-.09A.71.71,0,0,0,66.77,17.74Z"/><path class="cls-6" d="M67.23,19.23a.31.31,0,0,0-.46.05.37.37,0,0,0,.07.49.31.31,0,0,0,.46-.05A.36.36,0,0,0,67.23,19.23Z"/><path class="cls-15" d="M45.1,21.39c0-.59-.38-.55-.81-.74a2.27,2.27,0,0,0-2,.3c-.15.08-2.35,1.35-2.11,3.48S42.9,28,43.54,27.54c.14-.1-.09-.19,0-1.3a7.44,7.44,0,0,1,.4-2.28C44.55,22.44,45.14,22.18,45.1,21.39Z"/><path class="cls-6" d="M44,21.86a2.31,2.31,0,0,0-2.9.64c-1.41,1.53-.2,3.89.75,4.34s-.52-.65-.71-1.83a2.38,2.38,0,0,1,1.18-2.62C43,21.91,44.36,22.09,44,21.86Z"/><path class="cls-6" d="M43.41,25.53a.52.52,0,0,0-.54-.49.48.48,0,0,0-.45.55.53.53,0,0,0,.55.5A.5.5,0,0,0,43.41,25.53Z"/><path class="cls-5" d="M59.43,20.22l4,1.47c1.82.68,3.27-.58,4.75-1.53.42-.27-.39,2.43-.39,2.43s-2.64-.19-3.1.28,1.24,1.62,1.06,1.59C65.42,24.41,59.43,20.22,59.43,20.22Z"/><path class="cls-5" d="M76.32,30.42A24.59,24.59,0,0,1,75,25.61c-.23-1.24-1.3-2-.82.25s1.69,5.53,1.11,6.08-1.74-3.09-1.9-1.37,0,3.21-.72,3.82c-2,1.82,1.29,1.44-2.51,4.24-1.2.88-3.81,2.62-1.49,1.53S71.3,38.74,72,38c1.26-1.45,2.27-2.6,2.68-3.06a13.12,13.12,0,0,1,2.24-1.83C77.87,32.41,77.14,32.37,76.32,30.42Z"/><path class="cls-5" d="M41.93,45.68c.71-1.32-1.78,1.37-2.48,2.56-.33.58-.43,2.65-.82,3.51s-1.34,1.82-.56,1.26,1-1,1.57-3a4.53,4.53,0,0,1,1.09-1.88,10.39,10.39,0,0,1,1-.84s.13,1.38.2,1.75c.13.64.88,2.31,2.53,1.92.61-.14-2.45.08-2.1-2.18C42.57,47.17,41.56,46.36,41.93,45.68Z"/><path class="cls-5" d="M32.92,48.48a4.58,4.58,0,0,0,1.57.61c.93-.12,1.23-1.57,1.23-1.57s.61-.25.22.42a7.13,7.13,0,0,0-.69,2.88c0,.61,0,1.87-.31.76-.45-1.47.15-1.76-.32-1.83A2,2,0,0,1,32.92,48.48Z"/><path class="cls-5" d="M32.75,46.22s-.78,1.85-1.17-.86a4.52,4.52,0,0,1,1.34-3.54c.81-.74,2.27-1.85,1.57-1.43S32.44,41.59,32,42.5,31,45,31.3,45.68a2.84,2.84,0,0,0,1.22,1.69C32.67,47.44,33.21,45.72,32.75,46.22Z"/><path class="cls-16" d="M57.37,38.16a1.1,1.1,0,0,1-.27.55,4.09,4.09,0,0,1-.45.56,4.62,4.62,0,0,1-.84.61,2.92,2.92,0,0,1-.93.35A2.77,2.77,0,0,1,53,40a.12.12,0,0,0-.07-.1c-.13,0-.06-.08,0-.11a.42.42,0,0,0,.27,0h.12a.21.21,0,0,0,.27,0,5.34,5.34,0,0,0,1.93-.41,4.59,4.59,0,0,0,1-.61,8.2,8.2,0,0,0,.78-.78C57.35,38.06,57.36,38.12,57.37,38.16Z"/><path class="cls-15" d="M60.45,28.91c-.08-.36-.33-.58-.59-.41a4.79,4.79,0,0,0-.65.46,34.9,34.9,0,0,1-3.75,2.58,14.54,14.54,0,0,1-3.58,1.2,14.07,14.07,0,0,1-3.81-.19,2.32,2.32,0,0,1-.44-.06c-.22-.06-.28.16-.33.33a.26.26,0,0,0,.12.31.91.91,0,0,0,.67.06c.25,0,.49-.2.76-.09a1.68,1.68,0,0,1,.67.65,5,5,0,0,1,.66,1.43,10.13,10.13,0,0,0,1.23,2.92,2,2,0,0,0,1.33.85,4.9,4.9,0,0,0,2.47-.44,3.59,3.59,0,0,0,1.34-1.27,5.8,5.8,0,0,0,.53-1.46c.07-.32.33-2.22.35-2.52a7.24,7.24,0,0,1,.44-2.2,2,2,0,0,1,1-1.08c.39-.16.79-.29,1.18-.44A.53.53,0,0,0,60.45,28.91Zm-3.71,6.82a5.59,5.59,0,0,1-.54,1.55,2.56,2.56,0,0,1-.76.81,3,3,0,0,1-.95.42,3.32,3.32,0,0,1-1.06.18,6.26,6.26,0,0,1-.74-.1,1.16,1.16,0,0,1-.43-.25.17.17,0,0,1,0-.23,8,8,0,0,1,1.42-1.64,3.23,3.23,0,0,1,1-.58c0-.07,0-.11.08-.1a.12.12,0,0,1,.1.11c0,.08,0,.09-.11.1a1.35,1.35,0,0,0-.31.66c0,.06-.08.13,0,.21.19-.08.24-.29.37-.43a3.08,3.08,0,0,1,1.15-.9,3.07,3.07,0,0,1,.68,0C56.68,35.49,56.78,35.56,56.74,35.73Z"/><path class="cls-6" d="M57.32,31c-.28.23-.71,1.71-4.13,2.64a4.54,4.54,0,0,1-3.36-.2c-.08-.36-.08-.32.29-.32a11.74,11.74,0,0,0,5.37-1.28,6.94,6.94,0,0,0,1.09-.62c.22-.16.46-.3.68-.46C57.32,30.71,57.35,31.06,57.32,31Z"/><path class="cls-16" d="M121.53,32.21h-.1c0,.08-.06.11-.13.09h0c0,.09-.08.12-.15.1s-.21.17-.34.21a.26.26,0,0,1-.28.18c-.17.1-.36.17-.53.26a2.75,2.75,0,0,1-.63.15,9.43,9.43,0,0,1-1.29.09l-.16,0c-.63-.11-1.26-.25-1.88-.4a9.21,9.21,0,0,0-.87-.34c-.12,0-.26,0-.3-.18l-.1,0c-.11,0-.25,0-.29-.17l-.11,0c-.11,0-.15-.06-.18-.15l-.1,0c-.11,0-.2,0-.22-.17a2.67,2.67,0,0,1-.64-.57A11.72,11.72,0,0,1,112.3,30a2.48,2.48,0,0,0-.67-.7c-.1-.06-.25,0-.28-.21l-.51-.1a1.58,1.58,0,0,1-.31.27l-.09.42c.07,0,.07.08.06.15s0,.12.08.14a2.5,2.5,0,0,0,.49.11c.16,0,.36,0,.46.22l.19.05c.09,0,.22,0,.22.17a2,2,0,0,1,.64.44,6.15,6.15,0,0,1,.64.61c.26.26.53.5.78.77s.44.4.65.61a5.11,5.11,0,0,0,.95.73,2.87,2.87,0,0,0,1.42.45,3.83,3.83,0,0,0,1.29-.18,5,5,0,0,0,.51-.16c.33-.14.66-.3,1-.42A5,5,0,0,1,121,33a1,1,0,0,1,.37-.05c0-.09.06-.11.13-.1a.79.79,0,0,1,.3.08l.15,0a.17.17,0,0,1,.22-.1l0-.08.09-.39a.14.14,0,0,0-.06-.15C122,32.22,121.78,32.08,121.53,32.21Z"/><path class="cls-16" d="M115.58,35.52a5.69,5.69,0,0,0,.93.2.38.38,0,0,1,.42,0h.15c0-.08.1-.11.17-.06h.12c0-.11.08-.1.14-.08a.2.2,0,0,0,.23-.08c0-.13.07-.14.16-.11a0,0,0,0,0,0,0s0-.12.1-.09.09,0,.09-.11l-.1,0h-.08c-.07.2-.18.09-.27.08h-.07c-.09.17-.19.1-.3,0l-.15,0c-.2.17-.39,0-.58,0l-.34-.06s0,.08-.06.08,0-.06,0-.1l-.38-.1c-.18,0-.39,0-.49-.22l-.15,0c-.12,0-.25,0-.25-.17l-.13,0c-.08,0-.17-.1-.24,0l.15.13c0,.06.13.08.08.19l.1.05c.08,0,.11,0,.1.14l.08,0c.07,0,.14,0,.12.13l.14.05C115.39,35.36,115.54,35.32,115.58,35.52Z"/><path class="cls-16" d="M109.18,29.28v.13c.08,0,.09.07.06.15v.11c.15-.07.1-.25.15-.37s0-.28.18-.32a1.79,1.79,0,0,1,.85-1c.07,0,.07-.16.18-.13-.22-.25-.72-.1-.91.11s-.11.24-.25.24l0,.08c0,.1,0,.26-.17.27l-.09.43C109.29,29,109.19,29.17,109.18,29.28Z"/><path class="cls-16" d="M123.21,31.26a1.34,1.34,0,0,1,.21.61c0,.26,0,.52,0,.78,0,.1,0,.2,0,.3a1.27,1.27,0,0,0,.33-1.53c-.08,0-.17,0-.14-.16l-.06,0c-.1,0-.21,0-.23-.17h-.06Z"/><path class="cls-17" d="M55,35.71a1.31,1.31,0,0,0-.32.71c0,.07-.1.14,0,.23.21-.09.26-.31.4-.47a3.24,3.24,0,0,1,1.22-1,3,3,0,0,1,.74-.05c.1,0,.2.06.16.24a5.73,5.73,0,0,1-.56,1.68,2.75,2.75,0,0,1-.81.89,3.45,3.45,0,0,1-1,.46,3.29,3.29,0,0,1-1.14.2,5.3,5.3,0,0,1-.8-.1,1,1,0,0,1-.47-.26.17.17,0,0,1,0-.25,8.33,8.33,0,0,1,1.51-1.78,3.42,3.42,0,0,1,1.07-.64C55,35.61,55,35.66,55,35.71Z"/><path class="cls-18" d="M117.84,64.78a1.77,1.77,0,0,1-1.09-2,.19.19,0,0,0-.13-.21h0a.18.18,0,0,0-.23.14A2,2,0,0,0,117.78,65a2,2,0,0,0,2.46-1.12.19.19,0,0,0-.12-.25h0a.18.18,0,0,0-.22.1A1.77,1.77,0,0,1,117.84,64.78Z"/><path class="cls-19" d="M122,63.58a.12.12,0,0,1-.08-.16c0-.1.16-.25.27-.22s.26.11.22.22A.33.33,0,0,1,122,63.58Zm.67-.86a.26.26,0,0,1-.27.17c-.14,0-.11-.2-.08-.32s.7-1.28,1-1.19c.11,0,0,.17,0,.25S122.77,62.41,122.63,62.72Z"/><path class="cls-6" d="M116.13,61.29a.52.52,0,0,1-.06.13.43.43,0,0,1-.1.09.24.24,0,0,1-.12,0h0l-.2,0-.35-.11a.11.11,0,0,1-.07-.13l.28-.92a.13.13,0,0,1,.14-.07l.32.1.2.07,0,0a.38.38,0,0,1,.09.09.5.5,0,0,1,0,.12.49.49,0,0,1,0,.12l0,.06,0,.06-.06,0h0s0,0,0,.06v0a.16.16,0,0,1,0,.08.25.25,0,0,1,0,.08A.15.15,0,0,1,116.13,61.29Zm-.15-.53a.14.14,0,0,0,0-.09v0l-.18-.07a.11.11,0,0,0-.13.07h0a.11.11,0,0,0,.07.13l.18,0h0A.1.1,0,0,0,116,60.76Zm-.13.44a.17.17,0,0,0,0-.1v0l-.18-.07h0a.13.13,0,0,0-.14.07v0a.11.11,0,0,0,.07.13h0l.18,0,0,0A.11.11,0,0,0,115.85,61.2Z"/><path class="cls-6" d="M117.13,61.25l-.09.06-.47.39a.2.2,0,0,1-.18,0h0a.1.1,0,0,1-.07-.13l.28-.92a.12.12,0,0,1,.13-.07l.06,0a.1.1,0,0,1,.07.13l-.14.47,0,.1.08-.06.48-.4a.2.2,0,0,1,.18,0h0a.1.1,0,0,1,.07.13l-.28.92a.12.12,0,0,1-.13.07l-.06,0a.11.11,0,0,1-.07-.13l.14-.46Z"/><path class="cls-6" d="M117.56,62.1a.11.11,0,0,1-.07-.13l.28-.92a.1.1,0,0,1,.13-.06l.59.18a.09.09,0,0,1,.07.13v0a.1.1,0,0,1-.13.06l-.33-.1a.12.12,0,0,0-.13.07l-.21.69a.1.1,0,0,1-.13.07Z"/><path class="cls-6" d="M119.37,62.16a1.19,1.19,0,0,1-.08.2l0,0a.26.26,0,0,1-.13.08.45.45,0,0,1-.16,0l-.18,0-.16-.07a.46.46,0,0,1-.12-.12.35.35,0,0,1-.06-.14.42.42,0,0,1,0-.07c0-.05,0-.15,0-.2l.07-.22.07-.2,0,0a.37.37,0,0,1,.14-.07.41.41,0,0,1,.16,0l.16,0,.16.07.12.11a.47.47,0,0,1,.06.15.42.42,0,0,1,0,.07,1.46,1.46,0,0,1,0,.2Zm-.21-.24a1.23,1.23,0,0,1,0-.16v0a.33.33,0,0,0,0-.06l0-.05-.06,0h-.13a.09.09,0,0,0-.06,0l0,0-.06.16,0,.11-.05.16v0a.09.09,0,0,0,0,.07.08.08,0,0,0,0,0,.09.09,0,0,0,.07,0H119l.06,0,0,0,.05-.16Z"/><path class="cls-6" d="M120.64,61.83a.11.11,0,0,1,.07.13l-.21.69c0,.06,0,.11,0,.12s0,.06,0,.11l-.09.28a.1.1,0,0,1-.13.07h0a.1.1,0,0,1-.07-.13V63a.11.11,0,0,0-.07-.14l-.47-.14a.1.1,0,0,0-.13.07l0,.05a.1.1,0,0,1-.13.07h0a.1.1,0,0,1-.07-.13l.08-.28c0-.06,0-.09.08-.09a.19.19,0,0,0,.1,0l0,0a.27.27,0,0,0,.07-.08.54.54,0,0,0,.06-.11l0,0,.07-.19.1-.26a.1.1,0,0,1,.13-.07Zm-.26.28a.09.09,0,0,0-.07-.13l-.09,0a.11.11,0,0,0-.14.06l0,0a1.62,1.62,0,0,1-.06.17v0a.47.47,0,0,1,0,.1l-.06.1,0,0s0,.07,0,.09l.2.06a.1.1,0,0,0,.13-.07Z"/><path class="cls-6" d="M121.41,63.15a.14.14,0,0,0-.1-.13l-.16-.05A.14.14,0,0,0,121,63l0,0a.14.14,0,0,1-.16.05l-.08,0a.08.08,0,0,1,0-.12l.62-.82a.14.14,0,0,1,.16,0l.07,0a.14.14,0,0,1,.1.13l0,1a.06.06,0,0,1-.09.07l-.08,0a.15.15,0,0,1-.1-.14Zm-.21-.44s0,0,.08.07h0s.1,0,.1,0V62.4l-.06.08-.07.11Z"/></g></g></g></svg>