<svg xmlns="http://www.w3.org/2000/svg" viewBox="0 0 38.96 38.48"><style>#Layer_2{fill: #3763af}</style><g id="Layer_2" data-name="Layer 2"><g id="Layer_1-2" data-name="Layer 1"><path d="M19.51,38.48A19.44,19.44,0,0,1,0,19.23,19.42,19.42,0,0,1,19.53,0,19.33,19.33,0,0,1,39,19.19,19.35,19.35,0,0,1,19.51,38.48Zm0-36.92A17.81,17.81,0,0,0,1.64,19.26a17.87,17.87,0,0,0,35.74,0A17.84,17.84,0,0,0,19.51,1.56ZM19.21,13a20.68,20.68,0,0,1,3.66-1.64,5.7,5.7,0,0,1,6.25,2.76,6.35,6.35,0,0,1-.32,7.41,52.73,52.73,0,0,1-4.93,4.87,25.64,25.64,0,0,1-3.34,2.52A1.7,1.7,0,0,1,19,29a37.64,37.64,0,0,1-8.65-7.15A6.68,6.68,0,0,1,11,12.76a5.94,5.94,0,0,1,7.41-.4C18.76,12.59,19.07,12.84,19.21,13Zm9.56,4.78A5.55,5.55,0,0,0,25.47,13a4.32,4.32,0,0,0-4.94,1.46c-1,1.17-1.14,1.17-2.14,0a4.34,4.34,0,0,0-7.49,1.23,4.43,4.43,0,0,0,.79,5.14c2.37,2.24,5,4.26,7.48,6.32a1.05,1.05,0,0,0,1,0c2.43-2.12,4.9-4.22,7.18-6.49C28.11,20,28.32,18.73,28.77,17.73Zm-4.45-3.82c-.36,0-.73.41-1.09.63.26.3.47.73.8.86,1.4.56,1.87,1.22,1.68,2.69-.08.61-.21,1.34.63,1.34.33,0,.69-.67,1-1.08a1.08,1.08,0,0,0,.09-.55C27.43,15.71,26,13.9,24.32,13.91Z"/></g></g></svg>
