<svg xmlns="http://www.w3.org/2000/svg" viewBox="0 0 38.96 38.5"><style>#Layer_2{fill: #3763af}</style><g id="Layer_2" data-name="Layer 2"><g id="Layer_1-2" data-name="Layer 1"><path d="M19.48,38.5A19.42,19.42,0,0,1,0,19.22a19.48,19.48,0,0,1,39,0A19.32,19.32,0,0,1,19.48,38.5ZM1.64,19.32a17.87,17.87,0,0,0,35.74-.15,17.87,17.87,0,0,0-35.74.15Zm23.59-3.57,2.29,2.09c.47.07,1.2,0,1.54.27a2.17,2.17,0,0,1,.39,2.65,25.14,25.14,0,0,1-1.93,3.76,6.3,6.3,0,0,0-1.38,3.92c0,.52-.8,1.39-1.38,1.54a2.92,2.92,0,0,1-3.22-.63,3.14,3.14,0,0,0-3.87-.05,3.37,3.37,0,0,1-3.44.67c-1.1-.42-1.24-1.33-1.26-2.35,0-1.73-1.32-2.78-2.48-3.66a2.75,2.75,0,0,1-1.31-2.45,2.66,2.66,0,0,1,1.3-2.46A5,5,0,0,0,13,15.51c.09-1,.69-1.28,1.51-1.33a3.2,3.2,0,0,1,1.06.15C17,14.79,17,14.8,17,13.2A4.54,4.54,0,1,1,25.63,15C25.49,15.24,25.35,15.52,25.23,15.75ZM14.74,16a8.36,8.36,0,0,1-.62,1.55A29.15,29.15,0,0,1,12.28,20c-.18.23-.51.33-.72.54s-.73.62-.74.94.42.67.7,1,.64.52.89.83.47,1,.85,1.29a3.22,3.22,0,0,1,1.33,3.1c0,.26.48.8.71.79.4,0,1-.33,1.11-.62.2-.83.69-.81,1.34-.81,1.27,0,2.54,0,3.8-.13.7-.06,1.13.13,1.18.82s.57.81,1.17.8c.79,0,.75-.6.71-1.11a3.81,3.81,0,0,1,1.06-3,4.39,4.39,0,0,0-1.27-6.84c-.33,1.06-1,.8-1.81.54a17.15,17.15,0,0,0-3.6-.72c-.89-.07-1.6-.12-1.64-1Zm9.74-3a3,3,0,1,0-5.94.09A3,3,0,0,0,24.48,13Zm-8.32,6.52c-.44-.27-.89-.78-1.31-.75s-1,.69-1,1a1.59,1.59,0,0,0,1,1.1c.38.05.85-.51,1.27-.8Zm5.41-8.24a1.74,1.74,0,0,0-1.83,1.65,1.8,1.8,0,0,0,1.76,1.85A1.74,1.74,0,0,0,23.25,13,1.69,1.69,0,0,0,21.57,11.23Z"/></g></g></svg>
