<svg xmlns="http://www.w3.org/2000/svg" xmlns:xlink="http://www.w3.org/1999/xlink" viewBox="0 0 36.72 21.18"><defs><style>.cls-1{fill:url(#linear-gradient);}.cls-2{fill:url(#linear-gradient-2);}.cls-3{fill:#fff;}.cls-4{fill:url(#linear-gradient-3);}.cls-5{fill:url(#linear-gradient-4);}.cls-6{fill:url(#linear-gradient-5);}.cls-7{fill:url(#linear-gradient-6);}.cls-8{fill:url(#linear-gradient-7);}.cls-9{fill:url(#linear-gradient-8);}.cls-10{fill:url(#linear-gradient-9);}.cls-11{fill:#474747;}.cls-12{fill:url(#linear-gradient-10);}.cls-13{fill:url(#linear-gradient-11);}.cls-14{fill:url(#linear-gradient-12);}.cls-15{fill:url(#linear-gradient-13);}.cls-16{fill:#231f20;opacity:0.15;}.cls-17{fill:url(#linear-gradient-14);}.cls-18{fill:#3a3a3a;}.cls-19{fill:url(#Silver_2);}.cls-20{fill:url(#radial-gradient);}.cls-21{fill:url(#Silver_2-2);}.cls-22{fill:url(#linear-gradient-15);}.cls-23{fill:url(#linear-gradient-16);}.cls-24{fill:url(#radial-gradient-2);}.cls-25{fill:url(#radial-gradient-3);}.cls-26{fill:url(#linear-gradient-17);}.cls-27{fill:url(#linear-gradient-18);}.cls-28{fill:url(#linear-gradient-19);}.cls-29{fill:url(#radial-gradient-4);}.cls-30{fill:url(#radial-gradient-5);}.cls-31{fill:url(#radial-gradient-6);}.cls-32{fill:url(#linear-gradient-20);}.cls-33{fill:url(#radial-gradient-7);}.cls-34,.cls-38{fill:url(#linear-gradient-21);}.cls-35{fill:url(#linear-gradient-22);}.cls-36{fill:url(#radial-gradient-8);}.cls-37{fill:url(#linear-gradient-23);}.cls-38{opacity:0.43;}.cls-39{fill:url(#radial-gradient-9);}.cls-40{fill:url(#linear-gradient-25);}.cls-41{fill:url(#radial-gradient-10);}.cls-42{fill:url(#linear-gradient-26);}</style><linearGradient id="linear-gradient" x1="-434.35" y1="-238.57" x2="-434.35" y2="-217.49" gradientTransform="matrix(0.87, 0.5, -1, 0.58, 166.97, 359.27)" gradientUnits="userSpaceOnUse"><stop offset="0" stop-color="#121212"/><stop offset="1"/></linearGradient><linearGradient id="linear-gradient-2" x1="-434.54" y1="-255.25" x2="-434.54" y2="-204.36" gradientTransform="matrix(0.87, 0.5, -1, 0.58, 166.97, 359.27)" gradientUnits="userSpaceOnUse"><stop offset="0" stop-color="#a3a3a3"/><stop offset="0.69" stop-color="#949494"/><stop offset="1" stop-color="#363636"/></linearGradient><linearGradient id="linear-gradient-3" x1="-434.54" y1="-238.43" x2="-434.54" y2="-217.25" gradientTransform="matrix(0.87, 0.5, -1, 0.58, 166.97, 359.27)" gradientUnits="userSpaceOnUse"><stop offset="0.01" stop-color="#949494"/><stop offset="0.29" stop-color="#666"/><stop offset="0.61" stop-color="#3c3c3c"/><stop offset="0.85" stop-color="#212121"/><stop offset="1" stop-color="#171717"/></linearGradient><linearGradient id="linear-gradient-4" x1="-431.22" y1="-221.3" x2="-438.65" y2="-236.62" gradientTransform="matrix(0.87, 0.5, -1, 0.58, 166.97, 359.27)" gradientUnits="userSpaceOnUse"><stop offset="0" stop-color="#fff"/><stop offset="0.98" stop-color="#f2f2f2"/></linearGradient><linearGradient id="linear-gradient-5" x1="-434.6" y1="-232.96" x2="-434.6" y2="-235.16" gradientTransform="matrix(0.87, 0.5, -1, 0.58, 166.97, 359.27)" gradientUnits="userSpaceOnUse"><stop offset="0.01" stop-color="#d1d1d1"/><stop offset="1" stop-color="#a6a6a6"/></linearGradient><linearGradient id="linear-gradient-6" x1="-434.6" y1="-238.73" x2="-434.6" y2="-233.72" gradientTransform="matrix(0.87, 0.5, -1, 0.58, 166.97, 359.27)" gradientUnits="userSpaceOnUse"><stop offset="0" stop-color="#b5b5b5"/><stop offset="1"/></linearGradient><linearGradient id="linear-gradient-7" x1="-434.6" y1="-237.78" x2="-434.6" y2="-233.64" gradientTransform="matrix(0.87, 0.5, -1, 0.58, 166.97, 359.27)" gradientUnits="userSpaceOnUse"><stop offset="0" stop-color="#636363"/><stop offset="1" stop-color="#4a4a4a"/></linearGradient><linearGradient id="linear-gradient-8" x1="-434.6" y1="-238.13" x2="-434.6" y2="-237.78" gradientTransform="matrix(0.87, 0.5, -1, 0.58, 166.97, 359.27)" gradientUnits="userSpaceOnUse"><stop offset="0" stop-color="#636363"/><stop offset="1" stop-color="#5e5e5e"/></linearGradient><linearGradient id="linear-gradient-9" x1="-434.6" y1="-233.79" x2="-434.6" y2="-238.58" gradientTransform="matrix(0.87, 0.5, -1, 0.58, 166.97, 359.27)" gradientUnits="userSpaceOnUse"><stop offset="0" stop-color="gray"/><stop offset="1" stop-color="#c9c9c9"/></linearGradient><linearGradient id="linear-gradient-10" x1="-434.63" y1="-236.57" x2="-434.63" y2="-237.4" gradientTransform="matrix(0.87, 0.5, -1, 0.58, 166.97, 359.27)" gradientUnits="userSpaceOnUse"><stop offset="0.44" stop-color="#bfbfbf"/><stop offset="0.46" stop-color="#bdbdbd"/><stop offset="0.46" stop-color="#b6b6b6"/><stop offset="0.47" stop-color="#ababab"/><stop offset="0.47" stop-color="#9a9a9a"/><stop offset="0.48" stop-color="#848484"/><stop offset="0.48" stop-color="#787878"/><stop offset="0.53" stop-color="#727272"/><stop offset="0.83" stop-color="#585858"/><stop offset="1" stop-color="#4e4e4e"/></linearGradient><linearGradient id="linear-gradient-11" x1="-434.63" y1="-239.25" x2="-434.63" y2="-237.44" gradientTransform="matrix(0.87, 0.5, -1, 0.58, 166.97, 359.27)" gradientUnits="userSpaceOnUse"><stop offset="0" stop-color="#b5b5b5"/><stop offset="0.03" stop-color="#979797"/><stop offset="0.07" stop-color="#6b6b6b"/><stop offset="0.11" stop-color="#4b4b4b"/><stop offset="0.14" stop-color="#373737"/><stop offset="0.16" stop-color="#303030"/><stop offset="0.18" stop-color="#575757"/><stop offset="0.21" stop-color="#bababa"/><stop offset="0.23" stop-color="#fff"/><stop offset="0.3" stop-color="#fcfcfc"/><stop offset="0.34" stop-color="#f3f3f3"/><stop offset="0.39" stop-color="#e3e3e3"/><stop offset="0.42" stop-color="#cdcdcd"/><stop offset="0.46" stop-color="#b0b0b0"/><stop offset="0.49" stop-color="#8c8c8c"/><stop offset="0.53" stop-color="#626262"/><stop offset="0.56" stop-color="#333"/><stop offset="0.59"/><stop offset="0.7" stop-color="#4a4a4a"/><stop offset="0.81" stop-color="#a6a6a6"/><stop offset="0.84" stop-color="#909090"/><stop offset="0.91" stop-color="#585858"/><stop offset="1"/></linearGradient><linearGradient id="linear-gradient-12" x1="-439.52" y1="-239.25" x2="-439.52" y2="-237.44" gradientTransform="matrix(0.87, 0.5, -1, 0.58, 166.97, 359.27)" gradientUnits="userSpaceOnUse"><stop offset="0" stop-color="#6e6e6e"/><stop offset="0.04" stop-color="#555"/><stop offset="0.09" stop-color="#353535"/><stop offset="0.13" stop-color="#212121"/><stop offset="0.16" stop-color="#1a1a1a"/><stop offset="0.18" stop-color="#414141"/><stop offset="0.22" stop-color="#a4a4a4"/><stop offset="0.23" stop-color="#cfcfcf"/><stop offset="0.3" stop-color="#ccc"/><stop offset="0.35" stop-color="#c3c3c3"/><stop offset="0.4" stop-color="#b3b3b3"/><stop offset="0.44" stop-color="#9d9d9d"/><stop offset="0.48" stop-color="gray"/><stop offset="0.52" stop-color="#5c5c5c"/><stop offset="0.55" stop-color="#323232"/><stop offset="0.59" stop-color="#030303"/><stop offset="0.59"/><stop offset="0.7"/><stop offset="0.81" stop-color="#666"/><stop offset="0.86" stop-color="#505050"/><stop offset="0.96" stop-color="#191919"/><stop offset="1"/></linearGradient><linearGradient id="linear-gradient-13" x1="-429.74" y1="-239.25" x2="-429.74" y2="-237.44" xlink:href="#linear-gradient-12"/><linearGradient id="linear-gradient-14" x1="-388.56" y1="-416.11" x2="-388.56" y2="-409.69" gradientTransform="matrix(0.04, -1, -1, -0.04, -379.32, -395.46)" gradientUnits="userSpaceOnUse"><stop offset="0" stop-color="#1a1a1a"/><stop offset="0.1" stop-color="#202020"/><stop offset="0.22" stop-color="#303030"/><stop offset="0.37" stop-color="#4c4c4c"/><stop offset="0.51" stop-color="#6e6e6e"/><stop offset="1" stop-color="#3e3e3e"/></linearGradient><linearGradient id="Silver_2" x1="-441.36" y1="-414.66" x2="-433.34" y2="-408.91" gradientTransform="translate(-413.55 426.09) rotate(92.39)" gradientUnits="userSpaceOnUse"><stop offset="0" stop-color="#c5c5c5"/><stop offset="0" stop-color="#bebebe"/><stop offset="0.07" stop-color="#afafaf"/><stop offset="0.21" stop-color="#888"/><stop offset="0.26" stop-color="#797979"/><stop offset="0.52" stop-color="#d3d3d3"/><stop offset="0.59" stop-color="#c4c4c4"/><stop offset="0.73" stop-color="#9d9d9d"/><stop offset="0.88" stop-color="#6e6e6e"/><stop offset="1" stop-color="#b6b6b6"/><stop offset="1" stop-color="#949494"/></linearGradient><radialGradient id="radial-gradient" cx="-384.39" cy="-417.36" r="15.99" gradientTransform="matrix(0.04, -1, -1, -0.04, -379.32, -395.46)" gradientUnits="userSpaceOnUse"><stop offset="0" stop-color="#fff"/><stop offset="0.27" stop-color="#f5f5f5"/><stop offset="0.74" stop-color="#d9d9d9"/><stop offset="1" stop-color="#c7c7c7"/></radialGradient><linearGradient id="Silver_2-2" x1="-389.09" y1="-405.65" x2="-390.41" y2="-406.72" gradientTransform="matrix(0.04, -1, -1, -0.04, -379.32, -395.46)" xlink:href="#Silver_2"/><linearGradient id="linear-gradient-15" x1="-391.49" y1="-405.8" x2="-389.91" y2="-404.57" gradientTransform="matrix(0.04, -1, -1, -0.04, -379.32, -395.46)" gradientUnits="userSpaceOnUse"><stop offset="0" stop-color="#9a9a9a"/><stop offset="0.2" stop-color="#585858"/><stop offset="1"/></linearGradient><linearGradient id="linear-gradient-16" x1="-394.85" y1="-401.48" x2="-393.28" y2="-400.25" xlink:href="#linear-gradient-15"/><radialGradient id="radial-gradient-2" cx="-431.57" cy="-407.76" r="5.13" gradientTransform="translate(-413.55 426.09) rotate(92.39)" gradientUnits="userSpaceOnUse"><stop offset="0" stop-color="#fff"/><stop offset="1" stop-color="#c7c7c7"/></radialGradient><radialGradient id="radial-gradient-3" cx="-396.33" cy="-398.77" r="2.04" gradientTransform="matrix(0.04, -1, -1, -0.04, -379.32, -395.46)" gradientUnits="userSpaceOnUse"><stop offset="0" stop-color="#9a9a9a"/><stop offset="1"/></radialGradient><linearGradient id="linear-gradient-17" x1="-396.54" y1="-398.14" x2="-396.56" y2="-396.82" gradientTransform="matrix(0.04, -1, -1, -0.04, -379.32, -395.46)" gradientUnits="userSpaceOnUse"><stop offset="0" stop-color="#9a9a9a"/><stop offset="0.38" stop-color="#585858"/><stop offset="1"/></linearGradient><linearGradient id="linear-gradient-18" x1="-391.79" y1="-406.01" x2="-389.76" y2="-404.49" xlink:href="#linear-gradient-17"/><linearGradient id="linear-gradient-19" x1="-432.53" y1="-404.54" x2="-419.47" y2="-394.74" gradientTransform="translate(-413.55 426.09) rotate(92.39)" xlink:href="#linear-gradient-17"/><radialGradient id="radial-gradient-4" cx="-424.58" cy="-397.38" r="0" gradientTransform="translate(-413.55 426.09) rotate(92.39)" gradientUnits="userSpaceOnUse"><stop offset="0" stop-color="#d1d1d1"/><stop offset="1" stop-color="#585858"/></radialGradient><radialGradient id="radial-gradient-5" cx="-391.27" cy="-405.76" r="3.78" gradientTransform="matrix(0.04, -1, -1, -0.04, -379.32, -395.46)" xlink:href="#radial-gradient-4"/><radialGradient id="radial-gradient-6" cx="-394.86" cy="-403.55" r="9" gradientTransform="matrix(0.04, -1, -1, -0.04, -379.32, -395.46)" xlink:href="#radial-gradient-4"/><linearGradient id="linear-gradient-20" x1="-391.88" y1="-405.59" x2="-390.75" y2="-404.67" xlink:href="#linear-gradient-15"/><radialGradient id="radial-gradient-7" cx="-374.79" cy="-417.5" r="30.82" gradientTransform="matrix(0.04, -1, -1, -0.04, -379.32, -395.46)" gradientUnits="userSpaceOnUse"><stop offset="0" stop-color="#b0a292"/><stop offset="1" stop-color="#696057"/></radialGradient><linearGradient id="linear-gradient-21" x1="-377.83" y1="-419.56" x2="-398.96" y2="-397.19" gradientTransform="matrix(0.04, -1, -1, -0.04, -379.32, -395.46)" gradientUnits="userSpaceOnUse"><stop offset="0" stop-color="#d9d9d9"/><stop offset="0.72" stop-color="#cfcfcf"/><stop offset="1" stop-color="#a4a2a2"/></linearGradient><linearGradient id="linear-gradient-22" x1="-387.09" y1="-417.07" x2="-382.04" y2="-398.15" gradientTransform="matrix(0.04, -1, -1, -0.04, -379.32, -395.46)" gradientUnits="userSpaceOnUse"><stop offset="0" stop-color="#dcdcdc"/><stop offset="0.58" stop-color="#cfcfcf"/><stop offset="0.94" stop-color="#c6c6c6"/><stop offset="1" stop-color="silver"/></linearGradient><radialGradient id="radial-gradient-8" cx="-383.77" cy="-416.59" r="5.37" gradientTransform="matrix(0.04, -1, -1, -0.04, -379.32, -395.46)" gradientUnits="userSpaceOnUse"><stop offset="0" stop-color="#fff"/><stop offset="1" stop-color="#dbdbdb"/></radialGradient><linearGradient id="linear-gradient-23" x1="-383.52" y1="-417.07" x2="-389.57" y2="-400.33" gradientTransform="matrix(0.04, -1, -1, -0.04, -379.32, -395.46)" gradientUnits="userSpaceOnUse"><stop offset="0" stop-color="#fff"/><stop offset="0.58" stop-color="#d6d6d6"/><stop offset="1" stop-color="#d9d9d9"/></linearGradient><radialGradient id="radial-gradient-9" cx="-383.77" cy="-415.81" r="3.62" xlink:href="#radial-gradient-7"/><linearGradient id="linear-gradient-25" x1="-383.51" y1="-416.03" x2="-383.66" y2="-415.33" gradientTransform="matrix(0.04, -1, -1, -0.04, -379.32, -395.46)" gradientUnits="userSpaceOnUse"><stop offset="0" stop-color="#fff"/><stop offset="0.26" stop-color="#f9f9f9"/><stop offset="0.61" stop-color="#e9e9e9"/><stop offset="1" stop-color="#cecece"/></linearGradient><radialGradient id="radial-gradient-10" cx="-383.63" cy="-415.65" r="2.22" xlink:href="#radial-gradient-8"/><linearGradient id="linear-gradient-26" x1="-382.27" y1="-413.16" x2="-387.06" y2="-404.1" xlink:href="#linear-gradient-23"/></defs><g id="Слой_2" data-name="Слой 2"><g id="Слой_2-2" data-name="Слой 2"><path class="cls-1" d="M1.18,13.05c-.62-.36-.72-1.38-.26-1.64L20.09.34a2.69,2.69,0,0,1,2.42-.1l13.84,8c.62.36.41,1.24-.3,1.65L16.88,21a2.39,2.39,0,0,1-2.28-.16Z"/><path class="cls-2" d="M15,20.46l-13.85-8c-.46-.26-.4-.73.13-1L20.46.37A2,2,0,0,1,22.25.3l13.84,8c.46.27.4.73-.13,1L16.79,20.39a1.94,1.94,0,0,1-1.78.07Z"/><path class="cls-3" d="M36.09,8.29,22.25.3a2,2,0,0,0-1.79.07l-.32.18A2,2,0,0,1,21.93.48l13.84,8c.46.27.4.73-.12,1L36,9.32C36.49,9,36.55,8.56,36.09,8.29Z"/><polygon class="cls-4" points="15.72 19.47 2.87 12.05 21.18 1.48 34.04 8.9 15.72 19.47"/><polygon class="cls-5" points="16.12 18.93 3.82 11.83 21.47 1.64 33.77 8.74 16.12 18.93 16.12 18.93"/><path class="cls-6" d="M30.85,9.14l-.13.07a.65.65,0,0,1-.55.06l-2.42-1.4a5.38,5.38,0,0,0-1.67-.41,5.09,5.09,0,0,1-1.75-.52,1.92,1.92,0,0,1-.85-1,1.72,1.72,0,0,0-.72-1L20.44,3.65c-.13-.08-.08-.22.1-.32l.13-.07-.6-.35L19.94,3c-.64.37-.8.88-.34,1.14l2.32,1.35a1.47,1.47,0,0,1,.56.8,2.23,2.23,0,0,0,1,1.15h0a6.17,6.17,0,0,0,2,.61,5.17,5.17,0,0,1,1.4.31l2.42,1.4a2.27,2.27,0,0,0,2-.2l.13-.07Z"/><path class="cls-7" d="M23.29,1.74,20.83,3.16c-.15.09-.16.21,0,.28h0l2.33,1.35h0a2.23,2.23,0,0,1,.81.92h0a2.41,2.41,0,0,0,.93.93h0a5.43,5.43,0,0,0,1.66.56h0a6.37,6.37,0,0,1,1.58.46h0l2.43,1.4h0A.49.49,0,0,0,31,9h0l2.47-1.42c.14-.08.16-.21,0-.28h0L23.78,1.72a.56.56,0,0,0-.49,0ZM23.14,5.9a1.79,1.79,0,0,0-.63-.76h0L20.18,3.79h0c-.45-.26-.47-.67.05-1h0L22.7,1.4a1.93,1.93,0,0,1,1.76-.07h0L34.19,7c.46.26.4.71-.12,1h0L31.6,9.39a1.76,1.76,0,0,1-1.68,0h0L27.49,8h0a5.11,5.11,0,0,0-1.31-.37h0A6.7,6.7,0,0,1,24.25,7h0A2.94,2.94,0,0,1,23.14,5.9Z"/><path class="cls-8" d="M29.93,9.41,27.51,8a5.22,5.22,0,0,0-1.32-.37A6.5,6.5,0,0,1,24.26,7h0a2.9,2.9,0,0,1-1.1-1.09,1.88,1.88,0,0,0-.64-.76L20.2,3.79c-.46-.26-.4-.72.12-1L22.7,1.4,20.23,2.82c-.52.3-.57.76-.12,1l2.32,1.34a1.81,1.81,0,0,1,.64.76A2.9,2.9,0,0,0,24.17,7h0a6.54,6.54,0,0,0,1.93.67,4.9,4.9,0,0,1,1.32.36l2.42,1.4a2,2,0,0,0,1.76-.07l.09-.06A1.93,1.93,0,0,1,29.93,9.41Z"/><path class="cls-9" d="M33.6,7.29,23.86,1.67a.54.54,0,0,0-.48,0l-.09.05a.56.56,0,0,1,.49,0l9.73,5.62c.13.07.11.2,0,.28l.08,0C33.71,7.49,33.72,7.36,33.6,7.29Z"/><path class="cls-10" d="M23.93,1.63a.87.87,0,0,0-.77,0L20.77,3c-.23.14-.26.34-.06.45L23,4.83a1.89,1.89,0,0,1,.69.76l.08.13a2.54,2.54,0,0,0,1,1,6.24,6.24,0,0,0,1.72.58l.28.06A4.64,4.64,0,0,1,28,7.71l2.43,1.4a.87.87,0,0,0,.77,0L33.61,7.7c.22-.13.25-.33,0-.45ZM24.33,7h0a2.7,2.7,0,0,1-1.06-1.05l0,0a1.79,1.79,0,0,0-.64-.74h0L20.25,3.75h0c-.38-.22-.33-.6.11-.85l2.46-1.43a1.68,1.68,0,0,1,1.48-.06L34,7c.38.22.33.61-.1.86L31.47,9.31A1.65,1.65,0,0,1,30,9.37h0l-.08-.06-.24-.13-.74-.43L27.57,8h0a5.58,5.58,0,0,0-1.28-.36h-.09A6.73,6.73,0,0,1,24.33,7Z"/><path class="cls-3" d="M20.67,3.1c-.23.13-.26.33-.06.45l2.33,1.34a2,2,0,0,1,.69.76l.08.13a2.52,2.52,0,0,0,1,1,5.86,5.86,0,0,0,1.72.59l.28.06a4.64,4.64,0,0,1,1.24.38l2.42,1.4a.87.87,0,0,0,.77,0l.11-.06a.87.87,0,0,1-.77,0L28,7.71a4.64,4.64,0,0,0-1.24-.38l-.28-.06a6.24,6.24,0,0,1-1.72-.58,2.54,2.54,0,0,1-1-1l-.08-.13A1.89,1.89,0,0,0,23,4.83L20.71,3.49c-.2-.11-.17-.31.06-.45l2.29-1.32h0Z"/><path class="cls-3" d="M34,7,24.31,1.41a1.68,1.68,0,0,0-1.48.06l-.1.06a1.65,1.65,0,0,1,1.48-.06l9.73,5.62c.38.22.33.6-.11.86l.11-.06C34.37,7.64,34.42,7.25,34,7Z"/><path class="cls-11" d="M24.4,6.9h0a2.69,2.69,0,0,1-1-1l0,0a2,2,0,0,0-.68-.78h0L20.31,3.7h0c-.31-.18-.27-.49.08-.69L23,1.55a1.34,1.34,0,0,1,1.2-.05l9.73,5.62c.31.18.27.49-.09.69L31.26,9.28a1.35,1.35,0,0,1-1.19.05h0L30,9.28l-.23-.14L29,8.71l-1.36-.78h0a5.06,5.06,0,0,0-1.33-.38l-.09,0A6.08,6.08,0,0,1,24.4,6.9Zm-.32-5.36a1.18,1.18,0,0,0-1,.05L20.56,3c-.31.18-.34.45-.07.61L22.81,5a1.7,1.7,0,0,1,.65.72l.09.13a2.55,2.55,0,0,0,1,1,5.88,5.88,0,0,0,1.78.61l.29.06a4.2,4.2,0,0,1,1.18.36l2.42,1.4a1.18,1.18,0,0,0,1.05,0l2.47-1.43c.31-.18.34-.45.08-.6L24.08,1.54Z"/><polygon class="cls-12" points="31.59 7.93 22.71 2.81 24.78 1.61 33.65 6.74 31.59 7.93"/><polygon class="cls-13" points="32.45 7.43 23.58 2.31 25.39 1.26 34.26 6.39 32.45 7.43"/><polygon class="cls-14" points="25.8 1.5 25.39 1.26 23.58 2.31 23.99 2.54 25.8 1.5"/><polygon class="cls-15" points="33.85 6.15 32.04 7.19 32.45 7.43 34.26 6.39 33.85 6.15"/><path class="cls-16" d="M21.33,11a4.87,4.87,0,0,0,.12-.52c0-.11,0-.22,0-.33l0-.18V9.88a5.72,5.72,0,0,0-.07-1.49c0-.1-.06-.2-.08-.3l-.06-.22a5.14,5.14,0,0,0-.37-1h0l0,0c-2.56-.29-8.9-1-8.94-.93l-.2,0a5.75,5.75,0,0,0-.46.64,5.51,5.51,0,0,0-.74,2,5.57,5.57,0,0,0,0,1.91v0s0,0,0,.06a.22.22,0,0,0,0,.08l.06.27h0a4.89,4.89,0,0,0,.54,1.35L9.86,13l0,0H9.71l-.89.25h0l-.06,0h0S2.1,17.57,1.39,18h0v0h0l0,.06s0,0,0,0l0,0s0,0,0,0a0,0,0,0,0,0,0s0,0,0,.05v.26a.06.06,0,0,1,0,0v.05a.09.09,0,0,1,0,.05v0s0,0,0,.06v0l0,.06v0a.19.19,0,0,0,0,.07v0l0,.07v0a.2.2,0,0,1,0,.08h0l.05.09h0l.06.09h0a2,2,0,0,0,.67.67l.8,0c1.22-.85,7-5.28,7-5.28l0-.06.53-.69a.25.25,0,0,0,0-.12l1.29-.87a4.12,4.12,0,0,0,.37.35,3.75,3.75,0,0,0,.51.38,4.8,4.8,0,0,0,.54.32l.57.24.74.25h0a5,5,0,0,0,1.14.27,5.15,5.15,0,0,0,1.83-.13,5,5,0,0,0,1.09-.43l.06.05a5.68,5.68,0,0,0,2-2A5.55,5.55,0,0,0,21.33,11Z"/><path class="cls-17" d="M10,7.3a4.5,4.5,0,0,0,.11.64,4.21,4.21,0,0,0,.2.63c.06.16.13.31.2.47l.08.15.11.18a1.74,1.74,0,0,0,.11.18l.12.18.12.17a5.73,5.73,0,0,0,1.68,1.47,5.92,5.92,0,0,0,2.08.72A6,6,0,0,0,17,12a5.74,5.74,0,0,0,2.05-.89l.19-.14.06-.05.13-.11.05,0,.18-.15v0l.15-.14.05-.05L20,10.3l0,0a2.09,2.09,0,0,1,.14-.17l.16-.21,0-.06.11-.16a.41.41,0,0,0,.05-.09l.09-.14.05-.09s0-.09.08-.14l0-.09s.05-.1.07-.14l0-.1L21,8.72a.36.36,0,0,0,0-.09l.06-.19s0,0,0,0a1.82,1.82,0,0,0,.07-.25,1.42,1.42,0,0,0,0-.22c0,.26-.11.52-.16.78v.11l0,0v.05h0c0,.08-.05.16-.07.24s0,0,0,.05l-.06.19v0l0,.06a.56.56,0,0,1,0,.12l0,0,0,.09a.61.61,0,0,1-.07.14s0,0,0,.05,0,0,0,.05l-.08.13a.41.41,0,0,1-.05.09l-.08.15,0,.05v0l0,0-.09.14a.1.1,0,0,0,0,.05l-.16.21h0c0,.05-.09.1-.13.16l0,0-.07.07-.05.06,0,0v0l-.16.15h0l-.17.14-.05.05-.07.05-.06.06-.06,0-.19.14a5.58,5.58,0,0,1-2,.88,5.88,5.88,0,0,1-2.17.07,6,6,0,0,1-2.05-.71A5.7,5.7,0,0,1,11,10.66l-.13-.18-.12-.17a1.74,1.74,0,0,0-.11-.18l-.1-.18a5.38,5.38,0,0,1-.28-.6,5,5,0,0,1-.19-.63A4.62,4.62,0,0,1,10,8.09a4.44,4.44,0,0,1,0-.63c0-.27,0-.53,0-.8A3.39,3.39,0,0,0,10,7.3Z"/><path class="cls-18" d="M16.49,1.56a5.74,5.74,0,0,1,1.92.65A5.34,5.34,0,0,1,20,3.53a1.58,1.58,0,0,1,.12.15l.12.16c0,.06.07.11.1.16l.1.17a4.34,4.34,0,0,1,.37.79,4,4,0,0,1,.21.83,3.91,3.91,0,0,1,.06.83,5.7,5.7,0,0,1-.09.83c-.06.26-.11.52-.17.78a4.25,4.25,0,0,0,0-1.64,4,4,0,0,0-.21-.82A3.93,3.93,0,0,0,20.27,5l-.1-.17c0-.05-.07-.1-.1-.16L20,4.51l-.12-.16a5.24,5.24,0,0,0-1.56-1.3,5.5,5.5,0,0,0-1.89-.64,5.85,5.85,0,0,0-2,0,5.35,5.35,0,0,0-1.88.79l-.23.16,0,0a1.56,1.56,0,0,0-.2.16l0,0-.2.18,0,0L11.6,4V4l-.16.18-.07.09-.1.12-.07.1-.09.13L11,4.74s0,.1-.08.14a.41.41,0,0,0-.05.09l-.09.16,0,.08a2.56,2.56,0,0,0-.11.24h0a1.17,1.17,0,0,0-.09.24l0,.08a1.05,1.05,0,0,0-.05.19V6a2.1,2.1,0,0,0-.06.24v0c0,.08,0,.16,0,.24v0a1.13,1.13,0,0,0,0,.25v0a2.45,2.45,0,0,0,0,.27c0-.27,0-.53,0-.8,0-.09,0-.18,0-.27V6h0a1.94,1.94,0,0,1,0-.24v0c0-.07,0-.15,0-.22V5.4l.06-.21v0h0v0l0-.13,0-.09a1.17,1.17,0,0,1,.09-.24h0c0-.08.07-.16.11-.25l0-.08a.83.83,0,0,1,.07-.13v0l0,0a.25.25,0,0,1,0-.07,1,1,0,0,1,.08-.14l.06-.09a.41.41,0,0,0,0-.09.1.1,0,0,0,0-.05l.07-.09a1.47,1.47,0,0,1,.1-.13l.07-.09,0,0,.12-.13h0l.09-.1L11.82,3l0,0L12,2.84l0,0,0,0,.18-.14,0,0,0,0,.23-.16a5.31,5.31,0,0,1,1.91-.79A5.78,5.78,0,0,1,16.49,1.56Z"/><path class="cls-19" d="M20.19,3.64a5.83,5.83,0,0,0-1.67-1.43,6.1,6.1,0,0,0-2-.69,6,6,0,0,0-2.15.06,5.82,5.82,0,0,0-2,.85,5.41,5.41,0,0,0-1.4,1.38,5,5,0,0,0-.78,1.7A5.23,5.23,0,0,0,10,7.36a5.44,5.44,0,0,0,.59,1.83l.11.18a1.74,1.74,0,0,0,.11.18l.12.18.12.17a5.73,5.73,0,0,0,1.68,1.47,5.92,5.92,0,0,0,2.08.72A6,6,0,0,0,17,12a5.74,5.74,0,0,0,2.05-.89,5.39,5.39,0,0,0,1.4-1.42A5.09,5.09,0,0,0,21.21,8a5,5,0,0,0,.07-1.85,5.21,5.21,0,0,0-.62-1.8l-.11-.18A1.63,1.63,0,0,0,20.44,4l-.12-.17Zm-7.63-.88A5.19,5.19,0,0,1,14.44,2a5.66,5.66,0,0,1,3.87.59,5.23,5.23,0,0,1,1.54,1.32L20,4l.11.15.11.17.09.16a5,5,0,0,1,.58,1.67,4.68,4.68,0,0,1-.07,1.71,4.92,4.92,0,0,1-.69,1.6,4.83,4.83,0,0,1-1.29,1.3,5.11,5.11,0,0,1-1.9.83,5.34,5.34,0,0,1-2,.06A5.43,5.43,0,0,1,13,11a5.2,5.2,0,0,1-1.56-1.36l-.12-.16a.91.91,0,0,0-.11-.16l-.1-.17L11,9a4.77,4.77,0,0,1-.54-1.69A4.66,4.66,0,0,1,11.26,4,4.92,4.92,0,0,1,12.56,2.76Z"/><path class="cls-20" d="M18.35,2.78a5.34,5.34,0,0,1,1.56,1.33l.12.16a.91.91,0,0,1,.11.16l.11.16.1.17a4.67,4.67,0,0,1,.42,1,3.12,3.12,0,0,1,.09.44,4.68,4.68,0,0,1-.07,1.71,4.92,4.92,0,0,1-.69,1.6,4.83,4.83,0,0,1-1.29,1.3,5.11,5.11,0,0,1-1.9.83,5.34,5.34,0,0,1-2,.06A5.43,5.43,0,0,1,13,11a5.2,5.2,0,0,1-1.56-1.36l-.12-.16a.91.91,0,0,0-.11-.16l-.1-.17L11,9a4.77,4.77,0,0,1-.54-1.69,4.68,4.68,0,0,1,0-1.24c0-.07,0-.14.05-.21a4.88,4.88,0,0,1,.73-1.59A5,5,0,0,1,12.54,3a5.31,5.31,0,0,1,1.9-.81,5.7,5.7,0,0,1,3.91.6Z"/><path class="cls-21" d="M11.12,10.13c.18.26.26.51.19.58h0l-1.5,1.12c-.08.06-.3-.12-.48-.4s-.26-.56-.18-.62l1.47-1.06C10.71,9.69,10.93,9.86,11.12,10.13Z"/><path class="cls-22" d="M8.12,11.06l1.1,1.76L9.85,12c.1-.38-.45-1.24-.78-1.2Z"/><path class="cls-23" d="M.16,16.2c-.63.89.8,2.62,1.6,2.27.71-.55,7.46-5.65,7.46-5.65.19-.39-.51-1.64-1.1-1.76C8.12,11.06,1,15.55.16,16.2Z"/><path class="cls-24" d="M10.7,5.66a4.92,4.92,0,0,0-.1,1.71,5,5,0,0,0,.53,1.68l.09.17.1.16.11.16.11.16a5.23,5.23,0,0,0,1.51,1.35c.13.08.27.15.41.22L13,11a5.2,5.2,0,0,1-1.56-1.36l-.12-.16a.91.91,0,0,0-.11-.16l-.1-.17L11,9a4.77,4.77,0,0,1-.54-1.69,4.68,4.68,0,0,1,0-1.24c0-.07,0-.14.05-.21a4.88,4.88,0,0,1,.73-1.59,4.37,4.37,0,0,1,.6-.7,5.25,5.25,0,0,0-.43.53A4.86,4.86,0,0,0,10.7,5.66Z"/><path class="cls-25" d="M.18,16.18c.26-.24.93.08,1.37.71s.47,1.34.21,1.58C1,18.81-.45,17.11.14,16.22c0,0,0,0,0,0Z"/><path class="cls-26" d="M1.49,16.92c-.38-.54-.93-.86-1.25-.78.3-.15.9.17,1.31.75s.47,1.34.21,1.58h0A1.47,1.47,0,0,0,1.49,16.92Z"/><path class="cls-27" d="M9.85,12l-.63.86-.61-1,1-.68A1.16,1.16,0,0,1,9.85,12Z"/><path class="cls-28" d="M9.22,12.82s-6.75,5.1-7.46,5.65h0c.26-.24.22-.95-.21-1.58l-.08-.1h0l7.39-5.11C9.15,12.1,9.33,12.6,9.22,12.82Zm-8.07,5.6Z"/><path class="cls-29" d="M1.15,18.42Z"/><path class="cls-30" d="M9.85,12l-.63.86-.17-.26a1.16,1.16,0,0,0,.2-.15,3,3,0,0,0,.6-.66A.49.49,0,0,1,9.85,12Z"/><path class="cls-31" d="M9.22,12.43a.64.64,0,0,1,0,.39s-6.75,5.1-7.46,5.65h0a.83.83,0,0,0,.15-.67Z"/><path class="cls-32" d="M9.29,12.69a.13.13,0,0,1,0,.06.15.15,0,0,1,0,.06h0a.25.25,0,0,0,0-.13,2.12,2.12,0,0,0-1.13-1.63l.07,0A2.12,2.12,0,0,1,9.29,12.69Z"/><path class="cls-33" d="M12.54,3a5.31,5.31,0,0,1,1.9-.81,5.7,5.7,0,0,1,3.91.6,5.34,5.34,0,0,1,1.56,1.33l.12.16a.91.91,0,0,1,.11.16l.11.16c0,.06.07.11.1.16L19,10.65l-.2.14a5.11,5.11,0,0,1-1.9.83,5.34,5.34,0,0,1-2,.06A5.43,5.43,0,0,1,13,11a5.2,5.2,0,0,1-1.56-1.36l-.12-.16a.91.91,0,0,0-.11-.16l-.1-.17L11,9a4.77,4.77,0,0,1-.54-1.69,4.68,4.68,0,0,1,0-1.24c0-.07,0-.14.05-.21a4.88,4.88,0,0,1,.73-1.59A5,5,0,0,1,12.54,3Z"/><path class="cls-34" d="M12.54,3a5.31,5.31,0,0,1,1.9-.81,5.7,5.7,0,0,1,3.91.6,5.34,5.34,0,0,1,1.56,1.33l.12.16a.91.91,0,0,1,.11.16l.11.16h0c-.43,1.93-.92,4.06-1.39,6.16l-.05,0a5.11,5.11,0,0,1-1.9.83,5.34,5.34,0,0,1-2,.06A5.43,5.43,0,0,1,13,11a5.2,5.2,0,0,1-1.56-1.36l-.12-.16a.91.91,0,0,0-.11-.16l-.1-.17L11,9a4.77,4.77,0,0,1-.54-1.69,4.68,4.68,0,0,1,0-1.24c0-.07,0-.14.05-.21a4.88,4.88,0,0,1,.73-1.59A5,5,0,0,1,12.54,3Z"/><path class="cls-35" d="M12.54,3a5.31,5.31,0,0,1,1.9-.81,5.7,5.7,0,0,1,3.91.6,5.34,5.34,0,0,1,1.56,1.33l.12.16a.91.91,0,0,1,.11.16l.11.16h0c-.43,1.93-.92,4.06-1.39,6.16l-.05,0a5.11,5.11,0,0,1-1.9.83,5.34,5.34,0,0,1-2,.06A5.43,5.43,0,0,1,13,11a5.2,5.2,0,0,1-1.56-1.36l-.12-.16a.91.91,0,0,0-.11-.16l-.1-.17L11,9a4.77,4.77,0,0,1-.54-1.69,4.68,4.68,0,0,1,0-1.24c0-.07,0-.14.05-.21a4.88,4.88,0,0,1,.73-1.59A5,5,0,0,1,12.54,3Z"/><path class="cls-36" d="M20.15,4.44l.1.15h0c-.43,1.93-.92,4.06-1.39,6.16l-.05,0-.12.09C19.12,9,19.61,6.82,20.15,4.44Z"/><path class="cls-37" d="M12.08,3.34A5.07,5.07,0,0,1,12.54,3a5.31,5.31,0,0,1,1.9-.81,5.7,5.7,0,0,1,3.91.6,5.34,5.34,0,0,1,1.56,1.33l.12.16.08.12-1.48,6.52a5.27,5.27,0,0,1-1.72.71,5.34,5.34,0,0,1-2,.06A5.43,5.43,0,0,1,13,11a5.54,5.54,0,0,1-.51-.33A17.93,17.93,0,0,0,12.08,3.34Z"/><path class="cls-38" d="M12.54,3a5.31,5.31,0,0,1,1.9-.81,5.7,5.7,0,0,1,3.91.6,5.34,5.34,0,0,1,1.56,1.33l.12.16a.91.91,0,0,1,.11.16l.11.16h0c-.43,1.93-.92,4.06-1.39,6.16l-.05,0a5.11,5.11,0,0,1-1.9.83,5.34,5.34,0,0,1-2,.06A5.43,5.43,0,0,1,13,11a5.2,5.2,0,0,1-1.56-1.36l-.12-.16a.91.91,0,0,0-.11-.16l-.1-.17L11,9a4.77,4.77,0,0,1-.54-1.69,4.68,4.68,0,0,1,0-1.24c0-.07,0-.14.05-.21a4.88,4.88,0,0,1,.73-1.59A5,5,0,0,1,12.54,3Z"/><path class="cls-3" d="M16.67,2.37A4.93,4.93,0,0,1,18.35,3a4.72,4.72,0,0,1,1.38,1.17l.1.14.1.14.09.14.09.15a4.09,4.09,0,0,1,.5,1.46,3.94,3.94,0,0,1,0,.77,4.55,4.55,0,0,1-.09.73,4.48,4.48,0,0,1-.43,1.12,4.4,4.4,0,0,0,.18-.62,3.66,3.66,0,0,0,.1-.74,4.08,4.08,0,0,0,0-.78,4.26,4.26,0,0,0-.51-1.49L19.77,5l-.09-.15-.1-.14-.11-.14a4.83,4.83,0,0,0-1.39-1.19,5.11,5.11,0,0,0-1.71-.59,5.23,5.23,0,0,0-1.81.05,4.88,4.88,0,0,0-1.69.72,4.22,4.22,0,0,0-.75.64,4.12,4.12,0,0,1,1.1-1.06,4.69,4.69,0,0,1,1.67-.71A5.06,5.06,0,0,1,16.67,2.37Z"/><path class="cls-39" d="M18.35,3a4.72,4.72,0,0,1,1.38,1.17l.1.14.1.14.09.14.09.15a3.59,3.59,0,0,1,.17.34l-.15.68a5,5,0,0,0-.27-.57L19.77,5l-.09-.15-.1-.14-.11-.14a4.83,4.83,0,0,0-1.39-1.19,5.11,5.11,0,0,0-1.71-.59,5.23,5.23,0,0,0-1.81.05,4.88,4.88,0,0,0-1.69.72,4.22,4.22,0,0,0-.75.64,4.12,4.12,0,0,1,1.1-1.06,4.69,4.69,0,0,1,1.67-.71,5.06,5.06,0,0,1,1.78,0A4.93,4.93,0,0,1,18.35,3Z"/><path class="cls-40" d="M20,5.31l.15-.64v0l.09.16-.15.66Z"/><path class="cls-41" d="M18.35,3a4.72,4.72,0,0,1,1.38,1.17l.1.14.1.14.09.14.09.15.09.16-.15.66c-.06-.12-.12-.25-.19-.37L19.77,5l-.09-.15-.1-.14-.11-.14a4.83,4.83,0,0,0-1.39-1.19,5.11,5.11,0,0,0-1.71-.59,5.23,5.23,0,0,0-1.81.05,4.88,4.88,0,0,0-1.69.72,4.22,4.22,0,0,0-.75.64,4.12,4.12,0,0,1,1.1-1.06,4.69,4.69,0,0,1,1.67-.71,5.06,5.06,0,0,1,1.78,0A4.93,4.93,0,0,1,18.35,3Z"/><path class="cls-42" d="M18.35,3a4.72,4.72,0,0,1,1.38,1.17l.1.14.1.14.09.14a.25.25,0,0,1,0,.07c0,.22-.09.43-.14.64l-.06-.11L19.77,5l-.09-.15-.1-.14-.11-.14a4.83,4.83,0,0,0-1.39-1.19,5.11,5.11,0,0,0-1.71-.59,5.23,5.23,0,0,0-1.81.05,4.88,4.88,0,0,0-1.69.72,5.94,5.94,0,0,0-.61.49V4a4.55,4.55,0,0,1,1-.88,4.69,4.69,0,0,1,1.67-.71,5.06,5.06,0,0,1,1.78,0A4.93,4.93,0,0,1,18.35,3Z"/></g></g></svg>