<svg xmlns="http://www.w3.org/2000/svg" xmlns:xlink="http://www.w3.org/1999/xlink" viewBox="0 0 142.98 94.68"><defs><style>.cls-1{fill:none;}.cls-2{clip-path:url(#clip-path);}.cls-3{fill:#dfc5a0;}.cls-4{fill:#c4a286;}.cls-5{fill:#cfd1d2;}.cls-6{fill:#fcfcfb;}.cls-7{fill:#00a4e4;}.cls-8{fill:#bed7f0;}.cls-9{fill:#575757;}.cls-10{fill:#414141;}.cls-11{fill:#dec49f;}.cls-12{fill:#716360;}.cls-13{fill:#5f5452;}.cls-14{fill:#c3a186;}.cls-15{fill:#221f1f;}.cls-16{fill:#fff;}</style><clipPath id="clip-path"><rect class="cls-1" x="14.84" y="1.19" width="121.19" height="67.79"/></clipPath></defs><g id="Слой_2" data-name="Слой 2"><g id="Layer_1" data-name="Layer 1"><rect class="cls-1" width="142.98" height="77.15"/><g class="cls-2"><path class="cls-3" d="M49.06,13.18a6.24,6.24,0,0,1,.58,2.61A49.09,49.09,0,0,0,51,22.47,12.86,12.86,0,0,0,52.67,26a10.19,10.19,0,0,1,1.82,6.12c-.09,2.53,1.61,3.24,3.19,5.1.91,1.08,3,.79,3.93,1.85-.53,1.23-3.38,5.3-4.08,6.45a2.81,2.81,0,0,1-3.18.11,27,27,0,0,1-3.92-3.64,1,1,0,0,0-1.22-.42c-.68.2-3.21-2.52-4.78-2.83-.72-.14-2-.48-2.34-1.09-.22-.37-.72-.24-.93-.62a25.67,25.67,0,0,1-1.61-2.86,9.54,9.54,0,0,1-1.09-4.63,2.11,2.11,0,0,1,1.22-1.9c.53-.23.49-.56.44-1a4.86,4.86,0,0,1,.69-3.33,2.46,2.46,0,0,1,3.26-1.23A16.26,16.26,0,0,1,44,16.21a6.16,6.16,0,0,1,2.13-3.89,2.9,2.9,0,0,1,1.44-.22A2.13,2.13,0,0,1,49.06,13.18Z"/><path class="cls-4" d="M49.06,13.18a6.24,6.24,0,0,1,.58,2.61A49.09,49.09,0,0,0,51,22.47,12.86,12.86,0,0,0,52.67,26a10.19,10.19,0,0,1,1.82,6.12c-.09,2.53,2.07,2.52,4,4.16a19.75,19.75,0,0,1,3.07,3.48c-.53,1.23-3.33,4.61-4,5.76a2.81,2.81,0,0,1-3.18.11,27,27,0,0,1-3.92-3.64,1,1,0,0,0-1.22-.42c-1.31.47-2.87-2.15-5.25-2.8A3.89,3.89,0,0,1,41.16,37a28.68,28.68,0,0,1-1.61-2.86,9.54,9.54,0,0,1-1.09-4.63,2.11,2.11,0,0,1,1.22-1.9c.53-.23.49-.56.44-1a4.86,4.86,0,0,1,.69-3.33,2.46,2.46,0,0,1,3.26-1.23A16.26,16.26,0,0,1,44,16.21a6.16,6.16,0,0,1,2.13-3.89C46.35,12.14,48.52,11.6,49.06,13.18ZM45.24,38.41c1.13.24,2.63,3.54,4,2.09,1.86-2,.56.55,1.37,1.39a49.91,49.91,0,0,0,3.9,3.17,1,1,0,0,0,1.2,0c1.28-.65,2.81-2.73,3.52-3.91.18-.3,1.12-2.18.95-2.42-1-1.3-2.87-1.45-4.29-2.4S54,34.8,54,33.21c.35-3.2,0-4.81-1-6.55-.47-.82-1.74-1.05-2.15-1.89-1.21-2.48-.82-4.72-1.33-7.42-.22-1.2-.44-2.72-.66-3.93-.15-1.71-2-1.37-2.48-1.2-.86.27-1.54,1.91-1.79,2.7a11.15,11.15,0,0,0,1.58,10c.09.18.26.4,0,.54s-.34,0-.58-.19a1.51,1.51,0,0,1-.63-1c-.22-1.05-.48-2.09-1.28-2.3A2.31,2.31,0,0,0,41,23.08c-1.45,2.38.21,6.38,2.72,7.56.3.14.43.16.54-.2A12.39,12.39,0,0,1,45,28.36a1.36,1.36,0,0,0-.08-1.61c-.16-.22-.29-.47-.46-.69s-.42-.48-.2-.72.59,0,.84.18A5.69,5.69,0,0,1,46,26.73c.09.14.13.28.35.25,1.67-.21,3,.64,4.3,1.47.16.11.47.3.25.55s-.43,0-.6-.14a5.71,5.71,0,0,0-3.18-1.79c-1.22,0-1.41.2-1.54.5a10.08,10.08,0,0,0-.78,1.7,4.72,4.72,0,0,1-2.32,3.22c-1.07.58-1.08,1.56.6,2.84.08.08,2.26.71,3,.24a2.33,2.33,0,0,0,1.1-2.22,3.94,3.94,0,0,1,.33-2,1.36,1.36,0,0,1,.68-.77c.15-.07.37-.17.51,0s.23.44-.22.47a1,1,0,0,0-1,1c-.13,1.3-.24,1.67,1.14,4.26.12.22.77.57.42.78s-.5-.15-.65-.42c-.26-.52-.55-1-.84-1.55a3.61,3.61,0,0,1-1.92,1.37c-1.46.37-3.64-1.12-4-2.79-.14-.74-.09-1,.58-1.34a11.47,11.47,0,0,0,1.06-.64c.32-.21.36-.42,0-.6a5.61,5.61,0,0,1-2.79-2.85c-.58-1.75-1.56-.21-1.83.24a3.61,3.61,0,0,0,0,1.85,14,14,0,0,0,1.77,4.81c.66,1.13.62,2.38,3.58,2.3,1,0,2.12-1.1,2.08-.59s-.86.68-1.64.76C43.83,37.76,44.36,38.23,45.24,38.41Z"/><path class="cls-5" d="M52.66,48.23s1.22.39,1.64.47,1.39.11,1.39.11l-.19-.27a9.74,9.74,0,0,1-.94-.39c-.52-.32-.75-.43-1.54-2.4s.29-3.21,1.58-5,1.16-3.74,2.33-3.94c1.56-.27,2.37.37,2,.2s-.4-1.25-1.53-1.71a11.87,11.87,0,0,1-1.88-1.14,6.48,6.48,0,0,0-3.87,3.24A9.55,9.55,0,0,0,50,42.77C50,44.08,50.28,47.29,52.66,48.23Z"/><polygon class="cls-6" points="77.3 41.98 83.75 69.55 86.2 75.88 93.79 73.73 96.24 74.03 103.07 57.56 105.02 50.02 102.67 44.09 77.3 41.98"/><path class="cls-7" d="M85.66,52.64l.06,1L87.87,58l.6.12-1.73,2.39L85.6,66.14l-1,5.11s1,6.84,1.06,7S88.4,92.51,88.4,92.51l4.27-2.18s3.92-14.21,4-14.39-1.31-8.3-1.37-8.72S94.56,63.63,94,62a12.45,12.45,0,0,0-1.68-3.1l-.47-.72s2.44-3.41,2.5-3.59.66-1.55.66-1.55L96,48.42,85.9,47.5Z"/><path class="cls-8" d="M86.74,54c.1.19,1.61,3.28,1.61,3.28a.9.9,0,0,0,.9.54h2.39s.65-.36.18-.36a8.59,8.59,0,0,1-2.51-.66C88.71,56.47,85.9,52.28,86.74,54Z"/><path class="cls-8" d="M88.59,58.8a21.44,21.44,0,0,0-2,5.13c-.18,1.32-.72,5.56-.72,5.56a41.42,41.42,0,0,1,1.5-3.95,18.62,18.62,0,0,0,1.67-4.77C89.25,59.39,89.27,58.68,88.59,58.8Z"/><path class="cls-8" d="M90.92,58.8a3.59,3.59,0,0,1,1.37,1.25,16.23,16.23,0,0,1,1,4.84,12.18,12.18,0,0,1-1,3.82c-.18.48-.77-1-.47-2.93a11.76,11.76,0,0,0-.72-5.25C90.74,59.69,90.54,58.56,90.92,58.8Z"/><path class="cls-5" d="M85.66,52.64l-2.44,3.71-.36.47a14.09,14.09,0,0,1,1.67-1.31c.84-.54.9-1.13,1.25-.72s1.14,2.75,1.62,3a2,2,0,0,1,.74.82V56.81l-1.7-3.57Z"/><path class="cls-5" d="M93.19,58.14l1.73-3.29L97.43,57l.54.3-.36-.83L95,53.06l-1.29,2.5L91.88,58.2l.26.4a14.24,14.24,0,0,1,1.29,1.33C93.79,60.41,92.83,58.82,93.19,58.14Z"/><path class="cls-5" d="M98.8,47.94c.18,0,1.79-.12,2.27.42s.06,2.09.06,2.09l.6,4.06.89-7.71S97.39,47.89,98.8,47.94Z"/><path class="cls-9" d="M58.16,34.68a28.74,28.74,0,0,0-5.32,6.25c-.44.75-2.68,2.52-2.68,4.74,0,0,3.44,3.86,8.57,9.95,3.75,4.46,7.12,17.26,7.12,17.26s1,8,1.17,10.43-.06,4.92,1.33,5.8A37.12,37.12,0,0,0,79,93.31,41.71,41.71,0,0,0,88.4,94.4s2.14-1.5,2.6-3l4.14,3.25a67,67,0,0,0,7.94-1.49c3.73-1,10-3.34,11.55-6.17,0,0,0-.64-.11-1.17l-1.25-9.3,3,5.66a3.15,3.15,0,0,0,1.84,2.05s-3.44-3.23,1-4.46c3.34-.94,8.23-.65,9.11-.07s.56,2.27.56,2.27a4.66,4.66,0,0,0,.85-3.58c-.37-2.25-.3-9.57-2.25-15-2.1-5.91-4-10.29-5.69-12.74a47.14,47.14,0,0,0-4.65-5.47s-6.86-3.15-14,4.27A103.37,103.37,0,0,0,98.67,62.1C97.49,67,93.25,77.15,93.25,77.15l-3.1,6.91s-1.66-6.16-2.94-9.36a83.06,83.06,0,0,1-3.86-11.49c-1-4.35-2.74-8.34-3.5-11.16-.57-2.11-1.55-8.58-1.55-8.58s-4.09-4.77-7.81-4.24C63.69,40.21,58.16,34.68,58.16,34.68Z"/><path class="cls-10" d="M89.39,86.83s.18-.2,2-2.71,7.81-9,9.26-10.91,5-8,5.34-8.55a25.16,25.16,0,0,0,1.31-2.75,2.38,2.38,0,0,1,0,1.57c-.25,1.09.87,5.29,1.75,6.3s4.17,6.77,4.17,6.77l.6,4.48c.12.89.76,6,.76,6s0,.55-1.31,1.52-1.32.44-3.55.07-7.64-.63-4.6-1.4,5.8-2.82,6.2-3.49-.85-.41-2.38.47-4.7,1.53-5.84,1.92-1.93.27-2.33-.19a9,9,0,0,1-.94-1.59,2.24,2.24,0,0,0,1.19.93c.87.33,3.87-.33,5.77-.87s3-.6,3.5-1.63.25-2.53-.52-2.46-3.88.65-4.66.86,1.12-.64,1.84-1.07,2.08-1.75,1.52-3.09,0-3.32-2.2-3.24a5.29,5.29,0,0,0-3.89,1.95c-.24.38.4-2.82-.41-1.79s-6.63,6.74-7.83,8.29-3.25,3.58-3.25,3.58Z"/><path class="cls-10" d="M90.56,86.76a8.5,8.5,0,0,1,1.62.13,3.63,3.63,0,0,0,1.7.07c.55-.13,2.39-.78,2.47-.58s-1.68,1-2,1.09-.48.57.15.57h4.19s2.73,1.13-.15.69-3.6-.56-4.08,0A4.08,4.08,0,0,1,92.08,90a12.38,12.38,0,0,1-2.8-1,7.34,7.34,0,0,0,2.73.37c1.07-.19,1.61-.44,1.37-1.12A3.27,3.27,0,0,0,90.56,86.76Z"/><path class="cls-10" d="M106.9,59.34A4.56,4.56,0,0,0,105.62,57c-1.12-1.11-3.56-1.51-4.08-.7s-1.57,1.12-.46-1.77a30.17,30.17,0,0,0,1.33-7.67s7.34-2.19,9.44-2.76a9.16,9.16,0,0,1,3.49-.35s5.3,3.92,7.7,9.17c2.25,4.93,3.88,8.93,4.36,10.48s-.61,1.9-1.55-.65-3.82-9.35-5.14-11.3c-1.53-2.24-1.8-8.07-7.09-5.74C111,46.83,106.53,49,107,55.48c.12,1.55,1,5.39,1,5.39Z"/><path class="cls-10" d="M111.83,72.41s3.36,4.74,4.18,5.49,1.23,1.43,3.6,1.2a29.39,29.39,0,0,1,6.54-.15c3.4.42,3.19-1.91,3.52-.37l1,4.44a4.55,4.55,0,0,0-2.78-3,10.46,10.46,0,0,0-8.65,1.2,9,9,0,0,0-1.93,1.86c-.74.87-.39,3-.39,3s-1-2.24-1.36-3.14-2.19-5.94-2.19-5.94l-3.46-6.17A4.27,4.27,0,0,1,111.83,72.41Z"/><path class="cls-3" d="M119,87.72l.23.34a.77.77,0,0,1-.27.8,1,1,0,0,0-.11,1.59,2.47,2.47,0,0,0,2,.42c.42-.11.49-.53.76-.49s2.35.45,3.37.57,4.09.3,4.81.26a11.84,11.84,0,0,0,2.35-.34,4.77,4.77,0,0,0,.88-.53s.83.15,1.7.23a4.69,4.69,0,0,0,1.86-.16c.3-.11.61.08.83.12a1.31,1.31,0,0,0,1-.61c.11-.34.19-.83-.31-1s-1.82-.87-2.57-1.18-2.77-1.32-3.57-1.78a8.53,8.53,0,0,1-1.63-1.1c-.41-.38-.91-.53-.91-.72s.46-.53.19-.79a5.63,5.63,0,0,0-3.49-1.1,7.76,7.76,0,0,0-4.39,1,6.63,6.63,0,0,0-2.35,2C118.87,86.09,118.5,87.19,119,87.72Z"/><path class="cls-4" d="M118.84,90.19a1.12,1.12,0,0,0,1.21.41c.87-.15,1.36-.6,1.36-1s.27-1,.88-.76a9.21,9.21,0,0,0,2.08.65c.57.07,2,.15,2.43.15s.15.42.53.45,1.44.19,2.23.27,1.67.14,2.32.23a.79.79,0,0,0,.83-1.29,16.82,16.82,0,0,0-1.52-1c-.3-.23-1.28-.91-1.51-1.1s-.49-.49,1,.46,2.73,1.85,3.19,2.08a4.06,4.06,0,0,0,1.51.42c.38,0,.65.15.95-.31s.34-.75.15-.91-1.1-.64-1.1-.64,1.33.45,1.52.76-.11.49.27.79a.71.71,0,0,0,1,0c.11-.19.34-.6.28-.69s.26.67-.13,1-.26.57-.91.42a2.52,2.52,0,0,0-1.25,0,8.24,8.24,0,0,1-2,0l-1.1-.16s-.08.35-.88.53-1.27.24-1.42.26a6.9,6.9,0,0,1-1.57.08,36,36,0,0,1-4.57-.32c-1.66-.27-3-.51-3-.51a8,8,0,0,0-.76.49,1.45,1.45,0,0,1-1.31-.05C119.05,90.63,118.15,90,118.84,90.19Z"/><path class="cls-4" d="M119.18,88.06a1.19,1.19,0,0,1-.4-1.34,5.32,5.32,0,0,1,2.29-3.11,9,9,0,0,1,4.21-1.39,13.32,13.32,0,0,1,3.87.78c.87.36.63.61.71,1a2.49,2.49,0,0,0,1.46,1.58,16.1,16.1,0,0,1-1.91-.95,5.32,5.32,0,0,0-1.67-1,14.06,14.06,0,0,0-3.52-.5A5,5,0,0,0,121,84.24a8.41,8.41,0,0,0-1.78,2,2.31,2.31,0,0,0,0,1.32A.78.78,0,0,1,119.18,88.06Z"/><path class="cls-5" d="M118.65,88.29l-1.84-2.61a3.84,3.84,0,0,1,1.61-3.93,11.08,11.08,0,0,1,6.82-2.21c2.28,0,4.38,1.08,5.12,2.55a2.31,2.31,0,0,1-.25,2.56l-.27-.22s.34-1.36-1.94-1.82-4.79-.34-6.18.6a7.41,7.41,0,0,0-2.6,2.64A10.05,10.05,0,0,0,118.65,88.29Z"/><path class="cls-10" d="M51.79,41a18.06,18.06,0,0,0-3,5.2s2.6,3.1,4.78,6.17c2.92,4.12,8.43,9,9.22,11.49A57.67,57.67,0,0,1,64.55,71s2.33,7.28,2.25,9.78C66.58,87.06,68.32,84,68.32,84s-.42-5.09-1.22-9.45-3-5.84-2-11.11,1.52-7.88,2.06-9.18,1-4.67-.59-1-2.18,4.67-2.94,4.57,1.31-3.54.76-4.68c-.34-.71-.35,1.42-2.41,2-3.18.95-5.62-4.07-7.28-6.71-1-1.54-1.84-4.54-1.07-6.12C55.62,38.26,56.92,35.35,51.79,41Z"/><path class="cls-10" d="M80.66,86.86c.07.14.28.14,0,0Z"/><path class="cls-10" d="M88.84,89.36a4.7,4.7,0,0,1-.71-1.44l.45-.77,1.1-2s-6.47-9.1-9-11.9a37.54,37.54,0,0,1-5.65-9.35,19.46,19.46,0,0,1-1.3-5.67l3.53.14-.87-7.19c-3.34-10.79,3.79-4.86,1.64-7.52-3.74-4.64-6.88-4.75-7.85-4.47-2.3.68-2,0-4.9-.34-1.12-.13.76.74,3.61,1.8s3.73,4.43,5.2,6.66a17.36,17.36,0,0,1,2.22,7.93c0,2.34-4.56,2.11-3.68,3.09s.64,3,.21,5.11c-.32,1.64,3.28,6.52,9.08,12.69,2,2.14,7.19,8.26,7,8.89s-.64,1.19-2.54,1.32-1.15.71,1,.9-.35.89-.35.89-5.25-.13-6.23-.06,2.87.62,5.45.81.36.5.36.5-3.84.74-4.79,1,1.92-.06,2.87-.24,3.24-.07,3.77.48S88.66,92,87,92.73s-7.61.23-8.29.17,1.44.66,4.41,1.15,3.65.74,5.25.35,2.6-3,2.6-3S89.19,89.67,88.84,89.36Z"/><path class="cls-10" d="M74.65,91.6a11.68,11.68,0,0,1-2.84-1.75c-5.23-2.79,3.48.53,2.43-.25-5.6-4.15-4.65-5.21-4.9-5.74s1.74.06,2.71.47,2.39.8,2.39.8,1.6.46,4.47,1.18a10,10,0,0,1,1.75.55.21.21,0,0,1,0-.16c.15-.45.72-3.32.87-3.94a.72.72,0,0,0-.51-.83,32.24,32.24,0,0,1-5.07-1.13c-1-.5,2.84-1.07,4-1.51s-3.38.66-4.18.22a.81.81,0,0,1-.35-.46,27.23,27.23,0,0,1-4.44.74l-1.67-.2c.32,2.56-2.24,4.2-2.25,4.8a18.38,18.38,0,0,1-.43,2.67c-.13,1,1.19,1.6,3.49,3S76.27,92.2,74.65,91.6Z"/><path class="cls-10" d="M64.45,59.91a11.36,11.36,0,0,0,1.35,4.82A34.8,34.8,0,0,0,70,70.19c.49.48,0,3.17-1,1A32.37,32.37,0,0,0,65.31,66s2,13.2,6.48,12.2c.7-.16-1.6,3.93-1.18,6.62.2,1.29-3.66-1.15-3.91-1.79-.68-1.79-3-13-3-13l-1.28-7.18Z"/><path class="cls-9" d="M70.7,80.45c3.4.85,8,1.83,8.74,1.9s1.5.14,1.27.82a20.51,20.51,0,0,0-.47,2.75,32.73,32.73,0,0,1-3.32-.66,30.58,30.58,0,0,1-6.31-2.09C69.78,82.62,70.7,80.45,70.7,80.45Z"/><path class="cls-11" d="M72.38,25.71c-.09-1.18-.14-2.36-.13-3.55,0-2,0-4.29,1.36-5.77A24.79,24.79,0,0,0,76,13.19a4.48,4.48,0,0,1,.6-1.48,13.22,13.22,0,0,1,2-1.37c1.8-2.16,4.08-4.61,6.31-5,.74-.12,1.89,1.07,2.37.65a4.28,4.28,0,0,1,3-1.41c.77,0,1.44.65,2.12,1,.51.26,2.15-.49,2.71-.53a5.27,5.27,0,0,1,4.15,1.25,2.54,2.54,0,0,1,.5.36c1.36,1.56,2,0,3.93.3a5.18,5.18,0,0,1,3,1.35c2.74,2.94,2.7,1.3,3.74,3.13.67,1.16-.3,3.12.16,4.09.61,1.29,2.74,1.72,3.17,2.89a17.88,17.88,0,0,1,.9,6.94c-.08,2.2-.08,4.65-.27,6.84a29.61,29.61,0,0,0,.25,6.11c.12,1.32.51,4,.48,4.25-.18,1.4-2.78,1.73-4.09,2.13-2.22.69-4.46,1.33-6.7,1.94-2.07.57-4.15,1.09-6.26,1.53a32.94,32.94,0,0,1-6.78.85,18.19,18.19,0,0,1-6.5-1.62,43.36,43.36,0,0,1-5.86-2.94A33.68,33.68,0,0,1,74.05,41c-1.87-1.63-3.45-3.65-2.9-6.34.09-.45,1.18-3.31,1.65-5.11A5.2,5.2,0,0,0,72.38,25.71Z"/><path class="cls-12" d="M75.8,13.81a14.32,14.32,0,0,1-1.52.42,5.72,5.72,0,0,0-3.37,2.42c-1.45,1.8-4,5.33-4.54,6.21s-1.69,3.13-.05,4.46,3.24,2.57,3.58,3.4.51,3,1.38,3.12,2.32-4.68,2-5.77c-.14-.57-1.32-5.1-.64-8.67A11.7,11.7,0,0,1,75.8,13.81Z"/><path class="cls-12" d="M128.88,28.81s-2.07-3.33-5.83-8.16a34,34,0,0,0-9.26-8.21c-1.65-1-3.36-1.44-3.24-.71s-.19,1.62-.08,2.72S110.9,16,112,17s2,1.85,2.34,3.5a49.59,49.59,0,0,1,.2,8.62c-.16,3.06.17,9.9.17,9.9s1.46-1.26,4.37-4,5.07-4.3,7-4.55S129.37,30.72,128.88,28.81Z"/><path class="cls-13" d="M115.75,15.49s-1.51-2.39-2.72-2.34-2.44.67-2,1.54,4.21,2.78,5.19,4A8.21,8.21,0,0,1,118,23.32c.35,2.42-1,5.72.1,6.31a3.48,3.48,0,0,0,3-.29c1.35-.84,2.78-.77,1.31.17s-4.32,2.59-4.84,3.05c-1.42,1.22-1.31-.88-1.16-2.12s.26-5,.23-6-1-2.62-1.09.12-.45,5.25-.44,8.34,0,4.47.72,4,.81.32-.07,1.11-1,1.28-1.28-.34a44.1,44.1,0,0,1-.17-6.62c.08-1.69.26-7.33.12-9.65a4,4,0,0,0-1.19-3.07A19,19,0,0,1,110.9,16a3.67,3.67,0,0,1-.35-2.25,5.47,5.47,0,0,0-.13-2.32,6.07,6.07,0,0,1,3.37,1,75.23,75.23,0,0,1,7.66,6.1,49.75,49.75,0,0,1,3.45,4.17c1.29,1.27-3.5-3.45-4.21-4.34s-4.5-4.16-4.06-3.26S118,17.75,115.75,15.49Z"/><path class="cls-13" d="M75.29,14.27s-1.36,1.88-2,2.51A4.18,4.18,0,0,0,72.24,20c0,1.71-.19,3.94,0,4.46a5.47,5.47,0,0,1-.34,2.22c-.22.86-1,3.29-.82,2.18s.86-5.26.22-4.07-.47,4-2.24,2.54-2.81-3.1-1.84-3.6,2.57-2.5,2.17-2.88-1.2.34-1.42.5a11.26,11.26,0,0,1,1.87-3.29c1.12-1.44,2.71-3.31,3.94-3.67S75.75,13.65,75.29,14.27Z"/><path class="cls-12" d="M103.18,36.09c1.92,1.24,1.23,2.27.91,2.68A42.23,42.23,0,0,1,96.53,45c-4,2.57-9,.75-12.5-1s-5.69-1.74-7.7-3.75a4.37,4.37,0,0,1-1-4.86c.2-.76.85-3.45,2.15-7.53a11.15,11.15,0,0,1,4.34-6,28.13,28.13,0,0,0,2-2.43c.51-.61,2.16-.15,3.11,0s2.1.28,3,.46,3.76,1.43,7.24,6a59.42,59.42,0,0,1,5.94,10"/><path class="cls-14" d="M73,23a4,4,0,0,0,1.31,2.33A3.81,3.81,0,0,1,75,27.94c-.27,2.7.13,2,.13,2s.63-3.38,1.49-6.16,2.77-4.67,6.61-6.4,7.8-1.57,13.14,3.5,6.35,6.91,7.23,9.85c1.32,4.45.43.58.73-1.68.26-2,1.78-1.93,2.44-2.63,1.13-1.19,1.5-1.9,2.68-1.75.21,0,1.41,3.45,1.43,2.11,0-1.91-.77-2-1.3-3.8a22.22,22.22,0,0,1-.68-4c-.15-2.38-1.19-1.16-1.95-2.13s-1.63-2.58-3.48-2.89-4.25.19-4.65,1.66c-.45,1.65-1.43-1.31-1.77-1.57-1.21-.92-.34,2.53-.9,3.67-.65,1.33-2.62-.84-2.53-2.79a2.66,2.66,0,0,1,.23-1.51A4.3,4.3,0,0,1,97.34,11,5.23,5.23,0,0,1,101.66,12c1.27,1,6.26,3.87,6.71,3.83.72-.09-1.62-.92-3-1.89s-4-3.31-6-3.52a6.42,6.42,0,0,0-4.89,1.18,5.4,5.4,0,0,0-1.65,3.28A2.26,2.26,0,0,1,92.24,16c-.34.29-.42.19-.7.14a7.17,7.17,0,0,1-1.6-.44c-.24-.2-.85-1.1-.87-3.06,0-2.26.76-3.53,2.34-4.2A6.6,6.6,0,0,0,94.05,6.9c.61-.68.67-1.05,2-.87s2.75.46,2.75.46.32-.06.14-.3a4.62,4.62,0,0,0-3-1.14,3.31,3.31,0,0,0-2.17.48c-.52.17-1.77-.14-1.4.51s-.49,1.44-1.27,1.74a10.57,10.57,0,0,0-1.42.72c-.47.28-.9.59-1.24.28s-.92-.79-.89-1.34-.37-.85.19-1.32a2.09,2.09,0,0,0,.65-1c-.46.22-1.12,1-1.43,1-1-.15-.63-.76-2.39-.58-.11,0-1,.3-1.1.33-.42.15,1.68-.37,2.54.33.37.3,0,.64.42,1.79.22.53.52.92.75,1.47.49,1.23.36,2,.22,3.67a2.72,2.72,0,0,1-.94,2.36,20.64,20.64,0,0,0-3.27.83c-1.1.34-2,1.18-2.66,1.16-1.33,0-.85-1.56-1.2-2.12-.16-.24-1.16-.35-.58-1.2.28-.43-.21.15-1,.67s-2,1-1.56,1a8.88,8.88,0,0,1,1.24-.38c.43-.06,1.42,1.68-.2,1.89a7.33,7.33,0,0,0-3.46.94C71.92,19,72.88,22.15,73,23Zm11.37-8.78c-.65.09-.61-1.37-.89-2.34s-1.18-.89-2-.9-1.37.82-2.4,1.31a18.43,18.43,0,0,0-3.1,2s-.56.06.1-.92c.28-.41.22-1,.35-1.37s1.21-.79,1.87-1.47c.82-.83.46,1.41,1.91.32.71-.53,2.25-1.11,3.2-.48C85,11.44,85.37,14.07,84.41,14.22Z"/><path class="cls-13" d="M104.09,38.77s-2.9,3.08-3.65,3.07c-11.53-.19,1.82-7.37-6.89-16.94-1.44-1.57-4,1.63-6.89.29-1.3-.61-.76,4.08-1.67,4s.64-4.58.15-4.45c-5.21,1.41-2.21-4.53-2.54-3.56l-.09.22A13.71,13.71,0,0,1,81,23.82c-.73,1.06-1.53,3.17-2.86,5.68s-1.43,4.17-1.85,5-1,1.14-.41-1.33,1.31-5.74,2.9-7.94,4.26-6.38,6.11-6.06c2,.35,3.28-.81,4.69-.3,6.33,2.31,11.28,12.22,12.5,14.73A15,15,0,0,0,104,37C104.2,37.23,104.5,38.74,104.09,38.77Z"/><path class="cls-15" d="M86.9,24c2.22-.47,1.66-4.51,0-3.38-1,.69-.87-.89.39-1.21.79-.2,2.12-.33,2.56.81.37.95.14,3.1.71,1.27a2.25,2.25,0,0,0-1.31-2.78,7.06,7.06,0,0,0-3.83.27c-.57,0-2.06,0-2.79.73-.44.46-1.19,2.35-.73,2.55.22.11.84-2,1.31-2.25,1.78-.85,1.89,1.19.45,1.14-.71,0-1.49,1.39-.65,2.86a.88.88,0,0,0,1.42.14c.45-.46.3-.94.47-1.32C85.63,21.25,85.58,24.32,86.9,24Z"/><path class="cls-13" d="M75.85,38.58c3,1.32,2.72-1.07,2.85-2.06A3.05,3.05,0,0,1,81.48,34c.56.14,3.39.42,4.49,2.44,1.38,2.53,1.31,4.36,3.41,5.9,2.59,1.89,6.5.79,7.31,1.22s.45.55-.41,1.31a4.44,4.44,0,0,1-2.17.83,7,7,0,0,1-.8.1c-2.73.67-5.69-.15-8.2-1.38-.85-.42-1.68-.89-2.51-1.35S81,41.93,80.15,42a1.89,1.89,0,0,1-1.73-.44.77.77,0,0,1-.55-.22l-1.09-1.08C76.41,39.91,75.33,38.35,75.85,38.58Z"/><ellipse class="cls-15" cx="103.12" cy="20.04" rx="4.82" ry="4.93"/><path class="cls-16" d="M105,16.8a3.7,3.7,0,0,0-4.61.07c-2.65,1.82-1.58,5.6-.28,6.54s-.58-1.11-.48-2.87a3.6,3.6,0,0,1,2.65-3.47C103.5,16.59,105.52,17.25,105,16.8Z"/><ellipse class="cls-16" cx="105.67" cy="22.12" rx="0.87" ry="0.89"/><ellipse class="cls-16" cx="104.74" cy="23.72" rx="0.45" ry="0.46"/><path class="cls-15" d="M79.62,19.45A3.75,3.75,0,0,0,77,17.79a3.8,3.8,0,0,0-4.23,3.34A3.85,3.85,0,0,0,76,25.45c.15,0,.5-1.39.54-1.53C77.51,20.61,80.12,20.2,79.62,19.45Z"/><path class="cls-16" d="M78,19.09a2.89,2.89,0,0,0-3.6.05c-2.07,1.43-1.24,4.38-.22,5.12s-.45-.87-.38-2.24a2.81,2.81,0,0,1,2.07-2.72C76.8,18.92,78.38,19.44,78,19.09Z"/><ellipse class="cls-16" cx="76.05" cy="23.08" rx="0.6" ry="0.62"/><path class="cls-15" d="M80,31.22A17.79,17.79,0,0,0,92.52,30a5.52,5.52,0,0,0,1-.76,3.78,3.78,0,0,1,0,2.22c-.23.88-3.2,3.17-2.86,2.85,1.67-1.63,1.79-2.72,1.82-3.44C87.42,34,79.59,31.11,80,31.22Z"/><path class="cls-15" d="M84.92,33.45a14.34,14.34,0,0,0,2.78,0c.41,0,.55.61.14.65a16.26,16.26,0,0,1-3,0C84.47,34.08,84.5,33.41,84.92,33.45Z"/></g><path class="cls-3" d="M129,72.47c1.9-.41,4.32-1.23,5.45-2.88a6.7,6.7,0,0,1,2.15-2.27c1.54-1,2.79-2.18,2.67-4.21,0-.2.11-.26.24-.35a2.27,2.27,0,0,0,.92-2.62c-.28-1.09-1.24-1.41-2.19-1.63a7.5,7.5,0,0,0-3.12.24,11.17,11.17,0,0,1-5.51.13c-1.15-.34-1.21-.4-.74-1.48,1-2.37-.93-6.19-3.43-6.71a1.15,1.15,0,0,0-1.41.9,19.66,19.66,0,0,0-.5,2.54,5.57,5.57,0,0,1-1.69,3.23,22.73,22.73,0,0,0-2.52,2.84c-.71,1-1.2,2-.57,3.26.17.34-.05.43-.24.58a5.9,5.9,0,0,0-2,3.48c-.43,1.74.54,3.47,2.3,4.57a13.3,13.3,0,0,1,2,1.46C121.64,74.28,126.48,73.27,129,72.47Z"/><path class="cls-4" d="M138.86,62.37a7.82,7.82,0,0,0-2.61-.28c-1.67.14-3,.76-4.73.82-.3,0-.42.24-.43.51s.21.42.49.44c.87,0,1.84-.9,2.68-1.16a11.75,11.75,0,0,1,4.35-.23,1.09,1.09,0,0,1,.7.78v-.14c0-.2.11-.26.24-.35a2.23,2.23,0,0,0,1-2.31,3.45,3.45,0,0,1-.22,1.08C140.11,62.05,139.56,62.69,138.86,62.37Z"/><path class="cls-4" d="M135.26,68.52c-.16.21-.34.46-.55.78A3.72,3.72,0,0,0,135.26,68.52Z"/><path class="cls-4" d="M136.38,67a1.3,1.3,0,0,1-1.12-.37,2.49,2.49,0,0,0-3.21-1.19c-1.33.32-2.52,1.08-3.93,1.09a.44.44,0,0,0-.49.35c0,.28,1,.51,1.33.51.92,0,2.15-1,3-1.35a3.32,3.32,0,0,1,2.16-.39,2.85,2.85,0,0,1,1.38,2.23,1.86,1.86,0,0,1-.22.68,4.65,4.65,0,0,1,1.38-1.2,5,5,0,0,0,2.62-3.27C138.73,65.16,138.44,65.82,136.38,67Z"/><path class="cls-4" d="M139.26,64a1,1,0,0,0,.05-.79,4.14,4.14,0,0,1-.05.8Z"/><path class="cls-4" d="M135.16,58.75l-1.25.23a29.72,29.72,0,0,0,3.23-.55A15.11,15.11,0,0,0,135.16,58.75Z"/><path class="cls-4" d="M131.67,59.18a13,13,0,0,0,2.24-.2C133.27,59.05,132.55,59.12,131.67,59.18Z"/><path class="cls-4" d="M125.92,50.82a1,1,0,0,0-.33-.1l.34.1Z"/><path class="cls-4" d="M125.59,50.72l-.11,0a1.09,1.09,0,0,0-1.13.36A1.51,1.51,0,0,1,125.59,50.72Z"/><path class="cls-4" d="M124.35,51.05a.91.91,0,0,0-.25.45A1.41,1.41,0,0,1,124.35,51.05Z"/><path class="cls-4" d="M120.87,73.6a7.42,7.42,0,0,0,2.93,0c1.63-.25,2.45-.37,3.51-.63.22,0,.64-.15,1.95-.52,1.9-.41,4.32-1.53,5.44-3.18h0A9.77,9.77,0,0,1,131,71.66,30.24,30.24,0,0,1,122.8,73a4.7,4.7,0,0,1-4.35-1.79,4.5,4.5,0,0,1-1.1-2.25,6.12,6.12,0,0,1,2.32-4.23,5.19,5.19,0,0,1,3.9-.74c.31.05,1,.68,1.14.27s-.24-.54-.59-.64a6.27,6.27,0,0,0-4.72.07,3.75,3.75,0,0,1,.93-4.06c.43-.4,1.56-.81,2-1.2a5.63,5.63,0,0,0,1.81-3.54,11,11,0,0,0,0-2.59,1.54,1.54,0,0,1-.07-.77l0,.09a19.66,19.66,0,0,0-.5,2.54,5.57,5.57,0,0,1-1.69,3.23,22.73,22.73,0,0,0-2.52,2.84c-.71,1-1.2,2-.57,3.26.17.34-.05.43-.24.58a5.9,5.9,0,0,0-2,3.48c-.43,1.74.54,3.47,2.3,4.57a16.48,16.48,0,0,1,2,1.51Z"/><path class="cls-4" d="M140.06,59.37a2.77,2.77,0,0,0-1.35-.75A8.2,8.2,0,0,1,140.06,59.37Z"/><path class="cls-4" d="M140.53,60.45a1.15,1.15,0,0,0-.46-1.07h0a1.78,1.78,0,0,1,.41.77A1.88,1.88,0,0,1,140.53,60.45Z"/><path class="cls-4" d="M138.71,58.62a2.59,2.59,0,0,0-1.57-.19h0a4.38,4.38,0,0,1,1.14.08Z"/><path class="cls-4" d="M128,57.93c-.46.9-.88,1.26,0,1.61s2.54-.41,3.65-.36h0a7.11,7.11,0,0,1-2-.3c-1.15-.34-1.21-.4-.74-1.48,1-2.23-.7-5.74-3-6.58C128.08,51.89,130.53,55.7,128,57.93Z"/></g></g></svg>