<svg xmlns="http://www.w3.org/2000/svg" xmlns:xlink="http://www.w3.org/1999/xlink" viewBox="0 0 800 200"><defs><style>.cls-1{isolation:isolate;}.cls-2{fill:#59ccf7;}.cls-3{fill:#fff;}.cls-4{fill:#ac958b;opacity:0.5;mix-blend-mode:multiply;}.cls-5{fill:#acb0be;}.cls-6{fill:#ceced6;}.cls-7{fill:url(#Áåçûìÿííûé_ãðàäèåíò_2);}.cls-8{fill:#bbbbc9;}.cls-9{fill:#32323b;}.cls-10{fill:#d5d7db;}.cls-11{fill:#323333;mix-blend-mode:screen;}.cls-12{fill:#0071bb;}</style><linearGradient id="Áåçûìÿííûé_ãðàäèåíò_2" x1="92.71" y1="179.26" x2="192.87" y2="5.78" gradientUnits="userSpaceOnUse"><stop offset="0.01" stop-color="#8a90a6"/><stop offset="0.4" stop-color="#8a90a6"/><stop offset="0.41" stop-color="#9295a5"/><stop offset="0.42" stop-color="#9698a4"/><stop offset="0.42" stop-color="#a4a6b1"/><stop offset="0.43" stop-color="#cacad2"/><stop offset="0.43" stop-color="#ceced6"/></linearGradient></defs><g class="cls-1"><g id="Слой_2" data-name="Слой 2"><g id="Слой_2-2" data-name="Слой 2"><rect class="cls-2" width="800" height="200"/><path class="cls-3" d="M316.39,76.55H289a.85.85,0,0,0-1,1v36.27a.85.85,0,0,0,1,1h6.73c.59,0,.91-.32.91-1V84.51h12.07v29.27a.85.85,0,0,0,1,1h6.68a.85.85,0,0,0,1-1V77.51A.85.85,0,0,0,316.39,76.55Z"/><path class="cls-3" d="M335.83,86.21a35.05,35.05,0,0,0-11.32,2,1,1,0,0,0-.7,1v34.67a.85.85,0,0,0,1,1h6.3c.59,0,.91-.32.91-1v-9.4a14,14,0,0,0,4.91.9c6.84,0,11.59-4.54,11.59-11.8V98.34C348.49,90.7,343.31,86.22,335.83,86.21Zm4.38,17.58c0,3.1-1.6,4.54-4.48,4.54a7.4,7.4,0,0,1-3.74-.91V94.07a10.92,10.92,0,0,1,3.68-.59c2.89,0,4.54,1.39,4.54,4.7Z"/><path class="cls-3" d="M365.43,86.22c-7.86,0-12.72,4.32-12.72,11.48v6.41c0,7,4.86,11.32,12.72,11.32s12.66-4.27,12.66-11.32V97.7C378.09,90.54,373.23,86.22,365.43,86.22Zm4.38,17.89c0,2.67-1.55,4.11-4.38,4.11s-4.38-1.44-4.38-4.11V97.7c0-2.67,1.55-4.22,4.38-4.22s4.38,1.55,4.38,4.22Z"/><path class="cls-3" d="M417.08,87h-21.9c-.64,0-1,.32-1,.91v25.91a.85.85,0,0,0,1,1h6.3c.59,0,.91-.32.91-1V94.07h7.43v19.71a.85.85,0,0,0,1,1h6.3c.59,0,.91-.32.91-1V87.87A.82.82,0,0,0,417.08,87Z"/><path class="cls-3" d="M435.89,86.22a35.06,35.06,0,0,0-11.33,2,1,1,0,0,0-.69,1v34.67a.85.85,0,0,0,1,1h6.3c.59,0,.91-.32.91-1v-9.4a14,14,0,0,0,4.91.9c6.84,0,11.6-4.54,11.6-11.8V98.34C448.55,90.7,443.36,86.22,435.89,86.22Zm4.38,17.57c0,3.1-1.61,4.54-4.49,4.54a7.45,7.45,0,0,1-3.74-.91V94.07a11,11,0,0,1,3.69-.59c2.88,0,4.54,1.39,4.54,4.7Z"/><path class="cls-3" d="M465.48,86.22c-7.85,0-12.71,4.32-12.71,11.48v6.41c0,7,4.86,11.32,12.71,11.32s12.66-4.27,12.66-11.32V97.7C478.14,90.54,473.28,86.22,465.48,86.22Zm4.38,17.89c0,2.67-1.55,4.11-4.38,4.11s-4.38-1.44-4.38-4.11V97.7c0-2.67,1.55-4.22,4.38-4.22s4.38,1.55,4.38,4.22Z"/><path class="cls-3" d="M501.27,87h-17c-.64,0-1,.32-1,.91V114a.87.87,0,0,0,1,1h6.3a.86.86,0,0,0,.91-1V94.17h9.83c.59,0,.91-.32.91-1V87.87A.82.82,0,0,0,501.27,87Z"/><path class="cls-3" d="M517.88,86.22a35,35,0,0,0-11.32,2,1,1,0,0,0-.7,1v34.67a.85.85,0,0,0,1,1h6.3c.59,0,.91-.32.91-1v-9.4a14,14,0,0,0,4.91.9c6.84,0,11.59-4.54,11.59-11.8V98.34C530.54,90.7,525.36,86.22,517.88,86.22Zm4.38,17.57c0,3.1-1.6,4.54-4.48,4.54a7.4,7.4,0,0,1-3.74-.91V94.07a10.92,10.92,0,0,1,3.68-.59c2.89,0,4.54,1.39,4.54,4.7Z"/><path class="cls-3" d="M546.46,86.22a20.92,20.92,0,0,0-11,2.93c-.38.27-.38.64-.11,1.18l2.19,4.16a.85.85,0,0,0,1.28.32,15.68,15.68,0,0,1,6.68-1.49c3.47,0,4.49,1.55,4.49,4.38v.53a38,38,0,0,0-4.54-.32c-7.27,0-11.65,2.78-11.65,8.34,0,6.3,4.86,9.18,12.56,9.18a40.59,40.59,0,0,0,11-1.54,1,1,0,0,0,.8-1.07V98.18C558.16,90.06,553.83,86.22,546.46,86.22ZM550,108.38a17.89,17.89,0,0,1-3.63.43c-2.57,0-4.28-.91-4.28-2.78,0-1.71,1.28-2.67,4.22-2.67a20.94,20.94,0,0,1,3.69.32Z"/><path class="cls-3" d="M593.9,87H587a1.16,1.16,0,0,0-1.12.7l-3,6.19c-1.33,2.73-2.45,5.08-3.47,7.59h-.21c-1-2.51-2.14-4.86-3.47-7.59l-3-6.19a1.05,1.05,0,0,0-1.07-.7h-6.89c-.64,0-1,.32-1,.91v25.91a.85.85,0,0,0,1,1h6.09c.59,0,.91-.32.91-1v-6.2c0-2.67-.11-6-.27-8.6h.11c.85,2,1.71,4,2.62,6l2.19,4.65a1.15,1.15,0,0,0,1.12.69h3.63a1.15,1.15,0,0,0,1.12-.69l2.19-4.65c.91-2,1.77-4,2.62-6h.11c-.16,2.62-.27,5.93-.27,8.6v6.2c0,.64.32,1,.91,1h6.09a.87.87,0,0,0,1-1V87.87A.86.86,0,0,0,593.9,87Z"/><path class="cls-3" d="M623.86,87h-6.3a.86.86,0,0,0-1,.91v18.38a8.26,8.26,0,0,1-3.47.74c-2.73,0-4.44-1.38-4.44-4.54V87.87a.82.82,0,0,0-.9-.91h-6.31a.86.86,0,0,0-1,.91v14.74c0,7.27,4.92,11.44,11.38,11.44a17.66,17.66,0,0,0,4.86-.75c0,4-1.82,5.18-5,5.18a12.75,12.75,0,0,1-6.47-1.82.83.83,0,0,0-1.22.32l-2.84,4.33a.83.83,0,0,0,.27,1.28c2.89,2.09,6.09,2.94,10.63,2.94,8.76,0,12.66-4.17,12.66-13.46V87.87A.82.82,0,0,0,623.86,87Z"/><path class="cls-4" d="M203,169.86l-28-16.27c-1.71-1-20.34-1.58-22-.6h0a5.21,5.21,0,0,0-1.62.59l-78.1,44.93c-.63.37-1.69,1.26-1.19,1.3,2.15.2,83.16.18,83.16.18L203,172.48A1.39,1.39,0,0,0,203,169.86Z"/><path class="cls-5" d="M181,173.1l-25.86-14.93a7.44,7.44,0,0,1-3.63-7.63l6.05-40.91-14.79,8.54L118.1,170.06a7.19,7.19,0,0,0,2.93,9.22l23.44,13.53a16.86,16.86,0,0,0,16.83,0L181,181.44A4.82,4.82,0,0,0,181,173.1Z"/><path class="cls-6" d="M180.82,178.77l-19.69,11.37a16.79,16.79,0,0,1-16.82,0l-21.74-12.55a5.37,5.37,0,0,1-2.2-6.9l25.35-53.38,14.79-8.54-6,40.91a7.46,7.46,0,0,0,3.63,7.63l22.73,13.12A4.82,4.82,0,0,1,180.82,178.77Z"/><path class="cls-7" d="M203.21,101l-2.62-86.58,2-3L199,9.78h0a3.16,3.16,0,0,0-2.83.39l-110,63.49A9.12,9.12,0,0,0,82,81.09l2.68,88.34.07,2.42c.07,2.19,1,3.64,2.37,4.16l3.56,1.6L93,174.28l104.52-60.35a12.85,12.85,0,0,0,5.81-10.49Z"/><path class="cls-8" d="M85.75,82.75l2.75,90.76c.12,3.88,2.91,5.46,6.23,3.54l106.46-61.46a12.86,12.86,0,0,0,5.8-10.5l-.07-2.41L88.43,171.09,85.75,82.75Z"/><path class="cls-9" d="M199.84,11.82l-110,63.5a9.12,9.12,0,0,0-4.11,7.43l2.68,88.34,118.49-68.41-2.68-88.34c-.08-2.74-2.05-3.87-4.4-2.52Z"/><polygon class="cls-2" points="201.69 14.09 88.2 79.61 90.74 163.29 204.22 97.77 201.69 14.09 201.69 14.09"/><polygon class="cls-5" points="204.07 92.76 90.58 158.28 90.74 163.29 204.22 97.77 204.07 92.76"/><path class="cls-10" d="M180.82,178.77l-19.69,11.37a16.79,16.79,0,0,1-16.82,0l-21.74-12.55,35.52-20.28,22.73,13.12A4.82,4.82,0,0,1,180.82,178.77Z"/><polygon class="cls-11" points="115.43 155.5 160.43 129.51 172.51 27.6 127.51 53.59 115.43 155.5"/><path class="cls-12" d="M142.89,62.59c-12.15,7-22,25.84-22,42.05s9.85,23.65,22,16.63,22-25.84,22-42S155.05,55.58,142.89,62.59Zm0,55.19c-10.7,6.18-19.38-.38-19.38-14.66s8.68-30.86,19.38-37,19.39.38,19.39,14.66S153.6,111.6,142.89,117.78Z"/><path class="cls-12" d="M137.2,80.56c-.75-.15-1.7,1.13-1.7,2.3v28.9c0,1.16.95,1.35,1.7.33L156,86.8c.76-1,.76-2.48,0-2.63Z"/><path class="cls-3" d="M146.29,58.2c-12.15,7-22,25.84-22,42s9.85,23.65,22,16.63,22-25.84,22-42S158.44,51.18,146.29,58.2Zm0,55.18c-10.71,6.19-19.39-.38-19.39-14.65s8.68-30.86,19.39-37,19.39.38,19.39,14.65S157,107.2,146.29,113.38Z"/><path class="cls-3" d="M140.6,76.16c-.76-.14-1.7,1.13-1.7,2.3v28.9c0,1.17.94,1.35,1.7.33L159.37,82.4c.76-1,.76-2.48,0-2.62Z"/></g></g></g></svg>