<svg xmlns="http://www.w3.org/2000/svg" xmlns:xlink="http://www.w3.org/1999/xlink" viewBox="0 0 116.02 149.2"><defs><style>.cls-1{fill:none;}.cls-2{isolation:isolate;}.cls-3{fill:#0c72ba;}.cls-4{clip-path:url(#clip-path);}.cls-5{fill:#323333;opacity:0.2;mix-blend-mode:multiply;}.cls-6{fill:#fff;}</style><clipPath id="clip-path"><polygon class="cls-1" points="113.49 0 0 65.52 2.53 149.2 116.02 83.68 113.49 0 113.49 0"/></clipPath></defs><g class="cls-2"><g id="Слой_2" data-name="Слой 2"><g id="Слой_1-2" data-name="Слой 1"><polygon class="cls-3" points="113.49 0 0 65.52 2.53 149.2 116.02 83.68 113.49 0 113.49 0"/><g class="cls-4"><polygon class="cls-5" points="27.23 141.41 72.23 115.42 84.31 13.51 39.3 39.5 27.23 141.41"/></g><path class="cls-3" d="M55.84,49.88c-7.71,4.45-14,16.39-14,26.67s6.25,15,14,10.56,14-16.4,14-26.68S63.55,45.43,55.84,49.88Zm0,35c-6.79,3.92-12.3-.24-12.3-9.3S49.05,56,55.84,52.09s12.3.25,12.3,9.3S62.63,81,55.84,84.89Z"/><path class="cls-3" d="M52.23,61.28c-.48-.09-1.08.71-1.08,1.45V81.07c0,.74.6.86,1.08.21l11.91-16c.48-.64.48-1.57,0-1.66Z"/><path class="cls-3" d="M26.5,111.36,20.27,115a.43.43,0,0,0-.22.42v11c0,.2.07.25.22.17l1.53-.89a.46.46,0,0,0,.21-.41v-8.89l2.75-1.59v8.89c0,.2.07.25.21.17L26.5,123a.44.44,0,0,0,.21-.42v-11C26.71,111.33,26.64,111.28,26.5,111.36Z"/><path class="cls-3" d="M30.92,111.74a12.72,12.72,0,0,0-2.58,2.11.53.53,0,0,0-.15.4v10.52c0,.2.07.25.22.17l1.43-.83a.46.46,0,0,0,.21-.41v-2.86a2.53,2.53,0,0,0,1.12-.37,5.91,5.91,0,0,0,2.64-5.1v-1.61C33.81,111.44,32.63,110.76,30.92,111.74Zm1,4.76a2.1,2.1,0,0,1-1,2,1.32,1.32,0,0,1-.85.22v-4.06a4,4,0,0,1,.84-.66c.65-.38,1-.18,1,.83Z"/><path class="cls-3" d="M37.66,107.85A5.9,5.9,0,0,0,34.77,113V115c0,2.14,1.1,2.8,2.89,1.76a5.84,5.84,0,0,0,2.88-5.1v-1.94C40.54,107.5,39.44,106.83,37.66,107.85Zm1,4.86a2,2,0,0,1-1,1.82c-.64.38-1,.14-1-.67v-1.94a2.06,2.06,0,0,1,1-1.86c.65-.37,1-.11,1,.7Z"/><path class="cls-3" d="M49.42,101.29l-5,2.88a.42.42,0,0,0-.22.4v7.87c0,.19.07.25.22.16l1.43-.83a.42.42,0,0,0,.21-.41v-6l1.69-1v6c0,.2.07.25.22.17l1.43-.83a.43.43,0,0,0,.21-.41v-7.87C49.63,101.27,49.56,101.21,49.42,101.29Z"/><path class="cls-3" d="M53.71,98.59a12.14,12.14,0,0,0-2.58,2.1.55.55,0,0,0-.16.4v10.53c0,.19.07.25.22.17l1.43-.83a.44.44,0,0,0,.21-.41v-2.86a2.62,2.62,0,0,0,1.12-.37,5.91,5.91,0,0,0,2.64-5.11v-1.6C56.59,98.29,55.41,97.61,53.71,98.59Zm1,4.76a2.1,2.1,0,0,1-1,2,1.24,1.24,0,0,1-.85.21v-4a3.6,3.6,0,0,1,.84-.66c.66-.38,1-.18,1,.83Z"/><path class="cls-3" d="M60.45,94.7a5.9,5.9,0,0,0-2.9,5.16v1.94c0,2.14,1.11,2.8,2.9,1.77a5.87,5.87,0,0,0,2.88-5.1v-2C63.33,94.35,62.22,93.67,60.45,94.7Zm1,4.86a2,2,0,0,1-1,1.82c-.65.37-1,.14-1-.67V98.76a2.06,2.06,0,0,1,1-1.86c.64-.37,1-.1,1,.71Z"/><path class="cls-3" d="M68.6,90.22l-3.89,2.24a.43.43,0,0,0-.21.4v7.93c0,.18.07.25.21.17l1.44-.83a.47.47,0,0,0,.21-.41v-6l2.24-1.29a.45.45,0,0,0,.2-.41V90.38C68.8,90.2,68.73,90.14,68.6,90.22Z"/><path class="cls-3" d="M72.38,87.81a12.14,12.14,0,0,0-2.58,2.1.55.55,0,0,0-.16.4v10.53c0,.19.07.25.22.16l1.44-.82a.45.45,0,0,0,.2-.41V96.91a2.58,2.58,0,0,0,1.12-.37,5.91,5.91,0,0,0,2.64-5.11v-1.6C75.26,87.51,74.08,86.83,72.38,87.81Zm1,4.76a2.1,2.1,0,0,1-1,2,1.23,1.23,0,0,1-.85.21v-4a3.6,3.6,0,0,1,.84-.66c.66-.38,1-.18,1,.83Z"/><path class="cls-3" d="M78.89,84.05a8.24,8.24,0,0,0-2.51,2.34.35.35,0,0,0,0,.37l.49,1c.07.13.19.07.3-.07a5.42,5.42,0,0,1,1.52-1.33c.79-.46,1-.12,1,.74v.16a7.4,7.4,0,0,0-1,.5A4.71,4.71,0,0,0,76,91.8c0,1.91,1.11,2.15,2.86,1.14A13.39,13.39,0,0,0,81.37,91a.6.6,0,0,0,.18-.43V86.15C81.55,83.68,80.56,83.08,78.89,84.05Zm.8,6.27a6.85,6.85,0,0,1-.83.61c-.58.33-1,.28-1-.29a1.59,1.59,0,0,1,1-1.36,4.77,4.77,0,0,1,.84-.39Z"/><path class="cls-3" d="M89.69,78,88.12,79a.57.57,0,0,0-.26.36l-.68,2.27c-.3,1-.56,1.87-.79,2.76l0,0c-.23-.63-.48-1.2-.79-1.85L84.86,81c0-.12-.14-.13-.25-.07l-1.56.91a.42.42,0,0,0-.22.4v7.87c0,.19.07.24.22.16l1.38-.8a.44.44,0,0,0,.21-.41V87.22c0-.81,0-1.8-.06-2.58h0c.2.5.39,1,.6,1.49l.5,1.12c0,.12.14.13.25.06l.83-.48a.57.57,0,0,0,.26-.35l.49-1.7c.21-.74.41-1.45.6-2.18h0c0,.81-.06,1.83-.06,2.64V87.1c0,.2.08.25.21.18l1.39-.8a.48.48,0,0,0,.22-.42V78.19C89.91,78,89.82,78,89.69,78Z"/><path class="cls-3" d="M96.51,74.1l-1.43.83a.44.44,0,0,0-.22.4v5.58a3.12,3.12,0,0,1-.79.69c-.62.35-1,.16-1-.8V76.37c0-.18-.08-.23-.21-.15l-1.44.83a.44.44,0,0,0-.21.4v4.47c0,2.21,1.11,2.83,2.59,2a6,6,0,0,0,1.1-.87,2.24,2.24,0,0,1-1.14,2.24,2,2,0,0,1-1.47.29c-.12,0-.21.08-.28.26l-.65,1.69c-.07.19-.06.33.06.35a2.79,2.79,0,0,0,2.43-.5c2-1.15,2.88-2.93,2.88-5.75V74.26C96.72,74.08,96.65,74,96.51,74.1Z"/><path class="cls-6" d="M27.69,109.82l-6.23,3.6a.43.43,0,0,0-.22.42v11c0,.19.07.25.22.16l1.53-.88a.44.44,0,0,0,.21-.41v-8.89L26,113.24v8.89c0,.2.07.25.22.17l1.52-.88a.47.47,0,0,0,.22-.42V110C27.91,109.79,27.83,109.74,27.69,109.82Z"/><path class="cls-6" d="M32.11,110.2a12.1,12.1,0,0,0-2.57,2.11.52.52,0,0,0-.16.4v10.52c0,.2.07.25.22.17l1.43-.83a.44.44,0,0,0,.21-.41V119.3a2.62,2.62,0,0,0,1.12-.37A5.93,5.93,0,0,0,35,113.82v-1.6C35,109.9,33.82,109.22,32.11,110.2Zm1,4.76a2.1,2.1,0,0,1-1,2,1.32,1.32,0,0,1-.85.22v-4.06a3.41,3.41,0,0,1,.84-.66c.65-.38,1-.18,1,.83Z"/><path class="cls-6" d="M38.85,106.31A5.92,5.92,0,0,0,36,111.47v2c0,2.14,1.11,2.79,2.89,1.76a5.85,5.85,0,0,0,2.89-5.1v-2C41.74,106,40.63,105.29,38.85,106.31Zm1,4.86a2,2,0,0,1-1,1.82c-.64.37-1,.14-1-.67v-1.95a2,2,0,0,1,1-1.85c.65-.38,1-.11,1,.7Z"/><path class="cls-6" d="M50.62,99.75l-5,2.88a.42.42,0,0,0-.22.4v7.86c0,.2.07.25.22.17l1.43-.83a.44.44,0,0,0,.21-.41v-6l1.69-1v6c0,.2.07.25.22.17l1.44-.83a.45.45,0,0,0,.2-.41V99.9C50.82,99.72,50.75,99.67,50.62,99.75Z"/><path class="cls-6" d="M54.9,97.05a11.84,11.84,0,0,0-2.58,2.1.54.54,0,0,0-.16.4v10.53c0,.19.07.25.22.16l1.43-.83A.42.42,0,0,0,54,109v-2.85a2.58,2.58,0,0,0,1.12-.37,5.91,5.91,0,0,0,2.64-5.11V99.06C57.78,96.74,56.6,96.06,54.9,97.05Zm1,4.76a2.1,2.1,0,0,1-1,2A1.24,1.24,0,0,1,54,104v-4a3.93,3.93,0,0,1,.84-.67c.66-.38,1-.17,1,.83Z"/><path class="cls-6" d="M61.64,93.16a5.9,5.9,0,0,0-2.9,5.16v1.94c0,2.14,1.11,2.8,2.9,1.77a5.87,5.87,0,0,0,2.88-5.1V95C64.52,92.81,63.41,92.13,61.64,93.16Zm1,4.85a2,2,0,0,1-1,1.83c-.65.37-1,.14-1-.67v-2a2,2,0,0,1,1-1.86c.64-.37,1-.1,1,.71Z"/><path class="cls-6" d="M69.79,88.68l-3.88,2.24a.42.42,0,0,0-.22.4v7.93c0,.18.07.25.22.17l1.43-.83a.45.45,0,0,0,.21-.41v-6l2.24-1.29a.45.45,0,0,0,.2-.41V88.83C70,88.66,69.92,88.6,69.79,88.68Z"/><path class="cls-6" d="M73.57,86.27A11.84,11.84,0,0,0,71,88.37a.54.54,0,0,0-.16.4V99.3c0,.19.08.25.22.16l1.44-.83a.43.43,0,0,0,.2-.41V95.37A2.72,2.72,0,0,0,73.81,95a5.91,5.91,0,0,0,2.64-5.11V88.28C76.45,86,75.27,85.28,73.57,86.27Zm1,4.76a2.11,2.11,0,0,1-1,2,1.27,1.27,0,0,1-.86.21v-4a3.93,3.93,0,0,1,.84-.67c.66-.38,1-.17,1,.83Z"/><path class="cls-6" d="M80.08,82.51a8.12,8.12,0,0,0-2.51,2.34.35.35,0,0,0,0,.37l.5,1c.06.12.18.07.29-.07a5.62,5.62,0,0,1,1.52-1.34c.79-.45,1-.12,1,.74v.17a7.33,7.33,0,0,0-1,.5,4.71,4.71,0,0,0-2.66,4.06c0,1.91,1.11,2.15,2.86,1.14a13.82,13.82,0,0,0,2.51-1.92.6.6,0,0,0,.18-.43V84.6C82.74,82.14,81.76,81.54,80.08,82.51Zm.8,6.27a5.89,5.89,0,0,1-.83.6c-.58.34-1,.29-1-.28a1.57,1.57,0,0,1,1-1.36,4.77,4.77,0,0,1,.84-.39Z"/><path class="cls-6" d="M90.88,76.5l-1.57.91a.57.57,0,0,0-.26.35L88.37,80c-.3,1-.56,1.86-.79,2.76l0,0c-.23-.63-.48-1.2-.79-1.85l-.69-1.48c0-.13-.13-.13-.24-.07l-1.57.91a.42.42,0,0,0-.22.4V88.6c0,.2.07.25.22.17l1.38-.8a.44.44,0,0,0,.21-.41V85.68c0-.82,0-1.81-.06-2.58h0c.2.5.39,1,.6,1.48l.5,1.13c0,.12.14.12.25.06l.83-.48a.57.57,0,0,0,.26-.36l.5-1.69c.2-.74.4-1.45.59-2.18l0,0c0,.82-.06,1.84-.06,2.65v1.88c0,.2.07.25.2.17l1.39-.8a.45.45,0,0,0,.22-.41V76.65C91.1,76.47,91,76.42,90.88,76.5Z"/><path class="cls-6" d="M97.7,72.56l-1.43.83a.44.44,0,0,0-.22.4v5.58a2.76,2.76,0,0,1-.79.68c-.62.36-1,.17-1-.79V74.83c0-.18-.07-.23-.21-.16l-1.43.83a.45.45,0,0,0-.22.41v4.47c0,2.21,1.12,2.83,2.59,2a6,6,0,0,0,1.1-.87,2.23,2.23,0,0,1-1.14,2.23,2,2,0,0,1-1.47.3c-.12,0-.21.07-.28.26L92.54,86c-.07.19-.06.32.07.35a2.81,2.81,0,0,0,2.42-.5c2-1.16,2.88-2.93,2.88-5.76V72.72C97.91,72.54,97.84,72.48,97.7,72.56Z"/><path class="cls-6" d="M58,47.09c-7.71,4.45-14,16.39-14,26.67s6.25,15,14,10.56,14-16.4,14-26.68S65.7,42.64,58,47.09Zm0,35c-6.8,3.92-12.3-.24-12.3-9.3S51.2,53.23,58,49.31s12.29.24,12.29,9.29S64.79,78.18,58,82.1Z"/><path class="cls-6" d="M54.39,58.49c-.48-.09-1.09.72-1.09,1.46V78.28c0,.74.61.86,1.09.21l11.91-16c.48-.65.48-1.58,0-1.67Z"/></g></g></g></svg>