<svg xmlns="http://www.w3.org/2000/svg" xmlns:xlink="http://www.w3.org/1999/xlink" viewBox="0 0 135.09 209.58"><defs><style>.cls-1{isolation:isolate;}.cls-2{fill:#c0bdb3;opacity:0.5;}.cls-3{fill:#acb0be;}.cls-4{fill:#ceced6;}.cls-5{fill:url(#Áåçûìÿííûé_ãðàäèåíò_2);}.cls-6{fill:#bbbbc9;}.cls-7{fill:#32323b;}.cls-8{fill:#59ccf7;}.cls-9{fill:#d5d7db;}.cls-10{fill:#323333;mix-blend-mode:screen;}.cls-11{fill:#0071bb;}.cls-12{fill:#fff;}</style><linearGradient id="Áåçûìÿííûé_ãðàäèåíò_2" x1="20.8" y1="169.67" x2="120.96" y2="-3.81" gradientUnits="userSpaceOnUse"><stop offset="0.01" stop-color="#8a90a6"/><stop offset="0.4" stop-color="#8a90a6"/><stop offset="0.41" stop-color="#9295a5"/><stop offset="0.42" stop-color="#9698a4"/><stop offset="0.42" stop-color="#a4a6b1"/><stop offset="0.43" stop-color="#cacad2"/><stop offset="0.43" stop-color="#ceced6"/></linearGradient></defs><g class="cls-1"><g id="Слой_2" data-name="Слой 2"><g id="Layer_1" data-name="Layer 1"><path class="cls-2" d="M131.05,160.27,103,144c-1.71-1-20.34-1.58-22-.59h0a5.4,5.4,0,0,0-1.61.58L1.27,188.92c-1.7,1-1.69,2.59,0,3.58l28,16.28a4.08,4.08,0,0,0,1.16.41h0c1.25.73,19.6.3,20.84-.42l79.76-45.9C132.31,162.16,132.3,161,131.05,160.27Z"/><path class="cls-3" d="M109.08,163.51,83.22,148.58A7.46,7.46,0,0,1,79.59,141l6-40.92-14.79,8.54L46.19,160.46a7.18,7.18,0,0,0,2.93,9.22l23.44,13.53a16.81,16.81,0,0,0,16.83,0l19.69-11.37A4.81,4.81,0,0,0,109.08,163.51Z"/><path class="cls-4" d="M108.92,169.18,89.23,180.54a16.81,16.81,0,0,1-16.83,0L50.66,168a5.36,5.36,0,0,1-2.19-6.89l25.34-53.39,14.8-8.53-6.06,40.91a7.43,7.43,0,0,0,3.64,7.62l22.73,13.13A4.82,4.82,0,0,1,108.92,169.18Z"/><path class="cls-5" d="M131.31,91.42,128.69,4.85l2-3L127.06.18h0a3.17,3.17,0,0,0-2.82.39l-110,63.5a9.12,9.12,0,0,0-4.11,7.43l2.67,88.34.08,2.41c.06,2.19,1,3.65,2.37,4.16l3.55,1.6,2.25-3.33,104.52-60.34a12.86,12.86,0,0,0,5.8-10.5Z"/><path class="cls-6" d="M13.84,73.16l2.75,90.75c.12,3.88,2.91,5.47,6.23,3.55L129.28,106a12.87,12.87,0,0,0,5.81-10.5L135,93.08,16.52,161.49,13.84,73.16Z"/><path class="cls-7" d="M127.93,2.23,18,65.73a9.1,9.1,0,0,0-4.11,7.43l2.68,88.33L135,93.08,132.34,4.75c-.09-2.75-2.06-3.88-4.41-2.52Z"/><polygon class="cls-8" points="129.78 4.49 16.3 70.02 18.83 153.69 132.32 88.17 129.78 4.49 129.78 4.49"/><polygon class="cls-3" points="132.17 83.17 18.68 148.69 18.83 153.69 132.32 88.17 132.17 83.17"/><path class="cls-9" d="M108.92,169.18,89.23,180.54a16.81,16.81,0,0,1-16.83,0L50.66,168l35.53-20.28,22.73,13.13A4.82,4.82,0,0,1,108.92,169.18Z"/><polygon class="cls-10" points="43.53 145.9 88.53 119.92 100.6 18.01 55.6 43.99 43.53 145.9"/><path class="cls-11" d="M53.58,84.38,47.35,88a.43.43,0,0,0-.22.42v11c0,.2.07.25.22.17l1.53-.89a.46.46,0,0,0,.21-.41V89.39l2.75-1.59v8.89c0,.2.07.25.21.17L53.58,96a.44.44,0,0,0,.21-.42v-11C53.79,84.35,53.72,84.3,53.58,84.38Z"/><path class="cls-11" d="M58,84.76a12.72,12.72,0,0,0-2.58,2.11.53.53,0,0,0-.15.4V97.79c0,.2.07.25.22.17l1.43-.83a.46.46,0,0,0,.21-.41V93.86a2.49,2.49,0,0,0,1.12-.37,5.91,5.91,0,0,0,2.64-5.1V86.78C60.89,84.46,59.71,83.78,58,84.76Zm1,4.76a2.1,2.1,0,0,1-1,2,1.32,1.32,0,0,1-.85.22V87.65A4,4,0,0,1,58,87c.65-.38,1-.18,1,.83Z"/><path class="cls-11" d="M64.74,80.87A5.9,5.9,0,0,0,61.85,86v2c0,2.14,1.1,2.8,2.89,1.76a5.84,5.84,0,0,0,2.88-5.1V82.7C67.62,80.52,66.52,79.85,64.74,80.87Zm1,4.86a2,2,0,0,1-1,1.82c-.64.38-1,.14-1-.67V84.94a2.06,2.06,0,0,1,1-1.86c.65-.37,1-.11,1,.7Z"/><path class="cls-11" d="M76.5,74.31l-5,2.88a.42.42,0,0,0-.22.4v7.87c0,.19.07.25.22.16L73,84.79a.42.42,0,0,0,.21-.41v-6l1.69-1v6c0,.2.07.25.22.17l1.43-.83a.43.43,0,0,0,.21-.41V74.46C76.71,74.29,76.64,74.23,76.5,74.31Z"/><path class="cls-11" d="M80.79,71.61a12.14,12.14,0,0,0-2.58,2.1.55.55,0,0,0-.16.4V84.64c0,.19.07.25.22.17L79.7,84a.44.44,0,0,0,.21-.41V80.71A2.62,2.62,0,0,0,81,80.34a5.91,5.91,0,0,0,2.64-5.11v-1.6C83.67,71.31,82.49,70.63,80.79,71.61Zm1,4.76a2.1,2.1,0,0,1-1,2,1.24,1.24,0,0,1-.85.21v-4a3.6,3.6,0,0,1,.84-.66c.66-.38,1-.18,1,.83Z"/><path class="cls-11" d="M87.53,67.72a5.9,5.9,0,0,0-2.9,5.16v1.94c0,2.14,1.11,2.8,2.9,1.77a5.87,5.87,0,0,0,2.88-5.1V69.54C90.41,67.37,89.3,66.69,87.53,67.72Zm1,4.86a2,2,0,0,1-1,1.82c-.65.37-1,.14-1-.67v-2a2.06,2.06,0,0,1,1-1.86c.64-.37,1-.1,1,.71Z"/><path class="cls-11" d="M95.68,63.24l-3.89,2.24a.43.43,0,0,0-.21.4v7.93c0,.18.07.25.21.17l1.44-.83a.47.47,0,0,0,.21-.41v-6l2.24-1.29a.45.45,0,0,0,.2-.41V63.4C95.88,63.22,95.81,63.16,95.68,63.24Z"/><path class="cls-11" d="M99.46,60.83a12.14,12.14,0,0,0-2.58,2.1.55.55,0,0,0-.16.4V73.86c0,.19.07.25.22.16l1.44-.82a.45.45,0,0,0,.2-.41V69.93a2.58,2.58,0,0,0,1.12-.37,5.91,5.91,0,0,0,2.64-5.11v-1.6C102.34,60.53,101.16,59.85,99.46,60.83Zm1,4.76a2.1,2.1,0,0,1-1,2,1.23,1.23,0,0,1-.85.21v-4a3.6,3.6,0,0,1,.84-.66c.66-.38,1-.18,1,.83Z"/><path class="cls-11" d="M106,57.07a8.24,8.24,0,0,0-2.51,2.34.35.35,0,0,0,0,.37l.49,1c.07.13.19.07.3-.07a5.42,5.42,0,0,1,1.52-1.33c.79-.46,1-.12,1,.74v.16a7.4,7.4,0,0,0-1,.5,4.71,4.71,0,0,0-2.65,4.06c0,1.91,1.11,2.15,2.86,1.14A13.39,13.39,0,0,0,108.45,64a.6.6,0,0,0,.18-.43V59.17C108.63,56.7,107.64,56.1,106,57.07Zm.8,6.27a6.85,6.85,0,0,1-.83.61c-.58.33-1,.28-1-.29a1.59,1.59,0,0,1,1-1.36,4.77,4.77,0,0,1,.84-.39Z"/><path class="cls-11" d="M116.77,51.06,115.2,52a.57.57,0,0,0-.26.36l-.68,2.27c-.3,1-.56,1.87-.79,2.76l0,0c-.23-.63-.48-1.2-.79-1.85l-.69-1.48c0-.12-.14-.13-.24-.07l-1.57.91a.42.42,0,0,0-.22.4v7.86c0,.2.07.25.22.17l1.38-.8a.44.44,0,0,0,.21-.41V60.24c0-.81,0-1.8-.06-2.58h0c.2.5.39,1,.6,1.49l.5,1.12c0,.12.14.13.25.06l.83-.48a.57.57,0,0,0,.26-.35l.49-1.7c.21-.74.41-1.45.6-2.18h0c0,.81-.07,1.83-.07,2.64v1.88c0,.2.08.25.21.18l1.39-.8a.48.48,0,0,0,.22-.42V51.21C117,51,116.9,51,116.77,51.06Z"/><path class="cls-11" d="M123.59,47.12l-1.43.83a.44.44,0,0,0-.22.4v5.58a3.12,3.12,0,0,1-.79.69c-.62.35-1,.16-1-.8V49.39c0-.18-.08-.23-.21-.15l-1.44.83a.44.44,0,0,0-.21.4v4.47c0,2.21,1.12,2.83,2.59,2a6,6,0,0,0,1.1-.87,2.24,2.24,0,0,1-1.14,2.24,2,2,0,0,1-1.47.29c-.12,0-.21.08-.28.26l-.65,1.69c-.07.19-.06.33.06.35a2.79,2.79,0,0,0,2.43-.5c2-1.15,2.88-2.93,2.88-5.75V47.28C123.8,47.1,123.73,47.05,123.59,47.12Z"/><path class="cls-11" d="M32.53,91.56c-4.26,2.46-7.71,9.06-7.71,14.75s3.45,8.29,7.71,5.83,7.72-9.06,7.72-14.74S36.8,89.1,32.53,91.56Zm0,19.36c-3.75,2.17-6.8-.13-6.8-5.14s3.05-10.83,6.8-13,6.8.13,6.8,5.14S36.29,108.75,32.53,110.92Z"/><path class="cls-11" d="M30.54,97.86c-.27,0-.6.4-.6.81v10.14c0,.41.33.47.6.11l6.58-8.87c.27-.36.27-.87,0-.92Z"/><path class="cls-12" d="M54.77,82.84l-6.23,3.6a.43.43,0,0,0-.22.42v11c0,.19.07.25.22.16l1.53-.88a.44.44,0,0,0,.21-.41V87.85L53,86.26v8.89c0,.2.07.25.22.17l1.52-.88A.47.47,0,0,0,55,94V83C55,82.81,54.91,82.76,54.77,82.84Z"/><path class="cls-12" d="M59.19,83.22a12.1,12.1,0,0,0-2.57,2.11.52.52,0,0,0-.16.4V96.25c0,.2.07.25.22.17l1.43-.83a.44.44,0,0,0,.21-.41V92.32A2.62,2.62,0,0,0,59.44,92a5.93,5.93,0,0,0,2.64-5.11v-1.6C62.08,82.92,60.9,82.24,59.19,83.22Zm1,4.76a2.1,2.1,0,0,1-1,2,1.32,1.32,0,0,1-.85.22V86.11a3.41,3.41,0,0,1,.84-.66c.65-.38,1-.18,1,.83Z"/><path class="cls-12" d="M65.93,79.33A5.92,5.92,0,0,0,63,84.49v2c0,2.14,1.11,2.79,2.89,1.76a5.85,5.85,0,0,0,2.89-5.1V81.15C68.82,79,67.71,78.31,65.93,79.33Zm1,4.86a2,2,0,0,1-1,1.82c-.64.37-1,.14-1-.67v-2a2,2,0,0,1,1-1.85c.65-.38,1-.11,1,.7Z"/><path class="cls-12" d="M77.7,72.77l-5,2.88a.42.42,0,0,0-.22.4v7.86c0,.2.07.25.22.17l1.43-.83a.44.44,0,0,0,.21-.41v-6l1.69-1v6c0,.2.08.25.22.17l1.44-.83a.45.45,0,0,0,.2-.41V72.92C77.9,72.74,77.83,72.69,77.7,72.77Z"/><path class="cls-12" d="M82,70.07a11.84,11.84,0,0,0-2.58,2.1.54.54,0,0,0-.16.4V83.1c0,.19.07.25.22.16l1.43-.83A.42.42,0,0,0,81.1,82V79.17a2.58,2.58,0,0,0,1.12-.37,5.91,5.91,0,0,0,2.64-5.11V72.08C84.86,69.76,83.68,69.08,82,70.07Zm1,4.76a2.1,2.1,0,0,1-1,2,1.23,1.23,0,0,1-.85.21V73a3.93,3.93,0,0,1,.84-.67c.66-.38,1-.17,1,.83Z"/><path class="cls-12" d="M88.72,66.18a5.9,5.9,0,0,0-2.9,5.16v1.94c0,2.14,1.11,2.8,2.9,1.77A5.87,5.87,0,0,0,91.6,70V68C91.6,65.83,90.49,65.15,88.72,66.18Zm1,4.85a2,2,0,0,1-1,1.83c-.65.37-1,.14-1-.67v-2a2,2,0,0,1,1-1.86c.64-.37,1-.1,1,.71Z"/><path class="cls-12" d="M96.87,61.7,93,63.94a.42.42,0,0,0-.22.4v7.93c0,.18.07.25.22.17l1.43-.83a.45.45,0,0,0,.21-.41v-6l2.24-1.29a.45.45,0,0,0,.2-.41V61.85C97.07,61.68,97,61.62,96.87,61.7Z"/><path class="cls-12" d="M100.65,59.29a11.84,11.84,0,0,0-2.58,2.1.54.54,0,0,0-.16.4V72.32c0,.19.08.25.22.16l1.44-.83a.43.43,0,0,0,.2-.41V68.39a2.72,2.72,0,0,0,1.12-.37,5.91,5.91,0,0,0,2.64-5.11V61.3C103.53,59,102.35,58.3,100.65,59.29Zm1,4.76a2.11,2.11,0,0,1-1,2,1.27,1.27,0,0,1-.86.21V62.18a3.93,3.93,0,0,1,.84-.67c.66-.38,1-.17,1,.83Z"/><path class="cls-12" d="M107.16,55.53a8.12,8.12,0,0,0-2.51,2.34.35.35,0,0,0,0,.37l.5,1c.06.12.18.07.29-.07a5.62,5.62,0,0,1,1.52-1.34c.79-.45,1-.12,1,.74v.17a7.33,7.33,0,0,0-1,.5,4.71,4.71,0,0,0-2.66,4.06c0,1.91,1.11,2.15,2.86,1.14a13.82,13.82,0,0,0,2.51-1.92.6.6,0,0,0,.18-.43V57.62C109.82,55.16,108.84,54.56,107.16,55.53Zm.8,6.27a5.89,5.89,0,0,1-.83.6c-.58.34-1,.29-1-.28a1.57,1.57,0,0,1,1-1.36,4.77,4.77,0,0,1,.84-.39Z"/><path class="cls-12" d="M118,49.52l-1.57.91a.57.57,0,0,0-.26.35l-.68,2.28c-.3,1-.56,1.86-.79,2.76l0,0c-.23-.63-.48-1.2-.79-1.85l-.69-1.48c0-.13-.13-.13-.24-.07l-1.57.91a.42.42,0,0,0-.22.4v7.86c0,.2.07.25.22.17l1.38-.8a.44.44,0,0,0,.21-.41V58.7c0-.82,0-1.81-.06-2.58h0c.2.5.39,1,.6,1.48l.5,1.13c0,.12.14.12.25.06l.83-.48a.57.57,0,0,0,.26-.36l.5-1.69c.2-.74.4-1.45.59-2.18l0,0c0,.82-.06,1.84-.06,2.65v1.88c0,.2.07.25.2.17L118,58a.45.45,0,0,0,.22-.41V49.67C118.18,49.49,118.09,49.44,118,49.52Z"/><path class="cls-12" d="M124.78,45.58l-1.43.83a.44.44,0,0,0-.22.4v5.58a2.76,2.76,0,0,1-.79.68c-.62.36-1,.17-1-.79V47.85c0-.18-.07-.23-.21-.16l-1.43.83a.45.45,0,0,0-.22.41V53.4c0,2.21,1.12,2.83,2.59,2a6,6,0,0,0,1.1-.87A2.23,2.23,0,0,1,122,56.74a2,2,0,0,1-1.47.3c-.12,0-.21.07-.28.26L119.63,59c-.08.19-.07.32.06.35a2.81,2.81,0,0,0,2.42-.5c2-1.16,2.88-2.93,2.88-5.76V45.74C125,45.56,124.92,45.5,124.78,45.58Z"/><path class="cls-12" d="M33.72,90C29.46,92.48,26,99.08,26,104.77s3.45,8.29,7.71,5.83,7.72-9.06,7.72-14.75S38,87.56,33.72,90Zm0,19.36c-3.75,2.16-6.8-.14-6.8-5.14s3-10.83,6.8-13,6.8.14,6.8,5.14S37.48,107.21,33.72,109.38Z"/><path class="cls-12" d="M31.73,96.32c-.27,0-.6.4-.6.81v10.13c0,.41.33.48.6.12l6.58-8.87c.27-.36.27-.87,0-.92Z"/></g></g></g></svg>