<svg xmlns="http://www.w3.org/2000/svg" xmlns:xlink="http://www.w3.org/1999/xlink" viewBox="0 0 84.58 53.76"><defs><style>.cls-1{fill:#3fa8df;}.cls-2{fill:#3298d4;}.cls-3{fill:#3d354f;}.cls-4{fill:url(#Безымянный_градиент_5);}.cls-5{fill:#676276;}.cls-6{fill:#4f4860;}.cls-7{fill:#9d742b;}.cls-8{fill:url(#Безымянный_градиент_616);}.cls-9{fill:#056679;}.cls-10{fill:url(#Безымянный_градиент_5-2);}.cls-11{fill:url(#Безымянный_градиент_616-2);}.cls-12{fill:url(#Безымянный_градиент_5-3);}.cls-13{fill:url(#Безымянный_градиент_616-3);}.cls-14{fill:#64c5b7;}.cls-15{fill:url(#Безымянный_градиент_5-4);}.cls-16{fill:url(#Безымянный_градиент_616-4);}.cls-17{fill:#016a93;}.cls-18{fill:url(#Безымянный_градиент_4);}.cls-19{fill:#024648;}.cls-20{fill:url(#Безымянный_градиент_616-5);}.cls-21{fill:url(#Безымянный_градиент_4-2);}.cls-22{fill:url(#Безымянный_градиент_616-6);}.cls-23{fill:#3490b7;}.cls-24{fill:#0c82a8;}</style><linearGradient id="Безымянный_градиент_5" x1="76.46" y1="25.78" x2="76.07" y2="19.24" gradientUnits="userSpaceOnUse"><stop offset="0" stop-color="#d9a446"/><stop offset="0.32" stop-color="#d19f3c"/><stop offset="0.93" stop-color="#c4982d"/></linearGradient><linearGradient id="Безымянный_градиент_616" x1="69.48" y1="25.59" x2="77.62" y2="19.82" gradientUnits="userSpaceOnUse"><stop offset="0" stop-color="#09212b"/><stop offset="0.14" stop-color="#082430"/><stop offset="0.29" stop-color="#042e3e"/><stop offset="0.39" stop-color="#00374a"/><stop offset="0.4" stop-color="#013f58"/><stop offset="0.62" stop-color="#02516e"/><stop offset="0.63" stop-color="#07668b"/><stop offset="0.74" stop-color="#076a91"/><stop offset="0.88" stop-color="#0876a2"/><stop offset="1" stop-color="#0884b6"/></linearGradient><linearGradient id="Безымянный_градиент_5-2" x1="64.4" y1="32.78" x2="64.01" y2="26.24" xlink:href="#Безымянный_градиент_5"/><linearGradient id="Безымянный_градиент_616-2" x1="57.42" y1="32.59" x2="65.56" y2="26.82" xlink:href="#Безымянный_градиент_616"/><linearGradient id="Безымянный_градиент_5-3" x1="52.34" y1="39.78" x2="51.95" y2="33.24" xlink:href="#Безымянный_градиент_5"/><linearGradient id="Безымянный_градиент_616-3" x1="45.36" y1="39.58" x2="53.5" y2="33.81" xlink:href="#Безымянный_градиент_616"/><linearGradient id="Безымянный_градиент_5-4" x1="40.28" y1="46.78" x2="39.89" y2="40.24" xlink:href="#Безымянный_градиент_5"/><linearGradient id="Безымянный_градиент_616-4" x1="33.3" y1="46.58" x2="41.44" y2="40.81" xlink:href="#Безымянный_градиент_616"/><linearGradient id="Безымянный_градиент_4" x1="740.59" y1="39.78" x2="740.2" y2="33.24" gradientTransform="matrix(-1, 0, 0, 1, 748.71, 0)" gradientUnits="userSpaceOnUse"><stop offset="0" stop-color="#7e6126"/><stop offset="0.39" stop-color="#745a23"/><stop offset="0.93" stop-color="#5f4c1e"/></linearGradient><linearGradient id="Безымянный_градиент_616-5" x1="733.62" y1="39.58" x2="741.75" y2="33.81" gradientTransform="matrix(-1, 0, 0, 1, 748.71, 0)" xlink:href="#Безымянный_градиент_616"/><linearGradient id="Безымянный_градиент_4-2" x1="728.53" y1="46.78" x2="728.14" y2="40.24" xlink:href="#Безымянный_градиент_4"/><linearGradient id="Безымянный_градиент_616-6" x1="721.55" y1="46.58" x2="729.69" y2="40.81" gradientTransform="matrix(-1, 0, 0, 1, 748.71, 0)" xlink:href="#Безымянный_градиент_616"/></defs><g id="Слой_2" data-name="Слой 2"><g id="Слой_1-2" data-name="Слой 1"><polygon class="cls-1" points="66.41 18.03 79.47 10.49 84.58 25.23 71.52 32.77 66.41 18.03"/><polygon class="cls-2" points="47.98 7.54 61.04 0 79.47 10.49 66.41 18.03 47.98 7.54"/><path class="cls-3" d="M77.48,20.09h0a1.73,1.73,0,0,1,2.48,1l.35,2.17L73.81,27l.34-2.2A6.53,6.53,0,0,1,77.48,20.09Z"/><path class="cls-4" d="M73.89,25.21A6.12,6.12,0,0,1,77,20.81a1.27,1.27,0,0,1,1.83.72l.3,1.84-5.44,3.12Z"/><path class="cls-5" d="M78.83,21.53a1.29,1.29,0,0,0-1-.85,1.28,1.28,0,0,1,.61.72l.3,1.84-5,2.88-.06.37,5.44-3.12Z"/><path class="cls-6" d="M76.22,21v3.84l.2.1v-4A1.76,1.76,0,0,1,76.22,21Z"/><path class="cls-3" d="M76.42,20.88v4.23l.2-.12V20.76Z"/><path class="cls-7" d="M79.72,21.43A1.86,1.86,0,0,0,77,20.27l-.36.21a1.67,1.67,0,0,1,.18.28l.14-.08a1.62,1.62,0,0,1,2.37,1l.47,1.89.56.34Z"/><path class="cls-8" d="M77.26,18.05c-.78-.84-1.71-1.66-2.63-1.23l0,0a5.35,5.35,0,0,0-2,2.22,5.27,5.27,0,0,0-.5,1.56l-.35,2.21.28.68,1.71,4.23,1.38-5.61,2.1-1.84L78.39,20l1.36.49Z"/><path class="cls-9" d="M80.34,23.92l.42-.24-.63-2.48A1.85,1.85,0,0,0,77.4,20l-.53.3a5.41,5.41,0,0,0-2.62,3.83l-.56,3.57.42-.24.51-3.31a5.08,5.08,0,0,1,2.48-3.6l.25-.14a1.61,1.61,0,0,1,2.37,1Z"/><polygon class="cls-1" points="54.35 25.03 67.41 17.49 72.52 32.23 59.46 39.77 54.35 25.03"/><polygon class="cls-2" points="35.92 14.54 48.98 7 67.41 17.49 54.35 25.03 35.92 14.54"/><path class="cls-3" d="M65.42,27.09h0a1.72,1.72,0,0,1,2.47,1l.36,2.17L61.74,34l.35-2.2A6.49,6.49,0,0,1,65.42,27.09Z"/><path class="cls-10" d="M61.83,32.21a6.11,6.11,0,0,1,3.1-4.4,1.36,1.36,0,0,1,.62-.16,1.3,1.3,0,0,1,1.22.88l.3,1.84-5.44,3.12Z"/><path class="cls-5" d="M66.77,28.53a1.3,1.3,0,0,0-1-.85,1.28,1.28,0,0,1,.61.72l.3,1.84-5,2.88-.06.37,5.44-3.12Z"/><path class="cls-6" d="M64.15,28v3.84l.21.1v-4Z"/><path class="cls-3" d="M64.36,27.88v4.23l.2-.12V27.76Z"/><path class="cls-7" d="M67.66,28.43a1.86,1.86,0,0,0-2.74-1.16l-.36.21a1.67,1.67,0,0,1,.18.28l.13-.08a1.62,1.62,0,0,1,2.38,1l.47,1.88.56.35Z"/><path class="cls-11" d="M65.2,25c-.78-.83-1.71-1.65-2.63-1.22l0,0a5.28,5.28,0,0,0-2,2.22,5,5,0,0,0-.5,1.56l-.35,2.21.28.68,1.71,4.23L63,29.12l2.1-1.83L66.33,27l1.36.49Z"/><path class="cls-9" d="M68.28,30.92l.41-.24-.62-2.48A1.85,1.85,0,0,0,65.34,27l-.53.3a5.38,5.38,0,0,0-2.62,3.82l-.56,3.58L62,34.5l.52-3.31A5.1,5.1,0,0,1,65,27.59l.26-.15a1.62,1.62,0,0,1,2.37,1Z"/><polygon class="cls-1" points="42.29 32.02 55.35 24.49 60.46 39.23 47.4 46.77 42.29 32.02"/><polygon class="cls-2" points="23.86 21.54 36.92 14 55.35 24.49 42.29 32.02 23.86 21.54"/><path class="cls-3" d="M53.36,34.09h0a1.72,1.72,0,0,1,2.47,1l.36,2.18L49.68,41,50,38.81A6.49,6.49,0,0,1,53.36,34.09Z"/><path class="cls-12" d="M49.77,39.21a6.11,6.11,0,0,1,3.1-4.4,1.32,1.32,0,0,1,.61-.16,1.27,1.27,0,0,1,1.22.88L55,37.37l-5.44,3.12Z"/><path class="cls-5" d="M54.7,35.53a1.26,1.26,0,0,0-1-.85,1.28,1.28,0,0,1,.61.72l.3,1.84-5,2.87-.06.38L55,37.37Z"/><path class="cls-6" d="M52.09,35v3.84l.21.1v-4Z"/><path class="cls-3" d="M52.3,34.87v4.24l.2-.12V34.76Z"/><path class="cls-7" d="M55.6,35.43a1.86,1.86,0,0,0-2.74-1.16l-.36.21a1.67,1.67,0,0,1,.18.28l.13-.08a1.62,1.62,0,0,1,2.38,1l.47,1.88.56.35Z"/><path class="cls-13" d="M53.13,32c-.77-.83-1.7-1.65-2.62-1.22l0,0a5.31,5.31,0,0,0-2.55,3.78l-.35,2.21.27.67,1.72,4.24L51,36.12l2.1-1.83L54.27,34l1.35.49Z"/><path class="cls-9" d="M56.22,37.92l.41-.24L56,35.19A1.86,1.86,0,0,0,53.27,34l-.52.3a5.36,5.36,0,0,0-2.62,3.82l-.56,3.58L50,41.5l.52-3.31A5.1,5.1,0,0,1,53,34.59l.26-.15a1.62,1.62,0,0,1,2.37,1Z"/><polygon class="cls-1" points="30.23 39.02 43.29 31.49 48.4 46.23 35.34 53.77 30.23 39.02"/><polygon class="cls-14" points="11.8 28.53 24.86 21 43.29 31.49 30.23 39.02 11.8 28.53"/><path class="cls-3" d="M41.3,41.09h0a1.72,1.72,0,0,1,2.47,1l.36,2.18L37.62,48,38,45.81A6.49,6.49,0,0,1,41.3,41.09Z"/><path class="cls-15" d="M37.71,46.21a6.11,6.11,0,0,1,3.1-4.4,1.21,1.21,0,0,1,.61-.16,1.27,1.27,0,0,1,1.22.88l.3,1.84-5.43,3.12Z"/><path class="cls-5" d="M42.64,42.53a1.25,1.25,0,0,0-1-.85,1.28,1.28,0,0,1,.61.72l.3,1.84-5,2.87-.06.38,5.43-3.12Z"/><path class="cls-6" d="M40,42V45.8l.21.11v-4Z"/><path class="cls-3" d="M40.24,41.87V46.1l.2-.11V41.76Z"/><path class="cls-7" d="M43.54,42.43a1.86,1.86,0,0,0-2.74-1.16l-.36.21a1.67,1.67,0,0,1,.18.28l.13-.08a1.61,1.61,0,0,1,2.38,1l.47,1.88.56.35Z"/><path class="cls-16" d="M41.07,39c-.77-.84-1.7-1.65-2.62-1.22l0,0a5.31,5.31,0,0,0-2.55,3.78l-.35,2.21.27.67,1.72,4.24,1.38-5.62L41,41.28,42.21,41l1.35.49Z"/><path class="cls-9" d="M44.16,44.92l.41-.24L44,42.19A1.86,1.86,0,0,0,41.21,41l-.52.31a5.36,5.36,0,0,0-2.62,3.82l-.56,3.58.41-.24.52-3.31a5.08,5.08,0,0,1,2.47-3.6l.26-.15a1.62,1.62,0,0,1,2.37,1Z"/><polygon class="cls-17" points="18.17 32.02 7.52 26.07 0 39.23 13.06 46.77 18.17 32.02"/><polygon class="cls-2" points="36.6 21.54 27.54 16.31 19.96 16.04 7.36 23.21 7.52 26.07 18.17 32.02 36.6 21.54"/><path class="cls-3" d="M7.1,34.09h0a1.73,1.73,0,0,0-2.48,1l-.35,2.18L10.77,41l-.34-2.19A6.54,6.54,0,0,0,7.1,34.09Z"/><path class="cls-18" d="M10.69,39.21a6.1,6.1,0,0,0-3.11-4.4,1.27,1.27,0,0,0-1.83.72l-.3,1.84,5.44,3.12Z"/><path class="cls-5" d="M5.75,35.53a1.27,1.27,0,0,1,1-.85,1.31,1.31,0,0,0-.6.72l-.3,1.84,5,2.87.06.38L5.45,37.37Z"/><path class="cls-6" d="M8.36,35v3.84l-.2.1v-4Z"/><path class="cls-3" d="M8.16,34.87v4.24L8,39V34.76Z"/><path class="cls-19" d="M4.86,35.43A1.86,1.86,0,0,1,7.6,34.27l.36.21a1.67,1.67,0,0,0-.18.28l-.14-.08a1.61,1.61,0,0,0-2.37,1L4.8,37.57l-.56.35Z"/><path class="cls-20" d="M7.32,32C8.09,31.21,9,30.39,10,30.82l0,0a5.35,5.35,0,0,1,2,2.22,5.27,5.27,0,0,1,.5,1.56l.35,2.21-.28.67-1.71,4.24L9.51,36.12,7.4,34.29,6.19,34l-1.36.49Z"/><path class="cls-9" d="M4.24,37.92l-.42-.24.62-2.49A1.86,1.86,0,0,1,7.18,34l.53.3a5.39,5.39,0,0,1,2.62,3.82l.56,3.58-.42-.24L10,38.19a5,5,0,0,0-2.47-3.6l-.25-.15a1.63,1.63,0,0,0-2.38,1Z"/><polygon class="cls-17" points="30.23 39.02 17.17 31.49 12.06 46.23 25.12 53.77 30.23 39.02"/><polygon class="cls-2" points="48.5 28.44 35.6 21 17.17 31.49 30.23 39.02 48.5 28.44"/><path class="cls-3" d="M19.16,41.09h0a1.73,1.73,0,0,0-2.48,1l-.35,2.18L22.83,48l-.34-2.19A6.51,6.51,0,0,0,19.16,41.09Z"/><path class="cls-21" d="M22.75,46.21a6.1,6.1,0,0,0-3.11-4.4,1.18,1.18,0,0,0-.61-.16,1.29,1.29,0,0,0-1.22.88l-.3,1.84L23,47.49Z"/><path class="cls-5" d="M17.81,42.53a1.27,1.27,0,0,1,1-.85,1.28,1.28,0,0,0-.61.72l-.3,1.84,5,2.87.06.38-5.44-3.12Z"/><path class="cls-6" d="M20.42,42V45.8l-.2.11v-4Z"/><path class="cls-3" d="M20.22,41.87V46.1L20,46V41.76Z"/><path class="cls-19" d="M16.92,42.43a1.86,1.86,0,0,1,2.74-1.16l.36.21a1.67,1.67,0,0,0-.18.28l-.14-.08a1.61,1.61,0,0,0-2.37,1l-.47,1.88-.56.35Z"/><path class="cls-22" d="M19.38,39c.78-.84,1.71-1.65,2.63-1.22l0,0a5.35,5.35,0,0,1,2.05,2.22,5.27,5.27,0,0,1,.5,1.56l.35,2.21-.28.67L23,48.74l-1.38-5.62-2.1-1.84L18.25,41l-1.36.49Z"/><path class="cls-9" d="M16.3,44.92l-.42-.24.63-2.49A1.85,1.85,0,0,1,19.24,41l.53.31a5.39,5.39,0,0,1,2.62,3.82L23,48.74l-.42-.24L22,45.19a5.06,5.06,0,0,0-2.48-3.6l-.25-.15a1.62,1.62,0,0,0-2.37,1Z"/><polygon class="cls-23" points="35.34 53.77 25.12 53.77 30.23 39.02 35.34 53.77"/><polygon class="cls-24" points="7.36 23.21 0 34.87 0 39.23 7.52 26.07 7.36 23.21"/></g></g></svg>