<svg xmlns="http://www.w3.org/2000/svg" xmlns:xlink="http://www.w3.org/1999/xlink" viewBox="0 0 153.22 119.93"><defs><style>.cls-1{fill:#42829e;}.cls-2{fill:#608ea7;}.cls-3{fill:#90e1ea;}.cls-4{fill:#1b242c;}.cls-5{fill:url(#Безымянный_градиент_8);}.cls-6{fill:#283f41;}.cls-7{fill:url(#Безымянный_градиент_8-2);}.cls-8{fill:#5eaac3;}.cls-9{fill:#3e5c64;}.cls-10{fill:url(#Безымянный_градиент_6);}.cls-11{fill:url(#Безымянный_градиент_6-2);}.cls-12{fill:url(#Безымянный_градиент_6-3);}.cls-13{fill:url(#Безымянный_градиент_6-4);}.cls-14{fill:url(#Безымянный_градиент_6-5);}.cls-15{fill:url(#Безымянный_градиент_6-6);}.cls-16{fill:url(#Безымянный_градиент_6-7);}.cls-17{fill:url(#Безымянный_градиент_6-8);}.cls-18{fill:url(#Безымянный_градиент_6-9);}.cls-19{fill:url(#Безымянный_градиент_6-10);}.cls-20{fill:url(#Безымянный_градиент_6-11);}.cls-21{fill:url(#Безымянный_градиент_6-12);}.cls-22{fill:url(#Безымянный_градиент_6-13);}.cls-23{fill:url(#Безымянный_градиент_8-3);}.cls-24{fill:url(#Безымянный_градиент_8-4);}</style><linearGradient id="Безымянный_градиент_8" x1="428.9" y1="107.03" x2="428.9" y2="81.25" gradientTransform="matrix(-1, 0, 0, 1, 435.25, 0)" gradientUnits="userSpaceOnUse"><stop offset="0" stop-color="#a9e3ff"/><stop offset="0.36" stop-color="#b5ebff"/><stop offset="0.93" stop-color="#c4f5ff"/></linearGradient><linearGradient id="Безымянный_градиент_8-2" x1="428.9" y1="76.22" x2="428.9" y2="55.89" xlink:href="#Безымянный_градиент_8"/><linearGradient id="Безымянный_градиент_6" x1="218.99" y1="79.52" x2="218.99" y2="53.74" gradientTransform="translate(-104.82)" gradientUnits="userSpaceOnUse"><stop offset="0" stop-color="#36ddf7"/><stop offset="0.26" stop-color="#40dff8"/><stop offset="0.71" stop-color="#5ae3f9"/><stop offset="0.93" stop-color="#6ae6fa"/></linearGradient><linearGradient id="Безымянный_градиент_6-2" x1="218.99" y1="48.71" x2="218.99" y2="28.38" xlink:href="#Безымянный_градиент_6"/><linearGradient id="Безымянный_градиент_6-3" x1="233.85" y1="70.94" x2="233.85" y2="45.16" xlink:href="#Безымянный_градиент_6"/><linearGradient id="Безымянный_градиент_6-4" x1="233.85" y1="40.13" x2="233.85" y2="19.8" xlink:href="#Безымянный_градиент_6"/><linearGradient id="Безымянный_градиент_6-5" x1="146.92" y1="113.96" x2="146.92" y2="88.18" xlink:href="#Безымянный_градиент_6"/><linearGradient id="Безымянный_градиент_6-6" x1="146.92" y1="83.15" x2="146.92" y2="62.82" xlink:href="#Безымянный_градиент_6"/><linearGradient id="Безымянный_градиент_6-7" x1="251.7" y1="53.64" x2="251.7" y2="27.86" xlink:href="#Безымянный_градиент_6"/><linearGradient id="Безымянный_градиент_6-8" x1="251.7" y1="22.83" x2="251.7" y2="2.5" xlink:href="#Безымянный_градиент_6"/><linearGradient id="Безымянный_градиент_6-9" x1="169.55" y1="108.04" x2="169.55" y2="82.26" xlink:href="#Безымянный_градиент_6"/><linearGradient id="Безымянный_градиент_6-10" x1="169.55" y1="77.23" x2="169.55" y2="56.91" xlink:href="#Безымянный_градиент_6"/><linearGradient id="Безымянный_градиент_6-11" x1="184.41" y1="99.46" x2="184.41" y2="73.68" xlink:href="#Безымянный_градиент_6"/><linearGradient id="Безымянный_градиент_6-12" x1="184.41" y1="68.65" x2="184.41" y2="48.33" xlink:href="#Безымянный_градиент_6"/><linearGradient id="Безымянный_градиент_6-13" x1="201.77" y1="58.7" x2="201.77" y2="38.37" xlink:href="#Безымянный_градиент_6"/><linearGradient id="Безымянный_градиент_8-3" x1="412.28" y1="116.62" x2="412.28" y2="90.84" xlink:href="#Безымянный_градиент_8"/><linearGradient id="Безымянный_градиент_8-4" x1="412.28" y1="85.81" x2="412.28" y2="65.48" xlink:href="#Безымянный_градиент_8"/></defs><g id="Слой_2" data-name="Слой 2"><g id="Layer_1" data-name="Layer 1"><polygon class="cls-1" points="11.79 110.34 0 103.53 0 78.56 11.79 85.36 11.79 110.34"/><polygon class="cls-2" points="0.61 78.91 0.61 103.05 0 103.53 0 78.56 0.61 78.91"/><polygon class="cls-3" points="0.61 103.05 0 103.53 11.79 110.34 11.79 109.51 0.61 103.05"/><polygon class="cls-1" points="11.79 79.16 0 72.36 0 53.39 11.79 60.2 11.79 79.16"/><polygon class="cls-2" points="0.61 53.74 0.61 71.88 0 72.36 0 53.39 0.61 53.74"/><polygon class="cls-3" points="0.98 102.44 11.19 108.34 11.19 107.69 0.98 81.58 0.98 102.44"/><polygon class="cls-4" points="1.52 102.11 11.19 107.69 11.19 86.24 1.52 80.66 1.52 102.11"/><polygon class="cls-5" points="1.92 81.25 1.92 101.94 10.76 107.03 10.76 86.33 1.92 81.25"/><polygon class="cls-6" points="2.43 81.54 2.43 101.67 10.76 106.46 10.76 107.03 1.92 101.94 1.92 81.24 2.43 81.54"/><polygon class="cls-4" points="1.92 88.37 1.92 89.33 10.76 94.42 10.76 93.45 1.92 88.37"/><polygon class="cls-2" points="0.98 102.44 1.52 102.11 1.52 80.66 0.98 80.35 0.98 102.44"/><polygon class="cls-3" points="0.61 71.88 0 72.36 11.79 79.16 11.79 78.34 0.61 71.88"/><polygon class="cls-4" points="3.49 103.03 4.14 103.41 4.14 82.52 3.49 82.15 3.49 103.03"/><polygon class="cls-4" points="8.83 105.98 9.48 106.36 9.48 85.47 8.83 85.1 8.83 105.98"/><polygon class="cls-4" points="7.21 105.13 7.49 105.28 7.49 84.26 7.21 84.1 7.21 105.13"/><polygon class="cls-4" points="5.44 104.17 5.72 104.32 5.72 83.3 5.44 83.14 5.44 104.17"/><polygon class="cls-4" points="1.92 97.08 1.92 97.35 10.76 102.44 10.76 102.16 1.92 97.08"/><polygon class="cls-4" points="1.92 93.45 1.92 93.72 10.76 98.81 10.76 98.53 1.92 93.45"/><polygon class="cls-4" points="1.92 85.1 1.92 85.38 10.76 90.46 10.76 90.18 1.92 85.1"/><polygon class="cls-3" points="0.98 71.63 11.19 77.53 11.19 76.88 0.98 56.22 0.98 71.63"/><polygon class="cls-4" points="1.52 71.3 11.19 76.88 11.19 60.88 1.52 55.31 1.52 71.3"/><polygon class="cls-7" points="1.92 55.89 1.92 71.13 10.76 76.22 10.76 60.97 1.92 55.89"/><polygon class="cls-6" points="2.43 56.18 2.43 70.86 10.76 75.65 10.76 76.22 1.92 71.13 1.92 55.89 2.43 56.18"/><polygon class="cls-2" points="0.98 71.63 1.52 71.3 1.52 55.31 0.98 54.99 0.98 71.63"/><polygon class="cls-4" points="3.49 72.22 4.14 72.6 4.14 57.17 3.49 56.79 3.49 72.22"/><polygon class="cls-4" points="8.83 75.17 9.48 75.55 9.48 60.12 8.83 59.74 8.83 75.17"/><polygon class="cls-4" points="7.21 74.31 7.49 74.47 7.49 58.9 7.21 58.74 7.21 74.31"/><polygon class="cls-4" points="5.44 73.36 5.72 73.52 5.72 57.94 5.44 57.78 5.44 73.36"/><polygon class="cls-4" points="1.92 66.27 1.92 66.54 10.76 71.63 10.76 71.35 1.92 66.27"/><polygon class="cls-4" points="1.92 62.64 1.92 62.91 10.76 68 10.76 67.72 1.92 62.64"/><polygon class="cls-4" points="1.92 59.74 1.92 60.02 10.76 65.11 10.76 64.83 1.92 59.74"/><polygon class="cls-1" points="108.72 82.83 120.51 76.02 120.51 51.05 108.72 57.85 108.72 82.83"/><polygon class="cls-2" points="119.91 51.4 119.91 75.55 120.51 76.02 120.51 51.05 119.91 51.4"/><polygon class="cls-3" points="119.91 75.55 120.51 76.02 108.72 82.83 108.72 82 119.91 75.55"/><polygon class="cls-8" points="108.72 51.66 120.51 44.85 120.51 25.88 108.72 32.69 108.72 51.66"/><polygon class="cls-2" points="119.91 26.23 119.91 44.37 120.51 44.85 120.51 25.88 119.91 26.23"/><polygon class="cls-3" points="119.54 74.93 109.33 80.83 109.33 80.18 119.54 54.07 119.54 74.93"/><polygon class="cls-9" points="118.99 74.6 109.33 80.18 109.33 58.73 118.99 53.16 118.99 74.6"/><polygon class="cls-10" points="118.59 53.74 118.59 74.43 109.75 79.52 109.75 58.82 118.59 53.74"/><polygon class="cls-6" points="118.08 54.03 118.08 74.16 109.75 78.95 109.75 79.52 118.59 74.43 118.59 53.74 118.08 54.03"/><polygon class="cls-9" points="118.59 60.86 118.59 61.82 109.75 66.91 109.75 65.94 118.59 60.86"/><polygon class="cls-2" points="119.54 74.93 118.99 74.6 118.99 53.16 119.54 52.84 119.54 74.93"/><polygon class="cls-3" points="119.91 44.37 120.51 44.85 108.72 51.66 108.72 50.83 119.91 44.37"/><polygon class="cls-9" points="117.02 75.53 116.38 75.9 116.38 55.02 117.02 54.64 117.02 75.53"/><polygon class="cls-9" points="111.68 78.48 111.04 78.85 111.04 57.97 111.68 57.59 111.68 78.48"/><polygon class="cls-9" points="113.3 77.62 113.03 77.78 113.03 56.75 113.3 56.59 113.3 77.62"/><polygon class="cls-9" points="115.07 76.66 114.79 76.82 114.79 55.79 115.07 55.63 115.07 76.66"/><polygon class="cls-9" points="118.59 69.57 118.59 69.84 109.75 74.93 109.75 74.65 118.59 69.57"/><polygon class="cls-9" points="118.59 65.94 118.59 66.21 109.75 71.3 109.75 71.02 118.59 65.94"/><polygon class="cls-9" points="118.59 57.59 118.59 57.87 109.75 62.96 109.75 62.67 118.59 57.59"/><polygon class="cls-3" points="119.54 44.12 109.33 50.02 109.33 49.37 119.54 28.71 119.54 44.12"/><polygon class="cls-9" points="118.99 43.79 109.33 49.37 109.33 33.38 118.99 27.8 118.99 43.79"/><polygon class="cls-11" points="118.59 28.38 118.59 43.62 109.75 48.71 109.75 33.46 118.59 28.38"/><polygon class="cls-6" points="118.08 28.68 118.08 43.35 109.75 48.14 109.75 48.71 118.59 43.62 118.59 28.38 118.08 28.68"/><polygon class="cls-2" points="119.54 44.12 118.99 43.79 118.99 27.8 119.54 27.48 119.54 44.12"/><polygon class="cls-9" points="117.02 44.72 116.38 45.09 116.38 29.66 117.02 29.29 117.02 44.72"/><polygon class="cls-9" points="111.68 47.67 111.04 48.04 111.04 32.61 111.68 32.23 111.68 47.67"/><polygon class="cls-9" points="113.3 46.81 113.03 46.97 113.03 31.4 113.3 31.24 113.3 46.81"/><polygon class="cls-9" points="115.07 45.85 114.79 46.01 114.79 30.44 115.07 30.28 115.07 45.85"/><polygon class="cls-9" points="118.59 38.76 118.59 39.03 109.75 44.12 109.75 43.84 118.59 38.76"/><polygon class="cls-9" points="118.59 35.13 118.59 35.4 109.75 40.49 109.75 40.21 118.59 35.13"/><polygon class="cls-9" points="109.75 37.32 109.75 37.6 118.59 32.51 118.59 32.23 109.75 37.32"/><polygon class="cls-1" points="123.58 74.25 135.37 67.44 135.37 42.47 123.58 49.28 123.58 74.25"/><polygon class="cls-2" points="134.76 42.82 134.76 66.97 135.37 67.44 135.37 42.47 134.76 42.82"/><polygon class="cls-3" points="134.76 66.97 135.37 67.44 123.58 74.25 123.58 73.42 134.76 66.97"/><polygon class="cls-1" points="123.58 43.08 135.37 36.27 135.37 17.3 123.58 24.11 123.58 43.08"/><polygon class="cls-2" points="134.76 17.66 134.76 35.8 135.37 36.27 135.37 17.3 134.76 17.66"/><polygon class="cls-3" points="134.39 66.36 124.19 72.25 124.19 71.6 134.39 45.49 134.39 66.36"/><polygon class="cls-9" points="133.84 66.03 124.19 71.6 124.19 50.15 133.84 44.58 133.84 66.03"/><polygon class="cls-12" points="133.45 45.16 133.45 65.85 124.61 70.94 124.61 50.24 133.45 45.16"/><polygon class="cls-6" points="132.94 45.45 132.94 65.58 124.61 70.37 124.61 70.94 133.45 65.85 133.45 45.16 132.94 45.45"/><polygon class="cls-9" points="133.45 52.28 133.45 53.25 124.61 58.34 124.61 57.36 133.45 52.28"/><polygon class="cls-2" points="134.39 66.36 133.84 66.03 133.84 44.58 134.39 44.26 134.39 66.36"/><polygon class="cls-3" points="134.76 35.8 135.37 36.27 123.58 43.08 123.58 42.25 134.76 35.8"/><polygon class="cls-9" points="131.88 66.95 131.23 67.32 131.23 46.44 131.88 46.06 131.88 66.95"/><polygon class="cls-9" points="126.54 69.9 125.89 70.27 125.89 49.39 126.54 49.01 126.54 69.9"/><polygon class="cls-9" points="128.16 69.04 127.88 69.2 127.88 48.17 128.16 48.02 128.16 69.04"/><polygon class="cls-9" points="129.93 68.08 129.65 68.24 129.65 47.22 129.93 47.06 129.93 68.08"/><polygon class="cls-9" points="133.45 60.99 133.45 61.27 124.61 66.36 124.61 66.07 133.45 60.99"/><polygon class="cls-9" points="133.45 57.36 133.45 57.63 124.61 62.72 124.61 62.44 133.45 57.36"/><polygon class="cls-9" points="133.45 49.01 133.45 49.29 124.61 54.38 124.61 54.1 133.45 49.01"/><polygon class="cls-3" points="134.39 35.55 124.19 41.44 124.19 40.79 134.39 20.14 134.39 35.55"/><polygon class="cls-9" points="133.84 35.22 124.19 40.79 124.19 24.8 133.84 19.22 133.84 35.22"/><polygon class="cls-13" points="133.45 19.8 133.45 35.04 124.61 40.13 124.61 24.89 133.45 19.8"/><polygon class="cls-6" points="132.94 20.1 132.94 34.77 124.61 39.56 124.61 40.13 133.45 35.04 133.45 19.8 132.94 20.1"/><polygon class="cls-2" points="134.39 35.55 133.84 35.22 133.84 19.22 134.39 18.9 134.39 35.55"/><polygon class="cls-9" points="131.88 36.14 131.23 36.51 131.23 21.08 131.88 20.71 131.88 36.14"/><polygon class="cls-9" points="126.54 39.09 125.89 39.46 125.89 24.03 126.54 23.66 126.54 39.09"/><polygon class="cls-9" points="128.16 38.23 127.88 38.39 127.88 22.82 128.16 22.66 128.16 38.23"/><polygon class="cls-9" points="129.93 37.27 129.65 37.43 129.65 21.86 129.93 21.7 129.93 37.27"/><polygon class="cls-9" points="133.45 30.18 133.45 30.46 124.61 35.55 124.61 35.26 133.45 30.18"/><polygon class="cls-9" points="133.45 26.55 133.45 26.82 124.61 31.91 124.61 31.63 133.45 26.55"/><polygon class="cls-9" points="124.61 28.74 124.61 29.02 133.45 23.93 133.45 23.66 124.61 28.74"/><polygon class="cls-8" points="36.66 117.27 48.44 110.47 48.44 85.49 36.66 92.3 36.66 117.27"/><polygon class="cls-2" points="47.84 85.84 47.84 109.99 48.44 110.47 48.44 85.49 47.84 85.84"/><polygon class="cls-3" points="47.84 109.99 48.44 110.47 36.66 117.27 36.66 116.44 47.84 109.99"/><polygon class="cls-8" points="36.66 86.1 48.44 79.29 48.44 60.33 36.66 67.13 36.66 86.1"/><polygon class="cls-2" points="47.84 60.68 47.84 78.81 48.44 79.29 48.44 60.33 47.84 60.68"/><polygon class="cls-3" points="47.47 109.38 37.26 115.27 37.26 114.62 47.47 88.51 47.47 109.38"/><polygon class="cls-9" points="46.92 109.05 37.26 114.62 37.26 93.17 46.92 87.6 46.92 109.05"/><polygon class="cls-14" points="46.52 88.18 46.52 108.87 37.68 113.96 37.68 93.26 46.52 88.18"/><polygon class="cls-6" points="46.01 88.47 46.01 108.6 37.68 113.39 37.68 113.96 46.52 108.87 46.52 88.18 46.01 88.47"/><polygon class="cls-9" points="46.52 95.3 46.52 96.27 37.68 101.36 37.68 100.38 46.52 95.3"/><polygon class="cls-2" points="47.47 109.38 46.92 109.05 46.92 87.6 47.47 87.28 47.47 109.38"/><polygon class="cls-3" points="47.84 78.81 48.44 79.29 36.66 86.1 36.66 85.27 47.84 78.81"/><polygon class="cls-9" points="44.95 109.97 44.3 110.34 44.3 89.46 44.95 89.08 44.95 109.97"/><polygon class="cls-9" points="39.62 112.92 38.97 113.29 38.97 92.41 39.62 92.03 39.62 112.92"/><polygon class="cls-9" points="41.23 112.06 40.96 112.22 40.96 91.19 41.23 91.03 41.23 112.06"/><polygon class="cls-9" points="43 111.1 42.72 111.26 42.72 90.23 43 90.08 43 111.1"/><polygon class="cls-9" points="46.52 104.01 46.52 104.29 37.68 109.38 37.68 109.09 46.52 104.01"/><polygon class="cls-9" points="46.52 100.38 46.52 100.66 37.68 105.75 37.68 105.46 46.52 100.38"/><polygon class="cls-9" points="46.52 92.03 46.52 92.31 37.68 97.4 37.68 97.12 46.52 92.03"/><polygon class="cls-3" points="47.47 78.57 37.26 84.46 37.26 83.81 47.47 63.16 47.47 78.57"/><polygon class="cls-9" points="46.92 78.24 37.26 83.81 37.26 67.82 46.92 62.24 46.92 78.24"/><polygon class="cls-15" points="46.52 62.82 46.52 78.06 37.68 83.15 37.68 67.91 46.52 62.82"/><polygon class="cls-6" points="46.01 63.12 46.01 77.79 37.68 82.58 37.68 83.15 46.52 78.06 46.52 62.82 46.01 63.12"/><polygon class="cls-2" points="47.47 78.57 46.92 78.24 46.92 62.24 47.47 61.92 47.47 78.57"/><polygon class="cls-9" points="44.95 79.16 44.3 79.53 44.3 64.1 44.95 63.73 44.95 79.16"/><polygon class="cls-9" points="39.62 82.11 38.97 82.48 38.97 67.05 39.62 66.68 39.62 82.11"/><polygon class="cls-9" points="41.23 81.25 40.96 81.41 40.96 65.84 41.23 65.68 41.23 81.25"/><polygon class="cls-9" points="43 80.29 42.72 80.45 42.72 64.88 43 64.72 43 80.29"/><polygon class="cls-9" points="46.52 73.2 46.52 73.48 37.68 78.57 37.68 78.28 46.52 73.2"/><polygon class="cls-9" points="46.52 69.57 46.52 69.85 37.68 74.94 37.68 74.65 46.52 69.57"/><polygon class="cls-9" points="37.68 71.76 37.68 72.04 46.52 66.95 46.52 66.68 37.68 71.76"/><polygon class="cls-8" points="141.43 56.95 153.22 50.14 153.22 25.17 141.43 31.97 141.43 56.95"/><polygon class="cls-2" points="152.61 25.52 152.61 49.66 153.22 50.14 153.22 25.17 152.61 25.52"/><polygon class="cls-3" points="152.61 49.66 153.22 50.14 141.43 56.95 141.43 56.12 152.61 49.66"/><polygon class="cls-8" points="141.43 25.77 153.22 18.97 153.22 0 141.43 6.81 141.43 25.77"/><polygon class="cls-2" points="152.61 0.35 152.61 18.49 153.22 18.97 153.22 0 152.61 0.35"/><polygon class="cls-3" points="152.25 49.05 142.04 54.95 142.04 54.3 152.25 28.19 152.25 49.05"/><polygon class="cls-9" points="151.7 48.72 142.04 54.3 142.04 32.85 151.7 27.27 151.7 48.72"/><polygon class="cls-16" points="151.3 27.86 151.3 48.55 142.46 53.64 142.46 32.94 151.3 27.86"/><polygon class="cls-6" points="150.79 28.15 150.79 48.28 142.46 53.07 142.46 53.64 151.3 48.55 151.3 27.85 150.79 28.15"/><polygon class="cls-9" points="151.3 34.98 151.3 35.94 142.46 41.03 142.46 40.06 151.3 34.98"/><polygon class="cls-2" points="152.25 49.05 151.7 48.72 151.7 27.27 152.25 26.95 152.25 49.05"/><polygon class="cls-3" points="152.61 18.49 153.22 18.97 141.43 25.77 141.43 24.95 152.61 18.49"/><polygon class="cls-9" points="149.73 49.65 149.08 50.02 149.08 29.13 149.73 28.76 149.73 49.65"/><polygon class="cls-9" points="144.39 52.59 143.75 52.97 143.75 32.08 144.39 31.71 144.39 52.59"/><polygon class="cls-9" points="146.01 51.73 145.74 51.89 145.74 30.87 146.01 30.71 146.01 51.73"/><polygon class="cls-9" points="147.78 50.77 147.5 50.93 147.5 29.91 147.78 29.75 147.78 50.77"/><polygon class="cls-9" points="151.3 43.69 151.3 43.96 142.46 49.05 142.46 48.77 151.3 43.69"/><polygon class="cls-9" points="151.3 40.06 151.3 40.33 142.46 45.42 142.46 45.14 151.3 40.06"/><polygon class="cls-9" points="151.3 31.71 151.3 31.98 142.46 37.07 142.46 36.79 151.3 31.71"/><polygon class="cls-3" points="152.25 18.24 142.04 24.14 142.04 23.49 152.25 2.83 152.25 18.24"/><polygon class="cls-9" points="151.7 17.91 142.04 23.49 142.04 7.49 151.7 1.92 151.7 17.91"/><polygon class="cls-17" points="151.3 2.5 151.3 17.74 142.46 22.83 142.46 7.58 151.3 2.5"/><polygon class="cls-6" points="150.79 2.79 150.79 17.47 142.46 22.26 142.46 22.83 151.3 17.74 151.3 2.5 150.79 2.79"/><polygon class="cls-2" points="152.25 18.24 151.7 17.91 151.7 1.92 152.25 1.6 152.25 18.24"/><polygon class="cls-9" points="149.73 18.84 149.08 19.21 149.08 3.78 149.73 3.4 149.73 18.84"/><polygon class="cls-9" points="144.39 21.79 143.75 22.16 143.75 6.73 144.39 6.35 144.39 21.79"/><polygon class="cls-9" points="146.01 20.93 145.74 21.08 145.74 5.51 146.01 5.36 146.01 20.93"/><polygon class="cls-9" points="147.78 19.97 147.5 20.13 147.5 4.55 147.78 4.39 147.78 19.97"/><polygon class="cls-9" points="151.3 12.88 151.3 13.15 142.46 18.24 142.46 17.96 151.3 12.88"/><polygon class="cls-9" points="151.3 9.25 151.3 9.52 142.46 14.61 142.46 14.33 151.3 9.25"/><polygon class="cls-9" points="142.46 11.44 142.46 11.72 151.3 6.63 151.3 6.35 142.46 11.44"/><polygon class="cls-1" points="59.29 111.35 71.08 104.55 71.08 79.57 59.29 86.38 59.29 111.35"/><polygon class="cls-2" points="70.47 79.92 70.47 104.07 71.08 104.55 71.08 79.57 70.47 79.92"/><polygon class="cls-3" points="70.47 104.07 71.08 104.55 59.29 111.35 59.29 110.52 70.47 104.07"/><polygon class="cls-1" points="59.29 80.18 71.08 73.37 71.08 54.41 59.29 61.21 59.29 80.18"/><polygon class="cls-2" points="70.47 54.76 70.47 72.9 71.08 73.37 71.08 54.41 70.47 54.76"/><polygon class="cls-3" points="70.1 103.46 59.89 109.35 59.89 108.7 70.1 82.59 70.1 103.46"/><polygon class="cls-9" points="69.55 103.13 59.89 108.7 59.89 87.26 69.55 81.68 69.55 103.13"/><polygon class="cls-18" points="69.16 82.26 69.16 102.95 60.31 108.04 60.31 87.34 69.16 82.26"/><polygon class="cls-6" points="68.64 82.56 68.64 102.68 60.31 107.47 60.31 108.04 69.16 102.95 69.16 82.26 68.64 82.56"/><polygon class="cls-9" points="69.16 89.38 69.16 90.35 60.31 95.44 60.31 94.47 69.16 89.38"/><polygon class="cls-2" points="70.1 103.46 69.55 103.13 69.55 81.68 70.1 81.36 70.1 103.46"/><polygon class="cls-3" points="70.47 72.9 71.08 73.37 59.29 80.18 59.29 79.35 70.47 72.9"/><polygon class="cls-9" points="67.58 104.05 66.94 104.42 66.94 83.54 67.58 83.17 67.58 104.05"/><polygon class="cls-9" points="62.25 107 61.6 107.38 61.6 86.49 62.25 86.12 62.25 107"/><polygon class="cls-9" points="63.86 106.14 63.59 106.3 63.59 85.28 63.86 85.12 63.86 106.14"/><polygon class="cls-9" points="65.63 105.18 65.36 105.34 65.36 84.32 65.63 84.16 65.63 105.18"/><polygon class="cls-9" points="69.16 98.09 69.16 98.37 60.31 103.46 60.31 103.18 69.16 98.09"/><polygon class="cls-9" points="69.16 94.46 69.16 94.74 60.31 99.83 60.31 99.54 69.16 94.46"/><polygon class="cls-9" points="69.16 86.12 69.16 86.39 60.31 91.48 60.31 91.2 69.16 86.12"/><polygon class="cls-3" points="70.1 72.65 59.89 78.54 59.89 77.89 70.1 57.24 70.1 72.65"/><polygon class="cls-9" points="69.55 72.32 59.89 77.89 59.89 61.9 69.55 56.32 69.55 72.32"/><polygon class="cls-19" points="69.16 56.91 69.16 72.14 60.31 77.23 60.31 61.99 69.16 56.91"/><polygon class="cls-6" points="68.64 57.2 68.64 71.87 60.31 76.67 60.31 77.23 69.16 72.14 69.16 56.9 68.64 57.2"/><polygon class="cls-2" points="70.1 72.65 69.55 72.32 69.55 56.32 70.1 56.01 70.1 72.65"/><polygon class="cls-9" points="67.58 73.24 66.94 73.61 66.94 58.18 67.58 57.81 67.58 73.24"/><polygon class="cls-9" points="62.25 76.19 61.6 76.56 61.6 61.13 62.25 60.76 62.25 76.19"/><polygon class="cls-9" points="63.86 75.33 63.59 75.49 63.59 59.92 63.86 59.76 63.86 75.33"/><polygon class="cls-9" points="65.63 74.37 65.36 74.53 65.36 58.96 65.63 58.8 65.63 74.37"/><polygon class="cls-9" points="69.16 67.28 69.16 67.56 60.31 72.65 60.31 72.37 69.16 67.28"/><polygon class="cls-9" points="69.16 63.65 69.16 63.93 60.31 69.02 60.31 68.73 69.16 63.65"/><polygon class="cls-9" points="60.31 65.84 60.31 66.12 69.16 61.03 69.16 60.76 60.31 65.84"/><polygon class="cls-1" points="74.14 102.77 85.93 95.97 85.93 71 74.14 77.8 74.14 102.77"/><polygon class="cls-2" points="85.32 71.35 85.32 95.49 85.93 95.97 85.93 71 85.32 71.35"/><polygon class="cls-3" points="85.32 95.49 85.93 95.97 74.14 102.77 74.14 101.94 85.32 95.49"/><polygon class="cls-8" points="74.14 71.6 85.93 64.8 85.93 45.83 74.14 52.63 74.14 71.6"/><polygon class="cls-2" points="85.32 46.18 85.32 64.32 85.93 64.8 85.93 45.83 85.32 46.18"/><polygon class="cls-3" points="84.96 94.88 74.75 100.77 74.75 100.13 84.96 74.02 84.96 94.88"/><polygon class="cls-9" points="84.41 94.55 74.75 100.13 74.75 78.68 84.41 73.1 84.41 94.55"/><polygon class="cls-20" points="84.01 73.68 84.01 94.37 75.17 99.46 75.17 78.77 84.01 73.68"/><polygon class="cls-6" points="83.5 73.98 83.5 94.1 75.17 98.9 75.17 99.46 84.01 94.37 84.01 73.68 83.5 73.98"/><polygon class="cls-9" points="84.01 80.81 84.01 81.77 75.17 86.86 75.17 85.89 84.01 80.81"/><polygon class="cls-2" points="84.96 94.88 84.41 94.55 84.41 73.1 84.96 72.78 84.96 94.88"/><polygon class="cls-3" points="85.32 64.32 85.93 64.8 74.14 71.6 74.14 70.77 85.32 64.32"/><polygon class="cls-9" points="82.44 95.47 81.79 95.85 81.79 74.96 82.44 74.59 82.44 95.47"/><polygon class="cls-9" points="77.1 98.42 76.45 98.8 76.45 77.91 77.1 77.54 77.1 98.42"/><polygon class="cls-9" points="78.72 97.56 78.45 97.72 78.45 76.7 78.72 76.54 78.72 97.56"/><polygon class="cls-9" points="80.49 96.6 80.21 96.76 80.21 75.74 80.49 75.58 80.49 96.6"/><polygon class="cls-9" points="84.01 89.52 84.01 89.79 75.17 94.88 75.17 94.6 84.01 89.52"/><polygon class="cls-9" points="84.01 85.88 84.01 86.16 75.17 91.25 75.17 90.97 84.01 85.88"/><polygon class="cls-9" points="84.01 77.54 84.01 77.81 75.17 82.9 75.17 82.62 84.01 77.54"/><polygon class="cls-3" points="84.96 64.07 74.75 69.96 74.75 69.32 84.96 48.66 84.96 64.07"/><polygon class="cls-9" points="84.41 63.74 74.75 69.32 74.75 53.32 84.41 47.74 84.41 63.74"/><polygon class="cls-21" points="84.01 48.33 84.01 63.56 75.17 68.65 75.17 53.41 84.01 48.33"/><polygon class="cls-6" points="83.5 48.62 83.5 63.29 75.17 68.09 75.17 68.65 84.01 63.56 84.01 48.33 83.5 48.62"/><polygon class="cls-1" points="84.96 64.07 84.41 63.74 84.41 47.74 84.96 47.43 84.96 64.07"/><polygon class="cls-9" points="82.44 64.66 81.79 65.04 81.79 49.6 82.44 49.23 82.44 64.66"/><polygon class="cls-9" points="77.1 67.61 76.45 67.99 76.45 52.55 77.1 52.18 77.1 67.61"/><polygon class="cls-9" points="78.72 66.75 78.45 66.91 78.45 51.34 78.72 51.18 78.72 66.75"/><polygon class="cls-9" points="80.49 65.79 80.21 65.95 80.21 50.38 80.49 50.22 80.49 65.79"/><polygon class="cls-9" points="84.01 58.7 84.01 58.98 75.17 64.07 75.17 63.79 84.01 58.7"/><polygon class="cls-9" points="84.01 55.07 84.01 55.35 75.17 60.44 75.17 60.16 84.01 55.07"/><polygon class="cls-9" points="75.17 57.26 75.17 57.55 84.01 52.46 84.01 52.18 75.17 57.26"/><polygon class="cls-1" points="91.5 61.65 103.29 54.84 103.29 35.88 91.5 42.68 91.5 61.65"/><polygon class="cls-2" points="102.68 36.23 102.68 54.37 103.29 54.84 103.29 35.88 102.68 36.23"/><polygon class="cls-3" points="102.68 54.37 103.29 54.84 91.5 61.65 91.5 60.82 102.68 54.37"/><polygon class="cls-3" points="102.32 54.12 92.11 60.01 92.11 59.36 102.32 38.71 102.32 54.12"/><polygon class="cls-9" points="101.77 53.79 92.11 59.36 92.11 43.37 101.77 37.79 101.77 53.79"/><polygon class="cls-22" points="101.37 38.37 101.37 53.61 92.53 58.7 92.53 43.46 101.37 38.37"/><polygon class="cls-6" points="100.86 38.67 100.86 53.34 92.53 58.13 92.53 58.7 101.37 53.61 101.37 38.37 100.86 38.67"/><polygon class="cls-2" points="102.32 54.12 101.77 53.79 101.77 37.79 102.32 37.47 102.32 54.12"/><polygon class="cls-9" points="99.8 54.71 99.15 55.08 99.15 39.65 99.8 39.28 99.8 54.71"/><polygon class="cls-9" points="94.46 57.66 93.81 58.03 93.81 42.6 94.46 42.23 94.46 57.66"/><polygon class="cls-9" points="96.08 56.8 95.8 56.96 95.8 41.39 96.08 41.23 96.08 56.8"/><polygon class="cls-9" points="97.85 55.84 97.57 56 97.57 40.43 97.85 40.27 97.85 55.84"/><polygon class="cls-9" points="101.37 48.75 101.37 49.03 92.53 54.12 92.53 53.84 101.37 48.75"/><polygon class="cls-9" points="101.37 45.12 101.37 45.4 92.53 50.48 92.53 50.2 101.37 45.12"/><polygon class="cls-9" points="92.53 47.31 92.53 47.59 101.37 42.5 101.37 42.23 92.53 47.31"/><polygon class="cls-1" points="28.42 119.93 16.63 113.12 16.63 88.15 28.42 94.95 28.42 119.93"/><polygon class="cls-2" points="17.24 88.5 17.24 112.64 16.63 113.12 16.63 88.15 17.24 88.5"/><polygon class="cls-3" points="17.24 112.64 16.63 113.12 28.42 119.93 28.42 119.1 17.24 112.64"/><polygon class="cls-1" points="28.42 88.76 16.63 81.95 16.63 62.98 28.42 69.79 28.42 88.76"/><polygon class="cls-2" points="17.24 63.33 17.24 81.47 16.63 81.95 16.63 62.98 17.24 63.33"/><polygon class="cls-3" points="17.6 112.03 27.81 117.93 27.81 117.28 17.6 91.17 17.6 112.03"/><polygon class="cls-4" points="18.15 111.7 27.81 117.28 27.81 95.83 18.15 90.25 18.15 111.7"/><polygon class="cls-23" points="18.55 90.84 18.55 111.53 27.39 116.62 27.39 95.92 18.55 90.84"/><polygon class="cls-6" points="19.06 91.13 19.06 111.26 27.39 116.05 27.39 116.62 18.55 111.53 18.55 90.84 19.06 91.13"/><polygon class="cls-4" points="18.55 97.96 18.55 98.92 27.39 104.01 27.39 103.04 18.55 97.96"/><polygon class="cls-2" points="17.6 112.03 18.15 111.7 18.15 90.25 17.6 89.94 17.6 112.03"/><polygon class="cls-3" points="17.24 81.47 16.63 81.95 28.42 88.76 28.42 87.93 17.24 81.47"/><polygon class="cls-4" points="20.12 112.63 20.77 113 20.77 92.12 20.12 91.74 20.12 112.63"/><polygon class="cls-4" points="25.46 115.58 26.11 115.95 26.11 95.07 25.46 94.69 25.46 115.58"/><polygon class="cls-4" points="23.84 114.72 24.11 114.88 24.11 93.85 23.84 93.69 23.84 114.72"/><polygon class="cls-4" points="22.07 113.76 22.35 113.92 22.35 92.89 22.07 92.73 22.07 113.76"/><polygon class="cls-4" points="18.55 106.67 18.55 106.94 27.39 112.03 27.39 111.75 18.55 106.67"/><polygon class="cls-4" points="18.55 103.04 18.55 103.31 27.39 108.4 27.39 108.12 18.55 103.04"/><polygon class="cls-4" points="18.55 94.69 18.55 94.97 27.39 100.06 27.39 99.77 18.55 94.69"/><polygon class="cls-3" points="17.6 81.22 27.81 87.12 27.81 86.47 17.6 65.81 17.6 81.22"/><polygon class="cls-4" points="18.15 80.89 27.81 86.47 27.81 70.48 18.15 64.9 18.15 80.89"/><polygon class="cls-24" points="18.55 65.48 18.55 80.72 27.39 85.81 27.39 70.56 18.55 65.48"/><polygon class="cls-6" points="19.06 65.78 19.06 80.45 27.39 85.24 27.39 85.81 18.55 80.72 18.55 65.48 19.06 65.78"/><polygon class="cls-2" points="17.6 81.22 18.15 80.89 18.15 64.9 17.6 64.58 17.6 81.22"/><polygon class="cls-4" points="20.12 81.82 20.77 82.19 20.77 66.76 20.12 66.39 20.12 81.82"/><polygon class="cls-4" points="25.46 84.77 26.11 85.14 26.11 69.71 25.46 69.33 25.46 84.77"/><polygon class="cls-4" points="23.84 83.91 24.11 84.07 24.11 68.5 23.84 68.34 23.84 83.91"/><polygon class="cls-4" points="22.07 82.95 22.35 83.11 22.35 67.54 22.07 67.38 22.07 82.95"/><polygon class="cls-4" points="18.55 75.86 18.55 76.14 27.39 81.22 27.39 80.94 18.55 75.86"/><polygon class="cls-4" points="18.55 72.23 18.55 72.5 27.39 77.59 27.39 77.31 18.55 72.23"/><polygon class="cls-4" points="18.55 69.33 18.55 69.61 27.39 74.7 27.39 74.42 18.55 69.33"/></g></g></svg>