<svg xmlns="http://www.w3.org/2000/svg" xmlns:xlink="http://www.w3.org/1999/xlink" viewBox="0 0 138.91 119.18"><defs><style>.cls-1{fill:none;}.cls-2{isolation:isolate;}.cls-3{fill:#24201d;}.cls-4{fill:#f8a04c;}.cls-5{fill:#d41821;}.cls-6{fill:#ff962d;}.cls-7{fill:#bd6e56;}.cls-8{fill:#ed8c2b;}.cls-9{fill:#9e133a;}.cls-10{fill:#ba5a1a;}.cls-11{fill:#9f513f;}.cls-12{fill:#d473c3;}.cls-13{fill:#c65827;}.cls-14{fill:#b45f35;}.cls-15{fill:url(#Безымянный_градиент_12);}.cls-16{fill:url(#Безымянный_градиент_11);}.cls-17,.cls-19,.cls-20,.cls-21,.cls-23,.cls-26,.cls-31,.cls-33,.cls-35,.cls-36,.cls-37,.cls-42,.cls-43,.cls-44,.cls-49,.cls-50,.cls-59,.cls-62,.cls-63,.cls-64{mix-blend-mode:screen;}.cls-17{fill:url(#Безымянный_градиент_114);}.cls-18{fill:url(#Безымянный_градиент_10);}.cls-19{fill:url(#Безымянный_градиент_9);}.cls-20{fill:url(#Безымянный_градиент_9-2);}.cls-21{fill:url(#Безымянный_градиент_9-3);}.cls-22{fill:#2aaebd;}.cls-23{fill:url(#Безымянный_градиент_8);}.cls-24{fill:#924f87;}.cls-25{fill:url(#Безымянный_градиент_118);}.cls-26{fill:url(#Безымянный_градиент_111);}.cls-27{fill:#cf70bf;}.cls-28{fill:#ba65ab;}.cls-29{fill:#67385f;}.cls-30{fill:url(#Безымянный_градиент_118-2);}.cls-31{fill:url(#Безымянный_градиент_108);}.cls-32{fill:url(#Безымянный_градиент_106);}.cls-33{fill:url(#Безымянный_градиент_108-2);}.cls-34{fill:url(#Безымянный_градиент_106-2);}.cls-35{fill:url(#Безымянный_градиент_108-3);}.cls-36{fill:url(#Безымянный_градиент_8-2);}.cls-37{fill:url(#Безымянный_градиент_8-3);}.cls-38{fill:#21a0ca;}.cls-39{fill:#136e79;}.cls-40{fill:#eb7139;}.cls-41{fill:url(#Безымянный_градиент_7);}.cls-42{fill:url(#Безымянный_градиент_5);}.cls-43{fill:url(#Безымянный_градиент_5-2);}.cls-44{fill:url(#Безымянный_градиент_5-3);}.cls-45{fill:#649148;}.cls-46{fill:#d6877c;}.cls-47{fill:#fed0c5;}.cls-48{fill:url(#Безымянный_градиент_6);}.cls-49{fill:url(#Безымянный_градиент_5-4);}.cls-50{fill:url(#Безымянный_градиент_5-5);}.cls-51{fill:#fe9f63;}.cls-52{fill:#d4894f;}.cls-53{fill:#e69454;}.cls-54{fill:#abc4e4;}.cls-54,.cls-55,.cls-65,.cls-70{mix-blend-mode:multiply;}.cls-55{fill:#f79f5c;}.cls-56{fill:#eb7d4a;}.cls-57{fill:url(#Безымянный_градиент_4);}.cls-58{fill:url(#Безымянный_градиент_3);}.cls-59{fill:url(#Безымянный_градиент_100);}.cls-60{fill:#ef8b47;}.cls-61{fill:#5ad0f8;}.cls-62{fill:url(#Безымянный_градиент_2);}.cls-63{fill:url(#Безымянный_градиент_2-2);}.cls-64{fill:url(#Безымянный_градиент_2-3);}.cls-65{fill:#e5d4ec;}.cls-66{fill:#f09b59;}.cls-67{fill:#a65105;}.cls-68{fill:#e36e07;}.cls-69{fill:#c76006;}.cls-70{opacity:0.3;}.cls-71{fill:gray;}.cls-72{fill:#8b8b8b;}.cls-73{fill:#ececec;}.cls-74{fill:#818181;}.cls-75{clip-path:url(#clip-path);}.cls-76{fill:#858585;}.cls-77{clip-path:url(#clip-path-2);}.cls-78{clip-path:url(#clip-path-3);}.cls-79{clip-path:url(#clip-path-4);}.cls-80{clip-path:url(#clip-path-5);}.cls-81{fill:#8f8f8f;}.cls-82{clip-path:url(#clip-path-6);}.cls-83{clip-path:url(#clip-path-7);}.cls-84{fill:#878787;}.cls-85{clip-path:url(#clip-path-8);}.cls-86{fill:#8a8a8a;}.cls-87{clip-path:url(#clip-path-9);}.cls-88{fill:#828282;}.cls-89{clip-path:url(#clip-path-10);}.cls-90{clip-path:url(#clip-path-11);}.cls-91{clip-path:url(#clip-path-12);}.cls-92{fill:#848484;}.cls-93{clip-path:url(#clip-path-13);}.cls-94{clip-path:url(#clip-path-14);}.cls-95{clip-path:url(#clip-path-15);}</style><linearGradient id="Безымянный_градиент_12" x1="30.88" y1="110.84" x2="39.88" y2="95.26" gradientUnits="userSpaceOnUse"><stop offset="0" stop-color="#6fb4b0"/><stop offset="0.31" stop-color="#6aa"/><stop offset="0.83" stop-color="#4f909b"/><stop offset="0.93" stop-color="#4a8a98"/></linearGradient><linearGradient id="Безымянный_градиент_11" x1="87.05" y1="101.37" x2="76.21" y2="82.6" gradientUnits="userSpaceOnUse"><stop offset="0" stop-color="#a3f4ef"/><stop offset="0.26" stop-color="#99eaed"/><stop offset="0.71" stop-color="#7fd0e7"/><stop offset="0.93" stop-color="#70c0e4"/></linearGradient><linearGradient id="Безымянный_градиент_114" x1="62.49" y1="80.41" x2="79.15" y2="109.26" gradientUnits="userSpaceOnUse"><stop offset="0" stop-color="#095a1c"/><stop offset="0.41" stop-color="#086326"/><stop offset="0.93" stop-color="#077439"/></linearGradient><linearGradient id="Безымянный_градиент_10" x1="117.64" y1="69.62" x2="100.83" y2="40.9" gradientUnits="userSpaceOnUse"><stop offset="0" stop-color="#f3baa1"/><stop offset="0.12" stop-color="#e9bda3"/><stop offset="0.31" stop-color="#cfc6a8"/><stop offset="0.57" stop-color="#a3d4b1"/><stop offset="0.86" stop-color="#68e6bd"/><stop offset="0.93" stop-color="#5aebc0"/></linearGradient><linearGradient id="Безымянный_градиент_9" x1="103.74" y1="61.88" x2="104.21" y2="37.85" gradientUnits="userSpaceOnUse"><stop offset="0" stop-color="#45b5a3"/><stop offset="0.27" stop-color="#4dbfab"/><stop offset="0.73" stop-color="#61d9bf"/><stop offset="0.93" stop-color="#6ce7ca"/></linearGradient><linearGradient id="Безымянный_градиент_9-2" x1="125.28" y1="58.31" x2="125.87" y2="28.89" xlink:href="#Безымянный_градиент_9"/><linearGradient id="Безымянный_градиент_9-3" x1="80.96" y1="71.83" x2="81.54" y2="42.41" xlink:href="#Безымянный_градиент_9"/><linearGradient id="Безымянный_градиент_8" x1="61.43" y1="104.25" x2="57.55" y2="86.62" gradientUnits="userSpaceOnUse"><stop offset="0" stop-color="#80bb5d"/><stop offset="0.93" stop-color="#7eb454"/></linearGradient><linearGradient id="Безымянный_градиент_118" x1="56.39" y1="109.86" x2="54.31" y2="105.04" gradientUnits="userSpaceOnUse"><stop offset="0" stop-color="#44efe1"/><stop offset="0.24" stop-color="#37d8df"/><stop offset="0.69" stop-color="#21b1db"/><stop offset="0.93" stop-color="#18a2d9"/></linearGradient><linearGradient id="Безымянный_градиент_111" x1="-100.61" y1="107.79" x2="-99.22" y2="117.95" gradientTransform="translate(155.44)" gradientUnits="userSpaceOnUse"><stop offset="0" stop-color="#12a615"/><stop offset="0.28" stop-color="#119c13"/><stop offset="0.76" stop-color="#0e820d"/><stop offset="0.93" stop-color="#0d770a"/></linearGradient><linearGradient id="Безымянный_градиент_118-2" x1="51.55" y1="111.96" x2="49.46" y2="107.14" xlink:href="#Безымянный_градиент_118"/><linearGradient id="Безымянный_градиент_108" x1="48.92" y1="120.39" x2="49.63" y2="107.73" gradientUnits="userSpaceOnUse"><stop offset="0" stop-color="#0a550e"/><stop offset="0.92" stop-color="#094b07"/><stop offset="0.93" stop-color="#094b07"/></linearGradient><linearGradient id="Безымянный_градиент_106" x1="604.05" y1="110.32" x2="601.96" y2="105.5" gradientTransform="matrix(-1, 0, 0, 1, 640.69, 0)" gradientUnits="userSpaceOnUse"><stop offset="0" stop-color="#2691a4"/><stop offset="0.24" stop-color="#22879f"/><stop offset="0.65" stop-color="#176d93"/><stop offset="0.93" stop-color="#0e5788"/></linearGradient><linearGradient id="Безымянный_градиент_108-2" x1="447.04" y1="108.26" x2="448.44" y2="118.41" gradientTransform="matrix(-1, 0, 0, 1, 485.25, 0)" xlink:href="#Безымянный_градиент_108"/><linearGradient id="Безымянный_градиент_106-2" x1="599.21" y1="112.42" x2="597.12" y2="107.6" xlink:href="#Безымянный_градиент_106"/><linearGradient id="Безымянный_градиент_108-3" x1="596.57" y1="120.85" x2="597.29" y2="108.19" gradientTransform="matrix(-1, 0, 0, 1, 640.69, 0)" xlink:href="#Безымянный_градиент_108"/><linearGradient id="Безымянный_градиент_8-2" x1="105.69" y1="94.51" x2="101.81" y2="76.88" xlink:href="#Безымянный_градиент_8"/><linearGradient id="Безымянный_градиент_8-3" x1="81.12" y1="99.92" x2="77.24" y2="82.29" xlink:href="#Безымянный_градиент_8"/><linearGradient id="Безымянный_градиент_7" x1="4.52" y1="87.41" x2="33.57" y2="26.3" gradientUnits="userSpaceOnUse"><stop offset="0" stop-color="#77d8b7"/><stop offset="0.33" stop-color="#6dd1b6"/><stop offset="0.9" stop-color="#53bdb3"/><stop offset="0.93" stop-color="#51bcb3"/></linearGradient><linearGradient id="Безымянный_градиент_5" x1="22.41" y1="57.94" x2="22.61" y2="47.56" gradientUnits="userSpaceOnUse"><stop offset="0" stop-color="#335320"/><stop offset="0.56" stop-color="#3d5b27"/><stop offset="0.93" stop-color="#46632e"/></linearGradient><linearGradient id="Безымянный_градиент_5-2" x1="30.77" y1="49.52" x2="30.91" y2="42.48" xlink:href="#Безымянный_градиент_5"/><linearGradient id="Безымянный_градиент_5-3" x1="12.96" y1="67" x2="13.2" y2="55.02" xlink:href="#Безымянный_градиент_5"/><linearGradient id="Безымянный_градиент_6" x1="12.59" y1="92.1" x2="41.64" y2="30.99" gradientUnits="userSpaceOnUse"><stop offset="0" stop-color="#7ae0ba"/><stop offset="0.33" stop-color="#70daba"/><stop offset="0.9" stop-color="#56c8ba"/><stop offset="0.93" stop-color="#54c7ba"/></linearGradient><linearGradient id="Безымянный_градиент_5-4" x1="35.71" y1="59.91" x2="35.94" y2="48.1" xlink:href="#Безымянный_градиент_5"/><linearGradient id="Безымянный_градиент_5-5" x1="17.41" y1="73.2" x2="17.58" y2="64.61" xlink:href="#Безымянный_градиент_5"/><linearGradient id="Безымянный_градиент_4" x1="85.74" y1="18.24" x2="103.94" y2="49.77" gradientUnits="userSpaceOnUse"><stop offset="0.07" stop-color="#87c9f4"/><stop offset="0.32" stop-color="#9adbf6"/><stop offset="0.75" stop-color="#b4f5fa"/><stop offset="1" stop-color="#befffb"/></linearGradient><linearGradient id="Безымянный_градиент_3" x1="91.31" y1="46.37" x2="79.76" y2="25.8" gradientUnits="userSpaceOnUse"><stop offset="0" stop-color="#82dee3"/><stop offset="0.56" stop-color="#7de8e6"/><stop offset="0.93" stop-color="#78f1e9"/></linearGradient><linearGradient id="Безымянный_градиент_100" x1="116.51" y1="37.22" x2="127.99" y2="17.34" gradientUnits="userSpaceOnUse"><stop offset="0" stop-color="#8b5828"/><stop offset="0.14" stop-color="#815a26"/><stop offset="0.38" stop-color="#676121"/><stop offset="0.68" stop-color="#3c6b19"/><stop offset="0.93" stop-color="#147411"/></linearGradient><linearGradient id="Безымянный_градиент_2" x1="97.93" y1="41.24" x2="98.37" y2="18.69" gradientUnits="userSpaceOnUse"><stop offset="0" stop-color="#508131"/><stop offset="0.24" stop-color="#598b38"/><stop offset="0.65" stop-color="#71a549"/><stop offset="0.93" stop-color="#85bb58"/></linearGradient><linearGradient id="Безымянный_градиент_2-2" x1="119.51" y1="35.97" x2="119.98" y2="11.89" xlink:href="#Безымянный_градиент_2"/><linearGradient id="Безымянный_градиент_2-3" x1="75.15" y1="51.35" x2="75.69" y2="23.87" xlink:href="#Безымянный_градиент_2"/><clipPath id="clip-path"><path class="cls-1" d="M57.72,84.55H57.1c.11-.25.19-.48.28-.68H58C57.91,84.07,57.82,84.31,57.72,84.55Z"/></clipPath><clipPath id="clip-path-2"><path class="cls-1" d="M57.41,85.27h-.62c.11-.24.21-.48.31-.72h.62C57.62,84.79,57.52,85,57.41,85.27Z"/></clipPath><clipPath id="clip-path-3"><path class="cls-1" d="M58,83.87h-.62l-.23-.34-.25-.36-.25-.35c-.08-.12-.17-.23-.23-.34H57c.07.11.15.22.24.34l.25.35.25.36Z"/></clipPath><clipPath id="clip-path-4"><path class="cls-1" d="M56.82,86.69H56.2l.29-.69c.1-.24.21-.49.3-.73h.62l-.3.73Z"/></clipPath><clipPath id="clip-path-5"><path class="cls-1" d="M69.59,69.09H69a.64.64,0,0,1,.22,0h.62A.74.74,0,0,0,69.59,69.09Z"/></clipPath><clipPath id="clip-path-6"><path class="cls-1" d="M69.56,70.36h-.62a2.5,2.5,0,0,0,0-.33l.62,0A2.33,2.33,0,0,1,69.56,70.36Z"/></clipPath><clipPath id="clip-path-7"><path class="cls-1" d="M69.43,71h-.62a.5.5,0,0,0,.09-.24,2.43,2.43,0,0,0,0-.36l.61,0a1.73,1.73,0,0,1,0,.36A.58.58,0,0,1,69.43,71Z"/></clipPath><clipPath id="clip-path-8"><path class="cls-1" d="M69,71.31h-.61l.24-.15h.62A1.83,1.83,0,0,1,69,71.31Z"/></clipPath><clipPath id="clip-path-9"><path class="cls-1" d="M69.05,69.37h-.62a4.1,4.1,0,0,1,.55-.28h.61A4.8,4.8,0,0,0,69.05,69.37Z"/></clipPath><clipPath id="clip-path-10"><path class="cls-1" d="M71.91,66.16h-.62a1.41,1.41,0,0,0,.16-.59.5.5,0,0,0-.14-.41h.62a.47.47,0,0,1,.13.41A1.26,1.26,0,0,1,71.91,66.16Z"/></clipPath><clipPath id="clip-path-11"><path class="cls-1" d="M71.93,65.16h-.62a.26.26,0,0,0-.16-.07h.62A.26.26,0,0,1,71.93,65.16Z"/></clipPath><clipPath id="clip-path-12"><path class="cls-1" d="M71.62,65.32H71l.11,0h.61Z"/></clipPath><clipPath id="clip-path-13"><path class="cls-1" d="M71.55,66.58h-.62a1.08,1.08,0,0,0,.36-.42h.62A1.08,1.08,0,0,1,71.55,66.58Z"/></clipPath><clipPath id="clip-path-14"><path class="cls-1" d="M71.34,66.64h-.62a.48.48,0,0,0,.21-.06h.62A.48.48,0,0,1,71.34,66.64Z"/></clipPath><clipPath id="clip-path-15"><path class="cls-1" d="M71.27,66.84h-.62a.28.28,0,0,1-.18-.06.59.59,0,0,1-.18-.53,1.56,1.56,0,0,1,.2-.75A1.24,1.24,0,0,1,71,65a.51.51,0,0,1,.26-.08h.62a.46.46,0,0,0-.26.08,1.24,1.24,0,0,0-.47.53,1.69,1.69,0,0,0-.21.75.65.65,0,0,0,.18.53A.33.33,0,0,0,71.27,66.84Z"/></clipPath></defs><g class="cls-2"><g id="Слой_2" data-name="Слой 2"><g id="Layer_1" data-name="Layer 1"><polygon class="cls-3" points="115.96 80.22 95.95 68.67 95.95 41.72 115.96 53.27 115.96 80.22"/><polygon class="cls-4" points="118.55 28.58 46.12 70.34 73.75 77.66 138.55 40.13 118.55 28.58"/><polygon class="cls-5" points="138.55 40.22 138.55 67.17 115.96 80.22 115.96 53.27 138.55 40.22"/><polygon class="cls-6" points="138.91 56.97 138.91 66.94 131.4 71.27 131.4 61.3 138.91 56.97"/><polygon class="cls-3" points="131.04 61.1 131.04 71.07 131.4 71.27 131.4 61.3 131.04 61.1"/><polygon class="cls-7" points="138.55 56.76 131.04 61.1 131.4 61.3 138.91 56.97 138.55 56.76"/><polygon class="cls-6" points="131.19 61.44 131.19 71.41 123.68 75.75 123.68 65.77 131.19 61.44"/><polygon class="cls-3" points="123.32 65.57 123.32 75.54 123.68 75.75 123.68 65.77 123.32 65.57"/><polygon class="cls-7" points="130.83 61.23 123.32 65.57 123.68 65.77 131.19 61.44 130.83 61.23"/><polygon class="cls-6" points="123.47 65.91 123.47 75.88 115.96 80.22 115.96 70.25 123.47 65.91"/><polygon class="cls-3" points="115.6 70.04 115.6 80.01 115.96 80.22 115.96 70.25 115.6 70.04"/><polygon class="cls-7" points="123.11 65.7 115.6 70.04 115.96 70.25 123.47 65.91 123.11 65.7"/><polygon class="cls-6" points="138.91 46.7 138.91 56.68 131.4 61.01 131.4 51.04 138.91 46.7"/><polygon class="cls-3" points="131.04 50.84 131.04 60.81 131.4 61.01 131.4 51.04 131.04 50.84"/><polygon class="cls-7" points="138.55 46.5 131.04 50.84 131.4 51.04 138.91 46.7 138.55 46.5"/><polygon class="cls-6" points="131.19 51.18 131.19 61.15 123.68 65.48 123.68 55.51 131.19 51.18"/><polygon class="cls-3" points="123.32 55.31 123.32 65.28 123.68 65.48 123.68 55.51 123.32 55.31"/><polygon class="cls-7" points="130.83 50.97 123.32 55.31 123.68 55.51 131.19 51.18 130.83 50.97"/><polygon class="cls-6" points="123.47 55.65 123.47 65.62 115.96 69.95 115.96 59.98 123.47 55.65"/><polygon class="cls-3" points="115.6 59.78 115.6 69.75 115.96 69.95 115.96 59.98 115.6 59.78"/><polygon class="cls-7" points="123.11 55.44 115.6 59.78 115.96 59.98 123.47 55.65 123.11 55.44"/><polygon class="cls-8" points="22.95 107.25 24.99 106.04 24.99 81.42 22.95 80.24 22.95 107.25"/><polygon class="cls-9" points="23.31 107.04 0.36 94.11 0.36 67.17 23.31 80.44 23.31 107.04"/><polygon class="cls-10" points="0 84 0 93.97 7.51 98.31 7.51 88.33 0 84"/><polygon class="cls-3" points="7.87 88.13 7.87 98.1 7.51 98.31 7.51 88.33 7.87 88.13"/><polygon class="cls-7" points="0.36 83.79 7.87 88.13 7.51 88.33 0 84 0.36 83.79"/><polygon class="cls-10" points="7.72 88.47 7.72 98.44 15.23 102.78 15.23 92.81 7.72 88.47"/><polygon class="cls-3" points="15.59 92.6 15.59 102.57 15.23 102.78 15.23 92.81 15.59 92.6"/><polygon class="cls-7" points="8.08 88.26 15.59 92.6 15.23 92.81 7.72 88.47 8.08 88.26"/><polygon class="cls-10" points="15.44 92.94 15.44 102.91 22.95 107.25 22.95 97.28 15.44 92.94"/><polygon class="cls-11" points="23.31 97.07 23.31 107.04 22.95 107.25 22.95 97.28 23.31 97.07"/><polygon class="cls-7" points="15.8 92.73 23.31 97.07 22.95 97.28 15.44 92.94 15.8 92.73"/><polygon class="cls-10" points="0 73.74 0 83.71 7.51 88.04 7.51 78.07 0 73.74"/><polygon class="cls-3" points="7.87 77.87 7.87 87.84 7.51 88.04 7.51 78.07 7.87 77.87"/><polygon class="cls-12" points="0.36 73.53 7.87 77.87 7.51 78.07 0 73.74 0.36 73.53"/><polygon class="cls-10" points="7.72 78.21 7.72 88.18 15.23 92.51 15.23 82.54 7.72 78.21"/><polygon class="cls-3" points="15.59 82.34 15.59 92.31 15.23 92.51 15.23 82.54 15.59 82.34"/><polygon class="cls-12" points="8.08 78 15.59 82.34 15.23 82.54 7.72 78.21 8.08 78"/><polygon class="cls-10" points="15.44 82.68 15.44 92.65 22.95 96.98 22.95 87.01 15.44 82.68"/><polygon class="cls-11" points="23.31 86.81 23.31 96.78 22.95 96.98 22.95 87.01 23.31 86.81"/><polygon class="cls-12" points="15.8 82.47 23.31 86.81 22.95 87.01 15.44 82.68 15.8 82.47"/><polygon class="cls-13" points="0 67.37 0 73.29 7.51 77.63 7.51 71.71 0 67.37"/><polygon class="cls-14" points="7.87 71.5 7.87 77.42 7.51 77.63 7.51 71.71 7.87 71.5"/><polygon class="cls-4" points="0.36 67.17 7.87 71.5 7.51 71.71 0 67.37 0.36 67.17"/><polygon class="cls-13" points="7.72 71.84 7.72 77.76 15.23 82.1 15.23 76.18 7.72 71.84"/><polygon class="cls-14" points="15.59 75.97 15.59 81.89 15.23 82.1 15.23 76.18 15.59 75.97"/><polygon class="cls-4" points="8.08 71.64 15.59 75.97 15.23 76.18 7.72 71.84 8.08 71.64"/><polygon class="cls-13" points="15.44 76.31 15.44 82.23 22.95 86.57 22.95 80.65 15.44 76.31"/><polygon class="cls-14" points="23.31 80.44 23.31 86.36 22.95 86.57 22.95 80.65 23.31 80.44"/><polygon class="cls-4" points="15.8 76.11 23.31 80.44 22.95 80.65 15.44 76.31 15.8 76.11"/><polygon class="cls-15" points="46.12 118.25 24.99 106.04 24.99 87.25 46.12 99.46 46.12 118.25"/><polygon class="cls-16" points="46.12 118.25 113.96 78.98 113.96 60.19 46.12 99.46 46.12 118.25"/><polygon class="cls-17" points="92.84 66.77 24.99 106.04 46.12 118.25 113.96 78.98 92.84 66.77"/><polygon class="cls-18" points="136.16 20.13 136.16 39.72 73.75 75.77 73.75 56.18 136.16 20.13"/><polygon class="cls-19" points="111.17 34.57 109.53 55.1 96.83 62.44 98.47 41.91 111.17 34.57"/><polygon class="cls-20" points="131.4 22.88 129.76 43.41 120.05 49.03 121.68 28.49 131.4 22.88"/><polygon class="cls-21" points="86.83 48.63 85.2 69.16 75.48 74.77 77.12 54.24 86.83 48.63"/><polygon class="cls-22" points="112.42 79.86 112.7 79.69 112.7 59.7 112.42 59.86 112.42 79.86"/><polygon class="cls-22" points="104.57 84.4 104.86 84.24 104.86 64.24 104.57 64.41 104.57 84.4"/><polygon class="cls-22" points="96.73 88.94 97.01 88.78 97.01 68.79 96.73 68.95 96.73 88.94"/><polygon class="cls-22" points="88.88 93.49 89.16 93.33 89.16 73.33 88.88 73.49 88.88 93.49"/><polygon class="cls-22" points="81.03 98.03 81.32 97.87 81.32 77.88 81.03 78.04 81.03 98.03"/><polygon class="cls-22" points="73.19 102.58 73.47 102.42 73.47 82.42 73.19 82.58 73.19 102.58"/><polygon class="cls-22" points="65.34 107.12 65.62 106.96 65.62 86.96 65.34 87.13 65.34 107.12"/><polygon class="cls-22" points="57.49 111.67 57.77 111.5 57.77 91.51 57.49 91.67 57.49 111.67"/><polygon class="cls-22" points="49.65 116.21 49.93 116.05 49.93 96.05 49.65 96.22 49.65 116.21"/><polygon class="cls-23" points="67.73 86.95 66.16 106.65 53.46 114 55.04 94.3 67.73 86.95"/><polygon class="cls-24" points="57.97 97.34 51.65 101 51.65 115.07 57.97 111.41 57.97 97.34"/><polygon class="cls-25" points="57.78 97.67 57.78 111.3 51.84 114.73 51.84 101.11 56.23 98.57 57.78 97.67"/><polygon class="cls-26" points="57.15 98.03 56.45 111.95 52.08 114.48 52.78 100.56 57.15 98.03"/><polygon class="cls-27" points="51.84 104.41 51.84 104.64 57.78 101.2 57.78 100.98 51.84 104.41"/><polygon class="cls-28" points="57.58 97.79 57.58 111.2 51.84 114.52 51.84 114.73 57.78 111.3 57.78 97.67 57.58 97.79"/><polygon class="cls-24" points="57.78 111.52 57.97 111.41 57.97 97.34 57.78 97.45 57.78 111.52"/><polygon class="cls-29" points="57.78 111.3 57.58 111.2 57.58 97.79 57.78 97.67 57.78 111.3"/><polygon class="cls-24" points="54.71 113.29 54.91 113.18 54.91 99.11 54.71 99.22 54.71 113.29"/><polygon class="cls-29" points="54.71 113.07 54.52 112.97 54.52 99.56 54.71 99.44 54.71 113.07"/><polygon class="cls-24" points="51.65 115.07 51.84 114.96 51.84 100.89 51.65 101 51.65 115.07"/><polygon class="cls-24" points="51.84 104.64 51.84 105.83 57.78 102.39 57.78 101.2 51.84 104.64"/><polygon class="cls-27" points="54.43 102.91 54.52 102.86 54.71 102.97 54.47 103.11 54.43 102.91"/><polygon class="cls-27" points="57.5 101.14 57.58 101.09 57.78 101.2 57.53 101.34 57.5 101.14"/><polygon class="cls-24" points="51.84 100.89 48.59 102.77 48.59 116.84 51.84 114.96 51.84 100.89"/><polygon class="cls-30" points="51.65 101.22 51.65 114.84 48.78 116.52 48.78 102.89 50.1 102.12 51.02 101.58 51.65 101.22"/><polygon class="cls-31" points="51.02 101.58 50.32 115.5 48.78 116.39 48.78 102.89 50.1 102.12 51.02 101.58"/><polygon class="cls-27" points="48.78 106.2 48.78 106.42 51.65 104.75 51.65 104.53 48.78 106.2"/><polygon class="cls-28" points="51.45 101.34 51.45 114.75 48.78 116.3 48.78 116.52 51.65 114.85 51.65 101.22 51.45 101.34"/><polygon class="cls-24" points="51.65 115.07 51.84 114.96 51.84 100.89 51.65 101 51.65 115.07"/><polygon class="cls-29" points="51.65 114.85 51.45 114.75 51.45 101.34 51.65 101.22 51.65 114.85"/><polygon class="cls-24" points="48.59 116.84 48.78 116.73 48.78 102.66 48.59 102.77 48.59 116.84"/><polygon class="cls-24" points="48.78 106.42 48.78 107.62 51.65 105.94 51.65 104.75 48.78 106.42"/><polygon class="cls-27" points="51.37 104.69 51.45 104.64 51.65 104.75 51.41 104.89 51.37 104.69"/><polygon class="cls-24" points="35.06 97.8 41.38 101.46 41.38 115.53 35.06 111.87 35.06 97.8"/><polygon class="cls-32" points="35.26 98.14 35.26 111.76 41.19 115.2 41.19 101.57 36.81 99.03 35.26 98.14"/><polygon class="cls-33" points="35.88 98.49 36.59 112.41 40.95 114.94 40.25 101.02 35.88 98.49"/><polygon class="cls-27" points="41.19 104.88 41.19 105.1 35.25 101.66 35.25 101.44 41.19 104.88"/><polygon class="cls-28" points="35.45 98.25 35.45 111.66 41.19 114.98 41.19 115.2 35.25 111.76 35.25 98.14 35.45 98.25"/><polygon class="cls-24" points="35.25 111.98 35.06 111.87 35.06 97.8 35.25 97.91 35.25 111.98"/><polygon class="cls-29" points="35.25 111.76 35.45 111.66 35.45 98.25 35.25 98.14 35.25 111.76"/><polygon class="cls-24" points="38.32 113.76 38.13 113.65 38.13 99.58 38.32 99.69 38.32 113.76"/><polygon class="cls-29" points="38.32 113.53 38.52 113.43 38.52 100.02 38.32 99.91 38.32 113.53"/><polygon class="cls-24" points="41.38 115.53 41.19 115.42 41.19 101.35 41.38 101.46 41.38 115.53"/><polygon class="cls-24" points="41.19 105.1 41.19 106.29 35.25 102.86 35.25 101.66 41.19 105.1"/><polygon class="cls-27" points="38.6 103.37 38.52 103.32 38.32 103.43 38.56 103.57 38.6 103.37"/><polygon class="cls-27" points="35.53 101.6 35.45 101.55 35.25 101.66 35.5 101.8 35.53 101.6"/><polygon class="cls-24" points="41.19 101.35 44.45 103.24 44.45 117.31 41.19 115.42 41.19 101.35"/><polygon class="cls-34" points="41.38 101.68 41.38 115.31 44.25 116.98 44.25 103.36 42.93 102.58 42.01 102.05 41.38 101.68"/><polygon class="cls-35" points="42.01 102.05 42.72 115.96 44.25 116.85 44.25 103.36 42.93 102.58 42.01 102.05"/><polygon class="cls-27" points="44.25 106.66 44.25 106.88 41.38 105.21 41.38 104.99 44.25 106.66"/><polygon class="cls-28" points="41.58 101.8 41.58 115.21 44.25 116.77 44.25 116.98 41.38 115.31 41.38 101.69 41.58 101.8"/><polygon class="cls-24" points="41.38 115.53 41.19 115.42 41.19 101.35 41.38 101.46 41.38 115.53"/><polygon class="cls-29" points="41.38 115.31 41.58 115.21 41.58 101.8 41.38 101.69 41.38 115.31"/><polygon class="cls-24" points="44.45 117.31 44.25 117.19 44.25 103.13 44.45 103.24 44.45 117.31"/><polygon class="cls-24" points="44.25 106.88 44.25 108.08 41.38 106.41 41.38 105.21 44.25 106.88"/><polygon class="cls-27" points="41.66 105.15 41.58 105.1 41.38 105.21 41.63 105.35 41.66 105.15"/><polygon class="cls-36" points="108.89 63.13 107.32 82.83 94.62 90.18 96.19 70.47 108.89 63.13"/><polygon class="cls-37" points="84.56 77.21 82.98 96.91 73.27 102.54 74.84 82.84 84.56 77.21"/><polygon class="cls-38" points="131.85 42.18 132.13 42.02 132.13 22.02 131.85 22.19 131.85 42.18"/><polygon class="cls-38" points="124 46.73 124.28 46.56 124.28 26.57 124 26.73 124 46.73"/><polygon class="cls-38" points="116.16 51.27 116.44 51.11 116.44 31.11 116.16 31.28 116.16 51.27"/><polygon class="cls-38" points="108.31 55.82 108.59 55.65 108.59 35.66 108.31 35.82 108.31 55.82"/><polygon class="cls-38" points="100.46 60.36 100.74 60.2 100.74 40.2 100.46 40.37 100.46 60.36"/><polygon class="cls-38" points="92.61 64.91 92.9 64.74 92.9 44.75 92.61 44.91 92.61 64.91"/><polygon class="cls-38" points="84.77 69.45 85.05 69.29 85.05 49.29 84.77 49.45 84.77 69.45"/><polygon class="cls-38" points="76.92 73.99 77.2 73.83 77.2 53.84 76.92 54 76.92 73.99"/><polygon class="cls-38" points="69.07 78.54 69.36 78.38 69.36 58.38 69.07 58.54 69.07 78.54"/><polygon class="cls-39" points="30.73 109.37 30.45 109.21 30.45 83.06 30.73 83.22 30.73 109.37"/><polygon class="cls-39" points="36.25 112.56 35.97 112.4 35.97 86.25 36.25 86.41 36.25 112.56"/><polygon class="cls-39" points="41.77 115.75 41.49 115.58 41.49 89.44 41.77 89.6 41.77 115.75"/><polygon class="cls-40" points="27.99 36.05 0.36 67.17 26.11 82.14 53.83 50.97 27.99 36.05"/><polygon class="cls-41" points="33.8 44.2 30.62 47.78 30.43 48 25.32 53.79 25.13 54 20.02 59.78 19.82 59.99 14.7 65.78 14.52 66.01 11.47 69.44 5.88 66.19 8.91 62.76 9.1 62.55 14.21 56.76 14.4 56.54 19.52 50.76 19.71 50.54 24.83 44.75 25.02 44.54 28.18 40.96 33.8 44.2"/><polygon class="cls-42" points="25.13 54 21.4 58.22 18.38 52.05 19.52 50.76 19.71 50.54 23.64 46.1 26.66 52.27 25.32 53.79 25.13 54"/><polygon class="cls-43" points="33.8 44.2 31.03 47.33 28 41.16 28.18 40.96 33.8 44.2"/><polygon class="cls-44" points="14.52 66.01 12.54 68.23 9.52 62.06 13.54 57.51 16.57 63.67 14.7 65.78 14.52 66.01"/><polygon class="cls-45" points="30.62 47.78 30.43 48 24.83 44.75 25.02 44.54 30.62 47.78"/><polygon class="cls-45" points="25.32 53.79 25.13 54 19.52 50.76 19.71 50.54 25.32 53.79"/><polygon class="cls-45" points="20.02 59.78 19.82 59.99 14.21 56.76 14.4 56.54 20.02 59.78"/><polygon class="cls-45" points="14.7 65.78 14.52 66.01 8.91 62.76 9.1 62.55 14.7 65.78"/><polygon class="cls-46" points="28.36 41.75 33.4 44.66 33.8 44.2 28.18 40.96 5.88 66.18 6.46 66.52 28.36 41.75"/><polygon class="cls-47" points="5.88 66.18 6.46 66.52 28.36 41.75 28.18 40.96 5.88 66.18"/><polygon class="cls-48" points="41.87 48.88 38.69 52.47 38.5 52.69 33.38 58.47 33.2 58.69 28.09 64.47 27.89 64.68 22.77 70.47 22.58 70.69 19.54 74.13 13.95 70.87 16.98 67.45 17.16 67.23 22.28 61.45 22.47 61.23 27.59 55.44 27.78 55.23 32.9 49.44 33.08 49.23 36.25 45.65 41.87 48.88"/><polygon class="cls-49" points="39.42 51.67 38.69 52.47 38.51 52.69 35.38 56.22 32.36 50.05 32.9 49.44 33.09 49.23 36.26 45.65 36.55 45.82 39.42 51.67"/><polygon class="cls-50" points="20.93 72.57 19.55 74.13 13.95 70.87 16.98 67.45 17.17 67.23 17.91 66.4 20.93 72.57"/><polygon class="cls-45" points="38.69 52.47 38.5 52.69 32.9 49.44 33.08 49.23 38.69 52.47"/><polygon class="cls-45" points="33.38 58.47 33.2 58.69 27.59 55.44 27.78 55.23 33.38 58.47"/><polygon class="cls-45" points="28.09 64.47 27.89 64.68 22.28 61.45 22.47 61.23 28.09 64.47"/><polygon class="cls-45" points="22.77 70.47 22.58 70.69 16.98 67.45 17.16 67.23 22.77 70.47"/><polygon class="cls-46" points="36.43 46.44 41.46 49.34 41.87 48.89 36.25 45.64 13.95 70.87 14.53 71.21 36.43 46.44"/><polygon class="cls-47" points="13.95 70.87 14.53 71.21 36.43 46.44 36.25 45.64 13.95 70.87"/><polygon class="cls-51" points="116.16 14.97 90.41 0 27.99 36.05 53.83 50.97 116.16 14.97"/><polygon class="cls-52" points="33.02 36.05 90.4 2.91 111.14 14.96 53.83 48.06 33.02 36.05"/><polygon class="cls-53" points="36.53 38.07 53.83 48.06 107.65 16.98 90.4 6.95 36.53 38.07"/><polygon class="cls-54" points="41.42 43.81 20.94 58.38 13.79 74.92 39.54 89.9 67.26 58.73 41.42 43.81"/><polygon class="cls-55" points="129.59 22.73 103.83 7.76 101.28 9.23 100.81 12.95 46.94 44.08 43.94 42.35 41.42 43.81 67.26 58.73 129.59 22.73"/><polygon class="cls-56" points="46.12 99.46 73.75 83.5 73.75 56.19 46.12 72.15 46.12 99.46"/><polygon class="cls-13" points="46.12 99.46 22.95 86.07 22.95 58.76 46.12 72.15 46.12 99.46"/><polygon class="cls-5" points="138.55 40.13 138.55 46.07 73.75 83.5 73.75 77.66 138.55 40.13"/><polygon class="cls-57" points="136.16 20.13 131.4 22.88 130.77 23.25 121.68 28.49 121.68 28.5 73.75 56.19 58.64 47.45 50.59 42.8 108.4 9.4 113 6.74 124.99 13.68 136.16 20.13"/><polygon class="cls-58" points="113 6.74 113 16.05 58.64 47.45 50.59 52.1 50.59 42.8 113 6.74"/><polygon class="cls-59" points="136.16 39.72 113 26.19 113 6.74 136.16 20.13 136.16 39.72"/><polygon class="cls-60" points="138.91 40.34 138.91 46.26 131.4 50.6 131.4 44.68 138.91 40.34"/><polygon class="cls-14" points="131.04 44.47 131.04 50.39 131.4 50.6 131.4 44.68 131.04 44.47"/><polygon class="cls-4" points="138.55 40.13 131.04 44.47 131.4 44.68 138.91 40.34 138.55 40.13"/><polygon class="cls-60" points="131.19 44.81 131.19 50.73 123.68 55.07 123.68 49.15 131.19 44.81"/><polygon class="cls-14" points="123.32 48.94 123.32 54.86 123.68 55.07 123.68 49.15 123.32 48.94"/><polygon class="cls-4" points="130.83 44.61 123.32 48.94 123.68 49.15 131.19 44.81 130.83 44.61"/><polygon class="cls-60" points="123.47 49.28 123.47 55.2 115.96 59.54 115.96 53.62 123.47 49.28"/><polygon class="cls-14" points="115.6 53.41 115.6 59.33 115.96 59.54 115.96 53.62 115.6 53.41"/><polygon class="cls-4" points="123.11 49.08 115.6 53.41 115.96 53.62 123.47 49.28 123.11 49.08"/><polygon class="cls-60" points="115.75 53.75 115.75 59.67 108.23 64.01 108.23 58.09 115.75 53.75"/><polygon class="cls-14" points="107.88 57.88 107.88 63.8 108.23 64.01 108.23 58.09 107.88 57.88"/><polygon class="cls-4" points="115.39 53.55 107.88 57.88 108.23 58.09 115.75 53.75 115.39 53.55"/><polygon class="cls-60" points="108.03 58.22 108.03 64.14 100.52 68.48 100.52 62.56 108.03 58.22"/><polygon class="cls-14" points="100.16 62.35 100.16 68.27 100.52 68.48 100.52 62.56 100.16 62.35"/><polygon class="cls-4" points="107.67 58.02 100.16 62.35 100.52 62.56 108.03 58.22 107.67 58.02"/><polygon class="cls-60" points="100.31 62.7 100.31 68.61 92.8 72.95 92.8 67.03 100.31 62.7"/><polygon class="cls-14" points="92.44 66.83 92.44 72.74 92.8 72.95 92.8 67.03 92.44 66.83"/><polygon class="cls-4" points="99.95 62.49 92.44 66.83 92.8 67.03 100.31 62.7 99.95 62.49"/><polygon class="cls-60" points="92.59 67.17 92.59 73.08 85.07 77.42 85.07 71.5 92.59 67.17"/><polygon class="cls-14" points="84.72 71.3 84.72 77.21 85.07 77.42 85.07 71.5 84.72 71.3"/><polygon class="cls-4" points="92.23 66.96 84.72 71.3 85.07 71.5 92.59 67.17 92.23 66.96"/><polygon class="cls-60" points="84.87 71.64 84.87 77.55 77.35 81.89 77.35 75.97 84.87 71.64"/><polygon class="cls-14" points="77 75.77 77 81.68 77.35 81.89 77.35 75.97 77 75.77"/><polygon class="cls-4" points="84.51 71.43 77 75.77 77.35 75.97 84.87 71.64 84.51 71.43"/><polygon class="cls-60" points="77.15 76.11 77.15 82.03 69.63 86.36 69.63 80.44 77.15 76.11"/><polygon class="cls-14" points="69.28 80.24 69.28 86.16 69.63 86.36 69.63 80.44 69.28 80.24"/><polygon class="cls-4" points="76.79 75.9 69.28 80.24 69.63 80.44 77.15 76.11 76.79 75.9"/><polygon class="cls-60" points="69.43 80.58 69.43 86.5 61.91 90.83 61.91 84.91 69.43 80.58"/><polygon class="cls-14" points="61.56 84.71 61.56 90.63 61.91 90.83 61.91 84.91 61.56 84.71"/><polygon class="cls-4" points="69.07 80.37 61.56 84.71 61.91 84.91 69.43 80.58 69.07 80.37"/><polygon class="cls-60" points="61.71 85.05 61.71 90.97 54.19 95.3 54.19 89.39 61.71 85.05"/><polygon class="cls-14" points="53.84 89.18 53.84 95.1 54.19 95.3 54.19 89.39 53.84 89.18"/><polygon class="cls-4" points="61.35 84.84 53.84 89.18 54.19 89.39 61.71 85.05 61.35 84.84"/><polygon class="cls-60" points="53.99 89.52 53.99 95.44 46.47 99.77 46.47 93.86 53.99 89.52"/><polygon class="cls-14" points="46.12 93.65 46.12 99.57 46.47 99.77 46.47 93.86 46.12 93.65"/><polygon class="cls-4" points="53.63 89.31 46.12 93.65 46.47 93.86 53.99 89.52 53.63 89.31"/><polygon class="cls-13" points="23.16 80.78 23.16 86.7 30.67 91.04 30.67 85.12 23.16 80.78"/><polygon class="cls-14" points="31.03 84.91 31.03 90.83 30.67 91.04 30.67 85.12 31.03 84.91"/><polygon class="cls-4" points="23.52 80.58 31.03 84.91 30.67 85.12 23.16 80.78 23.52 80.58"/><polygon class="cls-13" points="30.88 85.25 30.88 91.17 38.4 95.51 38.4 89.59 30.88 85.25"/><polygon class="cls-14" points="38.75 89.39 38.75 95.3 38.4 95.51 38.4 89.59 38.75 89.39"/><polygon class="cls-4" points="31.24 85.05 38.75 89.39 38.4 89.59 30.88 85.25 31.24 85.05"/><polygon class="cls-13" points="38.6 89.73 38.6 95.64 46.12 99.98 46.12 94.06 38.6 89.73"/><polygon class="cls-60" points="46.47 93.86 46.47 99.77 46.12 99.98 46.12 94.06 46.47 93.86"/><polygon class="cls-4" points="38.96 89.52 46.47 93.86 46.12 94.06 38.6 89.73 38.96 89.52"/><polygon class="cls-61" points="108.69 9.22 108.98 9.06 132.13 22.45 131.85 22.62 108.69 9.22"/><polygon class="cls-61" points="100.86 13.76 101.14 13.6 124.27 26.98 123.99 27.14 100.86 13.76"/><polygon class="cls-61" points="93.03 18.3 93.31 18.14 116.41 31.5 116.13 31.66 93.03 18.3"/><polygon class="cls-61" points="85.19 22.84 85.48 22.68 108.56 36.02 108.27 36.19 85.19 22.84"/><polygon class="cls-61" points="77.36 27.38 77.64 27.21 100.7 40.55 100.41 40.71 77.36 27.38"/><polygon class="cls-61" points="69.53 31.91 69.81 31.75 92.84 45.07 92.55 45.24 69.53 31.91"/><polygon class="cls-61" points="61.7 36.45 61.98 36.29 84.98 49.6 84.69 49.76 61.7 36.45"/><polygon class="cls-61" points="53.86 40.99 54.15 40.83 77.12 54.12 76.84 54.28 53.86 40.99"/><polygon class="cls-61" points="46.03 45.53 46.31 45.37 69.26 58.64 68.98 58.81 46.03 45.53"/><polygon class="cls-51" points="50.58 42.8 22.95 58.76 46.12 72.15 73.75 56.19 50.58 42.8"/><polygon class="cls-62" points="97.88 15.47 111.17 34.57 98.47 41.91 85.18 22.81 97.88 15.47"/><polygon class="cls-63" points="131.4 22.88 130.77 23.25 121.68 28.5 121.68 28.49 108.4 9.4 113 6.74 124.99 13.68 131.4 22.88"/><polygon class="cls-64" points="73.55 29.53 86.83 48.63 77.12 54.24 63.83 35.14 73.55 29.53"/><polygon class="cls-65" points="113.96 64.41 46.12 103.58 46.12 99.98 113.96 60.7 113.96 64.41"/><polygon class="cls-66" points="36.53 38.07 33.02 36.05 90.4 2.91 90.4 6.95 36.53 38.07"/><polygon class="cls-67" points="46.12 102.79 46.12 118.25 46.92 118.72 46.92 103.25 46.12 102.79"/><polygon class="cls-67" points="57.97 95.94 57.97 111.41 58.77 111.87 58.77 96.41 57.97 95.94"/><polygon class="cls-68" points="59.69 94.86 46.12 102.79 46.92 103.25 60.49 95.32 59.69 94.86"/><polygon class="cls-69" points="46.92 103.15 46.92 118.72 48.63 117.72 48.63 104.14 58.77 98.29 58.77 111.87 60.49 110.88 60.49 95.32 46.92 103.15"/><polygon class="cls-69" points="46.92 103.15 46.92 118.72 46.12 119.18 46.12 103.62 46.92 103.15"/><polygon class="cls-69" points="35.06 96.41 35.06 111.87 34.26 112.33 34.26 96.87 35.06 96.41"/><polygon class="cls-68" points="33.34 95.32 46.92 103.25 46.12 103.71 32.54 95.78 33.34 95.32"/><polygon class="cls-67" points="46.12 103.62 46.12 119.18 44.4 118.19 44.4 104.61 34.26 98.75 34.26 112.33 32.54 111.34 32.54 95.78 46.12 103.62"/><g class="cls-70"><path d="M52.59,83.13V82.5l-2.21,1.28,0-4.12.62-.36,0,3.43L52.2,82l0-3.43.61-.36,0,3.44.28-.16v1.33Z"/><path d="M54.92,81.15l0-4.13,2.27-1.31v.69l-1.64.95v1l1.24-.72v.69L55.53,79v1.1l1.63-.95v.7Z"/><path d="M60.7,77.81V76l-1.22.71v1.85l-.61.36V74.73l.61-.36V76l1.22-.71v-1.6l.62-.35v4.15Z"/><path d="M63.77,76V72.58l-.88.5v-.69L65.39,71v.69l-1,.58v3.46Z"/><path d="M66.9,74.23l0-4.16,1.22-.71a4.8,4.8,0,0,1,.56-.28.54.54,0,0,1,.37,0,.43.43,0,0,1,.19.3,2.73,2.73,0,0,1,.06.66,4.62,4.62,0,0,1-.07.72,1.41,1.41,0,0,1-.2.52,1.67,1.67,0,0,1-.36.4,5,5,0,0,1-.56.37l-.6.34v1.5Zm1.78-3.87a1.42,1.42,0,0,0,0-.33c0-.07-.05-.12-.09-.13a.19.19,0,0,0-.16,0l-.25.13-.61.35v1.28l.61-.35.25-.16a.55.55,0,0,0,.17-.17.67.67,0,0,0,.09-.24,1.73,1.73,0,0,0,0-.36Z"/><path d="M51.27,89.41l0-3.4-.86.5v-.68l2.35-1.36v.68l-.87.51,0,3.4Z"/><path d="M53.29,88.24l0-4.09,2.23-1.29v.69l-1.62.93v1l1.23-.7v.68l-1.22.71V87.2l1.61-.93V87Z"/><path d="M57.39,84.2l-.15.52-.56,1.57-.76.43L56.2,86l.3-.72c.1-.25.19-.49.29-.73l.28-.67-.25-.33-.26-.36-.27-.35L56,82.55l.76-.44.43.81.16.32.15-.5L58,81.43l.76-.43c-.08.19-.17.4-.25.62s-.18.44-.26.66-.18.43-.26.65-.17.42-.24.61.18.23.27.36l.3.38c.1.12.21.25.3.38l.29.35-.76.44-.57-.91Z"/><path d="M61,83.77V81.94l-1.2.7v1.83l-.61.35v-4.1l.61-.36v1.58l1.21-.7V79.66l.61-.35v4.11Z"/><path d="M62.38,83V78.88l.62-.35v4.11Z"/><path d="M64.61,80l-.27.16v1.7l-.61.35V78.1l.61-.35v1.72l.28-.16.92-2.25.71-.41L65.68,78c-.19.45-.38.91-.58,1.36.19.23.39.46.57.7s.38.47.57.69l-.71.42Z"/><path d="M66.74,80.48V76.36l.58-.33,0,2.83.13-.48,1-3,.63-.36,0,4.12-.57.34V76.61l-.1.4-1.08,3.11Z"/></g><path d="M70.61,66.89a.59.59,0,0,1-.19-.52,1.52,1.52,0,0,1,.2-.76,1.31,1.31,0,0,1,.48-.53.41.41,0,0,1,.48,0,.62.62,0,0,1,.19.53,1.61,1.61,0,0,1-.19.75,1.47,1.47,0,0,1-.48.53A.42.42,0,0,1,70.61,66.89Zm.11-.19a.32.32,0,0,0,.38,0,1,1,0,0,0,.37-.41,1.33,1.33,0,0,0,.15-.6.48.48,0,0,0-.15-.41.29.29,0,0,0-.37,0,.93.93,0,0,0-.38.42,1.26,1.26,0,0,0-.15.59A.51.51,0,0,0,70.72,66.7Zm.53-.3-.15-.32-.11.06v.41l-.15.08v-1l.31-.18c.14-.08.24,0,.24.16a.61.61,0,0,1-.14.37l.16.34ZM71,65.71V66l.15-.09a.23.23,0,0,0,.1-.19c0-.08,0-.1-.1-.06Z"/><g class="cls-2"><rect class="cls-71" x="60.68" y="82.5" width="1.85" height="0.62" transform="translate(-22.27 142.95) rotate(-89)"/><rect class="cls-71" x="60.85" y="80.08" width="1.58" height="0.62" transform="translate(-19.82 140.62) rotate(-89)"/><polygon class="cls-72" points="61.96 79.61 61.34 79.6 61.94 79.25 62.56 79.26 61.96 79.61"/><polygon class="cls-72" points="60.73 81.89 60.12 81.88 61.32 81.18 61.94 81.19 60.73 81.89"/><polygon class="cls-72" points="60.16 80.66 59.55 80.64 60.14 80.3 60.76 80.31 60.16 80.66"/><rect class="cls-71" x="57.75" y="82.41" width="4.13" height="0.62" transform="translate(-23.93 141.08) rotate(-89)"/><polygon class="cls-73" points="62.56 79.26 62.49 83.38 61.89 83.74 61.92 81.89 60.72 82.58 60.69 84.43 60.09 84.79 60.16 80.66 60.76 80.31 60.73 81.89 61.94 81.19 61.96 79.61 62.56 79.26"/></g><g class="cls-2"><polygon class="cls-72" points="58.94 81.37 58.32 81.36 59.07 80.92 59.69 80.94 58.94 81.37"/><polygon class="cls-71" points="59 85.42 58.38 85.4 57.84 84.48 58.46 84.5 59 85.42"/><polygon class="cls-74" points="58.49 82.68 57.88 82.67 58.32 81.36 58.94 81.37 58.49 82.68"/><polygon class="cls-71" points="58.46 84.5 57.84 84.48 57.7 84.14 58.31 84.15 58.46 84.5"/><polygon class="cls-74" points="58.33 83.18 57.71 83.17 57.88 82.67 58.49 82.68 58.33 83.18"/><g class="cls-2"><g class="cls-75"><g class="cls-2"><path class="cls-76" d="M57.72,84.55H57.1c.11-.25.19-.48.28-.68H58c-.09.2-.18.44-.28.68"/></g></g></g><g class="cls-2"><g class="cls-77"><g class="cls-2"><path class="cls-76" d="M57.41,85.27h-.62c.11-.24.21-.48.31-.72h.62c-.1.24-.2.48-.31.72"/></g></g></g><polygon class="cls-72" points="57.03 82.48 56.41 82.47 57.16 82.03 57.78 82.05 57.03 82.48"/><g class="cls-2"><g class="cls-78"><g class="cls-2"><path class="cls-76" d="M58,83.87h-.62l-.23-.34-.25-.36-.25-.35c-.08-.12-.17-.23-.23-.34H57c.07.11.15.22.24.34l.25.35.25.36.23.34"/></g></g></g><path class="cls-73" d="M59.69,80.94c-.09.19-.17.4-.26.62l-.27.66-.27.65-.25.62q.13.17.27.36l.28.38.29.38c.1.13.18.26.27.37l-.75.43-.54-.91-.15-.35-.15.52-.59,1.58-.75.44.29-.69.3-.73c.11-.24.21-.48.31-.72s.19-.48.28-.68l-.23-.34-.25-.36-.25-.35c-.09-.12-.17-.23-.24-.34l.75-.44.41.82.14.32.16-.5.45-1.31Z"/><g class="cls-2"><g class="cls-79"><g class="cls-2"><path class="cls-76" d="M56.82,86.69H56.2l.29-.69c.1-.24.21-.49.3-.73h.62l-.3.73-.29.69"/></g></g></g><polygon class="cls-72" points="56.6 80.03 55.98 80.02 57.6 79.08 58.21 79.09 56.6 80.03"/><polygon class="cls-72" points="56.63 78.24 56.01 78.23 57.23 77.52 57.85 77.53 56.63 78.24"/><rect class="cls-71" x="53.64" y="78.7" width="4.12" height="0.62" transform="translate(-24.27 133.32) rotate(-89)"/><polygon class="cls-73" points="58.27 75.65 58.26 76.35 56.64 77.28 56.63 78.24 57.85 77.53 57.84 78.22 56.62 78.93 56.6 80.03 58.21 79.09 58.2 79.78 55.97 81.08 56.04 76.96 58.27 75.65"/><polygon class="cls-72" points="56.04 76.96 55.42 76.94 57.66 75.64 58.27 75.65 56.04 76.96"/></g><g class="cls-2"><polygon class="cls-72" points="54.84 87.16 54.22 87.15 55.81 86.22 56.43 86.23 54.84 87.16"/><polygon class="cls-72" points="54.87 85.38 54.25 85.37 55.45 84.66 56.07 84.67 54.87 85.38"/><rect class="cls-71" x="51.87" y="85.83" width="4.13" height="0.62" transform="translate(-33.13 138.57) rotate(-89)"/><polygon class="cls-72" points="54.28 84.08 53.66 84.07 55.87 82.79 56.49 82.8 54.28 84.08"/><polygon class="cls-73" points="56.49 82.8 56.48 83.49 54.88 84.42 54.87 85.38 56.07 84.67 56.06 85.35 54.86 86.06 54.84 87.16 56.43 86.23 56.42 86.93 54.21 88.21 54.28 84.08 56.49 82.8"/></g><g class="cls-2"><polygon class="cls-72" points="53.92 81.58 53.3 81.57 53.57 81.41 54.18 81.42 53.92 81.58"/><rect class="cls-71" x="53.04" y="82.42" width="0.63" height="0.62" transform="translate(-30.3 134.64) rotate(-89)"/><rect class="cls-71" x="51.32" y="79.91" width="3.43" height="0.62" transform="translate(-28.1 131.84) rotate(-89)"/><polygon class="cls-72" points="53.37 78.51 52.75 78.5 53.36 78.15 53.98 78.16 53.37 78.51"/><polygon class="cls-72" points="52.11 82.64 51.49 82.63 52.69 81.93 53.31 81.94 52.11 82.64"/><polygon class="cls-72" points="51.56 79.57 50.94 79.56 51.55 79.21 52.17 79.22 51.56 79.57"/><rect class="cls-71" x="49.15" y="81.32" width="4.13" height="0.62" transform="translate(-31.29 131.41) rotate(-89)"/><polygon class="cls-73" points="53.98 78.16 53.92 81.58 54.18 81.42 54.16 82.76 53.66 83.05 53.67 82.42 51.49 83.7 51.56 79.57 52.17 79.22 52.11 82.64 53.31 81.94 53.37 78.51 53.98 78.16"/></g><g class="cls-2"><rect class="cls-71" x="60.45" y="76.52" width="1.85" height="0.62" transform="translate(-16.51 136.86) rotate(-89)"/><rect class="cls-71" x="60.63" y="74.11" width="1.58" height="0.62" transform="translate(-14.06 134.53) rotate(-89)"/><polygon class="cls-72" points="61.74 73.64 61.12 73.62 61.73 73.27 62.35 73.28 61.74 73.64"/><polygon class="cls-72" points="60.5 75.92 59.89 75.91 61.1 75.2 61.71 75.21 60.5 75.92"/><polygon class="cls-72" points="59.93 74.69 59.31 74.68 59.91 74.32 60.53 74.33 59.93 74.69"/><rect class="cls-71" x="57.52" y="76.44" width="4.12" height="0.62" transform="translate(-18.2 134.98) rotate(-89)"/><polygon class="cls-73" points="62.35 73.28 62.27 77.41 61.67 77.76 61.7 75.91 60.49 76.62 60.46 78.45 59.85 78.81 59.93 74.69 60.53 74.33 60.5 75.92 61.71 75.21 61.74 73.64 62.35 73.28"/></g><g class="cls-2"><rect class="cls-71" x="62.7" y="73.96" width="3.44" height="0.62" transform="translate(-10.96 137.38) rotate(-89)"/><rect class="cls-71" x="63.24" y="72.4" width="0.69" height="0.62" transform="translate(-10.22 135.02) rotate(-89)"/><polygon class="cls-72" points="63.9 72.37 63.29 72.36 65.73 70.93 66.35 70.94 63.9 72.37"/><polygon class="cls-73" points="66.35 70.94 66.34 71.63 65.37 72.19 65.31 75.63 64.7 75.99 64.76 72.55 63.89 73.06 63.9 72.37 66.35 70.94"/></g><g class="cls-2"><g class="cls-2"><g class="cls-80"><g class="cls-2"><path class="cls-81" d="M69.59,69.09H69a.64.64,0,0,1,.22,0h.62a.74.74,0,0,0-.23,0"/></g></g></g><rect class="cls-71" x="69.23" y="70.06" width="0.04" height="0.62" transform="translate(-2.32 138.38) rotate(-89)"/><g class="cls-2"><g class="cls-82"><g class="cls-2"><path class="cls-76" d="M69.56,70.36h-.62a2.5,2.5,0,0,0,0-.33l.62,0a2.33,2.33,0,0,1,0,.32"/></g></g></g><g class="cls-2"><g class="cls-83"><g class="cls-2"><path class="cls-76" d="M69.43,71h-.62a.5.5,0,0,0,.09-.24,2.43,2.43,0,0,0,0-.36l.61,0a1.73,1.73,0,0,1,0,.36.58.58,0,0,1-.09.23"/></g></g></g><polygon class="cls-71" points="69.53 70.03 68.92 70.03 68.83 69.89 69.45 69.9 69.53 70.03"/><polygon class="cls-84" points="69.27 71.16 68.65 71.14 68.81 70.98 69.43 70.99 69.27 71.16"/><g class="cls-2"><g class="cls-85"><g class="cls-2"><path class="cls-86" d="M69,71.31h-.61l.24-.15h.62a1.83,1.83,0,0,1-.25.15"/></g></g></g><g class="cls-2"><g class="cls-87"><g class="cls-2"><path class="cls-86" d="M69.05,69.37h-.62a4.1,4.1,0,0,1,.55-.28h.61a4.8,4.8,0,0,0-.54.28"/></g></g></g><polygon class="cls-72" points="68.43 71.66 67.81 71.65 68.41 71.3 69.03 71.31 68.43 71.66"/><rect class="cls-71" x="65.44" y="71.82" width="4.12" height="0.62" transform="translate(-5.79 138.36) rotate(-89)"/><path class="cls-73" d="M70.14,69.36a3.61,3.61,0,0,1,0,.66,4.24,4.24,0,0,1-.08.71,1.87,1.87,0,0,1-.19.52,1.69,1.69,0,0,1-.37.39A4.74,4.74,0,0,1,69,72l-.58.34,0,1.48-.61.36.07-4.12,1.2-.7a4.8,4.8,0,0,1,.54-.28.74.74,0,0,1,.23,0,.28.28,0,0,1,.13,0A.4.4,0,0,1,70.14,69.36Zm-.59,1v0a2.33,2.33,0,0,0,0-.32l-.09-.14-.16,0a1.47,1.47,0,0,0-.24.13l-.6.34,0,1.27.59-.35a1.83,1.83,0,0,0,.25-.15l.16-.17a.58.58,0,0,0,.09-.23,1.73,1.73,0,0,0,0-.36"/><polygon class="cls-72" points="67.85 70.07 67.23 70.06 68.43 69.36 69.05 69.37 67.85 70.07"/></g><g class="cls-2"><rect class="cls-71" x="50.21" y="87.35" width="3.44" height="0.62" transform="translate(-36.62 138.05) rotate(-89)"/><rect class="cls-71" x="50.76" y="85.79" width="0.68" height="0.62" transform="translate(-35.87 135.69) rotate(-89)"/><polygon class="cls-72" points="51.42 85.76 50.8 85.75 53.13 84.39 53.75 84.4 51.42 85.76"/><polygon class="cls-73" points="53.75 84.4 53.73 85.09 52.88 85.59 52.82 89.02 52.21 89.38 52.27 85.94 51.41 86.44 51.42 85.76 53.75 84.4"/></g><g class="cls-2"><rect class="cls-71" x="60.88" y="80.58" width="4.13" height="0.62" transform="translate(-19.02 142.42) rotate(-89)"/><polygon class="cls-72" points="63.3 78.83 62.68 78.82 63.28 78.47 63.9 78.48 63.3 78.83"/><polygon class="cls-73" points="63.9 78.48 63.83 82.6 63.22 82.96 63.3 78.83 63.9 78.48"/></g><g class="cls-2"><rect class="cls-71" x="67.6" y="77.67" width="2.84" height="0.62" transform="translate(-10.16 145.63) rotate(-89)"/><polygon class="cls-72" points="69.31 75.31 68.7 75.3 69.32 74.95 69.94 74.96 69.31 75.31"/><polygon class="cls-88" points="68.24 78.34 67.63 78.33 68.7 75.3 69.31 75.31 68.24 78.34"/><polygon class="cls-74" points="68.11 78.82 67.5 78.81 67.63 78.33 68.24 78.34 68.11 78.82"/><polygon class="cls-72" points="67.6 76.32 66.98 76.31 67.55 75.98 68.16 75.99 67.6 76.32"/><rect class="cls-71" x="65.2" y="78.07" width="4.12" height="0.62" transform="translate(-12.28 144.25) rotate(-89)"/><polygon class="cls-73" points="69.94 74.96 69.86 79.08 69.3 79.41 69.35 76.57 69.25 76.97 68.15 80.08 67.53 80.44 67.6 76.32 68.16 75.99 68.11 78.82 68.24 78.34 69.31 75.31 69.94 74.96"/></g><g class="cls-2"><polygon class="cls-72" points="66.4 77.02 65.78 77.01 66.49 76.59 67.11 76.6 66.4 77.02"/><polygon class="cls-71" points="66.33 81.14 65.71 81.13 64.84 79.94 65.46 79.96 66.33 81.14"/><polygon class="cls-88" points="65.47 79.26 64.85 79.25 65.78 77.01 66.4 77.02 65.47 79.26"/><polygon class="cls-72" points="65.19 79.43 64.58 79.42 64.85 79.25 65.47 79.26 65.19 79.43"/><polygon class="cls-72" points="64.63 78.05 64.01 78.04 64.61 77.69 65.22 77.7 64.63 78.05"/><rect class="cls-71" x="62.22" y="79.8" width="4.13" height="0.62" transform="translate(-16.94 142.98) rotate(-89)"/><path class="cls-73" d="M67.11,76.6c-.19.46-.38.91-.58,1.37s-.39.9-.59,1.35l.55.71c.19.23.37.47.55.7l-.71.41L65.46,80l-.28.15,0,1.72-.6.35.08-4.13.59-.35,0,1.73.28-.17L66.4,77Z"/></g><g class="cls-2"><g class="cls-2"><g class="cls-89"><g class="cls-2"><path class="cls-76" d="M71.91,66.16h-.62a1.41,1.41,0,0,0,.16-.59.5.5,0,0,0-.14-.41h.62a.47.47,0,0,1,.13.41,1.26,1.26,0,0,1-.15.59"/></g></g></g><g class="cls-2"><g class="cls-90"><g class="cls-2"><path class="cls-76" d="M71.93,65.16h-.62a.26.26,0,0,0-.16-.07h.62a.26.26,0,0,1,.16.07"/></g></g></g><g class="cls-2"><g class="cls-91"><g class="cls-2"><path class="cls-86" d="M71.62,65.32H71l0,0h.62l0,0"/><path class="cls-81" d="M71.66,65.3h0"/></g></g></g><polygon class="cls-71" points="71.7 65.58 71.09 65.56 70.99 65.5 71.61 65.51 71.7 65.58"/><polygon class="cls-92" points="71.6 65.76 70.98 65.75 71.09 65.56 71.7 65.58 71.6 65.76"/><g class="cls-2"><g class="cls-93"><g class="cls-2"><path class="cls-86" d="M71.55,66.58h-.62l.08,0h.62l-.08,0"/><path class="cls-76" d="M71.63,66.53H71a1.24,1.24,0,0,0,.28-.37h.62a1.24,1.24,0,0,1-.28.37"/></g></g></g><polygon class="cls-71" points="71.7 66.3 71.08 66.28 70.94 65.96 71.56 65.97 71.7 66.3"/><polygon class="cls-72" points="71.46 65.85 70.84 65.84 70.98 65.75 71.6 65.76 71.46 65.85"/><g class="cls-2"><g class="cls-94"><g class="cls-2"><path class="cls-81" d="M71.34,66.64h-.62l.13,0h.62l-.13,0"/><path class="cls-86" d="M71.47,66.62h-.62l.08,0h.62l-.08,0"/></g></g></g><polygon class="cls-72" points="71.32 65.5 70.7 65.49 71 65.31 71.62 65.32 71.32 65.5"/><rect class="cls-71" x="70.49" y="65.7" width="1.03" height="0.62" transform="translate(3.77 135.84) rotate(-89)"/><path class="cls-73" d="M72,65a.62.62,0,0,1,.18.53,1.59,1.59,0,0,1-.2.75,1.32,1.32,0,0,1-.46.52.48.48,0,0,1-.28.08.33.33,0,0,1-.19-.06.65.65,0,0,1-.18-.53,1.69,1.69,0,0,1,.21-.75,1.24,1.24,0,0,1,.47-.53.46.46,0,0,1,.26-.08A.26.26,0,0,1,72,65Zm-.12,1.2a1.26,1.26,0,0,0,.15-.59.47.47,0,0,0-.13-.41.26.26,0,0,0-.16-.07.37.37,0,0,0-.2.07,1,1,0,0,0-.36.42,1.21,1.21,0,0,0-.16.59.52.52,0,0,0,.14.41.2.2,0,0,0,.15.06.48.48,0,0,0,.21-.06,1.08,1.08,0,0,0,.36-.42"/><path class="cls-73" d="M71.84,65.49a.63.63,0,0,1-.13.36l.15.35-.16.1L71.56,66l-.1.06v.41l-.15.08,0-1,.3-.18.1,0C71.8,65.29,71.84,65.36,71.84,65.49Zm-.24.27.1-.18-.09-.07-.15.09v.25l.14-.09"/><g class="cls-2"><g class="cls-95"><g class="cls-2"><path class="cls-76" d="M71.27,66.84h-.62a.28.28,0,0,1-.18-.06.59.59,0,0,1-.18-.53,1.56,1.56,0,0,1,.2-.75,1.5,1.5,0,0,1,.35-.45l.61,0a1.32,1.32,0,0,0-.34.44,1.69,1.69,0,0,0-.21.75.65.65,0,0,0,.18.53.33.33,0,0,0,.19.06"/><path class="cls-86" d="M71.45,65.06l-.61,0L71,65l.11,0h.62l-.11,0a.38.38,0,0,0-.13.09"/><path class="cls-81" d="M71.69,64.92h-.62l.15,0h.62l-.15,0"/></g></g></g></g></g></g></g></svg>