<svg xmlns="http://www.w3.org/2000/svg" xmlns:xlink="http://www.w3.org/1999/xlink" viewBox="0 0 110.43 153.91"><defs><style>.cls-1{isolation:isolate;}.cls-2{fill:#e69e9e;}.cls-3{fill:#996969;}.cls-4{fill:#ff8d8b;}.cls-5{fill:url(#Безымянный_градиент_22);}.cls-6{fill:#d95687;}.cls-6,.cls-62,.cls-7{mix-blend-mode:multiply;}.cls-7{fill:#d1606a;}.cls-10,.cls-16,.cls-17,.cls-18,.cls-19,.cls-21,.cls-22,.cls-40,.cls-45,.cls-47,.cls-49,.cls-51,.cls-53,.cls-55,.cls-57,.cls-59,.cls-61,.cls-8,.cls-9{mix-blend-mode:screen;}.cls-8{fill:url(#Безымянный_градиент_19);}.cls-9{fill:url(#Безымянный_градиент_12);}.cls-10{fill:url(#Безымянный_градиент_12-2);}.cls-11{fill:url(#Безымянный_градиент_11);}.cls-12{fill:#915154;}.cls-13{fill:url(#Безымянный_градиент_22-2);}.cls-14{fill:#f5a1c1;}.cls-15{fill:url(#Безымянный_градиент_22-3);}.cls-16{fill:url(#Безымянный_градиент_20);}.cls-17{fill:url(#Безымянный_градиент_19-2);}.cls-18{fill:url(#Безымянный_градиент_20-2);}.cls-19{fill:url(#Безымянный_градиент_19-3);}.cls-20{fill:url(#Безымянный_градиент_18);}.cls-21{fill:url(#Безымянный_градиент_12-3);}.cls-22{fill:url(#Безымянный_градиент_12-4);}.cls-23{fill:url(#Безымянный_градиент_11-2);}.cls-24{fill:url(#Безымянный_градиент_10);}.cls-25{fill:#80786b;}.cls-26{fill:#3c2223;}.cls-27{fill:#9e3a43;}.cls-28{fill:#702735;}.cls-29{fill:#963d4d;}.cls-30{fill:#8a3646;}.cls-31{fill:#bb6558;}.cls-32{fill:#4d2b2c;}.cls-33{fill:#6d3d3e;}.cls-34{fill:url(#Безымянный_градиент_10-2);}.cls-35{fill:#bf8484;}.cls-36{fill:#996989;}.cls-37{fill:#ffb0e6;}.cls-38{fill:#686157;}.cls-39{fill:url(#Безымянный_градиент_8);}.cls-40{fill:url(#Безымянный_градиент_6);}.cls-41{fill:#9c9283;}.cls-42{fill:#3d3933;}.cls-43{fill:#e69e7e;}.cls-44{fill:url(#Безымянный_градиент_8-2);}.cls-45{fill:url(#Безымянный_градиент_6-2);}.cls-46{fill:url(#Безымянный_градиент_8-3);}.cls-47{fill:url(#Безымянный_градиент_6-3);}.cls-48{fill:url(#Безымянный_градиент_8-4);}.cls-49{fill:url(#Безымянный_градиент_6-4);}.cls-50{fill:url(#Безымянный_градиент_8-5);}.cls-51{fill:url(#Безымянный_градиент_6-5);}.cls-52{fill:url(#Безымянный_градиент_8-6);}.cls-53{fill:url(#Безымянный_градиент_6-6);}.cls-54{fill:url(#Безымянный_градиент_8-7);}.cls-55{fill:url(#Безымянный_градиент_6-7);}.cls-56{fill:url(#Безымянный_градиент_8-8);}.cls-57{fill:url(#Безымянный_градиент_6-8);}.cls-58{fill:url(#Безымянный_градиент_8-9);}.cls-59{fill:url(#Безымянный_градиент_6-9);}.cls-60{fill:url(#Безымянный_градиент_8-10);}.cls-61{fill:url(#Безымянный_градиент_6-10);}.cls-62{fill:#bf5352;}.cls-63{fill:#e663bc;}.cls-64{fill:url(#Безымянный_градиент_2);}.cls-65{fill:#ff0400;}</style><linearGradient id="Безымянный_градиент_22" x1="48.25" y1="143.04" x2="29.67" y2="91.98" gradientUnits="userSpaceOnUse"><stop offset="0" stop-color="#e887d6"/><stop offset="0.14" stop-color="#df79c1"/><stop offset="0.45" stop-color="#cf5e9a"/><stop offset="0.61" stop-color="#c9548b"/><stop offset="1" stop-color="#b4276a"/></linearGradient><linearGradient id="Безымянный_градиент_19" x1="53.85" y1="142" x2="73.36" y2="102.3" gradientUnits="userSpaceOnUse"><stop offset="0" stop-color="#bf5473"/><stop offset="0.22" stop-color="#b54f6f"/><stop offset="0.59" stop-color="#9b4163"/><stop offset="0.93" stop-color="#7d3155"/></linearGradient><linearGradient id="Безымянный_градиент_12" x1="33.11" y1="117.9" x2="40.39" y2="136.4" gradientUnits="userSpaceOnUse"><stop offset="0" stop-color="#572539"/><stop offset="0.92" stop-color="#4d1b33"/><stop offset="0.93" stop-color="#4d1b33"/></linearGradient><linearGradient id="Безымянный_градиент_12-2" x1="57.04" y1="104.06" x2="64.32" y2="122.55" xlink:href="#Безымянный_градиент_12"/><linearGradient id="Безымянный_градиент_11" y1="112.92" x2="79.28" y2="112.92" gradientUnits="userSpaceOnUse"><stop offset="0.26" stop-color="#3d2224"/><stop offset="0.26" stop-color="#4d2b2c"/><stop offset="0.34" stop-color="#4f2d2e"/><stop offset="0.34" stop-color="#6e3e3f"/></linearGradient><linearGradient id="Безымянный_градиент_22-2" x1="48.25" y1="113.86" x2="29.67" y2="62.79" xlink:href="#Безымянный_градиент_22"/><linearGradient id="Безымянный_градиент_22-3" x1="57.91" y1="110.34" x2="39.33" y2="59.28" xlink:href="#Безымянный_градиент_22"/><linearGradient id="Безымянный_градиент_20" x1="1.27" y1="102.87" x2="77.98" y2="102.87" gradientUnits="userSpaceOnUse"><stop offset="0" stop-color="#301216"/><stop offset="0.41" stop-color="#3a1417"/><stop offset="0.93" stop-color="#4d1818"/></linearGradient><linearGradient id="Безымянный_градиент_19-2" x1="53.85" y1="112.81" x2="73.36" y2="73.11" xlink:href="#Безымянный_градиент_19"/><linearGradient id="Безымянный_градиент_20-2" x1="1.27" y1="72.78" x2="77.98" y2="72.78" xlink:href="#Безымянный_градиент_20"/><linearGradient id="Безымянный_градиент_19-3" x1="55.1" y1="64.09" x2="70.96" y2="36.63" xlink:href="#Безымянный_градиент_19"/><linearGradient id="Безымянный_градиент_18" x1="1.3" y1="81.84" x2="77.98" y2="81.84" gradientUnits="userSpaceOnUse"><stop offset="0.26" stop-color="#b54878"/><stop offset="0.26" stop-color="#c75187"/><stop offset="0.34" stop-color="#cf5498"/><stop offset="0.34" stop-color="#f278b7"/></linearGradient><linearGradient id="Безымянный_градиент_12-3" x1="29.28" y1="60.17" x2="43.18" y2="95.46" xlink:href="#Безымянный_градиент_12"/><linearGradient id="Безымянный_градиент_12-4" x1="53.21" y1="46.32" x2="67.11" y2="81.62" xlink:href="#Безымянный_градиент_12"/><linearGradient id="Безымянный_градиент_11-2" y1="52.02" x2="79.28" y2="52.02" xlink:href="#Безымянный_градиент_11"/><linearGradient id="Безымянный_градиент_10" x1="4.4" y1="147.38" x2="13.57" y2="147.38" gradientUnits="userSpaceOnUse"><stop offset="0.26" stop-color="#3d2224"/><stop offset="0.26" stop-color="#4d2b2c"/><stop offset="0.57" stop-color="#4f2d2e"/><stop offset="0.58" stop-color="#6e3e3f"/></linearGradient><linearGradient id="Безымянный_градиент_10-2" x1="4.34" y1="134.2" x2="13.57" y2="134.2" xlink:href="#Безымянный_градиент_10"/><linearGradient id="Безымянный_градиент_8" x1="-67.07" y1="122.85" x2="-63.45" y2="51.08" gradientTransform="translate(155.21)" gradientUnits="userSpaceOnUse"><stop offset="0" stop-color="#e887d6"/><stop offset="0.22" stop-color="#df79c1"/><stop offset="0.69" stop-color="#cf5e9a"/><stop offset="0.93" stop-color="#c9548b"/></linearGradient><linearGradient id="Безымянный_градиент_6" x1="-66.64" y1="109.35" x2="-66.08" y2="99.42" gradientTransform="translate(155.21)" gradientUnits="userSpaceOnUse"><stop offset="0" stop-color="#2b131d"/><stop offset="0.92" stop-color="#210c16"/><stop offset="0.93" stop-color="#210c16"/></linearGradient><linearGradient id="Безымянный_градиент_8-2" x1="-67.76" y1="122.81" x2="-64.14" y2="51.04" xlink:href="#Безымянный_градиент_8"/><linearGradient id="Безымянный_градиент_6-2" x1="-66.64" y1="95.77" x2="-66.08" y2="85.84" xlink:href="#Безымянный_градиент_6"/><linearGradient id="Безымянный_градиент_8-3" x1="-68.44" y1="122.78" x2="-64.82" y2="51.01" xlink:href="#Безымянный_градиент_8"/><linearGradient id="Безымянный_градиент_6-3" x1="-66.64" y1="82.24" x2="-66.08" y2="72.31" xlink:href="#Безымянный_градиент_6"/><linearGradient id="Безымянный_градиент_8-4" x1="-69.12" y1="122.74" x2="-65.5" y2="50.97" xlink:href="#Безымянный_градиент_8"/><linearGradient id="Безымянный_градиент_6-4" x1="-66.64" y1="68.69" x2="-66.08" y2="58.76" xlink:href="#Безымянный_градиент_6"/><linearGradient id="Безымянный_градиент_8-5" x1="-70.02" y1="122.7" x2="-66.4" y2="50.93" xlink:href="#Безымянный_градиент_8"/><linearGradient id="Безымянный_градиент_6-5" x1="-66.64" y1="50.9" x2="-66.08" y2="40.97" xlink:href="#Безымянный_градиент_6"/><linearGradient id="Безымянный_градиент_8-6" x1="-55.93" y1="123.41" x2="-52.31" y2="51.64" xlink:href="#Безымянный_градиент_8"/><linearGradient id="Безымянный_градиент_6-6" x1="-55.14" y1="102.7" x2="-54.58" y2="92.77" xlink:href="#Безымянный_градиент_6"/><linearGradient id="Безымянный_градиент_8-7" x1="-56.62" y1="123.37" x2="-53" y2="51.61" xlink:href="#Безымянный_градиент_8"/><linearGradient id="Безымянный_градиент_6-7" x1="-55.14" y1="89.12" x2="-54.58" y2="79.19" xlink:href="#Безымянный_градиент_6"/><linearGradient id="Безымянный_градиент_8-8" x1="-57.3" y1="123.34" x2="-53.68" y2="51.57" xlink:href="#Безымянный_градиент_8"/><linearGradient id="Безымянный_градиент_6-8" x1="-55.14" y1="75.59" x2="-54.58" y2="65.66" xlink:href="#Безымянный_градиент_6"/><linearGradient id="Безымянный_градиент_8-9" x1="-57.98" y1="123.3" x2="-54.36" y2="51.54" xlink:href="#Безымянный_градиент_8"/><linearGradient id="Безымянный_градиент_6-9" x1="-55.14" y1="62.04" x2="-54.58" y2="52.11" xlink:href="#Безымянный_градиент_6"/><linearGradient id="Безымянный_градиент_8-10" x1="-58.88" y1="123.26" x2="-55.26" y2="51.49" xlink:href="#Безымянный_градиент_8"/><linearGradient id="Безымянный_градиент_6-10" x1="-55.14" y1="44.25" x2="-54.58" y2="34.32" xlink:href="#Безымянный_градиент_6"/><linearGradient id="Безымянный_градиент_2" x1="87.45" y1="32.66" x2="94.51" y2="20.43" gradientUnits="userSpaceOnUse"><stop offset="0" stop-color="#bf0300"/><stop offset="0.12" stop-color="#ba0704"/><stop offset="0.26" stop-color="#ac110f"/><stop offset="0.39" stop-color="#991f1e"/><stop offset="0.39" stop-color="#af2423"/><stop offset="0.4" stop-color="#bf2726"/><stop offset="0.62" stop-color="#bf1714"/><stop offset="0.63" stop-color="#fa3330"/><stop offset="0.63" stop-color="#ff3532"/><stop offset="0.75" stop-color="#ff3b38"/><stop offset="0.91" stop-color="#ff4c49"/><stop offset="1" stop-color="#ff5956"/></linearGradient></defs><g class="cls-1"><g id="Слой_2" data-name="Слой 2"><g id="Layer_1" data-name="Layer 1"><polygon class="cls-2" points="79.19 125.11 109.67 107.48 109.67 15.25 79.19 32.88 79.19 125.11"/><polygon class="cls-3" points="79.19 125.11 52.8 109.86 52.8 17.63 79.19 32.88 79.19 125.11"/><polygon class="cls-4" points="79.18 32.87 52.79 17.62 83.28 0 109.67 15.25 79.18 32.87"/><path class="cls-5" d="M54.58,110.79l-1.66-1L1.29,114v27.09a2.42,2.42,0,0,0,1.24,2.13l16,9.28a10.79,10.79,0,0,0,10.82,0L78,124.36V97.28Z"/><path class="cls-6" d="M29.31,130.72a10.83,10.83,0,0,1-10.82,0l-16-9.29a2.41,2.41,0,0,1-1.23-2,2.43,2.43,0,0,0,1.23,2.23l16,9.28a10.79,10.79,0,0,0,10.82,0L78,102.81v-.19Z"/><path class="cls-6" d="M29.31,141.5a10.83,10.83,0,0,1-10.82,0l-16-9.29a2.41,2.41,0,0,1-1.23-2,2.43,2.43,0,0,0,1.23,2.23l16,9.28a10.79,10.79,0,0,0,10.82,0L78,113.59v-.19Z"/><polygon class="cls-6" points="40.8 116.14 40.8 145.83 40.57 145.96 40.57 116.14 40.8 116.14"/><polygon class="cls-6" points="31.5 121.61 31.5 151.2 31.28 151.33 31.28 121.61 31.5 121.61"/><polygon class="cls-6" points="68.69 99.72 68.69 129.73 68.46 129.86 68.46 99.72 68.69 99.72"/><polygon class="cls-6" points="59.39 105.19 59.39 135.1 59.17 135.22 59.17 105.19 59.39 105.19"/><polygon class="cls-6" points="50.09 110.67 50.09 140.47 49.87 140.59 49.87 110.67 50.09 110.67"/><path class="cls-6" d="M2.72,113.85V143.3l-.2-.12a0,0,0,0,1,0,0V113.87Z"/><polygon class="cls-6" points="12.02 113.1 12.02 148.7 11.8 148.57 11.8 113.12 12.02 113.1"/><path class="cls-6" d="M21.32,118.47V153.6a1.8,1.8,0,0,1-.22-.06V118.47Z"/><path class="cls-7" d="M29.05,118.13v34.48a10.82,10.82,0,0,1-10.56-.15l-16-9.28a2.45,2.45,0,0,1-1.23-2.13V114h0v-2.91a.13.13,0,0,1,0-.06C1.29,110.15,29.05,118.13,29.05,118.13Z"/><polygon class="cls-8" points="77.98 124.36 54.53 110.42 54.53 109.15 76.21 96.47 77.98 97.52 77.98 124.36"/><polygon class="cls-9" points="48.51 112.01 45.83 142.88 29.05 152.6 31.73 121.73 48.51 112.01"/><polygon class="cls-10" points="72.44 98.17 69.76 129.04 52.98 138.75 55.66 107.88 72.44 98.17"/><path class="cls-7" d="M18.15,128.7a11,11,0,0,0,3.06,1.22v23.65a10.64,10.64,0,0,1-2.72-1.1l-16-9.29a2.45,2.45,0,0,1-1.23-2.13V118.9h0Z"/><path class="cls-11" d="M56.26,108.92l-1.76-1L0,112.28v4.37a2.56,2.56,0,0,0,1.3,2.25l16.85,9.8a11.39,11.39,0,0,0,11.43,0L79.28,100V95.61Z"/><path class="cls-12" d="M79.28,95.61l-49.7,28.72a11.44,11.44,0,0,1-11.43,0L1.3,114.53a2.61,2.61,0,0,1,0-4.51L52.82,80.26Z"/><path class="cls-13" d="M54.58,81.6l-1.66-1L1.29,84.78v27.08A2.42,2.42,0,0,0,2.53,114l16,9.29a10.83,10.83,0,0,0,10.82,0L78,95.18V68.09Z"/><path class="cls-6" d="M29.31,101.53a10.79,10.79,0,0,1-10.82,0l-16-9.28a2.43,2.43,0,0,1-1.23-2,2.42,2.42,0,0,0,1.23,2.22l16,9.29a10.83,10.83,0,0,0,10.82,0L78,73.63v-.2Z"/><path class="cls-6" d="M29.31,112.31a10.79,10.79,0,0,1-10.82,0L2.53,103a2.43,2.43,0,0,1-1.23-2,2.42,2.42,0,0,0,1.23,2.22l16,9.29a10.83,10.83,0,0,0,10.82,0L78,84.41v-.2Z"/><polygon class="cls-6" points="40.8 86.95 40.8 116.65 40.57 116.78 40.57 86.95 40.8 86.95"/><polygon class="cls-6" points="31.5 92.42 31.5 122.02 31.28 122.15 31.28 92.42 31.5 92.42"/><polygon class="cls-6" points="68.69 70.53 68.69 100.54 68.46 100.67 68.46 70.53 68.69 70.53"/><polygon class="cls-6" points="59.39 76 59.39 105.91 59.17 106.04 59.17 76 59.39 76"/><polygon class="cls-6" points="50.09 81.48 50.09 111.28 49.87 111.41 49.87 81.48 50.09 81.48"/><path class="cls-6" d="M2.72,84.67v29.44l-.2-.11,0,0V84.68Z"/><polygon class="cls-6" points="12.02 83.92 12.02 119.52 11.8 119.39 11.8 83.94 12.02 83.92"/><path class="cls-6" d="M21.32,89.28v35.13l-.22,0V89.28Z"/><path class="cls-14" d="M78,68.09,29.31,96.19a10.79,10.79,0,0,1-10.82,0l-16-9.28a2.45,2.45,0,0,1,0-4.26l50.39-29.1Z"/><path class="cls-12" d="M78,65.08,29.91,92.86a11,11,0,0,1-11,0L2.56,83.38a2.51,2.51,0,0,1,0-4.35l49.83-28.8Z"/><path class="cls-15" d="M54.58,51.54l-1.66-1L1.29,54.72V81.8a2.42,2.42,0,0,0,1.24,2.13l16,9.28a10.79,10.79,0,0,0,10.82,0L78,65.11V38Z"/><path class="cls-6" d="M29.31,71.47a10.83,10.83,0,0,1-10.82,0l-16-9.28a2.44,2.44,0,0,1-1.23-2,2.43,2.43,0,0,0,1.23,2.23l16,9.28a10.79,10.79,0,0,0,10.82,0L78,43.56v-.19Z"/><path class="cls-6" d="M29.31,82.25a10.83,10.83,0,0,1-10.82,0L2.53,73a2.44,2.44,0,0,1-1.23-2,2.43,2.43,0,0,0,1.23,2.23l16,9.28a10.79,10.79,0,0,0,10.82,0L78,54.34v-.19Z"/><polygon class="cls-6" points="40.8 56.89 40.8 86.58 40.57 86.71 40.57 56.89 40.8 56.89"/><polygon class="cls-6" points="31.5 62.36 31.5 91.95 31.28 92.08 31.28 62.36 31.5 62.36"/><polygon class="cls-6" points="68.69 40.47 68.69 70.48 68.46 70.61 68.46 40.47 68.69 40.47"/><polygon class="cls-6" points="59.39 45.94 59.39 75.85 59.17 75.98 59.17 45.94 59.39 45.94"/><polygon class="cls-6" points="50.09 51.42 50.09 81.22 49.87 81.34 49.87 51.42 50.09 51.42"/><path class="cls-6" d="M2.72,54.6V84.05l-.2-.12h0V54.62Z"/><polygon class="cls-6" points="12.02 53.85 12.02 89.45 11.8 89.32 11.8 53.87 12.02 53.85"/><path class="cls-6" d="M21.32,59.22V94.35l-.22,0V59.22Z"/><path class="cls-14" d="M78,38,29.31,66.13a10.83,10.83,0,0,1-10.82,0l-16-9.28a2.46,2.46,0,0,1,0-4.27L52.92,23.49Z"/><path class="cls-7" d="M29.05,52.49v70.93a10.82,10.82,0,0,1-10.56-.14L2.52,114a2.48,2.48,0,0,1-1.23-2.14V84.78h0V81.87a.2.2,0,0,1,0-.07V54.72Z"/><path class="cls-16" d="M78,95.18,30,123.5a11.08,11.08,0,0,1-11.08,0L2.53,114a2.51,2.51,0,0,1,0-4.36L52.48,80.76Z"/><polygon class="cls-17" points="77.98 95.18 54.53 81.24 54.53 79.97 76.21 67.29 77.98 68.33 77.98 95.18"/><path class="cls-18" d="M78,65.08,30,93.4a11.08,11.08,0,0,1-11.08,0L2.53,83.9a2.52,2.52,0,0,1,0-4.37L52.48,50.67Z"/><polygon class="cls-19" points="77.98 65.08 54.53 51.14 54.53 24.46 77.98 38.24 77.98 65.08"/><path class="cls-20" d="M18.49,93.21l-16-9.28A2.43,2.43,0,0,1,1.3,81.87v3.57a2.48,2.48,0,0,0,1.26,2.17l16.3,9.48a11,11,0,0,0,11.05,0L78,69.32V65.11L29.31,93.21A10.79,10.79,0,0,1,18.49,93.21Z"/><path class="cls-7" d="M21.21,53.12V124.5a10.52,10.52,0,0,1-2.35-1L2.52,114A2.45,2.45,0,0,1,1.3,112.2V112a.37.37,0,0,1,0-.11V84.78h0V81.86a.13.13,0,0,1,0-.06V54.72Z"/><polygon class="cls-21" points="51.15 51.89 45.83 113.7 29.05 123.41 34.37 61.6 51.15 51.89"/><polygon class="cls-22" points="75.08 38.05 69.76 99.86 52.98 109.57 58.3 47.76 75.08 38.05"/><path class="cls-23" d="M56.26,48,54.5,47,0,51.37v4.38A2.57,2.57,0,0,0,1.3,58l16.85,9.8a11.44,11.44,0,0,0,11.43,0l49.7-28.72V34.7Z"/><path class="cls-12" d="M79.28,34.7,29.58,63.42a11.44,11.44,0,0,1-11.43,0L1.3,53.62a2.6,2.6,0,0,1,0-4.5L52.82,19.35Z"/><path class="cls-24" d="M13.57,145.18v4.42a6.88,6.88,0,0,1-2.08.69c-.21,0-.42.07-.64.09l-.65,0a9.23,9.23,0,0,1-1.39,0c-.27,0-.54-.07-.79-.12a6.73,6.73,0,0,1-2-.73,2.61,2.61,0,0,1-1.6-2.18h0v-.49h.08a1.38,1.38,0,0,1,.15-.36,1.67,1.67,0,0,1,.24-.37,3.88,3.88,0,0,1,.45-.46,2.83,2.83,0,0,1,.28-.2,1.27,1.27,0,0,1,.27-.18l.1-.06a6.44,6.44,0,0,1,1.48-.59h.07l.21-.05.13,0,.14,0a9.1,9.1,0,0,1,1.58-.17h.55a8.41,8.41,0,0,1,1.51.17h.07l.26.07h0a1.05,1.05,0,0,1,.24.06h0A6.63,6.63,0,0,1,13.57,145.18Z"/><path class="cls-25" d="M13.57,144.74v4.42a6.61,6.61,0,0,1-2.08.68l-.64.1-.65,0a9.23,9.23,0,0,1-1.39,0c-.27,0-.54-.07-.79-.12a6.73,6.73,0,0,1-2-.73,2.63,2.63,0,0,1-1.6-2.16v-.07a1.87,1.87,0,0,1,.23-.81,2.12,2.12,0,0,1,.24-.37,3.82,3.82,0,0,1,.45-.45L5.6,145a1.78,1.78,0,0,1,.27-.17.27.27,0,0,1,.1-.06,6.44,6.44,0,0,1,1.48-.59h0l0,0h0l.21,0,.13,0,.14,0a9.1,9.1,0,0,1,1.58-.17h.55a9.44,9.44,0,0,1,1.51.18h.07l.26.06h0l.23.06,0,0h0A6.07,6.07,0,0,1,13.57,144.74Z"/><path class="cls-26" d="M13.57,135.45V149l0,0a6.32,6.32,0,0,1-1.56.6l-.33.08-.22,0a6,6,0,0,1-.61.09l-.63,0a9.85,9.85,0,0,1-1.33,0c-.26,0-.51-.07-.76-.12l-.23-.06-.34-.08A6.36,6.36,0,0,1,6.16,149a3.61,3.61,0,0,1-.85-.63,2,2,0,0,1-.68-1.44V133.26H9.77l.08.05.12.06.22.13,1.45.84.33.19h0l.12.06.15.09,1,.6Z"/><path class="cls-27" d="M13.57,135.45V148.7l-.16.1a5.61,5.61,0,0,1-1.44.56l-.33.08-.26.05c-.19,0-.39.06-.59.09s-.4,0-.62,0H9.83c-.3,0-.61,0-.95-.05a7.38,7.38,0,0,1-.74-.11l-.28-.07-.34-.09a6.07,6.07,0,0,1-1.24-.51,3.61,3.61,0,0,1-.8-.59,1.8,1.8,0,0,1-.61-1.27V133.5h5.32l1.45.84.33.19h0l.12.06.15.09,1,.6Z"/><polygon class="cls-28" points="7.45 146.77 5.6 148.12 5.32 148 5.32 135.32 7.45 134.1 7.62 134.19 7.45 146.77"/><polygon class="cls-29" points="7.72 146.9 5.6 148.12 5.6 135.44 7.72 134.22 7.72 146.9"/><polygon class="cls-30" points="5.87 135.6 7.45 134.7 7.45 146.74 5.87 147.64 5.87 135.6"/><polygon class="cls-31" points="9.74 133.24 9.74 133.26 9.73 133.5 9.68 136.32 9.67 136.98 9.61 143.89 9.6 144.33 9.6 144.33 9.58 145.55 7.86 146.8 7.72 146.9 7.52 146.81 7.45 146.78 7.45 134.1 7.52 134.06 7.86 133.87 8.49 133.5 8.92 133.26 9.34 133.01 9.59 133.15 9.74 133.24"/><polygon class="cls-29" points="9.85 133.31 9.85 145.68 7.86 146.82 7.72 146.9 7.72 134.22 7.86 134.15 8.98 133.5 9.41 133.26 9.59 133.15 9.74 133.24 9.77 133.26 9.85 133.31"/><polygon class="cls-30" points="8 134.38 9.58 133.48 9.58 145.52 8 146.42 8 134.38"/><polygon class="cls-31" points="12.26 134.69 12.26 146.78 11.98 146.9 11.97 146.89 11.64 146.65 10.13 145.55 10.13 145.52 10.11 144.34 10.1 143.89 10.04 136.98 10.02 136.32 9.97 133.5 9.97 133.37 10.19 133.5 11.64 134.34 11.97 134.53 11.98 134.53 12.1 134.6 12.26 134.69"/><polygon class="cls-29" points="11.98 134.53 11.98 146.9 11.97 146.89 11.64 146.7 9.85 145.68 9.85 133.31 9.97 133.37 10.19 133.5 11.64 134.34 11.97 134.53 11.98 134.53"/><polygon class="cls-30" points="11.71 134.38 10.13 133.48 10.13 145.52 11.71 146.42 11.71 134.38"/><polygon class="cls-31" points="13.57 135.45 13.57 147.73 12.26 146.78 12.21 144.65 12.21 144.2 12.14 136.71 12.13 136.05 12.1 134.6 12.26 134.69 13.29 135.29 13.57 135.45"/><polygon class="cls-29" points="13.57 135.45 13.57 147.81 11.98 146.9 11.98 134.53 12.1 134.6 12.26 134.69 13.29 135.29 13.57 135.45"/><polygon class="cls-30" points="13.57 135.45 13.57 147.49 12.26 146.74 12.26 134.7 13.29 135.29 13.57 135.45"/><path class="cls-32" d="M7.52,132.84v16.72l.34.08v-16.8Z"/><path class="cls-33" d="M12,134.53v15.08l-.33.08V134.34Z"/><path class="cls-34" d="M13.57,135.45v.72a6,6,0,0,1-1.31.5h0l-.11,0-.16,0h0l-.26.05-.07,0-.13,0c-.22,0-.43.07-.65.09s-.44,0-.66,0H9.58l-.78,0c-.27,0-.54-.08-.8-.12H8l-.13,0-.13,0-.16-.05H7.45a6.83,6.83,0,0,1-1.49-.6l-.09,0a1.78,1.78,0,0,1-.27-.17l-.28-.21a3.71,3.71,0,0,1-.45-.43,2.36,2.36,0,0,1-.24-.34,1.86,1.86,0,0,1-.29-1h0v-.63h.12a3.1,3.1,0,0,1,1.47-1.53,4.73,4.73,0,0,1,.64-.31L9.34,133l.25.14.15.09,0,0,.08.05.12.06.22.13,1.45.84.33.19h0l.12.06.15.09,1,.6Z"/><path class="cls-12" d="M13.57,135.45v.06a6,6,0,0,1-1.31.5h0l-.13,0-.14,0h0a2,2,0,0,1-.26.06h-.07l-.13,0c-.22,0-.43.07-.65.09s-.44,0-.66,0H9.58l-.78,0c-.27,0-.54-.08-.8-.12H8a.31.31,0,0,1-.13,0l-.13,0-.15,0-.06,0-.07,0h0a6.31,6.31,0,0,1-1.36-.53L6,135.41l-.15-.09a1.82,1.82,0,0,1-.23-.15,3.36,3.36,0,0,1-.71-.62,2.36,2.36,0,0,1-.24-.34,1.85,1.85,0,0,1-.29-1,2.61,2.61,0,0,1,1.59-2.19h0l.63.36L9.34,133l.25.14.15.09,0,0,.08.05.12.06.22.13,1.45.84.33.19h0l.12.06.15.09,1,.6Z"/><polygon class="cls-35" points="110.43 95.65 110.43 107.91 106.75 110.04 106.75 97.78 110.43 95.65"/><polygon class="cls-3" points="105.99 97.35 105.99 109.61 106.75 110.04 106.75 97.78 105.99 97.35"/><polygon class="cls-36" points="109.67 95.22 105.99 97.35 106.75 97.78 110.43 95.65 109.67 95.22"/><polygon class="cls-35" points="106.6 97.86 106.6 110.13 102.92 112.25 102.92 99.99 106.6 97.86"/><polygon class="cls-3" points="102.16 99.56 102.16 111.82 102.92 112.25 102.92 99.99 102.16 99.56"/><polygon class="cls-36" points="105.84 97.43 102.16 99.56 102.92 99.99 106.6 97.86 105.84 97.43"/><polygon class="cls-35" points="102.77 100.08 102.77 112.34 99.09 114.47 99.09 102.2 102.77 100.08"/><polygon class="cls-3" points="98.33 101.77 98.33 114.04 99.09 114.47 99.09 102.2 98.33 101.77"/><polygon class="cls-36" points="102.01 99.65 98.33 101.77 99.09 102.2 102.77 100.08 102.01 99.65"/><polygon class="cls-35" points="98.94 102.29 98.94 114.56 95.26 116.68 95.26 104.42 98.94 102.29"/><polygon class="cls-3" points="94.5 103.99 94.5 116.25 95.26 116.68 95.26 104.42 94.5 103.99"/><polygon class="cls-36" points="98.19 101.86 94.5 103.99 95.26 104.42 98.94 102.29 98.19 101.86"/><polygon class="cls-35" points="95.11 104.5 95.11 116.77 91.43 118.89 91.43 106.63 95.11 104.5"/><polygon class="cls-3" points="90.67 106.2 90.67 118.46 91.43 118.89 91.43 106.63 90.67 106.2"/><polygon class="cls-36" points="94.36 104.07 90.67 106.2 91.43 106.63 95.11 104.5 94.36 104.07"/><polygon class="cls-35" points="91.28 106.72 91.28 118.98 87.6 121.11 87.6 108.85 91.28 106.72"/><polygon class="cls-3" points="86.84 108.41 86.84 120.68 87.6 121.11 87.6 108.85 86.84 108.41"/><polygon class="cls-36" points="90.53 106.29 86.84 108.41 87.6 108.85 91.28 106.72 90.53 106.29"/><polygon class="cls-35" points="87.45 108.93 87.45 121.2 83.77 123.32 83.77 111.06 87.45 108.93"/><polygon class="cls-3" points="83.02 110.63 83.02 122.89 83.77 123.32 83.77 111.06 83.02 110.63"/><polygon class="cls-36" points="86.7 108.5 83.02 110.63 83.77 111.06 87.45 108.93 86.7 108.5"/><polygon class="cls-35" points="83.63 111.15 83.63 123.41 79.94 125.54 79.94 113.27 83.63 111.15"/><polygon class="cls-3" points="79.19 112.84 79.19 125.11 79.94 125.54 79.94 113.27 79.19 112.84"/><polygon class="cls-36" points="82.87 110.72 79.19 112.84 79.94 113.27 83.63 111.15 82.87 110.72"/><polygon class="cls-35" points="110.43 82.11 110.43 94.37 106.75 96.5 106.75 84.23 110.43 82.11"/><polygon class="cls-3" points="105.99 83.8 105.99 96.07 106.75 96.5 106.75 84.23 105.99 83.8"/><polygon class="cls-36" points="109.67 81.68 105.99 83.8 106.75 84.23 110.43 82.11 109.67 81.68"/><polygon class="cls-35" points="106.6 84.32 106.6 96.58 102.92 98.71 102.92 86.45 106.6 84.32"/><polygon class="cls-3" points="102.16 86.02 102.16 98.28 102.92 98.71 102.92 86.45 102.16 86.02"/><polygon class="cls-36" points="105.84 83.89 102.16 86.02 102.92 86.45 106.6 84.32 105.84 83.89"/><polygon class="cls-35" points="102.77 86.54 102.77 98.8 99.09 100.92 99.09 88.66 102.77 86.54"/><polygon class="cls-3" points="98.33 88.23 98.33 100.49 99.09 100.92 99.09 88.66 98.33 88.23"/><polygon class="cls-36" points="102.01 86.1 98.33 88.23 99.09 88.66 102.77 86.54 102.01 86.1"/><polygon class="cls-35" points="98.94 88.75 98.94 101.01 95.26 103.14 95.26 90.88 98.94 88.75"/><polygon class="cls-3" points="94.5 90.44 94.5 102.71 95.26 103.14 95.26 90.88 94.5 90.44"/><polygon class="cls-36" points="98.19 88.32 94.5 90.44 95.26 90.88 98.94 88.75 98.19 88.32"/><polygon class="cls-35" points="95.11 90.96 95.11 103.23 91.43 105.35 91.43 93.09 95.11 90.96"/><polygon class="cls-3" points="90.67 92.66 90.67 104.92 91.43 105.35 91.43 93.09 90.67 92.66"/><polygon class="cls-36" points="94.36 90.53 90.67 92.66 91.43 93.09 95.11 90.96 94.36 90.53"/><polygon class="cls-35" points="91.28 93.18 91.28 105.44 87.6 107.57 87.6 95.3 91.28 93.18"/><polygon class="cls-3" points="86.84 94.87 86.84 107.14 87.6 107.57 87.6 95.3 86.84 94.87"/><polygon class="cls-36" points="90.53 92.75 86.84 94.87 87.6 95.3 91.28 93.18 90.53 92.75"/><polygon class="cls-35" points="87.45 95.39 87.45 107.65 83.77 109.78 83.77 97.52 87.45 95.39"/><polygon class="cls-3" points="83.02 97.09 83.02 109.35 83.77 109.78 83.77 97.52 83.02 97.09"/><polygon class="cls-36" points="86.7 94.96 83.02 97.09 83.77 97.52 87.45 95.39 86.7 94.96"/><polygon class="cls-35" points="83.63 97.6 83.63 109.87 79.94 111.99 79.94 99.73 83.63 97.6"/><polygon class="cls-3" points="79.19 99.3 79.19 111.56 79.94 111.99 79.94 99.73 79.19 99.3"/><polygon class="cls-36" points="82.87 97.17 79.19 99.3 79.94 99.73 83.63 97.6 82.87 97.17"/><polygon class="cls-35" points="110.43 68.57 110.43 80.83 106.75 82.96 106.75 70.69 110.43 68.57"/><polygon class="cls-3" points="105.99 70.26 105.99 82.53 106.75 82.96 106.75 70.69 105.99 70.26"/><polygon class="cls-36" points="109.67 68.13 105.99 70.26 106.75 70.69 110.43 68.57 109.67 68.13"/><polygon class="cls-35" points="106.6 70.78 106.6 83.04 102.92 85.17 102.92 72.91 106.6 70.78"/><polygon class="cls-3" points="102.16 72.47 102.16 84.74 102.92 85.17 102.92 72.91 102.16 72.47"/><polygon class="cls-36" points="105.84 70.35 102.16 72.47 102.92 72.91 106.6 70.78 105.84 70.35"/><polygon class="cls-35" points="102.77 72.99 102.77 85.26 99.09 87.38 99.09 75.12 102.77 72.99"/><polygon class="cls-3" points="98.33 74.69 98.33 86.95 99.09 87.38 99.09 75.12 98.33 74.69"/><polygon class="cls-36" points="102.01 72.56 98.33 74.69 99.09 75.12 102.77 72.99 102.01 72.56"/><polygon class="cls-35" points="98.94 75.21 98.94 87.47 95.26 89.6 95.26 77.33 98.94 75.21"/><polygon class="cls-3" points="94.5 76.9 94.5 89.17 95.26 89.6 95.26 77.33 94.5 76.9"/><polygon class="cls-36" points="98.19 74.78 94.5 76.9 95.26 77.33 98.94 75.21 98.19 74.78"/><polygon class="cls-35" points="95.11 77.42 95.11 89.68 91.43 91.81 91.43 79.55 95.11 77.42"/><polygon class="cls-3" points="90.67 79.12 90.67 91.38 91.43 91.81 91.43 79.55 90.67 79.12"/><polygon class="cls-36" points="94.36 76.99 90.67 79.12 91.43 79.55 95.11 77.42 94.36 76.99"/><polygon class="cls-35" points="91.28 79.64 91.28 91.9 87.6 94.03 87.6 81.76 91.28 79.64"/><polygon class="cls-3" points="86.84 81.33 86.84 93.59 87.6 94.03 87.6 81.76 86.84 81.33"/><polygon class="cls-36" points="90.53 79.2 86.84 81.33 87.6 81.76 91.28 79.64 90.53 79.2"/><polygon class="cls-35" points="87.45 81.85 87.45 94.11 83.77 96.24 83.77 83.97 87.45 81.85"/><polygon class="cls-3" points="83.02 83.54 83.02 95.81 83.77 96.24 83.77 83.97 83.02 83.54"/><polygon class="cls-36" points="86.7 81.42 83.02 83.54 83.77 83.97 87.45 81.85 86.7 81.42"/><polygon class="cls-35" points="83.63 84.06 83.63 96.33 79.94 98.45 79.94 86.19 83.63 84.06"/><polygon class="cls-3" points="79.19 85.76 79.19 98.02 79.94 98.45 79.94 86.19 79.19 85.76"/><polygon class="cls-36" points="82.87 83.63 79.19 85.76 79.94 86.19 83.63 84.06 82.87 83.63"/><polygon class="cls-35" points="110.43 55.02 110.43 67.29 106.75 69.41 106.75 57.15 110.43 55.02"/><polygon class="cls-3" points="105.99 56.72 105.99 68.98 106.75 69.41 106.75 57.15 105.99 56.72"/><polygon class="cls-36" points="109.67 54.59 105.99 56.72 106.75 57.15 110.43 55.02 109.67 54.59"/><polygon class="cls-35" points="106.6 57.24 106.6 69.5 102.92 71.63 102.92 59.36 106.6 57.24"/><polygon class="cls-3" points="102.16 58.93 102.16 71.2 102.92 71.63 102.92 59.36 102.16 58.93"/><polygon class="cls-36" points="105.84 56.81 102.16 58.93 102.92 59.36 106.6 57.24 105.84 56.81"/><polygon class="cls-35" points="102.77 59.45 102.77 71.71 99.09 73.84 99.09 61.58 102.77 59.45"/><polygon class="cls-3" points="98.33 61.15 98.33 73.41 99.09 73.84 99.09 61.58 98.33 61.15"/><polygon class="cls-36" points="102.01 59.02 98.33 61.15 99.09 61.58 102.77 59.45 102.01 59.02"/><polygon class="cls-35" points="98.94 61.66 98.94 73.93 95.26 76.06 95.26 63.79 98.94 61.66"/><polygon class="cls-3" points="94.5 63.36 94.5 75.62 95.26 76.06 95.26 63.79 94.5 63.36"/><polygon class="cls-36" points="98.19 61.23 94.5 63.36 95.26 63.79 98.94 61.66 98.19 61.23"/><polygon class="cls-35" points="95.11 63.88 95.11 76.14 91.43 78.27 91.43 66 95.11 63.88"/><polygon class="cls-3" points="90.67 65.57 90.67 77.84 91.43 78.27 91.43 66 90.67 65.57"/><polygon class="cls-36" points="94.36 63.45 90.67 65.57 91.43 66 95.11 63.88 94.36 63.45"/><polygon class="cls-35" points="91.28 66.09 91.28 78.36 87.6 80.48 87.6 68.22 91.28 66.09"/><polygon class="cls-3" points="86.84 67.79 86.84 80.05 87.6 80.48 87.6 68.22 86.84 67.79"/><polygon class="cls-36" points="90.53 65.66 86.84 67.79 87.6 68.22 91.28 66.09 90.53 65.66"/><polygon class="cls-35" points="87.45 68.31 87.45 80.57 83.77 82.7 83.77 70.43 87.45 68.31"/><polygon class="cls-3" points="83.02 70 83.02 82.26 83.77 82.7 83.77 70.43 83.02 70"/><polygon class="cls-36" points="86.7 67.87 83.02 70 83.77 70.43 87.45 68.31 86.7 67.87"/><polygon class="cls-35" points="83.63 70.52 83.63 82.78 79.94 84.91 79.94 72.65 83.63 70.52"/><polygon class="cls-3" points="79.19 72.22 79.19 84.48 79.94 84.91 79.94 72.65 79.19 72.22"/><polygon class="cls-36" points="82.87 70.09 79.19 72.22 79.94 72.65 83.63 70.52 82.87 70.09"/><polygon class="cls-35" points="110.43 41.48 110.43 53.74 106.75 55.87 106.75 43.61 110.43 41.48"/><polygon class="cls-3" points="105.99 43.18 105.99 55.44 106.75 55.87 106.75 43.61 105.99 43.18"/><polygon class="cls-36" points="109.67 41.05 105.99 43.18 106.75 43.61 110.43 41.48 109.67 41.05"/><polygon class="cls-35" points="106.6 43.7 106.6 55.96 102.92 58.09 102.92 45.82 106.6 43.7"/><polygon class="cls-3" points="102.16 45.39 102.16 57.65 102.92 58.09 102.92 45.82 102.16 45.39"/><polygon class="cls-36" points="105.84 43.26 102.16 45.39 102.92 45.82 106.6 43.7 105.84 43.26"/><polygon class="cls-35" points="102.77 45.91 102.77 58.17 99.09 60.3 99.09 48.03 102.77 45.91"/><polygon class="cls-3" points="98.33 47.6 98.33 59.87 99.09 60.3 99.09 48.03 98.33 47.6"/><polygon class="cls-36" points="102.01 45.48 98.33 47.6 99.09 48.03 102.77 45.91 102.01 45.48"/><polygon class="cls-35" points="98.94 48.12 98.94 60.39 95.26 62.51 95.26 50.25 98.94 48.12"/><polygon class="cls-3" points="94.5 49.82 94.5 62.08 95.26 62.51 95.26 50.25 94.5 49.82"/><polygon class="cls-36" points="98.19 47.69 94.5 49.82 95.26 50.25 98.94 48.12 98.19 47.69"/><polygon class="cls-35" points="95.11 50.34 95.11 62.6 91.43 64.73 91.43 52.46 95.11 50.34"/><polygon class="cls-3" points="90.67 52.03 90.67 64.3 91.43 64.73 91.43 52.46 90.67 52.03"/><polygon class="cls-36" points="94.36 49.91 90.67 52.03 91.43 52.46 95.11 50.34 94.36 49.91"/><polygon class="cls-35" points="91.28 52.55 91.28 64.81 87.6 66.94 87.6 54.68 91.28 52.55"/><polygon class="cls-3" points="86.84 54.24 86.84 66.51 87.6 66.94 87.6 54.68 86.84 54.24"/><polygon class="cls-36" points="90.53 52.12 86.84 54.24 87.6 54.68 91.28 52.55 90.53 52.12"/><polygon class="cls-35" points="87.45 54.76 87.45 67.03 83.77 69.15 83.77 56.89 87.45 54.76"/><polygon class="cls-3" points="83.02 56.46 83.02 68.72 83.77 69.15 83.77 56.89 83.02 56.46"/><polygon class="cls-36" points="86.7 54.33 83.02 56.46 83.77 56.89 87.45 54.76 86.7 54.33"/><polygon class="cls-35" points="83.63 56.98 83.63 69.24 79.94 71.37 79.94 59.1 83.63 56.98"/><polygon class="cls-3" points="79.19 58.67 79.19 70.94 79.94 71.37 79.94 59.1 79.19 58.67"/><polygon class="cls-36" points="82.87 56.55 79.19 58.67 79.94 59.1 83.63 56.98 82.87 56.55"/><polygon class="cls-35" points="110.43 27.94 110.43 40.2 106.75 42.33 106.75 30.07 110.43 27.94"/><polygon class="cls-3" points="105.99 29.63 105.99 41.9 106.75 42.33 106.75 30.07 105.99 29.63"/><polygon class="cls-36" points="109.67 27.51 105.99 29.63 106.75 30.07 110.43 27.94 109.67 27.51"/><polygon class="cls-35" points="106.6 30.15 106.6 42.42 102.92 44.54 102.92 32.28 106.6 30.15"/><polygon class="cls-3" points="102.16 31.85 102.16 44.11 102.92 44.54 102.92 32.28 102.16 31.85"/><polygon class="cls-36" points="105.84 29.72 102.16 31.85 102.92 32.28 106.6 30.15 105.84 29.72"/><polygon class="cls-35" points="102.77 32.37 102.77 44.63 99.09 46.76 99.09 34.49 102.77 32.37"/><polygon class="cls-3" points="98.33 34.06 98.33 46.33 99.09 46.76 99.09 34.49 98.33 34.06"/><polygon class="cls-36" points="102.01 31.93 98.33 34.06 99.09 34.49 102.77 32.37 102.01 31.93"/><polygon class="cls-35" points="98.94 34.58 98.94 46.84 95.26 48.97 95.26 36.71 98.94 34.58"/><polygon class="cls-3" points="94.5 36.27 94.5 48.54 95.26 48.97 95.26 36.71 94.5 36.27"/><polygon class="cls-36" points="98.19 34.15 94.5 36.27 95.26 36.71 98.94 34.58 98.19 34.15"/><polygon class="cls-35" points="95.11 36.79 95.11 49.06 91.43 51.18 91.43 38.92 95.11 36.79"/><polygon class="cls-3" points="90.67 38.49 90.67 50.75 91.43 51.18 91.43 38.92 90.67 38.49"/><polygon class="cls-36" points="94.36 36.36 90.67 38.49 91.43 38.92 95.11 36.79 94.36 36.36"/><polygon class="cls-35" points="91.28 39.01 91.28 51.27 87.6 53.4 87.6 41.13 91.28 39.01"/><polygon class="cls-3" points="86.84 40.7 86.84 52.97 87.6 53.4 87.6 41.13 86.84 40.7"/><polygon class="cls-36" points="90.53 38.58 86.84 40.7 87.6 41.13 91.28 39.01 90.53 38.58"/><polygon class="cls-35" points="87.45 41.22 87.45 53.48 83.77 55.61 83.77 43.35 87.45 41.22"/><polygon class="cls-3" points="83.02 42.92 83.02 55.18 83.77 55.61 83.77 43.35 83.02 42.92"/><polygon class="cls-36" points="86.7 40.79 83.02 42.92 83.77 43.35 87.45 41.22 86.7 40.79"/><polygon class="cls-35" points="83.63 43.44 83.63 55.7 79.94 57.83 79.94 45.56 83.63 43.44"/><polygon class="cls-3" points="79.19 45.13 79.19 57.39 79.94 57.83 79.94 45.56 79.19 45.13"/><polygon class="cls-36" points="82.87 43 79.19 45.13 79.94 45.56 83.63 43.44 82.87 43"/><polygon class="cls-35" points="110.43 15.68 110.43 27.95 106.75 30.07 106.75 17.81 110.43 15.68"/><polygon class="cls-3" points="105.99 17.38 105.99 29.64 106.75 30.07 106.75 17.81 105.99 17.38"/><polygon class="cls-37" points="109.67 15.25 105.99 17.38 106.75 17.81 110.43 15.68 109.67 15.25"/><polygon class="cls-35" points="106.6 17.9 106.6 30.16 102.92 32.29 102.92 20.02 106.6 17.9"/><polygon class="cls-3" points="102.16 19.59 102.16 31.86 102.92 32.29 102.92 20.02 102.16 19.59"/><polygon class="cls-37" points="105.84 17.47 102.16 19.59 102.92 20.02 106.6 17.9 105.84 17.47"/><polygon class="cls-35" points="102.77 20.11 102.77 32.37 99.09 34.5 99.09 22.24 102.77 20.11"/><polygon class="cls-3" points="98.33 21.81 98.33 34.07 99.09 34.5 99.09 22.24 98.33 21.81"/><polygon class="cls-37" points="102.01 19.68 98.33 21.81 99.09 22.24 102.77 20.11 102.01 19.68"/><polygon class="cls-35" points="98.94 22.32 98.94 34.59 95.26 36.71 95.26 24.45 98.94 22.32"/><polygon class="cls-3" points="94.5 24.02 94.5 36.28 95.26 36.71 95.26 24.45 94.5 24.02"/><polygon class="cls-37" points="98.19 21.89 94.5 24.02 95.26 24.45 98.94 22.32 98.19 21.89"/><polygon class="cls-35" points="95.11 24.54 95.11 36.8 91.43 38.93 91.43 26.66 95.11 24.54"/><polygon class="cls-3" points="90.67 26.23 90.67 38.5 91.43 38.93 91.43 26.66 90.67 26.23"/><polygon class="cls-37" points="94.36 24.11 90.67 26.23 91.43 26.66 95.11 24.54 94.36 24.11"/><polygon class="cls-35" points="91.28 26.75 91.28 39.02 87.6 41.14 87.6 28.88 91.28 26.75"/><polygon class="cls-3" points="86.84 28.45 86.84 40.71 87.6 41.14 87.6 28.88 86.84 28.45"/><polygon class="cls-37" points="90.53 26.32 86.84 28.45 87.6 28.88 91.28 26.75 90.53 26.32"/><polygon class="cls-35" points="87.45 28.97 87.45 41.23 83.77 43.36 83.77 31.09 87.45 28.97"/><polygon class="cls-3" points="83.02 30.66 83.02 42.92 83.77 43.36 83.77 31.09 83.02 30.66"/><polygon class="cls-37" points="86.7 28.54 83.02 30.66 83.77 31.09 87.45 28.97 86.7 28.54"/><polygon class="cls-35" points="83.63 31.18 83.63 43.44 79.94 45.57 79.94 33.31 83.63 31.18"/><polygon class="cls-3" points="79.19 32.88 79.19 45.14 79.94 45.57 79.94 33.31 79.19 32.88"/><polygon class="cls-37" points="82.87 30.75 79.19 32.88 79.94 33.31 83.63 31.18 82.87 30.75"/><polygon class="cls-38" points="90.7 93.89 87.85 95.56 87.85 106.79 90.7 105.13 90.7 93.89"/><polygon class="cls-39" points="88.04 95.67 90.51 94.23 90.51 105.02 88.04 106.46 88.04 95.67"/><polygon class="cls-40" points="89.88 94.59 89.18 105.67 88.28 106.2 88.98 95.12 89.88 94.59"/><polygon class="cls-41" points="90.31 94.34 90.31 104.92 88.04 106.25 88.04 106.46 90.51 105.02 90.51 94.23 90.31 94.34"/><polygon class="cls-38" points="90.51 105.24 90.7 105.13 90.7 93.89 90.51 94.01 90.51 105.24"/><polygon class="cls-42" points="90.51 105.02 90.31 104.92 90.31 94.34 90.51 94.23 90.51 105.02"/><polygon class="cls-38" points="87.85 106.79 88.04 106.68 88.04 95.45 87.85 95.56 87.85 106.79"/><polygon class="cls-3" points="91.14 93.67 91.14 105.38 90.7 105.13 90.7 93.89 91.14 93.67"/><polygon class="cls-43" points="91.14 105.38 88.28 107.05 87.85 106.79 90.7 105.13 91.14 105.38"/><polygon class="cls-35" points="87.59 95.34 88.28 95.15 88.28 107.05 87.59 107.05 87.59 95.34"/><polygon class="cls-38" points="90.7 80.32 87.85 81.98 87.85 93.22 90.7 91.55 90.7 80.32"/><polygon class="cls-44" points="88.04 82.09 90.51 80.65 90.51 91.44 88.04 92.88 88.04 82.09"/><polygon class="cls-45" points="89.88 81.01 89.18 92.09 88.28 92.62 88.98 81.54 89.88 81.01"/><polygon class="cls-41" points="90.31 80.77 90.31 91.34 88.04 92.67 88.04 92.88 90.51 91.44 90.51 80.65 90.31 80.77"/><polygon class="cls-38" points="90.51 91.66 90.7 91.55 90.7 80.32 90.51 80.43 90.51 91.66"/><polygon class="cls-42" points="90.51 91.44 90.31 91.34 90.31 80.77 90.51 80.65 90.51 91.44"/><polygon class="cls-38" points="87.85 93.22 88.04 93.1 88.04 81.87 87.85 81.98 87.85 93.22"/><polygon class="cls-3" points="91.14 80.09 91.14 91.8 90.7 91.55 90.7 80.32 91.14 80.09"/><polygon class="cls-43" points="91.14 91.8 88.28 93.47 87.85 93.22 90.7 91.55 91.14 91.8"/><polygon class="cls-35" points="87.59 81.76 88.28 81.57 88.28 93.47 87.59 93.47 87.59 81.76"/><polygon class="cls-38" points="90.7 66.79 87.85 68.45 87.85 79.68 90.7 78.02 90.7 66.79"/><polygon class="cls-46" points="88.04 68.56 90.51 67.12 90.51 77.91 88.04 79.35 88.04 68.56"/><polygon class="cls-47" points="89.88 67.48 89.18 78.56 88.28 79.09 88.98 68.01 89.88 67.48"/><polygon class="cls-41" points="90.31 67.23 90.31 77.81 88.04 79.14 88.04 79.35 90.51 77.91 90.51 67.12 90.31 67.23"/><polygon class="cls-38" points="90.51 78.13 90.7 78.02 90.7 66.79 90.51 66.9 90.51 78.13"/><polygon class="cls-42" points="90.51 77.91 90.31 77.81 90.31 67.23 90.51 67.12 90.51 77.91"/><polygon class="cls-38" points="87.85 79.68 88.04 79.57 88.04 68.34 87.85 68.45 87.85 79.68"/><polygon class="cls-3" points="91.14 66.56 91.14 78.27 90.7 78.02 90.7 66.79 91.14 66.56"/><polygon class="cls-43" points="91.14 78.27 88.28 79.94 87.85 79.68 90.7 78.02 91.14 78.27"/><polygon class="cls-35" points="87.59 68.23 88.28 68.04 88.28 79.94 87.59 79.94 87.59 68.23"/><polygon class="cls-38" points="90.7 53.24 87.85 54.91 87.85 66.14 90.7 64.47 90.7 53.24"/><polygon class="cls-48" points="88.04 55.02 90.51 53.57 90.51 64.36 88.04 65.8 88.04 55.02"/><polygon class="cls-49" points="89.88 53.93 89.18 65.01 88.28 65.55 88.98 54.46 89.88 53.93"/><polygon class="cls-41" points="90.31 53.69 90.31 64.26 88.04 65.59 88.04 65.8 90.51 64.36 90.51 53.57 90.31 53.69"/><polygon class="cls-38" points="90.51 64.58 90.7 64.47 90.7 53.24 90.51 53.35 90.51 64.58"/><polygon class="cls-42" points="90.51 64.36 90.31 64.26 90.31 53.69 90.51 53.57 90.51 64.36"/><polygon class="cls-38" points="87.85 66.14 88.04 66.03 88.04 54.79 87.85 54.91 87.85 66.14"/><polygon class="cls-3" points="91.14 53.02 91.14 64.72 90.7 64.47 90.7 53.24 91.14 53.02"/><polygon class="cls-43" points="91.14 64.72 88.28 66.39 87.85 66.14 90.7 64.47 91.14 64.72"/><polygon class="cls-35" points="87.59 54.68 88.28 54.49 88.28 66.39 87.59 66.39 87.59 54.68"/><polygon class="cls-38" points="90.7 35.44 87.85 37.11 87.85 48.34 90.7 46.68 90.7 35.44"/><polygon class="cls-50" points="88.04 37.22 90.51 35.78 90.51 46.56 88.04 48.01 88.04 37.22"/><polygon class="cls-51" points="89.88 36.13 89.18 47.22 88.28 47.75 88.98 36.67 89.88 36.13"/><polygon class="cls-41" points="90.31 35.89 90.31 46.47 88.04 47.79 88.04 48.01 90.51 46.56 90.51 35.78 90.31 35.89"/><polygon class="cls-38" points="90.51 46.79 90.7 46.68 90.7 35.44 90.51 35.55 90.51 46.79"/><polygon class="cls-42" points="90.51 46.56 90.31 46.47 90.31 35.89 90.51 35.78 90.51 46.56"/><polygon class="cls-38" points="87.85 48.34 88.04 48.23 88.04 37 87.85 37.11 87.85 48.34"/><polygon class="cls-3" points="91.14 35.22 91.14 46.93 90.7 46.68 90.7 35.44 91.14 35.22"/><polygon class="cls-43" points="91.14 46.93 88.28 48.59 87.85 48.34 90.7 46.68 91.14 46.93"/><polygon class="cls-35" points="87.59 36.89 88.28 36.7 88.28 48.59 87.59 48.59 87.59 36.89"/><polygon class="cls-38" points="102.2 87.25 99.35 88.91 99.35 100.14 102.2 98.48 102.2 87.25"/><polygon class="cls-52" points="99.55 89.02 102.01 87.58 102.01 98.36 99.55 99.81 99.55 89.02"/><polygon class="cls-53" points="101.39 87.94 100.68 99.02 99.78 99.55 100.49 88.47 101.39 87.94"/><polygon class="cls-41" points="101.81 87.69 101.81 98.27 99.55 99.59 99.55 99.81 102.01 98.36 102.01 87.58 101.81 87.69"/><polygon class="cls-38" points="102.01 98.59 102.2 98.48 102.2 87.25 102.01 87.36 102.01 98.59"/><polygon class="cls-42" points="102.01 98.36 101.81 98.27 101.81 87.69 102.01 87.58 102.01 98.36"/><polygon class="cls-38" points="99.35 100.14 99.55 100.03 99.55 88.8 99.35 88.91 99.35 100.14"/><polygon class="cls-3" points="102.64 87.02 102.64 98.73 102.2 98.48 102.2 87.25 102.64 87.02"/><polygon class="cls-43" points="102.64 98.73 99.79 100.39 99.35 100.14 102.2 98.48 102.64 98.73"/><polygon class="cls-35" points="99.1 88.69 99.79 88.5 99.79 100.39 99.1 100.39 99.1 88.69"/><polygon class="cls-38" points="102.2 73.67 99.35 75.33 99.35 86.56 102.2 84.9 102.2 73.67"/><polygon class="cls-54" points="99.55 75.44 102.01 74 102.01 84.79 99.55 86.23 99.55 75.44"/><polygon class="cls-55" points="101.39 74.36 100.68 85.44 99.78 85.97 100.49 74.89 101.39 74.36"/><polygon class="cls-41" points="101.81 74.11 101.81 84.69 99.55 86.02 99.55 86.23 102.01 84.79 102.01 74 101.81 74.11"/><polygon class="cls-38" points="102.01 85.01 102.2 84.9 102.2 73.67 102.01 73.78 102.01 85.01"/><polygon class="cls-42" points="102.01 84.79 101.81 84.69 101.81 74.11 102.01 74 102.01 84.79"/><polygon class="cls-38" points="99.35 86.56 99.55 86.45 99.55 75.22 99.35 75.33 99.35 86.56"/><polygon class="cls-3" points="102.64 73.44 102.64 85.15 102.2 84.9 102.2 73.67 102.64 73.44"/><polygon class="cls-43" points="102.64 85.15 99.79 86.82 99.35 86.56 102.2 84.9 102.64 85.15"/><polygon class="cls-35" points="99.1 75.11 99.79 74.92 99.79 86.82 99.1 86.82 99.1 75.11"/><polygon class="cls-38" points="102.2 60.13 99.35 61.8 99.35 73.03 102.2 71.37 102.2 60.13"/><polygon class="cls-56" points="99.55 61.91 102.01 60.47 102.01 71.26 99.55 72.7 99.55 61.91"/><polygon class="cls-57" points="101.39 60.83 100.68 71.91 99.78 72.44 100.49 61.36 101.39 60.83"/><polygon class="cls-41" points="101.81 60.58 101.81 71.16 99.55 72.48 99.55 72.7 102.01 71.26 102.01 60.47 101.81 60.58"/><polygon class="cls-38" points="102.01 71.48 102.2 71.37 102.2 60.13 102.01 60.24 102.01 71.48"/><polygon class="cls-42" points="102.01 71.26 101.81 71.16 101.81 60.58 102.01 60.47 102.01 71.26"/><polygon class="cls-38" points="99.35 73.03 99.55 72.92 99.55 61.69 99.35 61.8 99.35 73.03"/><polygon class="cls-3" points="102.64 59.91 102.64 71.62 102.2 71.37 102.2 60.13 102.64 59.91"/><polygon class="cls-43" points="102.64 71.62 99.79 73.28 99.35 73.03 102.2 71.37 102.64 71.62"/><polygon class="cls-35" points="99.1 61.58 99.79 61.39 99.79 73.28 99.1 73.28 99.1 61.58"/><polygon class="cls-38" points="102.2 46.59 99.35 48.25 99.35 59.49 102.2 57.82 102.2 46.59"/><polygon class="cls-58" points="99.55 48.37 102.01 46.92 102.01 57.71 99.55 59.15 99.55 48.37"/><polygon class="cls-59" points="101.39 47.28 100.68 58.36 99.78 58.9 100.49 47.81 101.39 47.28"/><polygon class="cls-41" points="101.81 47.04 101.81 57.61 99.55 58.94 99.55 59.15 102.01 57.71 102.01 46.92 101.81 47.04"/><polygon class="cls-38" points="102.01 57.93 102.2 57.82 102.2 46.59 102.01 46.7 102.01 57.93"/><polygon class="cls-42" points="102.01 57.71 101.81 57.61 101.81 47.04 102.01 46.92 102.01 57.71"/><polygon class="cls-38" points="99.35 59.49 99.55 59.38 99.55 48.14 99.35 48.25 99.35 59.49"/><polygon class="cls-3" points="102.64 46.37 102.64 58.07 102.2 57.82 102.2 46.59 102.64 46.37"/><polygon class="cls-43" points="102.64 58.07 99.79 59.74 99.35 59.49 102.2 57.82 102.64 58.07"/><polygon class="cls-35" points="99.1 48.03 99.79 47.84 99.79 59.74 99.1 59.74 99.1 48.03"/><polygon class="cls-38" points="102.2 28.79 99.35 30.46 99.35 41.69 102.2 40.02 102.2 28.79"/><polygon class="cls-60" points="99.55 30.57 102.01 29.13 102.01 39.91 99.55 41.36 99.55 30.57"/><polygon class="cls-61" points="101.39 29.48 100.68 40.57 99.78 41.1 100.49 30.02 101.39 29.48"/><polygon class="cls-41" points="101.81 29.24 101.81 39.81 99.55 41.14 99.55 41.36 102.01 39.91 102.01 29.13 101.81 29.24"/><polygon class="cls-38" points="102.01 40.14 102.2 40.02 102.2 28.79 102.01 28.9 102.01 40.14"/><polygon class="cls-42" points="102.01 39.91 101.81 39.81 101.81 29.24 102.01 29.13 102.01 39.91"/><polygon class="cls-38" points="99.35 41.69 99.55 41.58 99.55 30.35 99.35 30.46 99.35 41.69"/><polygon class="cls-3" points="102.64 28.57 102.64 40.28 102.2 40.02 102.2 28.79 102.64 28.57"/><polygon class="cls-43" points="102.64 40.28 99.79 41.94 99.35 41.69 102.2 40.02 102.64 40.28"/><polygon class="cls-35" points="99.1 30.24 99.79 30.05 99.79 41.94 99.1 41.94 99.1 30.24"/><path class="cls-62" d="M81.87,31.32A2.76,2.76,0,0,0,83.09,33a2.26,2.26,0,0,0,1.14.3,3.36,3.36,0,0,0,1.64-.48l16.18-9.34a8.58,8.58,0,0,0,3.61-5.87Z"/><path class="cls-62" d="M105.76,16.39a6.72,6.72,0,0,1-.1,1.18L81.87,31.32c-.64-.34-2.32-1.25-2.32-1.84,0-2.75.93-3.08,3-4.27l19-11.88a2.69,2.69,0,0,1,2.77-.18A3.54,3.54,0,0,1,105.76,16.39Z"/><path class="cls-63" d="M102.71,20.7,86.53,30c-1.91,1.1-3.46-.06-3.46-2.61h0a8.26,8.26,0,0,1,3.46-6.59l16.18-9.35c1.91-1.1,3.45.07,3.45,2.61h0C106.16,16.64,104.62,19.6,102.71,20.7Z"/><path class="cls-64" d="M85.15,31c-.27,0,.66.67.41.58s-1.43-.82-1.55-.89a3.54,3.54,0,0,1-1.46-3.24,8.69,8.69,0,0,1,3.72-7L102.45,11a2.73,2.73,0,0,1,2.78-.18l1.3.76S105.05,20,103,21.15L86.79,30.49A3.25,3.25,0,0,1,85.15,31Z"/><path class="cls-63" d="M104,21.46,87.83,30.8c-1.91,1.1-3.46-.07-3.46-2.61h0a8.26,8.26,0,0,1,3.46-6.59L104,12.25c1.91-1.1,3.45.07,3.45,2.61h0C107.46,17.4,105.92,20.36,104,21.46Z"/><path class="cls-65" d="M86.45,31.74a2.17,2.17,0,0,1-1.14-.31,3.54,3.54,0,0,1-1.46-3.24,8.72,8.72,0,0,1,3.72-7l16.18-9.35a2.73,2.73,0,0,1,2.78-.18A3.56,3.56,0,0,1,108,14.86a8.73,8.73,0,0,1-3.71,7.05L88.09,31.25A3.35,3.35,0,0,1,86.45,31.74Zm18.93-19.39a2.31,2.31,0,0,0-1.11.35L88.09,22a7.7,7.7,0,0,0-3.2,6.15,2.58,2.58,0,0,0,.94,2.34,1.77,1.77,0,0,0,1.74-.18L103.75,21a7.73,7.73,0,0,0,3.2-6.15,2.6,2.6,0,0,0-.94-2.34A1.22,1.22,0,0,0,105.38,12.35Z"/></g></g></g></svg>