<svg xmlns="http://www.w3.org/2000/svg" xmlns:xlink="http://www.w3.org/1999/xlink" viewBox="0 0 154.82 119.32"><defs><style>.cls-1{fill:none;}.cls-2{fill:#767474;}.cls-10,.cls-100,.cls-101,.cls-102,.cls-103,.cls-104,.cls-105,.cls-106,.cls-107,.cls-108,.cls-109,.cls-11,.cls-110,.cls-111,.cls-112,.cls-113,.cls-114,.cls-115,.cls-116,.cls-117,.cls-118,.cls-119,.cls-12,.cls-120,.cls-121,.cls-122,.cls-123,.cls-124,.cls-125,.cls-126,.cls-127,.cls-128,.cls-129,.cls-13,.cls-130,.cls-131,.cls-132,.cls-133,.cls-14,.cls-15,.cls-16,.cls-17,.cls-18,.cls-19,.cls-2,.cls-20,.cls-21,.cls-22,.cls-23,.cls-24,.cls-25,.cls-26,.cls-27,.cls-28,.cls-29,.cls-3,.cls-30,.cls-31,.cls-32,.cls-33,.cls-34,.cls-35,.cls-36,.cls-37,.cls-38,.cls-39,.cls-4,.cls-40,.cls-41,.cls-42,.cls-43,.cls-44,.cls-45,.cls-46,.cls-47,.cls-48,.cls-49,.cls-5,.cls-50,.cls-51,.cls-52,.cls-53,.cls-54,.cls-55,.cls-56,.cls-57,.cls-58,.cls-59,.cls-6,.cls-60,.cls-61,.cls-62,.cls-63,.cls-64,.cls-65,.cls-66,.cls-67,.cls-68,.cls-69,.cls-7,.cls-70,.cls-71,.cls-72,.cls-73,.cls-74,.cls-75,.cls-76,.cls-77,.cls-78,.cls-79,.cls-8,.cls-80,.cls-81,.cls-82,.cls-83,.cls-84,.cls-85,.cls-86,.cls-87,.cls-88,.cls-89,.cls-9,.cls-90,.cls-91,.cls-92,.cls-93,.cls-94,.cls-95,.cls-96,.cls-97,.cls-98,.cls-99{fill-rule:evenodd;}.cls-3{fill:#4d4d4d;}.cls-4{fill:url(#GradientFill_70);}.cls-5{fill:#a69b96;}.cls-6{fill:#141414;}.cls-7{fill:url(#GradientFill_70-2);}.cls-8{fill:url(#GradientFill_70-3);}.cls-9{fill:url(#GradientFill_72);}.cls-10{fill:url(#GradientFill_82);}.cls-11{fill:#c2c2c2;}.cls-12{fill:url(#GradientFill_70-4);}.cls-13{fill:#525252;}.cls-14{fill:url(#GradientFill_72-2);}.cls-15{fill:#969a90;}.cls-16{fill:url(#GradientFill_68);}.cls-17{fill:url(#GradientFill_81);}.cls-18{fill:#1f1f1f;}.cls-19{fill:#cac5a8;}.cls-20{fill:url(#GradientFill_68-2);}.cls-21{fill:url(#GradientFill_69);}.cls-22{fill:#6f6f6d;}.cls-23{fill:url(#GradientFill_68-3);}.cls-24{fill:url(#GradientFill_67);}.cls-25{fill:url(#GradientFill_66);}.cls-26{fill:url(#GradientFill_65);}.cls-27{fill:url(#GradientFill_54);}.cls-28{fill:#18140f;}.cls-29{fill:#b4b4b4;}.cls-30{fill:url(#GradientFill_67-2);}.cls-31{fill:#444;}.cls-32{fill:url(#GradientFill_67-4);}.cls-33{fill:url(#GradientFill_67-5);}.cls-34{fill:url(#GradientFill_67-7);}.cls-35{fill:url(#GradientFill_70-5);}.cls-36{fill:#727272;}.cls-37{fill:url(#GradientFill_68-4);}.cls-38{fill:url(#GradientFill_70-6);}.cls-39{fill:url(#GradientFill_70-7);}.cls-40{fill:url(#GradientFill_70-8);}.cls-41{fill:#bbb;}.cls-42{fill:url(#GradientFill_73);}.cls-43{fill:url(#GradientFill_74);}.cls-44{fill:url(#GradientFill_73-2);}.cls-45{fill:url(#GradientFill_73-3);}.cls-46{fill:#77716d;}.cls-47{fill:url(#GradientFill_74-2);}.cls-48{fill:url(#GradientFill_73-4);}.cls-49{fill:url(#GradientFill_73-5);}.cls-50{fill:url(#GradientFill_74-3);}.cls-51{fill:url(#GradientFill_73-6);}.cls-52{fill:url(#GradientFill_73-7);}.cls-53{fill:url(#GradientFill_76);}.cls-54{fill:url(#GradientFill_70-9);}.cls-55{fill:url(#GradientFill_6);}.cls-56{fill:url(#GradientFill_70-10);}.cls-57{fill:url(#GradientFill_70-11);}.cls-58{fill:#928568;}.cls-59{fill:url(#GradientFill_72-3);}.cls-60{fill:url(#GradientFill_70-12);}.cls-61{fill:#5f5f5f;}.cls-62{fill:url(#GradientFill_5);}.cls-63{fill:#736843;}.cls-64{fill:#cba20f;}.cls-65{fill:#dbb526;}.cls-66{fill:url(#GradientFill_2);}.cls-67{fill:url(#GradientFill_2-2);}.cls-68{fill:url(#GradientFill_2-3);}.cls-69{fill:url(#GradientFill_2-4);}.cls-70{fill:url(#GradientFill_3);}.cls-71{fill:url(#GradientFill_3-2);}.cls-72{fill:url(#GradientFill_3-3);}.cls-73{fill:url(#GradientFill_4);}.cls-74{fill:url(#GradientFill_2-5);}.cls-75{fill:url(#GradientFill_3-4);}.cls-76{fill:url(#GradientFill_2-6);}.cls-77{fill:url(#GradientFill_76-2);}.cls-78{fill:url(#GradientFill_74-4);}.cls-79{fill:url(#GradientFill_73-8);}.cls-80{fill:url(#GradientFill_73-9);}.cls-81{fill:url(#GradientFill_74-5);}.cls-82{fill:url(#GradientFill_73-10);}.cls-83{fill:url(#GradientFill_73-11);}.cls-84{fill:url(#GradientFill_74-6);}.cls-85{fill:url(#GradientFill_73-12);}.cls-86{fill:url(#GradientFill_73-13);}.cls-87{fill:url(#GradientFill_72-4);}.cls-88{fill:url(#Безымянный_градиент_231);}.cls-89{fill:url(#Безымянный_градиент_230);}.cls-90{fill:url(#Безымянный_градиент_229);}.cls-91{fill:url(#Безымянный_градиент_229-2);}.cls-92{fill:url(#Безымянный_градиент_229-3);}.cls-93{fill:url(#Безымянный_градиент_228);}.cls-94{fill:url(#Безымянный_градиент_227);}.cls-95{fill:url(#Безымянный_градиент_227-2);}.cls-96{fill:url(#Безымянный_градиент_226);}.cls-97{fill:url(#Безымянный_градиент_226-2);}.cls-98{fill:url(#Безымянный_градиент_225);}.cls-99{fill:url(#Безымянный_градиент_225-2);}.cls-100{fill:url(#Безымянный_градиент_224);}.cls-101{fill:url(#Безымянный_градиент_224-2);}.cls-102{fill:url(#Безымянный_градиент_223);}.cls-103{fill:url(#Безымянный_градиент_222);}.cls-104{fill:url(#Безымянный_градиент_222-2);}.cls-105{fill:url(#Безымянный_градиент_222-3);}.cls-106{fill:url(#Безымянный_градиент_221);}.cls-107{fill:url(#Безымянный_градиент_220);}.cls-108{fill:#484848;}.cls-109{fill:#474747;}.cls-110{fill:#464646;}.cls-111{fill:#434343;}.cls-112{fill:#454545;}.cls-113{fill:#494949;}.cls-114{fill:#4a4a4a;}.cls-115{fill:#c4c4c4;}.cls-116{fill:url(#GradientFill_70-13);}.cls-117{fill:url(#GradientFill_70-14);}.cls-118{fill:#706c6a;}.cls-119{fill:url(#GradientFill_70-15);}.cls-120{fill:url(#GradientFill_70-16);}.cls-121{fill:url(#GradientFill_67-8);}.cls-122{fill:url(#GradientFill_67-10);}.cls-123{fill:url(#GradientFill_67-11);}.cls-124{fill:url(#GradientFill_67-13);}.cls-125{fill:url(#GradientFill_67-14);}.cls-126{fill:url(#GradientFill_67-16);}.cls-127{fill:url(#GradientFill_68-5);}.cls-128{fill:url(#GradientFill_69-2);}.cls-129{fill:url(#GradientFill_68-6);}.cls-130{fill:url(#GradientFill_67-17);}.cls-131{fill:url(#GradientFill_66-2);}.cls-132{fill:url(#GradientFill_65-2);}.cls-133{fill:url(#GradientFill_54-2);}.cls-134{isolation:isolate;}.cls-135{fill:#8b6704;}.cls-136{clip-path:url(#clip-path);}.cls-137{fill:#886604;}.cls-138{fill:#836204;}.cls-139{clip-path:url(#clip-path-2);}.cls-140{fill:#977105;}.cls-141{fill:#9c7505;}.cls-142{clip-path:url(#clip-path-3);}.cls-143{fill:#8d6904;}.cls-144{fill:#926d05;}.cls-145{fill:#dea507;}.cls-146{fill:#7e5e04;}.cls-147{fill:#8a6704;}.cls-148{clip-path:url(#clip-path-4);}.cls-149{clip-path:url(#clip-path-5);}.cls-150{clip-path:url(#clip-path-6);}.cls-151{clip-path:url(#clip-path-7);}.cls-152{clip-path:url(#clip-path-8);}.cls-153{clip-path:url(#clip-path-9);}.cls-154{clip-path:url(#clip-path-10);}.cls-155{clip-path:url(#clip-path-11);}</style><linearGradient id="GradientFill_70" x1="57.37" y1="70.95" x2="59.4" y2="70.95" gradientTransform="matrix(-1, 0, 0, 1, 187.37, 0)" gradientUnits="userSpaceOnUse"><stop offset="0" stop-color="#77716d"/><stop offset="1" stop-color="#505050"/></linearGradient><linearGradient id="GradientFill_70-2" x1="38.15" y1="64.75" x2="38.35" y2="60.93" xlink:href="#GradientFill_70"/><linearGradient id="GradientFill_70-3" x1="36.67" y1="59.2" x2="38.71" y2="59.2" xlink:href="#GradientFill_70"/><linearGradient id="GradientFill_72" x1="148.17" y1="71.36" x2="179.4" y2="125.45" gradientTransform="matrix(-1, 0, 0, 1, 187.37, 0)" gradientUnits="userSpaceOnUse"><stop offset="0" stop-color="#4d4d4d"/><stop offset="1" stop-color="#484242"/></linearGradient><linearGradient id="GradientFill_82" x1="159.47" y1="79.55" x2="155.11" y2="71.68" gradientTransform="matrix(-1, 0, 0, 1, 187.37, 0)" gradientUnits="userSpaceOnUse"><stop offset="0" stop-color="#4c4c4c"/><stop offset="1" stop-color="#484242"/></linearGradient><linearGradient id="GradientFill_70-4" x1="85.58" y1="74.03" x2="132.92" y2="98.15" xlink:href="#GradientFill_70"/><linearGradient id="GradientFill_72-2" x1="103.58" y1="88.86" x2="92.81" y2="88.86" xlink:href="#GradientFill_72"/><linearGradient id="GradientFill_68" x1="125.78" y1="81.37" x2="108.38" y2="51.22" gradientTransform="matrix(-1, 0, 0, 1, 187.37, 0)" gradientUnits="userSpaceOnUse"><stop offset="0" stop-color="#525252"/><stop offset="1" stop-color="#414141"/></linearGradient><linearGradient id="GradientFill_81" x1="123.65" y1="21.9" x2="118.01" y2="31.29" gradientTransform="matrix(-1, 0, 0, 1, 187.37, 0)" gradientUnits="userSpaceOnUse"><stop offset="0" stop-color="#727272"/><stop offset="1" stop-color="#cac5a8"/></linearGradient><linearGradient id="GradientFill_68-2" x1="105.55" y1="11.18" x2="102.01" y2="7.63" xlink:href="#GradientFill_68"/><linearGradient id="GradientFill_69" x1="105.71" y1="10.92" x2="106.4" y2="7.91" gradientTransform="matrix(-1, 0, 0, 1, 187.37, 0)" gradientUnits="userSpaceOnUse"><stop offset="0" stop-color="#4f4f4f"/><stop offset="1" stop-color="#797979"/></linearGradient><linearGradient id="GradientFill_68-3" x1="102.48" y1="14.57" x2="103.48" y2="10.83" xlink:href="#GradientFill_68"/><linearGradient id="GradientFill_67" x1="108.32" y1="9.52" x2="109.44" y2="11.47" gradientTransform="matrix(-1, 0, 0, 1, 187.37, 0)" gradientUnits="userSpaceOnUse"><stop offset="0" stop-color="#919191"/><stop offset="1" stop-color="#797979"/></linearGradient><linearGradient id="GradientFill_66" x1="97.86" y1="9.94" x2="100.57" y2="14.82" gradientTransform="matrix(-1, 0, 0, 1, 187.37, 0)" gradientUnits="userSpaceOnUse"><stop offset="0" stop-color="#8f8f8f"/><stop offset="0.52" stop-color="#888"/><stop offset="1" stop-color="#818181"/></linearGradient><linearGradient id="GradientFill_65" x1="80.65" y1="18.06" x2="76.91" y2="32.01" gradientTransform="matrix(-1, 0, 0, 1, 187.37, 0)" gradientUnits="userSpaceOnUse"><stop offset="0" stop-color="#b8b8b8"/><stop offset="1" stop-color="#c9c7bb"/></linearGradient><linearGradient id="GradientFill_54" x1="86.63" y1="17.05" x2="92.21" y2="26.72" gradientTransform="matrix(-1, 0, 0, 1, 187.37, 0)" gradientUnits="userSpaceOnUse"><stop offset="0" stop-color="#979797"/><stop offset="1" stop-color="#6f6f6d"/></linearGradient><linearGradient id="GradientFill_67-2" x1="64.45" y1="27.45" x2="68.35" y2="34.22" xlink:href="#GradientFill_67"/><linearGradient id="GradientFill_67-4" x1="69.04" y1="29.03" x2="56.52" y2="21.8" xlink:href="#GradientFill_67"/><linearGradient id="GradientFill_67-5" x1="72.31" y1="31.99" x2="76.22" y2="38.76" xlink:href="#GradientFill_67"/><linearGradient id="GradientFill_67-7" x1="76.91" y1="33.57" x2="64.39" y2="26.34" xlink:href="#GradientFill_67"/><linearGradient id="GradientFill_70-5" x1="96.27" y1="53.09" x2="143.58" y2="77.19" xlink:href="#GradientFill_70"/><linearGradient id="GradientFill_68-4" x1="106.29" y1="73.89" x2="95.55" y2="73.89" xlink:href="#GradientFill_68"/><linearGradient id="GradientFill_70-6" x1="60.95" y1="83.79" x2="58.82" y2="85.84" xlink:href="#GradientFill_70"/><linearGradient id="GradientFill_70-7" x1="74.53" y1="93.88" x2="83.07" y2="79.67" xlink:href="#GradientFill_70"/><linearGradient id="GradientFill_70-8" x1="72.16" y1="92.54" x2="80.77" y2="78.2" xlink:href="#GradientFill_70"/><linearGradient id="GradientFill_73" x1="111.94" y1="80.98" x2="-210.77" y2="120.61" gradientTransform="matrix(-1, 0, 0, 1, 187.37, 0)" gradientUnits="userSpaceOnUse"><stop offset="0" stop-color="#9d9d9d"/><stop offset="1" stop-color="#8a8a8a"/></linearGradient><linearGradient id="GradientFill_74" x1="89.42" y1="88.58" x2="92.06" y2="82.66" gradientTransform="matrix(-1, 0, 0, 1, 187.37, 0)" gradientUnits="userSpaceOnUse"><stop offset="0" stop-color="#c4c4c4"/><stop offset="1" stop-color="#a9a9a9"/></linearGradient><linearGradient id="GradientFill_73-2" x1="81.8" y1="96.54" x2="81.57" y2="95.11" xlink:href="#GradientFill_73"/><linearGradient id="GradientFill_73-3" x1="78.39" y1="92.2" x2="81.16" y2="92.2" xlink:href="#GradientFill_73"/><linearGradient id="GradientFill_74-2" x1="81.18" y1="83.82" x2="83.82" y2="77.9" xlink:href="#GradientFill_74"/><linearGradient id="GradientFill_73-4" x1="73.56" y1="91.78" x2="73.33" y2="90.35" xlink:href="#GradientFill_73"/><linearGradient id="GradientFill_73-5" x1="72.09" y1="87.44" x2="73.57" y2="87.44" xlink:href="#GradientFill_73"/><linearGradient id="GradientFill_74-3" x1="72.94" y1="79.06" x2="75.57" y2="73.15" xlink:href="#GradientFill_74"/><linearGradient id="GradientFill_73-6" x1="65.32" y1="87.02" x2="65.09" y2="85.59" xlink:href="#GradientFill_73"/><linearGradient id="GradientFill_73-7" x1="64.15" y1="82.68" x2="65.33" y2="82.68" xlink:href="#GradientFill_73"/><linearGradient id="GradientFill_76" x1="86.98" y1="94.53" x2="89.14" y2="94.53" gradientTransform="matrix(-1, 0, 0, 1, 187.37, 0)" gradientUnits="userSpaceOnUse"><stop offset="0" stop-color="#a2a2a2"/><stop offset="1" stop-color="#909090"/></linearGradient><linearGradient id="GradientFill_70-9" x1="124.83" y1="109.9" x2="126.86" y2="109.9" xlink:href="#GradientFill_70"/><linearGradient id="GradientFill_6" x1="104.2" y1="102.16" x2="93.91" y2="106.75" gradientTransform="matrix(-1, 0, 0, 1, 187.37, 0)" gradientUnits="userSpaceOnUse"><stop offset="0" stop-color="#272524"/><stop offset="1"/></linearGradient><linearGradient id="GradientFill_70-10" x1="105.72" y1="103.7" x2="105.92" y2="99.88" xlink:href="#GradientFill_70"/><linearGradient id="GradientFill_70-11" x1="104.13" y1="98.15" x2="106.17" y2="98.15" xlink:href="#GradientFill_70"/><linearGradient id="GradientFill_72-3" x1="84.05" y1="30.58" x2="81.9" y2="26.69" xlink:href="#GradientFill_72"/><linearGradient id="GradientFill_70-12" x1="72.18" y1="25.87" x2="80.41" y2="40.73" xlink:href="#GradientFill_70"/><linearGradient id="GradientFill_5" x1="-98.38" y1="70.75" x2="-99.29" y2="67.1" gradientTransform="translate(180.38)" gradientUnits="userSpaceOnUse"><stop offset="0" stop-color="#635a39"/><stop offset="0.53" stop-color="#736843"/><stop offset="1" stop-color="#a69e2d"/></linearGradient><linearGradient id="GradientFill_2" x1="-107.64" y1="47.61" x2="-106.88" y2="47.61" gradientTransform="translate(180.38)" gradientUnits="userSpaceOnUse"><stop offset="0" stop-color="#978958"/><stop offset="1" stop-color="#849d9d"/></linearGradient><linearGradient id="GradientFill_2-2" x1="-108.65" y1="48.44" x2="-107.5" y2="48.44" xlink:href="#GradientFill_2"/><linearGradient id="GradientFill_2-3" x1="-107.64" y1="49.92" x2="-106.88" y2="49.92" xlink:href="#GradientFill_2"/><linearGradient id="GradientFill_2-4" x1="-108.64" y1="52.4" x2="-107.88" y2="52.4" xlink:href="#GradientFill_2"/><linearGradient id="GradientFill_3" x1="-104.12" y1="53.23" x2="-103.09" y2="56.07" gradientTransform="translate(180.38)" gradientUnits="userSpaceOnUse"><stop offset="0" stop-color="#dbb526"/><stop offset="1" stop-color="#9a8c59"/></linearGradient><linearGradient id="GradientFill_3-2" x1="-104.61" y1="56.65" x2="-105.62" y2="52.28" xlink:href="#GradientFill_3"/><linearGradient id="GradientFill_3-3" x1="-98.72" y1="56.35" x2="-97.69" y2="59.18" xlink:href="#GradientFill_3"/><linearGradient id="GradientFill_4" x1="-99.22" y1="59.77" x2="-100.23" y2="55.4" gradientTransform="translate(180.38)" gradientUnits="userSpaceOnUse"><stop offset="0" stop-color="#dbb526"/><stop offset="1" stop-color="#887b4f"/></linearGradient><linearGradient id="GradientFill_2-5" x1="-91.81" y1="60.51" x2="-91.05" y2="60.51" xlink:href="#GradientFill_2"/><linearGradient id="GradientFill_3-4" x1="-93.81" y1="62.88" x2="-94.98" y2="58.2" xlink:href="#GradientFill_3"/><linearGradient id="GradientFill_2-6" x1="-108.66" y1="48.94" x2="-107.14" y2="48.94" xlink:href="#GradientFill_2"/><linearGradient id="GradientFill_76-2" x1="86.29" y1="81.09" x2="88.44" y2="81.09" xlink:href="#GradientFill_76"/><linearGradient id="GradientFill_74-4" x1="88.73" y1="69.92" x2="91.37" y2="64.01" xlink:href="#GradientFill_74"/><linearGradient id="GradientFill_73-8" x1="81.11" y1="77.88" x2="80.88" y2="76.45" xlink:href="#GradientFill_73"/><linearGradient id="GradientFill_73-9" x1="77.69" y1="76.53" x2="80.47" y2="76.53" xlink:href="#GradientFill_73"/><linearGradient id="GradientFill_74-5" x1="80.49" y1="65.16" x2="83.12" y2="59.25" xlink:href="#GradientFill_74"/><linearGradient id="GradientFill_73-10" x1="72.87" y1="73.13" x2="72.64" y2="71.69" xlink:href="#GradientFill_73"/><linearGradient id="GradientFill_73-11" x1="69.45" y1="71.77" x2="72.23" y2="71.77" xlink:href="#GradientFill_73"/><linearGradient id="GradientFill_74-6" x1="72.25" y1="60.4" x2="74.88" y2="54.49" xlink:href="#GradientFill_74"/><linearGradient id="GradientFill_73-12" x1="64.62" y1="68.37" x2="64.4" y2="66.93" xlink:href="#GradientFill_73"/><linearGradient id="GradientFill_73-13" x1="61.21" y1="67.01" x2="63.98" y2="67.01" xlink:href="#GradientFill_73"/><linearGradient id="GradientFill_72-4" x1="133.38" y1="80.36" x2="164.21" y2="133.76" xlink:href="#GradientFill_72"/><linearGradient id="Безымянный_градиент_231" x1="137.7" y1="78.24" x2="171.42" y2="136.66" gradientTransform="matrix(-0.9, 0, 0, 1, 178.45, 0)" xlink:href="#GradientFill_72"/><linearGradient id="Безымянный_градиент_230" x1="143.01" y1="75.6" x2="180.36" y2="140.29" gradientTransform="matrix(-0.81, 0, 0, 1, 169.52, 0)" gradientUnits="userSpaceOnUse"><stop offset="0" stop-color="#4d4d4d"/><stop offset="1" stop-color="#484343"/></linearGradient><linearGradient id="Безымянный_градиент_229" x1="149.72" y1="72.21" x2="191.72" y2="144.96" gradientTransform="matrix(-0.71, 0, 0, 1, 160.6, 0)" gradientUnits="userSpaceOnUse"><stop offset="0" stop-color="#4c4c4c"/><stop offset="1" stop-color="#484343"/></linearGradient><linearGradient id="Безымянный_градиент_229-2" x1="158.46" y1="67.74" x2="206.61" y2="151.14" gradientTransform="matrix(-0.62, 0, 0, 1, 151.68, 0)" xlink:href="#Безымянный_градиент_229"/><linearGradient id="Безымянный_градиент_229-3" x1="170.33" y1="61.56" x2="226.98" y2="159.68" gradientTransform="matrix(-0.52, 0, 0, 1, 142.76, 0)" xlink:href="#Безымянный_градиент_229"/><linearGradient id="Безымянный_градиент_228" x1="187.42" y1="52.53" x2="256.51" y2="172.2" gradientTransform="matrix(-0.43, 0, 0, 1, 133.83, 0)" gradientUnits="userSpaceOnUse"><stop offset="0" stop-color="#4c4c4c"/><stop offset="1" stop-color="#484444"/></linearGradient><linearGradient id="Безымянный_градиент_227" x1="214.15" y1="38.15" x2="303.07" y2="192.16" gradientTransform="matrix(-0.33, 0, 0, 1, 124.91, 0)" gradientUnits="userSpaceOnUse"><stop offset="0" stop-color="#4b4b4b"/><stop offset="1" stop-color="#484444"/></linearGradient><linearGradient id="Безымянный_градиент_227-2" x1="262.05" y1="11.9" x2="387.17" y2="228.62" gradientTransform="matrix(-0.24, 0, 0, 1, 115.99, 0)" xlink:href="#Безымянный_градиент_227"/><linearGradient id="Безымянный_градиент_226" x1="373.41" y1="-50.02" x2="583.99" y2="314.71" gradientTransform="matrix(-0.14, 0, 0, 1, 107.07, 0)" gradientUnits="userSpaceOnUse"><stop offset="0" stop-color="#4b4b4b"/><stop offset="1" stop-color="#484545"/></linearGradient><linearGradient id="Безымянный_градиент_226-2" x1="928.99" y1="-361.68" x2="1569.77" y2="748.19" gradientTransform="matrix(-0.05, 0, 0, 1, 98.14, 0)" xlink:href="#Безымянный_градиент_226"/><linearGradient id="Безымянный_градиент_225" x1="-1302.72" y1="-405.27" x2="-601.82" y2="808.73" gradientTransform="translate(89.22) scale(0.05 1)" gradientUnits="userSpaceOnUse"><stop offset="0" stop-color="#4a4a4a"/><stop offset="1" stop-color="#484545"/></linearGradient><linearGradient id="Безымянный_градиент_225-2" x1="-387.18" y1="-93.46" x2="-116.73" y2="374.96" gradientTransform="translate(80.3) scale(0.14 1)" xlink:href="#Безымянный_градиент_225"/><linearGradient id="Безымянный_градиент_224" x1="-204.15" y1="-31.25" x2="-19.6" y2="288.39" gradientTransform="translate(71.38) scale(0.24 1)" gradientUnits="userSpaceOnUse"><stop offset="0" stop-color="#4a4a4a"/><stop offset="1" stop-color="#484646"/></linearGradient><linearGradient id="Безымянный_градиент_224-2" x1="-125.74" y1="-4.65" x2="22.07" y2="251.35" gradientTransform="translate(62.46) scale(0.33 1)" xlink:href="#Безымянный_градиент_224"/><linearGradient id="Безымянный_градиент_223" x1="-82.18" y1="10.1" x2="45.23" y2="230.79" gradientTransform="translate(53.53) scale(0.43 1)" gradientUnits="userSpaceOnUse"><stop offset="0" stop-color="#494949"/><stop offset="1" stop-color="#484646"/></linearGradient><linearGradient id="Безымянный_градиент_222" x1="-54.46" y1="19.49" x2="59.97" y2="217.69" gradientTransform="translate(44.61) scale(0.52 1)" gradientUnits="userSpaceOnUse"><stop offset="0" stop-color="#494949"/><stop offset="1" stop-color="#484747"/></linearGradient><linearGradient id="Безымянный_градиент_222-2" x1="-35.27" y1="25.99" x2="70.17" y2="208.61" gradientTransform="translate(35.69) scale(0.62 1)" xlink:href="#Безымянный_градиент_222"/><linearGradient id="Безымянный_градиент_222-3" x1="-21.18" y1="30.77" x2="77.63" y2="201.92" gradientTransform="translate(26.77) scale(0.71 1)" xlink:href="#Безымянный_градиент_222"/><linearGradient id="Безымянный_градиент_221" x1="-10.41" y1="34.43" x2="83.33" y2="196.79" gradientTransform="translate(17.84) scale(0.81 1)" gradientUnits="userSpaceOnUse"><stop offset="0" stop-color="#484848"/><stop offset="1" stop-color="#484747"/></linearGradient><linearGradient id="Безымянный_градиент_220" x1="-1.89" y1="37.33" x2="87.83" y2="192.72" gradientTransform="translate(8.92) scale(0.9 1)" gradientUnits="userSpaceOnUse"><stop offset="0" stop-color="#484848"/><stop offset="1" stop-color="#484848"/></linearGradient><linearGradient id="GradientFill_70-13" x1="137.05" y1="108.29" x2="135.02" y2="108.29" xlink:href="#GradientFill_70"/><linearGradient id="GradientFill_70-14" x1="147.81" y1="98.82" x2="145.48" y2="94.79" xlink:href="#GradientFill_70"/><linearGradient id="GradientFill_70-15" x1="147.99" y1="108.73" x2="145.86" y2="105.04" xlink:href="#GradientFill_70"/><linearGradient id="GradientFill_70-16" x1="158.09" y1="96.54" x2="156.05" y2="96.54" xlink:href="#GradientFill_70"/><linearGradient id="GradientFill_67-8" x1="130.8" y1="65.76" x2="134.7" y2="72.53" xlink:href="#GradientFill_67"/><linearGradient id="GradientFill_67-10" x1="135.39" y1="67.34" x2="122.87" y2="60.11" xlink:href="#GradientFill_67"/><linearGradient id="GradientFill_67-11" x1="115.02" y1="27.25" x2="118.93" y2="34.01" xlink:href="#GradientFill_67"/><linearGradient id="GradientFill_67-13" x1="119.62" y1="28.83" x2="107.1" y2="21.6" xlink:href="#GradientFill_67"/><linearGradient id="GradientFill_67-14" x1="122.89" y1="31.79" x2="126.79" y2="38.56" xlink:href="#GradientFill_67"/><linearGradient id="GradientFill_67-16" x1="127.48" y1="33.37" x2="114.96" y2="26.14" xlink:href="#GradientFill_67"/><linearGradient id="GradientFill_68-5" x1="152.66" y1="38.38" x2="149.11" y2="34.83" xlink:href="#GradientFill_68"/><linearGradient id="GradientFill_69-2" x1="152.81" y1="38.12" x2="153.51" y2="35.11" xlink:href="#GradientFill_69"/><linearGradient id="GradientFill_68-6" x1="149.58" y1="41.77" x2="150.59" y2="38.02" xlink:href="#GradientFill_68"/><linearGradient id="GradientFill_67-17" x1="155.42" y1="36.72" x2="156.55" y2="38.67" xlink:href="#GradientFill_67"/><linearGradient id="GradientFill_66-2" x1="144.97" y1="37.13" x2="147.67" y2="42.01" xlink:href="#GradientFill_66"/><linearGradient id="GradientFill_65-2" x1="127.75" y1="45.25" x2="124.01" y2="59.21" xlink:href="#GradientFill_65"/><linearGradient id="GradientFill_54-2" x1="133.73" y1="44.25" x2="139.32" y2="53.92" xlink:href="#GradientFill_54"/><clipPath id="clip-path"><path class="cls-1" d="M121.8,50.58l.87.52c.39.24.67.83.65,2a5.08,5.08,0,0,1-2.68,4.62l-.86-.52a5.11,5.11,0,0,0,2.67-4.63C122.48,51.41,122.2,50.82,121.8,50.58Z"/></clipPath><clipPath id="clip-path-2"><path class="cls-1" d="M122.78,48.67l.86.52a1.65,1.65,0,0,0-.83-.21l-.86-.53A1.55,1.55,0,0,1,122.78,48.67Z"/></clipPath><clipPath id="clip-path-3"><path class="cls-1" d="M120.8,49.66l-.86-.53a4.19,4.19,0,0,1,2-.68l.86.53A4.19,4.19,0,0,0,120.8,49.66Z"/></clipPath><clipPath id="clip-path-4"><path class="cls-1" d="M111.79,62.3l-.87-.52a1.19,1.19,0,0,0,.64.18,2,2,0,0,0,1-.31l.87.52a2.08,2.08,0,0,1-1,.31A1.14,1.14,0,0,1,111.79,62.3Z"/></clipPath><clipPath id="clip-path-5"><path class="cls-1" d="M114.39,54.75l.86.52a2.2,2.2,0,0,1,.8,2,6.15,6.15,0,0,1-2.61,4.87l-.87-.52a6.16,6.16,0,0,0,2.62-4.87A2.22,2.22,0,0,0,114.39,54.75Z"/></clipPath><clipPath id="clip-path-6"><path class="cls-1" d="M115.32,52.9l.87.52a1.87,1.87,0,0,0-1-.27l-.86-.52A1.84,1.84,0,0,1,115.32,52.9Z"/></clipPath><clipPath id="clip-path-7"><path class="cls-1" d="M110.83,64.16l-.87-.52a3.37,3.37,0,0,1-1.22-3.09c.05-2.87,1.79-6.15,4-7.43a3.23,3.23,0,0,1,1.59-.49l.86.52a3.26,3.26,0,0,0-1.59.49c-2.21,1.28-3.94,4.56-4,7.43C109.57,62.61,110,63.69,110.83,64.16Z"/></clipPath><clipPath id="clip-path-8"><path class="cls-1" d="M103.12,67.31l-.87-.52a1.28,1.28,0,0,0,.64.17,2,2,0,0,0,1-.31l.87.52a2.08,2.08,0,0,1-1,.31A1.22,1.22,0,0,1,103.12,67.31Z"/></clipPath><clipPath id="clip-path-9"><path class="cls-1" d="M105.71,59.75l.86.52a2.23,2.23,0,0,1,.8,2,6.14,6.14,0,0,1-2.6,4.86l-.87-.52a6.16,6.16,0,0,0,2.61-4.86A2.23,2.23,0,0,0,105.71,59.75Z"/></clipPath><clipPath id="clip-path-10"><path class="cls-1" d="M106.65,57.9l.86.52a1.92,1.92,0,0,0-1-.26l-.86-.53A2,2,0,0,1,106.65,57.9Z"/></clipPath><clipPath id="clip-path-11"><path class="cls-1" d="M102.15,69.17l-.86-.53c-.79-.47-1.26-1.55-1.23-3.09,0-2.86,1.8-6.15,4-7.43a3.23,3.23,0,0,1,1.59-.49l.86.53a3.21,3.21,0,0,0-1.59.48c-2.21,1.28-4,4.57-4,7.43A3.39,3.39,0,0,0,102.15,69.17Z"/></clipPath></defs><g id="Слой_2" data-name="Слой 2"><g id="Layer_1" data-name="Layer 1"><polygon class="cls-2" points="153.08 33.38 57.82 88.38 57.82 119.32 153.08 64.32 153.08 33.38"/><path class="cls-3" d="M127.79,77.91V67.08l.68-1.75L149.89,53V63.8l-.68,1.74L127.79,77.91Zm1.41-3,19.28-11.13V56L129.2,67.1Z"/><polygon class="cls-4" points="128.47 65.33 128.47 76.17 129.16 76.57 129.16 65.73 128.47 65.33"/><polygon class="cls-5" points="128.47 65.33 149.89 52.96 150.59 53.36 129.16 65.73 128.47 65.33"/><path class="cls-6" d="M129.16,76.57V65.73l21.43-12.37V64.2l-.73.42h0l-20,11.52-.73.43Zm20.7-12.79V54.63l-20,11.52V75.3Z"/><polygon class="cls-5" points="129.89 74.5 149.16 63.38 149.85 63.77 129.89 75.3 129.89 74.5"/><polygon class="cls-7" points="148.47 63.77 149.16 63.38 149.85 63.77 148.47 63.77"/><polygon class="cls-8" points="149.16 55.03 149.16 63.38 149.85 63.77 149.86 54.63 149.16 55.03"/><polygon class="cls-9" points="1.74 56 57.82 88.38 57.82 119.32 1.74 86.94 1.74 56"/><polygon class="cls-10" points="1.74 56 57.82 88.38 57.82 96.29 1.74 63.91 1.74 56"/><polygon class="cls-11" points="1.74 56 57.82 88.38 153.08 33.38 97 1 1.74 56"/><polygon class="cls-12" points="88.35 55.1 92.92 57.74 92.92 104.33 88.35 101.69 88.35 55.1"/><polygon class="cls-13" points="0 56 57.82 89.39 57.82 92.51 0 59.12 0 56"/><polygon class="cls-3" points="87.48 75.39 57.82 92.51 57.82 93.24 87.48 76.12 87.48 75.39"/><polygon class="cls-14" points="83.78 73.4 83.78 95.19 79.2 106.97 83.78 104.33 83.78 104.33 88.35 101.69 88.35 101.69 88.35 92.55 88.35 70.76 83.78 73.4"/><polygon class="cls-15" points="0 56 57.82 89.39 89.22 71.26 68.24 59.15 102.45 39.4 123.43 51.51 154.82 33.38 97 0 0 56"/><polygon class="cls-16" points="85.52 73.4 89.22 71.26 68.24 59.15 94.64 43.91 86.82 39.4 52.61 59.15 77.29 73.4 85.52 73.4"/><polygon class="cls-17" points="6.96 56 97 4.02 147.86 33.38 123.43 47.49 102.45 35.38 61.28 59.15 82.26 71.26 57.82 85.37 6.96 56"/><polygon class="cls-18" points="41.35 60.76 96.49 5.33 97 4.02 147.86 33.38 123.43 47.49 102.45 35.38 61.28 59.15 82.26 71.26 57.82 85.37 41.35 60.76"/><polygon class="cls-19" points="7.84 56.51 97 5.04 146.98 33.89 123.43 47.49 102.45 35.38 61.28 59.15 61.28 60.17 81.38 71.77 57.82 85.37 7.84 56.51"/><polygon class="cls-20" points="79.64 10.02 82.27 8.51 85.78 10.54 84.12 11.5 83.12 12.03 79.64 10.02"/><polygon class="cls-21" points="80.27 8.32 80.27 9.66 81.43 8.99 81.94 9.28 81.94 7.36 80.27 8.32"/><polygon class="cls-22" points="104.22 25.75 110.76 21.97 100.56 16.08 94.69 16.08 93.64 16.68 85.24 11.83 82.62 13.34 91.02 18.2 88.14 19.86 98.35 25.75 104.22 25.75"/><polygon class="cls-23" points="83.12 12.03 85.75 10.52 85.24 11.83 82.62 13.34 83.12 12.03"/><polygon class="cls-24" points="78.61 9.28 79.19 9.61 79.19 10.28 78.61 9.95 78.61 9.28"/><polygon class="cls-25" points="98.08 18.6 81.43 8.99 80.27 8.32 80.27 9.66 78.61 10.62 78.61 5.44 98.08 16.68 98.08 18.6"/><polygon class="cls-11" points="78.61 5.44 98.08 16.68 99.75 15.72 80.28 4.48 78.61 5.44"/><polygon class="cls-11" points="94.01 13.99 104.22 19.88 110.76 16.1 100.56 10.21 94.01 13.99"/><polygon class="cls-26" points="110.76 16.1 104.21 19.88 104.22 25.75 110.76 21.97 110.76 16.1"/><polygon class="cls-27" points="94.01 13.99 104.21 19.88 104.21 25.75 94.01 19.86 94.01 13.99"/><path class="cls-28" d="M101.84,19.75a.78.78,0,0,1,.35.61.24.24,0,0,1-.35.2c-.12-.07-.08-.06-.11-.09l-.26.14a.86.86,0,0,0-.25.28h0a.75.75,0,0,0-.11.36v3.42s0,0,.13,0a.23.23,0,0,1,0,.4.73.73,0,0,1-.7,0,.23.23,0,0,1,0-.4c.12-.07.09,0,.13,0V21.25a1.25,1.25,0,0,1,.17-.58h0a1.16,1.16,0,0,1,.42-.43l.25-.15s0,0,0-.14A.24.24,0,0,1,101.84,19.75Z"/><path class="cls-28" d="M100.52,19a.77.77,0,0,1,.35.6.24.24,0,0,1-.35.21c-.11-.07-.08-.06-.11-.09l-.25.14a.78.78,0,0,0-.26.28h0a.72.72,0,0,0-.11.36v3.42s0,0,.13.05a.23.23,0,0,1,0,.4.71.71,0,0,1-.69,0,.23.23,0,0,1,0-.4c.11-.07.08,0,.13-.05V20.49a1.14,1.14,0,0,1,.17-.58h0a1.13,1.13,0,0,1,.41-.43l.25-.15s0,0,0-.14A.24.24,0,0,1,100.52,19Z"/><polygon class="cls-22" points="125.6 32.84 130.06 30.26 123.11 26.25 119.11 26.25 114.65 28.82 121.6 32.84 125.6 32.84"/><polygon class="cls-11" points="118.65 24.83 125.6 28.84 130.06 26.27 123.11 22.25 118.65 24.83"/><polygon class="cls-29" points="130.06 26.27 125.6 28.84 125.6 32.84 130.06 30.26 130.06 26.27"/><polygon class="cls-30" points="118.65 24.83 125.6 28.84 125.6 32.84 118.65 28.82 118.65 24.83"/><polygon class="cls-30" points="118.65 24.83 125.6 28.84 125.6 32.84 118.65 28.82 118.65 24.83"/><polygon class="cls-31" points="119 25.43 125.25 29.04 125.25 32.23 119 28.62 119 25.43"/><path class="cls-32" d="M124.54,27.19a2.94,2.94,0,0,0,2.65,0c.74-.43.74-1.11,0-1.53a2.88,2.88,0,0,0-2.65,0,.81.81,0,0,0,0,1.53Zm.59-.34c-.41-.24-.41-.62,0-.85a1.61,1.61,0,0,1,1.48,0,.45.45,0,0,1,0,.85,1.67,1.67,0,0,1-1.48,0Zm-3.62-1.41a.81.81,0,0,1,0-1.53,3,3,0,0,1,2.66,0,.81.81,0,0,1,0,1.53,3,3,0,0,1-2.66,0Zm.59-.34c-.41-.24-.41-.62,0-.85a1.61,1.61,0,0,1,1.48,0c.41.23.41.61,0,.85A1.61,1.61,0,0,1,122.1,25.1Z"/><polygon class="cls-22" points="117.73 37.38 122.19 34.8 115.24 30.79 111.25 30.79 106.79 33.37 113.74 37.38 117.73 37.38"/><polygon class="cls-11" points="110.78 29.37 117.73 33.38 122.19 30.81 115.24 26.8 110.78 29.37"/><polygon class="cls-29" points="122.19 30.81 117.73 33.38 117.73 37.38 122.19 34.8 122.19 30.81"/><polygon class="cls-33" points="110.78 29.37 117.73 33.38 117.73 37.38 110.78 33.37 110.78 29.37"/><polygon class="cls-33" points="110.78 29.37 117.73 33.38 117.73 37.38 110.78 33.37 110.78 29.37"/><polygon class="cls-31" points="111.13 29.97 117.39 33.58 117.39 36.77 111.13 33.16 111.13 29.97"/><path class="cls-34" d="M116.68,31.73a2.94,2.94,0,0,0,2.65,0,.81.81,0,0,0,0-1.53,2.88,2.88,0,0,0-2.65,0,.8.8,0,0,0,0,1.53Zm.58-.34a.45.45,0,0,1,0-.85,1.61,1.61,0,0,1,1.48,0c.41.23.41.61,0,.85a1.67,1.67,0,0,1-1.48,0ZM113.65,30a.81.81,0,0,1,0-1.53,2.94,2.94,0,0,1,2.65,0,.81.81,0,0,1,0,1.53,2.94,2.94,0,0,1-2.65,0Zm.59-.34a.45.45,0,0,1,0-.85,1.59,1.59,0,0,1,1.47,0,.45.45,0,0,1,0,.85A1.59,1.59,0,0,1,114.24,29.64Z"/><path class="cls-22" d="M96.49,5.33,97,5l50,28.85-.51.3-50-28.86ZM89.77,42.7,61.28,59.15v1l20.09,11.6-.5.29-4.08,2.35h-.52L51.6,60.17,85.8,40.42Z"/><polygon class="cls-5" points="68.24 43.49 92.92 57.74 127.13 37.99 102.45 23.74 68.24 43.49"/><polygon class="cls-35" points="68.24 43.49 92.92 57.74 92.92 73.4 68.24 59.15 68.24 43.49"/><polygon class="cls-3" points="153.08 37.51 123.43 54.63 123.43 55.37 153.08 38.24 153.08 37.51"/><polygon class="cls-36" points="89.22 71.26 57.82 89.39 57.82 92.51 89.22 74.38 89.22 71.26"/><polygon class="cls-37" points="89.22 71.26 85.52 73.4 85.52 76.52 89.22 74.38 89.22 71.26"/><polygon class="cls-36" points="154.82 33.38 123.43 51.51 123.43 54.63 154.82 36.5 154.82 33.38"/><polygon class="cls-6" points="127.13 37.99 92.92 57.74 92.92 104.33 127.13 84.58 127.13 37.99"/><polygon class="cls-38" points="126.65 84.86 127.13 84.58 127.13 83.63 126.65 84.86"/><polygon class="cls-39" points="96.63 102.19 97.35 101.77 97.35 89.02 104.88 84.68 104.88 97.43 105.59 97.01 105.59 84.26 113.12 79.92 113.12 92.67 113.84 92.25 113.84 79.5 121.33 75.17 121.33 87.93 122.05 87.51 122.05 73.93 96.63 88.61 96.63 89.44 96.63 102.19"/><polygon class="cls-40" points="92.92 101.53 120.17 85.8 127.13 67.86 127.13 67.86 127.13 66.29 127.13 66.29 92.92 86.04 92.92 101.53"/><path class="cls-41" d="M123.42,87.52V72.59L98,87.26v14.93l25.42-14.67Zm-24.7.16,7.53-4.35V96.61L98.72,101V87.68ZM107,82.92l7.52-4.35V91.85L107,96.19V82.92Zm8.24-4.76,7.5-4.33V87.1l-7.5,4.33Z"/><polygon class="cls-42" points="123.42 79.59 123.42 72.59 98 87.26 98 88.09 98 98.04 98.72 97.63 98.72 87.68 106.25 83.33 106.25 93.28 106.97 92.87 106.97 82.92 114.49 78.57 114.49 88.53 115.21 88.11 115.21 78.16 122.71 73.83 122.71 81.44 123.42 79.59"/><polygon class="cls-43" points="98.72 100.15 105.56 96.21 106.25 96.61 98.72 100.95 98.72 100.15"/><polygon class="cls-44" points="104.86 96.61 105.56 96.21 106.25 96.61 104.86 96.61"/><polygon class="cls-45" points="105.56 88.19 105.56 96.21 106.25 96.61 106.25 87.79 105.56 88.19"/><path class="cls-46" d="M122.74,70.21l.68-1.75V64L98,78.64l-.68,1.75v4.49l25.42-14.67Zm-24,10.2,6.85-4v1.48l-6.85,4V80.41ZM107,75.65l6.85-4v1.48L107,77.13V75.65Zm8.25-4.76L122,67v1.48l-6.82,3.94Z"/><polygon class="cls-47" points="106.97 95.39 113.8 91.45 114.49 91.85 106.97 96.19 106.97 95.39"/><polygon class="cls-48" points="113.11 91.85 113.8 91.45 114.49 91.85 113.11 91.85"/><polygon class="cls-49" points="113.8 83.43 113.8 91.45 114.49 91.85 114.49 83.03 113.8 83.43"/><polygon class="cls-50" points="115.21 90.63 122.04 86.69 122.73 87.09 115.21 91.43 115.21 90.63"/><polygon class="cls-51" points="121.35 87.09 122.04 86.69 122.73 87.09 121.35 87.09"/><polygon class="cls-52" points="122.04 78.67 122.04 86.69 122.73 87.09 122.73 78.28 122.04 78.67"/><polygon class="cls-53" points="97.31 86.86 97.31 101.8 98 102.19 98 87.26 97.31 86.86"/><polygon class="cls-15" points="92.92 86.04 99.88 90.06 134.09 70.31 127.13 66.29 92.92 86.04"/><polygon class="cls-13" points="92.92 86.04 99.88 90.06 99.88 91.63 92.92 87.61 92.92 86.04"/><polygon class="cls-36" points="134.09 70.31 99.88 90.06 99.88 91.63 134.09 71.88 134.09 70.31"/><polygon class="cls-13" points="98.7 82.71 97.32 83.5 98.7 83.54 98.7 82.71"/><path class="cls-3" d="M60.33,116.86V106l.68-1.74L82.43,91.91v10.84l-.68,1.74L60.33,116.86ZM81,102.29V94.92L61.74,106.05v7.8l19.07-11Z"/><polygon class="cls-54" points="61.01 104.28 61.01 115.12 61.7 115.52 61.7 104.68 61.01 104.28"/><polygon class="cls-5" points="61.01 104.28 82.43 91.91 83.13 92.31 61.7 104.68 61.01 104.28"/><path class="cls-6" d="M61.7,115.52V104.68L83.12,92.31v10.84l-.73.42h0l-20,11.52-.73.43Zm20.69-12.8V93.58l-20,11.52v9.15Z"/><polygon class="cls-55" points="83.13 99.06 83.13 103.15 82.39 103.57 82.39 103.57 81.08 104.33 81.5 103.24 82.39 102.72 82.39 100.94 83.13 99.06"/><polygon class="cls-5" points="62.43 113.45 81.7 102.32 82.39 102.72 62.43 114.25 62.43 113.45"/><polygon class="cls-56" points="80.81 102.84 81.7 102.32 82.39 102.72 81.5 103.24 80.81 102.84"/><polygon class="cls-57" points="81.7 93.97 81.7 102.33 82.39 102.72 82.39 93.58 81.7 93.97"/><polygon class="cls-58" points="75.2 43.49 102.45 27.76 120.17 37.99 92.92 53.72 75.2 43.49"/><polygon class="cls-59" points="75.2 43.49 102.45 27.76 120.17 37.99 118.78 38.79 101.43 28.78 75.58 43.71 75.2 43.49"/><polygon class="cls-60" points="119.28 38.5 102.45 28.78 102.45 27.76 120.17 37.99 119.28 38.5"/><polygon class="cls-6" points="76.09 44 102.45 28.78 102.45 27.76 75.2 43.49 76.09 44"/><polygon class="cls-61" points="101.94 29.07 102.45 28.78 102.45 27.76 101.94 29.07"/><path class="cls-62" d="M70.16,56.3l.46-.27.2-.1.23,0,.25,0,.26.11,16.63,9.6.13.09.14.1.12.12.13.13.11.14.11.16.1.16.1.17.08.17.08.18.07.19,0,.19,0,.18,0,.19,0,.19v.19h0a1.33,1.33,0,0,1-.39,1l-.46.27.16-.17.12-.23L89,68.8l0-.34h0v-.18l0-.19,0-.19,0-.19,0-.19-.07-.18-.08-.18L88.67,67l-.1-.17-.1-.16-.11-.15-.12-.14-.12-.13L88,66.11l-.14-.1-.13-.09L71.1,56.32l-.26-.12-.25,0-.23,0Z"/><path class="cls-63" d="M71.1,56.32l16.63,9.6a3.19,3.19,0,0,1,1.33,2.54h0c0,1-.6,1.43-1.33,1L71.1,59.87a3.2,3.2,0,0,1-1.33-2.54h0C69.77,56.35,70.37,55.9,71.1,56.32Z"/><path class="cls-64" d="M70.77,54.09V48.76l-1-.58v-.77l1,.58v-.37c0-.67.21-1.08.62-1.23s1,.08,1.84.58v1c-.35-.2-.6-.26-.76-.19a.76.76,0,0,0-.24.67v.37l1,.58v.77l-1-.58v5.33l-1.46-.84Zm5.16-3.16a5.18,5.18,0,0,1,1.48,1.2,4,4,0,0,1,.79,1.47,6.53,6.53,0,0,1,.24,1.85c0,1.09-.2,1.76-.6,2s-1,.15-1.94-.37A5,5,0,0,1,74,55.28a5.57,5.57,0,0,1-.6-2.71c0-2.06.86-2.6,2.52-1.64ZM74.88,53.4c0,.54.05,1,.08,1.25a3,3,0,0,0,.28.9,1.8,1.8,0,0,0,.71.74c.44.25.72.22.84-.1A4.88,4.88,0,0,0,77,54.64a7.33,7.33,0,0,0-.17-1.76,1.72,1.72,0,0,0-.84-1.1c-.45-.25-.75-.21-.87.11a4.26,4.26,0,0,0-.2,1.51Zm6.45.65a5.13,5.13,0,0,1,1.47,1.19,4,4,0,0,1,.8,1.48,6.53,6.53,0,0,1,.24,1.85q0,1.62-.6,2c-.4.27-1,.15-1.95-.37a5,5,0,0,1-1.88-1.85,5.57,5.57,0,0,1-.6-2.71c0-2,.85-2.6,2.52-1.63Zm-1,2.47c0,.54,0,.95.08,1.24a3,3,0,0,0,.28.91,1.72,1.72,0,0,0,.71.73q.66.39.84-.09a5.27,5.27,0,0,0,.17-1.56A7.33,7.33,0,0,0,82.18,56a1.65,1.65,0,0,0-.83-1.09c-.46-.25-.75-.22-.88.1a4.63,4.63,0,0,0-.19,1.52Zm8.78-.41v8.54l-1.48-.86v-.36a.82.82,0,0,1-.37,0,2,2,0,0,1-.82-.32,5.09,5.09,0,0,1-1.09-.87,3.93,3.93,0,0,1-.81-1.42,6.75,6.75,0,0,1-.32-2.23c0-1.19.21-1.86.59-2a1.67,1.67,0,0,1,1.46.27A5.21,5.21,0,0,1,87.58,58v-2.7l1.48.85Zm-1.48,6.38v-3.7a1.18,1.18,0,0,0-.24-.32,3.55,3.55,0,0,0-.66-.55q-.78-.45-1.05-.06a2.72,2.72,0,0,0-.27,1.43,6.61,6.61,0,0,0,.13,1.42,2.78,2.78,0,0,0,.42,1,2.26,2.26,0,0,0,.8.73,1,1,0,0,0,.62.12C87.5,62.57,87.58,62.54,87.58,62.49Z"/><polygon class="cls-65" points="69.31 47.68 69.77 47.41 70.77 47.99 70.31 48.25 69.31 47.68"/><polygon class="cls-65" points="70.78 46.72 71.25 46.45 71.39 46.39 71.54 46.36 71.71 46.36 71.9 46.39 72.12 46.45 72.36 46.53 72.63 46.65 72.92 46.8 73.23 46.97 72.77 47.24 72.46 47.06 72.17 46.92 71.9 46.8 71.66 46.71 71.44 46.65 71.25 46.62 71.08 46.62 70.93 46.65 70.78 46.72"/><polygon class="cls-66" points="72.77 47.24 73.23 46.97 73.23 47.98 72.77 48.25 72.77 47.24"/><polygon class="cls-67" points="72.01 48.06 72.47 47.79 72.41 47.83 72.36 47.89 72.32 47.96 72.29 48.03 72.26 48.13 72.25 48.23 72.24 48.34 72.23 48.46 72.23 48.83 71.77 49.09 71.77 48.73 71.78 48.61 71.79 48.49 71.8 48.39 71.83 48.3 71.86 48.22 71.9 48.16 71.95 48.1 72.01 48.06"/><polygon class="cls-65" points="71.77 49.09 72.23 48.83 73.23 49.41 72.77 49.67 71.77 49.09"/><polygon class="cls-68" points="72.77 49.67 73.23 49.41 73.23 50.18 72.77 50.44 72.77 49.67"/><polygon class="cls-69" points="71.77 49.87 72.23 49.6 72.23 54.93 71.77 55.2 71.77 49.87"/><polygon class="cls-70" points="73.59 50.88 74.05 50.62 74.22 50.53 74.41 50.48 74.61 50.47 74.84 50.49 75.08 50.55 75.35 50.64 75.63 50.77 75.94 50.93 76.16 51.06 76.37 51.2 76.57 51.35 76.76 51.49 76.94 51.65 77.11 51.8 77.26 51.96 77.41 52.13 77.54 52.29 77.66 52.47 77.78 52.64 77.88 52.83 77.97 53.01 78.06 53.2 78.13 53.4 78.2 53.6 78.25 53.81 78.3 54.02 78.34 54.24 78.38 54.47 78.41 54.71 78.42 54.95 78.44 55.2 78.44 55.45 78.43 55.84 78.4 56.19 78.36 56.5 78.29 56.78 78.21 57.01 78.11 57.21 77.98 57.37 77.84 57.49 77.38 57.76 77.52 57.63 77.64 57.47 77.75 57.28 77.83 57.04 77.89 56.77 77.94 56.46 77.97 56.11 77.98 55.72 77.97 55.47 77.96 55.22 77.94 54.97 77.92 54.74 77.88 54.51 77.84 54.29 77.79 54.08 77.74 53.87 77.67 53.67 77.6 53.47 77.51 53.28 77.42 53.09 77.32 52.91 77.2 52.73 77.08 52.56 76.95 52.39 76.8 52.23 76.65 52.07 76.48 51.91 76.3 51.76 76.11 51.61 75.91 51.47 75.7 51.33 75.47 51.2 75.17 51.03 74.89 50.91 74.62 50.81 74.38 50.76 74.15 50.74 73.94 50.75 73.76 50.8 73.59 50.88"/><polygon class="cls-71" points="74.83 51.91 75.29 51.65 75.2 51.7 75.13 51.78 75.08 51.89 75.03 52.02 74.99 52.16 74.96 52.33 74.93 52.51 74.91 52.7 74.89 52.92 74.89 53.15 74.89 53.4 74.89 53.6 74.9 53.78 74.91 53.96 74.92 54.12 74.93 54.27 74.94 54.41 74.95 54.53 74.96 54.65 74.98 54.76 75 54.87 75.03 54.98 75.06 55.09 75.1 55.21 75.14 55.32 75.19 55.44 75.25 55.55 75.31 55.66 75.37 55.77 75.45 55.87 75.53 55.97 75.63 56.06 75.73 56.14 75.83 56.22 75.95 56.29 76.11 56.37 76.25 56.43 76.38 56.45 76.49 56.45 76.59 56.43 76.13 56.7 76.03 56.72 75.92 56.72 75.79 56.69 75.65 56.64 75.49 56.55 75.37 56.48 75.27 56.41 75.17 56.32 75.07 56.23 74.99 56.14 74.91 56.04 74.84 55.93 74.78 55.82 74.73 55.7 74.68 55.59 74.64 55.47 74.6 55.36 74.57 55.25 74.54 55.14 74.52 55.02 74.5 54.91 74.49 54.8 74.48 54.67 74.47 54.53 74.45 54.38 74.44 54.22 74.44 54.05 74.43 53.87 74.42 53.67 74.42 53.42 74.43 53.19 74.45 52.97 74.47 52.77 74.5 52.59 74.53 52.43 74.57 52.28 74.61 52.15 74.67 52.05 74.74 51.97 74.83 51.91"/><polygon class="cls-72" points="78.99 54 79.45 53.73 79.61 53.65 79.8 53.6 80.01 53.59 80.23 53.61 80.48 53.66 80.75 53.76 81.03 53.88 81.33 54.05 81.56 54.18 81.77 54.32 81.97 54.46 82.16 54.61 82.34 54.76 82.51 54.92 82.66 55.08 82.81 55.24 82.94 55.41 83.06 55.58 83.17 55.76 83.28 55.94 83.37 56.13 83.46 56.32 83.53 56.52 83.59 56.72 83.65 56.92 83.7 57.14 83.74 57.36 83.78 57.59 83.8 57.82 83.82 58.07 83.83 58.31 83.84 58.57 83.83 58.96 83.8 59.31 83.75 59.62 83.69 59.89 83.6 60.13 83.5 60.32 83.38 60.48 83.24 60.6 82.78 60.87 82.92 60.75 83.04 60.59 83.14 60.39 83.23 60.16 83.29 59.88 83.34 59.57 83.37 59.22 83.38 58.84 83.37 58.58 83.36 58.33 83.34 58.09 83.31 57.85 83.28 57.63 83.24 57.41 83.19 57.19 83.14 56.98 83.07 56.78 83 56.59 82.91 56.4 82.82 56.21 82.71 56.03 82.6 55.85 82.48 55.68 82.34 55.51 82.2 55.34 82.05 55.19 81.88 55.03 81.7 54.88 81.51 54.73 81.31 54.59 81.1 54.45 80.87 54.31 80.57 54.15 80.28 54.02 80.02 53.93 79.77 53.87 79.55 53.85 79.34 53.87 79.16 53.91 78.99 54"/><polygon class="cls-73" points="80.23 55.03 80.69 54.76 80.6 54.82 80.53 54.9 80.47 55 80.43 55.13 80.39 55.28 80.35 55.44 80.33 55.62 80.3 55.82 80.29 56.03 80.28 56.27 80.28 56.52 80.29 56.72 80.29 56.9 80.3 57.07 80.31 57.23 80.32 57.38 80.34 57.52 80.35 57.65 80.36 57.76 80.38 57.88 80.4 57.99 80.42 58.1 80.46 58.21 80.5 58.32 80.54 58.44 80.59 58.55 80.64 58.67 80.7 58.78 80.77 58.89 80.85 58.99 80.93 59.08 81.02 59.17 81.12 59.26 81.23 59.33 81.34 59.4 81.5 59.49 81.65 59.54 81.78 59.57 81.89 59.57 81.99 59.55 81.53 59.81 81.43 59.84 81.31 59.84 81.19 59.81 81.04 59.75 80.89 59.67 80.77 59.6 80.66 59.52 80.56 59.44 80.47 59.35 80.39 59.25 80.31 59.15 80.24 59.05 80.18 58.93 80.13 58.82 80.08 58.7 80.03 58.59 80 58.48 79.96 58.36 79.94 58.25 79.92 58.14 79.9 58.03 79.89 57.91 79.88 57.79 79.86 57.65 79.85 57.5 79.84 57.34 79.83 57.17 79.83 56.98 79.82 56.78 79.82 56.53 79.83 56.3 79.84 56.09 79.86 55.89 79.89 55.71 79.93 55.54 79.97 55.4 80.01 55.27 80.07 55.16 80.14 55.08 80.23 55.03"/><polygon class="cls-74" points="88.6 56.37 89.06 56.11 89.06 64.64 88.6 64.91 88.6 56.37"/><polygon class="cls-65" points="84.3 56.87 84.76 56.6 84.91 56.55 85.07 56.53 85.23 56.52 85.41 56.55 85.6 56.59 85.8 56.66 86 56.75 86.22 56.87 86.42 56.99 86.61 57.12 86.8 57.25 86.97 57.38 87.14 57.52 87.3 57.66 87.44 57.81 87.58 57.96 87.12 58.23 86.98 58.08 86.84 57.93 86.68 57.79 86.51 57.65 86.34 57.51 86.15 57.38 85.96 57.26 85.76 57.13 85.54 57.02 85.33 56.92 85.14 56.86 84.95 56.81 84.77 56.79 84.61 56.79 84.45 56.82 84.3 56.87"/><polygon class="cls-65" points="87.12 55.52 87.58 55.26 89.06 56.11 88.6 56.37 87.12 55.52"/><polygon class="cls-75" points="85.33 57.98 85.8 57.72 85.7 57.78 85.63 57.86 85.57 57.97 85.51 58.1 85.47 58.25 85.43 58.41 85.4 58.6 85.38 58.81 85.37 59.04 85.36 59.29 85.36 59.49 85.37 59.68 85.38 59.87 85.39 60.05 85.41 60.22 85.43 60.39 85.46 60.55 85.49 60.71 85.52 60.85 85.56 61 85.61 61.14 85.66 61.27 85.71 61.4 85.77 61.52 85.84 61.64 85.91 61.75 85.99 61.86 86.07 61.97 86.16 62.07 86.26 62.16 86.36 62.25 86.47 62.33 86.58 62.41 86.71 62.48 86.8 62.52 86.88 62.56 86.96 62.58 87.04 62.6 87.12 62.61 87.19 62.62 87.26 62.61 87.33 62.6 87.39 62.59 87.44 62.58 87.48 62.57 87.52 62.55 87.55 62.54 87.09 62.8 87.06 62.82 87.02 62.83 86.98 62.84 86.93 62.86 86.87 62.87 86.8 62.88 86.73 62.88 86.66 62.88 86.58 62.87 86.5 62.85 86.42 62.82 86.33 62.79 86.25 62.75 86.12 62.68 86.01 62.6 85.9 62.52 85.8 62.43 85.7 62.33 85.61 62.23 85.53 62.13 85.45 62.02 85.38 61.91 85.31 61.79 85.25 61.66 85.2 61.54 85.15 61.4 85.1 61.26 85.06 61.12 85.03 60.97 85 60.82 84.97 60.66 84.95 60.49 84.93 60.32 84.92 60.13 84.91 59.95 84.9 59.75 84.9 59.55 84.91 59.3 84.92 59.08 84.94 58.87 84.97 58.68 85.01 58.51 85.05 58.37 85.11 58.24 85.17 58.13 85.24 58.04 85.33 57.98"/><path class="cls-64" d="M70.31,54.35V49l-1-.57v-.77l1,.57v-.36c0-.68.21-1.1.62-1.24s1,.08,1.84.59v1c-.35-.21-.61-.28-.76-.19s-.24.33-.24.67v.37l1,.57v.77l-1-.57V55.2l-1.46-.85Zm5.16-3.15A5.33,5.33,0,0,1,77,52.39a4.24,4.24,0,0,1,.79,1.48A6.53,6.53,0,0,1,78,55.72q0,1.62-.6,2c-.4.27-1,.15-1.94-.37a5,5,0,0,1-1.89-1.85,5.46,5.46,0,0,1-.6-2.71c0-2,.86-2.6,2.52-1.63Zm-1,2.47c0,.54,0,.95.08,1.24a3,3,0,0,0,.28.91,1.72,1.72,0,0,0,.71.73q.66.39.84-.09a5.27,5.27,0,0,0,.17-1.56,7.94,7.94,0,0,0-.17-1.76,1.7,1.7,0,0,0-.84-1.09c-.45-.25-.75-.22-.88.1a4.38,4.38,0,0,0-.19,1.52Zm6.45.64a5.48,5.48,0,0,1,1.47,1.2A3.89,3.89,0,0,1,83.13,57a6.64,6.64,0,0,1,.25,1.86c0,1.08-.2,1.76-.6,2s-1,.15-2-.37A5,5,0,0,1,79,58.66a5.46,5.46,0,0,1-.6-2.71q0-3.08,2.52-1.64Zm-1.05,2.47c0,.54.05,1,.08,1.25a3,3,0,0,0,.28.9,1.72,1.72,0,0,0,.7.74c.45.26.73.22.85-.1A5.19,5.19,0,0,0,81.9,58a7.27,7.27,0,0,0-.18-1.76,1.63,1.63,0,0,0-.84-1.1c-.44-.25-.74-.21-.87.11a4.08,4.08,0,0,0-.19,1.51Zm8.78-.41v8.54l-1.48-.85v-.37a.66.66,0,0,1-.37,0,2.12,2.12,0,0,1-.82-.32,4.63,4.63,0,0,1-1.09-.88A3.8,3.8,0,0,1,84,61.12a6.81,6.81,0,0,1-.32-2.24c0-1.18.21-1.85.59-2a1.63,1.63,0,0,1,1.46.26,5.24,5.24,0,0,1,1.36,1.1V55.52l1.48.85Zm-1.48,6.39v-3.7s-.08-.15-.24-.32a2.71,2.71,0,0,0-.66-.55c-.52-.32-.88-.32-1-.06a2.67,2.67,0,0,0-.27,1.42A7.24,7.24,0,0,0,85,61,2.89,2.89,0,0,0,85.45,62a2.26,2.26,0,0,0,.8.73,1,1,0,0,0,.62.12C87,62.84,87.12,62.8,87.12,62.76Z"/><path class="cls-64" d="M71.25,58.87v-.41c.12.15.21.26.27.32a.6.6,0,0,0,.18.15l.11,0s0,0,0-.07a.17.17,0,0,0,0-.1.5.5,0,0,0-.1-.13l-.17-.16a1.44,1.44,0,0,1-.25-.33.79.79,0,0,1-.08-.32.29.29,0,0,1,.14-.29.41.41,0,0,1,.36.08,1,1,0,0,1,.22.16,3.12,3.12,0,0,1,.27.26l-.06.33a1.55,1.55,0,0,0-.19-.24.64.64,0,0,0-.19-.16s-.08,0-.11,0,0,0,0,.07a.19.19,0,0,0,0,.08.54.54,0,0,0,.11.12l.15.16a1.16,1.16,0,0,1,.26.33.61.61,0,0,1,.08.32c0,.17,0,.27-.14.32a.45.45,0,0,1-.38-.08l-.24-.17-.23-.24Zm2.1-.22.45.26v1.5l-.42-.17V60a.33.33,0,0,1-.22.09.53.53,0,0,1-.25-.07.79.79,0,0,1-.31-.32,1,1,0,0,1-.11-.46v-1l.45.26v.89a.54.54,0,0,0,0,.2.35.35,0,0,0,.13.14c.08,0,.14,0,.18,0a.32.32,0,0,0,.06-.23v-.77Zm.79,2.68V59.1l.45.26.14,0,.13.06a1.21,1.21,0,0,1,.46.49,1.33,1.33,0,0,1,.19.69.52.52,0,0,1-.2.48c-.13.08-.3.05-.51-.07a.47.47,0,0,1-.09-.06l-.12-.08v.59l-.45-.17Zm.45-.81.08.07.07,0a.18.18,0,0,0,.22,0,.37.37,0,0,0,.08-.26A.68.68,0,0,0,75,60a.5.5,0,0,0-.19-.23l-.08,0-.1,0v.78Zm1.53.34.56.3v0a.44.44,0,0,0-.07-.24.77.77,0,0,0-.18-.18c-.08,0-.15-.06-.2,0s-.09.08-.11.17Zm.86.85,0,.43a1.17,1.17,0,0,1-.26,0L76.41,62a1.41,1.41,0,0,1-.52-.51,1.34,1.34,0,0,1-.2-.68.49.49,0,0,1,.22-.48.5.5,0,0,1,.53,0,1.21,1.21,0,0,1,.43.44,1,1,0,0,1,.18.57s0,.07,0,.14h0l0,0-.89-.48a.77.77,0,0,0,.11.31.82.82,0,0,0,.25.24.62.62,0,0,0,.24.08Zm.78,1-.45-.26v-1.5l.42.25v.26a.27.27,0,0,1,.18-.12.45.45,0,0,1,.26.08l0,0V62l0,0,0,0a.58.58,0,0,0-.29-.11s-.07.09-.07.23v.65Zm2,1.16-.45-.26v-.86a.39.39,0,0,0,0-.2.22.22,0,0,0-.12-.13c-.07,0-.13,0-.17,0a.32.32,0,0,0-.06.23v.74l-.45-.26V61.6l.42.24v.25A.35.35,0,0,1,79.1,62a.39.39,0,0,1,.24.06.93.93,0,0,1,.23.21.82.82,0,0,1,.16.31.41.41,0,0,1,.21-.1.5.5,0,0,1,.25.07.92.92,0,0,1,.32.33,1.19,1.19,0,0,1,.1.49v1l-.45-.26v-.86a.39.39,0,0,0,0-.2.22.22,0,0,0-.12-.13c-.07,0-.13,0-.17,0a.32.32,0,0,0-.06.23v.74Zm2,0-.08-.08-.07-.05a.18.18,0,0,0-.22,0,.3.3,0,0,0-.09.26.81.81,0,0,0,.08.34.42.42,0,0,0,.19.22.16.16,0,0,0,.09,0l.1,0v-.69Zm.45-.12V65c0,.08,0,.15,0,.22l-.42-.11,0-.17a.29.29,0,0,1-.16,0,.64.64,0,0,1-.18-.06,1.26,1.26,0,0,1-.42-.48,1.48,1.48,0,0,1-.17-.67.56.56,0,0,1,.19-.49.47.47,0,0,1,.49,0,1.1,1.1,0,0,1,.14.11l.16.16.39.2Zm.8,2-.46-.27V64l.43.25v.27a.25.25,0,0,1,.18-.13.45.45,0,0,1,.26.08l0,0V65l0,0,0,0a.55.55,0,0,0-.29-.1s-.07.08-.07.22v.66Zm1.13.65-.44-.25v-2l.44.18v1.22l.4-.39.47.27-.45.38L85.14,67l-.5-.29-.48-1.07v.8Zm1.43-.07.56.31v0a.44.44,0,0,0-.07-.24.52.52,0,0,0-.18-.18.24.24,0,0,0-.21,0,.24.24,0,0,0-.1.17Zm.86.86,0,.43a1.09,1.09,0,0,1-.26,0,1,1,0,0,1-.26-.11,1.44,1.44,0,0,1-.52-.52,1.21,1.21,0,0,1-.2-.67.5.5,0,0,1,.22-.49.51.51,0,0,1,.52.06,1.21,1.21,0,0,1,.44.43,1,1,0,0,1,.17.57V67h0l0,0-.88-.49a.61.61,0,0,0,.11.31.82.82,0,0,0,.25.24.85.85,0,0,0,.24.09Zm.4.26v-.6l-.19-.11v-.4l.19.11V66l.46.19v.53l.3.17v.4l-.3-.18v.64a1,1,0,0,0,0,.32,1.57,1.57,0,0,0,.18.27L87,68.07a.79.79,0,0,1-.14-.23A2,2,0,0,1,86.85,67.44Z"/><polygon class="cls-76" points="71.77 49.07 72.23 48.81 72.7 49.08 71.77 49.07"/><path class="cls-41" d="M124.12,68.86V64.37L98.7,79v4.5l25.42-14.68ZM99.41,79.46l7.53-4.35V78l-7.53,4.34V79.46Zm8.25-4.76,7.52-4.35v2.84l-7.52,4.34V74.7Zm8.24-4.76,7.5-4.33v2.84l-7.5,4.33Z"/><polygon class="cls-77" points="98 78.64 98 83.14 98.7 83.54 98.7 79.04 98 78.64"/><polygon class="cls-78" points="99.41 81.5 106.25 77.55 106.94 77.95 99.41 82.29 99.41 81.5"/><polygon class="cls-79" points="105.56 77.95 106.25 77.55 106.94 77.95 105.56 77.95"/><polygon class="cls-80" points="106.25 75.51 106.25 77.55 106.94 77.95 106.94 75.11 106.25 75.51"/><polygon class="cls-81" points="107.66 76.74 114.49 72.79 115.18 73.19 107.66 77.53 107.66 76.74"/><polygon class="cls-82" points="113.8 73.19 114.49 72.79 115.18 73.19 113.8 73.19"/><polygon class="cls-83" points="114.49 70.75 114.49 72.79 115.18 73.19 115.18 70.35 114.49 70.75"/><polygon class="cls-84" points="115.9 71.98 122.73 68.03 123.42 68.43 115.9 72.78 115.9 71.98"/><polygon class="cls-85" points="122.04 68.43 122.73 68.03 123.42 68.43 122.04 68.43"/><polygon class="cls-86" points="122.73 66 122.73 68.03 123.42 68.43 123.42 65.59 122.73 66"/><path class="cls-87" d="M51.49,102.26l-20.72-12c-.53-.31-1,0-1,.73V101.3a2.38,2.38,0,0,0,1,1.87L51.49,115c.53.3,1,0,1-.74V104.13A2.36,2.36,0,0,0,51.49,102.26Z"/><path class="cls-88" d="M51.49,102.27l-20.71-12c-.53-.3-1,0-1,.73v10.25a2.29,2.29,0,0,0,1,1.83l20.71,11.79c.52.3.95,0,.95-.72V104.1A2.31,2.31,0,0,0,51.49,102.27Z"/><path class="cls-89" d="M51.48,102.27l-20.7-12c-.52-.3-.94,0-.94.71v10.25a2.29,2.29,0,0,0,.94,1.8l20.7,11.79c.52.3.94,0,.94-.71V104.07A2.26,2.26,0,0,0,51.48,102.27Z"/><path class="cls-90" d="M51.48,102.28l-20.69-12c-.51-.29-.93,0-.93.7v10.24a2.2,2.2,0,0,0,.93,1.76l20.69,11.8c.51.29.92,0,.92-.69V104A2.19,2.19,0,0,0,51.48,102.28Z"/><path class="cls-91" d="M51.48,102.28,30.79,90.34c-.5-.29-.9,0-.9.68v10.24a2.19,2.19,0,0,0,.9,1.73l20.69,11.8c.5.29.91,0,.91-.68V104A2.18,2.18,0,0,0,51.48,102.28Z"/><path class="cls-92" d="M51.48,102.29,30.8,90.35c-.49-.29-.89,0-.89.67v10.23a2.14,2.14,0,0,0,.89,1.7l20.68,11.8c.49.28.89,0,.89-.67V104A2.12,2.12,0,0,0,51.48,102.29Z"/><path class="cls-93" d="M51.48,102.29,30.8,90.35c-.48-.27-.87,0-.87.66v10.23a2.09,2.09,0,0,0,.87,1.66l20.68,11.82c.48.27.87,0,.87-.66V104A2.1,2.1,0,0,0,51.48,102.29Z"/><path class="cls-94" d="M51.48,102.3,30.81,90.36c-.47-.27-.86,0-.86.65v10.22a2.06,2.06,0,0,0,.86,1.63l20.67,11.82c.46.26.85,0,.85-.65v-10.1A2,2,0,0,0,51.48,102.3Z"/><path class="cls-95" d="M51.47,102.3,30.81,90.37c-.46-.27-.84,0-.84.63v10.21a2,2,0,0,0,.84,1.6l20.66,11.83c.46.26.84,0,.84-.64V103.9A2,2,0,0,0,51.47,102.3Z"/><path class="cls-96" d="M51.47,102.3,30.82,90.38c-.45-.26-.82,0-.82.62v10.2a2,2,0,0,0,.82,1.57L51.47,114.6c.45.25.82,0,.82-.62V103.87A2,2,0,0,0,51.47,102.3Z"/><path class="cls-97" d="M51.47,102.31,30.82,90.39c-.44-.26-.8,0-.8.6v10.2a1.93,1.93,0,0,0,.8,1.54l20.65,11.83c.44.25.8,0,.8-.61V103.84A1.91,1.91,0,0,0,51.47,102.31Z"/><path class="cls-98" d="M51.47,102.31,30.83,90.39c-.44-.24-.79,0-.79.6v10.19a1.88,1.88,0,0,0,.79,1.5l20.64,11.84c.43.25.79,0,.79-.6v-10.1A1.91,1.91,0,0,0,51.47,102.31Z"/><path class="cls-99" d="M51.47,102.32,30.83,90.4c-.42-.24-.77,0-.77.58v10.19a1.86,1.86,0,0,0,.77,1.47l20.64,11.84c.42.24.77,0,.77-.58V103.79A1.84,1.84,0,0,0,51.47,102.32Z"/><path class="cls-100" d="M51.47,102.32,30.84,90.41c-.42-.24-.76,0-.76.57v10.18a1.81,1.81,0,0,0,.76,1.44l20.63,11.84c.41.24.75,0,.75-.57V103.76A1.83,1.83,0,0,0,51.47,102.32Z"/><path class="cls-101" d="M51.47,102.33,30.84,90.42c-.4-.23-.73,0-.73.55v10.18a1.76,1.76,0,0,0,.73,1.4L51.47,114.4c.4.23.73,0,.73-.55V103.73A1.76,1.76,0,0,0,51.47,102.33Z"/><path class="cls-102" d="M51.46,102.33,30.85,90.43c-.4-.23-.72,0-.72.54v10.17a1.72,1.72,0,0,0,.72,1.37l20.61,11.85c.4.23.72,0,.72-.54V103.7A1.72,1.72,0,0,0,51.46,102.33Z"/><path class="cls-103" d="M51.46,102.34,30.85,90.44c-.38-.23-.7,0-.7.53v10.16a1.68,1.68,0,0,0,.7,1.33l20.61,11.86c.39.22.7,0,.7-.53V103.67A1.66,1.66,0,0,0,51.46,102.34Z"/><path class="cls-104" d="M51.46,102.34l-20.6-11.9c-.38-.21-.69,0-.69.52v10.15a1.64,1.64,0,0,0,.69,1.31l20.6,11.86c.38.22.68,0,.68-.51V103.65A1.63,1.63,0,0,0,51.46,102.34Z"/><path class="cls-105" d="M51.46,102.34,30.86,90.45c-.37-.21-.67,0-.67.51V101.1a1.63,1.63,0,0,0,.67,1.28l20.6,11.86c.36.21.67,0,.67-.5V103.62A1.62,1.62,0,0,0,51.46,102.34Z"/><path class="cls-106" d="M51.46,102.35,30.87,90.46c-.36-.21-.65,0-.65.49v10.14a1.54,1.54,0,0,0,.65,1.24L51.46,114.2c.35.21.65,0,.65-.49V103.59A1.56,1.56,0,0,0,51.46,102.35Z"/><path class="cls-107" d="M51.46,102.35,30.87,90.47c-.35-.2-.63,0-.63.48v10.13a1.52,1.52,0,0,0,.63,1.21l20.59,11.88c.34.2.63,0,.63-.48V103.56A1.55,1.55,0,0,0,51.46,102.35Z"/><path class="cls-108" d="M51.45,102.36,30.88,90.48c-.34-.2-.62,0-.62.46v10.13a1.5,1.5,0,0,0,.62,1.18l20.57,11.88c.34.19.62,0,.62-.47V103.53A1.46,1.46,0,0,0,51.45,102.36Z"/><path class="cls-108" d="M51.45,102.37,30.88,90.49c-.34-.19-.61,0-.61.46v10.11a1.46,1.46,0,0,0,.61,1.15l20.57,11.88c.34.2.61,0,.61-.46v-10.1A1.43,1.43,0,0,0,51.45,102.37Z"/><path class="cls-108" d="M51.45,102.38,30.88,90.5c-.33-.19-.6,0-.6.45V101a1.43,1.43,0,0,0,.6,1.14l20.57,11.88c.33.19.6,0,.6-.45V103.52A1.43,1.43,0,0,0,51.45,102.38Z"/><path class="cls-108" d="M51.45,102.39,30.88,90.51c-.32-.18-.59,0-.59.45V101a1.41,1.41,0,0,0,.59,1.12L51.45,114c.33.18.59,0,.59-.45V103.51A1.38,1.38,0,0,0,51.45,102.39Z"/><path class="cls-108" d="M51.45,102.4,30.89,90.52c-.32-.18-.59,0-.59.44V101a1.39,1.39,0,0,0,.59,1.11L51.45,114c.32.19.58,0,.58-.43v-10A1.38,1.38,0,0,0,51.45,102.4Z"/><path class="cls-108" d="M51.45,102.41,30.89,90.54c-.32-.19-.57,0-.57.43v10a1.35,1.35,0,0,0,.57,1.09L51.45,114c.31.18.57,0,.57-.43v-10A1.35,1.35,0,0,0,51.45,102.41Z"/><path class="cls-109" d="M51.45,102.42,30.89,90.55c-.31-.18-.56,0-.56.42v10a1.36,1.36,0,0,0,.56,1.08l20.56,11.87c.31.18.56,0,.56-.43v-10A1.35,1.35,0,0,0,51.45,102.42Z"/><path class="cls-109" d="M51.45,102.43,30.89,90.56c-.3-.18-.55,0-.55.42v10a1.36,1.36,0,0,0,.55,1.06l20.56,11.86c.3.18.55,0,.55-.41v-10A1.33,1.33,0,0,0,51.45,102.43Z"/><path class="cls-109" d="M51.45,102.44,30.9,90.57c-.3-.17-.55,0-.55.42v10a1.34,1.34,0,0,0,.55,1l20.55,11.86c.3.18.55,0,.55-.41v-10A1.31,1.31,0,0,0,51.45,102.44Z"/><path class="cls-109" d="M51.45,102.45,30.9,90.58c-.3-.17-.54,0-.54.41v10a1.27,1.27,0,0,0,.54,1l20.55,11.87c.29.17.54,0,.54-.41v-9.94A1.31,1.31,0,0,0,51.45,102.45Z"/><path class="cls-109" d="M51.45,102.46,30.9,90.6c-.29-.17-.53,0-.53.4v9.92a1.26,1.26,0,0,0,.53,1L51.45,113.8c.29.16.53,0,.53-.4v-9.93A1.27,1.27,0,0,0,51.45,102.46Z"/><path class="cls-109" d="M51.45,102.47,30.9,90.61c-.28-.17-.52,0-.52.39v9.91a1.25,1.25,0,0,0,.52,1l20.55,11.86c.28.17.52,0,.52-.39v-9.91A1.25,1.25,0,0,0,51.45,102.47Z"/><path class="cls-109" d="M51.45,102.48,30.91,90.62c-.29-.16-.52,0-.52.39v9.88a1.23,1.23,0,0,0,.52,1l20.54,11.86c.28.16.51,0,.51-.39v-9.88A1.23,1.23,0,0,0,51.45,102.48Z"/><path class="cls-109" d="M51.44,102.49,30.91,90.63c-.28-.16-.51,0-.51.38v9.87a1.2,1.2,0,0,0,.51,1L51.44,113.7c.28.16.51,0,.51-.38v-9.87A1.2,1.2,0,0,0,51.44,102.49Z"/><path class="cls-109" d="M51.44,102.5,30.91,90.64c-.27-.15-.49,0-.49.38v9.84a1.21,1.21,0,0,0,.49,1l20.53,11.85c.27.16.5,0,.5-.37v-9.84A1.17,1.17,0,0,0,51.44,102.5Z"/><path class="cls-109" d="M51.44,102.51,30.91,90.66c-.26-.16-.48,0-.48.36v9.83a1.21,1.21,0,0,0,.48.93l20.53,11.85c.27.15.49,0,.49-.37v-9.82A1.16,1.16,0,0,0,51.44,102.51Z"/><path class="cls-110" d="M51.44,102.52,30.92,90.67c-.27-.15-.48,0-.48.36v9.8a1.14,1.14,0,0,0,.48.92L51.44,113.6c.26.15.48,0,.48-.36v-9.81A1.12,1.12,0,0,0,51.44,102.52Z"/><path class="cls-110" d="M51.44,102.53,30.92,90.68c-.26-.15-.47,0-.47.36v9.78a1.14,1.14,0,0,0,.47.9l20.52,11.84c.26.15.47,0,.47-.35v-9.78A1.12,1.12,0,0,0,51.44,102.53Z"/><path class="cls-110" d="M51.44,102.54,30.92,90.69c-.25-.14-.46,0-.46.35v9.76a1.1,1.1,0,0,0,.46.88l20.52,11.85c.25.15.46,0,.46-.35v-9.76A1.12,1.12,0,0,0,51.44,102.54Z"/><path class="cls-110" d="M51.44,102.55,30.92,90.7c-.25-.14-.45,0-.45.35v9.74a1.1,1.1,0,0,0,.45.86L51.44,113.5c.25.14.45,0,.45-.34v-9.75A1.07,1.07,0,0,0,51.44,102.55Z"/><path class="cls-110" d="M51.44,102.56,30.93,90.72c-.25-.15-.45,0-.45.33v9.72a1.05,1.05,0,0,0,.45.85l20.51,11.85c.24.14.44,0,.44-.34v-9.72A1.07,1.07,0,0,0,51.44,102.56Z"/><path class="cls-110" d="M51.44,102.57,30.93,90.73c-.24-.14-.44,0-.44.33v9.7a1,1,0,0,0,.44.83l20.51,11.84c.24.14.43,0,.43-.33v-9.7A1,1,0,0,0,51.44,102.57Z"/><path class="cls-111" d="M50.73,103.21c-1.62-.94-18.23-10.44-19.85-11.37-.28-.16-.23.08-.23.46V100a1.26,1.26,0,0,0,.51,1l19.57,11.29c.28.17.51,0,.51-.38v-7.75A1.22,1.22,0,0,0,50.73,103.21Z"/><path class="cls-111" d="M50.71,103.26,30.93,91.93c-.28-.16-.24.08-.24.45v7.71a1.2,1.2,0,0,0,.51,1l19.51,11.27c.28.16.51,0,.51-.38v-7.71A1.22,1.22,0,0,0,50.71,103.26Z"/><path class="cls-31" d="M50.7,103.32,31,92c-.28-.16-.25.07-.25.43v7.69a1.22,1.22,0,0,0,.5,1L50.7,112.33c.27.16.49,0,.49-.38v-7.68A1.19,1.19,0,0,0,50.7,103.32Z"/><path class="cls-31" d="M50.68,103.38,31,92.1c-.27-.15-.25.08-.25.43v7.66a1.16,1.16,0,0,0,.49.93l19.42,11.22c.27.15.49,0,.49-.37v-7.66A1.16,1.16,0,0,0,50.68,103.38Z"/><path class="cls-31" d="M50.66,103.43,31.07,92.19c-.27-.15-.26.07-.26.42v7.63a1.17,1.17,0,0,0,.48.92l19.37,11.18c.27.16.49,0,.49-.36v-7.63A1.17,1.17,0,0,0,50.66,103.43Z"/><path class="cls-112" d="M50.65,103.49,31.11,92.28c-.26-.15-.26.06-.26.41v7.6a1.15,1.15,0,0,0,.48.91l19.32,11.15c.26.15.47,0,.47-.36V104.4A1.14,1.14,0,0,0,50.65,103.49Z"/><path class="cls-112" d="M50.63,103.54,31.16,92.37c-.26-.15-.27.06-.27.4v7.57a1.12,1.12,0,0,0,.47.89l19.27,11.13c.26.15.47,0,.47-.35v-7.57A1.14,1.14,0,0,0,50.63,103.54Z"/><path class="cls-112" d="M50.61,103.6,31.2,92.45c-.25-.14-.27.06-.27.4v7.54a1.13,1.13,0,0,0,.46.88c1.08.62,18.15,10.47,19.22,11.1.26.14.47,0,.47-.35v-7.54A1.1,1.1,0,0,0,50.61,103.6Z"/><path class="cls-110" d="M50.6,103.66,31.25,92.54c-.25-.14-.28.06-.28.39v7.51a1.07,1.07,0,0,0,.45.86L50.6,112.37c.25.15.45,0,.45-.34v-7.51A1.07,1.07,0,0,0,50.6,103.66Z"/><path class="cls-110" d="M50.58,103.71,31.3,92.63c-.25-.14-.29.05-.29.38v7.48a1.07,1.07,0,0,0,.45.85l19.12,11c.25.14.45,0,.45-.34v-7.47A1.07,1.07,0,0,0,50.58,103.71Z"/><path class="cls-110" d="M50.56,103.77l-19.22-11c-.24-.14-.29,0-.29.37v7.45a1.07,1.07,0,0,0,.44.84c.85.48,18.23,10.52,19.07,11,.24.14.44,0,.44-.33v-7.45A1,1,0,0,0,50.56,103.77Z"/><path class="cls-109" d="M50.55,103.83l-19.16-11c-.24-.14-.3,0-.3.36v7.41a1,1,0,0,0,.43.83l19,11c.23.13.43,0,.43-.33v-7.42A1,1,0,0,0,50.55,103.83Z"/><path class="cls-109" d="M50.53,103.88l-19.1-11c-.23-.13-.3,0-.3.36v7.38a1.05,1.05,0,0,0,.42.82l19,11c.23.14.43,0,.43-.32v-7.39A1,1,0,0,0,50.53,103.88Z"/><path class="cls-109" d="M50.51,103.94l-19-11c-.23-.13-.31,0-.31.35v7.35a1,1,0,0,0,.42.8l18.92,10.93c.23.13.42,0,.42-.31v-7.36A1,1,0,0,0,50.51,103.94Z"/><path class="cls-108" d="M50.5,104l-19-10.92c-.23-.13-.32,0-.32.33v7.33a1,1,0,0,0,.41.79l18.88,10.9c.22.13.41,0,.41-.31v-7.33A1,1,0,0,0,50.5,104Z"/><path class="cls-108" d="M50.48,104.05,31.57,93.16c-.22-.13-.32,0-.32.32v7.3a1,1,0,0,0,.4.78l18.83,10.87c.22.12.4,0,.4-.31v-7.3A1,1,0,0,0,50.48,104.05Z"/><path class="cls-108" d="M50.46,104.11c-.38-.23-18.46-10.64-18.84-10.86-.22-.13-.33,0-.33.31v7.27a1,1,0,0,0,.39.76l18.78,10.84c.22.13.4,0,.4-.3v-7.27A.93.93,0,0,0,50.46,104.11Z"/><path class="cls-113" d="M50.45,104.16,31.66,93.33c-.21-.12-.33,0-.33.31v7.24a.93.93,0,0,0,.39.75l18.73,10.81c.21.12.39,0,.39-.29v-7.24A1,1,0,0,0,50.45,104.16Z"/><path class="cls-113" d="M50.43,104.22,31.71,93.42c-.21-.12-.34,0-.34.3v7.21a.92.92,0,0,0,.38.73l18.68,10.79c.21.12.38,0,.38-.29V105A.92.92,0,0,0,50.43,104.22Z"/><path class="cls-113" d="M50.41,104.27,31.75,93.51c-.2-.12-.35,0-.35.29V101a.94.94,0,0,0,.38.72l18.63,10.76c.21.11.38,0,.38-.29V105A.91.91,0,0,0,50.41,104.27Z"/><path class="cls-114" d="M50.4,104.33,31.8,93.6c-.2-.12-.36,0-.36.28V101a.91.91,0,0,0,.37.71L50.4,112.46c.2.12.37,0,.37-.27V105A.9.9,0,0,0,50.4,104.33Z"/><path class="cls-114" d="M50.38,104.39,31.85,93.69c-.2-.12-.37,0-.37.27v7.12a.87.87,0,0,0,.37.69l18.53,10.7c.2.12.36,0,.36-.27v-7.12A.85.85,0,0,0,50.38,104.39Z"/><polygon class="cls-115" points="98 78.64 123.42 63.97 124.12 64.37 98.7 79.04 98 78.64"/><polygon class="cls-116" points="51.85 102.67 51.85 113.51 51.16 113.91 51.16 103.07 51.85 102.67"/><polygon class="cls-117" points="51.85 102.67 30.43 90.3 29.73 90.7 51.16 103.07 51.85 102.67"/><path class="cls-118" d="M51.16,113.91V103.07L29.73,90.7v10.84l.73.42h0l20,11.52.73.43Zm-20.7-12.8V92l20,11.52v9.15Z"/><polygon class="cls-119" points="50.43 111.84 31.16 100.72 30.46 101.11 50.43 112.64 50.43 111.84"/><polygon class="cls-120" points="31.16 92.37 31.16 100.72 30.46 101.11 30.46 91.97 31.16 92.37"/><polygon class="cls-22" points="59.25 71.14 63.71 68.57 56.76 64.56 52.76 64.56 48.3 67.13 55.25 71.14 59.25 71.14"/><polygon class="cls-11" points="52.3 63.14 59.25 67.15 63.71 64.57 56.76 60.56 52.3 63.14"/><polygon class="cls-29" points="63.71 64.57 59.25 67.15 59.25 71.14 63.71 68.57 63.71 64.57"/><polygon class="cls-121" points="52.3 63.14 59.25 67.15 59.25 71.14 52.3 67.13 52.3 63.14"/><polygon class="cls-121" points="52.3 63.14 59.25 67.15 59.25 71.14 52.3 67.13 52.3 63.14"/><polygon class="cls-31" points="52.65 63.74 58.9 67.35 58.9 70.54 52.65 66.93 52.65 63.74"/><path class="cls-122" d="M58.19,65.5a2.94,2.94,0,0,0,2.65,0,.81.81,0,0,0,0-1.54,2.94,2.94,0,0,0-2.65,0,.82.82,0,0,0,0,1.54Zm.59-.34a.45.45,0,0,1,0-.86,1.65,1.65,0,0,1,1.47,0,.46.46,0,0,1,0,.86,1.67,1.67,0,0,1-1.48,0Zm-3.62-1.41a.81.81,0,0,1,0-1.53,2.88,2.88,0,0,1,2.65,0c.74.42.74,1.1,0,1.53a2.94,2.94,0,0,1-2.65,0Zm.59-.34c-.41-.24-.41-.62,0-.85a1.61,1.61,0,0,1,1.48,0,.45.45,0,0,1,0,.85A1.67,1.67,0,0,1,55.75,63.41Z"/><polygon class="cls-22" points="75.02 32.63 79.48 30.06 72.53 26.05 68.54 26.05 64.08 28.62 71.03 32.63 75.02 32.63"/><polygon class="cls-11" points="68.07 24.63 75.02 28.64 79.48 26.06 72.53 22.05 68.07 24.63"/><polygon class="cls-29" points="79.48 26.06 75.02 28.64 75.02 32.63 79.48 30.06 79.48 26.06"/><polygon class="cls-123" points="68.07 24.63 75.02 28.64 75.02 32.63 68.07 28.62 68.07 24.63"/><polygon class="cls-123" points="68.07 24.63 75.02 28.64 75.02 32.63 68.07 28.62 68.07 24.63"/><polygon class="cls-31" points="68.42 25.23 74.67 28.84 74.67 32.03 68.42 28.42 68.42 25.23"/><path class="cls-124" d="M74,27a2.88,2.88,0,0,0,2.65,0,.81.81,0,0,0,0-1.53,2.94,2.94,0,0,0-2.65,0c-.74.43-.74,1.11,0,1.53Zm.58-.33a.46.46,0,0,1,0-.86,1.67,1.67,0,0,1,1.48,0,.45.45,0,0,1,0,.86,1.67,1.67,0,0,1-1.48,0Zm-3.61-1.41a.81.81,0,0,1,0-1.53,2.88,2.88,0,0,1,2.65,0,.81.81,0,0,1,0,1.53,2.94,2.94,0,0,1-2.65,0Zm.58-.34a.46.46,0,0,1,0-.86A1.65,1.65,0,0,1,73,24a.45.45,0,0,1,0,.86A1.67,1.67,0,0,1,71.52,24.9Z"/><polygon class="cls-22" points="67.16 37.17 71.62 34.6 64.67 30.59 60.67 30.59 56.21 33.16 63.16 37.17 67.16 37.17"/><polygon class="cls-11" points="60.21 29.17 67.16 33.18 71.62 30.6 64.67 26.59 60.21 29.17"/><polygon class="cls-29" points="71.62 30.6 67.16 33.18 67.16 37.17 71.62 34.6 71.62 30.6"/><polygon class="cls-125" points="60.21 29.17 67.16 33.18 67.16 37.17 60.21 33.16 60.21 29.17"/><polygon class="cls-125" points="60.21 29.17 67.16 33.18 67.16 37.17 60.21 33.16 60.21 29.17"/><polygon class="cls-31" points="60.55 29.77 66.81 33.38 66.81 36.57 60.55 32.96 60.55 29.77"/><path class="cls-126" d="M66.1,31.53a2.94,2.94,0,0,0,2.65,0,.82.82,0,0,0,0-1.54,2.94,2.94,0,0,0-2.65,0,.82.82,0,0,0,0,1.54Zm.59-.34a.45.45,0,0,1,0-.86,1.65,1.65,0,0,1,1.47,0,.45.45,0,0,1,0,.86,1.65,1.65,0,0,1-1.47,0Zm-3.62-1.41a.81.81,0,0,1,0-1.53,2.88,2.88,0,0,1,2.65,0c.74.42.74,1.1,0,1.53a2.94,2.94,0,0,1-2.65,0Zm.59-.34c-.41-.24-.41-.62,0-.85a1.61,1.61,0,0,1,1.48,0,.45.45,0,0,1,0,.85A1.67,1.67,0,0,1,63.66,29.44Z"/><polygon class="cls-127" points="32.54 37.22 35.16 35.7 38.68 37.73 37.02 38.7 36.02 39.23 32.54 37.22"/><polygon class="cls-128" points="33.17 35.52 33.17 36.85 34.33 36.19 34.83 36.48 34.83 34.56 33.17 35.52"/><polygon class="cls-22" points="57.11 52.95 63.66 49.16 53.45 43.27 47.59 43.27 46.54 43.88 38.13 39.03 35.51 40.54 43.91 45.39 41.04 47.05 51.24 52.95 57.11 52.95"/><polygon class="cls-129" points="36.02 39.23 38.64 37.71 38.13 39.03 35.51 40.54 36.02 39.23"/><polygon class="cls-130" points="31.5 36.48 32.08 36.81 32.08 37.48 31.5 37.15 31.5 36.48"/><polygon class="cls-131" points="50.98 45.8 34.33 36.19 33.17 35.52 33.17 36.85 31.5 37.81 31.5 32.64 50.98 43.88 50.98 45.8"/><polygon class="cls-11" points="31.5 32.64 50.98 43.88 52.64 42.92 33.17 31.68 31.5 32.64"/><polygon class="cls-11" points="46.9 41.19 57.11 47.08 63.66 43.3 53.45 37.41 46.9 41.19"/><polygon class="cls-132" points="63.66 43.3 57.11 47.08 57.11 52.95 63.66 49.16 63.66 43.3"/><polygon class="cls-133" points="46.9 41.19 57.11 47.08 57.11 52.95 46.9 47.05 46.9 41.19"/><path class="cls-28" d="M54.73,47a.77.77,0,0,1,.35.6.23.23,0,0,1-.35.2c-.11-.06-.08,0-.11-.08l-.25.14a.78.78,0,0,0-.26.28h0a.68.68,0,0,0-.11.35v3.42a.29.29,0,0,1,.13.06.23.23,0,0,1,0,.4.76.76,0,0,1-.69,0,.23.23,0,0,1,0-.4.29.29,0,0,1,.13-.06V48.44a1.14,1.14,0,0,1,.17-.57h0a1.13,1.13,0,0,1,.41-.43l.25-.15a.27.27,0,0,1,0-.14A.24.24,0,0,1,54.73,47Z"/><path class="cls-28" d="M53.42,46.19a.76.76,0,0,1,.34.6.23.23,0,0,1-.34.2c-.12-.06-.08-.05-.12-.08l-.25.14a.69.69,0,0,0-.25.28h0a.68.68,0,0,0-.11.35V51.1a.44.44,0,0,1,.13.06.23.23,0,0,1,0,.4.78.78,0,0,1-.7,0,.23.23,0,0,1,0-.4.35.35,0,0,1,.13-.06V47.68a1.25,1.25,0,0,1,.17-.57h0a1.13,1.13,0,0,1,.41-.43l.26-.15c0-.05,0,0,0-.14A.23.23,0,0,1,53.42,46.19Z"/><g class="cls-134"><polygon class="cls-135" points="119.97 58.16 119.11 57.64 119.78 57.25 120.64 57.77 119.97 58.16"/><g class="cls-134"><g class="cls-136"><g class="cls-134"><path class="cls-137" d="M120.64,57.77l-.86-.52a4.76,4.76,0,0,0,.61-.4l.87.53a5.82,5.82,0,0,1-.62.39"/><path class="cls-138" d="M121.26,57.38l-.87-.53a5.06,5.06,0,0,0,2.06-4.23c0-1.21-.25-1.8-.65-2l.87.52c.39.24.67.83.65,2a5.11,5.11,0,0,1-2.06,4.23"/></g></g></g><g class="cls-134"><g class="cls-139"><g class="cls-134"><path class="cls-140" d="M122.81,49l-.86-.53h.19L123,49h-.19"/><path class="cls-141" d="M123,49l-.86-.53a1.61,1.61,0,0,1,.64.21l.86.52A1.42,1.42,0,0,0,123,49"/></g></g></g><g class="cls-134"><g class="cls-142"><g class="cls-134"><path class="cls-137" d="M120.8,49.66l-.86-.53.52-.27.87.52a5.48,5.48,0,0,0-.53.28"/><path class="cls-143" d="M121.33,49.38l-.87-.52a5.93,5.93,0,0,1,.76-.3l.87.53a4,4,0,0,0-.76.29"/><path class="cls-144" d="M122.09,49.09l-.87-.53a2.53,2.53,0,0,1,.5-.09l.87.52a2.46,2.46,0,0,0-.5.1"/><path class="cls-140" d="M122.59,49l-.87-.52.23,0,.86.53h-.22"/></g></g></g><polygon class="cls-135" points="96.14 74.67 95.28 74.15 124.55 57.27 125.41 57.79 96.14 74.67"/><path class="cls-145" d="M122.81,49c1.62,0,1.91,1.92,1.89,3.38a8.4,8.4,0,0,1-4,7.17l-2.09,1.2.18-9.88,2-1.19A4.19,4.19,0,0,1,122.81,49Zm-2.17,8.79a5.08,5.08,0,0,0,2.68-4.62c0-1.72-.54-2.18-1.18-2.18a3.17,3.17,0,0,0-1.45.51l-.6.35L120,58.16l.67-.39"/><polygon class="cls-146" points="118.57 60.73 117.71 60.21 117.89 50.32 118.75 50.85 118.57 60.73"/><polygon class="cls-147" points="118.75 50.85 117.89 50.32 119.94 49.13 120.8 49.66 118.75 50.85"/><g class="cls-134"><g class="cls-148"><g class="cls-134"><path class="cls-141" d="M111.79,62.3l-.87-.52a1.34,1.34,0,0,0,.51.17l.87.52a1.1,1.1,0,0,1-.51-.17"/><path class="cls-140" d="M112.3,62.47l-.87-.52h.29l.86.52h-.28"/><path class="cls-144" d="M112.58,62.47l-.86-.52.29-.06.86.52-.29.06"/><path class="cls-143" d="M112.87,62.41l-.86-.52a1.78,1.78,0,0,0,.36-.14l.87.52a2.13,2.13,0,0,1-.37.14"/><path class="cls-137" d="M113.24,62.27l-.87-.52a1.24,1.24,0,0,0,.2-.1l.87.52-.2.1"/></g></g></g><g class="cls-134"><g class="cls-149"><g class="cls-134"><path class="cls-137" d="M113.44,62.17l-.87-.52.35-.23.86.52a2.54,2.54,0,0,1-.34.23"/><path class="cls-138" d="M113.78,61.94l-.86-.52a6.38,6.38,0,0,0,2.27-4.64,2.22,2.22,0,0,0-.8-2l.86.52a2.2,2.2,0,0,1,.8,2,6.34,6.34,0,0,1-2.27,4.64"/></g></g></g><g class="cls-134"><g class="cls-150"><g class="cls-134"><path class="cls-140" d="M115.19,53.15l-.86-.52h.21l.86.52h-.21"/><path class="cls-141" d="M115.4,53.16l-.86-.52a1.76,1.76,0,0,1,.78.26l.87.52a1.94,1.94,0,0,0-.79-.26"/></g></g></g><g class="cls-134"><g class="cls-151"><g class="cls-134"><path class="cls-138" d="M110.83,64.16l-.87-.52a3.37,3.37,0,0,1-1.22-3.09,9.7,9.7,0,0,1,3.48-7.09l.87.52a9.73,9.73,0,0,0-3.49,7.09c0,1.54.44,2.62,1.23,3.09"/><path class="cls-137" d="M113.09,54l-.87-.52a4.21,4.21,0,0,1,.52-.34,2.48,2.48,0,0,1,.32-.17l.86.52-.32.17a5,5,0,0,0-.51.34"/><path class="cls-143" d="M113.92,53.47l-.86-.52a4.13,4.13,0,0,1,.57-.22l.86.52a6,6,0,0,0-.57.22"/><path class="cls-144" d="M114.49,53.25l-.86-.52.46-.09.87.52-.47.09"/><path class="cls-140" d="M115,53.16l-.87-.52h.24l.86.52H115"/></g></g></g><path class="cls-145" d="M115.19,53.15c1.37,0,2.27,1.28,2.23,3.4,0,2.86-1.79,6.12-4,7.39a3.23,3.23,0,0,1-1.59.49c-1.36,0-2.26-1.25-2.22-3.36.06-2.87,1.79-6.15,4-7.43A3.26,3.26,0,0,1,115.19,53.15Zm-1.75,9a6.15,6.15,0,0,0,2.61-4.87c0-1.37-.55-2.2-1.44-2.2a2.18,2.18,0,0,0-1,.31,6.15,6.15,0,0,0-2.6,4.83c0,1.39.56,2.24,1.46,2.24a2.08,2.08,0,0,0,1-.31"/><g class="cls-134"><g class="cls-152"><g class="cls-134"><path class="cls-141" d="M103.12,67.31l-.87-.52a1.27,1.27,0,0,0,.51.16l.86.52a1.09,1.09,0,0,1-.5-.16"/><path class="cls-140" d="M103.62,67.47l-.86-.52H103l.87.52h-.29"/><path class="cls-144" d="M103.91,67.47,103,67a1.59,1.59,0,0,0,.3-.06l.86.53-.29,0"/><path class="cls-143" d="M104.2,67.42l-.86-.53a2.6,2.6,0,0,0,.36-.13l.87.52a3.44,3.44,0,0,1-.37.14"/><path class="cls-137" d="M104.57,67.28l-.87-.52.2-.11.87.52-.2.11"/></g></g></g><g class="cls-134"><g class="cls-153"><g class="cls-134"><path class="cls-137" d="M104.77,67.17l-.87-.52.34-.22.86.52a3.15,3.15,0,0,1-.33.22"/><path class="cls-138" d="M105.1,67l-.86-.52a6.36,6.36,0,0,0,2.27-4.64,2.23,2.23,0,0,0-.8-2l.86.52a2.23,2.23,0,0,1,.8,2A6.34,6.34,0,0,1,105.1,67"/></g></g></g><g class="cls-134"><g class="cls-154"><g class="cls-134"><path class="cls-140" d="M106.52,58.16l-.86-.53h.2l.86.53h-.2"/><path class="cls-141" d="M106.72,58.17l-.86-.53a1.94,1.94,0,0,1,.79.26l.86.52a1.75,1.75,0,0,0-.79-.25"/></g></g></g><polygon class="cls-146" points="96.13 75.34 95.26 74.81 95.28 74.15 96.14 74.67 96.13 75.34"/><polygon class="cls-145" points="125.41 57.79 125.4 58.45 96.13 75.34 96.14 74.67 125.41 57.79"/><g class="cls-134"><g class="cls-155"><g class="cls-134"><path class="cls-138" d="M102.15,69.17l-.86-.53c-.79-.47-1.26-1.55-1.23-3.09a9.73,9.73,0,0,1,3.49-7.09l.87.52a9.7,9.7,0,0,0-3.5,7.09,3.39,3.39,0,0,0,1.23,3.1"/><path class="cls-137" d="M104.42,59l-.87-.52a5.8,5.8,0,0,1,.52-.34l.32-.17.87.52-.33.17a5.65,5.65,0,0,0-.51.34"/><path class="cls-143" d="M105.26,58.47l-.87-.52a6,6,0,0,1,.57-.22l.86.53a3.52,3.52,0,0,0-.56.21"/><path class="cls-144" d="M105.82,58.26l-.86-.53.46-.09.86.53a2,2,0,0,0-.46.09"/><path class="cls-140" d="M106.28,58.17l-.86-.53h.24l.86.53h-.24"/></g></g></g><path class="cls-145" d="M106.52,58.16c1.37,0,2.27,1.28,2.23,3.39a9.38,9.38,0,0,1-4,7.4,3.21,3.21,0,0,1-1.59.48c-1.37,0-2.27-1.25-2.23-3.36.06-2.86,1.8-6.15,4-7.43A3.21,3.21,0,0,1,106.52,58.16Zm-1.75,9a6.14,6.14,0,0,0,2.6-4.86c0-1.37-.55-2.21-1.44-2.21a2,2,0,0,0-1,.32,6.14,6.14,0,0,0-2.6,4.82c0,1.39.56,2.24,1.46,2.24a2.08,2.08,0,0,0,1-.31"/><polygon class="cls-135" points="97.64 67.04 96.77 66.52 99.06 65.2 99.92 65.72 97.64 67.04"/><polygon class="cls-135" points="96.34 63.77 95.47 63.25 99.24 61.07 100.1 61.6 96.34 63.77"/><polygon class="cls-145" points="100.1 61.6 100.07 63.38 97.68 64.76 97.64 67.04 99.92 65.72 99.89 67.5 97.6 68.82 97.53 72.86 96.16 73.66 96.34 63.77 100.1 61.6"/><polygon class="cls-146" points="96.16 73.66 95.29 73.14 95.47 63.25 96.34 63.77 96.16 73.66"/><polygon class="cls-145" points="125.64 45.27 125.63 45.93 96.36 62.82 96.37 62.16 125.64 45.27"/><polygon class="cls-146" points="96.36 62.82 95.49 62.3 95.5 61.64 96.37 62.16 96.36 62.82"/><polygon class="cls-135" points="96.37 62.16 95.5 61.64 124.78 44.75 125.64 45.27 96.37 62.16"/></g></g></g></svg>