<svg xmlns="http://www.w3.org/2000/svg" xmlns:xlink="http://www.w3.org/1999/xlink" viewBox="0 0 92.55 88.33"><defs><style>.cls-1{fill:none;}.cls-2{isolation:isolate;}.cls-3{clip-path:url(#clip-path);}.cls-4{fill:url(#Безымянный_градиент_24);}.cls-12,.cls-16,.cls-18,.cls-20,.cls-5,.cls-7{mix-blend-mode:screen;}.cls-5{fill:url(#Безымянный_градиент_12);}.cls-6{fill:url(#Безымянный_градиент_24-2);}.cls-7{fill:url(#Безымянный_градиент_12-2);}.cls-8{fill:url(#Безымянный_градиент_24-3);}.cls-9{fill:#7cba94;}.cls-10{fill:#456853;}.cls-11{fill:url(#Безымянный_градиент_24-4);}.cls-12{fill:url(#Безымянный_градиент_12-3);}.cls-13{fill:#689c7d;}.cls-14{fill:#293d31;}.cls-15{fill:url(#Безымянный_градиент_24-5);}.cls-16{fill:url(#Безымянный_градиент_12-4);}.cls-17{fill:url(#Безымянный_градиент_24-6);}.cls-18{fill:url(#Безымянный_градиент_12-5);}.cls-19{fill:url(#Безымянный_градиент_24-7);}.cls-20{fill:url(#Безымянный_градиент_12-6);}.cls-21{fill:#1d2c23;}.cls-22{fill:url(#Безымянный_градиент_24-8);}.cls-23{fill:#6a9f7f;}.cls-24{fill:url(#Безымянный_градиент_24-9);}.cls-25{fill:url(#Безымянный_градиент_25);}.cls-26{fill:url(#Безымянный_градиент_26);}.cls-27{fill:#3d5c49;}.cls-28{fill:url(#Безымянный_градиент_24-10);}.cls-29{fill:url(#Безымянный_градиент_24-11);}.cls-30{fill:url(#Безымянный_градиент_25-2);}.cls-31{fill:url(#Безымянный_градиент_26-2);}.cls-32{fill:#619174;}.cls-33{fill:url(#Безымянный_градиент_66);}.cls-34{fill:url(#Безымянный_градиент_68);}.cls-35{fill:url(#Безымянный_градиент_68-2);}.cls-36{fill:#485177;}.cls-37{fill:#95dfb2;}.cls-38{fill:url(#Безымянный_градиент_66-2);}.cls-39{fill:url(#Безымянный_градиент_68-3);}.cls-40{fill:url(#Безымянный_градиент_68-4);}.cls-41{fill:url(#Безымянный_градиент_66-3);}.cls-42{fill:url(#Безымянный_градиент_68-5);}.cls-43{fill:url(#Безымянный_градиент_68-6);}.cls-44{fill:url(#Безымянный_градиент_66-4);}.cls-45{fill:url(#Безымянный_градиент_68-7);}.cls-46{fill:url(#Безымянный_градиент_68-8);}.cls-47{fill:url(#Безымянный_градиент_66-5);}.cls-48{fill:url(#Безымянный_градиент_68-9);}.cls-49{fill:url(#Безымянный_градиент_68-10);}.cls-50{fill:url(#Безымянный_градиент_66-6);}.cls-51{fill:url(#Безымянный_градиент_68-11);}.cls-52{fill:url(#Безымянный_градиент_68-12);}.cls-53{fill:url(#Безымянный_градиент_66-7);}.cls-54{fill:url(#Безымянный_градиент_68-13);}.cls-55{fill:url(#Безымянный_градиент_68-14);}.cls-56{fill:url(#Безымянный_градиент_66-8);}.cls-57{fill:url(#Безымянный_градиент_68-15);}.cls-58{fill:url(#Безымянный_градиент_68-16);}.cls-59{fill:url(#Безымянный_градиент_66-9);}.cls-60{fill:url(#Безымянный_градиент_68-17);}.cls-61{fill:url(#Безымянный_градиент_68-18);}.cls-62{fill:url(#Безымянный_градиент_66-10);}.cls-63{fill:url(#Безымянный_градиент_68-19);}.cls-64{fill:url(#Безымянный_градиент_68-20);}.cls-65{fill:url(#Безымянный_градиент_66-11);}.cls-66{fill:url(#Безымянный_градиент_68-21);}.cls-67{fill:url(#Безымянный_градиент_68-22);}.cls-68{fill:url(#Безымянный_градиент_66-12);}.cls-69{fill:url(#Безымянный_градиент_68-23);}.cls-70{fill:url(#Безымянный_градиент_68-24);}.cls-71{fill:url(#Безымянный_градиент_66-13);}.cls-72{fill:url(#Безымянный_градиент_68-25);}.cls-73{fill:url(#Безымянный_градиент_68-26);}.cls-74{fill:url(#Безымянный_градиент_66-14);}.cls-75{fill:url(#Безымянный_градиент_68-27);}.cls-76{fill:url(#Безымянный_градиент_68-28);}.cls-77{fill:#b9b5b2;mix-blend-mode:multiply;}</style><clipPath id="clip-path" transform="translate(0 0)"><path class="cls-1" d="M0,0V59.42L22,72.15h0l1.08.63h0L67.43,98.39H92.74V0ZM17.59,47A1.08,1.08,0,0,1,18,47l.38-.21c-.1-.4-.15-.74-.15-.74A5.58,5.58,0,0,1,19.92,46l0,0a1.08,1.08,0,0,1,.05-.46c.24-.61,1.73-1.17,1.73-1.17s.08.16.17.39a7.63,7.63,0,0,1,.62-1.29,6.59,6.59,0,0,1,1.33,1.08c.14-.27.26-.46.26-.46s1.41.86,1.56,1.49v0c.16-.24.28-.4.28-.4s1.34,1,1.44,1.61v.08l.39.23A.49.49,0,0,1,28,47c.65-.07,1.93,1,1.93,1s1.1.83,1,1c0,0-.1.76-.1.76a2,2,0,0,0-1.32.42,1.3,1.3,0,0,1-.62.32,5.35,5.35,0,0,1,1.57.73,4.75,4.75,0,0,1-1.27,1.33l.12.07a3.17,3.17,0,0,1,.55,1.62l-5.16.44-8.55-5a5.12,5.12,0,0,1-.05-1.2l-.18-.14S16.94,47,17.59,47Z"/></clipPath><linearGradient id="Безымянный_градиент_24" x1="52.28" y1="74.98" x2="49.87" y2="80.53" gradientUnits="userSpaceOnUse"><stop offset="0" stop-color="#e8c35f"/><stop offset="0.14" stop-color="#e2b755"/><stop offset="0.66" stop-color="#d09035"/><stop offset="0.93" stop-color="#c98128"/></linearGradient><linearGradient id="Безымянный_градиент_12" x1="50.33" y1="77.91" x2="51.58" y2="68.84" gradientUnits="userSpaceOnUse"><stop offset="0" stop-color="#80541a"/><stop offset="0.56" stop-color="#7c5e15"/><stop offset="0.93" stop-color="#786710"/></linearGradient><linearGradient id="Безымянный_градиент_24-2" x1="58.49" y1="70.55" x2="56.04" y2="76.19" xlink:href="#Безымянный_градиент_24"/><linearGradient id="Безымянный_градиент_12-2" x1="56.47" y1="72.03" x2="57.74" y2="62.82" xlink:href="#Безымянный_градиент_12"/><linearGradient id="Безымянный_градиент_24-3" x1="47.11" y1="79.06" x2="45.14" y2="83.62" xlink:href="#Безымянный_градиент_24"/><linearGradient id="Безымянный_градиент_24-4" x1="75.77" y1="34.16" x2="69.08" y2="45.63" gradientTransform="matrix(1, 0, 0, -1, 0, 100)" xlink:href="#Безымянный_градиент_24"/><linearGradient id="Безымянный_градиент_12-3" x1="-81.5" y1="27.32" x2="-80.96" y2="37.02" gradientTransform="matrix(1, 0, 0, -1, 155.44, 100)" xlink:href="#Безымянный_градиент_12"/><linearGradient id="Безымянный_градиент_24-5" x1="69.48" y1="30.5" x2="62.79" y2="41.97" gradientTransform="matrix(1, 0, 0, -1, 0, 100)" xlink:href="#Безымянный_градиент_24"/><linearGradient id="Безымянный_градиент_12-4" x1="-87.82" y1="23.67" x2="-87.27" y2="33.38" gradientTransform="matrix(1, 0, 0, -1, 155.44, 100)" xlink:href="#Безымянный_градиент_12"/><linearGradient id="Безымянный_градиент_24-6" x1="90.63" y1="42.7" x2="83.95" y2="54.17" gradientTransform="matrix(1, 0, 0, -1, 0, 100)" xlink:href="#Безымянный_градиент_24"/><linearGradient id="Безымянный_градиент_12-5" x1="-66.65" y1="35.85" x2="-66.1" y2="45.56" gradientTransform="matrix(1, 0, 0, -1, 155.44, 100)" xlink:href="#Безымянный_градиент_12"/><linearGradient id="Безымянный_градиент_24-7" x1="84.34" y1="39.04" x2="77.65" y2="50.51" gradientTransform="matrix(1, 0, 0, -1, 0, 100)" xlink:href="#Безымянный_градиент_24"/><linearGradient id="Безымянный_градиент_12-6" x1="-72.95" y1="32.21" x2="-72.4" y2="41.92" gradientTransform="matrix(1, 0, 0, -1, 155.44, 100)" xlink:href="#Безымянный_градиент_12"/><linearGradient id="Безымянный_градиент_24-8" x1="3.93" y1="63.38" x2="3.29" y2="64.1" gradientTransform="matrix(1, 0, 0, -1, 0, 100)" xlink:href="#Безымянный_градиент_24"/><linearGradient id="Безымянный_градиент_24-9" x1="17.22" y1="58.85" x2="14.55" y2="54.06" gradientTransform="matrix(1, 0, 0, -1, 0, 100)" xlink:href="#Безымянный_градиент_24"/><linearGradient id="Безымянный_градиент_25" x1="25.68" y1="52.55" x2="28.97" y2="47.64" gradientTransform="matrix(1, 0, 0, -1, 0, 100)" gradientUnits="userSpaceOnUse"><stop offset="0" stop-color="#cdfa77"/><stop offset="0.42" stop-color="#d0c14f"/><stop offset="0.75" stop-color="#d29934"/><stop offset="0.93" stop-color="#d38a2a"/></linearGradient><linearGradient id="Безымянный_градиент_26" x1="14.83" y1="58.44" x2="12.16" y2="54.2" gradientTransform="matrix(1, 0, 0, -1, 0, 100)" gradientUnits="userSpaceOnUse"><stop offset="0" stop-color="#edcb4e"/><stop offset="0.14" stop-color="#e3c148"/><stop offset="0.36" stop-color="#c9a737"/><stop offset="0.66" stop-color="#a07c1d"/><stop offset="0.93" stop-color="#734e00"/></linearGradient><linearGradient id="Безымянный_градиент_24-10" x1="62.06" y1="97.95" x2="61.42" y2="98.67" gradientTransform="matrix(1, 0, 0, -1, 0, 100)" xlink:href="#Безымянный_градиент_24"/><linearGradient id="Безымянный_градиент_24-11" x1="75.36" y1="93.43" x2="72.69" y2="88.64" gradientTransform="matrix(1, 0, 0, -1, 0, 100)" xlink:href="#Безымянный_градиент_24"/><linearGradient id="Безымянный_градиент_25-2" x1="83.82" y1="87.12" x2="87.1" y2="82.21" xlink:href="#Безымянный_градиент_25"/><linearGradient id="Безымянный_градиент_26-2" x1="72.96" y1="93.01" x2="70.29" y2="88.78" xlink:href="#Безымянный_градиент_26"/><linearGradient id="Безымянный_градиент_66" x1="-940.75" y1="-1725.57" x2="-926.36" y2="-1719.37" gradientTransform="matrix(-0.5, -0.86, -0.86, 0.5, -2038.51, 4.68)" gradientUnits="userSpaceOnUse"><stop offset="0.07" stop-color="#e8c615"/><stop offset="0.27" stop-color="#eec723"/><stop offset="0.73" stop-color="#fac83d"/><stop offset="1" stop-color="#ffc847"/></linearGradient><linearGradient id="Безымянный_градиент_68" x1="-1072.78" y1="-1781.97" x2="-1072.18" y2="-1781.97" gradientTransform="matrix(-0.5, -0.86, -0.86, 0.5, -2038.51, 4.68)" gradientUnits="userSpaceOnUse"><stop offset="0" stop-color="#b89d4a"/><stop offset="0.18" stop-color="#ae9345"/><stop offset="0.5" stop-color="#947936"/><stop offset="0.9" stop-color="#6a4e1e"/><stop offset="0.93" stop-color="#664a1c"/></linearGradient><linearGradient id="Безымянный_градиент_68-2" x1="-1074.23" y1="-1783.89" x2="-1073.71" y2="-1784.84" xlink:href="#Безымянный_градиент_68"/><linearGradient id="Безымянный_градиент_66-2" x1="-939.44" y1="-1728.63" x2="-925.05" y2="-1722.44" xlink:href="#Безымянный_градиент_66"/><linearGradient id="Безымянный_градиент_68-3" x1="-1072.78" y1="-1785.49" x2="-1072.17" y2="-1785.49" xlink:href="#Безымянный_градиент_68"/><linearGradient id="Безымянный_градиент_68-4" x1="-1074.21" y1="-1787.41" x2="-1073.7" y2="-1788.36" xlink:href="#Безымянный_градиент_68"/><linearGradient id="Безымянный_градиент_66-3" x1="-938.19" y1="-1731.53" x2="-923.8" y2="-1725.33" xlink:href="#Безымянный_градиент_66"/><linearGradient id="Безымянный_градиент_68-5" x1="-1072.77" y1="-1789.02" x2="-1072.17" y2="-1789.02" xlink:href="#Безымянный_градиент_68"/><linearGradient id="Безымянный_градиент_68-6" x1="-1074.21" y1="-1790.94" x2="-1073.69" y2="-1791.89" xlink:href="#Безымянный_градиент_68"/><linearGradient id="Безымянный_градиент_66-4" x1="-936.91" y1="-1734.5" x2="-922.52" y2="-1728.3" xlink:href="#Безымянный_градиент_66"/><linearGradient id="Безымянный_градиент_68-7" x1="-1072.76" y1="-1792.54" x2="-1072.16" y2="-1792.54" xlink:href="#Безымянный_градиент_68"/><linearGradient id="Безымянный_градиент_68-8" x1="-1074.21" y1="-1794.47" x2="-1073.69" y2="-1795.42" xlink:href="#Безымянный_градиент_68"/><linearGradient id="Безымянный_градиент_66-5" x1="-935.62" y1="-1737.47" x2="-921.23" y2="-1731.27" xlink:href="#Безымянный_градиент_66"/><linearGradient id="Безымянный_градиент_68-9" x1="-1072.76" y1="-1796.07" x2="-1072.16" y2="-1796.07" xlink:href="#Безымянный_градиент_68"/><linearGradient id="Безымянный_градиент_68-10" x1="-1074.19" y1="-1798" x2="-1073.68" y2="-1798.95" xlink:href="#Безымянный_градиент_68"/><linearGradient id="Безымянный_градиент_66-6" x1="-934.34" y1="-1740.45" x2="-919.95" y2="-1734.25" xlink:href="#Безымянный_градиент_66"/><linearGradient id="Безымянный_градиент_68-11" x1="-1072.75" y1="-1799.6" x2="-1072.15" y2="-1799.6" xlink:href="#Безымянный_градиент_68"/><linearGradient id="Безымянный_градиент_68-12" x1="-1074.19" y1="-1801.52" x2="-1073.67" y2="-1802.47" xlink:href="#Безымянный_градиент_68"/><linearGradient id="Безымянный_градиент_66-7" x1="-933.06" y1="-1743.47" x2="-918.66" y2="-1737.27" xlink:href="#Безымянный_градиент_66"/><linearGradient id="Безымянный_градиент_68-13" x1="-1072.75" y1="-1803.12" x2="-1072.14" y2="-1803.12" xlink:href="#Безымянный_градиент_68"/><linearGradient id="Безымянный_градиент_68-14" x1="-1074.18" y1="-1805.04" x2="-1073.67" y2="-1805.99" xlink:href="#Безымянный_градиент_68"/><linearGradient id="Безымянный_градиент_66-8" x1="-927.93" y1="-1717.43" x2="-913.54" y2="-1711.23" xlink:href="#Безымянный_градиент_66"/><linearGradient id="Безымянный_градиент_68-15" x1="-1059.96" y1="-1773.82" x2="-1059.36" y2="-1773.82" xlink:href="#Безымянный_градиент_68"/><linearGradient id="Безымянный_градиент_68-16" x1="-1061.39" y1="-1775.75" x2="-1060.88" y2="-1776.7" xlink:href="#Безымянный_градиент_68"/><linearGradient id="Безымянный_градиент_66-9" x1="-926.64" y1="-1720.44" x2="-912.24" y2="-1714.24" xlink:href="#Безымянный_градиент_66"/><linearGradient id="Безымянный_градиент_68-17" x1="-1059.95" y1="-1777.35" x2="-1059.35" y2="-1777.35" xlink:href="#Безымянный_градиент_68"/><linearGradient id="Безымянный_градиент_68-18" x1="-1061.39" y1="-1779.27" x2="-1060.87" y2="-1780.22" xlink:href="#Безымянный_градиент_68"/><linearGradient id="Безымянный_градиент_66-10" x1="-925.34" y1="-1723.46" x2="-910.95" y2="-1717.27" xlink:href="#Безымянный_градиент_66"/><linearGradient id="Безымянный_градиент_68-19" x1="-1059.95" y1="-1780.87" x2="-1059.34" y2="-1780.87" xlink:href="#Безымянный_градиент_68"/><linearGradient id="Безымянный_градиент_68-20" x1="-1061.38" y1="-1782.79" x2="-1060.87" y2="-1783.74" xlink:href="#Безымянный_градиент_68"/><linearGradient id="Безымянный_градиент_66-11" x1="-924.08" y1="-1726.39" x2="-909.68" y2="-1720.19" xlink:href="#Безымянный_градиент_66"/><linearGradient id="Безымянный_градиент_68-21" x1="-1059.94" y1="-1784.4" x2="-1059.34" y2="-1784.4" xlink:href="#Безымянный_градиент_68"/><linearGradient id="Безымянный_градиент_68-22" x1="-1061.38" y1="-1786.32" x2="-1060.86" y2="-1787.27" xlink:href="#Безымянный_градиент_68"/><linearGradient id="Безымянный_градиент_66-12" x1="-922.8" y1="-1729.33" x2="-908.41" y2="-1723.13" xlink:href="#Безымянный_градиент_66"/><linearGradient id="Безымянный_градиент_68-23" x1="-1059.93" y1="-1787.92" x2="-1059.33" y2="-1787.92" xlink:href="#Безымянный_градиент_68"/><linearGradient id="Безымянный_градиент_68-24" x1="-1061.38" y1="-1789.85" x2="-1060.86" y2="-1790.8" xlink:href="#Безымянный_градиент_68"/><linearGradient id="Безымянный_градиент_66-13" x1="-921.49" y1="-1732.39" x2="-907.1" y2="-1726.2" xlink:href="#Безымянный_градиент_66"/><linearGradient id="Безымянный_градиент_68-25" x1="-1059.93" y1="-1791.45" x2="-1059.33" y2="-1791.45" xlink:href="#Безымянный_градиент_68"/><linearGradient id="Безымянный_градиент_68-26" x1="-1061.36" y1="-1793.37" x2="-1060.85" y2="-1794.32" xlink:href="#Безымянный_градиент_68"/><linearGradient id="Безымянный_градиент_66-14" x1="-920.24" y1="-1735.28" x2="-905.85" y2="-1729.08" xlink:href="#Безымянный_градиент_66"/><linearGradient id="Безымянный_градиент_68-27" x1="-1059.92" y1="-1794.97" x2="-1059.32" y2="-1794.97" xlink:href="#Безымянный_градиент_68"/><linearGradient id="Безымянный_градиент_68-28" x1="-1061.36" y1="-1796.9" x2="-1060.84" y2="-1797.85" xlink:href="#Безымянный_градиент_68"/></defs><g class="cls-2"><g id="Слой_2" data-name="Слой 2"><g id="Слой_1-2" data-name="Слой 1"><g class="cls-3"><polygon class="cls-4" points="47.45 75.81 47.45 86.23 53.35 82.81 53.35 72.1 47.45 75.81"/><polygon class="cls-5" points="48.23 75.33 47.68 85.98 52.03 83.46 52.58 72.58 48.23 75.33"/><polygon class="cls-6" points="53.26 72.16 53.26 82.86 59.16 79.44 59.16 68.44 53.26 72.16"/><polygon class="cls-7" points="54.04 71.66 53.5 82.52 57.85 80 58.41 68.92 54.04 71.66"/><polygon class="cls-8" points="44.4 77.73 44.4 88.01 47.25 86.34 47.25 75.94 44.4 77.73"/><polygon class="cls-9" points="53.26 72.59 53.26 72.81 59.16 69.39 59.16 69.17 53.26 72.59"/><polygon class="cls-10" points="53.26 72.81 53.26 74 59.16 70.58 59.16 69.39 53.26 72.81"/><polygon class="cls-9" points="55.83 71.09 55.92 71.04 56.11 71.15 55.87 71.29 55.83 71.09"/><polygon class="cls-9" points="58.88 69.33 58.97 69.28 59.16 69.39 58.92 69.53 58.88 69.33"/><polygon class="cls-9" points="47.45 75.96 47.45 76.18 53.36 72.76 53.36 72.53 47.45 75.96"/><polygon class="cls-10" points="47.26 86.56 47.45 86.45 47.45 75.82 47.26 75.93 47.26 86.56"/><polygon class="cls-10" points="47.45 76.18 47.45 77.37 53.36 73.95 53.36 72.76 47.45 76.18"/><polygon class="cls-9" points="50.03 74.46 50.11 74.41 50.31 74.52 50.06 74.66 50.03 74.46"/><polygon class="cls-9" points="53.08 72.7 53.16 72.65 53.36 72.76 53.11 72.9 53.08 72.7"/><polygon class="cls-9" points="44.4 77.73 44.4 77.95 47.26 76.29 47.26 76.07 44.4 77.73"/><polygon class="cls-10" points="44.4 77.95 44.4 79.14 47.26 77.48 47.26 76.29 44.4 77.95"/><polygon class="cls-9" points="46.98 76.23 47.06 76.18 47.26 76.29 47.01 76.43 46.98 76.23"/><polygon class="cls-11" points="77.68 57.99 77.68 66.23 71.57 69.77 71.57 61.53 76.08 58.91 77.68 57.99"/><polygon class="cls-12" points="77.04 58.35 76.31 66.9 71.82 69.51 72.54 60.96 77.04 58.35"/><polygon class="cls-9" points="71.57 63.42 71.57 63.65 77.68 60.11 77.68 59.88 71.57 63.42"/><polygon class="cls-13" points="77.48 58.11 77.48 66.13 71.57 69.55 71.57 69.77 77.68 66.23 77.68 57.99 77.48 58.11"/><polygon class="cls-14" points="77.68 66.23 77.48 66.13 77.48 58.11 77.68 57.99 77.68 66.23"/><polygon class="cls-14" points="74.53 68.05 74.33 67.95 74.33 59.93 74.53 59.81 74.53 68.05"/><polygon class="cls-10" points="71.57 63.65 71.57 63.97 77.68 60.43 77.68 60.11 71.57 63.65"/><polygon class="cls-9" points="74.24 61.87 74.33 61.82 74.53 61.93 74.28 62.08 74.24 61.87"/><polygon class="cls-9" points="77.39 60.05 77.48 60 77.68 60.11 77.43 60.26 77.39 60.05"/><polygon class="cls-15" points="71.38 61.63 71.38 69.88 65.27 73.41 65.27 65.17 69.78 62.56 71.38 61.63"/><polygon class="cls-16" points="70.73 62 70.01 70.55 65.51 73.15 66.24 64.6 70.73 62"/><polygon class="cls-9" points="65.27 67.06 65.27 67.29 71.38 63.76 71.38 63.52 65.27 67.06"/><polygon class="cls-13" points="71.17 61.75 71.17 69.77 65.27 73.19 65.27 73.41 71.38 69.88 71.38 61.63 71.17 61.75"/><polygon class="cls-14" points="71.38 69.88 71.17 69.77 71.17 61.75 71.38 61.63 71.38 69.88"/><polygon class="cls-14" points="68.22 71.7 68.02 71.59 68.02 63.57 68.22 63.45 68.22 71.7"/><polygon class="cls-10" points="65.27 67.29 65.27 67.61 71.38 64.07 71.38 63.75 65.27 67.29"/><polygon class="cls-9" points="67.94 65.51 68.02 65.46 68.22 65.58 67.97 65.72 67.94 65.51"/><polygon class="cls-9" points="71.09 63.69 71.17 63.64 71.38 63.76 71.13 63.9 71.09 63.69"/><polygon class="cls-17" points="92.55 49.45 92.55 57.69 86.44 61.23 86.44 52.99 90.95 50.37 92.55 49.45"/><polygon class="cls-18" points="91.9 49.82 91.17 58.37 86.68 60.97 87.41 52.42 91.9 49.82"/><polygon class="cls-9" points="86.44 54.88 86.44 55.11 92.55 51.57 92.55 51.34 86.44 54.88"/><polygon class="cls-13" points="92.34 49.57 92.34 57.59 86.44 61.01 86.44 61.23 92.55 57.69 92.55 49.45 92.34 49.57"/><polygon class="cls-14" points="92.55 57.69 92.34 57.59 92.34 49.57 92.55 49.45 92.55 57.69"/><polygon class="cls-14" points="89.39 59.51 89.19 59.41 89.19 51.39 89.39 51.27 89.39 59.51"/><polygon class="cls-10" points="86.44 55.11 86.44 55.42 92.55 51.89 92.55 51.57 86.44 55.11"/><polygon class="cls-9" points="89.1 53.33 89.19 53.28 89.39 53.39 89.14 53.54 89.1 53.33"/><polygon class="cls-9" points="92.26 51.51 92.34 51.46 92.55 51.57 92.3 51.72 92.26 51.51"/><polygon class="cls-19" points="86.24 53.09 86.24 61.34 80.13 64.87 80.13 56.63 84.64 54.02 86.24 53.09"/><polygon class="cls-20" points="85.59 53.46 84.87 62.01 80.38 64.61 81.1 56.06 85.59 53.46"/><polygon class="cls-9" points="80.13 58.52 80.13 58.75 86.24 55.22 86.24 54.98 80.13 58.52"/><polygon class="cls-13" points="86.04 53.21 86.04 61.23 80.13 64.65 80.13 64.88 86.24 61.34 86.24 53.09 86.04 53.21"/><polygon class="cls-14" points="86.24 61.34 86.04 61.23 86.04 53.21 86.24 53.09 86.24 61.34"/><polygon class="cls-14" points="83.09 63.16 82.88 63.05 82.88 55.03 83.09 54.91 83.09 63.16"/><polygon class="cls-10" points="80.13 58.75 80.13 59.07 86.24 55.53 86.24 55.22 80.13 58.75"/><polygon class="cls-9" points="82.8 56.98 82.88 56.92 83.09 57.04 82.84 57.18 82.8 56.98"/><polygon class="cls-9" points="85.95 55.15 86.04 55.1 86.24 55.22 85.99 55.36 85.95 55.15"/><polygon class="cls-21" points="4.88 34.58 4.89 35.44 3.6 36.19 0 37.4 4.88 34.58"/><polygon class="cls-22" points="4.71 34.89 4.71 35.34 3.51 36.03 1.64 36.66 4.71 34.89"/><polygon class="cls-10" points="4.71 35.15 4.71 34.89 1.64 36.66 2.72 36.3 4.71 35.15"/><polygon class="cls-23" points="30.38 49.33 26.78 48.11 4.89 35.44 4.89 34.57 30.38 49.33"/><polygon class="cls-24" points="26.84 47.94 5.07 35.34 5.07 34.88 28.73 48.58 26.84 47.94"/><polygon class="cls-10" points="27.79 48.26 28.73 48.58 5.07 34.88 5.07 35.11 27.79 48.26"/><polygon class="cls-10" points="25.49 52.15 25.48 48.86 26.78 48.11 30.38 49.33 25.49 52.15"/><polygon class="cls-25" points="25.73 49 26.8 48.38 29.8 49.38 25.73 51.73 25.73 49"/><polygon class="cls-23" points="26.8 48.38 26.69 48.44 29.35 49.34 25.73 51.43 25.73 51.73 29.8 49.38 26.8 48.38"/><polygon class="cls-14" points="0 37.4 3.6 36.19 25.48 48.86 25.49 52.15 0 37.4"/><polygon class="cls-26" points="0.58 37.46 3.57 36.45 25.25 49 25.25 51.73 0.58 37.46"/><polygon class="cls-10" points="1.19 37.46 3.79 36.58 3.57 36.45 0.58 37.46 25.25 51.73 25.25 51.38 1.19 37.46"/><polygon class="cls-14" points="3.93 36.62 2.82 38.75 3.13 38.93 4.18 36.8 3.93 36.62"/><polygon class="cls-27" points="4.18 36.8 3.13 38.93 3.49 38.79 4.41 36.93 4.18 36.8"/><polygon class="cls-14" points="5.5 37.53 4.38 39.65 4.69 39.83 5.74 37.7 5.5 37.53"/><polygon class="cls-27" points="5.74 37.7 4.69 39.83 5.05 39.69 5.97 37.84 5.74 37.7"/><polygon class="cls-14" points="7.06 38.43 5.94 40.56 6.25 40.73 7.3 38.6 7.06 38.43"/><polygon class="cls-27" points="7.3 38.6 6.25 40.73 6.62 40.6 7.53 38.74 7.3 38.6"/><polygon class="cls-14" points="8.62 39.33 7.5 41.46 7.81 41.64 8.86 39.51 8.62 39.33"/><polygon class="cls-27" points="8.86 39.51 7.81 41.64 8.18 41.5 9.09 39.65 8.86 39.51"/><polygon class="cls-14" points="10.18 40.24 9.06 42.36 9.37 42.54 10.42 40.41 10.18 40.24"/><polygon class="cls-27" points="10.42 40.41 9.37 42.54 9.74 42.41 10.65 40.55 10.42 40.41"/><polygon class="cls-14" points="11.74 41.14 10.62 43.27 10.94 43.45 11.98 41.32 11.74 41.14"/><polygon class="cls-27" points="11.98 41.32 10.94 43.45 11.3 43.31 12.21 41.45 11.98 41.32"/><polygon class="cls-14" points="13.3 42.05 12.19 44.17 12.5 44.35 13.55 42.22 13.3 42.05"/><polygon class="cls-27" points="13.55 42.22 12.5 44.35 12.86 44.21 13.78 42.36 13.55 42.22"/><polygon class="cls-14" points="14.87 42.95 13.75 45.08 14.06 45.26 15.11 43.12 14.87 42.95"/><polygon class="cls-27" points="15.11 43.12 14.06 45.26 14.42 45.12 15.34 43.26 15.11 43.12"/><polygon class="cls-14" points="16.43 43.85 15.31 45.98 15.62 46.16 16.67 44.03 16.43 43.85"/><polygon class="cls-27" points="16.67 44.03 15.62 46.16 15.98 46.02 16.9 44.16 16.67 44.03"/><polygon class="cls-14" points="17.99 44.76 16.87 46.88 17.18 47.06 18.23 44.93 17.99 44.76"/><polygon class="cls-27" points="18.23 44.93 17.18 47.06 17.55 46.93 18.46 45.07 18.23 44.93"/><polygon class="cls-14" points="19.55 45.66 18.43 47.79 18.74 47.97 19.79 45.84 19.55 45.66"/><polygon class="cls-27" points="19.79 45.84 18.74 47.97 19.11 47.83 20.02 45.97 19.79 45.84"/><polygon class="cls-14" points="21.11 46.57 19.99 48.69 20.3 48.87 21.35 46.74 21.11 46.57"/><polygon class="cls-27" points="21.35 46.74 20.3 48.87 20.67 48.73 21.58 46.88 21.35 46.74"/><polygon class="cls-14" points="22.67 47.47 21.55 49.6 21.87 49.77 22.91 47.65 22.67 47.47"/><polygon class="cls-27" points="22.91 47.65 21.87 49.77 22.23 49.64 23.14 47.78 22.91 47.65"/><polygon class="cls-14" points="24.23 48.38 23.11 50.5 23.43 50.68 24.48 48.55 24.23 48.38"/><polygon class="cls-27" points="24.48 48.55 23.43 50.68 23.79 50.54 24.7 48.69 24.48 48.55"/><polygon class="cls-10" points="6.5 36.62 5.62 37.08 5.93 37.26 6.74 36.79 6.5 36.62"/><polygon class="cls-27" points="6.74 36.79 5.93 37.26 6.12 37.37 6.74 37.01 6.74 36.79"/><polygon class="cls-10" points="7.64 37.28 6.77 37.74 7.08 37.92 7.89 37.45 7.64 37.28"/><polygon class="cls-27" points="7.89 37.45 7.08 37.92 7.27 38.03 7.88 37.67 7.89 37.45"/><polygon class="cls-10" points="8.79 37.94 7.91 38.41 8.22 38.59 9.03 38.12 8.79 37.94"/><polygon class="cls-27" points="9.03 38.12 8.22 38.59 8.41 38.7 9.03 38.34 9.03 38.12"/><polygon class="cls-10" points="9.93 38.61 9.06 39.07 9.37 39.25 10.18 38.78 9.93 38.61"/><polygon class="cls-27" points="10.18 38.78 9.37 39.25 9.56 39.36 10.17 39 10.18 38.78"/><polygon class="cls-10" points="11.08 39.27 10.2 39.73 10.51 39.91 11.32 39.44 11.08 39.27"/><polygon class="cls-27" points="11.32 39.44 10.51 39.91 10.7 40.02 11.32 39.66 11.32 39.44"/><polygon class="cls-10" points="12.22 39.93 11.35 40.4 11.66 40.58 12.47 40.11 12.22 39.93"/><polygon class="cls-27" points="12.47 40.11 11.66 40.58 11.85 40.69 12.46 40.33 12.47 40.11"/><polygon class="cls-10" points="13.37 40.6 12.49 41.06 12.8 41.24 13.61 40.77 13.37 40.6"/><polygon class="cls-27" points="13.61 40.77 12.8 41.24 12.99 41.35 13.61 40.99 13.61 40.77"/><polygon class="cls-10" points="14.51 41.26 13.64 41.73 13.95 41.91 14.76 41.43 14.51 41.26"/><polygon class="cls-27" points="14.76 41.43 13.95 41.91 14.14 42.01 14.75 41.65 14.76 41.43"/><polygon class="cls-10" points="15.66 41.92 14.78 42.39 15.09 42.57 15.9 42.1 15.66 41.92"/><polygon class="cls-27" points="15.9 42.1 15.09 42.57 15.28 42.68 15.9 42.32 15.9 42.1"/><polygon class="cls-10" points="16.8 42.59 15.93 43.05 16.24 43.23 17.05 42.76 16.8 42.59"/><polygon class="cls-27" points="17.05 42.76 16.24 43.23 16.43 43.34 17.04 42.98 17.05 42.76"/><polygon class="cls-10" points="17.95 43.25 17.07 43.72 17.38 43.9 18.19 43.42 17.95 43.25"/><polygon class="cls-27" points="18.19 43.42 17.38 43.9 17.57 44 18.19 43.64 18.19 43.42"/><polygon class="cls-10" points="19.09 43.91 18.22 44.38 18.53 44.56 19.34 44.09 19.09 43.91"/><polygon class="cls-27" points="19.34 44.09 18.53 44.56 18.72 44.67 19.33 44.31 19.34 44.09"/><polygon class="cls-10" points="20.24 44.58 19.36 45.04 19.67 45.22 20.48 44.75 20.24 44.58"/><polygon class="cls-27" points="20.48 44.75 19.67 45.22 19.86 45.33 20.48 44.97 20.48 44.75"/><polygon class="cls-10" points="21.38 45.24 20.51 45.71 20.82 45.88 21.63 45.41 21.38 45.24"/><polygon class="cls-27" points="21.63 45.41 20.82 45.88 21.01 45.99 21.62 45.63 21.63 45.41"/><polygon class="cls-10" points="22.53 45.9 21.65 46.37 21.96 46.55 22.77 46.08 22.53 45.9"/><polygon class="cls-27" points="22.77 46.08 21.96 46.55 22.15 46.66 22.77 46.3 22.77 46.08"/><polygon class="cls-10" points="23.67 46.57 22.8 47.03 23.11 47.21 23.91 46.74 23.67 46.57"/><polygon class="cls-27" points="23.91 46.74 23.11 47.21 23.3 47.32 23.91 46.96 23.91 46.74"/><polygon class="cls-23" points="7.05 35.89 5.6 35.73 5.91 35.91 7.3 36.06 7.05 35.89"/><polygon class="cls-27" points="7.07 36.04 5.91 35.91 6.31 36.09 6.85 36.13 7.07 36.04"/><polygon class="cls-23" points="8.75 36.87 7.29 36.71 7.6 36.88 8.99 37.04 8.75 36.87"/><polygon class="cls-27" points="8.76 37.02 7.6 36.88 8 37.06 8.54 37.11 8.76 37.02"/><polygon class="cls-23" points="10.44 37.85 8.98 37.69 9.29 37.86 10.68 38.02 10.44 37.85"/><polygon class="cls-27" points="10.45 37.99 9.29 37.86 9.69 38.04 10.23 38.09 10.45 37.99"/><polygon class="cls-23" points="12.13 38.83 10.67 38.67 10.98 38.84 12.37 39 12.13 38.83"/><polygon class="cls-27" points="12.14 38.98 10.98 38.84 11.38 39.02 11.92 39.07 12.14 38.98"/><polygon class="cls-23" points="13.82 39.81 12.36 39.65 12.68 39.82 14.06 39.98 13.82 39.81"/><polygon class="cls-27" points="13.84 39.95 12.68 39.82 13.07 40 13.61 40.05 13.84 39.95"/><polygon class="cls-23" points="15.51 40.79 14.05 40.62 14.37 40.8 15.76 40.96 15.51 40.79"/><polygon class="cls-27" points="15.53 40.93 14.37 40.8 14.77 40.98 15.3 41.03 15.53 40.93"/><polygon class="cls-23" points="17.2 41.77 15.75 41.6 16.06 41.78 17.45 41.94 17.2 41.77"/><polygon class="cls-27" points="17.22 41.91 16.06 41.78 16.46 41.96 17 42.01 17.22 41.91"/><polygon class="cls-23" points="18.9 42.74 17.44 42.58 17.75 42.76 19.14 42.92 18.9 42.74"/><polygon class="cls-27" points="18.91 42.89 17.75 42.76 18.15 42.94 18.69 42.99 18.91 42.89"/><polygon class="cls-23" points="20.59 43.73 19.13 43.56 19.44 43.74 20.83 43.9 20.59 43.73"/><polygon class="cls-27" points="20.6 43.87 19.44 43.74 19.84 43.92 20.38 43.97 20.6 43.87"/><polygon class="cls-23" points="22.28 44.7 20.82 44.54 21.13 44.72 22.52 44.88 22.28 44.7"/><polygon class="cls-27" points="22.29 44.85 21.13 44.72 21.53 44.9 22.07 44.95 22.29 44.85"/><polygon class="cls-23" points="23.97 45.68 22.51 45.52 22.82 45.7 24.21 45.86 23.97 45.68"/><polygon class="cls-27" points="23.98 45.83 22.82 45.7 23.22 45.88 23.76 45.92 23.98 45.83"/><polygon class="cls-23" points="25.66 46.66 24.2 46.5 24.52 46.68 25.91 46.84 25.66 46.66"/><polygon class="cls-27" points="25.68 46.81 24.52 46.68 24.91 46.86 25.45 46.9 25.68 46.81"/><polygon class="cls-23" points="27.35 47.64 25.9 47.48 26.21 47.66 27.6 47.82 27.35 47.64"/><polygon class="cls-27" points="27.37 47.79 26.21 47.66 26.61 47.84 27.14 47.88 27.37 47.79"/><polygon class="cls-21" points="63.01 0.01 63.02 0.87 61.73 1.61 58.13 2.83 63.01 0.01"/><polygon class="cls-28" points="62.84 0.32 62.84 0.77 61.64 1.46 59.78 2.08 62.84 0.32"/><polygon class="cls-10" points="62.84 0.57 62.84 0.32 59.78 2.08 60.85 1.73 62.84 0.57"/><polygon class="cls-23" points="88.51 14.76 84.91 13.54 63.02 0.87 63.02 0 88.51 14.76"/><polygon class="cls-29" points="84.97 13.37 63.2 0.76 63.2 0.31 86.86 14.01 84.97 13.37"/><polygon class="cls-10" points="85.92 13.69 86.86 14.01 63.2 0.31 63.2 0.54 85.92 13.69"/><polygon class="cls-10" points="83.63 17.58 83.62 14.29 84.91 13.54 88.51 14.76 83.63 17.58"/><polygon class="cls-30" points="83.86 14.43 84.94 13.8 87.93 14.81 83.86 17.16 83.86 14.43"/><polygon class="cls-23" points="84.94 13.8 84.82 13.87 87.48 14.77 83.86 16.86 83.86 17.16 87.93 14.81 84.94 13.8"/><polygon class="cls-14" points="58.13 2.83 61.73 1.61 83.62 14.29 83.63 17.58 58.13 2.83"/><polygon class="cls-31" points="58.71 2.88 61.7 1.88 83.38 14.43 83.38 17.16 58.71 2.88"/><polygon class="cls-10" points="59.32 2.88 61.93 2.01 61.7 1.88 58.71 2.88 83.38 17.16 83.38 16.81 59.32 2.88"/><polygon class="cls-14" points="62.07 2.05 60.95 4.18 61.26 4.35 62.31 2.22 62.07 2.05"/><polygon class="cls-27" points="62.31 2.22 61.26 4.35 61.62 4.22 62.54 2.36 62.31 2.22"/><polygon class="cls-14" points="63.63 2.95 62.51 5.08 62.82 5.26 63.87 3.13 63.63 2.95"/><polygon class="cls-27" points="63.87 3.13 62.82 5.26 63.19 5.12 64.1 3.26 63.87 3.13"/><polygon class="cls-14" points="65.19 3.86 64.07 5.98 64.38 6.16 65.43 4.03 65.19 3.86"/><polygon class="cls-27" points="65.43 4.03 64.38 6.16 64.75 6.03 65.66 4.17 65.43 4.03"/><polygon class="cls-14" points="66.75 4.76 65.63 6.89 65.94 7.07 66.99 4.93 66.75 4.76"/><polygon class="cls-27" points="66.99 4.93 65.94 7.07 66.31 6.93 67.22 5.07 66.99 4.93"/><polygon class="cls-14" points="68.31 5.67 67.19 7.79 67.51 7.97 68.56 5.84 68.31 5.67"/><polygon class="cls-27" points="68.56 5.84 67.51 7.97 67.87 7.83 68.78 5.98 68.56 5.84"/><polygon class="cls-14" points="69.87 6.57 68.76 8.7 69.07 8.87 70.12 6.74 69.87 6.57"/><polygon class="cls-27" points="70.12 6.74 69.07 8.87 69.43 8.74 70.35 6.88 70.12 6.74"/><polygon class="cls-14" points="71.44 7.47 70.32 9.6 70.63 9.78 71.68 7.65 71.44 7.47"/><polygon class="cls-27" points="71.68 7.65 70.63 9.78 70.99 9.64 71.91 7.79 71.68 7.65"/><polygon class="cls-14" points="73 8.38 71.88 10.5 72.19 10.68 73.24 8.55 73 8.38"/><polygon class="cls-27" points="73.24 8.55 72.19 10.68 72.55 10.55 73.47 8.69 73.24 8.55"/><polygon class="cls-14" points="74.56 9.28 73.44 11.41 73.75 11.59 74.8 9.46 74.56 9.28"/><polygon class="cls-27" points="74.8 9.46 73.75 11.59 74.11 11.45 75.03 9.59 74.8 9.46"/><polygon class="cls-14" points="76.12 10.19 75 12.31 75.31 12.49 76.36 10.36 76.12 10.19"/><polygon class="cls-27" points="76.36 10.36 75.31 12.49 75.68 12.35 76.59 10.5 76.36 10.36"/><polygon class="cls-14" points="77.68 11.09 76.56 13.22 76.88 13.39 77.92 11.26 77.68 11.09"/><polygon class="cls-27" points="77.92 11.26 76.88 13.39 77.24 13.26 78.15 11.4 77.92 11.26"/><polygon class="cls-14" points="79.24 11.99 78.12 14.12 78.44 14.3 79.49 12.17 79.24 11.99"/><polygon class="cls-27" points="79.49 12.17 78.44 14.3 78.8 14.16 79.71 12.3 79.49 12.17"/><polygon class="cls-14" points="80.8 12.9 79.69 15.03 80 15.2 81.05 13.07 80.8 12.9"/><polygon class="cls-27" points="81.05 13.07 80 15.2 80.36 15.07 81.28 13.21 81.05 13.07"/><polygon class="cls-14" points="82.36 13.8 81.25 15.93 81.56 16.11 82.61 13.98 82.36 13.8"/><polygon class="cls-27" points="82.61 13.98 81.56 16.11 81.92 15.97 82.84 14.11 82.61 13.98"/><polygon class="cls-10" points="64.63 2.04 63.76 2.51 64.06 2.69 64.87 2.22 64.63 2.04"/><polygon class="cls-27" points="64.87 2.22 64.06 2.69 64.25 2.8 64.87 2.44 64.87 2.22"/><polygon class="cls-10" points="65.78 2.71 64.9 3.17 65.21 3.35 66.02 2.88 65.78 2.71"/><polygon class="cls-27" points="66.02 2.88 65.21 3.35 65.4 3.46 66.01 3.1 66.02 2.88"/><polygon class="cls-10" points="66.92 3.37 66.05 3.84 66.35 4.02 67.16 3.54 66.92 3.37"/><polygon class="cls-27" points="67.16 3.54 66.35 4.02 66.55 4.12 67.16 3.77 67.16 3.54"/><polygon class="cls-10" points="68.06 4.03 67.19 4.5 67.5 4.68 68.31 4.21 68.06 4.03"/><polygon class="cls-27" points="68.31 4.21 67.5 4.68 67.69 4.79 68.3 4.43 68.31 4.21"/><polygon class="cls-10" points="69.21 4.7 68.33 5.16 68.64 5.34 69.45 4.87 69.21 4.7"/><polygon class="cls-27" points="69.45 4.87 68.64 5.34 68.83 5.45 69.45 5.09 69.45 4.87"/><polygon class="cls-10" points="70.36 5.36 69.48 5.83 69.79 6.01 70.6 5.54 70.36 5.36"/><polygon class="cls-27" points="70.6 5.54 69.79 6.01 69.98 6.11 70.59 5.75 70.6 5.54"/><polygon class="cls-10" points="71.5 6.02 70.62 6.49 70.94 6.67 71.74 6.2 71.5 6.02"/><polygon class="cls-27" points="71.74 6.2 70.94 6.67 71.12 6.78 71.74 6.42 71.74 6.2"/><polygon class="cls-10" points="72.64 6.69 71.77 7.15 72.08 7.33 72.89 6.86 72.64 6.69"/><polygon class="cls-27" points="72.89 6.86 72.08 7.33 72.27 7.44 72.88 7.08 72.89 6.86"/><polygon class="cls-10" points="73.79 7.35 72.91 7.82 73.22 8 74.03 7.53 73.79 7.35"/><polygon class="cls-27" points="74.03 7.53 73.22 8 73.41 8.11 74.03 7.75 74.03 7.53"/><polygon class="cls-10" points="74.94 8.02 74.06 8.48 74.37 8.66 75.18 8.19 74.94 8.02"/><polygon class="cls-27" points="75.18 8.19 74.37 8.66 74.56 8.77 75.17 8.41 75.18 8.19"/><polygon class="cls-10" points="76.08 8.68 75.2 9.14 75.52 9.32 76.32 8.85 76.08 8.68"/><polygon class="cls-27" points="76.32 8.85 75.52 9.32 75.7 9.43 76.32 9.07 76.32 8.85"/><polygon class="cls-10" points="77.22 9.34 76.35 9.81 76.66 9.99 77.47 9.52 77.22 9.34"/><polygon class="cls-27" points="77.47 9.52 76.66 9.99 76.85 10.1 77.46 9.73 77.47 9.52"/><polygon class="cls-10" points="78.37 10.01 77.49 10.47 77.81 10.65 78.61 10.18 78.37 10.01"/><polygon class="cls-27" points="78.61 10.18 77.81 10.65 77.99 10.76 78.61 10.4 78.61 10.18"/><polygon class="cls-10" points="79.51 10.67 78.64 11.13 78.95 11.31 79.76 10.84 79.51 10.67"/><polygon class="cls-27" points="79.76 10.84 78.95 11.31 79.14 11.42 79.75 11.06 79.76 10.84"/><polygon class="cls-10" points="80.66 11.33 79.78 11.8 80.09 11.98 80.9 11.51 80.66 11.33"/><polygon class="cls-27" points="80.9 11.51 80.09 11.98 80.28 12.09 80.9 11.73 80.9 11.51"/><polygon class="cls-10" points="81.8 11.99 80.93 12.46 81.24 12.64 82.05 12.17 81.8 11.99"/><polygon class="cls-27" points="82.05 12.17 81.24 12.64 81.43 12.75 82.04 12.39 82.05 12.17"/><polygon class="cls-23" points="65.19 1.32 63.73 1.16 64.04 1.33 65.43 1.49 65.19 1.32"/><polygon class="cls-27" points="65.2 1.46 64.04 1.33 64.44 1.51 64.98 1.56 65.2 1.46"/><polygon class="cls-23" points="66.88 2.3 65.42 2.13 65.73 2.31 67.12 2.47 66.88 2.3"/><polygon class="cls-27" points="66.89 2.44 65.73 2.31 66.13 2.49 66.67 2.54 66.89 2.44"/><polygon class="cls-23" points="68.57 3.28 67.11 3.11 67.42 3.29 68.81 3.45 68.57 3.28"/><polygon class="cls-27" points="68.58 3.42 67.42 3.29 67.82 3.47 68.36 3.52 68.58 3.42"/><polygon class="cls-23" points="70.26 4.25 68.8 4.09 69.12 4.27 70.5 4.43 70.26 4.25"/><polygon class="cls-27" points="70.28 4.4 69.12 4.27 69.52 4.45 70.05 4.5 70.28 4.4"/><polygon class="cls-23" points="71.95 5.24 70.5 5.07 70.81 5.25 72.2 5.41 71.95 5.24"/><polygon class="cls-27" points="71.97 5.38 70.81 5.25 71.21 5.43 71.74 5.47 71.97 5.38"/><polygon class="cls-23" points="73.64 6.21 72.19 6.05 72.5 6.23 73.89 6.39 73.64 6.21"/><polygon class="cls-27" points="73.66 6.36 72.5 6.23 72.9 6.41 73.44 6.46 73.66 6.36"/><polygon class="cls-23" points="75.34 7.19 73.88 7.03 74.19 7.21 75.58 7.37 75.34 7.19"/><polygon class="cls-27" points="75.35 7.34 74.19 7.21 74.59 7.39 75.13 7.43 75.35 7.34"/><polygon class="cls-23" points="77.03 8.17 75.57 8.01 75.88 8.19 77.27 8.35 77.03 8.17"/><polygon class="cls-27" points="77.04 8.32 75.88 8.19 76.28 8.37 76.82 8.41 77.04 8.32"/><polygon class="cls-23" points="78.72 9.15 77.26 8.99 77.57 9.17 78.96 9.33 78.72 9.15"/><polygon class="cls-27" points="78.73 9.3 77.57 9.17 77.97 9.35 78.51 9.39 78.73 9.3"/><polygon class="cls-23" points="80.41 10.13 78.95 9.97 79.27 10.15 80.65 10.3 80.41 10.13"/><polygon class="cls-27" points="80.42 10.28 79.27 10.15 79.66 10.33 80.2 10.37 80.42 10.28"/><polygon class="cls-23" points="82.1 11.11 80.64 10.95 80.96 11.13 82.34 11.29 82.1 11.11"/><polygon class="cls-27" points="82.12 11.26 80.96 11.13 81.36 11.31 81.89 11.35 82.12 11.26"/><polygon class="cls-23" points="83.79 12.09 82.34 11.93 82.65 12.11 84.04 12.26 83.79 12.09"/><polygon class="cls-27" points="83.81 12.24 82.65 12.11 83.05 12.29 83.58 12.33 83.81 12.24"/><polygon class="cls-23" points="85.48 13.07 84.03 12.91 84.34 13.09 85.73 13.24 85.48 13.07"/><polygon class="cls-27" points="85.5 13.22 84.34 13.09 84.74 13.27 85.28 13.31 85.5 13.22"/><polygon class="cls-32" points="43.34 37.55 46.74 35.57 41.91 32.8 38.51 34.78 43.34 37.55"/><polygon class="cls-33" points="39.18 34.85 41.93 33.24 42.01 33.29 42.11 33.35 45.76 35.68 45.99 35.55 43.22 37.17 40.32 35.5 39.36 34.95 39.18 34.85"/><polygon class="cls-34" points="39.36 34.95 42.11 33.35 42.54 33.59 39.79 35.2 39.36 34.95"/><polygon class="cls-35" points="42.01 33.29 45.99 35.55 45.37 35.91 42 33.91 42.01 33.29"/><polygon class="cls-36" points="42 33.52 39.45 35.01 39.18 34.85 41.93 33.24 45.99 35.55 45.76 35.68 42 33.52"/><polygon class="cls-37" points="42 33.52 41.93 33.24 45.99 35.55 45.76 35.68 42 33.52"/><polygon class="cls-32" points="46.38 35.77 49.78 33.79 44.95 31.02 41.55 33 46.38 35.77"/><polygon class="cls-38" points="42.22 33.07 44.97 31.47 45.05 31.51 45.16 31.57 48.81 33.9 49.03 33.77 46.26 35.39 43.36 33.72 42.4 33.17 42.22 33.07"/><polygon class="cls-39" points="42.4 33.17 45.16 31.57 45.59 31.82 42.83 33.42 42.4 33.17"/><polygon class="cls-40" points="45.05 31.51 49.03 33.77 48.41 34.13 45.04 32.13 45.05 31.51"/><polygon class="cls-36" points="45.04 31.74 42.49 33.23 42.22 33.07 44.97 31.47 49.03 33.77 48.81 33.9 45.04 31.74"/><polygon class="cls-37" points="45.04 31.74 44.97 31.47 49.03 33.77 48.81 33.9 45.04 31.74"/><polygon class="cls-32" points="49.42 33.99 52.82 32.01 47.99 29.24 44.6 31.22 49.42 33.99"/><polygon class="cls-41" points="45.27 31.29 48.02 29.69 48.1 29.73 48.2 29.79 51.85 32.12 52.07 31.99 49.3 33.61 46.41 31.94 45.45 31.39 45.27 31.29"/><polygon class="cls-42" points="45.45 31.39 48.2 29.79 48.63 30.04 45.87 31.64 45.45 31.39"/><polygon class="cls-43" points="48.1 29.73 52.07 31.99 51.45 32.35 48.08 30.35 48.1 29.73"/><polygon class="cls-36" points="48.09 29.96 45.53 31.45 45.27 31.29 48.02 29.69 52.07 31.99 51.85 32.12 48.09 29.96"/><polygon class="cls-37" points="48.09 29.96 48.02 29.69 52.07 31.99 51.85 32.12 48.09 29.96"/><polygon class="cls-32" points="52.47 32.21 55.87 30.23 51.04 27.46 47.64 29.44 52.47 32.21"/><polygon class="cls-44" points="48.31 29.51 51.06 27.91 51.14 27.95 51.24 28.01 54.9 30.34 55.12 30.21 52.35 31.83 49.45 30.16 48.49 29.61 48.31 29.51"/><polygon class="cls-45" points="48.49 29.61 51.24 28.01 51.67 28.26 48.92 29.86 48.49 29.61"/><polygon class="cls-46" points="51.14 27.95 55.12 30.21 54.5 30.57 51.13 28.57 51.14 27.95"/><polygon class="cls-36" points="51.13 28.18 48.58 29.67 48.31 29.51 51.06 27.91 55.12 30.21 54.9 30.34 51.13 28.18"/><polygon class="cls-37" points="51.13 28.18 51.06 27.91 55.12 30.21 54.9 30.34 51.13 28.18"/><polygon class="cls-32" points="55.51 30.43 58.91 28.45 54.08 25.68 50.68 27.66 55.51 30.43"/><polygon class="cls-47" points="51.35 27.73 54.1 26.13 54.19 26.17 54.29 26.23 57.94 28.56 58.16 28.43 55.39 30.05 52.49 28.38 51.53 27.83 51.35 27.73"/><polygon class="cls-48" points="51.53 27.83 54.29 26.23 54.72 26.48 51.96 28.08 51.53 27.83"/><polygon class="cls-49" points="54.19 26.17 58.16 28.43 57.54 28.79 54.17 26.79 54.19 26.17"/><polygon class="cls-36" points="54.17 26.4 51.62 27.89 51.35 27.73 54.1 26.13 58.16 28.43 57.94 28.56 54.17 26.4"/><polygon class="cls-37" points="54.17 26.4 54.1 26.13 58.16 28.43 57.94 28.56 54.17 26.4"/><polygon class="cls-32" points="58.56 28.65 61.95 26.67 57.12 23.9 53.73 25.88 58.56 28.65"/><polygon class="cls-50" points="54.4 25.95 57.15 24.35 57.23 24.39 57.33 24.45 60.98 26.78 61.2 26.65 58.43 28.27 55.54 26.6 54.58 26.05 54.4 25.95"/><polygon class="cls-51" points="54.58 26.05 57.33 24.45 57.76 24.7 55.01 26.3 54.58 26.05"/><polygon class="cls-52" points="57.23 24.39 61.2 26.65 60.58 27.01 57.21 25.01 57.23 24.39"/><polygon class="cls-36" points="57.22 24.62 54.66 26.11 54.4 25.95 57.15 24.35 61.2 26.65 60.98 26.78 57.22 24.62"/><polygon class="cls-37" points="57.22 24.62 57.15 24.35 61.2 26.65 60.98 26.78 57.22 24.62"/><polygon class="cls-32" points="61.6 26.87 65 24.89 60.17 22.12 56.77 24.1 61.6 26.87"/><polygon class="cls-53" points="57.44 24.17 60.19 22.57 60.27 22.61 60.37 22.67 64.03 25 64.25 24.87 61.48 26.49 58.58 24.82 57.62 24.27 57.44 24.17"/><polygon class="cls-54" points="57.62 24.27 60.37 22.67 60.8 22.92 58.05 24.52 57.62 24.27"/><polygon class="cls-55" points="60.27 22.61 64.25 24.87 63.63 25.23 60.26 23.23 60.27 22.61"/><polygon class="cls-36" points="60.26 22.84 57.71 24.33 57.44 24.17 60.19 22.57 64.25 24.87 64.03 25 60.26 22.84"/><polygon class="cls-37" points="60.26 22.84 60.19 22.57 64.25 24.87 64.03 25 60.26 22.84"/><polygon class="cls-32" points="29.84 30.57 33.24 28.59 28.41 25.82 25.01 27.8 29.84 30.57"/><polygon class="cls-56" points="25.68 27.87 28.43 26.27 28.52 26.31 28.62 26.37 32.27 28.7 32.49 28.57 29.72 30.19 26.82 28.52 25.86 27.97 25.68 27.87"/><polygon class="cls-57" points="25.86 27.97 28.62 26.37 29.05 26.61 26.29 28.22 25.86 27.97"/><polygon class="cls-58" points="28.52 26.31 32.49 28.57 31.87 28.93 28.5 26.93 28.52 26.31"/><polygon class="cls-36" points="28.5 26.54 25.95 28.03 25.68 27.87 28.43 26.27 32.49 28.57 32.27 28.7 28.5 26.54"/><polygon class="cls-37" points="28.5 26.54 28.43 26.27 32.49 28.57 32.27 28.7 28.5 26.54"/><polygon class="cls-32" points="32.89 28.79 36.28 26.81 31.45 24.04 28.06 26.02 32.89 28.79"/><polygon class="cls-59" points="28.73 26.09 31.48 24.48 31.56 24.53 31.66 24.59 35.31 26.92 35.53 26.79 32.76 28.41 29.87 26.74 28.91 26.19 28.73 26.09"/><polygon class="cls-60" points="28.91 26.19 31.66 24.59 32.09 24.84 29.34 26.44 28.91 26.19"/><polygon class="cls-61" points="31.56 24.53 35.53 26.79 34.91 27.15 31.54 25.15 31.56 24.53"/><polygon class="cls-36" points="31.55 24.76 29 26.25 28.73 26.09 31.48 24.48 35.53 26.79 35.31 26.92 31.55 24.76"/><polygon class="cls-37" points="31.55 24.76 31.48 24.48 35.53 26.79 35.31 26.92 31.55 24.76"/><polygon class="cls-32" points="35.93 27.01 39.33 25.03 34.5 22.26 31.1 24.24 35.93 27.01"/><polygon class="cls-62" points="31.77 24.31 34.52 22.7 34.6 22.75 34.7 22.81 38.36 25.14 38.58 25.01 35.81 26.63 32.91 24.96 31.95 24.41 31.77 24.31"/><polygon class="cls-63" points="31.95 24.41 34.7 22.81 35.13 23.05 32.38 24.66 31.95 24.41"/><polygon class="cls-64" points="34.6 22.75 38.58 25.01 37.96 25.37 34.59 23.37 34.6 22.75"/><polygon class="cls-36" points="34.59 22.98 32.04 24.47 31.77 24.31 34.52 22.7 38.58 25.01 38.36 25.14 34.59 22.98"/><polygon class="cls-37" points="34.59 22.98 34.52 22.7 38.58 25.01 38.36 25.14 34.59 22.98"/><polygon class="cls-32" points="38.97 25.23 42.37 23.25 37.54 20.48 34.14 22.46 38.97 25.23"/><polygon class="cls-65" points="34.81 22.53 37.56 20.93 37.65 20.97 37.75 21.03 41.4 23.36 41.62 23.23 38.85 24.85 35.95 23.18 34.99 22.63 34.81 22.53"/><polygon class="cls-66" points="34.99 22.63 37.75 21.03 38.18 21.27 35.42 22.88 34.99 22.63"/><polygon class="cls-67" points="37.65 20.97 41.62 23.23 41 23.59 37.63 21.59 37.65 20.97"/><polygon class="cls-36" points="37.63 21.2 35.08 22.69 34.81 22.53 37.56 20.93 41.62 23.23 41.4 23.36 37.63 21.2"/><polygon class="cls-37" points="37.63 21.2 37.56 20.93 41.62 23.23 41.4 23.36 37.63 21.2"/><polygon class="cls-32" points="42.02 23.45 45.41 21.47 40.59 18.7 37.19 20.68 42.02 23.45"/><polygon class="cls-68" points="37.86 20.75 40.61 19.15 40.69 19.19 40.79 19.25 44.44 21.58 44.67 21.45 41.89 23.07 39 21.4 38.04 20.85 37.86 20.75"/><polygon class="cls-69" points="38.04 20.85 40.79 19.25 41.22 19.5 38.47 21.1 38.04 20.85"/><polygon class="cls-70" points="40.69 19.19 44.67 21.45 44.04 21.81 40.67 19.81 40.69 19.19"/><polygon class="cls-36" points="40.68 19.42 38.13 20.91 37.86 20.75 40.61 19.15 44.66 21.45 44.44 21.58 40.68 19.42"/><polygon class="cls-37" points="40.68 19.42 40.61 19.15 44.66 21.45 44.44 21.58 40.68 19.42"/><polygon class="cls-32" points="45.06 21.67 48.46 19.69 43.63 16.92 40.23 18.9 45.06 21.67"/><polygon class="cls-71" points="40.9 18.97 43.65 17.37 43.73 17.41 43.83 17.47 47.49 19.8 47.71 19.67 44.94 21.29 42.04 19.62 41.08 19.07 40.9 18.97"/><polygon class="cls-72" points="41.08 19.07 43.83 17.47 44.26 17.72 41.51 19.32 41.08 19.07"/><polygon class="cls-73" points="43.73 17.41 47.71 19.67 47.09 20.03 43.72 18.03 43.73 17.41"/><polygon class="cls-36" points="43.72 17.64 41.17 19.13 40.9 18.97 43.65 17.37 47.71 19.67 47.49 19.8 43.72 17.64"/><polygon class="cls-37" points="43.72 17.64 43.65 17.37 47.71 19.67 47.49 19.8 43.72 17.64"/><polygon class="cls-32" points="48.1 19.89 51.5 17.91 46.67 15.14 43.27 17.12 48.1 19.89"/><polygon class="cls-74" points="43.94 17.19 46.7 15.59 46.78 15.63 46.88 15.69 50.53 18.02 50.75 17.89 47.98 19.51 45.09 17.84 44.12 17.29 43.94 17.19"/><polygon class="cls-75" points="44.12 17.29 46.88 15.69 47.31 15.94 44.55 17.54 44.12 17.29"/><polygon class="cls-76" points="46.78 15.63 50.75 17.89 50.13 18.25 46.76 16.25 46.78 15.63"/><polygon class="cls-36" points="46.77 15.86 44.21 17.35 43.94 17.19 46.69 15.59 50.75 17.89 50.53 18.02 46.77 15.86"/><polygon class="cls-37" points="46.77 15.86 46.69 15.59 50.75 17.89 50.53 18.02 46.77 15.86"/><polygon class="cls-10" points="56.11 70.36 56.11 81.43 56.31 81.32 56.31 70.24 56.11 70.36"/><polygon class="cls-14" points="55.92 70.48 55.92 81.11 56.11 81.2 56.11 70.36 55.92 70.48"/><polygon class="cls-10" points="53.36 72.09 53.36 83.03 53.55 82.92 53.55 71.97 53.36 72.09"/><polygon class="cls-13" points="53.16 72.22 53.16 82.71 47.45 86.02 47.45 86.23 53.36 82.81 53.36 72.09 53.16 72.22"/><polygon class="cls-14" points="53.16 72.22 53.16 82.71 53.36 82.81 53.36 72.09 53.16 72.22"/><polygon class="cls-10" points="50.31 74.01 50.31 84.8 50.5 84.69 50.5 73.89 50.31 74.01"/><polygon class="cls-14" points="50.11 74.14 50.11 84.47 50.31 84.57 50.31 74.01 50.11 74.14"/><polygon class="cls-10" points="47.26 75.93 47.26 86.56 47.45 86.45 47.45 75.81 47.26 75.93"/><polygon class="cls-14" points="47.06 76.06 47.06 86.24 47.26 86.34 47.26 75.93 47.06 76.06"/><polygon class="cls-13" points="47.06 76.06 47.06 86.24 44.4 87.79 44.4 88.01 47.26 86.34 47.26 75.93 47.06 76.06"/><polygon class="cls-10" points="44.2 77.86 44.2 88.33 44.4 88.22 44.4 77.73 44.2 77.86"/><polygon class="cls-77" points="59.16 68.46 44.2 77.88 44.2 79.95 59.16 70.54 59.16 68.46"/><polygon class="cls-77" points="77.68 57.99 65.27 65.17 65.27 66.69 77.68 58.88 77.68 57.99"/><polygon class="cls-77" points="92.55 49.45 80.13 56.63 80.13 57.34 92.55 49.52 92.55 49.45"/></g></g></g></g></svg>