<?xml version="1.0" encoding="utf-8"?>
<!-- Generator: Adobe Illustrator 24.1.2, SVG Export Plug-In . SVG Version: 6.00 Build 0)  -->
<svg version="1.1" id="Слой_1" xmlns="http://www.w3.org/2000/svg" xmlns:xlink="http://www.w3.org/1999/xlink" x="0px" y="0px"
	 viewBox="0 0 194.7 147.4" style="enable-background:new 0 0 194.7 147.4;" xml:space="preserve">
<style type="text/css">
	.st0{fill-rule:evenodd;clip-rule:evenodd;fill:#B9A8A2;}
	.st1{fill-rule:evenodd;clip-rule:evenodd;fill:#044682;}
	.st2{fill-rule:evenodd;clip-rule:evenodd;fill:url(#SVGID_1_);}
	.st3{fill-rule:evenodd;clip-rule:evenodd;fill:#E4DFDF;}
	.st4{fill-rule:evenodd;clip-rule:evenodd;fill:#988E93;}
	.st5{fill:url(#SVGID_2_);}
	.st6{fill-rule:evenodd;clip-rule:evenodd;fill:#9D7B9D;}
	.st7{fill-rule:evenodd;clip-rule:evenodd;fill:#239DF9;}
	.st8{fill-rule:evenodd;clip-rule:evenodd;fill:#63556F;}
	.st9{fill-rule:evenodd;clip-rule:evenodd;fill:#0662B5;}
	.st10{fill-rule:evenodd;clip-rule:evenodd;fill:#3B1F46;}
	.st11{fill-rule:evenodd;clip-rule:evenodd;fill:#2B6231;}
	.st12{fill-rule:evenodd;clip-rule:evenodd;fill:#7FB2F4;}
	.st13{fill-rule:evenodd;clip-rule:evenodd;fill:#2FA3ED;}
	.st14{fill-rule:evenodd;clip-rule:evenodd;fill:#22A5CC;}
	.st15{fill-rule:evenodd;clip-rule:evenodd;fill:#61C267;}
	.st16{fill-rule:evenodd;clip-rule:evenodd;fill:#988C5D;}
	.st17{fill:#5664A3;}
	.st18{fill-rule:evenodd;clip-rule:evenodd;fill:#CA8764;}
	.st19{fill-rule:evenodd;clip-rule:evenodd;fill:#5664A3;}
	.st20{fill-rule:evenodd;clip-rule:evenodd;fill:#A36A5D;}
	.st21{fill-rule:evenodd;clip-rule:evenodd;fill:#F1ECE5;}
	.st22{fill-rule:evenodd;clip-rule:evenodd;fill:#C0B1AA;}
	.st23{fill:#B4A19B;}
	.st24{fill-rule:evenodd;clip-rule:evenodd;fill:#B4A19B;}
	.st25{fill-rule:evenodd;clip-rule:evenodd;fill:#DCCEC0;}
	.st26{fill-rule:evenodd;clip-rule:evenodd;fill:#73CE84;}
	.st27{fill-rule:evenodd;clip-rule:evenodd;fill:#FFFFFF;}
	.st28{fill-rule:evenodd;clip-rule:evenodd;fill:#A9A0A2;}
	.st29{fill-rule:evenodd;clip-rule:evenodd;fill:#F2F4EE;}
	.st30{fill-rule:evenodd;clip-rule:evenodd;fill:#EF5654;}
	.st31{fill-rule:evenodd;clip-rule:evenodd;fill:#BE051C;}
	.st32{fill-rule:evenodd;clip-rule:evenodd;fill:#A13B39;}
	.st33{fill-rule:evenodd;clip-rule:evenodd;fill:#BA786A;}
	.st34{fill-rule:evenodd;clip-rule:evenodd;fill:url(#SVGID_3_);}
	.st35{fill-rule:evenodd;clip-rule:evenodd;fill:#923432;}
	.st36{fill-rule:evenodd;clip-rule:evenodd;fill:#E5F1ED;}
	.st37{fill-rule:evenodd;clip-rule:evenodd;fill:#A3969A;}
	.st38{fill-rule:evenodd;clip-rule:evenodd;fill:#8F9FB4;}
	.st39{fill-rule:evenodd;clip-rule:evenodd;fill:#A20E03;}
	.st40{fill-rule:evenodd;clip-rule:evenodd;fill:#E61739;}
	.st41{fill-rule:evenodd;clip-rule:evenodd;fill:#8F000B;}
	.st42{fill:#8F9FB4;}
	.st43{fill-rule:evenodd;clip-rule:evenodd;fill:url(#SVGID_4_);}
	.st44{fill-rule:evenodd;clip-rule:evenodd;fill:url(#SVGID_5_);}
	.st45{fill-rule:evenodd;clip-rule:evenodd;fill:url(#SVGID_6_);}
	.st46{fill-rule:evenodd;clip-rule:evenodd;fill:url(#SVGID_7_);}
	.st47{fill-rule:evenodd;clip-rule:evenodd;fill:url(#SVGID_8_);}
	.st48{fill-rule:evenodd;clip-rule:evenodd;fill:url(#SVGID_9_);}
	.st49{fill-rule:evenodd;clip-rule:evenodd;fill:url(#SVGID_10_);}
	.st50{fill-rule:evenodd;clip-rule:evenodd;fill:url(#SVGID_11_);}
	.st51{fill-rule:evenodd;clip-rule:evenodd;fill:url(#SVGID_12_);}
	.st52{fill-rule:evenodd;clip-rule:evenodd;fill:url(#SVGID_13_);}
	.st53{fill-rule:evenodd;clip-rule:evenodd;fill:url(#SVGID_14_);}
	.st54{fill-rule:evenodd;clip-rule:evenodd;fill:url(#SVGID_15_);}
	.st55{fill-rule:evenodd;clip-rule:evenodd;fill:url(#SVGID_16_);}
	.st56{fill-rule:evenodd;clip-rule:evenodd;fill:url(#SVGID_17_);}
	.st57{fill-rule:evenodd;clip-rule:evenodd;fill:url(#SVGID_18_);}
	.st58{fill-rule:evenodd;clip-rule:evenodd;fill:url(#SVGID_19_);}
	.st59{fill-rule:evenodd;clip-rule:evenodd;fill:url(#SVGID_20_);}
	.st60{fill-rule:evenodd;clip-rule:evenodd;fill:url(#SVGID_21_);}
	.st61{fill-rule:evenodd;clip-rule:evenodd;fill:url(#SVGID_22_);}
	.st62{fill-rule:evenodd;clip-rule:evenodd;fill:url(#SVGID_23_);}
	.st63{fill-rule:evenodd;clip-rule:evenodd;fill:url(#SVGID_24_);}
	.st64{fill-rule:evenodd;clip-rule:evenodd;fill:url(#SVGID_25_);}
	.st65{fill-rule:evenodd;clip-rule:evenodd;fill:url(#SVGID_26_);}
	.st66{fill-rule:evenodd;clip-rule:evenodd;fill:#ADA3A6;}
	.st67{fill-rule:evenodd;clip-rule:evenodd;fill:#F4EEEE;}
	.st68{fill-rule:evenodd;clip-rule:evenodd;fill:url(#SVGID_27_);}
	.st69{fill-rule:evenodd;clip-rule:evenodd;fill:#0B73D1;}
	.st70{fill-rule:evenodd;clip-rule:evenodd;fill:url(#SVGID_28_);}
	.st71{fill-rule:evenodd;clip-rule:evenodd;fill:url(#SVGID_29_);}
	.st72{fill-rule:evenodd;clip-rule:evenodd;fill:url(#SVGID_30_);}
	.st73{fill-rule:evenodd;clip-rule:evenodd;fill:#BFB2B5;}
	.st74{fill-rule:evenodd;clip-rule:evenodd;fill:url(#SVGID_31_);}
	.st75{fill-rule:evenodd;clip-rule:evenodd;fill:url(#SVGID_32_);}
	.st76{fill-rule:evenodd;clip-rule:evenodd;fill:url(#SVGID_33_);}
	.st77{fill:url(#SVGID_34_);}
	.st78{fill:#A9A0A2;}
	.st79{fill:#FFFFFF;}
	.st80{fill-rule:evenodd;clip-rule:evenodd;fill:url(#SVGID_35_);}
	.st81{fill-rule:evenodd;clip-rule:evenodd;fill:url(#SVGID_36_);}
	.st82{fill-rule:evenodd;clip-rule:evenodd;fill:#B4A098;}
	.st83{fill-rule:evenodd;clip-rule:evenodd;fill:url(#SVGID_37_);}
	.st84{fill-rule:evenodd;clip-rule:evenodd;fill:url(#SVGID_38_);}
	.st85{fill-rule:evenodd;clip-rule:evenodd;fill:url(#SVGID_39_);}
	.st86{fill-rule:evenodd;clip-rule:evenodd;fill:url(#SVGID_40_);}
	.st87{fill-rule:evenodd;clip-rule:evenodd;fill:#034EA2;}
	.st88{fill-rule:evenodd;clip-rule:evenodd;fill:url(#SVGID_41_);}
	.st89{fill-rule:evenodd;clip-rule:evenodd;fill:url(#SVGID_42_);}
	.st90{fill-rule:evenodd;clip-rule:evenodd;fill:url(#SVGID_43_);}
	.st91{fill-rule:evenodd;clip-rule:evenodd;fill:url(#SVGID_44_);}
	.st92{fill-rule:evenodd;clip-rule:evenodd;fill:url(#SVGID_45_);}
	.st93{fill-rule:evenodd;clip-rule:evenodd;fill:url(#SVGID_46_);}
	.st94{fill-rule:evenodd;clip-rule:evenodd;fill:url(#SVGID_47_);}
	.st95{fill-rule:evenodd;clip-rule:evenodd;fill:url(#SVGID_48_);}
	.st96{fill-rule:evenodd;clip-rule:evenodd;fill:url(#SVGID_49_);}
</style>
<polygon class="st0" points="155,101.7 156.3,100.9 168,107.7 112.3,139.8 109.6,139.8 98,133.1 153.6,100.9 "/>
<polygon class="st1" points="161.4,68.3 178.1,77.9 178.1,105.7 161.4,96.1 "/>
<linearGradient id="SVGID_1_" gradientUnits="userSpaceOnUse" x1="-1662.7168" y1="30.0881" x2="-1661.7867" y2="32.4881" gradientTransform="matrix(-1 0 0 -1 -1514.63 150)">
	<stop  offset="0" style="stop-color:#63556F"/>
	<stop  offset="1" style="stop-color:#534861"/>
</linearGradient>
<polygon class="st2" points="169.8,73.1 113.5,105.6 113.5,133.4 169.8,100.9 "/>
<polygon class="st1" points="169.8,73.1 113.5,105.6 113.5,120.4 161.4,92.8 161.4,105.7 169.8,100.9 169.8,88 "/>
<polygon class="st3" points="95.7,113.8 85.5,119.6 85.5,147.4 95.7,141.6 "/>
<polygon class="st4" points="95.7,113.8 105.8,119.6 105.8,147.4 95.7,141.6 "/>
<linearGradient id="SVGID_2_" gradientUnits="userSpaceOnUse" x1="-1611.8826" y1="46.6599" x2="-1608.5026" y2="-17.8701" gradientTransform="matrix(-1 0 0 -1 -1514.63 150)">
	<stop  offset="0" style="stop-color:#ADA3A6"/>
	<stop  offset="1" style="stop-color:#A19599"/>
</linearGradient>
<rect x="85.5" y="119.7" class="st5" width="20.3" height="27.8"/>
<polygon class="st6" points="122.4,110.1 105.8,119.6 105.8,147.4 122.4,137.9 "/>
<polygon class="st7" points="194.7,68.3 178.1,77.9 161.4,68.3 178.1,58.7 179.6,59.6 179.6,53.5 194.7,53.5 "/>
<polygon class="st8" points="176.3,76.9 161.4,68.3 178.1,58.7 179.6,59.6 179.6,53.5 185.8,53.5 191.2,56.6 193.9,62.5 191.2,68.3 
	"/>
<polygon class="st7" points="85.5,119.6 68.9,110.1 85.5,100.5 95.7,106.3 105.8,100.5 122.4,110.1 105.8,119.6 "/>
<path class="st9" d="M46.5,77.9l-16.6,9.6l-16.6-9.6v-9.7h9v4.5l7.6-4.4L46.5,77.9L46.5,77.9z M85.2,122.2l17.1-2.5l0,0l18.3-10.6
	l-14.9-8.6l-10.2,5.9L46.5,77.9l-16.6,9.6L85.2,122.2z"/>
<polygon class="st10" points="181.1,57.7 181.1,55.8 127.5,24.9 95.5,24.9 26.8,64.5 26.8,66.1 26.8,66.1 80.2,96.9 113.2,96.9 "/>
<polygon class="st11" points="153.7,73.5 153.7,70.5 116.4,49 106.1,49 54.2,78.9 54.2,81.9 80.2,96.9 113.2,96.9 "/>
<polygon class="st12" points="176,60.7 176,58.7 125.4,29.5 97.6,29.5 32,67.4 32,69.1 34.5,70.6 34.5,68 98.7,31 124.3,31 
	173.4,59.3 173.4,62.2 "/>
<polygon class="st13" points="173.4,62.2 173.4,60.1 124.3,31.8 98.7,31.8 34.5,68.8 34.5,70.6 37.1,72.1 37.1,69.4 99.8,33.3 
	123.2,33.3 170.8,60.7 170.8,63.7 "/>
<polygon class="st13" points="170.8,63.7 170.8,61.6 123.2,34.1 99.8,34.1 37.1,70.3 37.1,72.1 39.7,73.6 39.7,70.9 100.8,35.6 
	122.2,35.6 168.2,62.2 168.2,65.1 "/>
<polygon class="st13" points="168.2,65.1 168.2,63 122.2,36.4 100.8,36.4 39.7,71.7 39.7,73.6 42.3,75 42.3,72.3 101.9,37.9 
	121.1,37.9 165.7,63.6 165.7,66.6 "/>
<polygon class="st13" points="165.7,66.6 165.7,64.5 121.1,38.7 101.9,38.7 42.3,73.2 42.3,75 44.8,76.5 44.8,73.8 103,40.2 
	120,40.2 163.1,65.1 163.1,68.1 "/>
<polygon class="st13" points="163.1,68.1 163.1,65.9 120,41 103,41 44.8,74.6 44.8,76.5 47.4,78 47.4,75.2 104,42.5 119,42.5 
	160.5,66.5 160.5,69.6 "/>
<polygon class="st13" points="160.5,69.6 160.5,67.3 119,43.4 104,43.4 47.4,76.1 47.4,78 50,79.5 50,76.7 105.1,44.8 117.9,44.8 
	157.9,68 157.9,71.1 "/>
<path class="st14" d="M165.7,66.6v-2.2l-44.6-25.7h-19.2l-2.6,1.5H120l43.1,24.8v3L165.7,66.6L165.7,66.6z M158,71.1l-2.6,1.5v-3.2
	l-38.6-22.3h-7.3l-2.6-1.5h11l40,23.1L158,71.1L158,71.1z M160.6,69.6l-2.6,1.5V68l-40-23.1h-10.2l-2.6-1.5H119l41.6,24L160.6,69.6
	L160.6,69.6z M163.1,68.1l-2.6,1.5v-3.1l-41.6-24h-13l-2.6-1.5H120l43.1,24.9L163.1,68.1L163.1,68.1z M168.3,65.1l-2.6,1.5v-3
	l-44.6-25.7h-19.2l-2.6,1.5h-3.6l5.2-3h21.3L168.2,63L168.3,65.1L168.3,65.1z M181,57.8l-2.4,1.4v-2.8l-52.1-30.1H96.6L29.4,65.1
	v2.5l2.6,1.5v-1.7l65.6-37.9h27.7L176,58.7v2l-2.6,1.5v-2.9L124.3,31H98.7L34.5,68v1.2l-1.2,0.7L32,69.1v-2.5l65.6-37.9h27.7
	L176,57.9v2.8l2.6-1.5v-1.9l-52.1-30.1H96.6L29.4,65.9v1.7l-2.6-1.5l0,0v-1.6l68.7-39.7h32l53.4,30.9L181,57.8L181,57.8z
	 M173.4,62.1l-2.6,1.5v-2.9l-47.6-27.5H99.8L92,37.7h-2.3L34.5,69.6v-0.7l64.1-37h25.6l49.1,28.3L173.4,62.1L173.4,62.1z
	 M170.9,63.6l-2.6,1.5v-2.9l-46.1-26.6h-21.4l-5.2,3H92l7.7-4.5h23.5l47.6,27.5L170.9,63.6z"/>
<polygon class="st15" points="52.6,81 52.6,78.9 106.2,48 116.8,48 155.4,70.2 155.4,72.6 113.2,96.9 80.2,96.9 "/>
<polygon class="st16" points="111.7,96.9 144,78.2 144,68.4 108.7,48 116.8,48 155.4,70.2 155.4,72.6 113.2,96.9 "/>
<rect x="105.1" y="44.8" class="st17" width="12.8" height="0.8"/>
<polygon class="st18" points="50,76.7 105.1,44.8 105.1,45.7 50,77.5 "/>
<path class="st19" d="M119,42.5h-15v0.8h15V42.5z"/>
<path class="st18" d="M47.4,75.2L104,42.5v0.8L47.4,76.1V75.2z"/>
<path class="st19" d="M120,40.2h-17V41h17V40.2z"/>
<path class="st18" d="M44.8,73.8L103,40.2V41L44.8,74.6V73.8z"/>
<path class="st18" d="M42.3,72.3l59.6-34.4v0.8L42.3,73.2V72.3z"/>
<path class="st18" d="M39.7,70.9l61.1-35.3v0.8L39.7,71.7V70.9z"/>
<path class="st18" d="M37.1,69.4l62.6-36.2v0.8L37.1,70.3V69.4z"/>
<path class="st20" d="M34.5,68l64.1-37v0.8c-21.4,12.3-42.8,24.7-64.2,37L34.5,68z"/>
<path class="st20" d="M32,66.6l65.6-37.9v0.8L32,67.4V66.6z"/>
<path class="st19" d="M126.4,26.3H96.6L29.4,65.1v0.8l67.2-38.8h29.9l52.5,30.3v-0.8L126.4,26.3z M116.8,47.2V48h-8.2l0.8-0.8
	L116.8,47.2L116.8,47.2z M117.9,44.8v0.8h-11.1l0.8-0.8H117.9z M119,42.5v0.8h-13.8l0.8-0.8H119z M120,40.2V41h-16.6l-0.5-0.8
	L120,40.2z M121.1,37.9v0.8h-19.2v-0.8H121.1z M122.1,35.6v0.8h-21.3v-0.8H122.1z M123.2,33.3v0.8H99.8v-0.8H123.2z M124.3,31v0.8
	H98.7V31H124.3z M125.4,28.7v0.8H97.6v-0.8H125.4z"/>
<path class="st20" d="M155.4,69.4l-38.5-22.3V48l38.5,22.2V69.4L155.4,69.4z M158,68v0.8l-40-23.1v-0.8L158,68z M160.6,66.6v0.8
	L119,43.4v-0.8L160.6,66.6L160.6,66.6z M163.2,65.2V66L120,41v-0.8L163.2,65.2L163.2,65.2z M165.8,63.8v0.8l-44.7-25.9v-0.8
	L165.8,63.8L165.8,63.8z M168.5,62.3v0.8l-46.3-26.7v-0.8L168.5,62.3z M171,60.9v0.8l-47.8-27.6v-0.8L171,60.9z M173.6,59.5v0.8
	l-49.3-28.5V31L173.6,59.5L173.6,59.5z M176.3,58v0.8l-50.9-29.4v-0.8L176.3,58z"/>
<polygon class="st21" points="157.9,71.1 157.9,68.8 117.9,45.7 105.1,45.7 50,77.5 50,79.5 52.6,81 52.6,78.1 106.2,48 116.8,48 
	155.4,69.4 155.4,72.6 "/>
<polygon class="st22" points="157.9,71.1 157.9,68.8 117.9,45.7 106.9,45.7 109.5,47.2 116.8,47.2 155.4,69.4 155.4,72.6 "/>
<rect x="106.2" y="47.2" class="st23" width="10.7" height="0.8"/>
<polygon class="st24" points="116.8,47.2 116.8,47.2 109.5,47.2 108.7,48 116.8,48 116.8,48 "/>
<polygon class="st25" points="52.6,78.1 106.2,47.2 106.2,48 52.6,78.9 "/>
<polygon class="st24" points="155.4,69.4 116.8,47.2 116.8,48 155.4,70.2 "/>
<path class="st15" d="M97.5,96.9L66,78.7L62,81l27.5,15.9L97.5,96.9z M106.7,96.9h-1.2L70,76.4l4-2.3L110.1,95L106.7,96.9
	L106.7,96.9z M114.1,92.7L78,71.8l4-2.3l36,20.8L114.1,92.7L114.1,92.7z M126,85.8l-4,2.3L85.9,67.3l4-2.3L126,85.8z M134,81.2
	l-4,2.3L93.9,62.7l4-2.3L134,81.2L134,81.2z M142,76.6l-36.2-20.8l-4,2.3l36.1,20.8l4-2.3H142z M149.9,72l-36.1-20.8l-4,2.3
	l36.1,20.8L149.9,72z"/>
<path class="st16" d="M134.2,63.1C134.3,63.1,134.3,63,134.2,63.1c0.1-0.1,0-0.2,0-0.2l0,0h-2l1.4-0.7h2c0,0,0.1,0,0.1-0.1
	c0,0,0-0.1-0.1-0.1c0,0,0,0,0,0h-2l-4.5-2.6h1.7c0,0,0.1,0,0.1-0.1c0,0,0-0.1-0.1-0.1h-2.1l-1.8,0.8l0,0l0,0c0,0,0,0,0,0.1l0,0l0,0
	l0,0l4.8,2.8h2.4L134.2,63.1z M131.9,62.9l-4.5-2.6h2c0,0,0.1,0,0.1-0.1v0c0,0,0-0.1-0.1-0.1c0,0,0,0,0,0h-2l1.4-0.7l4.6,2.7
	L131.9,62.9z"/>
<path class="st26" d="M145.9,74.3l-4,2.3l-36.1-20.8l4-2.3L145.9,74.3L145.9,74.3z M137.9,78.9l-36.1-20.8l-4,2.3l36.2,20.8
	L137.9,78.9L137.9,78.9z M130,83.5L93.9,62.7l-4,2.3L126,85.8L130,83.5z M118,90.4l4-2.3L85.9,67.3l-4,2.3L118,90.4z M110,95l4-2.3
	L78,71.8l-4,2.3L110,95L110,95z M105.4,97h-8L66,78.7l4-2.3L105.4,97L105.4,97z M89.5,97h-8L58.1,83.3l4-2.3L89.5,97z"/>
<path class="st27" d="M149.9,72.1l-0.5,0.3h-0.1l-42.5,24.6h-0.3l15.3-8.8l-13.1-7.5c-3.1,1.5-6.7,1.5-9.8,0c-1.1-0.5-1.9-1.6-2-2.8
	c0.1-1.2,0.9-2.3,2-2.8l-13-7.5L58.7,83c0.1,0.1,0.2,0.2,0.2,0.3l0,0c0,0.1-0.1,0.2-0.2,0.3l6.6,3.8l8.7-5h0.1h0.1l6.8,3.9
	c1-0.1,2.1,0,3.1,0.2c1,0.2,1.9,0.5,2.7,1c0.7,0.4,1.3,0.9,1.7,1.6c0.3,0.5,0.4,1.2,0.3,1.8l6.8,3.9h0.1h-0.1l-3.5,2H92l3.5-2
	L74.2,82.6l-8.6,5l5.7,3.3l2.9-1.7h0.1h0.1l9.8,5.6h0.1h-0.1l-2.9,1.7l0.6,0.4h-0.3L71.2,91h-0.1l-5.8-3.3h-0.1l-6.6-4h-0.1L58,83.4
	h-0.1H58l0.5-0.3h0.1l54.5-31.5h0.1l0.5-0.3h0.1h0.1l0.5,0.3h0.1l6.6,3.8h0.1l5.8,3.3h0.1l15.6,9h0.1l6.6,3.8h0.1l0.5,0.3h0.1h-0.1
	V72.1z M122,88l27.2-15.7c-0.1-0.1-0.2-0.2-0.2-0.3l0,0c0-0.1,0.1-0.2,0.2-0.3l-6.6-3.8l-8.7,5h-0.1h-0.1l-6.8-3.9
	c-1.1,0.1-2.1,0-3.2-0.2c-1-0.2-1.9-0.5-2.7-1c-0.7-0.4-1.3-0.9-1.7-1.6c-0.3-0.5-0.4-1.2-0.3-1.8l-6.8-3.9h-0.1h0.1l8.7-5l-6.6-3.8
	c-0.2,0.1-0.3,0.1-0.5,0.1l0,0c-0.2,0-0.4,0-0.5-0.1L86.1,67.3l13,7.5c3.1-1.5,6.7-1.5,9.8,0c1.1,0.5,1.9,1.6,2,2.8
	c-0.1,1.2-0.9,2.3-2,2.8L122,88z M149.3,72.2l0.4-0.2l-0.4-0.2c-0.1,0.1-0.1,0.1-0.1,0.2l0,0C149.2,72.1,149.2,72.2,149.3,72.2z
	 M58.2,83.3l0.4,0.2c0.1,0,0.1-0.1,0.1-0.2l0,0c0-0.1-0.1-0.2-0.1-0.2L58.2,83.3z M71.4,90.9l9.6,5.6l2.8-1.6l-9.6-5.6
	C74.2,89.3,71.4,90.9,71.4,90.9z M113.8,51.3l-0.4,0.2c0.1,0,0.3,0.1,0.4,0.1l0,0c0.1,0,0.3,0,0.4-0.1L113.8,51.3z M142.4,67.8
	l-5.7-3.3l-2.9,1.7h-0.1h-0.1l-9.8-5.6h-0.1h0.1l2.9-1.7l-5.7-3.3l-8.6,5l6.7,3.8l0.1,0.1l7.8,4.4l0.1,0.1l6.6,3.8L142.4,67.8
	L142.4,67.8z M136.5,64.4l-9.6-5.6l-2.8,1.6l9.6,5.5L136.5,64.4L136.5,64.4z M108.7,80.4l-9.6-5.5c-1.1,0.5-1.8,1.5-1.9,2.7
	c0.1,1.2,0.9,2.3,2,2.8C102.2,81.9,105.7,81.9,108.7,80.4L108.7,80.4z M99.2,74.8l9.6,5.5c1.1-0.5,1.8-1.5,1.9-2.7
	c-0.1-1.2-0.9-2.3-2-2.8C105.7,73.4,102.2,73.4,99.2,74.8L99.2,74.8z M126.7,68.8l-7.5-4.3c-0.1,0.6,0,1.2,0.3,1.7
	c0.4,0.6,1,1.2,1.6,1.5c0.8,0.5,1.7,0.8,2.6,1C124.8,68.9,125.7,68.9,126.7,68.8L126.7,68.8z M81.2,86.5l7.5,4.3
	c0.1-0.6,0-1.2-0.3-1.7c-0.4-0.6-1-1.2-1.6-1.5c-0.8-0.5-1.7-0.8-2.7-0.9C83.2,86.5,82.2,86.4,81.2,86.5z"/>
<path class="st28" d="M128.4,59.5l0.2,0.1l-0.1,0.1l-0.2-0.1C128.2,59.6,128.4,59.5,128.4,59.5z M129.4,60.1L129.4,60.1L129.4,60.1
	C129.5,60.2,129.4,60.2,129.4,60.1L129.4,60.1L129.4,60.1l-0.3-0.1L129.4,60.1L129.4,60.1z M133.2,62.3l0.2,0.1l-0.1,0.1l-0.2-0.1
	L133.2,62.3z M134.2,62.9L134.2,62.9C134.3,62.9,134.3,62.9,134.2,62.9c0.1,0.1,0,0.1,0,0.1l0,0l-0.3-0.2L134.2,62.9L134.2,62.9z"/>
<path class="st27" d="M126.1,65.1c-0.1,0.1-0.3,0.1-0.4,0c-0.1,0-0.1-0.1-0.1-0.1c0,0,0-0.1,0.1-0.1c0.1-0.1,0.3-0.1,0.4,0
	C126.2,64.9,126.2,65,126.1,65.1C126.2,65.1,126.1,65.1,126.1,65.1z"/>
<path class="st27" d="M82.2,90.4c0.1-0.1,0.1-0.2,0-0.2c-0.1-0.1-0.3-0.1-0.4,0c-0.1,0-0.1,0.1-0.1,0.1c0,0,0,0.1,0.1,0.1
	C82,90.5,82.1,90.5,82.2,90.4z"/>
<path class="st29" d="M181.1,57.7V45.5l-53.3-30.8h-33l-68,39.2v12.3l0,0l53.3,30.8h33L181.1,57.7z M107.5,95.8H85.8L40.5,69.7V57.2
	l59.9-34.6h21.7l45.3,26.2v12.5L107.5,95.8z"/>
<path class="st30" d="M178.5,58.7V41.5l-52.1-30.1H96.6L29.4,50.2v17.2l51.1,29.5h31.9L178.5,58.7L178.5,58.7z M176,58.1L110.3,96
	H82.6L32,66.8v-16l65.6-37.9h27.7L176,42.1V58.1z"/>
<polygon class="st31" points="178.5,58.7 178.5,41.5 126.4,11.4 124.4,11.4 176.5,41.5 176.5,58.7 110.3,96.9 112.4,96.9 "/>
<path class="st30" d="M176,58.9v-16l-50.6-29.2H97.6L32,51.6v16l50.6,29.2h27.7L176,58.9z M173.4,58.3l-64.2,37H83.6L34.5,67V52.2
	l64.1-37h25.6l49.1,28.3L173.4,58.3z"/>
<polygon class="st31" points="176,58.9 176,42.9 125.4,13.7 124.5,13.7 175.1,42.9 175.1,58.9 109.5,96.8 82.6,96.8 82.6,96.8 
	110.3,96.8 "/>
<path class="st30" d="M173.4,59.2V44.4L124.3,16H98.7L34.5,53v14.8l49.1,28.3h25.6L173.4,59.2L173.4,59.2z M170.8,58.5l-62.6,36.2
	H84.7L37.1,67.2V53.7l62.6-36.2h23.5L170.8,45V58.5z"/>
<path class="st31" d="M162.8,38.2l-0.9-0.5h-3.6l0.9,0.5H162.8z M128.6,18.5l-0.9-0.5h-3.6l0.9,0.5H128.6z M112.8,94.1l0.9-0.5H110
	l-0.9,0.5H112.8z M137.4,79.9l0.9-0.5h-3.6l-0.9,0.5H137.4z M162,65.7l0.9-0.5h-3.6l-0.9,0.5H162z M107.8,94.7l-1.3,0.7H102
	l-0.2-0.1l-0.2-0.1l0.9-0.6H107.8z M123,17.5l-1.3-0.8h-4.5l-0.3,0.2l1,0.6H123z"/>
<polygon class="st31" points="173.4,59.2 173.4,44.4 124.3,16 123.5,16 172.6,44.4 172.6,59.6 "/>
<path class="st30" d="M170.8,59.4V45.8l-47.6-27.5H99.8L37.1,54.5v13.5l47.6,27.5h23.5L170.8,59.4z M168.2,58.7L107.1,94H85.8
	L39.7,67.4V55.1l61.1-35.3h21.3l46.1,26.6V58.7z"/>
<path class="st31" d="M159.1,39l-0.9-0.5h-1.1l-2.2-1.3h-2.5l5.4,3.1h1.8l0.3-0.2l-1.9-1.1L159.1,39z M125,19.4l-0.9-0.5H123
	l-0.9-0.5h-5.2l2.6,1.5h2.7l1.4,0.8h1.8l0.3-0.2l-1.9-1.1L125,19.4z M101.8,95.5h5.2l1-0.6h1.1l0.9-0.5h-1.1l1.9-1.1l-0.2-0.1
	l-0.2-0.1h-1.8l-1.6,0.8h-2.7l-1,0.6L101.8,95.5L101.8,95.5z M133.8,80.8l0.9-0.5h-1.1l1.9-1.1l-0.2-0.1l-0.2-0.1h-1.8l-5.4,3.1h2.5
	l2.2-1.3H133.8z M158.4,66.5l0.9-0.5h-1.1l1.9-1.1l-0.2-0.1l-0.2-0.1h-1.8l-5.4,3.1h2.5l2.2-1.3H158.4z"/>
<path class="st31" d="M170.8,59.4V45.8l-47.6-27.5h-0.8L170,45.8v13.5l-2.5,1.5h0.8L170.8,59.4L170.8,59.4z M106.2,95.5L106.2,95.5z
	"/>
<path class="st30" d="M168.2,59.6V47.3l-46.1-26.6h-21.3L39.7,56v12.3l46.1,26.6h21.3L168.2,59.6L168.2,59.6z M165.7,59L106,93.4
	H86.8L42.3,67.7V56.6l59.6-34.4h19.2l44.6,25.7L165.7,59z"/>
<path class="st31" d="M157.7,41.2l-5.4-3.1h-2.8l-0.3,0.2l5,2.9H157.7z M123.6,21.5l-1.4-0.8h-3.5l1.4,0.8H123.6z M103.6,94.9h3.5
	l1.5-0.9h-3.5C105.1,94,103.6,94.9,103.6,94.9z M127.9,82.9l5.4-3.1h-3.5l-2.5,1.5l-2.5,1.4l0.2,0.1l0.2,0.1
	C125.1,82.9,127.9,82.9,127.9,82.9z M152.5,68.7l5.4-3.1h-3.5l-2.5,1.4l-2.5,1.4l0.2,0.1l0.2,0.1L152.5,68.7L152.5,68.7z"/>
<polygon class="st31" points="157.1,66 163.9,62.1 160.3,62.1 155.3,65 "/>
<polygon class="st31" points="132.5,80.2 139.3,76.3 135.7,76.3 130.7,79.2 "/>
<polygon class="st31" points="107.8,94.4 114.6,90.5 111.1,90.5 106.1,93.4 "/>
<path class="st31" d="M168.2,59.6V47.3l-46.1-26.6h-0.8l46.1,26.6v12.3l-3.8,2.2h0.8L168.2,59.6z M100.5,94.9L100.5,94.9z"/>
<polygon class="st32" points="43.4,65.1 44,65.4 49,62.6 48.4,62.2 "/>
<polygon class="st33" points="48.6,63.6 43.6,66.5 45.4,67.6 50.4,64.7 "/>
<polygon class="st33" points="50,65.8 45,68.6 46.8,69.7 51.8,66.8 "/>
<polygon class="st33" points="51.4,67.9 46.4,70.8 47.3,71.3 49.2,71.3 52.1,69.6 52.3,68.4 "/>
<polygon class="st32" points="51.2,70.9 49.2,72.1 51,72.1 "/>
<polygon class="st21" points="44.7,63.8 51,67.5 56,64.6 49.7,61 "/>
<polygon class="st25" points="51,72.1 51,67.5 56,64.6 56,69.2 "/>
<linearGradient id="SVGID_3_" gradientUnits="userSpaceOnUse" x1="-1563.5387" y1="83.9607" x2="-1560.4187" y2="78.3507" gradientTransform="matrix(-1 0 0 -1 -1514.63 150)">
	<stop  offset="0" style="stop-color:#B4A19B"/>
	<stop  offset="1" style="stop-color:#BA786A"/>
</linearGradient>
<polygon class="st34" points="51,72.1 50.1,71.6 50.1,70.7 48.3,69.7 48.3,68.8 46.5,67.8 46.5,67 44.7,65.9 44.7,63.8 51,67.5 "/>
<polygon class="st20" points="50.1,70.7 49.2,71.3 49.2,72.1 50.1,71.6 "/>
<polygon class="st20" points="48.3,68.8 46.8,69.7 46.4,70.8 48.3,69.7 "/>
<polygon class="st20" points="46.5,67 45.4,67.6 45,68.6 46.5,67.8 "/>
<polygon class="st35" points="43.6,66.5 44.7,65.9 44.7,65.1 44,65.4 "/>
<path class="st36" d="M165.7,59.8V48.7L121.1,23h-19.2L42.3,57.4v11.1l44.6,25.7H106L165.7,59.8L165.7,59.8z M163.1,59.2L105,92.7
	H87.9L44.8,67.9V58L103,24.5h17l43.1,24.9L163.1,59.2z"/>
<path class="st37" d="M154.1,42l-5.4-3.1l0,0l-0.3,0.2l5,2.9H154.1z M124.2,83.7l5.4-3.1h-0.7l-2.5,1.5l-2.5,1.4l0.2,0.1L124.2,83.7
	L124.2,83.7z M148.9,69.5l5.4-3.1h-0.7l-2.5,1.5l-2.5,1.4l0.2,0.1L148.9,69.5L148.9,69.5z"/>
<polygon class="st0" points="165.7,59.8 165.7,48.7 121.1,23 120.3,23 164.8,48.7 164.8,59.8 105.2,94.2 106,94.2 "/>
<path class="st38" d="M120,24.5h-17v0.8h17V24.5z"/>
<path class="st25" d="M44.8,58L103,24.5v0.8L44.8,58.8V58z"/>
<path class="st24" d="M163.1,49.3L120,24.5v0.8l43,24.9L163.1,49.3z"/>
<path class="st39" d="M121.1,22.1h-19.2V23h19.2L121.1,22.1z"/>
<path class="st40" d="M42.3,56.6l59.6-34.4V23L42.3,57.4V56.6z"/>
<path class="st41" d="M165.7,47.9l-44.6-25.7V23l44.6,25.7V47.9z"/>
<path class="st39" d="M122.2,19.8h-21.3v0.8h21.3V19.8z"/>
<polygon class="st31" points="122.2,19.8 119.5,19.8 118.6,20.6 122.2,20.6 "/>
<path class="st40" d="M39.7,55.1l61.1-35.3v0.8L39.7,56V55.1z"/>
<path class="st41" d="M168.2,46.4l-46.1-26.6v0.8l46.1,26.6V46.4z"/>
<path class="st39" d="M123.2,17.5H99.8v0.8h23.5L123.2,17.5z"/>
<path class="st40" d="M37.1,53.7l62.6-36.2v0.8L37.1,54.5V53.7z"/>
<path class="st41" d="M170.8,45l-47.6-27.5v0.8l47.6,27.5V45z"/>
<path class="st39" d="M124.3,15.2H98.7V16h25.6L124.3,15.2z"/>
<path class="st40" d="M34.5,52.2l64.1-37V16L34.5,53L34.5,52.2z"/>
<path class="st41" d="M173.4,43.5l-49.1-28.3V16l49.1,28.3V43.5z"/>
<path class="st39" d="M125.4,12.9H97.6v0.8h27.7L125.4,12.9z"/>
<path class="st40" d="M32,50.8l65.6-37.9v0.8L32,51.6V50.8z"/>
<path class="st41" d="M176,42.1l-50.6-29.2v0.8L176,42.9V42.1z"/>
<path class="st25" d="M29.4,48.1L96.6,9.3v2.1L29.4,50.2V48.1z"/>
<rect x="96.6" y="9.3" class="st42" width="29.9" height="2.1"/>
<polygon class="st24" points="126.4,9.3 124.4,11.4 126.4,11.4 "/>
<linearGradient id="SVGID_4_" gradientUnits="userSpaceOnUse" x1="-1674.9368" y1="138.7118" x2="-1643.1567" y2="81.3918" gradientTransform="matrix(-1 0 0 -1 -1514.63 150)">
	<stop  offset="0" style="stop-color:#B4A19B"/>
	<stop  offset="1" style="stop-color:#9D5482"/>
</linearGradient>
<polygon class="st43" points="126.4,9.3 178.5,39.4 178.5,41.5 126.4,11.4 "/>
<polygon class="st20" points="101.9,37.9 99.3,39.4 99.3,40.2 101.9,38.7 "/>
<polygon class="st20" points="100.8,35.6 95.7,38.6 95.7,39.4 100.8,36.4 "/>
<polygon class="st20" points="99.8,33.3 92,37.7 92,38.6 99.8,34.1 "/>
<polygon class="st31" points="166.3,40.3 161.3,37.4 159.5,38.4 166.1,42.3 166.2,41.6 165.1,40.9 "/>
<polygon class="st31" points="166.1,43.1 159,39 157.2,40.1 162.5,43.1 "/>
<polygon class="st31" points="164.3,42.1 159.4,39.2 157.5,40.2 163.9,43.9 165.7,43.9 163.4,42.6 "/>
<polygon class="st31" points="163.9,44.7 157.1,40.8 155.3,41.8 160.3,44.7 160.3,44.7 "/>
<polygon class="st21" points="172.1,35.7 165.7,39.4 160.7,36.5 167.1,32.8 "/>
<linearGradient id="SVGID_5_" gradientUnits="userSpaceOnUse" x1="-1685.2874" y1="113.8195" x2="-1675.1473" y2="116.3494" gradientTransform="matrix(-1 0 0 -1 -1514.63 150)">
	<stop  offset="0" style="stop-color:#8F8488"/>
	<stop  offset="0.43" style="stop-color:#9D9197"/>
	<stop  offset="1" style="stop-color:#A79A9D"/>
</linearGradient>
<path class="st44" d="M161.9,35.8l1.4-0.8l1.1,0.6l-0.3,0.2L161.9,35.8z M164.1,34.5L165,34h4.1l0.6,0.3l-0.3,0.2L164.1,34.5z"/>
<linearGradient id="SVGID_6_" gradientUnits="userSpaceOnUse" x1="-1678.7803" y1="111.5098" x2="-1674.4103" y2="103.6098" gradientTransform="matrix(-1 0 0 -1 -1514.63 150)">
	<stop  offset="0" style="stop-color:#B4A19B"/>
	<stop  offset="1" style="stop-color:#9D5482"/>
</linearGradient>
<polygon class="st45" points="165.7,43.9 165.7,39.4 160.7,36.5 160.7,41 "/>
<linearGradient id="SVGID_7_" gradientUnits="userSpaceOnUse" x1="-1682.3684" y1="112.2091" x2="-1687.4183" y2="103.4591" gradientTransform="matrix(-1 0 0 -1 -1514.63 150)">
	<stop  offset="0" style="stop-color:#DCCEC0"/>
	<stop  offset="1" style="stop-color:#F285AC"/>
</linearGradient>
<polygon class="st46" points="165.7,43.9 166.6,43.4 166.6,42.6 168.4,41.5 168.4,40.7 170.3,39.6 170.3,38.8 172.1,37.8 
	172.1,35.7 165.7,39.4 "/>
<linearGradient id="SVGID_8_" gradientUnits="userSpaceOnUse" x1="-1685.8242" y1="113.5129" x2="-1689.5542" y2="108.2029" gradientTransform="matrix(-1 0 0 -1 -1514.63 150)">
	<stop  offset="0" style="stop-color:#B4A19B"/>
	<stop  offset="1" style="stop-color:#9D5482"/>
</linearGradient>
<polygon class="st47" points="171.1,38.3 172.1,37.8 172.1,35.7 "/>
<linearGradient id="SVGID_9_" gradientUnits="userSpaceOnUse" x1="-1683.7374" y1="112.0182" x2="-1687.4275" y2="106.7482" gradientTransform="matrix(-1 0 0 -1 -1514.63 150)">
	<stop  offset="0" style="stop-color:#B4A19B"/>
	<stop  offset="1" style="stop-color:#9D5482"/>
</linearGradient>
<polygon class="st48" points="169.9,39.9 170.3,39.6 170.3,38.8 "/>
<linearGradient id="SVGID_10_" gradientUnits="userSpaceOnUse" x1="-1681.649" y1="110.5193" x2="-1685.309" y2="105.2993" gradientTransform="matrix(-1 0 0 -1 -1514.63 150)">
	<stop  offset="0" style="stop-color:#B4A19B"/>
	<stop  offset="1" style="stop-color:#9D5482"/>
</linearGradient>
<polygon class="st49" points="168,41.8 168.4,41.5 168.4,40.7 "/>
<linearGradient id="SVGID_11_" gradientUnits="userSpaceOnUse" x1="-1679.5093" y1="109.0995" x2="-1683.2393" y2="103.7695" gradientTransform="matrix(-1 0 0 -1 -1514.63 150)">
	<stop  offset="0" style="stop-color:#B4A19B"/>
	<stop  offset="1" style="stop-color:#9D5482"/>
</linearGradient>
<polygon class="st50" points="166.2,43.6 166.6,43.4 166.6,42.6 "/>
<polygon class="st31" points="132,20.5 127,17.6 125.2,18.6 131.8,22.5 132.8,22.3 130.8,21.2 "/>
<polygon class="st31" points="131.8,23.3 124.8,19.2 123,20.3 128.2,23.3 "/>
<polygon class="st31" points="130.1,22.3 125.1,19.4 123.3,20.5 129.6,24.1 131.4,24.1 129.2,22.8 "/>
<polygon class="st31" points="129.6,25 122.8,21 121.1,22.1 126.1,25 126.1,25 "/>
<polygon class="st21" points="137.8,15.9 131.4,19.6 126.4,16.7 132.8,13 "/>
<linearGradient id="SVGID_12_" gradientUnits="userSpaceOnUse" x1="-1651.1797" y1="133.4789" x2="-1640.6897" y2="136.0889" gradientTransform="matrix(-1 0 0 -1 -1514.63 150)">
	<stop  offset="0" style="stop-color:#8F8488"/>
	<stop  offset="0.43" style="stop-color:#9D9197"/>
	<stop  offset="1" style="stop-color:#A79A9D"/>
</linearGradient>
<path class="st51" d="M127.5,16.1l1.6-0.9l1.3,0.7l-0.3,0.2H127.5z M129.7,14.8l0.9-0.5h4.4l0.6,0.3l-0.3,0.2L129.7,14.8z"/>
<linearGradient id="SVGID_13_" gradientUnits="userSpaceOnUse" x1="-1644.5203" y1="131.2898" x2="-1640.1503" y2="123.3898" gradientTransform="matrix(-1 0 0 -1 -1514.63 150)">
	<stop  offset="0" style="stop-color:#B4A19B"/>
	<stop  offset="1" style="stop-color:#9D5482"/>
</linearGradient>
<polygon class="st52" points="131.4,24.1 131.4,19.6 126.4,16.7 126.4,21.3 "/>
<linearGradient id="SVGID_14_" gradientUnits="userSpaceOnUse" x1="-1648.1084" y1="131.9891" x2="-1653.1583" y2="123.2391" gradientTransform="matrix(-1 0 0 -1 -1514.63 150)">
	<stop  offset="0" style="stop-color:#DCCEC0"/>
	<stop  offset="1" style="stop-color:#F285AC"/>
</linearGradient>
<polygon class="st53" points="131.4,24.1 132.4,23.6 132.4,22.8 134.2,21.7 134.2,20.9 136,19.9 136,19 137.8,18 137.8,15.9 
	131.4,19.6 "/>
<linearGradient id="SVGID_15_" gradientUnits="userSpaceOnUse" x1="-1651.4133" y1="133.4825" x2="-1657.4333" y2="125.2025" gradientTransform="matrix(-1 0 0 -1 -1514.63 150)">
	<stop  offset="0" style="stop-color:#B4A19B"/>
	<stop  offset="1" style="stop-color:#9D5482"/>
</linearGradient>
<polygon class="st54" points="136.8,18.6 137.8,18 137.8,15.9 "/>
<linearGradient id="SVGID_16_" gradientUnits="userSpaceOnUse" x1="-1649.3519" y1="131.9214" x2="-1655.3119" y2="123.7214" gradientTransform="matrix(-1 0 0 -1 -1514.63 150)">
	<stop  offset="0" style="stop-color:#B4A19B"/>
	<stop  offset="1" style="stop-color:#9D5482"/>
</linearGradient>
<polygon class="st55" points="135.6,20.1 136,19.9 136,19 "/>
<linearGradient id="SVGID_17_" gradientUnits="userSpaceOnUse" x1="-1647.2173" y1="130.478" x2="-1653.2672" y2="122.138" gradientTransform="matrix(-1 0 0 -1 -1514.63 150)">
	<stop  offset="0" style="stop-color:#B4A19B"/>
	<stop  offset="1" style="stop-color:#9D5482"/>
</linearGradient>
<polygon class="st56" points="133.8,22 134.2,21.7 134.2,20.9 "/>
<linearGradient id="SVGID_18_" gradientUnits="userSpaceOnUse" x1="-1645.1478" y1="128.9384" x2="-1651.1779" y2="120.6384" gradientTransform="matrix(-1 0 0 -1 -1514.63 150)">
	<stop  offset="0" style="stop-color:#B4A19B"/>
	<stop  offset="1" style="stop-color:#9D5482"/>
</linearGradient>
<polygon class="st57" points="131.9,23.9 132.4,23.6 132.4,22.8 "/>
<polygon class="st33" points="84.8,41.2 85.4,41.5 90.4,38.7 89.8,38.3 "/>
<polygon class="st33" points="90,39.8 85,42.6 86.8,43.7 91.8,40.8 "/>
<polygon class="st33" points="91.4,41.9 86.4,44.8 88.2,45.8 93.2,42.9 "/>
<polygon class="st33" points="92.8,44 87.8,46.9 88.7,47.4 90.6,47.4 93.5,45.7 93.7,44.5 "/>
<polygon class="st33" points="92.6,47 90.6,48.2 92.4,48.2 "/>
<polygon class="st21" points="86,40 92.4,43.6 97.4,40.8 91,37.1 "/>
<polygon class="st25" points="92.4,48.2 92.4,43.6 97.4,40.8 97.4,45.3 "/>
<linearGradient id="SVGID_19_" gradientUnits="userSpaceOnUse" x1="-1604.9099" y1="107.85" x2="-1601.7999" y2="102.24" gradientTransform="matrix(-1 0 0 -1 -1514.63 150)">
	<stop  offset="0" style="stop-color:#B4A19B"/>
	<stop  offset="1" style="stop-color:#BA786A"/>
</linearGradient>
<polygon class="st58" points="92.4,48.2 91.5,47.7 91.5,46.8 89.7,45.8 89.7,45 87.8,43.9 87.8,43.1 86,42 86,40 92.4,43.6 "/>
<polygon class="st20" points="91.5,46.8 90.6,47.4 90.6,48.2 91.5,47.7 "/>
<polygon class="st20" points="89.7,45 88.2,45.8 87.8,46.9 89.7,45.8 "/>
<polygon class="st20" points="87.8,43.1 86.8,43.7 86.4,44.8 87.8,43.9 "/>
<polygon class="st20" points="85,42.6 86,42 86,41.2 85.4,41.5 "/>
<polygon class="st31" points="163.8,65.9 168.8,63.1 168.6,63 169.1,62.9 171.1,61.8 169.3,60.7 162,64.9 "/>
<polygon class="st31" points="161.6,66 168.9,61.8 167,60.7 159.8,64.9 "/>
<polygon class="st31" points="159.3,66 166.6,61.8 165.7,61.3 163.9,61.3 157.5,64.9 "/>
<linearGradient id="SVGID_20_" gradientUnits="userSpaceOnUse" x1="-1678.6826" y1="88.4313" x2="-1676.8226" y2="77.9113" gradientTransform="matrix(-1 0 0 -1 -1514.63 150)">
	<stop  offset="0" style="stop-color:#B4A19B"/>
	<stop  offset="1" style="stop-color:#9D5482"/>
</linearGradient>
<polygon class="st59" points="160.7,64.1 160.9,64.3 161.6,63.8 162.7,64.5 163.4,64.1 165.3,65.1 165.3,64.3 167.1,65.3 
	167.1,63.3 160.7,59.6 "/>
<polygon class="st21" points="172.1,60.4 165.7,56.7 160.7,59.6 167.1,63.3 "/>
<polygon class="st31" points="139.2,80.2 144.2,77.3 144,77.2 144.5,77.1 146.5,76 144.6,74.9 137.4,79.1 "/>
<polygon class="st31" points="136.9,80.2 144.2,76 142.4,74.9 135.1,79.1 "/>
<polygon class="st31" points="134.7,80.2 142,76 141.1,75.5 139.3,75.5 132.9,79.2 "/>
<linearGradient id="SVGID_21_" gradientUnits="userSpaceOnUse" x1="-1654.0526" y1="74.2113" x2="-1652.1926" y2="63.6913" gradientTransform="matrix(-1 0 0 -1 -1514.63 150)">
	<stop  offset="0" style="stop-color:#B4A19B"/>
	<stop  offset="1" style="stop-color:#9D5482"/>
</linearGradient>
<polygon class="st60" points="136.1,78.4 136.3,78.5 137,78.1 138.1,78.7 138.8,78.3 140.6,79.3 140.6,78.5 142.4,79.6 142.4,77.5 
	136.1,73.8 "/>
<polygon class="st21" points="147.4,74.6 141.1,70.9 136.1,73.8 142.4,77.5 "/>
<polygon class="st31" points="114.6,94.4 119.6,91.5 119.4,91.4 119.8,91.3 121.8,90.2 120,89.1 112.7,93.3 "/>
<polygon class="st31" points="112.3,94.4 119.6,90.2 117.8,89.2 110.5,93.3 "/>
<polygon class="st31" points="110.1,94.4 117.4,90.2 116.4,89.7 114.6,89.7 108.3,93.4 "/>
<linearGradient id="SVGID_22_" gradientUnits="userSpaceOnUse" x1="-1629.4226" y1="59.9913" x2="-1627.5626" y2="49.4713" gradientTransform="matrix(-1 0 0 -1 -1514.63 150)">
	<stop  offset="0" style="stop-color:#B4A19B"/>
	<stop  offset="1" style="stop-color:#9D5482"/>
</linearGradient>
<polygon class="st61" points="111.4,92.6 111.6,92.7 112.4,92.3 113.5,92.9 114.2,92.5 116,93.6 116,92.7 117.8,93.8 117.8,91.7 
	111.4,88 "/>
<polygon class="st21" points="122.8,88.8 116.4,85.1 111.4,88 117.8,91.7 "/>
<linearGradient id="SVGID_23_" gradientUnits="userSpaceOnUse" x1="-1566.5125" y1="68.1975" x2="-1561.2225" y2="62.9075" gradientTransform="matrix(-1 0 0 -1 -1514.63 150)">
	<stop  offset="0" style="stop-color:#8F8488"/>
	<stop  offset="0.43" style="stop-color:#9D9197"/>
	<stop  offset="1" style="stop-color:#A79A9D"/>
</linearGradient>
<path class="st62" d="M33.9,70.2l0.9,0.5h3.9l-0.9-0.5H33.9z M68,89.9l0.9,0.5h3.9l-0.9-0.5H68z"/>
<linearGradient id="SVGID_24_" gradientUnits="userSpaceOnUse" x1="-1660.3591" y1="104.3509" x2="-1682.7091" y2="127.4909" gradientTransform="matrix(-1 0 0 -1 -1514.63 150)">
	<stop  offset="0" style="stop-color:#BAA9A2"/>
	<stop  offset="1" style="stop-color:#BD8175"/>
</linearGradient>
<polygon class="st63" points="149.5,47.2 143.2,50.9 138.2,48 144.5,44.3 "/>
<linearGradient id="SVGID_25_" gradientUnits="userSpaceOnUse" x1="-1656.2712" y1="99.9793" x2="-1652.1713" y2="92.8793" gradientTransform="matrix(-1 0 0 -1 -1514.63 150)">
	<stop  offset="0" style="stop-color:#B4A19B"/>
	<stop  offset="1" style="stop-color:#BA786A"/>
</linearGradient>
<polygon class="st64" points="143.2,55.4 143.2,50.9 138.2,48 138.2,52.6 "/>
<linearGradient id="SVGID_26_" gradientUnits="userSpaceOnUse" x1="-1659.3318" y1="100.7714" x2="-1665.9818" y2="92.2614" gradientTransform="matrix(-1 0 0 -1 -1514.63 150)">
	<stop  offset="0" style="stop-color:#B4A19B"/>
	<stop  offset="1" style="stop-color:#BA786A"/>
</linearGradient>
<polygon class="st65" points="143.2,55.4 144.1,54.9 144.1,54.1 145.9,53 145.9,52.2 147.7,51.2 147.7,50.3 149.5,49.3 149.5,47.2 
	143.2,50.9 "/>
<polygon class="st66" points="80.2,96.9 113.2,96.9 113.2,96.9 "/>
<path class="st0" d="M112.5,88.6l1.6,0.9l1.3-0.7l-0.2-0.1l-0.2-0.1C115,88.6,112.5,88.6,112.5,88.6z M114.7,89.9l0.9,0.5h4.4
	l0.5-0.3l-0.3-0.2H114.7z"/>
<polygon class="st0" points="119.7,83.2 120.1,83.4 120.1,90.4 119.7,90.2 "/>
<polygon class="st25" points="120.6,81 120.1,81.4 120.1,90.4 120.6,90.1 "/>
<polygon class="st25" points="117.8,84.7 117.8,80.1 122.8,77.3 122.8,81.8 "/>
<polygon class="st0" points="117.5,80 117.8,80.2 117.8,84.7 117.5,84.5 "/>
<polygon class="st67" points="117.5,80 117.8,80.2 122.8,77.3 122.5,77.1 "/>
<polygon class="st25" points="194.7,53.5 105.8,104.8 105.8,116.1 194.7,64.8 "/>
<linearGradient id="SVGID_27_" gradientUnits="userSpaceOnUse" x1="-1579.1306" y1="87.6897" x2="-1543.3005" y2="23.0497" gradientTransform="matrix(-1 0 0 -1 -1514.63 150)">
	<stop  offset="0" style="stop-color:#B6A49C"/>
	<stop  offset="1" style="stop-color:#9E8F88"/>
</linearGradient>
<polygon class="st68" points="13.3,63 85.5,104.8 85.5,116.1 13.3,74.4 "/>
<polygon class="st69" points="194.7,68.3 178.1,77.9 178.1,105.7 194.7,96.1 "/>
<path class="st36" d="M13.3,63l72.3,41.7h20.3l88.9-51.3V41.7L122.4,0h-20.3L13.3,51.3V63z M178.5,56.6l-67.2,38.8H81.5L29.4,65.3
	V48.1L96.6,9.3h29.9l52.1,30.1L178.5,56.6z"/>
<polygon class="st3" points="169.7,27.3 169.4,27.5 169.4,34.5 169.7,34.3 "/>
<linearGradient id="SVGID_28_" gradientUnits="userSpaceOnUse" x1="-1684.3835" y1="122.8479" x2="-1684.1035" y2="122.3879" gradientTransform="matrix(-1 0 0 -1 -1514.63 150)">
	<stop  offset="0" style="stop-color:#8F8488"/>
	<stop  offset="0.43" style="stop-color:#9D9197"/>
	<stop  offset="1" style="stop-color:#A79A9D"/>
</linearGradient>
<polygon class="st70" points="169.7,27.3 169.4,27.5 169.4,28.1 "/>
<linearGradient id="SVGID_29_" gradientUnits="userSpaceOnUse" x1="-1685.61" y1="120.195" x2="-1681.64" y2="120.195" gradientTransform="matrix(-1 0 0 -1 -1514.63 150)">
	<stop  offset="0" style="stop-color:#8F8488"/>
	<stop  offset="0.43" style="stop-color:#9D9197"/>
	<stop  offset="1" style="stop-color:#A79A9D"/>
</linearGradient>
<polygon class="st71" points="168.8,25.1 169.4,25.4 169.4,34.5 168.8,34.2 "/>
<linearGradient id="SVGID_30_" gradientUnits="userSpaceOnUse" x1="-1683.7991" y1="125.2703" x2="-1681.6191" y2="117.6803" gradientTransform="matrix(-1 0 0 -1 -1514.63 150)">
	<stop  offset="0" style="stop-color:#8F8488"/>
	<stop  offset="0.43" style="stop-color:#9D9197"/>
	<stop  offset="1" style="stop-color:#A79A9D"/>
</linearGradient>
<polygon class="st72" points="171.6,28.8 171.6,24.2 166.6,21.3 166.6,25.9 "/>
<polygon class="st3" points="171.9,24 171.6,24.2 171.6,28.8 171.9,28.6 "/>
<polygon class="st67" points="171.9,24 171.6,24.2 166.6,21.3 166.9,21.1 "/>
<path class="st73" d="M170.9,26.9c0.3,0.2,0.5,0.5,0.5,0.8c0,0.3-0.2,0.4-0.5,0.3c-0.3-0.2-0.5-0.5-0.5-0.8
	C170.4,26.9,170.6,26.7,170.9,26.9z"/>
<path class="st73" d="M169.7,26.2c0.3,0.2,0.5,0.5,0.5,0.8c0,0.3-0.2,0.4-0.5,0.3c-0.3-0.2-0.5-0.5-0.5-0.8
	C169.2,26.1,169.4,26,169.7,26.2z"/>
<path class="st73" d="M168.5,25.5c0.3,0.2,0.5,0.5,0.5,0.8c0,0.3-0.2,0.4-0.5,0.3c-0.3-0.2-0.5-0.5-0.5-0.8
	C168,25.5,168.2,25.3,168.5,25.5z"/>
<path class="st73" d="M167.3,24.8c0.3,0.2,0.5,0.5,0.5,0.8c0,0.3-0.2,0.4-0.5,0.3c-0.3-0.2-0.5-0.5-0.5-0.8
	C166.8,24.8,167,24.6,167.3,24.8z"/>
<path class="st73" d="M170.9,25.5c0.3,0.2,0.5,0.5,0.5,0.8c0,0.3-0.2,0.4-0.5,0.3c-0.3-0.2-0.5-0.5-0.5-0.8
	C170.4,25.5,170.6,25.4,170.9,25.5z"/>
<path class="st73" d="M169.7,24.8c0.3,0.2,0.5,0.5,0.5,0.8c0,0.3-0.2,0.4-0.5,0.3c-0.3-0.2-0.5-0.5-0.5-0.8
	C169.2,24.8,169.4,24.7,169.7,24.8z"/>
<path class="st73" d="M168.5,24.1c0.3,0.2,0.5,0.5,0.5,0.9c0,0.3-0.2,0.4-0.5,0.3c-0.3-0.2-0.5-0.5-0.5-0.8
	C168,24.1,168.2,24,168.5,24.1z"/>
<path class="st73" d="M167.3,23.4c0.3,0.2,0.5,0.5,0.5,0.8c0,0.3-0.2,0.4-0.5,0.3c-0.3-0.2-0.5-0.5-0.5-0.8
	C166.8,23.4,167,23.3,167.3,23.4z"/>
<path class="st73" d="M170.9,24.2c0.3,0.2,0.5,0.5,0.5,0.8c0,0.3-0.2,0.4-0.5,0.3c-0.3-0.2-0.5-0.5-0.5-0.8
	C170.4,24.1,170.6,24,170.9,24.2z"/>
<path class="st73" d="M169.7,23.5c0.3,0.2,0.5,0.5,0.5,0.8c0,0.3-0.2,0.4-0.5,0.3c-0.3-0.2-0.5-0.5-0.5-0.8
	C169.2,23.4,169.4,23.3,169.7,23.5z"/>
<path class="st73" d="M168.5,22.8c0.3,0.2,0.5,0.5,0.5,0.8c0,0.3-0.2,0.4-0.5,0.3c-0.3-0.2-0.5-0.5-0.5-0.8
	C168,22.8,168.2,22.6,168.5,22.8z"/>
<path class="st73" d="M167.3,22.1c0.3,0.2,0.5,0.5,0.5,0.8c0,0.3-0.2,0.4-0.5,0.3c-0.3-0.2-0.5-0.5-0.5-0.8
	C166.8,22,167,21.9,167.3,22.1z"/>
<polygon class="st3" points="135.6,7.6 135.3,7.8 135.3,14.8 135.6,14.6 "/>
<linearGradient id="SVGID_31_" gradientUnits="userSpaceOnUse" x1="-1650.274" y1="142.5434" x2="-1650.004" y2="142.0734" gradientTransform="matrix(-1 0 0 -1 -1514.63 150)">
	<stop  offset="0" style="stop-color:#8F8488"/>
	<stop  offset="0.43" style="stop-color:#9D9197"/>
	<stop  offset="1" style="stop-color:#A79A9D"/>
</linearGradient>
<polygon class="st74" points="135.6,7.6 135.3,7.8 135.3,8.5 "/>
<linearGradient id="SVGID_32_" gradientUnits="userSpaceOnUse" x1="-1651.51" y1="139.88" x2="-1647.55" y2="139.88" gradientTransform="matrix(-1 0 0 -1 -1514.63 150)">
	<stop  offset="0" style="stop-color:#8F8488"/>
	<stop  offset="0.43" style="stop-color:#9D9197"/>
	<stop  offset="1" style="stop-color:#A79A9D"/>
</linearGradient>
<polygon class="st75" points="134.7,5.4 135.3,5.8 135.3,14.8 134.7,14.5 "/>
<linearGradient id="SVGID_33_" gradientUnits="userSpaceOnUse" x1="-1649.7091" y1="144.9503" x2="-1647.5292" y2="137.3602" gradientTransform="matrix(-1 0 0 -1 -1514.63 150)">
	<stop  offset="0" style="stop-color:#8F8488"/>
	<stop  offset="0.43" style="stop-color:#9D9197"/>
	<stop  offset="1" style="stop-color:#A79A9D"/>
</linearGradient>
<polygon class="st76" points="137.5,9.1 137.5,4.5 132.5,1.6 132.5,6.2 "/>
<polygon class="st3" points="137.8,4.3 137.5,4.6 137.5,9.1 137.8,8.9 "/>
<polygon class="st67" points="137.8,4.3 137.5,4.6 132.5,1.6 132.8,1.4 "/>
<path class="st73" d="M136.8,7.2c0.3,0.2,0.5,0.5,0.5,0.8c0,0.3-0.2,0.4-0.5,0.3c-0.3-0.2-0.5-0.5-0.5-0.8
	C136.3,7.2,136.5,7,136.8,7.2z"/>
<path class="st73" d="M135.6,6.5c0.3,0.2,0.5,0.5,0.5,0.8c0,0.3-0.2,0.4-0.5,0.3c-0.3-0.2-0.5-0.5-0.5-0.8
	C135.1,6.5,135.3,6.3,135.6,6.5z"/>
<path class="st73" d="M134.4,5.8c0.3,0.2,0.5,0.5,0.5,0.8c0,0.3-0.2,0.4-0.5,0.3c-0.3-0.2-0.5-0.5-0.5-0.8
	C133.9,5.8,134.1,5.7,134.4,5.8z"/>
<path class="st73" d="M133.2,5.1c0.3,0.2,0.5,0.5,0.5,0.8c0,0.3-0.2,0.4-0.5,0.3c-0.3-0.2-0.5-0.5-0.5-0.8
	C132.7,5.1,132.9,5,133.2,5.1z"/>
<path class="st73" d="M136.8,5.8c0.3,0.2,0.5,0.5,0.5,0.8c0,0.3-0.2,0.4-0.5,0.3c-0.3-0.2-0.5-0.5-0.5-0.8
	C136.3,5.8,136.5,5.7,136.8,5.8z"/>
<path class="st73" d="M135.6,5.1c0.3,0.2,0.5,0.5,0.5,0.8c0,0.3-0.2,0.4-0.5,0.3c-0.3-0.2-0.5-0.5-0.5-0.8
	C135.1,5.1,135.3,5,135.6,5.1z"/>
<path class="st73" d="M134.4,4.4c0.3,0.2,0.5,0.5,0.5,0.8c0,0.3-0.2,0.4-0.5,0.3c-0.3-0.2-0.5-0.5-0.5-0.8
	C133.9,4.4,134.1,4.3,134.4,4.4z"/>
<path class="st73" d="M133.2,3.8c0.3,0.2,0.5,0.5,0.5,0.8c0,0.3-0.2,0.4-0.5,0.3c-0.3-0.2-0.5-0.5-0.5-0.8
	C132.7,3.7,132.9,3.6,133.2,3.8z"/>
<path class="st73" d="M136.8,4.5c0.3,0.2,0.5,0.5,0.5,0.8c0,0.3-0.2,0.4-0.5,0.3c-0.3-0.2-0.5-0.5-0.5-0.8
	C136.3,4.5,136.5,4.3,136.8,4.5z"/>
<path class="st73" d="M135.6,3.8c0.3,0.2,0.5,0.5,0.5,0.8c0,0.3-0.2,0.4-0.5,0.3c-0.3-0.2-0.5-0.5-0.5-0.8
	C135.1,3.8,135.3,3.6,135.6,3.8z"/>
<path class="st73" d="M134.4,3.1c0.3,0.2,0.5,0.5,0.5,0.8c0,0.3-0.2,0.4-0.5,0.3c-0.3-0.2-0.5-0.5-0.5-0.8
	C133.9,3.1,134.1,2.9,134.4,3.1z"/>
<path class="st73" d="M133.2,2.4c0.3,0.2,0.5,0.5,0.5,0.8c0,0.3-0.2,0.4-0.5,0.3c-0.3-0.2-0.5-0.5-0.5-0.8
	C132.7,2.4,132.9,2.2,133.2,2.4z"/>
<linearGradient id="SVGID_34_" gradientUnits="userSpaceOnUse" x1="-1608.8091" y1="34.0003" x2="-1564.6891" y2="-130.6698" gradientTransform="matrix(-1 0 0 -1 -1514.63 150)">
	<stop  offset="0" style="stop-color:#B6A49C"/>
	<stop  offset="1" style="stop-color:#9E8F88"/>
</linearGradient>
<rect x="85.5" y="104.8" class="st77" width="20.3" height="11.4"/>
<path class="st78" d="M129.4,58L129.4,58l1.4-0.5c0.1,0,0.1-0.1,0.1-0.1c0,0,0,0,0,0c0-0.1-0.1-0.1-0.1-0.1c0,0,0,0,0,0l-1.4,0.5
	c-0.1,0-0.1,0.1-0.1,0.1c0,0,0,0,0,0C129.3,58,129.4,58,129.4,58z"/>
<path class="st79" d="M129.4,58L129.4,58l0.6-0.2c0.1,0,0.1-0.1,0.1-0.1c0,0,0,0,0,0c0-0.1-0.1-0.1-0.1-0.1c0,0,0,0,0,0l-0.6,0.2
	c-0.1,0-0.1,0.1-0.1,0.1c0,0,0,0,0,0C129.3,58,129.4,58,129.4,58z"/>
<path class="st78" d="M134.2,60.8L134.2,60.8l1.4-0.5c0.1,0,0.1-0.1,0.1-0.1c0,0,0,0,0,0c0-0.1-0.1-0.1-0.1-0.1c0,0,0,0,0,0
	l-1.4,0.5c-0.1,0-0.1,0.1-0.1,0.1c0,0,0,0,0,0C134.1,60.8,134.2,60.8,134.2,60.8z"/>
<path class="st79" d="M134.2,60.8L134.2,60.8l0.6-0.2c0.1,0,0.1-0.1,0.1-0.1s-0.1-0.1-0.1-0.1l-0.6,0.2c-0.1,0-0.1,0.1-0.1,0.1
	c0,0,0,0,0,0C134.1,60.8,134.2,60.8,134.2,60.8z"/>
<path class="st78" d="M130.9,59.5c0.1,0,0.1-0.1,0.1-0.1v-2c0-0.1,0-0.1-0.1-0.1l0,0c-0.1,0-0.1,0-0.1,0.1c0,0,0,0,0,0v2
	C130.8,59.4,130.8,59.5,130.9,59.5L130.9,59.5z"/>
<path class="st78" d="M135.7,62.3c0.1,0,0.1,0,0.1-0.1l0,0v-2c0-0.1,0-0.1-0.1-0.1c0,0,0,0,0,0c0,0-0.1,0-0.1,0.1c0,0,0,0,0,0v2
	C135.6,62.2,135.6,62.3,135.7,62.3C135.7,62.3,135.7,62.3,135.7,62.3z"/>
<path class="st79" d="M129.4,60.3c0.1,0,0.1,0,0.1-0.1c0,0,0,0,0,0v-2.3c0-0.1,0-0.1-0.1-0.1l0,0c-0.1,0-0.1,0.1-0.1,0.1v2.3
	C129.3,60.3,129.4,60.3,129.4,60.3L129.4,60.3z"/>
<path class="st79" d="M134.2,63.1c0.1,0,0.1,0,0.1-0.1c0,0,0,0,0,0v-2.3c0-0.1,0-0.1-0.1-0.1l0,0c-0.1,0-0.1,0-0.1,0.1c0,0,0,0,0,0
	V63C134.1,63,134.1,63.1,134.2,63.1C134.2,63.1,134.2,63.1,134.2,63.1z"/>
<path class="st78" d="M135.7,60.3C135.7,60.3,135.7,60.3,135.7,60.3c0.1,0,0.1-0.1,0.1-0.2l-4.8-2.8c-0.1,0-0.1,0-0.2,0
	c0,0.1,0,0.1,0,0.2c0,0,0,0,0,0L135.7,60.3L135.7,60.3z"/>
<path class="st79" d="M134.2,60.8C134.2,60.8,134.3,60.7,134.2,60.8c0.1-0.1,0.1-0.1,0.1-0.2c0,0,0,0,0,0l-4.8-2.8c0,0-0.1,0-0.1,0
	c0,0,0,0.1,0,0.1L134.2,60.8L134.2,60.8z"/>
<polygon class="st21" points="47.2,68.3 40.8,71.9 35.8,69.1 42.2,65.4 "/>
<linearGradient id="SVGID_35_" gradientUnits="userSpaceOnUse" x1="-1559.0886" y1="79.1791" x2="-1563.2285" y2="72.7891" gradientTransform="matrix(-1 0 0 -1 -1514.63 150)">
	<stop  offset="0" style="stop-color:#DCCEC0"/>
	<stop  offset="1" style="stop-color:#F285AC"/>
</linearGradient>
<polygon class="st80" points="47.2,72.8 47,72.9 46.3,72.5 45.2,73.1 44.4,72.7 43.3,73.4 42.6,73 42.6,72.9 42.6,73 40.8,71.9 
	47.2,68.3 "/>
<polygon class="st0" points="34.3,71.8 33.9,72 29.4,72 24.4,69.1 24.7,68.9 29.3,68.9 31.5,70.2 38.5,70.2 39.1,70.5 38.7,70.7 
	32.3,70.7 "/>
<polygon class="st25" points="39.1,63.5 38.7,63.7 38.7,70.7 39.1,70.5 "/>
<linearGradient id="SVGID_36_" gradientUnits="userSpaceOnUse" x1="-1553.0244" y1="85.1182" x2="-1553.9944" y2="87.5082" gradientTransform="matrix(-1 0 0 -1 -1514.63 150)">
	<stop  offset="0" style="stop-color:#AB9A95"/>
	<stop  offset="0.52" style="stop-color:#A79791"/>
	<stop  offset="1" style="stop-color:#9E8F88"/>
</linearGradient>
<polygon class="st81" points="39.1,63.5 38.7,63.7 38.7,64.4 "/>
<polygon class="st82" points="38.2,61.4 38.7,61.7 38.7,70.7 38.2,70.4 "/>
<polygon class="st82" points="41,65 41,60.5 36,57.6 36,62.1 "/>
<polygon class="st25" points="41.3,60.3 41,60.5 41,65 41.3,64.8 "/>
<polygon class="st21" points="41.3,60.3 41,60.5 36,57.6 36.3,57.4 "/>
<polygon class="st21" points="81.4,88 75.1,91.7 70.1,88.8 76.4,85.1 "/>
<linearGradient id="SVGID_37_" gradientUnits="userSpaceOnUse" x1="-1593.3306" y1="59.4104" x2="-1597.4806" y2="53.0204" gradientTransform="matrix(-1 0 0 -1 -1514.63 150)">
	<stop  offset="0" style="stop-color:#DCCEC0"/>
	<stop  offset="1" style="stop-color:#F285AC"/>
</linearGradient>
<polygon class="st83" points="81.4,92.6 81.2,92.7 80.5,92.3 79.4,92.9 78.7,92.5 77.6,93.2 76.9,92.8 76.9,92.7 76.8,92.7 
	75.1,91.7 81.4,88 "/>
<polygon class="st0" points="68.5,91.6 68.2,91.8 63.6,91.8 58.6,88.9 59,88.7 63.5,88.7 65.7,90 72.7,90 73.3,90.3 73,90.5 
	66.6,90.5 "/>
<polygon class="st25" points="73.3,83.3 73,83.5 73,90.5 73.3,90.3 "/>
<linearGradient id="SVGID_38_" gradientUnits="userSpaceOnUse" x1="-1587.2676" y1="65.351" x2="-1588.2277" y2="67.731" gradientTransform="matrix(-1 0 0 -1 -1514.63 150)">
	<stop  offset="0" style="stop-color:#AB9A95"/>
	<stop  offset="0.52" style="stop-color:#A79791"/>
	<stop  offset="1" style="stop-color:#9E8F88"/>
</linearGradient>
<polygon class="st84" points="73.3,83.3 73,83.5 73,84.2 "/>
<polygon class="st82" points="72.4,81.1 73,81.4 73,90.5 72.4,90.2 "/>
<polygon class="st82" points="75.2,84.8 75.2,80.2 70.2,77.3 70.2,81.9 "/>
<polygon class="st25" points="75.5,80.1 75.2,80.2 75.2,84.8 75.5,84.6 "/>
<polygon class="st21" points="75.5,80.1 75.2,80.2 70.2,77.3 70.5,77.1 "/>
<polygon class="st31" points="89.1,15.7 84.1,18.6 85.9,19.7 90.9,16.8 "/>
<polygon class="st31" points="90.5,17.8 85.5,20.7 87.3,21.8 92.3,18.9 "/>
<polygon class="st31" points="91.9,20 86.9,22.8 87.8,23.3 89.7,23.3 92.6,21.7 92.8,20.5 "/>
<polygon class="st31" points="91.7,23 89.7,24.2 91.5,24.2 "/>
<polygon class="st21" points="85.1,15.9 91.5,19.6 96.5,16.7 90.1,13.1 "/>
<linearGradient id="SVGID_39_" gradientUnits="userSpaceOnUse" x1="-1607.6179" y1="131.2688" x2="-1612.0278" y2="123.6288" gradientTransform="matrix(-1 0 0 -1 -1514.63 150)">
	<stop  offset="0" style="stop-color:#DCCEC0"/>
	<stop  offset="1" style="stop-color:#F285AC"/>
</linearGradient>
<polygon class="st85" points="91.5,24.2 91.5,19.6 96.5,16.7 96.5,21.3 "/>
<linearGradient id="SVGID_40_" gradientUnits="userSpaceOnUse" x1="-1604.0087" y1="131.9007" x2="-1598.9387" y2="122.7507" gradientTransform="matrix(-1 0 0 -1 -1514.63 150)">
	<stop  offset="0" style="stop-color:#B4A19B"/>
	<stop  offset="1" style="stop-color:#9D5482"/>
</linearGradient>
<polygon class="st86" points="91.5,24.2 90.6,23.6 90.6,22.8 88.8,21.8 88.8,20.9 86.9,19.9 86.9,19.1 85.1,18 85.1,15.9 91.5,19.6 
	"/>
<polygon class="st87" points="90.6,22.8 89.7,23.3 89.7,24.2 90.6,23.6 "/>
<polygon class="st41" points="88.8,20.9 87.3,21.8 86.9,22.8 88.8,21.8 "/>
<polygon class="st41" points="86.9,19.1 85.9,19.7 85.5,20.7 86.9,19.9 "/>
<linearGradient id="SVGID_41_" gradientUnits="userSpaceOnUse" x1="-1598.7875" y1="133.3483" x2="-1602.0375" y2="128.7183" gradientTransform="matrix(-1 0 0 -1 -1514.63 150)">
	<stop  offset="0" style="stop-color:#B4A19B"/>
	<stop  offset="1" style="stop-color:#9D5482"/>
</linearGradient>
<polygon class="st88" points="84.1,18.6 85.1,18 85.1,15.9 "/>
<polygon class="st0" points="81.5,14.3 87.9,14.3 87.7,14.9 80.7,14.9 78.4,16.1 74.2,16.1 79.5,13.1 83.1,13.1 83.4,13.3 "/>
<polygon class="st24" points="87.3,7.6 87.7,7.8 87.7,14.9 87.3,14.6 "/>
<polygon class="st25" points="88.2,5.5 87.7,5.8 87.7,14.9 88.2,14.5 "/>
<polygon class="st25" points="85.4,9.1 85.4,4.6 90.4,1.7 90.4,6.2 "/>
<polygon class="st24" points="85.1,4.4 85.4,4.6 85.4,9.1 85.1,8.9 "/>
<polygon class="st21" points="85.1,4.4 85.4,4.6 90.4,1.7 90.1,1.5 "/>
<polygon class="st31" points="64.4,29.9 59.5,32.8 61.3,33.9 66.3,31 "/>
<polygon class="st31" points="65.8,32.1 60.8,34.9 62.7,36 67.7,33.1 "/>
<polygon class="st31" points="67.3,34.2 62.3,37.1 63.1,37.6 65,37.6 67.9,35.9 68.1,34.7 "/>
<polygon class="st31" points="67,37.2 65,38.4 66.8,38.4 "/>
<polygon class="st21" points="60.5,30.2 66.8,33.8 71.8,31 65.5,27.3 "/>
<linearGradient id="SVGID_42_" gradientUnits="userSpaceOnUse" x1="-1582.9879" y1="117.0488" x2="-1587.3978" y2="109.4088" gradientTransform="matrix(-1 0 0 -1 -1514.63 150)">
	<stop  offset="0" style="stop-color:#DCCEC0"/>
	<stop  offset="1" style="stop-color:#F285AC"/>
</linearGradient>
<polygon class="st89" points="66.8,38.4 66.8,33.8 71.8,31 71.8,35.5 "/>
<linearGradient id="SVGID_43_" gradientUnits="userSpaceOnUse" x1="-1579.3787" y1="117.6807" x2="-1574.3087" y2="108.5307" gradientTransform="matrix(-1 0 0 -1 -1514.63 150)">
	<stop  offset="0" style="stop-color:#B4A19B"/>
	<stop  offset="1" style="stop-color:#9D5482"/>
</linearGradient>
<polygon class="st90" points="66.8,38.4 65.9,37.9 65.9,37 64.1,36 64.1,35.2 62.3,34.1 62.3,33.3 60.5,32.2 60.5,30.2 66.8,33.8 
	"/>
<polygon class="st41" points="65.9,37 65,37.6 65,38.4 65.9,37.9 "/>
<polygon class="st41" points="64.1,35.2 62.7,36 62.3,37.1 64.1,36 "/>
<polygon class="st41" points="62.3,33.3 61.3,33.9 60.8,34.9 62.3,34.1 "/>
<linearGradient id="SVGID_44_" gradientUnits="userSpaceOnUse" x1="-1574.1584" y1="119.1289" x2="-1577.3984" y2="114.4989" gradientTransform="matrix(-1 0 0 -1 -1514.63 150)">
	<stop  offset="0" style="stop-color:#B4A19B"/>
	<stop  offset="1" style="stop-color:#9D5482"/>
</linearGradient>
<polygon class="st91" points="59.5,32.8 60.5,32.2 60.5,30.2 "/>
<polygon class="st0" points="56.9,28.6 63.3,28.6 63,29.1 56,29.1 53.8,30.4 49.5,30.4 54.9,27.3 58.5,27.3 58.8,27.5 "/>
<polygon class="st24" points="62.7,21.9 63,22 63,29.1 62.7,28.9 "/>
<polygon class="st25" points="63.6,19.7 63,20 63,29.1 63.6,28.8 "/>
<polygon class="st25" points="60.8,23.3 60.8,18.8 65.8,15.9 65.8,20.5 "/>
<polygon class="st24" points="60.5,18.6 60.8,18.8 60.8,23.3 60.5,23.1 "/>
<polygon class="st21" points="60.5,18.6 60.8,18.8 65.8,15.9 65.5,15.7 "/>
<polygon class="st31" points="39.8,44.2 34.8,47 36.6,48.1 41.6,45.2 "/>
<polygon class="st31" points="41.2,46.3 36.2,49.2 38,50.2 43,47.3 "/>
<polygon class="st31" points="42.6,48.4 37.6,51.3 38.5,51.8 40.4,51.8 43.3,50.1 43.5,48.9 "/>
<polygon class="st31" points="42.4,51.5 40.4,52.6 42.2,52.6 "/>
<polygon class="st21" points="35.8,44.4 42.2,48 47.2,45.2 40.8,41.5 "/>
<linearGradient id="SVGID_45_" gradientUnits="userSpaceOnUse" x1="-1558.3579" y1="102.8288" x2="-1562.7679" y2="95.1888" gradientTransform="matrix(-1 0 0 -1 -1514.63 150)">
	<stop  offset="0" style="stop-color:#DCCEC0"/>
	<stop  offset="1" style="stop-color:#F285AC"/>
</linearGradient>
<polygon class="st92" points="42.2,52.6 42.2,48 47.2,45.2 47.2,49.7 "/>
<linearGradient id="SVGID_46_" gradientUnits="userSpaceOnUse" x1="-1554.7487" y1="103.4607" x2="-1549.6787" y2="94.3107" gradientTransform="matrix(-1 0 0 -1 -1514.63 150)">
	<stop  offset="0" style="stop-color:#B4A19B"/>
	<stop  offset="1" style="stop-color:#9D5482"/>
</linearGradient>
<polygon class="st93" points="42.2,52.6 41.3,52.1 41.3,51.3 39.5,50.2 39.5,49.4 37.7,48.3 37.7,47.5 35.8,46.5 35.8,44.4 42.2,48 
	"/>
<polygon class="st41" points="41.3,51.3 40.4,51.8 40.4,52.6 41.3,52.1 "/>
<polygon class="st41" points="39.5,49.4 38,50.2 37.6,51.3 39.5,50.2 "/>
<polygon class="st41" points="37.7,47.5 36.6,48.1 36.2,49.2 37.7,48.3 "/>
<linearGradient id="SVGID_47_" gradientUnits="userSpaceOnUse" x1="-1549.5284" y1="104.9089" x2="-1552.7684" y2="100.2789" gradientTransform="matrix(-1 0 0 -1 -1514.63 150)">
	<stop  offset="0" style="stop-color:#B4A19B"/>
	<stop  offset="1" style="stop-color:#9D5482"/>
</linearGradient>
<polygon class="st94" points="34.8,47 35.8,46.5 35.8,44.4 "/>
<polygon class="st0" points="32.3,42.8 38.6,42.8 38.4,43.3 31.4,43.3 29.2,44.6 24.9,44.6 30.3,41.5 33.8,41.5 34.2,41.7 "/>
<polygon class="st24" points="38.1,36.1 38.4,36.3 38.4,43.3 38.1,43.1 "/>
<polygon class="st25" points="39,33.9 38.4,34.2 38.4,43.3 39,43 "/>
<polygon class="st25" points="36.2,37.5 36.2,33 41.2,30.1 41.2,34.7 "/>
<polygon class="st24" points="35.8,32.8 36.2,33 36.2,37.5 35.8,37.4 "/>
<polygon class="st21" points="35.8,32.8 36.2,33 41.2,30.1 40.8,29.9 "/>
<path class="st0" d="M137.1,74.4l1.6,0.9l1.3-0.7l-0.2-0.1l-0.2-0.1C139.6,74.4,137.1,74.4,137.1,74.4z M139.3,75.7l0.9,0.5h4.4
	l0.6-0.3l-0.3-0.2H139.3z"/>
<polygon class="st0" points="144.3,69 144.7,69.2 144.7,76.2 144.3,76 "/>
<polygon class="st25" points="145.2,66.8 144.7,67.1 144.7,76.2 145.2,75.9 "/>
<polygon class="st25" points="142.4,70.5 142.4,65.9 147.4,63 147.4,67.6 "/>
<polygon class="st0" points="142.1,65.7 142.4,65.9 142.4,70.5 142.1,70.3 "/>
<polygon class="st67" points="142.1,65.7 142.4,65.9 147.4,63 147.1,62.8 "/>
<path class="st0" d="M161.7,60.2l1.6,0.9l1.3-0.7l-0.2-0.1l-0.2-0.1H161.7z M164,61.5l0.9,0.5h4.4l0.6-0.3l-0.3-0.2H164z"/>
<polygon class="st0" points="169,54.8 169.3,55 169.3,62 169,61.8 "/>
<polygon class="st25" points="169.9,52.6 169.3,52.9 169.3,62 169.9,61.7 "/>
<polygon class="st25" points="167.1,56.2 167.1,51.7 172.1,48.8 172.1,53.4 "/>
<polygon class="st0" points="166.8,51.5 167.1,51.7 167.1,56.2 166.8,56 "/>
<polygon class="st67" points="166.8,51.5 167.1,51.7 172.1,48.8 171.8,48.6 "/>
<polygon class="st87" points="85.5,119.6 105.8,119.6 105.8,147.4 85.5,147.4 79.8,130.4 "/>
<polygon class="st21" points="114.1,116.9 169.8,84.8 181.4,91.5 125.8,123.6 "/>
<linearGradient id="SVGID_48_" gradientUnits="userSpaceOnUse" x1="-1663.629" y1="41.9194" x2="-1655.639" y2="55.2194" gradientTransform="matrix(-1 0 0 -1 -1514.63 150)">
	<stop  offset="0" style="stop-color:#B6A49C"/>
	<stop  offset="1" style="stop-color:#665873"/>
</linearGradient>
<polygon class="st95" points="114.1,116.9 161.4,89.6 169.8,84.8 178.1,89.6 162.9,89.6 114.8,117.3 "/>
<polygon class="st69" points="122.4,110.1 105.8,119.6 105.8,147.4 122.4,137.9 "/>
<polygon class="st87" points="122.4,131 122.4,121.7 119.2,130.2 119.2,132.9 "/>
<polygon class="st25" points="181.4,91.5 125.8,123.6 125.8,126.3 181.4,94.2 "/>
<linearGradient id="SVGID_49_" gradientUnits="userSpaceOnUse" x1="-1641.5901" y1="26.1694" x2="-1634.13" y2="25.6494" gradientTransform="matrix(-1 0 0 -1 -1514.63 150)">
	<stop  offset="0" style="stop-color:#B6A49C"/>
	<stop  offset="1" style="stop-color:#665873"/>
</linearGradient>
<polygon class="st96" points="122.4,121.7 125.8,123.6 125.8,126.3 122.4,124.4 "/>
<path class="st1" d="M13.3,77.9v18.6l8.8,5.1v8.2c0.8,0,1.3,0.4,1.3,0.4s16.1,8.4,20.8,11.9c0.8,0.6,1.6,1.4,2.4,2.3
	c0.1,0.1,0.2,0.3,0.3,0.4c0.1,0.2,0.3,0.4,0.5,0.6l3,1.8c0.1,0,0.1,0,0.2,0c0.2,0,0.3,0.1,0.5,0.1h0c0.2,0.1,0.3,0.3,0.3,0.5
	l34.2,19.7v-27.8L13.3,77.9z"/>
</svg>
