<svg xmlns="http://www.w3.org/2000/svg" xmlns:xlink="http://www.w3.org/1999/xlink" viewBox="0 0 98.3 96.47"><defs><style>.cls-1{fill:none;}.cls-2{isolation:isolate;}.cls-3{clip-path:url(#clip-path);}.cls-138,.cls-4{mix-blend-mode:multiply;}.cls-4{fill:url(#Безымянный_градиент_70);}.cls-5{fill:#a19349;}.cls-6{fill:#c9a33b;}.cls-7{fill:url(#Безымянный_градиент_66);}.cls-8{fill:url(#Безымянный_градиент_66-2);}.cls-9{fill:url(#Безымянный_градиент_66-3);}.cls-10{fill:url(#Безымянный_градиент_66-4);}.cls-11{fill:url(#Безымянный_градиент_66-5);}.cls-12{fill:url(#Безымянный_градиент_66-6);}.cls-13{fill:url(#Безымянный_градиент_66-7);}.cls-14{fill:url(#Безымянный_градиент_66-8);}.cls-15{fill:url(#Безымянный_градиент_66-9);}.cls-16{fill:url(#Безымянный_градиент_66-10);}.cls-17{fill:url(#Безымянный_градиент_66-11);}.cls-18{fill:url(#Безымянный_градиент_66-12);}.cls-19{fill:url(#Безымянный_градиент_66-13);}.cls-20{fill:url(#Безымянный_градиент_66-14);}.cls-21{fill:url(#Безымянный_градиент_66-15);}.cls-22{fill:url(#Безымянный_градиент_66-16);}.cls-23{fill:url(#Безымянный_градиент_66-17);}.cls-24{fill:url(#Безымянный_градиент_66-18);}.cls-25{fill:url(#Безымянный_градиент_66-19);}.cls-26{fill:url(#Безымянный_градиент_66-20);}.cls-27{fill:url(#Безымянный_градиент_66-21);}.cls-28{fill:url(#Безымянный_градиент_66-22);}.cls-29{fill:url(#Безымянный_градиент_66-23);}.cls-30{fill:url(#Безымянный_градиент_66-24);}.cls-31{fill:url(#Безымянный_градиент_66-25);}.cls-32{fill:url(#Безымянный_градиент_66-26);}.cls-33{fill:url(#Безымянный_градиент_66-27);}.cls-34{fill:url(#Безымянный_градиент_66-28);}.cls-35{fill:url(#Безымянный_градиент_66-29);}.cls-36{fill:url(#Безымянный_градиент_66-30);}.cls-37{fill:url(#Безымянный_градиент_66-31);}.cls-38{fill:url(#Безымянный_градиент_66-32);}.cls-39{fill:url(#Безымянный_градиент_66-33);}.cls-40{fill:url(#Безымянный_градиент_66-34);}.cls-41{fill:url(#Безымянный_градиент_66-35);}.cls-42{fill:url(#Безымянный_градиент_66-36);}.cls-43{fill:url(#Безымянный_градиент_66-37);}.cls-44{fill:url(#Безымянный_градиент_66-38);}.cls-45{fill:url(#Безымянный_градиент_66-39);}.cls-46{fill:url(#Безымянный_градиент_66-40);}.cls-47{fill:#946f00;}.cls-48{fill:url(#Безымянный_градиент_69);}.cls-49{fill:url(#Безымянный_градиент_69-2);}.cls-50{fill:url(#Безымянный_градиент_69-3);}.cls-51{fill:url(#Безымянный_градиент_69-4);}.cls-52{fill:url(#Безымянный_градиент_69-5);}.cls-53{fill:url(#Безымянный_градиент_69-6);}.cls-54{fill:url(#Безымянный_градиент_69-7);}.cls-55{fill:url(#Безымянный_градиент_69-8);}.cls-56{fill:url(#Безымянный_градиент_69-9);}.cls-57{fill:url(#Безымянный_градиент_69-10);}.cls-58{fill:url(#Безымянный_градиент_69-11);}.cls-59{fill:url(#Безымянный_градиент_69-12);}.cls-60{fill:url(#Безымянный_градиент_69-13);}.cls-61{fill:url(#Безымянный_градиент_69-14);}.cls-62{fill:url(#Безымянный_градиент_69-15);}.cls-63{fill:url(#Безымянный_градиент_69-16);}.cls-64{fill:url(#Безымянный_градиент_69-17);}.cls-65{fill:url(#Безымянный_градиент_69-18);}.cls-66{fill:url(#Безымянный_градиент_69-19);}.cls-67{fill:url(#Безымянный_градиент_69-20);}.cls-68{fill:url(#Безымянный_градиент_69-21);}.cls-69{fill:url(#Безымянный_градиент_69-22);}.cls-70{fill:url(#Безымянный_градиент_69-23);}.cls-71{fill:url(#Безымянный_градиент_69-24);}.cls-72{fill:url(#Безымянный_градиент_69-25);}.cls-73{fill:#f9db88;}.cls-74{fill:url(#Безымянный_градиент_68);}.cls-75{fill:url(#Безымянный_градиент_68-2);}.cls-76{fill:url(#Безымянный_градиент_68-3);}.cls-77{fill:url(#Безымянный_градиент_68-4);}.cls-78{fill:url(#Безымянный_градиент_68-5);}.cls-79{fill:url(#Безымянный_градиент_68-6);}.cls-80{fill:url(#Безымянный_градиент_68-7);}.cls-81{fill:url(#Безымянный_градиент_68-8);}.cls-82{fill:url(#Безымянный_градиент_68-9);}.cls-83{fill:url(#Безымянный_градиент_68-10);}.cls-84{fill:url(#Безымянный_градиент_68-11);}.cls-85{fill:url(#Безымянный_градиент_68-12);}.cls-86{fill:url(#Безымянный_градиент_68-13);}.cls-87{fill:url(#Безымянный_градиент_68-14);}.cls-88{fill:url(#Безымянный_градиент_68-15);}.cls-89{fill:url(#Безымянный_градиент_68-16);}.cls-90{fill:url(#Безымянный_градиент_68-17);}.cls-91{fill:url(#Безымянный_градиент_68-18);}.cls-92{fill:url(#Безымянный_градиент_68-19);}.cls-93{fill:url(#Безымянный_градиент_68-20);}.cls-94{fill:url(#Безымянный_градиент_68-21);}.cls-95{fill:url(#Безымянный_градиент_68-22);}.cls-96{fill:url(#Безымянный_градиент_68-23);}.cls-97{fill:url(#Безымянный_градиент_68-24);}.cls-98{fill:url(#Безымянный_градиент_68-25);}.cls-99{fill:url(#Безымянный_градиент_68-26);}.cls-100{fill:url(#Безымянный_градиент_68-27);}.cls-101{fill:url(#Безымянный_градиент_68-28);}.cls-102{fill:url(#Безымянный_градиент_68-29);}.cls-103{fill:url(#Безымянный_градиент_68-30);}.cls-104{fill:url(#Безымянный_градиент_68-31);}.cls-105{fill:url(#Безымянный_градиент_68-32);}.cls-106{fill:url(#Безымянный_градиент_68-33);}.cls-107{fill:url(#Безымянный_градиент_68-34);}.cls-108{fill:url(#Безымянный_градиент_68-35);}.cls-109{fill:url(#Безымянный_градиент_68-36);}.cls-110{fill:url(#Безымянный_градиент_68-37);}.cls-111{fill:url(#Безымянный_градиент_68-38);}.cls-112{fill:url(#Безымянный_градиент_68-39);}.cls-113{fill:url(#Безымянный_градиент_68-40);}.cls-114,.cls-115,.cls-116,.cls-117,.cls-120,.cls-124,.cls-133,.cls-134,.cls-135{mix-blend-mode:screen;}.cls-114{fill:url(#Безымянный_градиент_65);}.cls-115{fill:url(#Безымянный_градиент_65-2);}.cls-116{fill:url(#Безымянный_градиент_65-3);}.cls-117{fill:url(#Безымянный_градиент_56);}.cls-118{fill:#72727f;}.cls-119{fill:url(#Безымянный_градиент_72);}.cls-120{fill:url(#Безымянный_градиент_71);}.cls-121{fill:#bcbcd1;}.cls-122{fill:#a1a1b3;}.cls-123{fill:#4c4b54;}.cls-124{fill:url(#Безымянный_градиент_45);}.cls-125{fill:#2a6155;}.cls-126{fill:#47a592;}.cls-127,.cls-128{mix-blend-mode:luminosity;}.cls-127{fill:url(#Безымянный_градиент_21);}.cls-128{fill:url(#Безымянный_градиент_21-2);}.cls-129{fill:#388274;}.cls-130{fill:#ada495;}.cls-131{fill:#fdfdfd;}.cls-132{fill:#e8e3d8;}.cls-133{fill:url(#Безымянный_градиент_44);}.cls-134{fill:url(#Безымянный_градиент_44-2);}.cls-135{fill:url(#Безымянный_градиент_44-3);}.cls-136{fill:#876817;}.cls-137{fill:#b99020;}.cls-138{fill:url(#Безымянный_градиент_41);}.cls-139{fill:#002d29;}.cls-140{fill:#574a35;}.cls-141{fill:#00302c;}.cls-142{fill:#5d4e38;}.cls-143{fill:#5d4f39;}.cls-144{fill:#5d4e39;}.cls-145{clip-path:url(#clip-path-2);}.cls-146{fill:#00312c;}.cls-147{fill:#002f2b;}.cls-148{clip-path:url(#clip-path-3);}.cls-149{fill:#5e4f39;}.cls-150{fill:#5a4c37;}.cls-151{fill:#a08761;}.cls-152{clip-path:url(#clip-path-4);}.cls-153{clip-path:url(#clip-path-5);}.cls-154{fill:#61523b;}.cls-155{clip-path:url(#clip-path-6);}.cls-156{clip-path:url(#clip-path-7);}.cls-157{clip-path:url(#clip-path-8);}.cls-158{clip-path:url(#clip-path-9);}.cls-159{clip-path:url(#clip-path-10);}.cls-160{fill:#00322e;}.cls-161{clip-path:url(#clip-path-11);}.cls-162{clip-path:url(#clip-path-12);}.cls-163{clip-path:url(#clip-path-13);}.cls-164{fill:#00534b;}.cls-165{clip-path:url(#clip-path-14);}.cls-166{clip-path:url(#clip-path-15);}.cls-167{clip-path:url(#clip-path-16);}.cls-168{clip-path:url(#clip-path-17);}.cls-169{clip-path:url(#clip-path-18);}.cls-170{clip-path:url(#clip-path-19);}.cls-171{clip-path:url(#clip-path-20);}.cls-172{clip-path:url(#clip-path-21);}.cls-173{clip-path:url(#clip-path-22);}.cls-174{clip-path:url(#clip-path-23);}.cls-175{clip-path:url(#clip-path-24);}.cls-176{clip-path:url(#clip-path-25);}.cls-177{clip-path:url(#clip-path-26);}.cls-178{clip-path:url(#clip-path-27);}.cls-179{clip-path:url(#clip-path-28);}.cls-180{clip-path:url(#clip-path-29);}.cls-181{clip-path:url(#clip-path-30);}.cls-182{clip-path:url(#clip-path-31);}.cls-183{clip-path:url(#clip-path-32);}.cls-184{clip-path:url(#clip-path-33);}.cls-185{clip-path:url(#clip-path-34);}.cls-186{clip-path:url(#clip-path-35);}.cls-187{clip-path:url(#clip-path-36);}.cls-188{clip-path:url(#clip-path-37);}.cls-189{clip-path:url(#clip-path-38);}.cls-190{clip-path:url(#clip-path-39);}.cls-191{clip-path:url(#clip-path-40);}.cls-192{clip-path:url(#clip-path-41);}.cls-193{clip-path:url(#clip-path-42);}.cls-194{clip-path:url(#clip-path-43);}.cls-195{clip-path:url(#clip-path-44);}.cls-196{clip-path:url(#clip-path-45);}.cls-197{clip-path:url(#clip-path-46);}.cls-198{clip-path:url(#clip-path-47);}.cls-199{clip-path:url(#clip-path-48);}</style><clipPath id="clip-path" transform="translate(-2.81 -3.78)"><path class="cls-1" d="M103,26.81,60.32,0,0,32.74V45.62L35.69,66.15V69l6.1,3.51V74h0v1.58h0v8h0v1.58h0v1.57l-6.1,3.84v2.56l10.53,6.1L48.7,97.8,49,98v.29l-2.23,1.29,1.31.76.67-.38.25.15v.29l-.41.24,2.31,1.34v.68l-7.18,4.14L46.53,108l57.26-35.43Z"/></clipPath><linearGradient id="Безымянный_градиент_70" x1="113.22" y1="67.47" x2="183.64" y2="67.47" gradientTransform="translate(-100.39 -3.78)" gradientUnits="userSpaceOnUse"><stop offset="0.05" stop-color="#8c9dc0"/><stop offset="0.4" stop-color="#8999bc"/><stop offset="0.76" stop-color="#808faf"/><stop offset="1" stop-color="#7684a2"/></linearGradient><linearGradient id="Безымянный_градиент_66" x1="145.11" y1="87.85" x2="134.83" y2="50.77" gradientTransform="translate(-100.39 -3.78)" gradientUnits="userSpaceOnUse"><stop offset="0" stop-color="#e1e892"/><stop offset="0.12" stop-color="#ddde8c"/><stop offset="0.65" stop-color="#cfb774"/><stop offset="0.93" stop-color="#c9a86b"/></linearGradient><linearGradient id="Безымянный_градиент_66-2" x1="147.13" y1="87.29" x2="136.84" y2="50.21" xlink:href="#Безымянный_градиент_66"/><linearGradient id="Безымянный_градиент_66-3" x1="149.14" y1="86.74" x2="138.86" y2="49.65" xlink:href="#Безымянный_градиент_66"/><linearGradient id="Безымянный_градиент_66-4" x1="151.16" y1="86.18" x2="140.87" y2="49.09" xlink:href="#Безымянный_градиент_66"/><linearGradient id="Безымянный_градиент_66-5" x1="153.17" y1="85.62" x2="142.89" y2="48.53" xlink:href="#Безымянный_градиент_66"/><linearGradient id="Безымянный_градиент_66-6" x1="152.55" y1="85.79" x2="142.26" y2="48.71" xlink:href="#Безымянный_градиент_66"/><linearGradient id="Безымянный_градиент_66-7" x1="154.56" y1="85.23" x2="144.27" y2="48.15" xlink:href="#Безымянный_градиент_66"/><linearGradient id="Безымянный_градиент_66-8" x1="156.58" y1="84.67" x2="146.29" y2="47.59" xlink:href="#Безымянный_градиент_66"/><linearGradient id="Безымянный_градиент_66-9" x1="158.59" y1="84.12" x2="148.3" y2="47.03" xlink:href="#Безымянный_градиент_66"/><linearGradient id="Безымянный_градиент_66-10" x1="160.61" y1="83.56" x2="150.32" y2="46.47" xlink:href="#Безымянный_градиент_66"/><linearGradient id="Безымянный_градиент_66-11" x1="159.98" y1="83.73" x2="149.69" y2="46.65" xlink:href="#Безымянный_градиент_66"/><linearGradient id="Безымянный_градиент_66-12" x1="161.99" y1="83.17" x2="151.71" y2="46.09" xlink:href="#Безымянный_градиент_66"/><linearGradient id="Безымянный_градиент_66-13" x1="164.01" y1="82.61" x2="153.72" y2="45.53" xlink:href="#Безымянный_градиент_66"/><linearGradient id="Безымянный_градиент_66-14" x1="166.02" y1="82.05" x2="155.74" y2="44.97" xlink:href="#Безымянный_градиент_66"/><linearGradient id="Безымянный_градиент_66-15" x1="168.04" y1="81.49" x2="157.75" y2="44.41" xlink:href="#Безымянный_градиент_66"/><linearGradient id="Безымянный_градиент_66-16" x1="167.41" y1="81.67" x2="157.12" y2="44.58" xlink:href="#Безымянный_градиент_66"/><linearGradient id="Безымянный_градиент_66-17" x1="169.43" y1="81.11" x2="159.14" y2="44.03" xlink:href="#Безымянный_градиент_66"/><linearGradient id="Безымянный_градиент_66-18" x1="171.44" y1="80.55" x2="161.15" y2="43.47" xlink:href="#Безымянный_градиент_66"/><linearGradient id="Безымянный_градиент_66-19" x1="173.46" y1="79.99" x2="163.17" y2="42.91" xlink:href="#Безымянный_градиент_66"/><linearGradient id="Безымянный_градиент_66-20" x1="175.47" y1="79.43" x2="165.18" y2="42.35" xlink:href="#Безымянный_градиент_66"/><linearGradient id="Безымянный_градиент_66-21" x1="174.8" y1="78.88" x2="165.74" y2="46.22" xlink:href="#Безымянный_градиент_66"/><linearGradient id="Безымянный_градиент_66-22" x1="176.86" y1="79.05" x2="166.57" y2="41.96" xlink:href="#Безымянный_градиент_66"/><linearGradient id="Безымянный_градиент_66-23" x1="178.87" y1="78.49" x2="168.59" y2="41.4" xlink:href="#Безымянный_градиент_66"/><linearGradient id="Безымянный_градиент_66-24" x1="180.89" y1="77.93" x2="170.6" y2="40.85" xlink:href="#Безымянный_градиент_66"/><linearGradient id="Безымянный_градиент_66-25" x1="182.9" y1="77.37" x2="172.62" y2="40.29" xlink:href="#Безымянный_градиент_66"/><linearGradient id="Безымянный_градиент_66-26" x1="182.17" y1="76.59" x2="173.11" y2="43.93" xlink:href="#Безымянный_градиент_66"/><linearGradient id="Безымянный_градиент_66-27" x1="184.29" y1="76.99" x2="174" y2="39.9" xlink:href="#Безымянный_градиент_66"/><linearGradient id="Безымянный_градиент_66-28" x1="186.31" y1="76.43" x2="176.02" y2="39.34" xlink:href="#Безымянный_градиент_66"/><linearGradient id="Безымянный_градиент_66-29" x1="188.32" y1="75.87" x2="178.03" y2="38.78" xlink:href="#Безымянный_градиент_66"/><linearGradient id="Безымянный_градиент_66-30" x1="190.34" y1="75.31" x2="180.05" y2="38.22" xlink:href="#Безымянный_градиент_66"/><linearGradient id="Безымянный_градиент_66-31" x1="189.71" y1="75.48" x2="179.42" y2="38.4" xlink:href="#Безымянный_градиент_66"/><linearGradient id="Безымянный_градиент_66-32" x1="191.72" y1="74.92" x2="181.44" y2="37.84" xlink:href="#Безымянный_градиент_66"/><linearGradient id="Безымянный_градиент_66-33" x1="193.74" y1="74.36" x2="183.45" y2="37.28" xlink:href="#Безымянный_градиент_66"/><linearGradient id="Безымянный_градиент_66-34" x1="195.75" y1="73.81" x2="185.47" y2="36.72" xlink:href="#Безымянный_градиент_66"/><linearGradient id="Безымянный_градиент_66-35" x1="197.77" y1="73.25" x2="187.48" y2="36.16" xlink:href="#Безымянный_градиент_66"/><linearGradient id="Безымянный_градиент_66-36" x1="197.14" y1="73.42" x2="186.85" y2="36.34" xlink:href="#Безымянный_градиент_66"/><linearGradient id="Безымянный_градиент_66-37" x1="199.16" y1="72.86" x2="188.87" y2="35.78" xlink:href="#Безымянный_градиент_66"/><linearGradient id="Безымянный_градиент_66-38" x1="201.17" y1="72.3" x2="190.88" y2="35.22" xlink:href="#Безымянный_градиент_66"/><linearGradient id="Безымянный_градиент_66-39" x1="203.19" y1="71.74" x2="192.9" y2="34.66" xlink:href="#Безымянный_градиент_66"/><linearGradient id="Безымянный_градиент_66-40" x1="205.2" y1="71.19" x2="194.91" y2="34.1" xlink:href="#Безымянный_градиент_66"/><linearGradient id="Безымянный_градиент_69" x1="-14.98" y1="87.08" x2="-25.27" y2="50" gradientTransform="matrix(-0.98, 0.01, 0, 1, 26.68, -2.79)" gradientUnits="userSpaceOnUse"><stop offset="0" stop-color="#ab8c4a"/><stop offset="0.43" stop-color="#a38640"/><stop offset="0.93" stop-color="#967c2f"/></linearGradient><linearGradient id="Безымянный_градиент_69-2" x1="-12.97" y1="86.52" x2="-23.26" y2="49.44" xlink:href="#Безымянный_градиент_69"/><linearGradient id="Безымянный_градиент_69-3" x1="-10.95" y1="85.96" x2="-21.24" y2="48.88" xlink:href="#Безымянный_градиент_69"/><linearGradient id="Безымянный_градиент_69-4" x1="-8.94" y1="85.4" x2="-19.23" y2="48.32" xlink:href="#Безымянный_градиент_69"/><linearGradient id="Безымянный_градиент_69-5" x1="-6.92" y1="84.84" x2="-17.21" y2="47.76" xlink:href="#Безымянный_градиент_69"/><linearGradient id="Безымянный_градиент_69-6" x1="-7.55" y1="85.02" x2="-17.84" y2="47.93" xlink:href="#Безымянный_градиент_69"/><linearGradient id="Безымянный_градиент_69-7" x1="-5.54" y1="84.46" x2="-15.82" y2="47.38" xlink:href="#Безымянный_градиент_69"/><linearGradient id="Безымянный_градиент_69-8" x1="-3.52" y1="83.9" x2="-13.81" y2="46.82" xlink:href="#Безымянный_градиент_69"/><linearGradient id="Безымянный_градиент_69-9" x1="-1.51" y1="83.34" x2="-11.79" y2="46.26" xlink:href="#Безымянный_градиент_69"/><linearGradient id="Безымянный_градиент_69-10" x1="0.51" y1="82.78" x2="-9.78" y2="45.7" xlink:href="#Безымянный_градиент_69"/><linearGradient id="Безымянный_градиент_69-11" x1="-0.12" y1="82.96" x2="-10.41" y2="45.87" xlink:href="#Безымянный_градиент_69"/><linearGradient id="Безымянный_градиент_69-12" x1="1.9" y1="82.4" x2="-8.39" y2="45.31" xlink:href="#Безымянный_градиент_69"/><linearGradient id="Безымянный_градиент_69-13" x1="3.91" y1="81.84" x2="-6.38" y2="44.75" xlink:href="#Безымянный_градиент_69"/><linearGradient id="Безымянный_градиент_69-14" x1="5.93" y1="81.28" x2="-4.36" y2="44.2" xlink:href="#Безымянный_градиент_69"/><linearGradient id="Безымянный_градиент_69-15" x1="7.94" y1="80.72" x2="-2.35" y2="43.64" xlink:href="#Безымянный_градиент_69"/><linearGradient id="Безымянный_градиент_69-16" x1="7.31" y1="80.89" x2="-2.97" y2="43.81" xlink:href="#Безымянный_градиент_69"/><linearGradient id="Безымянный_градиент_69-17" x1="9.33" y1="80.33" x2="-0.96" y2="43.25" xlink:href="#Безымянный_градиент_69"/><linearGradient id="Безымянный_градиент_69-18" x1="11.34" y1="79.78" x2="1.06" y2="42.69" xlink:href="#Безымянный_градиент_69"/><linearGradient id="Безымянный_градиент_69-19" x1="13.36" y1="79.22" x2="3.07" y2="42.13" xlink:href="#Безымянный_градиент_69"/><linearGradient id="Безымянный_градиент_69-20" x1="15.37" y1="78.66" x2="5.09" y2="41.57" xlink:href="#Безымянный_градиент_69"/><linearGradient id="Безымянный_градиент_69-21" x1="14.75" y1="78.83" x2="4.46" y2="41.75" xlink:href="#Безымянный_градиент_69"/><linearGradient id="Безымянный_градиент_69-22" x1="16.76" y1="78.27" x2="6.47" y2="41.19" xlink:href="#Безымянный_градиент_69"/><linearGradient id="Безымянный_градиент_69-23" x1="18.78" y1="77.71" x2="8.49" y2="40.63" xlink:href="#Безымянный_градиент_69"/><linearGradient id="Безымянный_градиент_69-24" x1="20.79" y1="77.15" x2="10.5" y2="40.07" xlink:href="#Безымянный_градиент_69"/><linearGradient id="Безымянный_градиент_69-25" x1="22.81" y1="76.6" x2="12.52" y2="39.51" xlink:href="#Безымянный_градиент_69"/><linearGradient id="Безымянный_градиент_68" x1="1076.59" y1="2105.09" x2="1066.3" y2="2068.01" gradientTransform="matrix(0.5, -0.87, -0.87, -0.5, 1305.29, 2027.09)" gradientUnits="userSpaceOnUse"><stop offset="0.07" stop-color="#f0cc60"/><stop offset="0.2" stop-color="#f3cd68"/><stop offset="0.7" stop-color="#fcd282"/><stop offset="1" stop-color="#ffd48c"/></linearGradient><linearGradient id="Безымянный_градиент_68-2" x1="1078.6" y1="2104.53" x2="1068.31" y2="2067.45" xlink:href="#Безымянный_градиент_68"/><linearGradient id="Безымянный_градиент_68-3" x1="1080.62" y1="2103.97" x2="1070.33" y2="2066.89" xlink:href="#Безымянный_градиент_68"/><linearGradient id="Безымянный_градиент_68-4" x1="1082.63" y1="2103.41" x2="1072.34" y2="2066.33" xlink:href="#Безымянный_градиент_68"/><linearGradient id="Безымянный_градиент_68-5" x1="1084.65" y1="2102.86" x2="1074.36" y2="2065.77" xlink:href="#Безымянный_градиент_68"/><linearGradient id="Безымянный_градиент_68-6" x1="1084.02" y1="2103.03" x2="1073.73" y2="2065.95" xlink:href="#Безымянный_градиент_68"/><linearGradient id="Безымянный_градиент_68-7" x1="1086.03" y1="2102.47" x2="1075.75" y2="2065.39" xlink:href="#Безымянный_градиент_68"/><linearGradient id="Безымянный_градиент_68-8" x1="1088.05" y1="2101.91" x2="1077.76" y2="2064.83" xlink:href="#Безымянный_градиент_68"/><linearGradient id="Безымянный_градиент_68-9" x1="1090.06" y1="2101.35" x2="1079.78" y2="2064.27" xlink:href="#Безымянный_градиент_68"/><linearGradient id="Безымянный_градиент_68-10" x1="1092.08" y1="2100.79" x2="1081.79" y2="2063.71" xlink:href="#Безымянный_градиент_68"/><linearGradient id="Безымянный_градиент_68-11" x1="1091.45" y1="2100.97" x2="1081.16" y2="2063.88" xlink:href="#Безымянный_градиент_68"/><linearGradient id="Безымянный_градиент_68-12" x1="1093.47" y1="2100.41" x2="1083.18" y2="2063.33" xlink:href="#Безымянный_градиент_68"/><linearGradient id="Безымянный_градиент_68-13" x1="1095.48" y1="2099.85" x2="1085.19" y2="2062.77" xlink:href="#Безымянный_градиент_68"/><linearGradient id="Безымянный_градиент_68-14" x1="1097.5" y1="2099.29" x2="1087.21" y2="2062.21" xlink:href="#Безымянный_градиент_68"/><linearGradient id="Безымянный_градиент_68-15" x1="1099.51" y1="2098.73" x2="1089.22" y2="2061.65" xlink:href="#Безымянный_градиент_68"/><linearGradient id="Безымянный_градиент_68-16" x1="1098.88" y1="2098.91" x2="1088.6" y2="2061.82" xlink:href="#Безымянный_градиент_68"/><linearGradient id="Безымянный_градиент_68-17" x1="1100.9" y1="2098.35" x2="1090.61" y2="2061.26" xlink:href="#Безымянный_градиент_68"/><linearGradient id="Безымянный_градиент_68-18" x1="1102.91" y1="2097.79" x2="1092.63" y2="2060.7" xlink:href="#Безымянный_градиент_68"/><linearGradient id="Безымянный_градиент_68-19" x1="1104.93" y1="2097.23" x2="1094.64" y2="2060.15" xlink:href="#Безымянный_градиент_68"/><linearGradient id="Безымянный_градиент_68-20" x1="1106.95" y1="2096.67" x2="1096.66" y2="2059.59" xlink:href="#Безымянный_градиент_68"/><linearGradient id="Безымянный_градиент_68-21" x1="1106.32" y1="2096.84" x2="1096.03" y2="2059.76" xlink:href="#Безымянный_градиент_68"/><linearGradient id="Безымянный_градиент_68-22" x1="1108.33" y1="2096.29" x2="1098.04" y2="2059.2" xlink:href="#Безымянный_градиент_68"/><linearGradient id="Безымянный_градиент_68-23" x1="1110.35" y1="2095.73" x2="1100.06" y2="2058.64" xlink:href="#Безымянный_градиент_68"/><linearGradient id="Безымянный_градиент_68-24" x1="1112.36" y1="2095.17" x2="1102.08" y2="2058.08" xlink:href="#Безымянный_градиент_68"/><linearGradient id="Безымянный_градиент_68-25" x1="1114.38" y1="2094.61" x2="1104.09" y2="2057.52" xlink:href="#Безымянный_градиент_68"/><linearGradient id="Безымянный_градиент_68-26" x1="1113.75" y1="2094.78" x2="1103.46" y2="2057.7" xlink:href="#Безымянный_градиент_68"/><linearGradient id="Безымянный_градиент_68-27" x1="1115.77" y1="2094.22" x2="1105.48" y2="2057.14" xlink:href="#Безымянный_градиент_68"/><linearGradient id="Безымянный_градиент_68-28" x1="1117.78" y1="2093.66" x2="1107.49" y2="2056.58" xlink:href="#Безымянный_градиент_68"/><linearGradient id="Безымянный_градиент_68-29" x1="1119.8" y1="2093.1" x2="1109.51" y2="2056.02" xlink:href="#Безымянный_градиент_68"/><linearGradient id="Безымянный_градиент_68-30" x1="1121.81" y1="2092.55" x2="1111.52" y2="2055.46" xlink:href="#Безымянный_градиент_68"/><linearGradient id="Безымянный_градиент_68-31" x1="1121.18" y1="2092.72" x2="1110.89" y2="2055.64" xlink:href="#Безымянный_градиент_68"/><linearGradient id="Безымянный_градиент_68-32" x1="1123.2" y1="2092.16" x2="1112.91" y2="2055.08" xlink:href="#Безымянный_градиент_68"/><linearGradient id="Безымянный_градиент_68-33" x1="1125.21" y1="2091.6" x2="1114.93" y2="2054.52" xlink:href="#Безымянный_градиент_68"/><linearGradient id="Безымянный_градиент_68-34" x1="1127.23" y1="2091.04" x2="1116.94" y2="2053.96" xlink:href="#Безымянный_градиент_68"/><linearGradient id="Безымянный_градиент_68-35" x1="1129.24" y1="2090.48" x2="1118.96" y2="2053.4" xlink:href="#Безымянный_градиент_68"/><linearGradient id="Безымянный_градиент_68-36" x1="1128.62" y1="2090.66" x2="1118.33" y2="2053.58" xlink:href="#Безымянный_градиент_68"/><linearGradient id="Безымянный_градиент_68-37" x1="1130.63" y1="2090.1" x2="1120.34" y2="2053.02" xlink:href="#Безымянный_градиент_68"/><linearGradient id="Безымянный_градиент_68-38" x1="1132.65" y1="2089.54" x2="1122.36" y2="2052.46" xlink:href="#Безымянный_градиент_68"/><linearGradient id="Безымянный_градиент_68-39" x1="1134.66" y1="2088.98" x2="1124.37" y2="2051.9" xlink:href="#Безымянный_градиент_68"/><linearGradient id="Безымянный_градиент_68-40" x1="1136.68" y1="2088.42" x2="1126.39" y2="2051.34" xlink:href="#Безымянный_градиент_68"/><linearGradient id="Безымянный_градиент_65" x1="152.35" y1="83.37" x2="145.1" y2="50.47" gradientTransform="translate(-100.39 -3.78)" gradientUnits="userSpaceOnUse"><stop offset="0" stop-color="#b1933e"/><stop offset="0.71" stop-color="#ad8b34"/><stop offset="0.93" stop-color="#ab8830"/></linearGradient><linearGradient id="Безымянный_градиент_65-2" x1="194.48" y1="87.37" x2="187.39" y2="55.16" xlink:href="#Безымянный_градиент_65"/><linearGradient id="Безымянный_градиент_65-3" x1="171.22" y1="86.15" x2="163.79" y2="52.43" xlink:href="#Безымянный_градиент_65"/><linearGradient id="Безымянный_градиент_56" x1="142.96" y1="54.94" x2="169.7" y2="101.26" gradientTransform="translate(-100.39 -3.78)" gradientUnits="userSpaceOnUse"><stop offset="0" stop-color="#685a1f"/><stop offset="0.44" stop-color="#72641e"/><stop offset="0.93" stop-color="#82741d"/></linearGradient><linearGradient id="Безымянный_градиент_72" x1="177.47" y1="79.23" x2="170.99" y2="68" gradientTransform="translate(-100.39 -3.78)" gradientUnits="userSpaceOnUse"><stop offset="0" stop-color="#ffeaa3"/><stop offset="0.14" stop-color="#f9e597"/><stop offset="0.66" stop-color="#e7d570"/><stop offset="0.93" stop-color="#e0cf61"/></linearGradient><linearGradient id="Безымянный_градиент_71" x1="173.1" y1="88.34" x2="174.04" y2="71.68" gradientTransform="translate(-100.39 -3.78)" gradientUnits="userSpaceOnUse"><stop offset="0" stop-color="#9e9447"/><stop offset="0.54" stop-color="#998e3d"/><stop offset="0.93" stop-color="#948733"/></linearGradient><linearGradient id="Безымянный_градиент_45" x1="165.47" y1="66.9" x2="188.49" y2="27.04" gradientTransform="translate(-100.39 -3.78)" gradientUnits="userSpaceOnUse"><stop offset="0" stop-color="#99488f"/><stop offset="0.17" stop-color="#974c85"/><stop offset="0.46" stop-color="#90566b"/><stop offset="0.82" stop-color="#856640"/><stop offset="0.93" stop-color="#826b32"/></linearGradient><linearGradient id="Безымянный_градиент_21" x1="162.93" y1="76.25" x2="164.12" y2="76.25" gradientTransform="translate(-100.39 -3.78)" gradientUnits="userSpaceOnUse"><stop offset="0" stop-color="#8a8166"/><stop offset="0.21" stop-color="#807f66"/><stop offset="0.58" stop-color="#667a68"/><stop offset="0.93" stop-color="#467369"/></linearGradient><linearGradient id="Безымянный_градиент_21-2" x1="162.93" y1="58.49" x2="185" y2="58.49" xlink:href="#Безымянный_градиент_21"/><linearGradient id="Безымянный_градиент_44" x1="122.09" y1="-17.13" x2="143.14" y2="48.74" gradientTransform="translate(-100.39 -3.78)" gradientUnits="userSpaceOnUse"><stop offset="0" stop-color="#7f5f09"/><stop offset="0.27" stop-color="#896811"/><stop offset="0.73" stop-color="#a38027"/><stop offset="0.93" stop-color="#b18d33"/></linearGradient><linearGradient id="Безымянный_градиент_44-2" x1="161.2" y1="-29.64" x2="182.26" y2="36.24" xlink:href="#Безымянный_градиент_44"/><linearGradient id="Безымянный_градиент_44-3" x1="139.5" y1="-22.7" x2="160.55" y2="43.17" xlink:href="#Безымянный_градиент_44"/><linearGradient id="Безымянный_градиент_41" x1="166.07" y1="72.68" x2="181.28" y2="72.68" gradientTransform="translate(-100.39 -3.78)" gradientUnits="userSpaceOnUse"><stop offset="0.05" stop-color="#9e9e9e"/><stop offset="0.33" stop-color="#9a9a9a"/><stop offset="0.62" stop-color="#8d8d8d"/><stop offset="0.91" stop-color="#787878"/><stop offset="1" stop-color="#707070"/></linearGradient><clipPath id="clip-path-2" transform="translate(-2.81 -3.78)"><path class="cls-1" d="M81.18,50.52H80.7c.53-.29.54-.81.55-1.56h.49C81.73,49.71,81.72,50.23,81.18,50.52Z"/></clipPath><clipPath id="clip-path-3" transform="translate(-2.81 -3.78)"><path class="cls-1" d="M81.18,50.22H80.7C81,50,81,49.61,81,49.1h.48C81.51,49.61,81.52,50,81.18,50.22Z"/></clipPath><clipPath id="clip-path-4" transform="translate(-2.81 -3.78)"><path class="cls-1" d="M79.31,50.85h-.48c0-.27-.08-.43-.24-.43h.49C79.24,50.42,79.31,50.58,79.31,50.85Z"/></clipPath><clipPath id="clip-path-5" transform="translate(-2.81 -3.78)"><path class="cls-1" d="M79,50.44h-.49l.1,0h.49Z"/></clipPath><clipPath id="clip-path-6" transform="translate(-2.81 -3.78)"><path class="cls-1" d="M79,50.44h-.49a.93.93,0,0,0,.21-.62h.49A.93.93,0,0,1,79,50.44Z"/></clipPath><clipPath id="clip-path-7" transform="translate(-2.81 -3.78)"><path class="cls-1" d="M79.19,49.82H78.7c0-.28-.06-.45-.23-.45H79C79.13,49.37,79.19,49.54,79.19,49.82Z"/></clipPath><clipPath id="clip-path-8" transform="translate(-2.81 -3.78)"><path class="cls-1" d="M78.71,52h-.48a1.24,1.24,0,0,0,.6-1.14h.48A1.22,1.22,0,0,1,78.71,52Z"/></clipPath><clipPath id="clip-path-9" transform="translate(-2.81 -3.78)"><path class="cls-1" d="M78.72,51.68h-.48a.72.72,0,0,0,.35-.68c0-.21,0-.29-.14-.29h.49c.09,0,.14.08.14.29A.71.71,0,0,1,78.72,51.68Z"/></clipPath><clipPath id="clip-path-10" transform="translate(-2.81 -3.78)"><path class="cls-1" d="M78.73,50.79h-.49a.43.43,0,0,1,.21-.08h.49A.43.43,0,0,0,78.73,50.79Z"/></clipPath><clipPath id="clip-path-11" transform="translate(-2.81 -3.78)"><path class="cls-1" d="M78.67,50.52h-.49a.64.64,0,0,0,.3-.56q0-.27-.12-.27h.49q.12,0,.12.27A.64.64,0,0,1,78.67,50.52Z"/></clipPath><clipPath id="clip-path-12" transform="translate(-2.81 -3.78)"><path class="cls-1" d="M78.36,49.69h.49a.29.29,0,0,0-.15.06h-.49A.29.29,0,0,1,78.36,49.69Z"/></clipPath><clipPath id="clip-path-13" transform="translate(-2.81 -3.78)"><path class="cls-1" d="M78.7,49.46h-.49a.54.54,0,0,1,.26-.09H79A.54.54,0,0,0,78.7,49.46Z"/></clipPath><clipPath id="clip-path-14" transform="translate(-2.81 -3.78)"><path class="cls-1" d="M77,53h-.49a.72.72,0,0,0,.36-.14,1.06,1.06,0,0,0,.57-1.13h.49a1.06,1.06,0,0,1-.57,1.13A.75.75,0,0,1,77,53Z"/></clipPath><clipPath id="clip-path-15" transform="translate(-2.81 -3.78)"><path class="cls-1" d="M77.93,50.64h-.49c0-.34,0-.53-.22-.53h.49C77.88,50.11,77.93,50.3,77.93,50.64Z"/></clipPath><clipPath id="clip-path-16" transform="translate(-2.81 -3.78)"><path class="cls-1" d="M77.71,50.76h-.49c0-.2,0-.32-.13-.32h.49C77.69,50.44,77.71,50.56,77.71,50.76Z"/></clipPath><clipPath id="clip-path-17" transform="translate(-2.81 -3.78)"><path class="cls-1" d="M77.36,52.52h-.49c.31-.18.36-.31.36-.71h.48C77.71,52.21,77.67,52.34,77.36,52.52Z"/></clipPath><clipPath id="clip-path-18" transform="translate(-2.81 -3.78)"><path class="cls-1" d="M77.14,52.6h-.48a.51.51,0,0,0,.21-.08h.49A.59.59,0,0,1,77.14,52.6Z"/></clipPath><clipPath id="clip-path-19" transform="translate(-2.81 -3.78)"><path class="cls-1" d="M77.14,52.6h-.48c-.12,0-.15-.15-.15-.42H77C77,52.45,77,52.6,77.14,52.6Z"/></clipPath><clipPath id="clip-path-20" transform="translate(-2.81 -3.78)"><path class="cls-1" d="M76.87,50.53a.5.5,0,0,1,.22-.09h.49a.5.5,0,0,0-.22.09c-.32.2-.36.38-.36.77h-.49C76.51,50.91,76.55,50.73,76.87,50.53Z"/></clipPath><clipPath id="clip-path-21" transform="translate(-2.81 -3.78)"><path class="cls-1" d="M77,53h-.49c-.2,0-.23-.25-.23-.64h.49C76.77,52.7,76.79,53,77,53Z"/></clipPath><clipPath id="clip-path-22" transform="translate(-2.81 -3.78)"><path class="cls-1" d="M76.77,51.45h-.49a1.17,1.17,0,0,1,.59-1.21.76.76,0,0,1,.35-.13h.49a.72.72,0,0,0-.35.13A1.17,1.17,0,0,0,76.77,51.45Z"/></clipPath><clipPath id="clip-path-23" transform="translate(-2.81 -3.78)"><path class="cls-1" d="M76,54.52h-.49a1.11,1.11,0,0,1,.34-.08h.49A1.05,1.05,0,0,0,76,54.52Z"/></clipPath><clipPath id="clip-path-24" transform="translate(-2.81 -3.78)"><path class="cls-1" d="M75.74,54.64h-.49l.27-.12H76A1.59,1.59,0,0,0,75.74,54.64Z"/></clipPath><clipPath id="clip-path-25" transform="translate(-2.81 -3.78)"><path class="cls-1" d="M75.66,54.69h-.48l.07,0h.49Z"/></clipPath><clipPath id="clip-path-26" transform="translate(-2.81 -3.78)"><path class="cls-1" d="M75.52,54.77H75l.14-.08h.48Z"/></clipPath><clipPath id="clip-path-27" transform="translate(-2.81 -3.78)"><path class="cls-1" d="M75.32,54.92h-.48l.2-.15h.48Z"/></clipPath><clipPath id="clip-path-28" transform="translate(-2.81 -3.78)"><path class="cls-1" d="M75,55.26H74.5a2.18,2.18,0,0,1,.34-.34h.48A2.69,2.69,0,0,0,75,55.26Z"/></clipPath><clipPath id="clip-path-29" transform="translate(-2.81 -3.78)"><path class="cls-1" d="M73.77,53.66h-.49a.38.38,0,0,0,.17-.06h.48A.32.32,0,0,1,73.77,53.66Z"/></clipPath><clipPath id="clip-path-30" transform="translate(-2.81 -3.78)"><path class="cls-1" d="M73.65,54h-.48a.2.2,0,0,0,.1,0h.49A.23.23,0,0,1,73.65,54Z"/></clipPath><clipPath id="clip-path-31" transform="translate(-2.81 -3.78)"><path class="cls-1" d="M73.77,53.66h-.49c-.09,0-.13-.09-.13-.32h.49C73.64,53.57,73.68,53.66,73.77,53.66Z"/></clipPath><clipPath id="clip-path-32" transform="translate(-2.81 -3.78)"><path class="cls-1" d="M73.64,53.17h-.49a.55.55,0,0,1,.3-.57h.48A.54.54,0,0,0,73.64,53.17Z"/></clipPath><clipPath id="clip-path-33" transform="translate(-2.81 -3.78)"><path class="cls-1" d="M73.65,54h-.48c-.2,0-.25-.22-.25-.53h.49C73.41,53.78,73.46,54,73.65,54Z"/></clipPath><clipPath id="clip-path-34" transform="translate(-2.81 -3.78)"><path class="cls-1" d="M73.41,53.31h-.49a1.06,1.06,0,0,1,.53-1h.48A1.07,1.07,0,0,0,73.41,53.31Z"/></clipPath><clipPath id="clip-path-35" transform="translate(-2.81 -3.78)"><path class="cls-1" d="M71.47,56H71a2.57,2.57,0,0,0,.17-1h.49A2.41,2.41,0,0,1,71.47,56Z"/></clipPath><clipPath id="clip-path-36" transform="translate(-2.81 -3.78)"><path class="cls-1" d="M71.2,56.18h-.48a2.08,2.08,0,0,0,.21-1h.49A2.09,2.09,0,0,1,71.2,56.18Z"/></clipPath><clipPath id="clip-path-37" transform="translate(-2.81 -3.78)"><path class="cls-1" d="M70.46,55.75H70c0-.23.07-.47.13-.7h.49C70.54,55.28,70.51,55.52,70.46,55.75Z"/></clipPath><clipPath id="clip-path-38" transform="translate(-2.81 -3.78)"><path class="cls-1" d="M70,57.16h-.49c.27,0,.43-.21.51-.65h.49C70.4,57,70.25,57.15,70,57.16Z"/></clipPath><clipPath id="clip-path-39" transform="translate(-2.81 -3.78)"><path class="cls-1" d="M70,56.87h-.49c.11,0,.2,0,.26-.32h.49C70.22,56.83,70.13,56.86,70,56.87Z"/></clipPath><clipPath id="clip-path-40" transform="translate(-2.81 -3.78)"><path class="cls-1" d="M67.7,58.51h-.49a.79.79,0,0,0,.36-.13,1.09,1.09,0,0,0,.57-1.14h.49a1.09,1.09,0,0,1-.57,1.14A.82.82,0,0,1,67.7,58.51Z"/></clipPath><clipPath id="clip-path-41" transform="translate(-2.81 -3.78)"><path class="cls-1" d="M68.63,56.19h-.49c0-.33,0-.52-.23-.52h.49C68.58,55.67,68.62,55.86,68.63,56.19Z"/></clipPath><clipPath id="clip-path-42" transform="translate(-2.81 -3.78)"><path class="cls-1" d="M68.4,56.32h-.48c0-.2,0-.32-.13-.32h.49C68.38,56,68.4,56.12,68.4,56.32Z"/></clipPath><clipPath id="clip-path-43" transform="translate(-2.81 -3.78)"><path class="cls-1" d="M68.06,55.8h-.49a.73.73,0,0,1,.34-.13h.49A.73.73,0,0,0,68.06,55.8Z"/></clipPath><clipPath id="clip-path-44" transform="translate(-2.81 -3.78)"><path class="cls-1" d="M67.84,58.16h-.49a.45.45,0,0,0,.22-.08c.3-.19.36-.31.36-.71h.48c0,.4,0,.52-.35.71A.45.45,0,0,1,67.84,58.16Z"/></clipPath><clipPath id="clip-path-45" transform="translate(-2.81 -3.78)"><path class="cls-1" d="M67.84,58.16h-.49c-.12,0-.15-.15-.15-.42h.49C67.69,58,67.72,58.16,67.84,58.16Z"/></clipPath><clipPath id="clip-path-46" transform="translate(-2.81 -3.78)"><path class="cls-1" d="M67.69,56.86H67.2c0-.4,0-.58.37-.77a.5.5,0,0,1,.22-.09h.49a.5.5,0,0,0-.22.09C67.73,56.28,67.69,56.46,67.69,56.86Z"/></clipPath><clipPath id="clip-path-47" transform="translate(-2.81 -3.78)"><path class="cls-1" d="M67.7,58.51h-.49c-.21,0-.23-.25-.23-.65h.49C67.47,58.26,67.49,58.51,67.7,58.51Z"/></clipPath><clipPath id="clip-path-48" transform="translate(-2.81 -3.78)"><path class="cls-1" d="M67.47,57H67a1.17,1.17,0,0,1,.59-1.21h.49A1.17,1.17,0,0,0,67.47,57Z"/></clipPath></defs><g class="cls-2"><g id="Слой_2" data-name="Слой 2"><g id="Layer_1" data-name="Layer 1"><g class="cls-3"><polygon class="cls-4" points="12.83 50.47 58.94 76.91 83.25 74.6 80.58 61.81 12.83 50.47"/><polygon class="cls-5" points="64.48 4.94 64.48 44.25 64.08 44.49 64.08 5.18 64.48 4.94"/><polygon class="cls-6" points="98.3 25.24 98.3 64.55 85.8 71.77 83.25 73.24 82.08 73.92 82.06 73.91 82.03 73.89 81.86 73.79 80.87 73.22 80.58 73.39 79.53 73.99 77.71 75.05 77.38 75.24 76.27 75.88 76.27 75.88 75.98 76.05 75.98 76.04 71.67 78.53 71.67 78.54 71.39 78.71 71.39 78.7 70.81 79.03 70.48 79.22 69.25 79.93 67.48 80.95 67.48 82.35 64.93 83.82 63.77 84.49 43.01 96.47 43.01 57.16 46.57 55.11 57.8 48.63 64.08 45 64.39 44.82 72.67 40.04 82.97 34.1 94.19 27.62 98.3 25.24"/><polygon class="cls-7" points="49.78 84.76 43.21 88.55 43.21 96.09 49.78 92.3 49.78 84.76"/><polygon class="cls-8" points="49.78 76.94 43.21 80.73 43.21 88.27 49.78 84.48 49.78 76.94"/><polygon class="cls-9" points="49.78 69.11 43.21 72.91 43.21 80.45 49.78 76.65 49.78 69.11"/><polygon class="cls-10" points="49.78 61.29 43.21 65.08 43.21 72.63 49.78 68.83 49.78 61.29"/><polygon class="cls-11" points="49.78 53.47 43.21 57.26 43.21 64.8 49.78 61.01 49.78 53.47"/><polygon class="cls-12" points="56.68 80.78 50.11 84.57 50.11 92.11 56.68 88.32 56.68 80.78"/><polygon class="cls-13" points="56.68 72.95 50.11 76.75 50.11 84.29 56.68 80.5 56.68 72.95"/><polygon class="cls-14" points="56.68 65.13 50.11 68.92 50.11 76.47 56.68 72.67 56.68 65.13"/><polygon class="cls-15" points="56.68 57.31 50.11 61.1 50.11 68.64 56.68 64.85 56.68 57.31"/><polygon class="cls-16" points="56.68 49.48 50.11 53.28 50.11 60.82 56.68 57.03 56.68 49.48"/><polygon class="cls-17" points="63.58 76.79 57.01 80.59 57.01 88.13 63.58 84.33 63.58 76.79"/><polygon class="cls-18" points="63.58 68.97 57.01 72.77 57.01 80.31 63.58 76.51 63.58 68.97"/><polygon class="cls-19" points="63.58 61.15 57.01 64.94 57.01 72.48 63.58 68.69 63.58 61.15"/><polygon class="cls-20" points="63.58 53.33 57.01 57.12 57.01 64.66 63.58 60.87 63.58 53.33"/><polygon class="cls-21" points="63.58 45.5 57.01 49.3 57.01 56.84 63.58 53.04 63.58 45.5"/><polygon class="cls-22" points="70.48 72.81 70.48 79.22 69.25 79.93 67.48 80.95 67.48 82.08 64.93 83.55 63.91 84.15 63.91 76.61 64.93 76.01 66.5 75.11 66.79 74.94 67.48 74.54 69.83 73.19 70.18 72.98 70.48 72.81"/><polygon class="cls-23" points="70.48 64.99 63.91 68.78 63.91 76.32 70.48 72.53 70.48 64.99"/><polygon class="cls-24" points="70.48 57.17 63.91 60.96 63.91 68.5 70.48 64.71 70.48 57.17"/><polygon class="cls-25" points="70.48 49.34 63.91 53.14 63.91 60.68 70.48 56.88 70.48 49.34"/><polygon class="cls-26" points="70.48 41.52 63.91 45.31 63.91 52.85 70.48 49.06 70.48 41.52"/><polygon class="cls-27" points="77.38 68.83 77.38 75.24 76.27 75.88 76.27 75.88 75.98 76.05 75.98 76.04 71.67 78.53 71.67 78.54 71.39 78.71 71.39 78.7 70.81 79.03 70.81 72.63 71.08 72.47 71.39 72.29 71.67 72.12 75.68 69.81 75.98 69.63 76.27 69.47 76.73 69.2 77.38 68.83"/><polygon class="cls-28" points="77.38 61.01 70.81 64.8 70.81 72.34 77.38 68.55 77.38 61.01"/><polygon class="cls-29" points="77.38 53.18 70.81 56.98 70.81 64.52 77.38 60.72 77.38 53.18"/><polygon class="cls-30" points="77.38 45.36 70.81 49.16 70.81 56.7 77.38 52.9 77.38 45.36"/><polygon class="cls-31" points="77.38 37.54 70.81 41.33 70.81 48.87 77.38 45.08 77.38 37.54"/><polygon class="cls-32" points="84.28 64.85 84.28 72.39 83.25 72.98 82.06 73.67 81.86 73.79 80.87 73.22 80.58 73.39 79.53 73.99 77.71 75.05 77.71 68.64 80.11 67.25 80.28 67.16 80.58 66.98 80.87 66.82 82.06 66.13 83.25 65.44 84.28 64.85"/><polygon class="cls-33" points="84.28 57.02 77.7 60.82 77.7 68.36 84.28 64.56 84.28 57.02"/><polygon class="cls-34" points="84.28 49.2 77.7 52.99 77.7 60.54 84.28 56.74 84.28 49.2"/><polygon class="cls-35" points="84.28 41.38 77.7 45.17 77.7 52.71 84.28 48.92 84.28 41.38"/><polygon class="cls-36" points="84.28 33.55 77.7 37.35 77.7 44.89 84.28 41.1 84.28 33.55"/><polygon class="cls-37" points="91.18 60.86 84.61 64.66 84.61 72.2 91.18 68.41 91.18 60.86"/><polygon class="cls-38" points="91.18 53.04 84.61 56.84 84.61 64.38 91.18 60.58 91.18 53.04"/><polygon class="cls-39" points="91.18 45.22 84.61 49.01 84.61 56.55 91.18 52.76 91.18 45.22"/><polygon class="cls-40" points="91.18 37.4 84.61 41.19 84.61 48.73 91.18 44.94 91.18 37.4"/><polygon class="cls-41" points="91.18 29.57 84.61 33.37 84.61 40.91 91.18 37.11 91.18 29.57"/><polygon class="cls-42" points="98.08 56.88 91.5 60.68 91.5 68.22 98.08 64.42 98.08 56.88"/><polygon class="cls-43" points="98.08 49.06 91.5 52.85 91.5 60.4 98.08 56.6 98.08 49.06"/><polygon class="cls-44" points="98.08 41.24 91.5 45.03 91.5 52.57 98.08 48.78 98.08 41.24"/><polygon class="cls-45" points="98.08 33.41 91.5 37.21 91.5 44.75 98.08 40.95 98.08 33.41"/><polygon class="cls-46" points="98.08 25.59 91.5 29.38 91.5 36.93 98.08 33.13 98.08 25.59"/><polygon class="cls-47" points="8.97 37.51 43.01 57.16 43.01 96.47 8.97 76.82 8.97 37.51"/><polygon class="cls-48" points="36.39 84.85 42.82 88.55 42.82 96.09 36.39 92.39 36.39 84.85"/><polygon class="cls-49" points="36.39 77.02 42.82 80.73 42.82 88.27 36.39 84.56 36.39 77.02"/><polygon class="cls-50" points="36.39 69.2 42.82 72.91 42.82 80.45 36.39 76.74 36.39 69.2"/><polygon class="cls-51" points="36.39 61.38 42.82 65.08 42.82 72.63 36.39 68.92 36.39 61.38"/><polygon class="cls-52" points="36.39 53.55 42.82 57.26 42.82 64.8 36.39 61.1 36.39 53.55"/><polygon class="cls-53" points="29.65 80.96 36.07 84.66 36.07 92.2 29.65 88.5 29.65 80.96"/><polygon class="cls-54" points="29.65 73.13 36.07 76.84 36.07 84.38 29.65 80.67 29.65 73.13"/><polygon class="cls-55" points="29.65 65.31 36.07 69.02 36.07 76.56 29.65 72.85 29.65 65.31"/><polygon class="cls-56" points="29.65 57.49 36.07 61.19 36.07 68.73 29.65 65.03 29.65 57.49"/><polygon class="cls-57" points="29.65 49.66 36.07 53.37 36.07 60.91 29.65 57.21 29.65 49.66"/><polygon class="cls-58" points="22.9 77.07 29.33 80.77 29.33 88.31 22.9 84.61 22.9 77.07"/><polygon class="cls-59" points="22.9 69.24 29.33 72.95 29.33 80.49 22.9 76.78 22.9 69.24"/><polygon class="cls-60" points="22.9 61.42 29.33 65.13 29.33 72.67 22.9 68.96 22.9 61.42"/><polygon class="cls-61" points="22.9 53.6 29.33 57.3 29.33 64.85 22.9 61.14 22.9 53.6"/><polygon class="cls-62" points="22.9 45.77 29.33 49.48 29.33 57.02 22.9 53.32 22.9 45.77"/><polygon class="cls-63" points="16.15 73.18 22.58 76.88 22.58 84.42 16.15 80.72 16.15 73.18"/><polygon class="cls-64" points="16.15 65.36 22.58 69.06 22.58 76.6 16.15 72.9 16.15 65.36"/><polygon class="cls-65" points="16.15 57.53 22.58 61.24 22.58 68.78 16.15 65.07 16.15 57.53"/><polygon class="cls-66" points="16.15 49.71 22.58 53.41 22.58 60.96 16.15 57.25 16.15 49.71"/><polygon class="cls-67" points="16.15 41.89 22.58 45.59 22.58 53.13 16.15 49.43 16.15 41.89"/><polygon class="cls-68" points="9.41 69.29 15.83 72.99 15.83 80.53 9.41 76.83 9.41 69.29"/><polygon class="cls-69" points="9.41 61.47 15.83 65.17 15.83 72.71 9.41 69.01 9.41 61.47"/><polygon class="cls-70" points="9.41 53.64 15.83 57.35 15.83 64.89 9.41 61.18 9.41 53.64"/><polygon class="cls-71" points="9.41 45.82 15.83 49.52 15.83 57.07 9.41 53.36 9.41 45.82"/><polygon class="cls-72" points="9.41 38 15.83 41.7 15.83 49.24 9.41 45.54 9.41 38"/><polygon class="cls-73" points="98.3 25.24 43.02 57.16 8.97 37.51 64.26 5.59 98.3 25.24"/><polygon class="cls-74" points="22.5 37.51 15.93 41.3 9.4 37.53 15.97 33.74 22.5 37.51"/><polygon class="cls-75" points="29.27 41.42 22.7 45.21 16.17 41.44 22.74 37.65 29.27 41.42"/><polygon class="cls-76" points="36.05 45.33 29.48 49.12 22.95 45.35 29.52 41.56 36.05 45.33"/><polygon class="cls-77" points="42.82 49.24 36.25 53.04 29.72 49.27 36.29 45.47 42.82 49.24"/><polygon class="cls-78" points="49.6 53.15 43.03 56.95 36.5 53.18 43.07 49.38 49.6 53.15"/><polygon class="cls-79" points="29.4 33.52 22.83 37.32 16.3 33.55 22.87 29.75 29.4 33.52"/><polygon class="cls-80" points="36.17 37.44 29.6 41.23 23.07 37.46 29.64 33.66 36.17 37.44"/><polygon class="cls-81" points="42.95 41.35 36.38 45.14 29.84 41.37 36.42 37.58 42.95 41.35"/><polygon class="cls-82" points="49.72 45.26 43.15 49.05 36.62 45.28 43.19 41.49 49.72 45.26"/><polygon class="cls-83" points="56.5 49.17 49.93 52.96 43.4 49.19 49.97 45.4 56.5 49.17"/><polygon class="cls-84" points="36.3 29.54 29.73 33.33 23.19 29.56 29.77 25.77 36.3 29.54"/><polygon class="cls-85" points="43.07 33.45 36.5 37.24 29.97 33.47 36.54 29.68 43.07 33.45"/><polygon class="cls-86" points="49.85 37.36 43.27 41.16 36.74 37.39 43.32 33.59 49.85 37.36"/><polygon class="cls-87" points="56.62 41.27 50.05 45.07 43.52 41.3 50.09 37.5 56.62 41.27"/><polygon class="cls-88" points="63.4 45.19 56.82 48.98 50.29 45.21 56.87 41.41 63.4 45.19"/><polygon class="cls-89" points="43.2 25.55 36.62 29.35 30.09 25.58 36.66 21.78 43.2 25.55"/><polygon class="cls-90" points="49.97 29.47 43.4 33.26 36.87 29.49 43.44 25.7 49.97 29.47"/><polygon class="cls-91" points="56.74 33.38 50.17 37.17 43.64 33.4 50.21 29.61 56.74 33.38"/><polygon class="cls-92" points="63.52 37.29 56.95 41.08 50.42 37.31 56.99 33.52 63.52 37.29"/><polygon class="cls-93" points="70.3 41.2 63.72 44.99 57.19 41.22 63.76 37.43 70.3 41.2"/><polygon class="cls-94" points="50.09 21.57 43.52 25.36 36.99 21.59 43.56 17.8 50.09 21.57"/><polygon class="cls-95" points="56.87 25.48 50.3 29.28 43.77 25.51 50.34 21.71 56.87 25.48"/><polygon class="cls-96" points="63.64 29.39 57.07 33.19 50.54 29.42 57.11 25.62 63.64 29.39"/><polygon class="cls-97" points="70.42 33.3 63.85 37.1 57.32 33.33 63.89 29.53 70.42 33.3"/><polygon class="cls-98" points="77.19 37.22 70.62 41.01 64.09 37.24 70.66 33.45 77.19 37.22"/><polygon class="cls-99" points="56.99 17.59 50.42 21.38 43.89 17.61 50.46 13.82 56.99 17.59"/><polygon class="cls-100" points="63.77 21.5 57.2 25.29 50.66 21.52 57.24 17.73 63.77 21.5"/><polygon class="cls-101" points="70.54 25.41 63.97 29.2 57.44 25.43 64.01 21.64 70.54 25.41"/><polygon class="cls-102" points="77.32 29.32 70.75 33.12 64.22 29.34 70.79 25.55 77.32 29.32"/><polygon class="cls-103" points="84.09 33.23 77.52 37.03 70.99 33.26 77.56 29.46 84.09 33.23"/><polygon class="cls-104" points="63.89 13.6 57.32 17.4 50.79 13.63 57.36 9.83 63.89 13.6"/><polygon class="cls-105" points="70.67 17.51 64.09 21.31 57.56 17.54 64.14 13.74 70.67 17.51"/><polygon class="cls-106" points="77.44 21.43 70.87 25.22 64.34 21.45 70.91 17.66 77.44 21.43"/><polygon class="cls-107" points="84.22 25.34 77.64 29.13 71.11 25.36 77.69 21.57 84.22 25.34"/><polygon class="cls-108" points="90.99 29.25 84.42 33.04 77.89 29.27 84.46 25.48 90.99 29.25"/><polygon class="cls-109" points="70.79 9.62 64.22 13.41 57.69 9.64 64.26 5.85 70.79 9.62"/><polygon class="cls-110" points="77.56 13.53 70.99 17.32 64.46 13.55 71.03 9.76 77.56 13.53"/><polygon class="cls-111" points="84.34 17.44 77.77 21.23 71.24 17.46 77.81 13.67 84.34 17.44"/><polygon class="cls-112" points="91.11 21.35 84.54 25.15 78.01 21.38 84.58 17.58 91.11 21.35"/><polygon class="cls-113" points="97.89 25.26 91.32 29.06 84.79 25.29 91.36 21.49 97.89 25.26"/><polygon class="cls-114" points="57.8 48.6 54.24 89.97 43.01 96.47 46.57 55.1 57.8 48.6"/><polygon class="cls-115" points="94.2 27.53 94.19 27.62 94.17 27.84 93.49 35.77 93.47 36.07 92.78 44.01 92.76 44.3 92.08 52.24 92.05 52.54 91.5 58.94 91.37 60.51 91.18 62.72 90.67 68.7 90.65 68.9 85.8 71.71 83.25 73.18 82.06 73.87 82.03 73.89 81.86 73.79 80.87 73.22 80.58 73.39 79.53 73.99 79.57 73.64 79.6 73.3 80.11 67.25 80.14 66.95 80.28 65.33 80.58 61.81 80.82 59.02 80.85 58.72 80.87 58.48 81.14 55.29 81.2 54.6 81.41 52.22 81.41 52.18 81.53 50.79 81.53 50.76 81.55 50.49 81.57 50.3 81.66 49.31 82.24 42.56 82.26 42.26 82.95 34.33 82.97 34.1 82.97 34.03 94.2 27.53"/><polygon class="cls-116" points="72.68 39.99 72.67 40.04 72.65 40.26 71.97 48.2 71.95 48.49 71.89 49.18 71.36 55.31 71.27 56.43 71.24 56.73 71.24 56.77 71.12 58.12 71.11 58.22 70.86 61.22 70.81 61.76 70.66 63.48 70.63 63.83 70.48 65.6 70.46 65.75 70.43 66.11 70.41 66.46 69.85 72.89 69.83 73.19 69.31 79.24 69.28 79.58 69.25 79.93 67.48 80.95 67.48 82.31 64.93 83.79 63.74 84.47 60.53 86.33 60.55 86.08 61.23 78.15 61.26 77.85 61.94 69.92 61.97 69.62 62.55 62.83 62.65 61.69 62.67 61.39 62.74 60.57 62.76 60.33 63.35 53.46 63.38 53.16 63.58 50.86 63.91 47.02 64.06 45.22 64.08 45 64.08 44.96 64.37 44.8 72.68 39.99"/><polygon class="cls-117" points="98.3 64.55 85.8 71.77 83.25 73.24 82.08 73.92 82.06 73.91 82.03 73.89 81.86 73.79 80.87 73.22 80.58 73.39 79.53 73.99 77.71 75.05 77.38 75.24 76.27 75.88 76.27 75.88 75.98 76.05 75.98 76.04 71.67 78.53 71.67 78.54 71.39 78.71 71.39 78.7 70.81 79.03 70.48 79.22 69.25 79.93 67.48 80.95 67.48 82.35 64.93 83.82 63.77 84.49 43.01 96.47 9.41 76.83 64.69 44.91 64.37 44.8 64.39 44.82 64.58 44.92 70.48 48.35 70.81 48.55 71.08 48.71 71.33 48.85 71.89 49.18 76.89 52.09 77.38 52.37 77.71 52.57 77.84 52.64 78.08 52.78 78.08 52.78 79.22 53.45 79.26 53.47 80.87 54.41 81.2 54.6 81.77 54.93 82.06 55.1 83.25 55.8 84.28 56.39 84.83 56.71 85.8 57.28 91.18 60.4 91.37 60.51 91.57 60.64 98.08 64.42 98.3 64.55"/><polygon class="cls-118" points="80.87 57.58 80.87 73.22 80.58 73.39 79.53 73.99 77.71 75.05 77.38 75.24 76.27 75.88 75.98 76.04 71.67 78.53 71.39 78.7 70.81 79.03 70.48 79.22 69.25 79.93 67.48 80.95 66.5 81.52 66.5 65.88 67.48 65.31 70.48 63.58 70.66 63.48 70.81 63.39 77.38 59.6 77.71 59.41 80.58 57.75 80.87 57.58"/><polygon class="cls-119" points="66.79 66.05 80.58 58.08 80.58 73.05 66.79 81.02 66.79 66.05"/><polygon class="cls-120" points="77.37 59.93 76.31 75.34 69.76 79.14 70.82 63.72 77.37 59.93"/><polygon class="cls-121" points="66.79 67.88 66.79 68.21 80.58 60.25 80.58 59.91 66.79 67.88"/><polygon class="cls-122" points="80.28 58.26 80.28 72.9 66.79 80.7 66.79 81.02 80.58 73.05 80.58 58.08 80.28 58.26"/><polygon class="cls-118" points="80.87 57.58 80.87 73.22 80.58 73.39 80.58 57.75 80.87 57.58"/><polygon class="cls-123" points="80.58 73.05 80.28 72.9 80.28 58.26 80.58 58.08 80.58 73.05"/><polygon class="cls-118" points="76.27 60.25 76.27 75.88 75.98 76.05 75.98 60.41 76.27 60.25"/><polygon class="cls-123" points="75.98 75.71 75.69 75.56 75.69 60.91 75.98 60.74 75.98 75.71"/><polygon class="cls-118" points="71.67 62.91 71.67 78.54 71.39 78.71 71.39 63.07 71.67 62.91"/><polygon class="cls-123" points="71.38 78.36 71.09 78.21 71.09 63.56 71.38 63.39 71.38 78.36"/><polygon class="cls-118" points="66.79 68.21 66.79 68.55 80.58 60.58 80.58 60.24 66.79 68.21"/><polygon class="cls-121" points="70.96 65.47 71.09 65.39 71.38 65.56 71.02 65.77 70.96 65.47"/><polygon class="cls-121" points="75.56 62.81 75.69 62.74 75.98 62.9 75.62 63.11 75.56 62.81"/><polygon class="cls-121" points="80.16 60.16 80.28 60.08 80.58 60.25 80.22 60.46 80.16 60.16"/><polygon class="cls-124" points="98.3 64.55 64.26 44.32 64.26 5.59 98.3 25.59 98.3 64.55"/><polygon class="cls-125" points="63.74 61.14 63.74 84.47 64.93 85.16 64.93 61.83 63.74 61.14"/><polygon class="cls-125" points="83.25 51.27 83.25 74.6 82.08 73.92 82.06 73.91 82.06 50.58 83.12 51.2 83.14 51.21 83.25 51.27"/><path class="cls-125" d="M83.68,57.1V77l1,.56.18.1,0,0V56.93A11.75,11.75,0,0,1,83.68,57.1Z" transform="translate(-2.81 -3.78)"/><polygon class="cls-126" points="84.61 48.96 63.74 61.14 64.93 61.83 85.81 49.65 84.61 48.96"/><polygon class="cls-127" points="62.55 60.46 62.55 83.78 63.74 84.47 63.74 61.14 62.55 60.46"/><polygon class="cls-128" points="83.42 48.28 62.55 60.46 63.74 61.14 84.61 48.96 83.42 48.28"/><polygon class="cls-129" points="85.8 49.65 85.8 73.12 83.25 74.6 83.25 54.07 82.06 54.76 81.77 54.93 81.14 55.29 80.87 55.45 77.71 57.27 77.38 57.46 70.86 61.22 70.81 61.25 70.48 61.43 67.48 63.16 67.48 83.68 64.93 85.16 64.93 61.83 70.48 58.49 70.81 58.3 71.12 58.12 77.38 54.51 77.71 54.32 79.22 53.45 80.87 52.49 81.41 52.18 82.06 51.81 83.12 51.2 84.28 50.53 84.61 50.34 85.8 49.65"/><polygon class="cls-130" points="72.18 67.56 67.43 64.82 67.43 63.16 72.18 65.9 72.18 67.56"/><polygon class="cls-131" points="88 56.81 72.18 65.9 67.43 63.16 82.14 54.71 83.25 54.07 88 56.81"/><polygon class="cls-132" points="88 56.81 72.18 65.9 72.18 67.56 88 58.47 88 56.81"/><polygon class="cls-133" points="57.8 48.61 46.57 55.11 23.77 28.97 35.01 22.47 57.8 48.61"/><polygon class="cls-134" points="94.2 27.59 82.97 34.1 60.16 7.95 64.26 5.59 85.9 18.09 94.2 27.59"/><polygon class="cls-135" points="72.68 39.99 64.08 45 41.28 18.86 49.91 13.87 72.68 39.99"/><polygon class="cls-136" points="0 32.29 0 72.11 8.56 77.05 8.56 37.23 0 32.29"/><polygon class="cls-5" points="8.97 37 8.97 76.82 8.56 77.05 8.56 37.23 8.97 37"/><polygon class="cls-137" points="55.92 0 64.48 4.94 8.56 37.23 0 32.29 55.92 0"/><polygon class="cls-5" points="64.08 5.69 8.97 37.51 8.97 37 64.08 5.18 64.08 5.69"/><polygon class="cls-138" points="65.69 64.61 65.69 67.98 69.37 70.64 77.38 66.21 77.38 75.24 80.87 73.22 80.89 62.55 72.18 67.56 67.43 64.82 67.43 63.16 65.69 64.61"/><g class="cls-2"><rect class="cls-139" x="81.75" y="39.82" width="0.49" height="6.69"/><rect class="cls-140" x="81.53" y="40.24" width="0.49" height="6.09"/><polygon class="cls-141" points="80.87 45.23 80.39 45.23 80.62 45.09 81.11 45.09 80.87 45.23"/><polygon class="cls-139" points="81.11 45.09 80.62 45.09 80.13 42.85 80.62 42.85 81.11 45.09"/><polygon class="cls-140" points="80.87 45.23 80.39 45.23 80.3 44.81 80.79 44.81 80.87 45.23"/><polygon class="cls-140" points="80.73 44.56 80.24 44.56 80.14 44.07 80.63 44.07 80.73 44.56"/><polygon class="cls-140" points="80.63 44.07 80.14 44.07 80.02 43.33 80.51 43.33 80.63 44.07"/><polygon class="cls-142" points="80.4 42.99 79.91 42.99 80.13 42.85 80.62 42.85 80.4 42.99"/><polygon class="cls-139" points="80.39 44.23 79.9 44.23 80.02 43.33 80.51 43.33 80.39 44.23"/><polygon class="cls-143" points="80.29 44.81 79.8 44.81 80.24 44.56 80.73 44.56 80.29 44.81"/><polygon class="cls-139" points="80.29 44.81 79.8 44.81 79.9 44.23 80.39 44.23 80.29 44.81"/><polygon class="cls-141" points="80.23 45.14 79.74 45.14 80.3 44.81 80.79 44.81 80.23 45.14"/><polygon class="cls-139" points="80.14 45.67 79.66 45.67 79.74 45.14 80.23 45.14 80.14 45.67"/><polygon class="cls-141" points="79.91 45.81 79.42 45.81 79.66 45.67 80.14 45.67 79.91 45.81"/><polygon class="cls-140" points="79.91 45.81 79.42 45.81 79.91 42.99 80.4 42.99 79.91 45.81"/><rect class="cls-139" x="79.17" y="43.42" width="0.49" height="2.54"/><polygon class="cls-141" points="79.43 46.1 78.94 46.1 79.17 45.95 79.66 45.95 79.43 46.1"/><rect class="cls-140" x="78.94" y="43.85" width="0.49" height="2.25"/><polygon class="cls-141" points="78.93 44.15 78.44 44.15 78.94 43.85 79.43 43.85 78.93 44.15"/><rect class="cls-139" x="78.44" y="44.15" width="0.49" height="1.03"/><polygon class="cls-144" points="78.71 43.99 78.22 43.99 79.17 43.42 79.66 43.42 78.71 43.99"/><g class="cls-2"><g class="cls-145"><g class="cls-2"><path class="cls-146" d="M81.18,50.52H80.7l.07-.05h.49l-.08.05" transform="translate(-2.81 -3.78)"/><path class="cls-147" d="M81.26,50.47h-.49c.47-.29.47-.8.48-1.51h.49c0,.71,0,1.22-.48,1.51" transform="translate(-2.81 -3.78)"/></g></g></g><polygon class="cls-140" points="78.7 45.31 78.21 45.31 78.22 43.99 78.71 43.99 78.7 45.31"/><g class="cls-2"><g class="cls-148"><g class="cls-2"><path class="cls-149" d="M81.18,50.22H80.7l0,0h.49l0,0" transform="translate(-2.81 -3.78)"/><path class="cls-150" d="M81.22,50.2h-.49c.3-.19.3-.61.3-1.1h.48c0,.49,0,.91-.29,1.1" transform="translate(-2.81 -3.78)"/></g></g></g><rect class="cls-140" x="77.88" y="46.44" width="0.49" height="0.3"/><rect class="cls-139" x="77.79" y="44.26" width="0.49" height="0.29"/><polygon class="cls-141" points="77.89 44.77 77.4 44.77 77.79 44.55 78.28 44.55 77.89 44.77"/><rect class="cls-139" x="77.4" y="44.77" width="0.49" height="2.24"/><polygon class="cls-141" points="77.67 47.15 77.18 47.15 77.4 47.02 77.89 47.02 77.67 47.15"/><rect class="cls-140" x="77.18" y="44.91" width="0.49" height="2.24"/><polygon class="cls-141" points="77.28 45.14 76.8 45.14 77.18 44.91 77.67 44.91 77.28 45.14"/><rect class="cls-140" x="76.8" y="44.86" width="0.49" height="0.29"/><polygon class="cls-151" points="78.28 44.26 78.28 44.55 77.89 44.77 77.89 47.02 77.67 47.15 77.67 44.91 77.28 45.14 77.28 44.86 78.28 44.26"/><polygon class="cls-144" points="77.28 44.86 76.8 44.86 77.79 44.26 78.28 44.26 77.28 44.86"/><rect class="cls-139" x="76.55" y="44.99" width="0.49" height="2.54"/><polygon class="cls-144" points="76.81 45.13 76.33 45.13 76.55 44.99 77.04 44.99 76.81 45.13"/><polygon class="cls-141" points="76.81 47.66 76.33 47.66 76.55 47.53 77.04 47.53 76.81 47.66"/><rect class="cls-140" x="76.33" y="45.13" width="0.49" height="2.54"/><g class="cls-2"><g class="cls-152"><g class="cls-2"><path class="cls-147" d="M79.31,50.85h-.48c0-.27-.08-.43-.24-.43h.49c.16,0,.23.16.23.43" transform="translate(-2.81 -3.78)"/></g></g></g><g class="cls-2"><g class="cls-153"><g class="cls-2"><path class="cls-149" d="M79,50.44h0" transform="translate(-2.81 -3.78)"/><path class="cls-154" d="M79,50.43h0" transform="translate(-2.81 -3.78)"/></g></g></g><g class="cls-2"><g class="cls-155"><g class="cls-2"><path class="cls-147" d="M79,50.44h-.49a.93.93,0,0,0,.21-.62h.49a.93.93,0,0,1-.21.62" transform="translate(-2.81 -3.78)"/></g></g></g><g class="cls-2"><g class="cls-156"><g class="cls-2"><path class="cls-147" d="M79.19,49.82H78.7c0-.28-.06-.45-.23-.45H79c.17,0,.23.17.23.45" transform="translate(-2.81 -3.78)"/></g></g></g><g class="cls-2"><g class="cls-157"><g class="cls-2"><path class="cls-146" d="M78.71,52h-.48l0,0h.49l-.05,0" transform="translate(-2.81 -3.78)"/><path class="cls-147" d="M78.76,52h-.49a1.22,1.22,0,0,0,.56-1.11h.48A1.24,1.24,0,0,1,78.76,52" transform="translate(-2.81 -3.78)"/></g></g></g><g class="cls-2"><g class="cls-158"><g class="cls-2"><path class="cls-149" d="M78.72,51.68h-.48l0,0h.49l0,0" transform="translate(-2.81 -3.78)"/><path class="cls-150" d="M78.76,51.66h-.49a.71.71,0,0,0,.32-.66c0-.21,0-.29-.14-.29h.49c.09,0,.14.08.14.29a.71.71,0,0,1-.32.66" transform="translate(-2.81 -3.78)"/></g></g></g><g class="cls-2"><g class="cls-159"><g class="cls-2"><path class="cls-146" d="M78.73,50.79h-.49l.15-.07h.49l-.15.07" transform="translate(-2.81 -3.78)"/><path class="cls-160" d="M78.88,50.72h0" transform="translate(-2.81 -3.78)"/></g></g></g><g class="cls-2"><g class="cls-161"><g class="cls-2"><path class="cls-149" d="M78.67,50.52h0" transform="translate(-2.81 -3.78)"/><path class="cls-150" d="M78.69,50.51H78.2a.65.65,0,0,0,.28-.55q0-.27-.12-.27h.49q.12,0,.12.27a.65.65,0,0,1-.28.55" transform="translate(-2.81 -3.78)"/></g></g></g><g class="cls-2"><g class="cls-162"><g class="cls-2"><path class="cls-146" d="M78.7,49.75h-.49l.1,0h.49a.31.31,0,0,0-.1,0" transform="translate(-2.81 -3.78)"/><path class="cls-160" d="M78.8,49.7h0" transform="translate(-2.81 -3.78)"/></g></g></g><g class="cls-2"><g class="cls-163"><g class="cls-2"><path class="cls-149" d="M78.7,49.46h-.49a.55.55,0,0,1,.18-.08h.48a.51.51,0,0,0-.17.08" transform="translate(-2.81 -3.78)"/><path class="cls-154" d="M78.87,49.38h0" transform="translate(-2.81 -3.78)"/></g></g></g><polygon class="cls-144" points="75.66 48.05 75.17 48.05 75.42 47.9 75.91 47.9 75.66 48.05"/><rect class="cls-139" x="75.17" y="47.16" width="0.49" height="0.89"/><polygon class="cls-141" points="75.66 47.16 75.17 47.16 75.43 47.01 75.92 47.01 75.66 47.16"/><polygon class="cls-144" points="75.65 46.86 75.16 46.86 75.37 46.74 75.86 46.74 75.65 46.86"/><rect class="cls-139" x="75.16" y="46.11" width="0.49" height="0.76"/><polygon class="cls-141" points="75.65 46.11 75.16 46.11 75.4 45.96 75.88 45.96 75.65 46.11"/><path class="cls-164" d="M79,50a.64.64,0,0,1-.3.56l-.21.13v-.76l.24-.14a.29.29,0,0,1,.15-.06Q79,49.69,79,50Z" transform="translate(-2.81 -3.78)"/><polygon class="cls-141" points="75.42 48.49 74.94 48.49 75.41 48.2 75.9 48.2 75.42 48.49"/><rect class="cls-140" x="74.94" y="45.94" width="0.49" height="2.55"/><polygon class="cls-143" points="75.42 45.95 74.94 45.95 75.4 45.67 75.88 45.67 75.42 45.95"/><g class="cls-2"><g class="cls-165"><g class="cls-2"><path class="cls-160" d="M77,53h0" transform="translate(-2.81 -3.78)"/><path class="cls-146" d="M77.09,52.94H76.6a1.06,1.06,0,0,0,.27-.13l0,0h.49l0,0a1.06,1.06,0,0,1-.27.13" transform="translate(-2.81 -3.78)"/><path class="cls-147" d="M77.41,52.78h-.49a1.06,1.06,0,0,0,.52-1.1h.49a1.06,1.06,0,0,1-.52,1.1" transform="translate(-2.81 -3.78)"/></g></g></g><polygon class="cls-143" points="74.9 48.02 74.41 48.02 74.63 47.9 75.12 47.9 74.9 48.02"/><g class="cls-2"><g class="cls-166"><g class="cls-2"><path class="cls-147" d="M77.93,50.64h-.49c0-.34,0-.53-.22-.53h.49c.17,0,.22.19.22.53" transform="translate(-2.81 -3.78)"/></g></g></g><polygon class="cls-141" points="74.89 46.98 74.41 46.98 74.63 46.85 75.12 46.85 74.89 46.98"/><g class="cls-2"><g class="cls-167"><g class="cls-2"><path class="cls-150" d="M77.71,50.76h-.49c0-.2,0-.32-.13-.32h.49c.11,0,.13.12.13.32" transform="translate(-2.81 -3.78)"/></g></g></g><g class="cls-2"><g class="cls-168"><g class="cls-2"><path class="cls-149" d="M77.36,52.52h-.49l.07,0h.49l-.07,0" transform="translate(-2.81 -3.78)"/><path class="cls-150" d="M77.43,52.48h-.49c.25-.16.29-.3.29-.67h.48c0,.37,0,.51-.28.67" transform="translate(-2.81 -3.78)"/></g></g></g><g class="cls-2"><g class="cls-169"><g class="cls-2"><path class="cls-154" d="M77.14,52.6h0" transform="translate(-2.81 -3.78)"/><path class="cls-149" d="M77.2,52.59h-.49l.16-.07h.49l-.16.07" transform="translate(-2.81 -3.78)"/></g></g></g><polygon class="cls-141" points="74.24 44.89 73.75 44.89 81.53 40.24 82.02 40.24 74.24 44.89"/><rect class="cls-140" x="73.75" y="44.59" width="0.49" height="0.3"/><polygon class="cls-144" points="74.24 44.59 73.75 44.59 81.75 39.82 82.24 39.82 74.24 44.59"/><g class="cls-2"><g class="cls-170"><g class="cls-2"><path class="cls-147" d="M77.14,52.6h-.48c-.12,0-.15-.15-.15-.42H77c0,.27,0,.42.14.42" transform="translate(-2.81 -3.78)"/></g></g></g><rect class="cls-139" x="73.7" y="47.52" width="0.49" height="0.87"/><g class="cls-2"><g class="cls-171"><g class="cls-2"><path class="cls-147" d="M77,51.3h-.49c0-.38,0-.56.33-.75h.49c-.3.19-.33.37-.33.75" transform="translate(-2.81 -3.78)"/><path class="cls-146" d="M77.33,50.55h-.49l0,0,.17-.08h.49a.63.63,0,0,0-.17.08l0,0" transform="translate(-2.81 -3.78)"/><path class="cls-160" d="M77.53,50.45h0" transform="translate(-2.81 -3.78)"/></g></g></g><g class="cls-2"><g class="cls-172"><g class="cls-2"><path class="cls-150" d="M77,53h-.49c-.2,0-.23-.25-.23-.64h.49c0,.39,0,.64.23.64" transform="translate(-2.81 -3.78)"/></g></g></g><rect class="cls-140" x="73.47" y="47.66" width="0.49" height="0.86"/><g class="cls-2"><g class="cls-173"><g class="cls-2"><path class="cls-150" d="M76.77,51.45h-.49a1.18,1.18,0,0,1,.53-1.17h.49a1.18,1.18,0,0,0-.53,1.17" transform="translate(-2.81 -3.78)"/><path class="cls-149" d="M77.3,50.28h-.49l.06,0a1.37,1.37,0,0,1,.26-.12h.49a1.14,1.14,0,0,0-.26.12l-.06,0" transform="translate(-2.81 -3.78)"/><path class="cls-154" d="M77.62,50.12h0" transform="translate(-2.81 -3.78)"/></g></g></g><path class="cls-151" d="M77.71,50.11c.17,0,.22.19.22.53l-.22.12c0-.2,0-.32-.13-.32a.5.5,0,0,0-.22.09c-.32.2-.36.38-.36.77v.88c0,.27,0,.42.14.42a.59.59,0,0,0,.22-.08c.31-.18.35-.31.35-.71l.22-.13a1.06,1.06,0,0,1-.57,1.13A.72.72,0,0,1,77,53c-.21,0-.23-.25-.23-.64v-.86a1.17,1.17,0,0,1,.59-1.21A.72.72,0,0,1,77.71,50.11Z" transform="translate(-2.81 -3.78)"/><rect class="cls-139" x="73.05" y="50.66" width="0.49" height="0.14"/><g class="cls-2"><g class="cls-174"><g class="cls-2"><path class="cls-149" d="M76,54.52h-.49l.14-.05h.49l-.14.05" transform="translate(-2.81 -3.78)"/><path class="cls-154" d="M76.15,54.47h-.49a1.38,1.38,0,0,1,.2,0h.49a1.38,1.38,0,0,0-.2,0" transform="translate(-2.81 -3.78)"/></g></g></g><polygon class="cls-139" points="73.74 46.26 73.25 46.26 72.5 44.74 72.99 44.74 73.74 46.26"/><g class="cls-2"><g class="cls-175"><g class="cls-2"><path class="cls-149" d="M75.74,54.64h-.49l.27-.12H76a1.59,1.59,0,0,0-.27.12" transform="translate(-2.81 -3.78)"/></g></g></g><polygon class="cls-141" points="72.93 46.74 72.44 46.74 73.25 46.26 73.74 46.26 72.93 46.74"/><rect class="cls-140" x="72.44" y="46.19" width="0.49" height="0.56"/><rect class="cls-139" x="72.44" y="46.74" width="0.49" height="4.11"/><g class="cls-2"><g class="cls-176"><g class="cls-2"><path class="cls-149" d="M75.66,54.69h-.48l.07,0h.49l-.08,0" transform="translate(-2.81 -3.78)"/></g></g></g><g class="cls-2"><g class="cls-177"><g class="cls-2"><path class="cls-150" d="M75.52,54.77H75l0,0h.49l-.06,0" transform="translate(-2.81 -3.78)"/><path class="cls-149" d="M75.58,54.74h-.49l.09-.05h.48l-.08.05" transform="translate(-2.81 -3.78)"/></g></g></g><rect class="cls-140" x="72.22" y="46.87" width="0.49" height="4.12"/><rect class="cls-140" x="72.22" y="46.31" width="0.49" height="0.56"/><polygon class="cls-143" points="72.71 46.31 72.22 46.31 72.44 46.19 72.93 46.19 72.71 46.31"/><polygon class="cls-144" points="72.61 44.96 72.12 44.96 72.5 44.74 72.99 44.74 72.61 44.96"/><g class="cls-2"><g class="cls-178"><g class="cls-2"><path class="cls-150" d="M75.32,54.92h-.48l.2-.15h.48l-.2.15" transform="translate(-2.81 -3.78)"/></g></g></g><polygon class="cls-141" points="72.17 51.62 71.68 51.62 73.05 50.8 73.54 50.8 72.17 51.62"/><g class="cls-2"><g class="cls-179"><g class="cls-2"><path class="cls-150" d="M75,55.26H74.5a2.18,2.18,0,0,1,.34-.34h.48a2.69,2.69,0,0,0-.33.34" transform="translate(-2.81 -3.78)"/></g></g></g><rect class="cls-140" x="71.68" y="51.48" width="0.49" height="0.14"/><polygon class="cls-141" points="71.86 47.38 71.37 47.38 72.22 46.87 72.71 46.87 71.86 47.38"/><polygon class="cls-140" points="71.86 47.38 71.37 47.38 72.12 44.96 72.61 44.96 71.86 47.38"/><rect class="cls-139" x="71.13" y="48.22" width="0.49" height="2.54"/><polygon class="cls-141" points="71.39 50.9 70.9 50.9 71.13 50.76 71.61 50.76 71.39 50.9"/><rect class="cls-140" x="70.9" y="49.95" width="0.49" height="0.95"/><rect class="cls-140" x="70.9" y="48.66" width="0.49" height="0.99"/><rect class="cls-139" x="70.88" y="46.31" width="0.49" height="0.29"/><polygon class="cls-141" points="71.18 50.08 70.69 50.08 70.9 49.95 71.39 49.95 71.18 50.08"/><polygon class="cls-144" points="71.12 49.81 70.63 49.81 70.9 49.65 71.39 49.65 71.12 49.81"/><polygon class="cls-141" points="71.12 48.82 70.63 48.82 70.9 48.66 71.39 48.66 71.12 48.82"/><polygon class="cls-144" points="71.12 48.52 70.63 48.52 71.13 48.22 71.61 48.22 71.12 48.52"/><g class="cls-2"><g class="cls-180"><g class="cls-2"><path class="cls-154" d="M73.77,53.66h0" transform="translate(-2.81 -3.78)"/><path class="cls-149" d="M73.81,53.65h-.49a.43.43,0,0,0,.13,0h.48a.31.31,0,0,1-.12,0" transform="translate(-2.81 -3.78)"/></g></g></g><polygon class="cls-139" points="70.81 51.25 70.32 51.25 70.69 50.08 71.18 50.08 70.81 51.25"/><polygon class="cls-141" points="70.55 51.4 70.06 51.4 70.32 51.25 70.81 51.25 70.55 51.4"/><polygon class="cls-140" points="70.55 51.4 70.06 51.4 70.46 50.2 70.95 50.2 70.55 51.4"/><g class="cls-2"><g class="cls-181"><g class="cls-2"><path class="cls-160" d="M73.65,54h0" transform="translate(-2.81 -3.78)"/><path class="cls-146" d="M73.74,54h0" transform="translate(-2.81 -3.78)"/></g></g></g><g class="cls-2"><g class="cls-182"><g class="cls-2"><path class="cls-147" d="M73.77,53.66h-.49c-.09,0-.13-.09-.13-.32h.49c0,.23,0,.32.13.32" transform="translate(-2.81 -3.78)"/></g></g></g><rect class="cls-139" x="70.34" y="49.39" width="0.49" height="0.16"/><g class="cls-2"><g class="cls-183"><g class="cls-2"><path class="cls-147" d="M73.64,53.17h-.49a.55.55,0,0,1,.3-.57h.48a.54.54,0,0,0-.29.57" transform="translate(-2.81 -3.78)"/></g></g></g><g class="cls-2"><g class="cls-184"><g class="cls-2"><path class="cls-150" d="M73.65,54h-.48c-.2,0-.25-.22-.25-.53h.49c0,.31,0,.53.24.53" transform="translate(-2.81 -3.78)"/></g></g></g><rect class="cls-140" x="70.11" y="49.53" width="0.49" height="0.16"/><g class="cls-2"><g class="cls-185"><g class="cls-2"><path class="cls-150" d="M73.41,53.31h-.49a1.06,1.06,0,0,1,.49-1h.48a1.08,1.08,0,0,0-.48,1" transform="translate(-2.81 -3.78)"/><path class="cls-149" d="M73.89,52.33h-.48l0,0h.48l0,0" transform="translate(-2.81 -3.78)"/></g></g></g><rect class="cls-139" x="69.72" y="49.08" width="0.49" height="2.53"/><polygon class="cls-144" points="69.98 49.21 69.49 49.21 69.72 49.08 70.21 49.08 69.98 49.21"/><polygon class="cls-141" points="69.98 51.75 69.49 51.75 69.72 51.61 70.21 51.61 69.98 51.75"/><polygon class="cls-151" points="70.21 49.08 70.21 51.61 69.98 51.75 69.98 49.21 70.21 49.08"/><rect class="cls-140" x="69.49" y="49.21" width="0.49" height="2.54"/><rect class="cls-139" x="69.21" y="51.61" width="0.49" height="0.67"/><polygon class="cls-144" points="69.53 51.71 69.04 51.71 69.21 51.62 69.69 51.62 69.53 51.71"/><rect class="cls-139" x="69.04" y="49.46" width="0.49" height="2.25"/><polygon class="cls-141" points="69.48 52.41 68.99 52.41 69.21 52.28 69.69 52.28 69.48 52.41"/><rect class="cls-140" x="68.99" y="52.05" width="0.49" height="0.36"/><rect class="cls-140" x="68.81" y="49.9" width="0.49" height="1.95"/><polygon class="cls-141" points="68.85 50.17 68.36 50.17 68.81 49.91 69.29 49.91 68.85 50.17"/><polygon class="cls-139" points="68.83 51.24 68.35 51.24 68.36 50.17 68.85 50.17 68.83 51.24"/><polygon class="cls-144" points="68.66 52.24 68.17 52.24 68.81 51.86 69.29 51.86 68.66 52.24"/><path class="cls-164" d="M71.65,55V54l.45-.27v2l-.64.38A2.41,2.41,0,0,0,71.65,55Z" transform="translate(-2.81 -3.78)"/><g class="cls-2"><g class="cls-186"><g class="cls-2"><path class="cls-147" d="M71.47,56H71a2.57,2.57,0,0,0,.17-1h.49a2.41,2.41,0,0,1-.18,1" transform="translate(-2.81 -3.78)"/></g></g></g><polygon class="cls-144" points="68.64 50 68.15 50 69.04 49.46 69.53 49.46 68.64 50"/><polygon class="cls-140" points="68.61 51.38 68.12 51.38 68.15 50 68.64 50 68.61 51.38"/><rect class="cls-139" x="68.02" y="52.63" width="0.49" height="0.36"/><polygon class="cls-141" points="68.5 52.63 68.02 52.63 68.99 52.05 69.48 52.05 68.5 52.63"/><g class="cls-2"><g class="cls-187"><g class="cls-2"><path class="cls-150" d="M71.2,56.18h-.48a2.08,2.08,0,0,0,.21-1h.49a2.09,2.09,0,0,1-.22,1" transform="translate(-2.81 -3.78)"/></g></g></g><polygon class="cls-141" points="68.29 53.13 67.8 53.13 68.02 52.99 68.5 52.99 68.29 53.13"/><polygon class="cls-144" points="68.29 52.46 67.8 52.46 67.9 52.4 68.39 52.4 68.29 52.46"/><rect class="cls-140" x="67.8" y="52.46" width="0.49" height="0.67"/><polygon class="cls-139" points="67.76 52.32 67.28 52.32 67.72 50.27 68.21 50.27 67.76 52.32"/><polygon class="cls-143" points="67.96 50.41 67.47 50.41 67.72 50.27 68.21 50.27 67.96 50.41"/><polygon class="cls-140" points="67.78 51.26 67.29 51.26 67.47 50.41 67.96 50.41 67.78 51.26"/><polygon class="cls-139" points="67.68 52.73 67.19 52.73 67.28 52.32 67.76 52.32 67.68 52.73"/><g class="cls-2"><g class="cls-188"><g class="cls-2"><path class="cls-150" d="M70.46,55.75H70c0-.23.07-.47.13-.7h.49c-.06.23-.09.47-.14.7" transform="translate(-2.81 -3.78)"/></g></g></g><polygon class="cls-139" points="67.65 51.97 67.16 51.97 67.04 51.44 67.53 51.44 67.65 51.97"/><g class="cls-2"><g class="cls-189"><g class="cls-2"><path class="cls-160" d="M70,57.16h0" transform="translate(-2.81 -3.78)"/><path class="cls-146" d="M70.09,57.15H69.6l.11,0h.49l-.11,0" transform="translate(-2.81 -3.78)"/><path class="cls-147" d="M70.2,57.1h-.49a.86.86,0,0,0,.29-.59h.49a.86.86,0,0,1-.29.59" transform="translate(-2.81 -3.78)"/></g></g></g><polygon class="cls-140" points="67.47 52.77 66.98 52.77 67.04 52.45 67.53 52.45 67.47 52.77"/><polygon class="cls-139" points="67.53 51.44 67.04 51.44 66.87 50.78 67.36 50.78 67.53 51.44"/><g class="cls-2"><g class="cls-190"><g class="cls-2"><path class="cls-154" d="M70,56.87h0" transform="translate(-2.81 -3.78)"/><path class="cls-149" d="M70.08,56.86h-.49l.06,0h.48l0,0" transform="translate(-2.81 -3.78)"/><path class="cls-150" d="M70.13,56.84h-.48a.45.45,0,0,0,.14-.29h.49a.45.45,0,0,1-.15.29" transform="translate(-2.81 -3.78)"/></g></g></g><polygon class="cls-140" points="67.16 53.38 66.68 53.38 66.72 53.09 67.21 53.09 67.16 53.38"/><polygon class="cls-143" points="67.09 50.93 66.61 50.93 66.87 50.78 67.36 50.78 67.09 50.93"/><polygon class="cls-140" points="67.53 52.45 67.04 52.45 66.61 50.93 67.09 50.93 67.53 52.45"/><rect class="cls-139" x="66.5" y="51.01" width="0.49" height="0.29"/><rect class="cls-139" x="66.12" y="51.52" width="0.49" height="2.23"/><polygon class="cls-141" points="66.61 51.52 66.12 51.52 66.5 51.3 66.99 51.3 66.61 51.52"/><polygon class="cls-141" points="66.38 53.89 65.89 53.89 66.12 53.76 66.61 53.76 66.38 53.89"/><rect class="cls-140" x="65.89" y="51.66" width="0.49" height="2.23"/><polygon class="cls-141" points="66 51.89 65.51 51.89 65.89 51.66 66.38 51.66 66 51.89"/><rect class="cls-140" x="65.51" y="51.6" width="0.49" height="0.3"/><polygon class="cls-144" points="66 51.6 65.51 51.6 66.5 51.01 66.99 51.01 66 51.6"/><g class="cls-2"><g class="cls-191"><g class="cls-2"><path class="cls-160" d="M67.7,58.51h0" transform="translate(-2.81 -3.78)"/><path class="cls-146" d="M67.79,58.5H67.3a1.41,1.41,0,0,0,.27-.12l0,0h.48l0,0a1.41,1.41,0,0,1-.27.12" transform="translate(-2.81 -3.78)"/><path class="cls-147" d="M68.09,58.35h-.48a1.07,1.07,0,0,0,.53-1.11h.49a1.07,1.07,0,0,1-.54,1.11" transform="translate(-2.81 -3.78)"/></g></g></g><polygon class="cls-143" points="65.6 53.59 65.11 53.59 65.33 53.46 65.82 53.46 65.6 53.59"/><polygon class="cls-141" points="65.59 52.54 65.1 52.54 65.33 52.41 65.82 52.41 65.59 52.54"/><g class="cls-2"><g class="cls-192"><g class="cls-2"><path class="cls-147" d="M68.63,56.19h-.49c0-.33,0-.52-.23-.52h.49c.18,0,.22.19.23.52" transform="translate(-2.81 -3.78)"/></g></g></g><g class="cls-2"><g class="cls-193"><g class="cls-2"><path class="cls-150" d="M68.4,56.32h-.48c0-.2,0-.32-.13-.32h.49c.1,0,.12.12.12.32" transform="translate(-2.81 -3.78)"/></g></g></g><g class="cls-2"><g class="cls-194"><g class="cls-2"><path class="cls-149" d="M68.06,55.8h-.49a1.14,1.14,0,0,1,.26-.12h.49a1.14,1.14,0,0,0-.26.12" transform="translate(-2.81 -3.78)"/><path class="cls-154" d="M68.32,55.68h0" transform="translate(-2.81 -3.78)"/></g></g></g><g class="cls-2"><g class="cls-195"><g class="cls-2"><path class="cls-154" d="M67.84,58.16h0" transform="translate(-2.81 -3.78)"/><path class="cls-149" d="M67.89,58.16h-.48l.16-.08,0,0h.49l0,0-.17.08" transform="translate(-2.81 -3.78)"/><path class="cls-150" d="M68.08,58.06h-.49c.29-.18.34-.3.34-.69h.48c0,.39,0,.51-.33.69" transform="translate(-2.81 -3.78)"/></g></g></g><g class="cls-2"><g class="cls-196"><g class="cls-2"><path class="cls-147" d="M67.84,58.16h-.49c-.12,0-.15-.15-.15-.42h.49c0,.27,0,.42.15.42" transform="translate(-2.81 -3.78)"/></g></g></g><rect class="cls-139" x="64.39" y="53.08" width="0.49" height="0.87"/><g class="cls-2"><g class="cls-197"><g class="cls-2"><path class="cls-147" d="M67.69,56.86H67.2c0-.38,0-.56.32-.74H68c-.28.18-.32.36-.32.74" transform="translate(-2.81 -3.78)"/><path class="cls-146" d="M68,56.12h-.49l0,0a.63.63,0,0,1,.17-.08h.49a.63.63,0,0,0-.17.08l0,0" transform="translate(-2.81 -3.78)"/><path class="cls-160" d="M68.23,56h0" transform="translate(-2.81 -3.78)"/></g></g></g><g class="cls-2"><g class="cls-198"><g class="cls-2"><path class="cls-150" d="M67.7,58.51h-.49c-.21,0-.23-.25-.23-.65h.49c0,.4,0,.65.23.65" transform="translate(-2.81 -3.78)"/></g></g></g><rect class="cls-140" x="64.16" y="53.23" width="0.49" height="0.86"/><path class="cls-151" d="M68.4,55.67c.18,0,.22.19.23.52l-.23.13c0-.2,0-.32-.12-.32a.5.5,0,0,0-.22.09c-.33.19-.37.37-.37.77v.88c0,.27,0,.42.15.42a.45.45,0,0,0,.22-.08c.3-.19.35-.31.35-.71l.22-.13a1.09,1.09,0,0,1-.57,1.14.82.82,0,0,1-.36.13c-.21,0-.23-.25-.23-.65V57a1.17,1.17,0,0,1,.59-1.21A.73.73,0,0,1,68.4,55.67Z" transform="translate(-2.81 -3.78)"/><g class="cls-2"><g class="cls-199"><g class="cls-2"><path class="cls-150" d="M67.47,57H67a1.17,1.17,0,0,1,.53-1.17H68A1.18,1.18,0,0,0,67.47,57" transform="translate(-2.81 -3.78)"/><path class="cls-149" d="M68,55.84h-.48l.06,0h.49l-.07,0" transform="translate(-2.81 -3.78)"/></g></g></g><polygon class="cls-141" points="63.47 57.72 62.98 57.72 81.75 46.5 82.24 46.5 63.47 57.72"/><polygon class="cls-144" points="63.68 57.3 63.19 57.3 81.53 46.33 82.02 46.33 63.68 57.3"/><rect class="cls-139" x="63.19" y="51.2" width="0.49" height="6.1"/><polygon class="cls-141" points="63.68 51.2 63.19 51.2 70.88 46.6 71.37 46.6 63.68 51.2"/><polygon class="cls-144" points="63.47 51.04 62.98 51.04 70.88 46.31 71.37 46.31 63.47 51.04"/><rect class="cls-140" x="62.98" y="51.04" width="0.49" height="6.68"/><path class="cls-164" d="M65.67,53.26l20-11.95v9.91l-20,12Zm19.38-3V43.6l-8,4.78v.29L84.83,44v6.09l-18.34,11V55l7.7-4.6V50.1l-7.91,4.72V61.5L85.05,50.29m-9.63-1.54-.75,2.42.85-.51v4.11l-.2.15a2.69,2.69,0,0,0-.33.34v.15l1.36-.82v-.15a1.05,1.05,0,0,0-.34.08,1.59,1.59,0,0,0-.27.12V50.53l.81-.49-.75-1.52-.38.23m-4.1,7.66,1-.58v.36l.22-.13V55.4l-.17.1V53.25l-.88.54,0,1.37a2.09,2.09,0,0,1-.22,1l-.1.06v.67l.22-.14v-.36M81.51,49.1c0,.51,0,.94-.33,1.12v.3c.54-.29.55-.81.56-1.56v-1l.5-.31v2.25l.23-.14V47.2l-1,.57V49.1m1.21.49.24-.13.08-.53.56-.34.09.43.23-.15-.48-2.24-.23.15-.49,2.81M69.91,54.71l.43,1.52-.06.32c-.06.28-.15.31-.26.32l0,.29c.27,0,.42-.21.51-.65l.09-.41L71,54.05l-.25.14-.17.86c-.06.23-.09.47-.14.7l-.12-.53-.17-.66-.26.15M74,53.86l.21-.13v1l.23-.15V52l-.5.3a1.07,1.07,0,0,0-.52,1v.16c0,.31,0,.53.24.53a.23.23,0,0,0,.11,0l-.4,1.2.26-.15L74,53.86m-6.15,4.3c-.12,0-.15-.15-.15-.42v-.88c0-.4,0-.58.37-.77a.5.5,0,0,1,.22-.09c.1,0,.12.12.12.32l.23-.13c0-.33,0-.52-.23-.52a.73.73,0,0,0-.34.13A1.17,1.17,0,0,0,67.47,57v.85c0,.4,0,.65.23.65a.82.82,0,0,0,.36-.13,1.09,1.09,0,0,0,.57-1.14l-.22.13c0,.4,0,.52-.35.71a.45.45,0,0,1-.22.08m8.93-6.71v.86c0,.39,0,.64.23.64a.75.75,0,0,0,.36-.14,1.06,1.06,0,0,0,.57-1.13l-.22.13c0,.4,0,.53-.35.71a.59.59,0,0,1-.22.08c-.12,0-.14-.15-.14-.42V51.3c0-.39,0-.57.36-.77a.5.5,0,0,1,.22-.09c.11,0,.13.12.13.32l.22-.12c0-.34-.05-.53-.22-.53a.72.72,0,0,0-.35.13,1.17,1.17,0,0,0-.59,1.21m2.31-1-.1,0a.93.93,0,0,0,.21-.62c0-.28-.06-.45-.23-.45a.54.54,0,0,0-.26.09l-.46.27v2.54l.47-.28a1.22,1.22,0,0,0,.6-1.14c0-.27-.07-.43-.23-.43m1-1.49.38-.24v2.24l.23-.13V48.56l.38-.23V48l-1,.6v.29M68.81,55.68l.39-.24v2.23l.22-.13V55.31l.38-.23v-.29l-1,.59v.3m10.82-4.23.22-.14V48.77l-.22.14v2.54M73,52.86l-.23.13v2.54l.23-.14V52.86" transform="translate(-2.81 -3.78)"/><polygon class="cls-164" points="80.63 44.07 80.73 44.56 80.29 44.81 80.39 44.23 80.51 43.33 80.63 44.07"/><path class="cls-151" d="M83.44,46.63l.48,2.24-.23.15-.09-.43-.56.34-.08.53-.24.13.49-2.81Zm-.34,2,.44-.25-.1-.48-.12-.75-.12.9-.1.58" transform="translate(-2.81 -3.78)"/><path class="cls-151" d="M82.47,47.2v2.54l-.23.14V47.63l-.5.31v1c0,.75,0,1.27-.56,1.56v-.3c.34-.18.33-.61.33-1.12V47.77Z" transform="translate(-2.81 -3.78)"/><polygon class="cls-151" points="77.04 44.99 77.04 47.53 76.81 47.66 76.81 45.13 77.04 44.99"/><path class="cls-164" d="M78.73,50.79a.43.43,0,0,1,.21-.08c.09,0,.14.08.14.29a.71.71,0,0,1-.36.68l-.25.15v-.89Z" transform="translate(-2.81 -3.78)"/><path class="cls-151" d="M79.08,50.42c.16,0,.23.16.23.43a1.22,1.22,0,0,1-.6,1.14l-.47.28V49.73l.46-.27a.54.54,0,0,1,.26-.09c.17,0,.23.17.23.45a.93.93,0,0,1-.21.62Zm-.36,1.26a.71.71,0,0,0,.36-.68c0-.21,0-.29-.14-.29a.43.43,0,0,0-.21.08l-.26.15v.89l.25-.15m-.26-1.79v.76l.21-.13A.64.64,0,0,0,79,50q0-.27-.12-.27a.29.29,0,0,0-.15.06l-.24.14" transform="translate(-2.81 -3.78)"/><path class="cls-151" d="M75.74,50v4.67l-.08,0-.14.08V50.1Z" transform="translate(-2.81 -3.78)"/><path class="cls-151" d="M76.35,54.44v.15L75,55.41v-.15a2.69,2.69,0,0,1,.33-.34l.2-.15.14-.08.08,0a1.59,1.59,0,0,1,.27-.12A1.05,1.05,0,0,1,76.35,54.44Z" transform="translate(-2.81 -3.78)"/><polygon class="cls-151" points="72.99 44.74 73.74 46.26 72.93 46.74 72.93 46.19 72.71 46.31 72.71 46.87 71.86 47.38 72.61 44.96 72.99 44.74"/><path class="cls-151" d="M73.93,52.3l.5-.3v2.54l-.23.15v-1l-.21.13L73.62,55l-.26.15.4-1.2a.23.23,0,0,1-.11,0c-.19,0-.24-.22-.24-.53v-.16A1.07,1.07,0,0,1,73.93,52.3Zm.27,1.14v-1l-.27.15a.54.54,0,0,0-.29.57v.17c0,.23,0,.32.13.32a.32.32,0,0,0,.16-.06l.27-.16" transform="translate(-2.81 -3.78)"/><path class="cls-164" d="M74.2,52.45v1l-.27.16a.32.32,0,0,1-.16.06c-.09,0-.13-.09-.13-.32v-.17a.54.54,0,0,1,.29-.57Z" transform="translate(-2.81 -3.78)"/><path class="cls-151" d="M72.34,55.5l.17-.1v.66l-.22.13v-.36l-1,.58v.36l-.22.14v-.67l.1-.06a2.09,2.09,0,0,0,.22-1l0-1.37.88-.54Zm-.23.14v-2l-.45.27V55a2.41,2.41,0,0,1-.18,1l.64-.38" transform="translate(-2.81 -3.78)"/><path class="cls-151" d="M71,54.05l-.44,2.05-.09.41c-.09.44-.24.64-.51.65l0-.29c.11,0,.2,0,.26-.32l.06-.32-.43-1.52.26-.15.17.66.12.53c.05-.23.08-.47.14-.7l.17-.86Z" transform="translate(-2.81 -3.78)"/><polygon class="cls-151" points="66.99 51.01 66.99 51.3 66.61 51.52 66.61 53.76 66.38 53.89 66.38 51.66 66 51.89 66 51.6 66.99 51.01"/><polygon class="cls-151" points="82.24 39.82 82.24 46.5 63.47 57.72 63.47 51.04 71.37 46.31 71.37 46.6 63.68 51.2 63.68 57.3 82.02 46.33 82.02 40.24 74.24 44.89 74.24 44.59 82.24 39.82"/><polygon class="cls-141" points="62.85 49.48 62.37 49.48 82.37 37.53 82.86 37.53 62.85 49.48"/><rect class="cls-139" x="62.36" y="49.48" width="0.49" height="9.92"/></g></g></g></g></g></svg>