<svg xmlns="http://www.w3.org/2000/svg" xmlns:xlink="http://www.w3.org/1999/xlink" viewBox="0 0 170.42 115.75"><defs><style>.cls-1{isolation:isolate;}.cls-2{fill:url(#Безымянный_градиент_87);}.cls-3{fill:#302828;}.cls-15,.cls-16,.cls-19,.cls-24,.cls-28,.cls-30,.cls-32,.cls-4,.cls-5{mix-blend-mode:screen;}.cls-4{fill:url(#Безымянный_градиент_105);}.cls-5{fill:url(#Безымянный_градиент_105-2);}.cls-6{fill:#545454;mix-blend-mode:multiply;}.cls-7{fill:gray;}.cls-8{fill:#cf8f61;}.cls-9{fill:#362b2b;}.cls-10{fill:#828282;}.cls-11{fill:#619942;}.cls-12{fill:#1a1b15;}.cls-13{fill:#c78a7d;}.cls-14{fill:url(#Безымянный_градиент_83);}.cls-15{fill:url(#Безымянный_градиент_91);}.cls-16{fill:url(#Безымянный_градиент_91-2);}.cls-17{fill:#131313;}.cls-18{fill:url(#Безымянный_градиент_79);}.cls-19{fill:url(#Безымянный_градиент_96);}.cls-20{fill:#2a2a2a;}.cls-21{fill:#121212;}.cls-22{fill:#646464;}.cls-23{fill:url(#Безымянный_градиент_79-2);}.cls-24{fill:url(#Безымянный_градиент_96-2);}.cls-25{fill:#1e1e1e;}.cls-26{fill:#333;}.cls-27{fill:url(#Безымянный_градиент_79-3);}.cls-28{fill:url(#Безымянный_градиент_96-3);}.cls-29{fill:url(#Безымянный_градиент_79-4);}.cls-30{fill:url(#Безымянный_градиент_96-4);}.cls-31{fill:url(#Безымянный_градиент_79-5);}.cls-32{fill:url(#Безымянный_градиент_96-5);}</style><linearGradient id="Безымянный_градиент_87" x1="156.29" y1="50.29" x2="158.26" y2="-10.99" gradientUnits="userSpaceOnUse"><stop offset="0" stop-color="#5d76b9"/><stop offset="0.21" stop-color="#639ad1"/><stop offset="0.47" stop-color="#69c1eb"/><stop offset="0.61" stop-color="#6cd0f5"/><stop offset="1" stop-color="#6097eb"/></linearGradient><linearGradient id="Безымянный_градиент_105" x1="143.31" y1="12.17" x2="154.56" y2="40.73" gradientUnits="userSpaceOnUse"><stop offset="0" stop-color="#0b0b0b"/><stop offset="0.49" stop-color="#151314"/><stop offset="0.93" stop-color="#221e1f"/></linearGradient><linearGradient id="Безымянный_градиент_105-2" x1="153.85" y1="6.26" x2="164.81" y2="34.08" xlink:href="#Безымянный_градиент_105"/><linearGradient id="Безымянный_градиент_83" x1="84.51" y1="86.26" x2="86.48" y2="24.98" gradientUnits="userSpaceOnUse"><stop offset="0" stop-color="#767fbe"/><stop offset="0.1" stop-color="#739ad0"/><stop offset="0.26" stop-color="#6ec1eb"/><stop offset="0.35" stop-color="#6cd0f5"/><stop offset="1" stop-color="#cfcfcf"/></linearGradient><linearGradient id="Безымянный_градиент_91" x1="71.53" y1="48.14" x2="82.78" y2="76.7" gradientUnits="userSpaceOnUse"><stop offset="0" stop-color="#0b0b0b"/><stop offset="0.52" stop-color="#151515"/><stop offset="0.93" stop-color="#202020"/></linearGradient><linearGradient id="Безымянный_градиент_91-2" x1="82.08" y1="42.23" x2="93.04" y2="70.05" xlink:href="#Безымянный_градиент_91"/><linearGradient id="Безымянный_градиент_79" x1="873.05" y1="175.2" x2="876.62" y2="104.44" gradientTransform="matrix(-1, 0, 0, 1, 941.8, 0)" gradientUnits="userSpaceOnUse"><stop offset="0" stop-color="#60649d"/><stop offset="0.17" stop-color="#666ea1"/><stop offset="0.46" stop-color="#7588ad"/><stop offset="0.82" stop-color="#8db3c0"/><stop offset="0.93" stop-color="#95c1c6"/></linearGradient><linearGradient id="Безымянный_градиент_96" x1="876.74" y1="97.3" x2="877.29" y2="87.51" gradientTransform="matrix(-1, 0, 0, 1, 941.8, 0)" gradientUnits="userSpaceOnUse"><stop offset="0"/><stop offset="0.93"/></linearGradient><linearGradient id="Безымянный_градиент_79-2" x1="878.29" y1="195.93" x2="881.86" y2="125.17" xlink:href="#Безымянный_градиент_79"/><linearGradient id="Безымянный_градиент_96-2" x1="881.98" y1="118.02" x2="882.53" y2="108.23" xlink:href="#Безымянный_градиент_96"/><linearGradient id="Безымянный_градиент_79-3" x1="886.35" y1="191.34" x2="889.92" y2="120.58" xlink:href="#Безымянный_градиент_79"/><linearGradient id="Безымянный_градиент_96-3" x1="890.04" y1="113.43" x2="890.59" y2="103.64" xlink:href="#Безымянный_градиент_96"/><linearGradient id="Безымянный_градиент_79-4" x1="876.54" y1="155.5" x2="880.11" y2="84.73" xlink:href="#Безымянный_градиент_79"/><linearGradient id="Безымянный_градиент_96-4" x1="880.23" y1="77.59" x2="880.78" y2="67.8" xlink:href="#Безымянный_градиент_96"/><linearGradient id="Безымянный_градиент_79-5" x1="56.26" y1="48.95" x2="58.69" y2="48.95" gradientTransform="matrix(1, 0, 0, 1, 0, 0)" xlink:href="#Безымянный_градиент_79"/><linearGradient id="Безымянный_градиент_96-5" x1="883.64" y1="57.83" x2="884.19" y2="48.04" xlink:href="#Безымянный_градиент_96"/></defs><g class="cls-1"><g id="Слой_2" data-name="Слой 2"><g id="Layer_1" data-name="Layer 1"><polygon class="cls-2" points="149.07 12.32 170.42 0 164.7 50.93 143.36 63.25 149.07 12.32"/><path class="cls-3" d="M169.42,8.92l0-.39-5.65,3.27.86-8.48-.36.21L163.45,12l-6,3.46L158.32,7l-.35.21-.86,8.47-6,3.46.86-8.47-.36.2-.86,8.48-2.64,1.53-.05.38,2.66-1.53-.8,7.83-2.74,1.59-.05.39,2.75-1.59-.79,7.83-2.84,1.64,0,.39,2.84-1.65L148.27,44l-2.94,1.7,0,.39,2.94-1.7-.79,7.83-3,1.75,0,.39,3-1.76-.9,8.87.36-.21.89-8.86,6-3.46-.9,8.86.35-.2.9-8.86,6-3.46-.9,8.86.36-.2.89-8.87,5.26-3,0-.39-5.26,3,.8-7.83,5.35-3.09,0-.39-5.36,3.09.8-7.83,5.45-3.14,0-.39-5.45,3.15.79-7.83,5.55-3.21,0-.38L163,20l.79-7.83ZM151.08,19.51l6-3.46-.79,7.83-6,3.46Zm-.83,8.21,6-3.45-.79,7.82-6,3.46Zm-.83,8.22,6-3.46-.79,7.83-6,3.46Zm4.37,12.59-6,3.45.8-7.83,6-3.45Zm6.34-3.67-6,3.46.79-7.83,6-3.46Zm.83-8.21-6,3.46.79-7.83,6-3.46Zm.83-8.22-6,3.46.79-7.83,6-3.46Zm.83-8.21-6,3.46.79-7.83,6-3.46Z"/><polygon class="cls-4" points="160.78 5.57 153.09 10.01 143.43 62.59 143.36 63.25 147.32 60.97 151 58.84 160.78 5.57"/><polygon class="cls-5" points="170.42 0 163.92 3.75 154.36 55.85 161.05 51.98 170.14 2.51 170.42 0"/><polygon class="cls-6" points="0.98 55.88 10.68 61.48 10.68 56.55 10.27 55.54 0.41 55.09 0.98 55.88"/><polygon class="cls-7" points="0 50.28 9.69 55.87 10.27 55.54 0.57 49.94 0 50.28"/><polygon class="cls-8" points="0 55.2 9.69 60.8 9.69 55.87 0 50.28 0 55.2"/><polygon class="cls-9" points="9.69 55.87 10.27 55.54 10.27 60.47 9.69 60.8 9.69 55.87"/><polygon class="cls-6" points="12.48 62.47 22.18 68.06 22.18 63.14 21.77 62.13 11.91 61.67 12.48 62.47"/><polygon class="cls-10" points="11.5 56.86 21.2 62.46 21.77 62.13 12.08 56.53 11.5 56.86"/><polygon class="cls-11" points="11.5 61.79 21.2 67.39 21.2 62.46 11.5 56.86 11.5 61.79"/><polygon class="cls-12" points="21.2 62.46 21.77 62.13 21.77 67.05 21.2 67.39 21.2 62.46"/><polygon class="cls-6" points="23.98 69.05 33.68 74.65 33.68 69.72 33.27 68.71 23.42 68.26 23.98 69.05"/><polygon class="cls-10" points="23 63.45 32.7 69.05 33.27 68.71 23.58 63.11 23 63.45"/><polygon class="cls-13" points="23 68.38 32.7 73.97 32.7 69.05 23 63.45 23 68.38"/><polygon class="cls-9" points="32.7 69.05 33.27 68.71 33.27 73.64 32.7 73.97 32.7 69.05"/><polygon class="cls-14" points="77.3 48.29 98.64 35.97 92.92 86.9 71.58 99.22 77.3 48.29"/><path class="cls-3" d="M97.64,44.89l0-.39L92,47.77l.86-8.48-.35.2L91.68,48l-6,3.46L86.55,43l-.36.21-.85,8.47-6,3.46.86-8.47-.35.2L79,55.3l-2.65,1.53,0,.38L79,55.68l-.79,7.83L75.41,65.1l0,.39,2.75-1.59-.79,7.83-2.84,1.64,0,.39,2.85-1.65-.79,7.83-2.94,1.7,0,.39,2.95-1.7-.79,7.83-3,1.75,0,.39,3-1.76-.9,8.87.35-.21.9-8.86,6-3.46-.89,8.86.35-.2.9-8.86,6-3.46-.9,8.86.35-.2.9-8.87,5.26-3,0-.39-5.26,3,.79-7.83,5.36-3.09,0-.39-5.36,3.09.79-7.83,5.45-3.15,0-.38L90.37,64.2l.79-7.83,5.55-3.21.05-.39L91.2,56l.8-7.83ZM79.31,55.48l6-3.46-.8,7.83-6,3.46Zm-.84,8.21,6-3.46-.8,7.83-6,3.46Zm-.83,8.22,6-3.46-.79,7.83-6,3.46ZM82,84.49,76,88l.79-7.83,6-3.46Zm6.35-3.66-6,3.46.8-7.83,6-3.46Zm.83-8.21-6,3.46L84,68.25l6-3.46ZM90,64.4l-6,3.46L84.82,60l6-3.46Zm.83-8.21-6,3.45.79-7.83,6-3.45Z"/><polygon class="cls-15" points="89 41.53 81.31 45.98 71.66 98.56 71.58 99.22 75.55 96.94 79.22 94.81 89 41.53"/><polygon class="cls-16" points="98.64 35.97 92.15 39.72 82.58 91.82 89.28 87.94 98.36 38.48 98.64 35.97"/><polygon class="cls-17" points="62.97 82.06 65.78 83.7 65.78 94.78 62.97 93.14 62.97 82.06"/><polygon class="cls-18" points="65.59 83.81 63.16 82.39 63.16 93.03 65.59 94.45 65.59 83.81"/><polygon class="cls-19" points="63.78 82.74 64.47 93.67 65.36 94.2 64.67 83.27 63.78 82.74"/><polygon class="cls-20" points="63.35 82.5 63.35 92.93 65.59 94.24 65.59 94.45 63.16 93.03 63.16 82.39 63.35 82.5"/><polygon class="cls-17" points="63.16 93.25 62.97 93.14 62.97 82.06 63.16 82.17 63.16 93.25"/><polygon class="cls-21" points="63.16 93.03 63.35 92.93 63.35 82.5 63.16 82.39 63.16 93.03"/><polygon class="cls-17" points="65.78 94.78 65.59 94.67 65.59 83.59 65.78 83.7 65.78 94.78"/><polygon class="cls-22" points="62.54 81.84 62.54 93.38 62.97 93.14 62.97 82.06 62.54 81.84"/><polygon class="cls-10" points="62.54 93.38 65.35 95.03 65.78 94.78 62.97 93.14 62.54 93.38"/><polygon class="cls-20" points="66.03 83.48 65.35 83.3 65.35 95.03 66.03 95.03 66.03 83.48"/><polygon class="cls-17" points="57.73 102.79 60.54 104.43 60.54 115.5 57.73 113.86 57.73 102.79"/><polygon class="cls-23" points="60.35 104.54 57.92 103.11 57.92 113.75 60.35 115.17 60.35 104.54"/><polygon class="cls-24" points="58.54 103.47 59.23 114.39 60.12 114.92 59.42 103.99 58.54 103.47"/><polygon class="cls-20" points="58.12 103.23 58.12 113.65 60.35 114.96 60.35 115.17 57.92 113.75 57.92 103.11 58.12 103.23"/><polygon class="cls-17" points="57.92 113.97 57.73 113.86 57.73 102.79 57.92 102.89 57.92 113.97"/><polygon class="cls-21" points="57.92 113.75 58.12 113.65 58.12 103.23 57.92 103.11 57.92 113.75"/><polygon class="cls-17" points="60.54 115.5 60.35 115.39 60.35 104.32 60.54 104.43 60.54 115.5"/><polygon class="cls-25" points="57.3 102.57 57.3 114.11 57.73 113.86 57.73 102.79 57.3 102.57"/><polygon class="cls-26" points="57.3 114.11 60.11 115.75 60.54 115.5 57.73 113.86 57.3 114.11"/><polygon class="cls-21" points="60.79 104.21 60.11 104.02 60.11 115.75 60.79 115.75 60.79 104.21"/><polygon class="cls-17" points="49.67 98.2 52.48 99.84 52.48 110.91 49.67 109.27 49.67 98.2"/><polygon class="cls-27" points="52.29 99.95 49.86 98.53 49.86 109.16 52.29 110.58 52.29 99.95"/><polygon class="cls-28" points="50.48 98.88 51.17 109.81 52.06 110.33 51.37 99.41 50.48 98.88"/><polygon class="cls-20" points="50.06 98.64 50.06 109.06 52.29 110.37 52.29 110.58 49.86 109.16 49.86 98.53 50.06 98.64"/><polygon class="cls-17" points="49.86 109.38 49.67 109.27 49.67 98.2 49.86 98.31 49.86 109.38"/><polygon class="cls-21" points="49.86 109.16 50.06 109.06 50.06 98.64 49.86 98.53 49.86 109.16"/><polygon class="cls-17" points="52.48 110.91 52.29 110.81 52.29 99.73 52.48 99.84 52.48 110.91"/><polygon class="cls-25" points="49.24 97.98 49.24 109.52 49.67 109.27 49.67 98.2 49.24 97.98"/><polygon class="cls-26" points="49.24 109.52 52.05 111.16 52.48 110.91 49.67 109.27 49.24 109.52"/><polygon class="cls-21" points="52.73 99.62 52.05 99.43 52.05 111.16 52.73 111.16 52.73 99.62"/><polygon class="cls-17" points="59.48 62.35 62.29 63.99 62.29 75.07 59.48 73.43 59.48 62.35"/><polygon class="cls-29" points="62.1 64.11 59.67 62.68 59.67 73.32 62.1 74.74 62.1 64.11"/><polygon class="cls-30" points="60.28 63.03 60.98 73.96 61.87 74.49 61.17 63.56 60.28 63.03"/><polygon class="cls-20" points="59.86 62.8 59.86 73.22 62.1 74.53 62.1 74.74 59.67 73.32 59.67 62.68 59.86 62.8"/><polygon class="cls-17" points="59.67 73.54 59.48 73.43 59.48 62.35 59.67 62.46 59.67 73.54"/><polygon class="cls-21" points="59.67 73.32 59.86 73.22 59.86 62.8 59.67 62.68 59.67 73.32"/><polygon class="cls-17" points="62.29 75.07 62.1 74.96 62.1 63.89 62.29 63.99 62.29 75.07"/><polygon class="cls-22" points="59.05 62.13 59.05 73.68 59.48 73.43 59.48 62.35 59.05 62.13"/><polygon class="cls-10" points="59.05 73.68 61.86 75.32 62.29 75.07 59.48 73.43 59.05 73.68"/><polygon class="cls-20" points="62.54 63.77 61.86 63.59 61.86 75.32 62.54 75.32 62.54 63.77"/><polygon class="cls-17" points="56.07 42.59 58.88 44.23 58.88 55.3 56.07 53.66 56.07 42.59"/><polygon class="cls-31" points="58.69 44.34 56.26 42.92 56.26 53.55 58.69 54.98 58.69 44.34"/><polygon class="cls-32" points="56.87 43.27 57.57 54.2 58.46 54.72 57.76 43.8 56.87 43.27"/><polygon class="cls-20" points="56.45 43.03 56.45 53.45 58.69 54.77 58.69 54.98 56.26 53.55 56.26 42.92 56.45 43.03"/><polygon class="cls-17" points="56.26 53.77 56.07 53.66 56.07 42.59 56.26 42.7 56.26 53.77"/><polygon class="cls-21" points="56.26 53.55 56.45 53.45 56.45 43.03 56.26 42.92 56.26 53.55"/><polygon class="cls-17" points="58.88 55.3 58.69 55.2 58.69 44.12 58.88 44.23 58.88 55.3"/><polygon class="cls-22" points="55.64 42.37 55.64 53.91 56.07 53.66 56.07 42.59 55.64 42.37"/><polygon class="cls-10" points="55.64 53.91 58.45 55.55 58.88 55.3 56.07 53.66 55.64 53.91"/><polygon class="cls-20" points="59.13 44.01 58.45 43.82 58.45 55.55 59.13 55.55 59.13 44.01"/><polygon class="cls-6" points="35.77 75.84 45.47 81.44 45.47 76.51 45.06 75.5 35.2 75.05 35.77 75.84"/><polygon class="cls-7" points="34.79 70.24 44.48 75.84 45.06 75.5 35.37 69.9 34.79 70.24"/><polygon class="cls-8" points="34.79 75.17 44.48 80.76 44.48 75.84 34.79 70.24 34.79 75.17"/><polygon class="cls-9" points="44.48 75.84 45.06 75.5 45.06 80.43 44.48 80.76 44.48 75.84"/></g></g></g></svg>