<svg xmlns="http://www.w3.org/2000/svg" xmlns:xlink="http://www.w3.org/1999/xlink" viewBox="0 0 160.57 190.53"><defs><style>.cls-1{fill:#f1ece5;}.cls-1,.cls-10,.cls-12,.cls-13,.cls-15,.cls-16,.cls-18,.cls-19,.cls-2,.cls-20,.cls-21,.cls-22,.cls-23,.cls-25,.cls-26,.cls-27,.cls-28,.cls-29,.cls-3,.cls-30,.cls-31,.cls-32,.cls-33,.cls-34,.cls-35,.cls-36,.cls-37,.cls-38,.cls-39,.cls-4,.cls-40,.cls-41,.cls-42,.cls-43,.cls-44,.cls-46,.cls-47,.cls-48,.cls-49,.cls-5,.cls-50,.cls-51,.cls-52,.cls-53,.cls-54,.cls-56,.cls-57,.cls-58,.cls-59,.cls-6,.cls-60,.cls-61,.cls-62,.cls-63,.cls-64,.cls-68,.cls-69,.cls-7,.cls-70,.cls-71,.cls-72,.cls-73,.cls-74,.cls-75,.cls-76,.cls-77,.cls-8,.cls-9{fill-rule:evenodd;}.cls-2{fill:url(#GradientFill_230);}.cls-11,.cls-3{fill:#d13f45;}.cls-4{fill:#8e1b1e;}.cls-5{fill:url(#GradientFill_232);}.cls-6{fill:#f06468;}.cls-7{fill:#a52a30;}.cls-8{fill:url(#GradientFill_231);}.cls-9{fill:#fce87f;}.cls-10{fill:#b18941;}.cls-12{fill:url(#GradientFill_232-2);}.cls-13{fill:#a0752b;}.cls-14{fill:url(#GradientFill_233);}.cls-15{fill:url(#GradientFill_233-2);}.cls-16{fill:url(#GradientFill_233-3);}.cls-17,.cls-21{fill:#606028;}.cls-18{fill:#51b5c3;}.cls-19{fill:#006064;}.cls-20{fill:#00565a;}.cls-22{fill:#00878c;}.cls-23{fill:url(#GradientFill_234);}.cls-24,.cls-36{fill:#d59141;}.cls-25{fill:url(#GradientFill_235);}.cls-26{fill:url(#GradientFill_235-2);}.cls-27{fill:url(#GradientFill_234-2);}.cls-28{fill:url(#GradientFill_236);}.cls-29{fill:url(#GradientFill_237);}.cls-30{fill:#c18841;}.cls-31{fill:#007377;}.cls-32{fill:url(#GradientFill_238);}.cls-33{fill:#918d36;}.cls-34{fill:#73ccd7;}.cls-35{fill:#fce781;}.cls-37{fill:url(#GradientFill_238-2);}.cls-38{fill:#c9bd48;}.cls-39{fill:#ffca49;}.cls-40{fill:url(#GradientFill_238-3);}.cls-41{fill:url(#GradientFill_239);}.cls-42{fill:url(#GradientFill_238-4);}.cls-43{fill:url(#GradientFill_238-5);}.cls-44{fill:url(#GradientFill_238-6);}.cls-45{fill:#b9aba5;}.cls-46{fill:url(#GradientFill_240);}.cls-47{fill:url(#GradientFill_241);}.cls-48{fill:#cbc1b6;}.cls-49{fill:#dccec0;}.cls-50{fill:#f2797c;}.cls-51{fill:#f0cf70;}.cls-52{fill:#fbea93;}.cls-53{fill:#e64e54;}.cls-54{fill:#f26e49;}.cls-55{fill:url(#GradientFill_242);}.cls-56{fill:#dec064;}.cls-57{fill:#ffe390;}.cls-58{fill:#ffe487;}.cls-59{fill:#f38585;}.cls-60{fill:#b4a29b;}.cls-61{fill:url(#GradientFill_243);}.cls-62{fill:url(#GradientFill_244);}.cls-63{fill:url(#GradientFill_245);}.cls-64{fill:url(#GradientFill_246);}.cls-65{fill:#7e9e22;}.cls-66{fill:#8cb025;}.cls-67{fill:#a1c43c;}.cls-68{fill:#e0d5c9;}.cls-69{fill:url(#GradientFill_9);}.cls-70{fill:url(#GradientFill_85);}.cls-71{fill:url(#GradientFill_9-2);}.cls-72{fill:url(#GradientFill_226);}.cls-73{fill:#b09e97;}.cls-74{fill:#ac8352;}.cls-75{fill:url(#GradientFill_229);}.cls-76{fill:#e7c070;}.cls-77{fill:#605723;}</style><linearGradient id="GradientFill_230" x1="135.68" y1="156.3" x2="135.68" y2="810.61" gradientTransform="matrix(-1, 0, 0, 1, 190.33, 0)" gradientUnits="userSpaceOnUse"><stop offset="0" stop-color="#cbbeb8"/><stop offset="1" stop-color="#bbada9"/></linearGradient><linearGradient id="GradientFill_232" x1="27.28" y1="143.72" x2="60.89" y2="143.72" gradientUnits="userSpaceOnUse"><stop offset="0" stop-color="#ba9553"/><stop offset="1" stop-color="#9a7641"/></linearGradient><linearGradient id="GradientFill_231" x1="7.88" y1="114.94" x2="80.29" y2="114.94" gradientUnits="userSpaceOnUse"><stop offset="0" stop-color="#b18941"/><stop offset="1" stop-color="#ba9553"/></linearGradient><linearGradient id="GradientFill_232-2" x1="99.69" y1="153.42" x2="133.3" y2="153.42" xlink:href="#GradientFill_232"/><linearGradient id="GradientFill_233" x1="74.15" y1="114.94" x2="86.42" y2="114.94" gradientUnits="userSpaceOnUse"><stop offset="0" stop-color="#982c20"/><stop offset="1" stop-color="#681310"/></linearGradient><linearGradient id="GradientFill_233-2" x1="57.39" y1="108.33" x2="63.53" y2="108.33" xlink:href="#GradientFill_233"/><linearGradient id="GradientFill_233-3" x1="97.05" y1="108.33" x2="103.18" y2="108.33" xlink:href="#GradientFill_233"/><linearGradient id="GradientFill_234" x1="115.94" y1="134.2" x2="117.06" y2="125.03" gradientTransform="matrix(-1, 0, 0, 1, 190.33, 0)" gradientUnits="userSpaceOnUse"><stop offset="0" stop-color="#918d36"/><stop offset="1" stop-color="#797630"/></linearGradient><linearGradient id="GradientFill_235" x1="106.66" y1="124.43" x2="111.51" y2="126.1" gradientTransform="matrix(-1, 0, 0, 1, 190.33, 0)" gradientUnits="userSpaceOnUse"><stop offset="0" stop-color="#72712e"/><stop offset="1" stop-color="#918d36"/></linearGradient><linearGradient id="GradientFill_235-2" x1="101.32" y1="120.28" x2="95" y2="118.59" xlink:href="#GradientFill_235"/><linearGradient id="GradientFill_234-2" x1="96.53" y1="119.61" x2="99.22" y2="129.66" xlink:href="#GradientFill_234"/><linearGradient id="GradientFill_236" x1="95.43" y1="134.65" x2="104.05" y2="133.28" gradientTransform="matrix(-1, 0, 0, 1, 190.33, 0)" gradientUnits="userSpaceOnUse"><stop offset="0" stop-color="#918d36"/><stop offset="1" stop-color="#7a7930"/></linearGradient><linearGradient id="GradientFill_237" x1="110.04" y1="101.07" x2="110.04" y2="140.75" gradientTransform="matrix(-1, 0, 0, 1, 190.33, 0)" gradientUnits="userSpaceOnUse"><stop offset="0" stop-color="#807f32"/><stop offset="1" stop-color="#72712e"/></linearGradient><linearGradient id="GradientFill_238" x1="69.67" y1="128.99" x2="69.26" y2="121.2" gradientTransform="matrix(-1, 0, 0, 1, 190.33, 0)" gradientUnits="userSpaceOnUse"><stop offset="0" stop-color="#007377"/><stop offset="1" stop-color="#006064"/></linearGradient><linearGradient id="GradientFill_238-2" x1="62.78" y1="116.11" x2="61.28" y2="103.85" xlink:href="#GradientFill_238"/><linearGradient id="GradientFill_238-3" x1="62.86" y1="111.02" x2="64.02" y2="101.56" xlink:href="#GradientFill_238"/><linearGradient id="GradientFill_239" x1="150" y1="122.37" x2="150.92" y2="118.06" gradientTransform="matrix(-1, 0, 0, 1, 190.33, 0)" gradientUnits="userSpaceOnUse"><stop offset="0" stop-color="#006064"/><stop offset="1" stop-color="#00565a"/></linearGradient><linearGradient id="GradientFill_238-4" x1="148.7" y1="116.8" x2="148.12" y2="118.95" xlink:href="#GradientFill_238"/><linearGradient id="GradientFill_238-5" x1="154.95" y1="113.36" x2="153.99" y2="104.2" xlink:href="#GradientFill_238"/><linearGradient id="GradientFill_238-6" x1="149.43" y1="127.38" x2="149.05" y2="128.62" xlink:href="#GradientFill_238"/><linearGradient id="GradientFill_240" x1="149.57" y1="160.23" x2="155.48" y2="183.94" gradientTransform="matrix(-1, 0, 0, 1, 190.33, 0)" gradientUnits="userSpaceOnUse"><stop offset="0" stop-color="#ad9b95"/><stop offset="1" stop-color="#ae8f64"/></linearGradient><linearGradient id="GradientFill_241" x1="177.2" y1="143.38" x2="197.06" y2="163.23" gradientTransform="matrix(-1, 0, 0, 1, 190.33, 0)" gradientUnits="userSpaceOnUse"><stop offset="0" stop-color="#a79a95"/><stop offset="1" stop-color="#ae8f64"/></linearGradient><linearGradient id="GradientFill_242" x1="110.04" y1="18.57" x2="110.04" y2="45.69" gradientTransform="matrix(-1, 0, 0, 1, 190.33, 0)" gradientUnits="userSpaceOnUse"><stop offset="0" stop-color="#b9aba5"/><stop offset="1" stop-color="#b89352"/></linearGradient><linearGradient id="GradientFill_243" x1="71.1" y1="24.76" x2="73.6" y2="34.11" gradientTransform="matrix(-1, 0, 0, 1, 190.33, 0)" gradientUnits="userSpaceOnUse"><stop offset="0" stop-color="#ad9b95"/><stop offset="1" stop-color="#982c20"/></linearGradient><linearGradient id="GradientFill_244" x1="41.86" y1="41.32" x2="51.46" y2="50.92" gradientTransform="matrix(-1, 0, 0, 1, 190.33, 0)" gradientUnits="userSpaceOnUse"><stop offset="0" stop-color="#9f928c"/><stop offset="1" stop-color="#b18941"/></linearGradient><linearGradient id="GradientFill_245" x1="148.78" y1="25.53" x2="145.53" y2="37.66" gradientTransform="matrix(-1, 0, 0, 1, 190.33, 0)" gradientUnits="userSpaceOnUse"><stop offset="0" stop-color="#cbc1b6"/><stop offset="1" stop-color="#f06468"/></linearGradient><linearGradient id="GradientFill_246" x1="178.45" y1="41.1" x2="162.78" y2="56.77" gradientTransform="matrix(-1, 0, 0, 1, 190.33, 0)" gradientUnits="userSpaceOnUse"><stop offset="0" stop-color="#dccec0"/><stop offset="1" stop-color="#fce781"/></linearGradient><linearGradient id="GradientFill_9" x1="277.88" y1="186.56" x2="278.49" y2="183.14" gradientTransform="matrix(-1, 0, 0, 1, 370.45, 0)" gradientUnits="userSpaceOnUse"><stop offset="0" stop-color="#b6a49c"/><stop offset="1" stop-color="#9e8f88"/></linearGradient><linearGradient id="GradientFill_85" x1="277.27" y1="169.7" x2="280.57" y2="163.5" gradientTransform="matrix(-1, 0, 0, 1, 370.45, 0)" gradientUnits="userSpaceOnUse"><stop offset="0" stop-color="#b09e97"/><stop offset="1" stop-color="#9e8f88"/></linearGradient><linearGradient id="GradientFill_9-2" x1="289.15" y1="171.5" x2="304.49" y2="198.07" xlink:href="#GradientFill_9"/><linearGradient id="GradientFill_226" x1="292.04" y1="167.6" x2="290.79" y2="165.44" gradientTransform="matrix(-1, 0, 0, 1, 370.45, 0)" gradientUnits="userSpaceOnUse"><stop offset="0" stop-color="#b6a49c"/><stop offset="0.39" stop-color="#b29f98"/><stop offset="1" stop-color="#9e8f88"/></linearGradient><linearGradient id="GradientFill_229" x1="276.09" y1="163.31" x2="281.02" y2="158.55" gradientTransform="matrix(-1, 0, 0, 1, 370.45, 0)" gradientUnits="userSpaceOnUse"><stop offset="0" stop-color="#ac8352"/><stop offset="1" stop-color="#e7c070"/></linearGradient></defs><g id="Слой_2" data-name="Слой 2"><g id="Layer_1" data-name="Layer 1"><polygon class="cls-1" points="21.51 85.56 0 107.07 0 131.91 21.51 153.43 58.78 165.85 101.8 165.85 139.06 153.43 160.57 131.91 160.57 107.07 139.06 85.56 101.8 73.14 58.77 73.14 21.51 85.56"/><polygon class="cls-2" points="21.51 85.56 0 107.07 0 131.91 21.51 153.43 54.65 164.47 87.79 153.42 109.3 131.91 109.3 107.07 87.79 85.56 54.65 74.51 21.51 85.56"/><polygon class="cls-3" points="27.28 88.89 7.88 108.29 7.88 130.69 27.28 150.09 60.89 161.3 99.69 161.3 133.29 150.1 152.7 130.69 152.7 108.29 133.29 88.89 99.69 77.69 60.88 77.69 27.28 88.89"/><polygon class="cls-4" points="7.88 130.69 27.28 150.09 60.89 161.3 60.89 126.14 7.88 126.14 7.88 130.69"/><polygon class="cls-5" points="27.28 150.09 60.89 161.3 60.89 126.14 27.28 145.54 27.28 150.09"/><polygon class="cls-6" points="27.28 84.34 7.88 103.74 7.88 126.14 27.28 145.54 60.89 156.75 99.69 156.75 133.29 145.54 152.7 126.14 152.7 103.74 133.29 84.34 99.69 73.13 60.88 73.13 27.28 84.34"/><path class="cls-7" d="M120.41,127.59A6.33,6.33,0,0,1,118,131c-1,.86-2,1.53-2.11,2.18a.93.93,0,0,0,0,.23h.24l.88-.07.55-.08.52-.1.47-.11.41-.1.34-.1.25-.08.16-.06.06,0,3.36,1.12-1.41,1.41-5.43.74a2.12,2.12,0,0,1-1,0l-1.53-.51a12.07,12.07,0,0,0-2.7.06l-.37,0,3.26,1.09a8,8,0,0,1-3.14,1.25,8.33,8.33,0,0,1-3.83-.1l-.33-.11-3-1-.54-.2-.37-.25-.15-.28v-.27l.05-.23.08-.2.12-.17.16-.17.19-.16.21-.16.25-.19-.24-.11-.16-.14-.09-.17v-.2l.06-.23.13-.26.2-.3.28-.32.27-.27.27-.27.27-.27.27-.27.27-.27.27-.27.27-.27.27-.27.27-.27.27-.27.27-.27.27-.27.27-.27.27-.27.17-.17-.42-.11-.23-.07,0,0-3.08-1-.31-.11-.27-.12-.21-.14-.17-.15-.12-.17-.06-.2,0-.22.05-.24.1-.26-.08-.11-.08-.11-.08-.11-.08-.11-.08-.11-.08-.11-.08-.1-.08-.11h1.36l.26,0,.27-.08.29-.11.3-.12.31-.12.31-.13.3-.12.3-.11.31-.1.34-.1.34-.11.37-.11.37-.12.37-.13.38-.14.37-.15.85-.34.68-.26.53-.19.43-.11h.38l.36.08,3.36,1.11a4.23,4.23,0,0,1,.86.47c.24.18,0,.42-.5.7l.68.23.1-.06.35-.19.51-.27.62-.32.66-.35.64-.33L120,123l.42-.21.32-.13.31-.08.28,0h.26l.25,0,.22,0,.21.06,3.36,1.12-3.16-1,.27.08.39.12.47.14.49.14.47.14.39.11.28.08.1,0,3.35,1.12h0l-2.21,1.23-2-.67h0C123.49,125.33,123.49,126.27,120.41,127.59Z"/><polygon class="cls-6" points="80.29 114.94 133.29 84.34 99.69 73.13 80.29 114.94"/><polygon class="cls-6" points="80.29 114.94 60.88 73.13 27.28 84.34 80.29 114.94"/><polygon class="cls-8" points="80.29 114.94 7.88 103.74 7.88 126.14 80.29 114.94"/><polygon class="cls-6" points="80.29 114.94 27.28 145.54 60.89 156.75 80.29 114.94"/><polygon class="cls-9" points="80.29 114.94 99.69 156.75 133.29 145.54 133.3 145.54 80.29 114.94"/><polygon class="cls-9" points="80.29 114.94 152.7 126.14 152.7 103.74 152.7 103.74 80.29 114.94"/><polygon class="cls-7" points="60.89 156.75 68.72 156.75 92.34 148.87 113.86 127.36 113.85 102.52 92.34 81.01 68.73 73.13 68.73 73.13 60.88 73.13 27.28 84.34 7.88 103.74 7.88 126.14 27.28 145.54 60.89 156.75"/><path class="cls-10" d="M109.44,98.11,94.86,83.53,80.29,114.94l33.56,5.19V109.75l-33.56,5.19,29.15-16.83Zm-48.56-25,19.41,41.81-53-30.6,33.6-11.21Zm-53,30.61,72.41,11.2L7.88,126.14v-22.4Zm19.4,41.8,53-30.6-19.4,41.8-33.61-11.2Zm67.59.81L80.29,114.94,106.4,130l10.14,5.85-.23,0a2.12,2.12,0,0,1-1,0l-1.53-.51a12.07,12.07,0,0,0-2.7.06l-.37,0,3.26,1.09a8,8,0,0,1-3.14,1.25,8.33,8.33,0,0,1-3.83-.1l-.33-.11-2.32-.77Z"/><rect class="cls-11" x="60.89" y="156.75" width="38.8" height="4.55"/><polygon class="cls-12" points="99.69 156.75 133.29 145.54 133.29 150.1 99.69 161.3 99.69 156.75"/><polygon class="cls-13" points="63.53 105.26 57.39 111.4 57.39 118.48 63.53 124.62 74.15 128.16 86.42 128.16 97.05 124.62 103.18 118.48 103.18 111.4 97.05 105.26 86.42 101.72 74.15 101.72 63.53 105.26"/><rect class="cls-14" x="74.15" y="101.72" width="12.27" height="26.44"/><polygon class="cls-15" points="63.53 124.62 57.39 118.48 57.39 92.04 63.53 98.18 63.53 124.62"/><polygon class="cls-16" points="97.05 124.62 103.18 118.48 103.18 92.05 97.05 98.18 97.05 124.62"/><polygon class="cls-10" points="116.78 129.28 118.19 129.75 127.18 129.75 127.99 128.94 126.58 128.47 117.6 128.47 116.78 129.28"/><rect class="cls-17" x="81.48" y="136.8" width="1.63" height="8.99"/><polygon class="cls-18" points="127.99 119.95 127.18 120.76 127.18 129.75 127.99 128.94 127.99 119.95"/><polygon class="cls-19" points="34.61 121.97 35.42 122.79 35.42 131.77 34.61 130.96 34.61 121.97"/><polygon class="cls-19" points="125.77 120.3 127.18 120.76 127.18 129.75 125.77 129.28 125.77 120.3"/><polygon class="cls-20" points="36.83 122.32 35.42 122.79 35.42 131.77 36.83 131.3 36.83 122.32"/><polygon class="cls-21" points="69.35 139.88 69.35 137.65 69.5 137.19 69.78 136.73 70.11 136.22 70.42 135.61 70.63 134.82 70.66 133.81 71.52 136.32 71.48 137.34 71.28 138.12 70.97 138.74 70.64 139.24 69.5 139.42 69.35 139.88"/><polygon class="cls-21" points="72.38 141.35 72.38 139.12 72.41 139.95 72.56 140.75 72.73 141.22 72.94 141.64 73.16 142.01 73.38 142.31 73.59 142.55 73.75 142.73 73.87 142.83 73.91 142.87 73.91 145.11 73.87 145.07 73.75 144.96 73.59 144.79 73.38 144.55 73.16 144.24 72.94 143.88 72.73 143.46 72.56 142.98 72.41 142.19 72.38 141.35"/><polygon class="cls-22" points="68.05 137.2 68.05 134.96 68.07 135.75 68.08 136.53 68.08 138.77 68.07 137.99 68.05 137.2"/><polygon class="cls-23" points="70.43 128.43 70.67 128.07 70.96 127.77 71.32 127.52 71.74 127.3 72.22 127.13 72.77 127 73.38 126.91 74.07 126.86 83.11 126.86 83.11 129.1 74.07 129.1 73.38 129.15 72.77 129.24 72.22 129.37 71.74 129.54 71.32 129.75 70.96 130.01 70.67 130.31 70.43 130.66 70.03 130.61 69.62 130.59 69.2 130.61 68.79 130.65 68.38 130.73 67.98 130.84 67.58 130.98 67.19 131.16 66.41 131.65 65.77 132.26 65.29 132.95 64.97 133.7 64.82 134.5 64.82 132.26 64.97 131.46 65.29 130.71 65.77 130.02 66.41 129.42 67.19 128.92 67.58 128.74 67.98 128.6 68.38 128.49 68.79 128.41 69.2 128.37 69.62 128.36 70.03 128.38 70.43 128.43"/><rect class="cls-24" x="74.8" y="126.86" width="8.3" height="2.24"/><polygon class="cls-25" points="83.11 129.1 83.11 126.86 83.36 126.73 83.57 126.61 83.72 126.48 83.84 126.34 83.92 126.18 83.98 126 84.02 125.8 84.05 125.55 84.19 124.36 84.4 123.28 84.7 122.31 85.11 121.45 85.65 120.72 86.34 120.1 87.2 119.61 88.25 119.25 90.08 117.74 90.08 119.98 88.25 121.49 87.2 121.85 86.34 122.34 85.65 122.95 85.11 123.69 84.7 124.55 84.4 125.52 84.19 126.6 84.05 127.78 84.02 128.03 83.98 128.24 83.92 128.42 83.84 128.58 83.72 128.72 83.57 128.84 83.36 128.97 83.11 129.1"/><polygon class="cls-26" points="85.21 121.31 85.65 120.72 86.34 120.1 87.2 119.61 88.25 119.25 90.08 117.74 90.08 119.98 88.25 121.49 87.2 121.85 86.34 122.34 85.65 122.95 85.21 123.55 85.21 121.31"/><polygon class="cls-27" points="93.84 122.49 94.55 123.01 95.11 123.42 95.5 123.76 95.72 124.09 95.76 124.45 95.76 126.69 95.72 126.33 95.5 126 95.11 125.65 94.55 125.25 93.84 124.73 93.53 124.51 93.24 124.27 92.97 124.03 92.71 123.78 92.48 123.53 92.25 123.29 92.04 123.06 91.83 122.84 91.61 122.65 91.36 122.46 91.09 122.28 90.82 122.11 90.57 121.93 90.35 121.74 90.18 121.55 90.08 121.34 90.08 119.1 90.18 119.31 90.35 119.5 90.57 119.69 90.82 119.87 91.09 120.05 91.36 120.23 91.61 120.41 91.83 120.61 92.04 120.82 92.25 121.05 92.48 121.29 92.71 121.54 92.97 121.79 93.24 122.04 93.53 122.27 93.84 122.49"/><polygon class="cls-21" points="90.31 128.28 90.31 126.04 90.38 126.53 90.6 127.15 90.87 127.89 91.09 128.74 91.13 129.69 91.13 131.92 91.09 130.98 90.87 130.13 90.6 129.39 90.38 128.76 90.31 128.28"/><polygon class="cls-28" points="90.3 134.02 90.3 131.78 90.45 131.84 90.84 132.01 91.41 132.25 92.09 132.54 92.81 132.85 93.51 133.16 94.1 133.44 94.53 133.66 94.8 133.85 94.97 134.07 95.05 134.32 95.05 134.58 95.05 136.81 95.05 136.56 94.97 136.31 94.8 136.09 94.53 135.89 94.1 135.68 93.51 135.4 92.81 135.09 92.09 134.78 91.41 134.49 90.84 134.25 90.45 134.08 90.3 134.02"/><polygon class="cls-21" points="90.33 140.6 90.33 138.37 90.7 137.85 91 137.39 91.25 136.98 91.45 136.63 91.59 136.32 91.68 136.07 91.72 135.85 91.72 138.09 91.68 138.3 91.59 138.56 91.45 138.87 91.25 139.22 91 139.63 90.7 140.09 90.33 140.6"/><path class="cls-29" d="M86.82,136.2c-6,2.29-8.87,0-11.62,1.07A4.7,4.7,0,0,0,72.56,143a4.79,4.79,0,0,0,1.35,2.13H71l-1.54-4.7c-.51-1.54,2-1.76,1-5.66a14.33,14.33,0,0,1-.32-1.65l-.09,0h0c-2.43,1.24-2,3.58-2,5.63a4.72,4.72,0,0,1-2.63-1.89,3.92,3.92,0,0,1,1.74-5.72,5.32,5.32,0,0,1,3.24-.5c.55-1,1.73-1.47,3.64-1.56h9a1.26,1.26,0,0,0,.94-1.31c.31-3.3,1.13-5.53,4.2-6.3L90.08,120v1.36c.17.57,1.22,1,1.76,1.51a12.28,12.28,0,0,0,2,1.88c2.08,1.57,2.69,1.44.77,3.73-.55.61-1.35.27-2.32-.14-.42-.18-1.43-.63-1.79-.38-1,.68,2,3.14-.2,6.08,0,0,3.36,1.4,4.23,1.87s.49,1.32.12,2-1.75,3.69-1.75,3.69l-2.57-1c1-1.46,1.47-2.27,1.39-2.68C91.53,137,89.56,138,86.82,136.2Z"/><path class="cls-30" d="M83.11,129.1H74.8v2.55a2.34,2.34,0,0,0,2.47,2.16h3.37a2.34,2.34,0,0,0,2.47-2.16Z"/><polygon class="cls-31" points="122.88 134.02 119.59 132.9 118.82 128.98 122.11 130.1 122.88 134.02"/><polygon class="cls-32" points="122.11 130.1 118.82 128.98 118.79 128.48 118.86 127.95 119 127.36 119.16 126.68 119.32 125.91 119.42 125.02 119.44 123.99 119.33 122.8 119.3 122.6 119.28 122.41 119.25 122.22 119.23 122.03 119.21 121.85 119.2 121.67 119.18 121.49 119.17 121.31 122.46 122.43 122.47 122.61 122.48 122.78 122.5 122.97 122.52 123.15 122.54 123.34 122.56 123.53 122.59 123.72 122.62 123.92 122.73 125.11 122.71 126.14 122.61 127.03 122.45 127.8 122.29 128.47 122.15 129.07 122.07 129.6 122.11 130.1"/><polygon class="cls-33" points="120.69 129.15 117.41 128.03 117.24 127.95 117.09 127.82 116.95 127.65 116.83 127.43 116.64 126.86 116.53 126.16 116.52 125.36 116.59 124.49 116.75 123.58 117 122.65 117.31 121.72 117.71 120.83 117.9 120.46 118.1 120.12 118.3 119.81 118.51 119.53 118.71 119.28 118.92 119.06 119.12 118.88 119.33 118.72 122.61 119.84 122.41 119.99 122.2 120.18 122 120.4 121.79 120.65 121.59 120.93 121.39 121.24 121.19 121.58 120.99 121.95 120.6 122.84 120.28 123.77 120.04 124.7 119.88 125.61 119.81 126.48 119.82 127.28 119.92 127.98 120.12 128.55 120.24 128.76 120.38 128.94 120.53 129.06 120.69 129.15"/><polygon class="cls-31" points="120.69 129.15 117.41 128.03 117.24 127.95 117.09 127.82 116.95 127.65 116.83 127.43 116.64 126.86 116.53 126.16 116.52 125.36 116.59 124.49 116.75 123.58 117 122.65 117.31 121.72 117.71 120.83 117.9 120.46 118.1 120.12 118.3 119.81 118.51 119.53 118.71 119.28 118.92 119.06 119.12 118.88 119.33 118.72 122.61 119.84 122.41 119.99 122.2 120.18 122 120.4 121.79 120.65 121.59 120.93 121.39 121.24 121.19 121.58 120.99 121.95 120.6 122.84 120.28 123.77 120.04 124.7 119.88 125.61 119.81 126.48 119.82 127.28 119.92 127.98 120.12 128.55 120.24 128.76 120.38 128.94 120.53 129.06 120.69 129.15"/><path class="cls-34" d="M120.87,119.25l1.74.59-.2.15-.2.19-.21.22-.21.25-.2.28-.2.31-.2.34-.2.37-.39.89-.32.92-2.77-.73A8.22,8.22,0,0,1,120.87,119.25Z"/><polygon class="cls-34" points="122.61 119.84 119.33 118.72 119.44 118.25 119.59 117.8 119.77 117.37 119.98 116.94 120.22 116.53 120.49 116.13 120.8 115.73 121.14 115.34 124.43 116.46 124.09 116.85 123.78 117.25 123.51 117.65 123.27 118.06 123.06 118.49 122.88 118.92 122.73 119.37 122.61 119.84"/><path class="cls-31" d="M120.87,119.25l-1.23-.14-.31-.39.11-.47.15-.45.18-.43.21-.43.24-.41.27-.4.31-.4.34-.39,2.3.85-.34.4-.31.39-.27.41C122.05,118.17,121.09,118.36,120.87,119.25Z"/><polygon class="cls-34" points="124.43 116.46 121.14 115.34 125.66 110.82 128.95 111.94 124.43 116.46"/><polygon class="cls-31" points="123.44 116.19 121.72 116.15 121.14 115.34 125.66 110.82 128.01 111.62 123.44 116.19"/><polygon class="cls-35" points="124.8 116.09 121.51 114.97 125.66 110.82 128.95 111.94 124.8 116.09"/><polygon class="cls-36" points="123.86 115.77 121.51 114.97 125.66 110.82 128.01 111.62 123.86 115.77"/><polygon class="cls-37" points="128.95 113.27 125.66 112.15 125.79 111.89 125.89 111.66 125.97 111.46 126.03 111.26 126.07 111.06 126.1 110.86 126.12 110.63 126.13 110.37 126.16 109.73 126.2 109.11 126.25 108.51 126.31 107.92 126.38 107.35 126.46 106.8 126.56 106.26 126.67 105.74 126.79 105.23 126.94 104.73 127.1 104.25 127.28 103.77 127.48 103.31 127.71 102.85 127.96 102.41 128.24 101.97 131.52 103.09 131.25 103.52 131 103.97 130.77 104.42 130.57 104.89 130.38 105.36 130.22 105.85 130.08 106.35 129.95 106.86 129.84 107.38 129.75 107.92 129.67 108.47 129.6 109.04 129.54 109.62 129.49 110.23 129.45 110.85 129.42 111.48 129.41 111.75 129.39 111.97 129.36 112.18 129.32 112.38 129.26 112.58 129.18 112.78 129.08 113.01 128.95 113.27"/><path class="cls-34" d="M129,111.94l-.94-.32a1.54,1.54,0,0,0,1.41-1.46v.26a1.64,1.64,0,0,0,0,.23l0,.2a1.42,1.42,0,0,0,0,.2l-.06.2-.08.2c0,.08-.07.15-.1.23Z"/><polygon class="cls-38" points="132.81 101.09 129.52 99.97 129.65 100.01 132.94 101.13 132.81 101.09"/><polygon class="cls-38" points="131.52 101.76 128.24 100.64 129.15 98.22 132.44 99.33 131.52 101.76"/><polygon class="cls-34" points="132.55 113.26 129.26 112.14 129.33 112.13 129.53 112.1 129.81 112.06 130.16 112.01 130.51 111.96 130.86 111.92 131.16 111.9 131.38 111.9 134.66 113.02 134.45 113.02 134.15 113.04 133.8 113.08 133.44 113.13 133.1 113.17 132.82 113.22 132.62 113.25 132.55 113.26"/><polygon class="cls-19" points="132.56 119.83 129.28 118.71 129.46 118.01 129.61 117.4 129.74 116.87 129.83 116.42 129.91 116.04 129.95 115.74 129.97 115.5 129.97 115.33 129.89 115.15 133.18 116.27 133.25 116.45 133.26 116.62 133.24 116.86 133.19 117.16 133.12 117.53 133.02 117.99 132.9 118.52 132.75 119.13 132.56 119.83"/><path class="cls-18" d="M130.8,117.19c-3,5.31-4.43,4.43-5.8,6.87a12.25,12.25,0,0,0-1.32,7,2.12,2.12,0,0,0,.67,1.45L122.88,134l-.78-3.92c-.25-1.29,1-2.78.52-6.18-.08-.53-.13-1-.16-1.49l0,.09h0c-1.21,2.45-1,4.55-1,6.6a1,1,0,0,1-1.32-.57c-.66-1.34-.27-4.3.87-6.6a5.61,5.61,0,0,1,1.62-2.11,7.16,7.16,0,0,1,1.82-3.38l4.52-4.52a3.31,3.31,0,0,0,.47-1.78c.16-3.46.56-6.09,2.1-8.4l.92-2.43v1.36c.08.49.61.36.87.63s.58.75,1,.88c1,.54,1.34.09.38,3.35-.27.88-.67.94-1.16,1a1,1,0,0,0-.89.52c-.48,1.15,1,2.12-.1,6.17a16.65,16.65,0,0,1,2.11-.24c.44,0,.25,1.07.06,1.94s-.88,4.57-.88,4.57l-1.28.3a14.88,14.88,0,0,0,.7-3.38C133.16,115.66,132.18,117.59,130.8,117.19Z"/><path class="cls-31" d="M129.43,109.83c.17-3.3.17-6,1.66-8.22l1.19-1.86.16,0v1c.08.49.61.36.87.63s.28.33.44.5l-2.25,6-2.06,2.07Z"/><path class="cls-39" d="M129,111.94l-4.15,4.15v2.55c0,1.19.55,1.61,1.23.94l1.69-1.69a5.5,5.5,0,0,0,1.23-3.4Z"/><rect class="cls-17" x="81.48" y="111.18" width="1.63" height="17.27"/><polygon class="cls-31" points="127.99 94.33 127.18 95.14 127.18 113.74 127.99 112.93 127.99 94.33"/><polygon class="cls-40" points="125.77 93.34 127.18 93.81 127.18 112.41 125.77 111.94 125.77 93.34"/><polygon class="cls-20" points="29.64 118.6 33.43 117.87 33.09 118.09 32.82 118.5 32.62 119.06 32.49 119.75 32.44 120.53 32.45 121.37 32.53 122.25 32.61 122.81 32.72 123.33 32.83 123.81 32.94 124.22 33.04 124.57 33.12 124.83 33.18 124.99 33.2 125.05 29.85 126.17 29.82 126.11 29.77 125.94 29.68 125.69 29.58 125.34 29.47 124.93 29.36 124.45 28.82 123.55 28.73 122.98 28.65 122.11 28.64 121.26 28.7 120.48 28.82 119.8 29.02 119.24 29.29 118.83 29.64 118.6"/><polygon class="cls-20" points="26.66 111.2 30.87 111.26 30.6 111.59 30.42 112.08 30.32 112.71 30.27 113.42 30.27 114.2 30.28 115 30.29 115.79 26.93 116.91 26.07 114.94 26.06 114.14 26.07 113.36 26.11 112.64 26.21 112.02 26.39 111.53 26.66 111.2"/><polygon class="cls-31" points="26.09 108.96 29.45 107.84 29.84 107.74 30.04 107.76 30.23 107.81 30.44 107.9 30.64 108.03 30.85 108.19 31.05 108.39 31.26 108.61 31.46 108.86 28.11 109.98 27.9 109.73 27.7 109.51 27.49 109.31 27.29 109.15 27.08 109.02 26.88 108.93 26.68 108.87 26.49 108.86 26.09 108.96"/><polygon class="cls-31" points="28.55 109.52 31.91 108.4 32.12 108.39 32.36 108.47 32.63 108.61 32.94 108.83 33.28 109.12 29.92 110.23 29.58 109.94 29.28 109.73 29 109.58 28.76 109.51 28.55 109.52"/><polygon class="cls-31" points="29.92 110.23 33.28 109.12 37.8 113.64 34.44 114.75 29.92 110.23"/><polygon class="cls-36" points="30.29 110.6 33.65 109.48 37.8 113.64 34.44 114.75 30.29 110.6"/><polygon class="cls-31" points="34.44 114.75 37.8 113.64 37.93 113.64 38.03 113.61 34.68 114.73 34.57 114.76 34.44 114.75"/><polygon class="cls-31" points="36.06 109.61 39.42 108.49 39.85 108.44 40.37 108.6 37.02 109.72 36.49 109.55 36.06 109.61"/><polygon class="cls-19" points="37.93 109.13 41.29 108.01 41.29 109.37 37.93 110.49 37.93 109.13"/><polygon class="cls-41" points="37.37 116.61 41.5 116.18 41.4 116.42 41.44 116.94 41.55 117.67 41.68 118.55 41.79 119.51 41.81 120.48 41.7 121.38 41.4 122.16 38.04 123.27 38.34 122.5 38.46 121.59 38.43 120.63 38.33 119.67 37.42 118.11 37.31 117.37 37.27 116.85 37.37 116.61"/><polygon class="cls-42" points="43.17 114.64 43.52 115.51 43.8 116.19 44 116.73 44.11 117.17 44.13 117.55 44.04 117.91 43.85 118.3 43.55 118.75 43.44 118.83 40.09 119.94 40.2 119.86 40.5 119.42 40.69 119.03 40.77 118.67 40.75 118.29 40.64 117.85 40.45 117.31 40.17 116.63 39.81 115.75 39.66 115.38 39.51 115 39.38 114.62 39.25 114.24 39.13 113.87 39.02 113.52 38.91 113.18 38.81 112.87 38.7 112.56 38.57 112.25 38.44 111.93 38.3 111.62 38.18 111.31 38.07 111.02 37.98 110.74 37.93 110.49 41.29 109.37 41.34 109.62 41.42 109.9 41.53 110.2 41.66 110.5 41.79 110.81 41.93 111.13 42.05 111.44 42.16 111.75 42.27 112.06 42.37 112.4 42.48 112.75 42.6 113.12 42.73 113.5 42.87 113.88 43.01 114.26 43.17 114.64"/><polygon class="cls-19" points="34.61 96.35 35.42 97.16 35.42 115.76 34.61 114.95 34.61 96.35"/><polygon class="cls-43" points="36.83 96.69 35.42 97.16 35.42 115.76 36.83 115.3 36.83 96.69"/><polygon class="cls-44" points="43.57 128.2 43.48 128.46 43.35 128.85 43.21 129.31 43.06 129.79 42.92 130.26 42.8 130.65 42.72 130.92 42.69 131.02 39.34 132.14 39.37 132.03 39.45 131.77 39.57 131.37 39.71 130.91 39.86 130.43 40 129.97 40.12 129.58 40.22 129.32 40.28 129.12 40.34 128.91 40.39 128.69 40.42 128.45 40.41 128.18 40.38 127.9 40.29 127.59 40.16 127.26 39.94 126.83 39.64 126.26 39.3 125.6 38.94 124.93 38.6 124.3 38.31 123.77 38.12 123.41 38.04 123.27 41.4 122.16 41.47 122.29 41.67 122.65 41.95 123.18 42.29 123.81 42.65 124.48 43 125.14 43.3 125.71 43.51 126.15 43.65 126.47 43.73 126.78 43.77 127.06 43.77 127.33 43.75 127.57 43.7 127.8 43.64 128 43.57 128.2"/><path class="cls-19" d="M36.3,123.71c-3-.73-4.43-4.43-5.81-4.74-1.21-.27-1.62,2-1.32,4.4a14,14,0,0,0,.68,2.8l-1.48-1.48-.77-5.47c-.26-1.8,1-.75.51-5.15-.08-.68-.13-1.28-.16-1.81h0c-1.22,0-1,2.6-1,4.65a11.5,11.5,0,0,1-1.32-3.2c-.65-2.67-.26-4.84.88-4.85A2.3,2.3,0,0,1,28.11,110c.27-.72.86-.61,1.81.25l4.52,4.52c.39,0,.44-.16.47-.84.16-3.14.57-5,2.11-4.19l.91-.59v1.36a18.88,18.88,0,0,0,.88,2.38c.26.8.57,1.89,1,2.88,1,2.61,1.35,2.79.39,4.12-.28.34-.68-.4-1.16-1.31-.21-.38-.72-1.34-.9-1.26-.48.2,1,4.14-.1,6,0,0,1.68,3.09,2.12,4a2.38,2.38,0,0,1,.05,2.06c-.18.49-.87,2.82-.87,2.82l-1.28-2.26a3.9,3.9,0,0,0,.69-2C38.66,126.9,37.67,126.86,36.3,123.71Z"/><path class="cls-36" d="M34.44,114.75l-4.15-4.15v2.56a5.53,5.53,0,0,0,1.23,3.39l1.69,1.69c.68.68,1.23.26,1.23-.93Z"/><rect class="cls-45" x="58.78" y="165.85" width="43.03" height="6.15"/><polygon class="cls-46" points="21.51 153.43 58.78 165.85 58.78 172 21.51 159.58 21.51 153.43"/><polygon class="cls-47" points="21.51 153.43 0 131.91 0 138.06 21.51 159.58 21.51 153.43"/><polygon class="cls-48" points="101.8 165.85 139.06 153.43 139.06 159.58 101.8 172 101.8 165.85"/><polygon class="cls-49" points="160.57 131.91 139.06 153.43 139.06 159.58 160.57 138.07 160.57 131.91"/><polygon class="cls-35" points="128.5 40.39 136.54 35.74 100.88 23.85 97.93 30.2 128.5 40.39"/><polygon class="cls-35" points="62.64 30.2 59.7 23.85 24.03 35.74 32.08 40.38 62.64 30.2"/><polygon class="cls-35" points="14.43 58.03 3.44 56.33 3.44 80.11 14.44 78.41 14.43 58.03"/><polygon class="cls-35" points="32.08 96.05 24.03 100.7 59.7 112.58 62.64 106.24 32.08 96.05"/><polygon class="cls-35" points="97.93 106.24 100.88 112.58 136.54 100.7 128.5 96.05 97.93 106.24"/><polygon class="cls-35" points="146.14 78.41 157.13 80.11 157.13 56.33 146.14 58.03 146.14 78.41"/><polygon class="cls-10" points="132.64 37.99 136.54 35.74 100.88 23.85 100.05 25.63 130.39 35.74 132.64 37.99"/><polygon class="cls-7" points="100.05 110.81 100.88 112.58 136.54 100.7 132.64 98.44 130.39 100.7 100.05 110.81"/><polygon class="cls-10" points="150.98 79.15 157.13 80.11 157.13 56.33 150.98 57.28 150.98 79.15"/><polygon class="cls-6" points="32.08 40.38 24.03 35.74 3.44 56.33 14.43 58.03 14.43 58.03 32.08 40.39 32.08 40.38"/><polygon class="cls-35" points="97.93 30.2 100.88 23.85 59.7 23.85 62.64 30.2 62.64 30.2 97.93 30.2"/><polygon class="cls-6" points="14.44 78.41 3.44 80.11 24.03 100.7 32.08 96.05 14.44 78.41 14.44 78.41"/><polygon class="cls-35" points="62.64 106.24 59.7 112.58 100.88 112.58 97.93 106.24 97.93 106.24 80.87 105.47 62.64 106.24"/><polygon class="cls-6" points="128.5 96.05 136.54 100.7 157.13 80.11 146.14 78.41 146.14 78.41 128.5 96.05"/><polygon class="cls-6" points="146.14 58.03 157.13 56.33 136.54 35.74 128.5 40.39 146.14 58.03 146.14 58.03"/><polygon class="cls-10" points="100.05 25.63 100.88 23.85 94.72 23.85 100.05 25.63"/><polygon class="cls-10" points="94.72 112.58 100.88 112.58 100.05 110.81 94.73 112.58 94.72 112.58 94.72 112.58"/><polygon class="cls-10" points="132.64 98.44 136.54 100.7 157.13 80.11 150.98 79.15 150.98 80.11 132.64 98.44"/><polygon class="cls-7" points="150.98 57.28 157.13 56.33 136.54 35.74 132.64 37.99 150.98 56.33 150.98 57.28"/><polygon class="cls-50" points="113.52 39.54 128.5 40.39 97.93 30.2 92.45 32.52 113.52 39.54"/><polygon class="cls-51" points="68.12 32.52 62.64 30.2 32.08 40.38 47.06 39.54 68.12 32.52"/><polygon class="cls-51" points="34.89 51.7 14.43 58.03 14.44 78.41 34.89 65.75 34.89 51.7"/><polygon class="cls-52" points="92.45 84.93 97.93 106.24 128.5 96.05 113.52 77.91 99.32 75.67 92.45 84.93"/><polygon class="cls-52" points="125.68 65.75 146.14 78.41 146.14 58.03 125.68 51.7 125.68 65.75"/><polygon class="cls-53" points="47.06 39.54 32.08 40.38 32.08 40.39 14.43 58.03 14.43 58.03 34.89 51.7 34.89 51.7 47.06 39.54 47.06 39.54"/><polygon class="cls-35" points="92.45 32.52 97.93 30.2 62.64 30.2 62.64 30.2 68.12 32.52 92.45 32.52"/><polygon class="cls-53" points="34.89 65.75 14.44 78.41 14.44 78.41 32.08 96.05 47.06 77.91 34.89 65.75 34.89 65.75"/><polygon class="cls-50" points="68.13 84.93 62.64 106.24 97.93 106.24 97.93 106.24 92.45 84.93 68.13 84.93"/><polygon class="cls-50" points="113.52 77.91 128.5 96.05 146.14 78.41 146.14 78.41 125.68 65.75 113.52 77.91"/><polygon class="cls-50" points="125.68 51.7 146.14 58.03 146.14 58.03 128.5 40.39 113.52 39.54 125.68 51.7 125.68 51.7"/><polygon class="cls-54" points="84.11 0.81 113.52 39.54 92.45 32.52 81.69 0 81.69 0 84.11 0.81"/><rect class="cls-55" x="59.7" y="17.7" width="41.18" height="6.15"/><polygon class="cls-54" points="78.89 0 68.12 32.52 47.06 39.54 76.46 0.81 78.89 0"/><polygon class="cls-56" points="75.06 2.21 34.89 51.7 34.89 65.75 75.06 3.82 75.06 2.21"/><polygon class="cls-52" points="76.46 5.22 47.06 77.91 54.68 83.56 68.13 84.93 78.89 6.03 78.89 6.03 76.46 5.22"/><polygon class="cls-57" points="81.69 6.03 92.45 84.93 113.52 77.91 84.11 5.22 81.69 6.03"/><polygon class="cls-58" points="85.51 3.82 125.68 65.75 125.68 51.7 85.51 2.21 85.51 3.82"/><polygon class="cls-3" points="76.46 0.81 47.06 39.54 47.06 39.54 34.89 51.7 34.89 51.7 75.06 2.21 76.46 0.81"/><polygon class="cls-3" points="75.06 3.82 34.89 65.75 34.89 65.75 47.06 77.91 76.46 5.22 75.06 3.82"/><polygon class="cls-59" points="78.89 6.03 68.13 84.93 92.45 84.93 81.69 6.03 78.89 6.03"/><polygon class="cls-59" points="84.11 5.22 113.52 77.91 125.68 65.75 85.51 3.82 84.11 5.22"/><polygon class="cls-59" points="85.51 2.21 125.68 51.7 125.68 51.7 113.52 39.54 84.11 0.81 85.51 2.21"/><polygon class="cls-35" points="80.29 3.02 84.11 0.81 81.69 0 81.69 0 80.29 3.02"/><polygon class="cls-35" points="80.29 3.02 78.89 0 76.46 0.81 80.29 3.02"/><polygon class="cls-35" points="80.29 3.02 75.06 2.21 75.06 3.82 80.29 3.02"/><polygon class="cls-35" points="80.29 3.02 76.46 5.22 78.89 6.03 78.89 6.03 80.29 3.02"/><polygon class="cls-35" points="80.29 3.02 81.69 6.03 84.11 5.22 80.29 3.02"/><polygon class="cls-35" points="80.29 3.02 85.51 3.82 85.51 2.21 80.29 3.02"/><polygon class="cls-6" points="80.29 3.02 76.46 0.81 75.06 2.21 80.29 3.02"/><polygon class="cls-6" points="80.29 3.02 81.69 0 78.89 0 80.29 3.02"/><polygon class="cls-6" points="80.29 3.02 75.06 3.82 76.46 5.22 80.29 3.02"/><polygon class="cls-6" points="80.29 3.02 78.89 6.03 81.69 6.03 80.29 3.02"/><polygon class="cls-6" points="80.29 3.02 84.11 5.22 85.51 3.82 80.29 3.02"/><polygon class="cls-6" points="80.29 3.02 85.51 2.21 84.11 0.81 80.29 3.02"/><polygon class="cls-9" points="47.06 77.91 32.08 96.05 62.64 106.24 68.13 84.93 47.06 77.91"/><path class="cls-1" d="M98.08,17.7h2.8l35.66,11.89,20.59,20.59V74L136.54,94.54l-35.66,11.89H59.7L24,94.54,3.44,74V50.18L24,29.59,59.7,17.7h2.79l1.61-2H58.77L21.51,28.13h0L0,49.64V74.49L21.51,96l37.27,12.42h43L139.06,96l21.51-21.51V49.65L139.06,28.13,101.8,15.71H96.47Z"/><rect class="cls-45" x="58.78" y="108.42" width="43.03" height="6.15"/><polygon class="cls-60" points="21.51 96 58.78 108.42 58.78 114.57 21.51 102.15 21.51 96"/><polygon class="cls-61" points="136.54 35.74 104.04 24.91 100.88 21.11 100.88 17.7 136.54 29.59 136.54 35.74"/><polygon class="cls-60" points="21.51 96 0 74.49 0 80.64 21.51 102.15 21.51 96"/><polygon class="cls-62" points="136.54 35.74 157.13 56.33 157.13 50.18 136.54 29.59 136.54 35.74"/><polygon class="cls-48" points="101.8 108.42 139.06 96 139.06 102.15 101.8 114.57 101.8 108.42"/><polygon class="cls-63" points="59.7 21.14 56.63 24.88 24.03 35.74 24.03 29.59 59.7 17.7 59.7 21.14"/><polygon class="cls-49" points="160.57 74.49 139.06 96 139.06 102.15 160.57 80.64 160.57 74.49"/><polygon class="cls-64" points="3.44 56.33 24.03 35.74 24.03 29.59 3.44 50.18 3.44 56.33"/><path class="cls-65" d="M22.83,155.71c-.55-.21-1.08-1.58-1.08-1.58A5.67,5.67,0,0,1,23,153.7v-.19a8.53,8.53,0,0,1-1,0s.13-1.52.59-1.9l.11-.07a4.76,4.76,0,0,1-1.27-1.32,5.19,5.19,0,0,1,1.58-.73,1.43,1.43,0,0,1-.63-.32c-.4-.44-.25-1.9-.25-1.9a6.79,6.79,0,0,1,.89.09v-.17l.48.28a1.57,1.57,0,0,1,.23.09,5,5,0,0,1,1.79-.29s0,.32-.05.7h.07c.35.07.75.53,1,.89a7.08,7.08,0,0,1,1-.46,8.45,8.45,0,0,1,.27.9s.36,0,.41,0a2.82,2.82,0,0,0,.41-.23.65.65,0,0,1,.51-.13.09.09,0,0,1,.06,0s0,0,0,.06c.05.25.05.54.11.78s0,.14.18.1l.15-.07s.55,1.42.31,2a.83.83,0,0,1-.21.26,2,2,0,0,1-.31,1.14,8.85,8.85,0,0,1,.81.54,6.8,6.8,0,0,1-1,1,3.17,3.17,0,0,1,.37,1.7.8.8,0,0,1-.13.21,4,4,0,0,1,.9,1.61s-.26.1-.59.2a.88.88,0,0,0,0,.27c0,.18.25.23.42.32s0,0,0,0,0,0,0,0a2.18,2.18,0,0,1-.47.58c-.12.1-.31.16-.39.31-.19.37.42.33.67.39,0,0-.22,1.38-.69,1.75V163a1.49,1.49,0,0,1,0,.7v.76l-.19-.11c-.1.29-.2.51-.2.51s-1.38-.5-1.6-1.05a.52.52,0,0,1-.05-.23,6.71,6.71,0,0,1-1,.7,5.67,5.67,0,0,1-.63-1.2.87.87,0,0,1-.15.13c-.52.29-1.91-.14-1.91-.14a6.35,6.35,0,0,1,.31-1,6.09,6.09,0,0,1-1.35.16s-.12-1.45.28-1.89a.91.91,0,0,1,.27-.18,5.13,5.13,0,0,1-1.08-1.38,4,4,0,0,1,.42-.22,3.59,3.59,0,0,1,.35-.12.24.24,0,0,0,.16-.27.44.44,0,0,0-.13-.2l-.19-.2,0,0a.2.2,0,0,1,0-.08,6,6,0,0,1-.73-1,6.67,6.67,0,0,1,1.11-.57v-.3A.38.38,0,0,1,22.83,155.71Z"/><path class="cls-66" d="M35.08,155.71c.56-.21,1.09-1.58,1.09-1.58a5.85,5.85,0,0,0-1.28-.43v-.19a8.53,8.53,0,0,0,1,0s-.13-1.52-.58-1.9l-.12-.07a4.76,4.76,0,0,0,1.27-1.32,5.09,5.09,0,0,0-1.57-.73,1.39,1.39,0,0,0,.62-.32c.4-.44.25-1.9.25-1.9a6.79,6.79,0,0,0-.89.09v-.17l-.47.28a1.34,1.34,0,0,0-.24.09,5,5,0,0,0-1.78-.29s0,.32,0,.7h-.07c-.34.07-.75.53-1,.89a7.08,7.08,0,0,0-1-.46,8.45,8.45,0,0,0-.27.9s-.36,0-.4,0a2.06,2.06,0,0,1-.41-.23.67.67,0,0,0-.52-.13s-.05,0-.06,0,0,0,0,.06c-.05.25,0,.54-.11.78s0,.14-.18.1l-.15-.07s-.54,1.42-.3,2a.79.79,0,0,0,.2.26,2.08,2.08,0,0,0,.31,1.14,7.93,7.93,0,0,0-.8.54,6.48,6.48,0,0,0,1,1,3.26,3.26,0,0,0-.37,1.7.8.8,0,0,0,.13.21,4,4,0,0,0-.89,1.61s.25.1.59.2a.86.86,0,0,1,0,.27c0,.18-.25.23-.42.32s0,0,0,0a0,0,0,0,0,0,0,2.18,2.18,0,0,0,.47.58c.12.1.31.16.39.31.19.37-.41.33-.66.39,0,0,.21,1.38.69,1.75V163a1.27,1.27,0,0,0,0,.7v.76l.18-.11c.11.29.21.51.21.51s1.37-.5,1.6-1.05a1.14,1.14,0,0,0,.05-.23,6.16,6.16,0,0,0,1,.7,5.86,5.86,0,0,0,.62-1.2.87.87,0,0,0,.15.13c.52.29,1.91-.14,1.91-.14a7,7,0,0,0-.3-1,6,6,0,0,0,1.35.16s.11-1.45-.29-1.89a.8.8,0,0,0-.27-.18,5.13,5.13,0,0,0,1.08-1.38s-.39-.21-.41-.22l-.35-.12a.22.22,0,0,1-.16-.27A.41.41,0,0,1,35,158l.19-.2,0,0a.56.56,0,0,0,.05-.08,6.35,6.35,0,0,0,.72-1,6.67,6.67,0,0,0-1.11-.57v-.3A.38.38,0,0,0,35.08,155.71Z"/><path class="cls-67" d="M34.06,146l-.19.05-.39-.22v-.09c-.1-.64-1.44-1.61-1.44-1.61s-.13.17-.28.41v0c-.15-.63-1.56-1.5-1.56-1.5s-.12.19-.26.47a6.59,6.59,0,0,0-1.33-1.08,7.63,7.63,0,0,0-.62,1.29c-.09-.24-.17-.4-.17-.4s-1.49.57-1.73,1.17a1.1,1.1,0,0,0-.05.46L26,145a5.81,5.81,0,0,0-1.66.14s.05.33.15.73l-.38.22a1.08,1.08,0,0,0-.44-.09c-.65.05-1.72,1.31-1.72,1.31s1.26,1.08,1.91,1a.88.88,0,0,0,.29-.09l.06,0a.37.37,0,0,0,0,.11c.08.65,1.39,1.56,1.39,1.56a6.51,6.51,0,0,0,.44-.6l.25.14a6.27,6.27,0,0,0,1,1.48s.27-.25.56-.58l.2.12a.67.67,0,0,0,.12.16,1.6,1.6,0,0,0,.73.33L29,151l0,0a7.91,7.91,0,0,0,1.24.13,7.87,7.87,0,0,0,0-.82l0,0a9,9,0,0,0,.71.65,6.06,6.06,0,0,0,.91-1.58l.18-.11a10,10,0,0,0,.82.76,5.42,5.42,0,0,0,1-1.74,1.14,1.14,0,0,0,.46.09C35,148.28,36,147,36,147S34.71,145.94,34.06,146Z"/><polygon class="cls-1" points="75.48 162.37 86.08 168.49 98.71 161.2 88.11 155.08 75.48 162.37"/><polygon class="cls-68" points="98.71 161.2 86.08 168.49 86.08 190.53 98.71 183.23 98.71 161.2"/><polygon class="cls-69" points="86.08 185.68 86.08 187.79 95.79 182.18 97.53 177.74 97.53 176.72 87.27 182.64 86.08 185.68"/><polygon class="cls-70" points="98.71 161.2 86.08 168.49 86.08 169.25 86.08 175.27 98.71 167.97 98.71 161.96 98.71 161.2"/><polygon class="cls-71" points="71.97 160.34 86.08 168.49 86.08 190.53 71.97 182.38 71.97 160.34"/><polygon class="cls-72" points="71.97 160.34 86.08 168.49 86.08 172.72 71.97 164.58 71.97 160.34"/><path class="cls-73" d="M88,184V172.76l.86-2.22L96,166.43v12.92L88,184Zm1.79-3.83,4.38-2.53v-7.32l-4.38,2.53Z"/><polygon class="cls-35" points="87.27 182.64 97.53 176.72 99.29 177.74 89.03 183.66 87.27 182.64"/><polygon class="cls-74" points="87.98 182.23 89.72 181.22 89.72 182.24 87.98 182.23"/><polygon class="cls-4" points="88.84 170.54 88.84 181.73 89.72 182.24 89.72 171.05 88.84 170.54"/><polygon class="cls-4" points="88.84 170.54 95.95 166.43 96.83 166.94 89.72 171.05 88.84 170.54"/><path class="cls-6" d="M89.72,182.24V171.05l7.11-4.11v11.2l-.93.53h0l-5.24,3-.94.54Zm6.18-4.64v-9l-5.24,3v9Z"/><polygon class="cls-7" points="89.72 172.46 89.72 171.05 96.83 166.94 96.83 168.35 95.9 168.89 95.9 168.56 90.66 171.58 90.66 171.92 89.72 172.46"/><polygon class="cls-50" points="90.66 179.61 95.02 177.09 95.9 177.6 90.66 180.63 90.66 179.61"/><polygon class="cls-4" points="94.14 177.6 95.02 177.09 95.9 177.6 94.14 177.6"/><polygon class="cls-4" points="95.02 169.06 95.02 177.09 95.9 177.6 95.9 168.56 95.02 169.06"/><polygon class="cls-35" points="70.46 157.63 88.71 168.17 102.85 160.01 84.6 149.47 70.46 157.63"/><polygon class="cls-75" points="85.64 166.4 88.71 168.17 88.71 168.17 102.85 160.01 101.81 159.41 97.74 159.41 85.64 166.4"/><polygon class="cls-76" points="102.86 160.01 88.71 168.17 88.71 170.88 102.86 162.72 102.86 160.01"/><polygon class="cls-74" points="70.46 157.63 88.71 168.17 88.71 170.88 70.46 160.34 70.46 157.63"/><polygon class="cls-76" points="89.03 184.68 99.29 178.75 99.29 177.74 89.03 183.66 89.03 184.68"/><polygon class="cls-74" points="89.03 184.68 87.27 183.66 87.27 182.64 89.03 183.66 89.03 184.68"/><polygon class="cls-76" points="102.86 155.93 88.71 164.09 88.71 168.17 102.86 160.01 102.86 155.93"/><polygon class="cls-74" points="88.71 164.09 87.67 163.49 87.67 167.57 88.71 168.17 88.71 164.09"/><polygon class="cls-35" points="88.71 164.09 87.67 163.49 101.82 155.33 102.86 155.93 88.71 164.09"/><path class="cls-77" d="M90.15,167.8l.08-2-.71.41,0-.54,1.95-1.11,0,.54-.71.4-.08,2-.53.3Zm1.5-.85.1-2.58.54-.3-.11,2.58-.53.3Zm2.78-3.3a.55.55,0,0,0-.29-.09.66.66,0,0,0-.31.1,1.24,1.24,0,0,0-.47.49,1.41,1.41,0,0,0-.2.68.51.51,0,0,0,.15.47.42.42,0,0,0,.46,0,1.68,1.68,0,0,0,.34-.28,2.7,2.7,0,0,0,.35-.43l-.06.7a2.72,2.72,0,0,1-.32.35,2,2,0,0,1-.36.26,1,1,0,0,1-.38.14.5.5,0,0,1-.32,0,.52.52,0,0,1-.31-.29,1.14,1.14,0,0,1-.09-.55,2,2,0,0,1,.1-.58A2.84,2.84,0,0,1,93,164a2.46,2.46,0,0,1,.39-.51,1.61,1.61,0,0,1,.45-.35,1.32,1.32,0,0,1,.36-.15.86.86,0,0,1,.32,0l-.08.69Zm.34,1.53.1-2.58.53-.3,0,1.13.78-1.55.64-.36-.9,1.71.86.84-.64.36-.75-.74,0,1.19-.53.3ZM96.92,164l.1-2.58,1.38-.78,0,.53-.86.49,0,.47.74-.42,0,.53-.74.42,0,.51.87-.5,0,.55-1.39.78Zm2.25-1.27.08-2-.71.4,0-.54,2-1.11,0,.54-.71.4-.08,2-.54.3Zm1.43-1.52a1,1,0,0,0,.34,0,.73.73,0,0,0,.28-.1.69.69,0,0,0,.22-.19.5.5,0,0,0,.1-.23c0-.11-.09-.17-.29-.19H101a.41.41,0,0,1-.31-.14.47.47,0,0,1-.09-.35,1.23,1.23,0,0,1,.22-.63,1.62,1.62,0,0,1,.54-.5l.25-.11a2,2,0,0,1,.31-.08l0,.61a1,1,0,0,0-.3,0,.85.85,0,0,0-.24.08.4.4,0,0,0-.18.16.27.27,0,0,0-.07.18.18.18,0,0,0,0,.11.18.18,0,0,0,.11,0l.26,0a.7.7,0,0,1,.43.14.45.45,0,0,1,.09.35,1.47,1.47,0,0,1-.24.74,1.75,1.75,0,0,1-.61.57,1.11,1.11,0,0,1-.27.12,1.4,1.4,0,0,1-.31.09Z"/><path class="cls-65" d="M58.43,176.44c-.56-.22-1.09-1.58-1.09-1.58a6.22,6.22,0,0,1,1.28-.44v-.19a6.64,6.64,0,0,1-1,0s.13-1.51.58-1.89l.12-.07A4.75,4.75,0,0,1,57,170.93a5.35,5.35,0,0,1,1.57-.73,1.3,1.3,0,0,1-.62-.32c-.4-.44-.25-1.89-.25-1.89a5.87,5.87,0,0,1,.89.08v-.16l.47.27a1.33,1.33,0,0,1,.24.1,4.73,4.73,0,0,1,1.78-.29s0,.32,0,.7h.07c.34.06.75.52,1,.89a7.08,7.08,0,0,1,1-.46,7.66,7.66,0,0,1,.27.9s.36,0,.4,0a2.06,2.06,0,0,0,.41-.23.67.67,0,0,1,.52-.12.07.07,0,0,1,.06,0s0,0,0,.07c.05.25,0,.53.11.78s0,.13.18.09l.15-.06s.54,1.42.3,2a.76.76,0,0,1-.2.25,2.12,2.12,0,0,1-.31,1.15,6.38,6.38,0,0,1,.8.54,6.15,6.15,0,0,1-1,1,3.26,3.26,0,0,1,.37,1.7.71.71,0,0,1-.13.22A4,4,0,0,1,66,179s-.25.1-.59.2a.86.86,0,0,0,0,.27c0,.17.25.22.42.31a.07.07,0,0,1,0,0s0,0,0,0a2.18,2.18,0,0,1-.47.58c-.12.1-.31.16-.39.3-.19.38.41.33.66.39,0,0-.21,1.39-.69,1.75v.77a1.27,1.27,0,0,1,0,.7v.76l-.18-.11c-.11.29-.21.51-.21.51s-1.37-.5-1.6-1a1.55,1.55,0,0,1,0-.23,6.16,6.16,0,0,1-1,.7,6.08,6.08,0,0,1-.62-1.21.58.58,0,0,1-.15.13c-.52.3-1.91-.13-1.91-.13a7,7,0,0,1,.3-1,5.69,5.69,0,0,1-1.35.17s-.11-1.46.29-1.89a.8.8,0,0,1,.27-.18,5.23,5.23,0,0,1-1.09-1.39l.42-.21c.12-.05.24-.08.36-.12a.23.23,0,0,0,.15-.27.45.45,0,0,0-.12-.21l-.19-.19,0,0a.41.41,0,0,1-.05-.09,6,6,0,0,1-.72-1,5.92,5.92,0,0,1,1.11-.57v-.3Z"/><path class="cls-66" d="M70.68,176.44c.55-.22,1.08-1.58,1.08-1.58a6,6,0,0,0-1.27-.44v-.19a6.64,6.64,0,0,0,1,0s-.13-1.51-.59-1.89a.41.41,0,0,0-.11-.07,4.75,4.75,0,0,0,1.27-1.33,5.45,5.45,0,0,0-1.58-.73,1.33,1.33,0,0,0,.63-.32c.39-.44.25-1.89.25-1.89a5.87,5.87,0,0,0-.89.08v-.16l-.48.27-.23.1A4.8,4.8,0,0,0,68,168s0,.32.05.7H68c-.35.06-.75.52-1,.89a6.67,6.67,0,0,0-1-.46,7.66,7.66,0,0,0-.27.9s-.36,0-.41,0a2.82,2.82,0,0,1-.41-.23.64.64,0,0,0-.51-.12.06.06,0,0,0-.06,0,.09.09,0,0,0,0,.07c-.05.25-.05.53-.11.78s0,.13-.18.09l-.15-.06s-.55,1.42-.31,2a.8.8,0,0,0,.21.25,2,2,0,0,0,.31,1.15,7,7,0,0,0-.81.54,6.44,6.44,0,0,0,1,1,3.17,3.17,0,0,0-.37,1.7.71.71,0,0,0,.13.22,4,4,0,0,0-.9,1.61s.26.1.59.2a.88.88,0,0,1,0,.27c0,.17-.25.22-.42.31a.07.07,0,0,0,0,0s0,0,0,0a2.18,2.18,0,0,0,.47.58c.12.1.31.16.39.3.19.38-.42.33-.67.39,0,0,.22,1.39.69,1.75v.77a1.49,1.49,0,0,0,0,.7v.76l.19-.11c.1.29.2.51.2.51s1.38-.5,1.6-1a.59.59,0,0,0,.05-.23,6.71,6.71,0,0,0,1,.7,5.87,5.87,0,0,0,.63-1.21.58.58,0,0,0,.15.13c.52.3,1.91-.13,1.91-.13a6.28,6.28,0,0,0-.31-1,5.74,5.74,0,0,0,1.35.17s.12-1.46-.28-1.89a.91.91,0,0,0-.27-.18,5.12,5.12,0,0,0,1.08-1.39l-.42-.21a3.59,3.59,0,0,0-.35-.12.24.24,0,0,1-.16-.27.46.46,0,0,1,.13-.21l.19-.19,0,0a.36.36,0,0,0,0-.09,5.74,5.74,0,0,0,.73-1,5.92,5.92,0,0,0-1.11-.57v-.3Z"/><path class="cls-67" d="M69.66,166.74a.45.45,0,0,0-.19,0l-.39-.23a.25.25,0,0,0,0-.08c-.1-.64-1.44-1.61-1.44-1.61s-.12.17-.27.41v0c-.15-.63-1.56-1.49-1.56-1.49s-.12.19-.27.46a6.54,6.54,0,0,0-1.32-1.07,7.34,7.34,0,0,0-.62,1.28c-.09-.23-.17-.39-.17-.39s-1.49.57-1.73,1.17a1.08,1.08,0,0,0,0,.46l0,0a6,6,0,0,0-1.66.13s0,.34.15.74l-.38.22a1,1,0,0,0-.45-.1c-.64.06-1.71,1.32-1.71,1.32s1.26,1.08,1.9,1a.73.73,0,0,0,.3-.09l.06,0v.11c.09.64,1.4,1.56,1.4,1.56s.21-.26.44-.61l.24.14a6.27,6.27,0,0,0,1,1.48,7.25,7.25,0,0,0,.56-.57l.2.11a.71.71,0,0,0,.11.17,1.59,1.59,0,0,0,.74.32l.09.06,0,0a7.28,7.28,0,0,0,1.24.12,6.47,6.47,0,0,0,0-.81l0,0a8.73,8.73,0,0,0,.72.64,6,6,0,0,0,.9-1.58l.19-.1a8.46,8.46,0,0,0,.82.76,5.38,5.38,0,0,0,.94-1.74,1,1,0,0,0,.47.08c.64-.07,1.68-1.35,1.68-1.35S70.31,166.67,69.66,166.74Z"/></g></g></svg>