<svg xmlns="http://www.w3.org/2000/svg" xmlns:xlink="http://www.w3.org/1999/xlink" viewBox="0 0 71.73 54.71"><defs><style>.cls-1{isolation:isolate;}.cls-2{fill:#d1d3d4;mix-blend-mode:multiply;}.cls-10,.cls-11,.cls-12,.cls-13,.cls-14,.cls-15,.cls-16,.cls-17,.cls-18,.cls-19,.cls-2,.cls-20,.cls-21,.cls-22,.cls-3,.cls-4,.cls-5,.cls-6,.cls-7,.cls-8,.cls-9{fill-rule:evenodd;}.cls-3{fill:#dccec0;}.cls-4{fill:#f1ece5;}.cls-5{fill:url(#GradientFill_25);}.cls-6{fill:url(#GradientFill_9);}.cls-7{fill:url(#GradientFill_25-2);}.cls-8{fill:url(#GradientFill_25-3);}.cls-9{fill:url(#GradientFill_25-4);}.cls-11{fill:#132829;}.cls-12{fill:url(#GradientFill_9-2);}.cls-13{fill:url(#GradientFill_9-3);}.cls-14{fill:#171641;}.cls-15{fill:#3f65d1;}.cls-16{fill:#cdc0dc;}.cls-17{fill:url(#GradientFill_8);}.cls-18{fill:#f8f86e;}.cls-19{fill:#4e76e6;}.cls-20{fill:#2a4ba5;}.cls-21{fill:#cbfc81;}.cls-22{fill:#5882f0;}</style><linearGradient id="GradientFill_25" x1="1462.46" y1="57.51" x2="1453.66" y2="41.64" gradientTransform="matrix(-1, 0, 0, 1, 1494.84, 0)" gradientUnits="userSpaceOnUse"><stop offset="0" stop-color="#938681"/><stop offset="1" stop-color="#bcaba4"/></linearGradient><linearGradient id="GradientFill_9" x1="1437.28" y1="17.24" x2="1453.1" y2="44.63" gradientTransform="matrix(-1, 0, 0, 1, 1494.84, 0)" gradientUnits="userSpaceOnUse"><stop offset="0" stop-color="#b6a49c"/><stop offset="1" stop-color="#9e8f88"/></linearGradient><linearGradient id="GradientFill_25-2" x1="1441.11" y1="26.46" x2="1427.29" y2="26.22" xlink:href="#GradientFill_25"/><linearGradient id="GradientFill_25-3" x1="1457.33" y1="6.62" x2="1450.07" y2="18.71" xlink:href="#GradientFill_25"/><linearGradient id="GradientFill_25-4" x1="1459.72" y1="15.71" x2="1445.91" y2="15.47" xlink:href="#GradientFill_25"/><linearGradient id="GradientFill_9-2" x1="1446.33" y1="50.18" x2="1440.95" y2="47.08" xlink:href="#GradientFill_9"/><linearGradient id="GradientFill_9-3" x1="1459.56" y1="42.54" x2="1454.18" y2="39.44" xlink:href="#GradientFill_9"/><linearGradient id="GradientFill_8" x1="1441.08" y1="6.26" x2="1494.66" y2="65.77" gradientTransform="matrix(-1, 0, 0, 1, 1494.84, 0)" gradientUnits="userSpaceOnUse"><stop offset="0" stop-color="#ac9f52"/><stop offset="1" stop-color="#878030"/></linearGradient></defs><g class="cls-1"><g id="Слой_2" data-name="Слой 2"><g id="Layer_1" data-name="Layer 1"><polygon class="cls-2" points="55.21 52.84 67.54 45.72 46.05 33.32 31.18 33.32 26.17 36.21 17.93 31.45 15.56 31.45 3.9 35.94 0 40.43 24.72 54.71 27.09 54.71 35.33 49.95 40.33 52.84 55.21 52.84"/><polygon class="cls-3" points="56.17 37 56.17 51.88 68.5 44.76 68.5 29.88 56.17 37"/><polygon class="cls-4" points="34.69 24.6 56.17 37 68.5 29.89 47.01 17.48 34.69 24.6"/><polygon class="cls-5" points="34.69 24.6 51.17 34.11 52.55 33.32 60.9 33.32 62.12 32.61 60.9 31.91 54.99 31.91 58.49 29.89 58.49 29.88 58.49 29.88 42.01 20.37 34.69 24.6"/><polygon class="cls-6" points="34.69 24.6 56.17 37 56.17 51.88 34.69 39.48 34.69 24.6"/><polygon class="cls-3" points="62.12 19.37 60.9 20.08 60.9 33.32 62.12 32.61 62.12 19.37"/><polygon class="cls-7" points="59.67 19.37 60.9 20.08 60.9 33.32 59.67 32.61 59.67 19.37"/><polygon class="cls-8" points="43.51 8.63 42.29 9.33 42.29 22.57 43.51 21.87 43.51 8.63"/><polygon class="cls-9" points="41.06 8.63 42.29 9.33 42.29 22.57 41.06 21.87 41.06 8.63"/><path class="cls-10" d="M52.39,51.13A1.39,1.39,0,0,1,51,51a3.89,3.89,0,0,1-1.38-1.46,4,4,0,0,1-.57-1.92,1.37,1.37,0,0,1,.57-1.26l1-.6a1.39,1.39,0,0,1,1.38.14,4,4,0,0,1,1.37,1.45A4,4,0,0,1,54,49.27a1.35,1.35,0,0,1-.58,1.26Z"/><path class="cls-11" d="M51,46.48a4.32,4.32,0,0,1,2,3.38c0,1.25-.87,1.75-2,1.13a4.29,4.29,0,0,1-1.95-3.38C49.06,46.37,49.93,45.86,51,46.48Z"/><path class="cls-12" d="M51,47.85a1.7,1.7,0,0,1,.77,1.33c0,.49-.35.69-.77.45a1.71,1.71,0,0,1-.77-1.34C50.24,47.8,50.58,47.6,51,47.85Z"/><path class="cls-10" d="M39.16,43.49a1.39,1.39,0,0,1-1.38-.14,4.32,4.32,0,0,1-2-3.38,1.37,1.37,0,0,1,.57-1.26l1-.6a1.38,1.38,0,0,1,1.38.14,4.32,4.32,0,0,1,2,3.38,1.35,1.35,0,0,1-.58,1.26Z"/><path class="cls-11" d="M37.78,38.84a4.32,4.32,0,0,1,1.95,3.38c0,1.25-.87,1.75-1.95,1.13a4.29,4.29,0,0,1-2-3.38C35.83,38.73,36.7,38.22,37.78,38.84Z"/><path class="cls-13" d="M37.78,40.21a1.7,1.7,0,0,1,.77,1.33c0,.49-.35.69-.77.45A1.71,1.71,0,0,1,37,40.65C37,40.16,37.35,40,37.78,40.21Z"/><path class="cls-14" d="M60.9,18.67l-1.23.7,1.23.71,1.22-.71-1.22-.7ZM42.29,7.92l-1.23.71,1.23.7,1.22-.7Z"/><polygon class="cls-15" points="56.17 23.26 56.17 24.44 56.17 25.63 63.95 21.14 71.73 16.64 71.73 15.46 71.73 14.27 62.33 13.51 56.17 23.26"/><polygon class="cls-16" points="31.45 8.98 31.45 10.17 31.45 11.36 39.23 6.86 47.01 2.37 47.01 1.19 47.01 0 39.23 0.61 31.45 8.98"/><polygon class="cls-17" points="31.45 11.36 56.17 25.63 56.17 23.26 31.45 8.98 31.45 11.36"/><polygon class="cls-18" points="39.23 0.61 62.13 13.83 54.35 22.21 31.45 8.98 39.23 0.61"/><path class="cls-19" d="M39.23.61l3.64,2.1-7.78,8.38L31.45,9,39.23.61ZM60.31,12.78,64,14.88l-7.78,8.38-3.64-2.11,7.78-8.37Zm-7-4.06L45.5,17.1l3.65,2.1Q53,15,56.93,10.82l-3.65-2.1Zm-7-4.06L38.48,13l3.64,2.1L49.9,6.77Z"/><path class="cls-20" d="M31.45,11.36l3.64,2.1V11.09L31.45,9v2.38ZM52.53,23.53l3.64,2.1V23.26l-3.64-2.11v2.38Zm-7-4.06,3.65,2.1V19.2L45.5,17.1v2.37Zm-7-4.06,3.64,2.1V15.14L38.48,13Z"/><polygon class="cls-21" points="39.23 0.61 62.13 13.83 69.91 13.22 47.01 0 39.23 0.61"/><path class="cls-22" d="M39.23.61l3.64,2.1,7.78-.61L47,0,39.23.61ZM60.31,12.78,64,14.88l7.78-.61-3.64-2.1-7.78.61Zm-7-4.06,3.65,2.1,7.78-.6L61.06,8.11l-7.78.61Zm-7-4.06L49.9,6.77l7.78-.61L54,4.06Z"/></g></g></g></svg>